<?xml version="1.0" encoding="utf-8"?>
<!-- Generator: Adobe Illustrator 23.0.4, SVG Export Plug-In . SVG Version: 6.00 Build 0)  -->
<svg version="1.1" id="Layer_1" xmlns="http://www.w3.org/2000/svg" xmlns:xlink="http://www.w3.org/1999/xlink" x="0px" y="0px"
	 viewBox="0 0 864 864" style="enable-background:new 0 0 864 864;" xml:space="preserve">
<g>
	<path d="M481.1,830.3c-0.8,1.9-1.3,3.3-1.8,4.6c-1.9,4.8-3.7,9.5-5.7,14.3c-0.5,1.2-1,2.4-1.8,3.4c-1.2,1.7-3.7,2.3-5.6,1.4
		c-1.7-0.8-2.7-2.8-2.3-4.8c0.2-1.1,0.7-2.1,1.1-3.2c2-5.1,4-10.1,5.9-15.2c0.5-1.2,0.8-2.4,1.1-3.6c-2.6-1.8-19.1-8.8-25.7-11
		c-0.5,0.7-1.1,1.4-1.6,2.2c-2.9,5.3-5.7,10.7-8.6,16.1c-0.5,0.8-0.8,1.8-1.3,2.6c-1.2,1.8-3.6,2.4-5.5,1.7
		c-1.8-0.7-3.2-3.2-2.6-5.1c0.5-1.8,1.3-3.6,2.2-5.3c3.5-6.5,7-12.9,10.8-19.3c6.9-11.6,14.3-22.8,22.9-33.2c2.4-2.9,5-5.8,7.8-8.5
		c1.8-1.8,3.9-3.3,6-4.8c1.2-0.8,2.5-1.4,3.9-1.8c4.4-1.4,8,0,10.1,4.1c2,3.8,2.3,8,2,12.2c-0.5,5.4-1,10.8-2.1,16.2
		c-1.6,8.3-3.7,16.5-5.5,24.8c-0.2,1.1-0.5,2.1-0.6,3.3c25.9,9.8,54.3,9.8,81.6,9.2c29.6-0.7,59.2-0.3,88.8-0.3c23,0,46,0,69,0
		c1.6,0,3.2,0.1,4.8-0.1c1.9-0.2,2.8-1.2,3.2-3c0.2-0.9,0.2-1.9,0.3-2.9c0-1.8,0-3.5,0-5.3c0-257.9,0-515.8,0-773.8
		c0-1.8,0-3.5,0-5.3c0-1.7-0.8-2.8-2.3-3.3c-1.5-0.5-3.1-0.9-4.6-1c-1.6-0.2-3.2-0.1-4.8-0.1c-166.9,0-333.8,0-500.6,0
		c-3.2,0-6.4-0.1-9.5,0.9c-1.4,0.4-2.8,0.8-4.1,1.4c-5.3,2.2-8.7,5.8-9.1,11.8c-0.3,3.7-0.9,7.3-1.2,11c-0.8,11.8-1.6,23.6-1.5,35.5
		c0.1,11.9,1.7,23.6,3.5,35.3c1.2,7.8,1.3,15.6-0.4,23.4c-0.8,3.6-2.1,7.1-4.2,10.1c-5.1,7.3-14.5,8.7-21.5,3.1
		c-1.7-1.4-3.3-3.1-4.9-4.6c-2-1.9-3.8-3.9-5.9-5.7c-11.8-10.3-29.1-2.4-31.8,11.4c-1,4.8-0.4,9.6,0.5,14.3
		c1.2,6.3,2.5,12.5,3.7,18.8c0.6,3.1,0.8,6.4,1.6,9.5c0.8,3.6,1.6,7.2,3.1,10.5c2.7,5.9,3.9,12.2,4.3,18.6c0.8,13.1,1.3,26.2,2,39.3
		c0.4,6.9-1.2,13.4-5,19.2c-4.5,6.8-5.4,14.2-3.6,22c1.5,6.6,4.3,12.7,7.6,18.6c3.5,6.3,7,12.6,10.3,19c2.2,4.3,4.3,8.6,6,13.1
		c2.7,7.2,7.2,12.7,13.7,16.7c2.7,1.7,5.3,3.6,7.7,5.7c2,1.8,4,3.7,5.6,5.9c6.8,9.4,5.6,20.2-2.8,28.1c-0.7,0.7-1.5,1.3-2.2,1.8
		c-3.8,3-6.9,6.6-9.5,10.7c-1.4,2.3-2.9,4.6-4.3,7c-4,6.8-8.3,13.3-15.7,17.2c0.5,2.9,0.9,5.5,1.4,8.2c1,5.2,2,10.4,3.1,15.5
		c1.3,6.1-0.1,11.4-4.6,15.8c-0.7,0.7-1.3,1.4-2,2.1c-2.3,2.6-3.7,5.6-3.8,9.1c-0.4,7.8-3.1,14.6-8.1,20.6c-1.8,2.2-3.5,4.6-5.3,6.8
		c-2,2.6-2.7,5.4-1.9,8.6c0.5,2.2,1.2,4.3,1.6,6.5c0.6,3,1.3,5.9,1.6,9c0.4,4-0.2,8-2.1,11.7c-0.7,1.4-1.3,2.9-1.7,4.5
		c-0.5,2,0,3.3,1.9,4.5c0.9,0.6,2,1.1,3,1.5c1.3,0.6,2.7,1.1,4,1.5c7.9,2.6,11.8,8.3,12.9,16.3c0.9,6.3,0.5,12.5-1,18.6
		c-1.8,7.5-6.1,12.9-13.5,15.6c-1.8,0.7-3.6,1.4-5.3,2.2c-10.9,5.2-13.7,18.7-5.9,27.9c1,1.2,2.2,2.2,3.3,3.3c1.8-0.8,2.2-2.2,3-3.3
		c5.6-8.8,11.5-17.3,18.3-25.3c2.9-3.4,6-6.6,9.4-9.6c1.9-1.7,4.1-3,6.5-4c5-2.1,9.2-0.3,11.4,4.7c1.3,2.8,1.7,5.9,1.6,8.9
		c-0.2,4.3-0.5,8.6-1.1,12.9c-3.2,20.8-8.7,40.9-17,60.3c-0.6,1.5-1.2,3-2.1,4.3c-1.3,2.1-3.8,2.8-5.8,1.8c-2-1-3-3.4-2.2-5.7
		c0.4-1.1,0.9-2,1.3-3.1c2.3-6,4.6-11.9,6.9-18c-0.6-0.4-0.9-0.8-1.3-1c-8.1-3.4-16.2-6.7-24.6-10.2c-1.2-0.5-8.8,15.9-9.5,17.2
		c-0.8,1.6-1.7,3.3-3.1,4.5s-3.5,1.7-5.1,0.8c-1.5-0.9-2.1-2.8-1.9-4.5c0.2-1.7,1-3.3,1.8-4.8c2.9-5.6,5.9-11.2,8.8-16.8
		c-3.9-2.4-8.9-2.4-12.7-5c-7.5-5.2-7.2-17.7-5.3-25.5c2.2-8.8,7.6-17.2,15.8-21.5c2.3-1.2,4.6-2.3,6.9-3.3c4-1.6,6.1-4.5,6.9-8.5
		c0.6-3.2,0.6-6.4,0.2-9.6c-0.3-2.3-1.4-3.9-3.5-4.8c-2.8-1.2-5.6-2.4-8.4-3.6c-5.2-2.3-8.5-6.2-9.9-11.6c-0.8-3.3-0.7-6.7,0.2-10
		c0.5-1.7,1-3.4,1.7-5c1.8-4,1.9-8,0.6-12.2c-0.8-2.6-1.4-5.2-2-7.9c-1.6-7.5,0.1-14.3,4.4-20.5c1.6-2.4,3.5-4.6,5.4-6.7
		c3.2-3.6,5-7.7,5-12.6c0-2.2,0.4-4.5,0.9-6.6c1-4.5,3-8.6,6.5-11.5c3.1-2.5,3.6-5.4,2.7-9c-1.2-5.1-2.3-10.3-3.2-15.5
		c-0.8-4.6-1-9.2-0.5-13.9c0.4-4.6,2.1-6.9,6.5-7.7c3.8-0.7,6.4-2.9,8.4-5.9c1.8-2.6,3.4-5.4,4.7-8.3c3.5-7.2,8.2-13.3,14.7-18
		c1.2-0.8,2.2-1.8,3.2-2.9c1.5-1.6,1.7-3.5,0.4-5.3c-1.2-1.7-2.5-3.4-4.1-4.7c-2.3-1.9-4.9-3.6-7.5-5.2c-7.4-4.7-12.9-11-16.2-19.1
		c-4.5-11.3-10.2-22-16.3-32.6c-3-5.3-5.8-10.7-7.9-16.4c-2.6-7.1-4-14.4-3.5-22.1c0.4-6.2,2.3-12,5.6-17.2
		c3.2-5.1,4.3-10.5,3.8-16.5c-0.6-8.6-0.9-17.3-1.4-25.9c-0.2-4.3-0.5-8.6-1.1-12.9c-0.4-3.1-1.1-6.4-2.3-9.3
		c-2.4-6-3.9-12.1-4.9-18.5c-1.4-8.4-3.1-16.6-4.6-25c-1.1-6.3-1.7-12.7-0.7-19.1c2.5-15.5,16-27.7,31.6-28.8
		c11.6-0.8,21.4,2.7,29.3,11.3c1.8,2,3.7,3.8,6.4,5.1c2.3-4.3,2.8-8.7,2.4-13.2c-0.8-7.6-1.6-15.3-2.7-22.9
		c-1.8-13.1-2-26.2-1.3-39.3c0.6-10.1,1.5-20.1,2.4-30.1c0.1-1.6,0.4-3.2,0.7-4.7c1.5-9.3,6.8-15.6,15-19.8c5.1-2.5,10.3-4.3,16-4.5
		c2.4-0.1,4.8-0.2,7.2-0.2c167.5,0,335,0,502.6,0c2.7,0,5.5,0,8.1,0.3c8.6,1,15.3,7.7,16.3,16.3c0.2,1.9,0.3,3.8,0.3,5.7
		c0,14.7,0,29.4,0,44.2c0,246.4,0,492.8,0,739.2c0,1.9-0.1,3.8-0.3,5.7c-0.8,6-4.2,10.3-9.4,13.1c-1.5,0.8-3.3,1.2-5,1.5
		c-1.9,0.3-3.8,0.1-5.8,0.1c-61.2,0-122.6,1-183.8,0.3c-2.5,0-4.9-0.1-7.4-0.2c-9.6-0.4-19.3-1.6-28.6-4.3
		C498.2,838.8,490,833.9,481.1,830.3z M482.6,769.8c-1.2,0.6-2,0.8-2.5,1.2c-2.6,2.4-5.3,4.6-7.6,7.3c-7.4,8.4-13.8,17.5-19.8,27
		c-0.4,0.7-0.7,1.4-1.2,2.4c7.7,3.7,15.5,6.8,23.3,9.9c0.4-0.7,0.7-1.1,0.8-1.6c3.5-12,6.1-24.1,7.4-36.5
		C483.3,776.5,483.5,773.5,482.6,769.8z M169.8,641c-1.3,0.7-2.2,1-2.9,1.6c-2.6,2.4-5.2,4.7-7.5,7.4c-7,8.1-13.2,16.8-19,25.9
		c-0.6,0.9-1,1.9-1.6,3.2c7.8,3.5,15.4,6.7,23.3,9.7c0.4-0.9,0.9-1.6,1.1-2.3c3-11,5.5-22,6.9-33.3
		C170.5,649.4,170.8,645.5,169.8,641z"/>
	<path d="M402.2,767.1c-1.7,0.7-1.9,2.3-2.4,3.5c-5.5,12.6-11,25.2-16.4,37.8c-0.6,1.5-1.2,3-1.9,4.4c-1.3,2.5-3.7,3.5-5.9,2.6
		c-2.3-1-3.3-3.4-2.5-6c0.3-1.1,0.8-2.1,1.3-3.1c9.8-23.8,20.3-47.3,31.4-70.5c0.7-1.6,1.6-3.2,2.7-4.5c2-2.3,4.9-2.2,6.6,0.1
		c0.5,0.7,0.9,1.7,0.9,2.6c0,1.4-0.2,2.9-0.4,4.3c-1.5,10.9-3,21.8-4.4,32.8c-0.9,6.8-1.8,13.6-2.3,20.5c-0.6,7.2-0.9,14.4-1.2,21.5
		c-0.1,1,0.3,2.1,0.5,3.8c1.1-1.1,1.9-1.6,2.3-2.4c2.2-3.9,4.6-7.7,6.5-11.7c5.4-11.2,10-22.8,14.4-34.5c2.7-7,5.2-14.1,7.8-21.1
		c0.4-1.2,0.8-2.4,1.4-3.6c1.1-2.2,3.5-3.1,5.6-2.3c2.1,0.8,3.2,2.6,2.8,5c-0.2,1.1-0.6,2.2-0.9,3.2c-6,16.9-12.2,33.7-19.5,50
		c-2.4,5.4-5.1,10.7-7.8,15.9c-1.4,2.7-3.3,5.1-5.2,7.5c-1.1,1.3-2.5,2.5-4,3.4c-3.6,2.1-7.7,1.2-10.2-2.2c-1.5-2-2.2-4.3-2.5-6.7
		c-0.2-2.2-0.3-4.5-0.3-6.7c0.2-11.7,1.3-23.3,2.8-34.9C401.6,772.9,401.8,770,402.2,767.1z"/>
	<path d="M191.8,701.6c-0.8,1.7-1.6,3-2.2,4.4c-3.3,7.4-6.6,14.9-9.9,22.3c-0.5,1.2-1,2.4-1.7,3.4c-1.3,1.9-3.4,2.5-5.5,1.7
		c-2.1-0.8-3.2-2.7-2.7-5c0.3-1.4,0.9-2.7,1.5-4c3.9-8.8,7.8-17.5,11.7-26.3c0.8-1.7,1.7-3.4,1.7-5.4c0-1,0.5-2.3,1.3-3
		c1.6-1.5,2.3-3.4,3.1-5.3c5-11.2,9.9-22.5,14.9-33.7c2.4-5.5,3.5-6,9.2-4.7c5.1,1.2,10.2,2.9,14.6,5.9c2.6,1.8,5.2,3.8,7.3,6.2
		c7.8,8.7,6.9,21,1.2,28.8c-3.6,4.9-8.3,8.4-13.9,10.6c-4.3,1.8-8.9,2.7-13.5,3c-1.3,0.1-2.5,0.1-4.2,0.2c0.4,0.9,0.6,1.6,1,2.2
		c0.4,0.7,0.9,1.3,1.3,2c4.8,7,5.8,14.8,4.1,22.9c-0.9,4.6-2.7,8.8-4.8,13c-0.3,0.7-0.8,1.4-1.3,2c-1.4,1.5-3.9,1.8-5.7,0.7
		c-1.6-1-2.5-3.1-1.9-5c0.4-1.2,1-2.3,1.5-3.5c1.1-3.1,2.4-6.3,3.3-9.5c1.5-5.4,0.4-10.5-2.6-15.1
		C197.5,707.2,195.1,704.2,191.8,701.6z M196.8,689.8c1.2,0.5,1.8,0.8,2.4,0.9c4.3,0.6,8.6,0.8,12.9,0.1c4.8-0.7,9.3-2.4,13-5.6
		c8.2-6.9,8.9-17.2-0.5-24.4c-3-2.3-6.3-3.7-9.8-4.9c-0.8-0.3-1.8-0.2-2.8-0.4C206.9,667,202,678.2,196.8,689.8z"/>
	<path d="M331,781.1c0.5-3.5,0.8-7,1.7-10.4c3.4-13.4,8.3-26.2,15.3-38.1c2.4-4,5.2-7.6,8.1-11.3c2.2-2.8,5-4.9,8.1-6.7
		c2.7-1.5,5.5-2.6,8.5-2.9c6.6-0.8,12.4,2.3,15.1,8.5c1.9,4.3,2.6,8.9,1.8,13.6c-0.7,3.9-1.5,7.8-2.7,11.6
		c-3.7,11.7-8.6,23-14.4,33.9c-1.9,3.5-4.1,6.9-6.4,10.1c-2.4,3.4-5.5,6.2-9.1,8.4c-2.3,1.4-4.8,2.5-7.5,3
		c-6.4,1.2-12.2-1.5-15.4-7.2C331.8,789.7,331.1,785.5,331,781.1z M380.3,731.2c0.2-6.1-1.3-12.1-8.2-10.1c-0.9,0.3-1.8,0.7-2.7,1.1
		c-2.8,1.4-5,3.4-7,5.7c-3.5,4-6.3,8.5-8.7,13.1c-5.3,10.1-9.4,20.6-12.1,31.7c-0.5,2.2-0.9,4.4-1.2,6.6c-0.4,2.7-0.1,5.4,0.8,8
		c1.4,4,4.4,5.3,8.4,3.8c2.4-0.9,4.6-2.3,6.3-4.3c2.3-2.7,4.6-5.4,6.3-8.4c7-12.1,12.9-25.3,16.8-38.8
		C379.6,737.7,380.2,734.5,380.3,731.2z"/>
	<path d="M277.1,764.5c1.7,0.8,3.1,1.5,4.6,2.1c8.5,3.6,17,7.2,25.6,10.9c1.3,0.6,2.7,1.1,3.9,1.8c2.1,1.2,2.8,3.8,1.8,5.8
		c-1,2-3.4,3.1-5.7,2.4c-1.1-0.3-2.1-0.8-3.1-1.3c-11.9-5.1-23.8-10.1-35.7-15.2c-1-0.4-2.1-0.8-3-1.4c-2.7-1.7-3.1-5.1-0.8-7.4
		c0.5-0.4,1-0.8,1.5-1.2c17.2-13.3,33.3-28,48.8-43.1c3.9-3.8,7.7-7.6,11.6-11.5c0.8-0.8,1.4-1.7,2.3-2.7c-1.7-0.8-3.1-1.5-4.6-2.1
		c-5.8-2.4-11.5-4.7-17.3-7.1c-1.2-0.5-2.4-1-3.4-1.7c-1.8-1.2-2.4-3.7-1.5-5.6c0.8-1.7,2.9-2.9,4.7-2.6c0.9,0.1,1.9,0.5,2.7,0.8
		c9.3,3.8,18.6,7.6,27.9,11.5c0.7,0.3,1.5,0.6,2.2,1c2.6,1.7,3.1,4.6,1.1,7c-0.7,0.9-1.5,1.6-2.3,2.4
		c-18.8,19.2-38.2,37.8-58.9,54.8C278.7,762.9,278,763.6,277.1,764.5z"/>
	<path d="M243.9,750.5c1.8,0.8,3.4,1.5,4.9,2.3c1.5,0.8,2.4,2.1,2.6,3.8c0.2,2.5-1.7,4.7-4.3,4.7c-1.1,0-2.2-0.2-3.3-0.6
		c-5.6-2.2-11.2-4.5-16.9-6.8c-1.6-0.6-2.7-1.6-3.1-3.3c-0.8-3.5,2.1-6.4,5.6-5.5c1.2,0.3,2.4,0.9,3.6,1.4c0.6,0.2,1.2,0.3,1.9,0.4
		c5-11.8,9.9-23.6,15.1-35.2c5.1-11.5,10.6-22.9,16.1-34.5c-1.3-0.8-2.6-1.4-3.7-2.2c-1.9-1.3-2.5-3.5-1.6-5.5
		c0.7-1.6,1.9-2.6,3.7-2.6c1.2,0.1,2.5,0.3,3.7,0.7c4.6,1.8,9.2,3.6,13.8,5.5c0.6,0.2,1.2,0.5,1.7,0.8c2,1.2,2.8,3.3,2.2,5.3
		c-0.7,2.3-2.8,3.6-5.2,3.2c-1.2-0.2-2.4-0.8-3.6-1.2c-0.6-0.2-1.2-0.4-1.7-0.6C270.9,686.7,249.6,733.9,243.9,750.5z"/>
</g>
</svg>
