<?xml version="1.0" encoding="utf-8"?>
<!-- Generator: Adobe Illustrator 23.0.4, SVG Export Plug-In . SVG Version: 6.00 Build 0)  -->
<svg version="1.1" id="Layer_1" xmlns="http://www.w3.org/2000/svg" xmlns:xlink="http://www.w3.org/1999/xlink" x="0px" y="0px"
	 viewBox="0 0 864 864" style="enable-background:new 0 0 864 864;" xml:space="preserve">
<g>
	<path d="M578.7,822.5c4.5,2.2,7.6,5.7,8.7,11.1c3.8-0.3,7.5-0.5,11.1-0.8c9.6-0.9,19.1-1.8,28.7-2.7c9-0.9,18-1.8,27-2.7
		c8.8-0.9,17.5-1.7,26.3-2.6c8.5-0.9,17-1.7,25.5-2.6c7.3-0.7,14.6-1.4,21.9-2.2c3.6-0.4,7.1-1.1,10.6-1.8c2.4-0.5,3.7-2,4-4.5
		c0.2-1.7-0.2-2.5-1.7-3.3c-1.2-0.6-2.4-1-3.5-1.5c-6.3-3-9.8-8.6-9.4-15.3c0.1-1.5,0.5-3,1-4.4c1.2-3.1,1.3-6.2,0.1-9.3
		c-1.1-2.9-1.7-6-1.2-9.2c0.6-3.6,2.2-6.6,4.7-9.2c0.7-0.7,1.4-1.3,2-2c2.1-2.3,3.3-4.9,3.2-8c-0.1-4.1,1.2-7.7,4.1-10.7
		c1.5-1.5,1.9-3.3,1.3-5.3c-0.7-2.5-1.4-4.9-1.9-7.4c-0.4-1.6-0.6-3.3-0.7-5c-0.2-3.8,1.1-7.1,3.8-9.7c1.8-1.7,2.9-3.7,4.1-5.9
		c1.1-2.2,2.6-4.2,4.4-5.9c3.2-3.2,6.6-6.1,9.9-9.1c0.6-0.5,1.3-0.9,2.3-1.6c-2.7-1.8-4.8-3.3-7-4.7c-4.4-2.7-7-6.4-7.7-11.5
		c-0.2-1.6-0.7-3.1-1.2-4.6c-1.1-3.3-2.3-6.5-3.4-9.7c-1.3-3.4-3.4-6.3-6-8.8c-0.9-0.9-1.8-1.8-2.6-2.8c-2.6-3.1-4-6.6-3.7-10.6
		c0.2-3.5-1.2-6.1-3.6-8.5c-10.3-9.9-20.6-19.9-30.9-29.9c-12.8-12.4-25.5-24.7-38.2-37.1c-9-8.7-18-17.5-27-26.3
		c-12.8-12.4-25.6-24.8-38.4-37.2c-9.9-9.6-19.7-19.2-29.6-28.7c-11.9-11.5-23.8-23-35.7-34.5c-8.5-8.2-17-16.5-25.5-24.7
		c-11.1-10.7-22.2-21.4-33.3-32.1c-8.6-8.3-17.1-16.6-25.7-24.9c-10.8-10.4-21.6-20.9-32.5-31.3c-10.6-10.1-21.2-20.2-31.7-30.3
		c-1.1-1.1-2.2-2.3-3.2-3.6c-1.8-2.4-2.5-5.2-2.4-8.1c0-1.4,0.1-2.7,0.1-4.1c0-78.7,0-157.4,0-236.2c0-2.3,0.5-4.6-0.7-7.1
		c-0.9,0-1.9-0.1-2.9-0.1c-19.7,0-39.4,0-59,0c-63,0-126.1,0-189.1,0c-0.7,0-1.4,0-2.2,0c-2.8,0-3.7,0.8-4.1,3.5
		c-0.3,2,0.4,3.8,1.1,5.6c1.9,4.4,3.8,8.8,5.7,13.2c2.7,6.3,4.1,12.9,3.6,19.9c-0.3,3.7-0.9,7.3-2.4,10.7c-2.6,6.1-3.2,12.5-2.8,19
		c0.3,4.7,0.4,9.4,0.5,14.1c0.1,8.3-2.7,15.5-7.9,21.8c-2.4,2.8-4.7,5.6-7,8.5c-2.8,3.5-3.2,7.4-1.4,11.5c0.5,1.2,1.1,2.5,1.4,3.8
		c0.7,2.7,2.1,4.8,4.2,6.5c5.7,4.6,10.9,9.6,15.5,15.4c5.6,7,10.4,14.6,14.5,22.6c4.3,8.5,5.4,17.5,4,26.8c-0.5,3.2-1.1,6.5-1.5,9.7
		c-0.7,4.8-0.2,9.4,2.4,13.6c3,5,4.5,10.6,5.5,16.3c0.5,2.6,0.1,5.3-0.5,7.8c-0.2,1-0.5,2-0.7,3.1c1.3,1,2.7,2,4,3
		c4.4,3.5,8.2,7.7,11.3,12.4c5.3,8,11.6,15,17.8,22.3c1.7,2.1,3.5,4.1,5.5,6.5c0.5-1.4,0.9-2.5,1.2-3.6c0.9-3,1.8-6,2.8-8.9
		c1.6-4.3,4-8.2,7.6-11.2c4.2-3.4,8.9-4.6,14.2-3.2c4.9,1.2,8.1,5.1,8.4,10.2c0.2,2.8,0.1,5.6,0.2,8.4c0.1,2.1,0.3,4.1,1.3,6.3
		c3-0.4,6-0.7,9-1.1c5.2-0.7,10.5-1.4,15.7-2.1c0.8-0.1,1.6-0.1,2.4-0.1c3.7,0,6.5,2,7.5,5.5c1.5,4.9,1.1,9.8-2.1,13.9
		c-4,5.1-8.1,10.1-12.6,14.7c-4.2,4.2-9.4,6.9-15.5,7.4c-3.2,0.2-6.2-0.3-9.2-1.3c-3.5-1.3-7-2.7-10.5-4c-0.8-0.3-1.7-0.6-2.5-0.6
		c-1.4-0.1-2.1,0.8-1.7,2.1c0.2,0.6,0.5,1.2,0.8,1.7c9,15.1,17.4,30.6,27.4,45.1c3.8,5.5,4.8,11.6,3.1,18.1
		c-0.1,0.3-0.1,0.6-0.2,0.9c-1.1,3.3-0.1,6,2,8.6c3.7,4.5,7.3,9.1,10.9,13.7c1.1,1.4,1.8,3,2.8,4.6c1.6-1.4,3-2.7,4.5-4.1
		c5.4-4.8,11.2-9.1,17.7-12.2c3.7-1.8,7.6-3.1,11.8-2.9c6.8,0.3,12.3,5.1,13.5,11.9c0.9,5-1.6,9.6-5.7,12.3c-2,1.3-4.5,0.8-5.8-1
		c-1.3-1.8-1-4.3,0.9-5.8c1.7-1.3,2.8-2.6,2.3-4.8c-0.5-2.3-2.1-3.6-4.3-4c-1.3-0.3-2.7-0.3-4,0c-4.1,0.9-7.8,3-11.2,5.3
		c-10,6.9-18.8,15.2-26.2,24.8c-1.5,1.9-2.7,4.2-3.5,6.5c-1.4,3.8,0.7,6.3,4.7,6.1c1.7-0.1,3.2-0.8,4.7-1.7c2.5-1.6,5.4-0.5,6.3,2
		c0.5,1.4,0.3,2.7-0.7,3.8c-0.5,0.6-1.1,1.1-1.8,1.6c-3.5,2.3-7.4,3-11.5,2.3c-7.7-1.3-11.8-7.7-10-15.4c0.8-3.6,2.5-6.7,4.7-9.6
		c2.1-2.8,4.4-5.5,6.7-8.4c-1.1-1.1-2.1-2.3-3.2-3.4c-4.9-5-9.7-10-14.6-14.9c-0.6-0.6-1.2-1.3-1.8-1.9c-3.8-4.3-5.3-9.2-3.5-14.7
		c1.6-5.1,0.5-9.1-2.4-13.4c-5.2-7.5-9.7-15.4-14.4-23.2c-4-6.6-7.9-13.2-11.8-19.8c-2.8-4.6-3.1-9.5-1-14.5c3-7.1,10.4-10.6,18-8.5
		c3.7,1,7.3,2.3,10.8,3.9c5.4,2.4,10.1,1.9,14.3-2.4c2.7-2.7,5.2-5.6,7.8-8.5c0.5-0.6,0.8-1.3,1.5-2.5c-2.6,0.5-4.6,0.8-6.6,1.2
		c-4.6,0.8-9.3,1.7-14,2.2c-2.2,0.2-4.6-0.2-6.8-0.8c-3.4-0.9-5.3-3.4-5.7-6.9c-0.4-4.4-0.9-8.7-1.2-13.1c-0.1-1.5,0-3,0-4.6
		c-2,0-2.8,1.2-3.4,2.5c-0.8,1.7-1.5,3.5-2.1,5.3c-1.3,3.4-2.6,6.9-3.9,10.3c-1.6,4.1-3.8,7.8-7.4,10.4c-2.2,1.7-4.7,2.7-7.4,3.2
		c-3.7,0.7-6.4-0.5-8.4-3.7c-1.5-2.4-2.9-4.8-4.3-7.2c-4.3-7.1-8.8-13.9-13.9-20.4c-1.9-2.4-3.5-5-5.3-7.4c-3.7-5.3-8.1-9.7-13.6-13
		c-2.2-1.3-4.1-3.1-5.4-5.3c-1.7-2.8-1.7-5.6-0.1-8.4c0.3-0.5,0.6-1,0.9-1.4c1.8-2.9,2-5.8,0.6-8.9c-1.5-3.4-2.9-6.8-4.4-10.1
		c-2.6-5.8-3.2-11.8-2.2-18c0.7-4.2,1.2-8.4,1.9-12.6c0.6-4.1,0.1-8.1-1.2-12.1c-1.6-5-3.8-9.7-6.9-13.9
		c-4.2-5.7-8.5-11.3-12.8-16.8c-2.8-3.6-6.2-6.5-9.9-9c-0.6-0.4-1.2-0.9-1.8-1.2c-4-2.5-5.8-7.2-7-11.6c-1.4-5.1-3.6-10.8-2.2-16.1
		c1.2-4.8,4.5-9.5,7.6-13.3c1.7-2.1,3.5-4.1,5.3-6.2c3.6-4,5.4-8.6,5.1-14c-0.3-6.1-0.5-12.3-0.6-18.5c-0.1-6,0.7-11.8,3.2-17.3
		c2.7-5.9,3-11.9,0.9-18c-1.9-5.3-4.1-10.6-6.3-15.8c-0.7-1.8-1.6-3.5-2.3-5.3c-3.9-10.8,1.7-25.4,14.6-25.4
		c78.8,0.1,157.6,0.1,236.4,0.2c7.8,0,15.5,0,23.3,0c1.7,0,3.5,0.2,5.2,0.5c3.8,0.7,6,3.3,6,7.2c-0.1,10.6-0.4,21.3-0.5,31.9
		c-0.1,12,0,24,0,36c0,0.9,0,1.8,0,2.6c0,58.5,0,117,0,175.4c0,1.4,0,2.7-0.1,4.1c-0.2,2.8,0.9,5.1,2.9,7c4.9,4.7,9.9,9.3,14.8,14
		c7.2,6.9,14.4,13.9,21.6,20.8c11.3,10.9,22.6,21.7,33.8,32.6c8.4,8.1,16.7,16.3,25.1,24.4c10.7,10.3,21.4,20.7,32.1,31
		c7.2,7,14.3,13.9,21.5,20.9c12.8,12.4,25.6,24.9,38.4,37.3c8.1,7.9,16.1,15.8,24.2,23.6c11.9,11.6,23.9,23.2,35.8,34.8
		c6.7,6.5,13.4,13.1,20.1,19.6c12.1,11.8,24.2,23.5,36.3,35.2c8.1,7.9,16.3,15.9,24.4,23.8c5.4,5.3,10.9,10.6,16.4,15.9
		c1.6,1.5,3.4,2.7,4.9,4.2c1.6,1.5,3.1,3.2,4.5,4.9c0.5,0.6,0.6,1.6,0.7,2.5c0.1,2,0,4,0,6c0,2.6,0.8,4.9,2.6,6.7
		c1.1,1.1,2,2.3,3.1,3.3c3.4,3.3,5.5,7.2,6.7,11.7c0.4,1.6,1.1,3.2,1.9,4.7c1.6,3.2,2.9,6.4,2.9,10c0,1.6,1.1,2.4,2.3,3.2
		c3.2,2.1,6.4,4.2,9.6,6.4c0.8,0.5,1.6,1.1,2.3,1.7c3.1,2.7,4.2,8.4,1.3,11.7c-2.4,2.8-4.9,5.4-7.5,8.1c-2.6,2.6-5.3,5.1-7.9,7.7
		c-1.4,1.4-2.5,2.9-3,4.8c-0.6,2-1.8,3.6-3.4,4.8c-2.1,1.5-2.6,3.4-1.8,5.9c1.3,3.9,2.3,7.8,3.5,11.7c0.7,2.1,0.2,4-1.1,5.6
		c-1.2,1.5-2.4,3-3.8,4.3c-1.8,1.8-2.7,3.8-2.7,6.4c0.1,5.4-1.9,10-5.8,13.7c-0.5,0.5-1,1-1.5,1.5c-2.2,2.1-2.7,4.6-1.5,7.5
		c1.4,3.4,2,6.9,1.4,10.6c-0.3,1.9-0.9,3.7-1.6,5.5c-0.8,2.3-0.6,2.8,1.7,3.5c2.1,0.7,4.3,1.3,6.5,1.8c2.7,0.6,4.3,2.1,4.6,5
		c0.3,2.5,0.8,4.9,1.1,7.3c0.4,2.6,0.3,5.1-0.7,7.6c-0.9,2.5-1.9,4.9-2.8,7.4c-0.6,1.8-1.9,2.9-3.7,3.5c-6.8,2.3-13.7,3.7-20.8,4.5
		c-9.9,1-19.7,2.1-29.6,3.2c-7.1,0.7-14.2,1.4-21.2,2.1c-9,0.9-18,1.8-27,2.7c-9.1,0.9-18.1,1.8-27.2,2.6
		c-9.5,0.9-18.9,1.8-28.4,2.7c-2.4,0.2-4.8,0.3-7.2,0.4c-1.9,0.1-3.8,0-5.8,0.2c-4.9,0.3-8.6-3-9-7.9c0-0.6,0-1.1,0-1.7
		c0-1.6-0.8-2.7-2.2-3.4c-1.5-0.8-3-1.5-4.4-2.5c-3.6-2.5-4.8-5.4-3.5-9.5c1.7-5.4,1.3-10.5-0.6-15.7c-2.6-7.4-5.1-14.8-8.7-21.8
		c-2-3.9-4.3-7.6-7.3-11.2c-0.5,0.5-1.1,0.9-1.5,1.4c-3.3,3.4-6.7,6.9-10,10.3c-0.5,0.5-1,1-1.6,1.4c-1.9,1.3-4.3,1.1-5.7-0.5
		c-1.4-1.7-1.4-3.9,0.2-5.7c2.8-2.9,5.7-5.8,8.6-8.7c1.4-1.5,2.8-3.1,4.3-4.7c-5.4-5.4-10.6-10.7-16.1-16.3
		c-4.1,3.4-8.3,6.8-12.4,10.2c-0.7,0.6-1.4,1.1-1.9,1.8c-1.3,1.5-4.4,1.5-5.9,0c-1.5-1.5-1.6-4.2,0.1-5.8c2.3-2.2,4.7-4.4,7.2-6.4
		c11.9-9.5,24.3-18.3,37.7-25.6c4.2-2.3,8.5-4.5,13.2-5.6c2.1-0.5,4.2-1,6.4-0.5c3.7,0.7,5.9,3.2,6.1,6.9c0.1,2.5-0.3,4.8-1.3,7
		c-1.8,3.7-3.6,7.5-5.7,11.1c-4.4,7.4-9.5,14.5-14.8,21.2c-0.3,0.4-0.7,0.9-1.2,1.5c0.5,0.6,1.1,1.3,1.7,1.9
		c9.6,10.4,16.7,22.2,21.6,35.4c1.7,4.5,2.9,9.2,3.1,14C578.7,819.1,578.7,820.6,578.7,822.5z M532.1,745.8
		c4.7,4.8,9.4,9.6,14.3,14.5c0.6-0.7,0.9-1.1,1.3-1.5c5.3-6.8,10.3-13.8,14.6-21.3c1.5-2.6,2.8-5.4,4.1-8.1c0.3-0.7,0.4-1.6,0.6-2.5
		C560.9,727.3,539.1,739.1,532.1,745.8z"/>
	<path d="M480.4,675.5c-2.1,2-4.3,3.9-6.4,5.9c-6.9,6.7-13.8,13.5-20.8,20.3c-0.6,0.6-1.1,1.1-1.8,1.6c-1.7,1.1-4,0.8-5.3-0.6
		c-1.3-1.4-1.4-3.8-0.3-5.3c0.3-0.4,0.7-0.8,1.1-1.2c15.8-15.8,32.1-31.2,48.8-46c1-0.9,2.2-1.6,3.5-1.9c1.4-0.4,2.9-0.1,3.8,1.3
		c0.9,1.4,0.9,2.8,0.3,4.3c-0.2,0.5-0.6,1-0.8,1.4c-8.9,14.6-17.4,29.4-25.4,44.6c-1.9,3.6-3.5,7.4-5.2,11.1
		c-0.3,0.7-0.5,1.5-0.9,2.5c1.5-0.2,2.4-1,3.3-1.7c3.6-2.9,7.2-5.8,10.6-9c11.2-10.4,21.5-21.6,31.8-32.9c0.5-0.6,1-1.2,1.6-1.7
		c1.7-1.5,4.1-1.5,5.6,0c1.6,1.5,1.8,3.9,0.3,5.6c-2.2,2.6-4.6,5.1-6.9,7.6c-9.6,10.3-19.2,20.6-29.6,30c-3.1,2.8-6.5,5.4-9.9,7.9
		c-1.9,1.3-4,2.3-6.2,3c-4.5,1.4-8.4-1.3-9-6c-0.4-3.2,0.5-6.2,1.8-9.1c4.2-9.7,9.2-19,14.5-28.1c0.6-1.1,1.2-2.2,1.8-3.2
		C480.7,675.8,480.6,675.6,480.4,675.5z"/>
	<path d="M447.1,655.4c0.1,0.7,0,1.2,0.1,1.6c2.5,9.5-0.2,17.5-6.7,24.5c-1.7,1.9-3.5,3.7-5.5,5.4c-2.7,2.3-6.5,0.8-6.9-2.6
		c-0.2-1.5,0.4-2.8,1.5-3.8c1.8-1.8,3.7-3.5,5.4-5.4c2-2.1,3.4-4.6,4.2-7.4c0.9-3,0.6-6-0.3-9c-0.6-2.1-1.4-4.2-2.1-6.5
		c-1.4,0.5-2.1,1.4-2.9,2.2c-5.4,5.1-10.8,10.2-16.2,15.3c-1.4,1.3-2.9,2-4.8,1.3c-2.9-1.1-3.6-4.6-1.4-6.9c2.2-2.2,4.5-4.3,6.8-6.5
		c4.6-4.4,9.5-8.6,13.8-13.3c1.9-2,3.8-3.7,5.9-5.5c8.1-7.3,16-15,23.9-22.5c3.7-3.5,4.8-3.6,9-0.5c4.6,3.4,8.5,7.3,11.2,12.3
		c6.8,12.8-0.2,25.8-12.6,29.3c-6.9,2-13.6,1.3-20.2-1.1C448.7,656,448,655.8,447.1,655.4z M444.6,644.4c6.1,4,12.2,6.4,19.2,5.7
		c2.9-0.3,5.6-1.2,8-2.9c4.1-2.9,5.7-7.6,4.2-12.5c-1.5-4.9-4.9-8.4-9-11.6C459.6,630.2,452.3,637.1,444.6,644.4z"/>
	<path d="M295.2,520.6c-5.6-5.4-10.8-10.5-16.3-15.7c-0.2,0.1-0.7,0.3-1.1,0.6c-4.3,3.5-8.6,7.1-13,10.6c-0.2,0.2-0.3,0.3-0.5,0.5
		c-1.7,1.4-4.2,1.3-5.7-0.2c-1.4-1.4-1.6-3.9-0.2-5.5c0.7-0.9,1.6-1.7,2.6-2.5c14.4-12.1,29.6-23.1,46.4-31.7
		c4.1-2.1,8.4-3.9,13.1-4.2c1-0.1,2.1,0,3.1,0.1c3,0.5,5,2.6,5.5,5.6c0.5,2.6,0.2,5.2-0.9,7.5c-1.7,3.8-3.5,7.7-5.7,11.3
		c-9.4,15.5-20.5,29.5-33.6,42c-0.5,0.5-1.1,1-1.7,1.4c-1.8,1.2-4.1,0.9-5.4-0.7c-1.3-1.6-1.3-3.9,0.2-5.5c2-2.1,4.2-4.2,6.2-6.3
		C290.5,525.6,292.7,523.2,295.2,520.6z M300.2,514.2c0.4-0.3,0.5-0.4,0.6-0.5c6.6-8.3,12.7-17,17.7-26.4c0.8-1.5,1.4-3.2,2-4.8
		c0.2-0.5,0.1-1,0.1-1.6c-6.2,0.6-28.7,12.9-34.7,19C290.8,504.5,295.4,509.3,300.2,514.2z"/>
	<path d="M399.1,648.2c-3.6-0.1-6.8-1-9.5-3.4c-3.7-3.4-4.5-7.8-3.8-12.5c0.6-4.1,2.4-7.8,4.7-11.2c4.4-6.6,9.7-12.5,15.5-17.9
		c3.9-3.7,8.1-7,12.3-10.2c4-3,8.5-5.4,13.5-6.5c2.7-0.6,5.3-0.8,8.1-0.4c7.5,1.3,11.8,7.2,10.7,14.7c-0.7,4.5-2.5,8.6-5.2,12.2
		c-4.7,6.4-10.3,12-16.1,17.4c-4.1,3.8-8.4,7.4-12.8,10.9c-4.2,3.3-8.9,5.7-14.2,6.5C401.3,648,400.2,648.1,399.1,648.2z
		 M399.6,639.9c0.2,0,0.7-0.1,1.3-0.2c4-0.6,7.5-2.4,10.5-4.9c5.2-4.3,10.3-8.6,15.2-13.2c4.1-4,7.9-8.4,11.6-12.7
		c2.3-2.6,3.8-5.7,4.3-9.2c0.4-2.9-1-4.8-3.9-5.3c-2.4-0.4-4.8-0.1-7,0.9c-2.9,1.3-5.8,2.7-8.4,4.5c-10,7-18.3,15.7-25.4,25.5
		c-1.8,2.5-3.1,5.2-3.7,8.2C393.2,637.5,395.2,639.9,399.6,639.9z"/>
	<path d="M368.6,590.1c-4.5,4.6-8.8,9-13.1,13.4c-0.8,0.8-1.8,1.6-2.9,2c-1.7,0.6-3.5-0.3-4.4-1.7c-1-1.7-0.9-3.7,0.6-5.3
		c2-2.2,4.1-4.3,6.2-6.4c13.6-13.3,27.7-26.1,42-38.6c0.3-0.3,0.6-0.5,0.9-0.8c2.3-1.9,4.1-2,6.4,0.1c3.4,3,6.7,6.2,10,9.3
		c3.4,3.2,6.7,6.4,10,9.6c0.2,0.2,0.4,0.3,0.5,0.5c1.7,1.8,1.8,4.2,0.3,5.8c-1.5,1.7-4.2,1.8-6.1,0.2c-2-1.8-3.8-3.6-5.7-5.4
		c-3.7-3.5-7.4-7.1-11.1-10.6c-0.3-0.3-0.7-0.6-1.3-1.1c-8.7,7.8-17.3,15.6-25.9,23.3c3.2,3.3,6.1,6.3,9.1,9.3
		c0.6,0.6,1.2,1.1,1.7,1.7c1.5,1.7,1.5,4.1,0,5.6c-1.5,1.6-4,1.8-5.8,0.1c-2.1-1.9-4.1-4-6.2-6C372.3,593.6,370.6,592,368.6,590.1z"
		/>
	<path d="M377.3,532.6c-0.8-0.9-1.4-1.4-1.9-2c-1.4-1.6-1.3-3.9,0.1-5.5c1.4-1.5,3.7-1.8,5.4-0.5c0.4,0.3,0.8,0.6,1.1,0.9
		c3.3,3.2,6.5,6.4,9.7,9.6c1.2,1.1,1.7,2.5,1.3,4.1c-0.7,3-4.2,4.2-6.6,2.3c-1.1-0.9-2.1-1.9-3.3-3c-15.8,13.8-31.1,27.9-45.6,43.2
		c0.9,0.9,1.7,1.7,2.5,2.6c1.9,2,1.9,4.5,0.2,6.2c-1.3,1.3-4.2,1.6-6.1-0.3c-3.8-3.9-7.8-7.6-11.6-11.5c-1.7-1.7-1.7-4.2-0.1-5.8
		c1.6-1.6,4.1-1.7,5.8-0.1c1,0.9,1.8,2,2.9,3.3C346.1,560.7,361.6,546.7,377.3,532.6z"/>
	<path d="M489.5,734.2c14.7-15.6,30.3-29.5,45.9-43.5c-0.7-0.7-1.3-1.3-1.9-2c-1.4-1.6-1.4-3.9,0-5.5c1.4-1.6,3.6-1.8,5.4-0.6
		c0.5,0.4,1,0.8,1.5,1.2c3.1,3,6.1,6.1,9.2,9.1c0.9,0.9,1.7,1.9,1.7,3.3c0,1.8-0.8,3.1-2.4,3.8c-1.6,0.8-3.1,0.5-4.5-0.6
		c-1-0.9-2-1.9-3.1-2.9c-15.9,13.7-31.1,28-45.7,43.2c0.9,0.9,1.7,1.7,2.4,2.5c1.9,2,2.1,4.5,0.4,6.2c-1.6,1.7-4.2,1.7-6.2-0.2
		c-3.8-3.7-7.7-7.5-11.4-11.3c-1.8-1.8-1.8-4.4-0.1-6c1.7-1.7,4.1-1.7,6,0.1C487.7,732.1,488.5,733.1,489.5,734.2z"/>
	<path d="M303.6,548.6c4.1,4,8.1,7.8,12,11.7c0.4,0.4,0.8,0.8,1.2,1.2c1.6,1.8,1.6,4.2,0.1,5.8c-1.6,1.6-3.8,1.7-5.6,0.2
		c-1.6-1.3-3-2.8-4.5-4.3c-3.8-3.6-7.5-7.2-11.3-10.7c-2.5-2.4-2.7-4-0.5-6.6c2.5-2.9,5.1-5.7,7.8-8.5
		c13.4-13.7,27.6-26.6,42.1-39.2c0.6-0.5,1.2-1.1,1.9-1.5c1.9-1,3.8-0.6,5.2,1c1.2,1.5,1.2,3.8-0.1,5.3c-0.5,0.6-1.2,1.1-1.8,1.6
		c-14.9,13.1-29.5,26.5-43.3,40.7C305.7,546.4,304.7,547.4,303.6,548.6z"/>
</g>
</svg>
