<?xml version="1.0" encoding="utf-8"?>
<!-- Generator: Adobe Illustrator 23.0.4, SVG Export Plug-In . SVG Version: 6.00 Build 0)  -->
<svg version="1.1" id="Layer_1" xmlns="http://www.w3.org/2000/svg" xmlns:xlink="http://www.w3.org/1999/xlink" x="0px" y="0px"
	 viewBox="0 0 864 864" style="enable-background:new 0 0 864 864;" xml:space="preserve">
<g>
	<path d="M41.4,174.6c-0.1,2-0.2,4.1-0.3,6.2c-0.1,9.4-0.1,18.7-0.1,28.1c0,86.9-0.1,173.8-0.1,260.6c0,40.3,0,80.6,0.1,121
		c0,20.6,0,41.1,0.1,61.7c0,12.4,0.1,24.8,0.2,37.2c0,7.9,0.2,15.8,0.2,23.7c0,0.5,0.1,1.1,0.1,1.8c124.9,0,249.6,0,374.5,0
		c0.4-2.2,0.8-4.4,1.2-6.5c0.9-4.3,2-8.6,3.9-12.6c2.1-4.6,4.9-8.6,9.7-10.9c6.4-3,14.1-1.3,18.2,4.1c2.6,3.4,3.2,7.3,2.3,11.4
		c-0.5,2.1-2.4,3.4-4.5,3.1c-2.2-0.3-3.6-2.2-3.4-4.5c0-0.2,0-0.3,0.1-0.5c1.1-4.8-3.4-8.2-8.1-6.8c-2.7,0.8-4.5,2.6-5.9,5
		c-1.7,3.1-2.9,6.4-3.7,9.8c-1.7,6.9-2.4,14-2.8,21.1c-0.4,7.8-0.3,15.5,0.9,23.2c0.5,2.9,1.2,5.8,2.4,8.5c2.3,5.1,6.5,5.6,10.2,1.4
		c1.1-1.2,1.6-2.9,2.3-4.4c0.3-0.6,0.3-1.3,0.5-1.8c0.7-1.7,2.6-2.7,4.3-2.4c1.8,0.3,3.2,1.8,3.2,3.7c0,1.1-0.1,2.3-0.5,3.3
		c-2,6.2-5.9,10.6-12.4,12.2c-4.2,1-7.9-0.3-11.1-3.1c-2.8-2.5-4.3-5.7-5.4-9.2c-1.8-5.5-2.1-11.3-2.4-17c-0.1-2.7-0.2-5.4-0.3-8.3
		c-1.3,0-2.4,0-3.5,0c-125.8,0-251.7,0-377.5,0c-1.6,0-3.2-0.1-4.8-0.4c-4.3-0.8-7.3-4.4-7.4-8.8c0-0.6,0-1.3,0-1.9
		c0-185.2,0-370.4,0-555.6c0-1.8,0.1-3.5,0.4-5.2c1.2-7.5,11.3-7.4,17.1-7.4c25.5-0.3,51,0.4,76.6,0.4c31.3,0,62.5,0,93.8,0
		c62.5,0,125.1,0,187.6,0s125.1,0,187.6,0s125.1,0,187.6,0c19.7,0,39.4,0,59.1,0c1.5,0,3,0,4.5,0.2c4.6,0.6,7.7,4.2,7.7,8.9
		c0,0.8,0,1.6,0,2.4c0,179,0,357.9,0,536.9c0,3.3,0.3,6.5-0.5,9.8c-1.7,6.9-5.6,12.1-12.1,15.3c-5.7,2.8-11.8,3.7-18,4.5
		c-0.6,9.6-1.2,19.6-5.8,28.1c-3.1,5.7-8.6,10.8-15.1,10.6c-4-0.2-7.7-2.4-10.4-5.5s-4.2-6.8-5.3-10.7c-2.4-8.3-2.8-17.1-2.8-25.7
		c0-10.2,0.4-20.5,3.5-30.3c1.6-4.9,3.9-9.8,7.7-13.3c3.8-3.5,9.3-5.4,14.3-3.9c4.1,1.2,7.2,4.5,9.3,8.2c3.5,6.5,4,14.1,4.5,21.5
		c0,0.5,0.1,1,0.4,1.3c1.3,1.4,4.8,0,6.3-0.4c1.6-0.5,3.1-1.3,4-2.7c1.5-2,1.2-4.5,1.2-6.8c0-2.9,0-5.9,0-8.8c0-5.8,0-11.7,0-17.5
		c0-11.7,0-23.4,0-35.1c0-1.3,0-2.6,0-3.9c0-23.4,0-46.9,0-70.3c0-23.4,0-46.9,0-70.3c0-23.4,0-46.9,0-70.3c0-23.4,0-46.9,0-70.3
		s0-46.9,0-70.3s0-46.9,0-70.3c0-12.4,0-24.9,0-37.3c0-1.2,0-2.4,0-3.3c-0.3-0.3-0.3-0.4-0.4-0.4c-0.1,0-0.1-0.1-0.2-0.1
		c-0.3,0-0.6-0.1-0.9-0.1c-260.5,0-521.1,0-781.6,0C42,174.4,41.8,174.5,41.4,174.6z M805.8,724.6c0-6.2-0.3-12.3-0.7-18.4
		c-0.2-3.5-0.8-7-2.3-10.2c-0.8-1.7-1.8-3.4-3.1-4.8c-1.9-2.2-4.6-2.5-6.9-0.8c-1.6,1.2-3.1,2.7-4.3,4.4c-2.1,2.9-3.2,6.3-4,9.7
		c-1.7,7-2.3,14.2-2.4,21.4c-0.2,8.4,0.3,16.8,2,25.1c0.7,3.6,1.9,6.9,4.3,9.8c2.6,3.1,6,3.4,9,0.7c6.3-5.7,7.2-15.9,7.9-23.8
		C805.7,733.2,805.8,728.9,805.8,724.6z"/>
	<path d="M629.1,733.8c1.8,1.1,3.4,2.1,5,3.2c6.8,4.4,10.6,10.9,11.6,18.7c0.6,4.3,0.5,8.6,0.5,12.9c0,2.6-1.9,4.4-4.2,4.3
		c-2.3-0.1-3.9-2-3.8-4.7c0.2-4.1,0.3-8.1-0.5-12.2c-1-5.4-3.8-9.6-8.3-12.7c-3.1-2.1-6.5-3.7-10.3-5c-0.1,2.1-0.1,4-0.2,5.9
		c-0.2,8.2-0.4,16.5-0.6,24.7c-0.1,2.9-1.4,4.5-3.8,4.6c-2.5,0.1-4.2-1.4-4.2-4.1c0-3.3,0.1-6.6,0.2-9.8c0.2-5.4,0.3-10.7,0.5-16.1
		c0.1-1.8,0.1-3.7,0.2-5.5c0.1-1.5,0.1-3-0.6-4.4c-0.4-0.7-0.3-2,0.1-2.7c0.8-1.5,0.8-3.1,0.9-4.6c0.3-11.1,0.6-22.2,0.8-33.3
		c0-1.8,0.1-3.7,0.2-5.5c0.2-2.1,1.1-3.3,3.1-3.8c7.6-1.7,15.2-2,22.7,0.6c8.3,2.9,13.6,8.5,15,17.4c0.9,5.3-0.3,10.3-2.9,15
		c-4.2,7.7-10.8,12.7-18.8,16C630.8,733.1,630,733.4,629.1,733.8z M619.4,727.7c6.9-0.7,14.4-4.1,19.1-8.4c2.7-2.5,4.7-5.4,6-8.8
		c2.8-7.7-0.2-15-7.8-18.2c-5.1-2.1-10.4-2.3-15.8-1.4c-0.1,0-0.3,0.2-0.5,0.4C620.1,703.3,619.7,715.4,619.4,727.7z"/>
	<path d="M702.4,747.1c-9.1,0-18,0-27.2,0c-0.1,0.7-0.4,1.5-0.5,2.4c-0.6,6.6-1.3,13.2-1.9,19.8c-0.2,2.3-1.8,3.9-4.1,3.8
		c-2.1-0.1-3.8-1.6-3.7-3.9c0.1-3.7,0.2-7.4,0.6-11c1.5-13.2,3.5-26.3,6.6-39.2c1.9-8.1,3.9-16.2,7.5-23.7c0.9-1.9,2-3.7,3.1-5.4
		c0.7-1,1.6-2,2.6-2.8c3.3-2.6,6.8-2.6,10,0.2c2.1,1.7,3.4,4,4.5,6.4c2.5,5.6,3.9,11.5,5.2,17.4c3.2,14.6,5.3,29.4,5.6,44.4
		c0.1,3.9,0.1,7.8,0.1,11.7c0,1-0.1,1.9-0.3,2.9c-0.4,2-2.1,3.2-4,3.1c-2-0.1-3.6-1.7-3.7-3.7c-0.1-1,0-1.9,0-2.9
		c-0.2-6.1-0.3-12.1-0.5-18.2C702.5,748.1,702.5,747.8,702.4,747.1z M676.3,738.9c8.6,0.1,16.9,0.5,25.3,0.1
		c-0.1-1.1-0.1-1.9-0.2-2.7c-1.4-11-3.2-22-6.3-32.7c-0.8-2.7-1.9-5.3-3-7.8c-0.4-0.9-1.1-1.6-2-2.6c-1.1,1.7-2.1,3-2.7,4.4
		c-1.2,2.6-2.4,5.3-3.3,8c-2.7,8-4.7,16.1-6.3,24.3C677.4,732.8,676.9,735.7,676.3,738.9z"/>
	<path d="M503.2,724.1c-0.1,6.9-0.4,15.6-1.8,24.2c-0.9,5.3-2.6,10.4-5.7,14.9c-1.7,2.5-3.7,4.6-6.4,6.1c-4.9,2.8-10.6,2.4-15-1.1
		c-2.8-2.2-4.7-5-6.1-8.2c-2.3-4.9-3.2-10.2-3.7-15.5c-0.9-9.2-1.3-18.3-0.5-27.5c0.5-6.2,1.4-12.4,3.3-18.3
		c1.7-5.2,4.2-10,8.6-13.6c3.9-3.2,8.3-4.7,13.4-3.2c2.5,0.8,4.6,2.2,6.3,4.2c3.6,4.1,5.5,9,6.3,14.3
		C503,707.6,503.2,715,503.2,724.1z M495.5,724.4C495.5,724.4,495.5,724.3,495.5,724.4c0.1-7.3-0.3-14.6-1.3-21.8
		c-0.6-3.8-1.7-7.3-4-10.4c-2.5-3.4-5.7-3.9-8.9-1.2c-1.6,1.3-2.9,3-4,4.7c-2.4,3.9-3.5,8.4-4.3,12.9c-1.5,8.7-1.9,17.5-1.3,26.3
		c0.3,5.4,1,10.8,1.9,16.2c0.5,3.4,1.9,6.6,4.1,9.4c2.6,3.3,6.2,3.7,9.3,0.8c1.1-1.1,2.1-2.4,3-3.7c2.2-3.5,3.3-7.5,3.7-11.5
		C494.4,738.8,495.4,731.6,495.5,724.4z"/>
	<path d="M599.3,722.7c0,0.4,0,0.8,0,1.3c0,7.2-0.8,14.3-1.5,21.4c-0.5,5.3-1.9,10.4-4.4,15.1c-1.4,2.6-3.1,4.8-5.2,6.8
		c-5.8,5.3-13.6,5.2-19.2-0.3c-4-3.9-5.9-8.9-7.1-14.1c-1.5-6.6-1.9-13.3-2.2-20c-0.3-6.8,0-13.6,0.7-20.3
		c0.6-5.3,1.6-10.6,3.5-15.6c1.7-4.6,4.1-8.7,7.9-11.8c7-5.9,15.5-4.9,20.9,2.4c3.3,4.4,5,9.5,5.5,14.9
		C598.8,709.1,599.3,715.9,599.3,722.7z M591.2,725.5c0-8.3,0.1-15.7-1-23c-0.5-3.6-1.6-7-3.7-10c-2.7-3.9-6.2-4.3-9.8-1.1
		c-2.5,2.2-4.1,5.1-5.3,8.2c-1.9,5.1-2.8,10.3-3.3,15.7c-1,10.1-0.8,20.3,0.5,30.4c0.5,3.7,1,7.5,2.8,10.9c0.8,1.6,1.8,3.3,3,4.6
		c2.3,2.5,5.3,2.7,7.9,0.6c1.3-1.1,2.5-2.5,3.5-3.9c1.8-2.8,2.9-5.9,3.5-9.1C590.7,740.7,591,732.6,591.2,725.5z"/>
	<path d="M762.6,721.3c-0.3,13.5-3.5,26.1-11,37.4c-2.5,3.7-5.5,6.9-9.1,9.4c-4.7,3.2-9.9,4.8-15.6,4c-2.7-0.4-4-1.6-4.1-4.4
		c-0.1-8.5-0.2-17.1-0.1-25.6c0.1-8.1,0.3-16.3,0.7-24.4c0.4-8.9,0.9-17.9,1.4-26.8c0.2-2.7,1.1-4,3.5-4.4
		c5.4-1.1,10.8-1.1,16.1,0.7c6.8,2.4,11.4,7.2,14.4,13.6c2.7,5.7,3.8,11.9,3.9,18.1C762.6,719.7,762.6,720.5,762.6,721.3z
		 M730.5,764.2c2.8-0.2,4.5-0.8,6.6-2.1c3.2-2,5.8-4.6,7.8-7.7c8.5-13.3,11.5-27.8,8.8-43.3c-0.7-4.5-2.4-8.6-5.6-12
		c-4.2-4.5-9.4-5.9-15.6-5.1C731,717.4,730,740.7,730.5,764.2z"/>
	<path d="M522.6,764.4c1.4,0,2.7,0,3.9,0c5.6-0.1,11.2-0.2,16.8-0.3c0.8,0,1.6,0,2.4,0.2c1.8,0.5,2.8,1.9,2.8,3.7
		c0,1.8-1,3.2-2.7,3.8c-0.6,0.2-1.3,0.2-1.9,0.3c-7.8,0.2-15.7,0.4-23.5,0.6c-0.5,0-1,0-1.4,0c-2.4-0.1-3.4-0.8-3.7-3.2
		c-0.4-3.8-0.8-7.6-0.8-11.5c0-11.8,0.1-23.7,0.5-35.5c0.4-11.3,1.2-22.7,1.9-34c0.1-2.5,1.3-3.9,3.1-4.3c2.9-0.5,5,1.4,4.9,4.4
		c-0.3,6.1-0.8,12.1-1.1,18.2c-0.4,7.6-0.8,15.2-0.9,22.8c-0.2,10.8-0.2,21.6-0.3,32.4C522.5,762.6,522.6,763.4,522.6,764.4z"/>
</g>
</svg>
