<?xml version="1.0" encoding="utf-8"?>
<!-- Generator: Adobe Illustrator 23.0.4, SVG Export Plug-In . SVG Version: 6.00 Build 0)  -->
<svg version="1.1" id="Layer_1" xmlns="http://www.w3.org/2000/svg" xmlns:xlink="http://www.w3.org/1999/xlink" x="0px" y="0px"
	 viewBox="0 0 864 864" style="enable-background:new 0 0 864 864;" xml:space="preserve">
<g>
	<path d="M426.5,148.9c0.1-0.9,0.2-1.6,0.3-2.4c0.6-6.1,4.4-10.2,10.5-10.9c3-0.3,6.1-0.2,9.1-0.3c1.2,0,2.4,0,3.5,0
		c0.6-3.2,1.1-6.2,1.8-9.1c0.8-3.8,2.1-7.4,4.4-10.6c3.3-4.7,9-6.6,14.2-4.7c5,1.8,7.8,6.9,6.6,11.9c-0.5,2.2-2.1,3.4-4.1,3.2
		c-2-0.2-3.3-1.8-3.3-4c0-0.1,0-0.2,0-0.2c0.2-1.5,0.1-3-1.5-3.7c-1.6-0.7-3.2-0.5-4.5,0.6c-1,0.9-1.9,2.2-2.5,3.4
		c-1.7,3.4-2.4,7.1-3,10.8c-1.1,7.7-1.4,15.5-0.5,23.2c0.2,2,0.7,3.9,1.2,5.9c0.2,0.8,0.6,1.5,1,2.2c1.3,2.1,2.9,2.4,4.7,0.7
		c0.7-0.7,1.2-1.6,1.7-2.5c0.2-0.4,0.3-0.9,0.4-1.4c0.6-2.1,2.3-3.2,4.3-2.8c2,0.4,3.2,2.1,2.9,4.3c-0.4,3-1.8,5.6-4,7.7
		c-5.7,5.3-13.2,4.1-16.9-2.8c-1.5-2.9-2.3-6-2.6-9.2c-0.2-2.3-0.3-4.6-0.5-6.9c0-0.5-0.1-0.9-0.2-1.4c-3,0-5.8,0-8.8,0
		c-0.2,1.2-0.4,2.1-0.5,3c-0.5,4.2-2.9,6.9-6.8,8.1c-3,0.9-6.1,1.5-9.1,1.9c-5.9,0.8-11.9,1.3-17.9,1.9c-1.2,0.1-2.4,0.1-3.6-0.1
		c-3.1-0.5-4.9-2.7-5-5.8c-0.1-1.9,0.1-3.8,0.2-5.8c0-1.3,0-2.5,0-4c-0.9-0.2-1.7-0.4-2.5-0.4c-13.3-0.5-26.7-0.9-40-1.4
		c-11.1-0.4-22.2-0.7-33.3-1.1c-14.8-0.5-29.6-1.1-44.3-1.6c-12.6-0.4-25.2-0.8-37.9-1.3c-11.7-0.4-23.5-0.9-35.2-1.3
		c-11.1-0.4-22.2-0.7-33.3-1.1c-12.9-0.4-25.9-0.9-38.8-1.4c-1.1,0-2.2,0-3.4,0c-1.3-0.1-1.9,0.6-2.1,1.8c-0.3,2-0.6,4-0.8,5.9
		c-1,9.7-2.1,19.4-3.1,29.1c-1.1,10.3-2.2,20.7-3.1,31c-0.9,9.8-1.7,19.6-2.6,29.4c-0.7,8.4-1.5,16.7-2.2,25.1
		c-0.8,9.3-1.5,18.6-2.1,28c-0.8,12.3-1.6,24.6-2.3,36.9c-0.6,10.7-1.1,21.4-1.7,32.1c-1,19.2-1.8,38.3-2.9,57.5
		c-0.7,11.2-2,22.5-3.1,33.7c-1,10.1-2.1,20.2-3.1,30.3c-1.1,10.8-2.2,21.6-3.2,32.5c-1,10.4-1.4,20.9-1.2,31.4
		c0.1,5.7,1.7,11.1,4.7,15.9c2.6,4.2,5.4,8.3,8.2,12.4c4.4,6.6,8.9,13.1,13.3,19.7c1.4,2.1,2.4,4.5,2.9,7c1,4.8-0.1,8.9-3.6,12.3
		c-1.4,1.3-2.9,2.5-4.5,3.6c-10.5,7.5-21.7,13.8-33,20C66.2,644.5,48.3,654,31,664.5c-2.5,1.5-5,3.1-7.5,4.7c-1,0.6-1.9,1.4-3.1,2.2
		c8.5,16.1,18.8,30.9,31.3,44.4c0.7-0.7,1.3-1.2,1.8-1.8c2.2-2.4,4.8-4.1,7.9-5.3c1.3-0.5,2.6-1.3,3.6-2.2c2.1-1.8,4.5-2.5,7.1-1.9
		c2,0.4,4,1.1,6,1.8c1.3,0.5,2.4,0.5,3.6-0.2c3.5-1.8,6.9-1.4,10.3,0.5c0.9,0.5,2,0.8,3.3,1.4c0.2-1.3,0.5-2.2,0.5-3.2
		c0.1-6.4,6.8-11.4,14-9.5c1.9,0.5,3.5,0.4,5.2-0.6c1.2-0.7,2.5-1,3.7-1.6c1.5-0.8,3.2-1.6,4.4-2.8c2.6-2.7,5.7-4,9.4-4.2
		c1.9-0.1,3.8-0.3,5.7-0.5c2.9-0.3,4.2-1.9,4.1-4.8c0-1.3-0.3-2.5-0.4-3.8c-0.2-2.8,1-4.8,3.6-5.9c1.9-0.8,3.5-1.8,4.8-3.4
		c1.1-1.3,2.7-1.7,4.3-1.8c1.2,0,2.4,0,3.7,0c0.2-0.9,0.4-1.6,0.4-2.3c0.3-4.9,4.4-7.5,9.3-6.2c1.7,0.4,3.4,1,5.1,1.3
		c5,0.7,9.9,0.3,14.6-1.6c1.9-0.8,3.7-1.5,5.5-2.3c4-1.7,8.1-2.3,12.4-1.4c0.9,0.2,1.7,0.3,2.6,0.4c3.1,0.3,5.7-0.7,7.5-3.3
		c0.8-1.3,1.6-2.6,2.2-4c2.1-4.9,5.4-8.8,9.8-11.8c6.4-4.5,13.3-7.6,21-9.1c5.3-1,9.9,0.4,13.8,4.3c1.5,1.5,3,2.9,4.6,4.2
		c1.4,1.1,3,1.8,4.8,1.9c2,0.2,3.2-0.5,3.9-2.4c0.6-1.5,0.9-3,1.4-4.6c3.7-13.1,12.6-20.8,25.6-23.8c2.8-0.6,5.7-0.6,8.6-0.5
		c2.8,0,4.9-0.9,6.7-3.1c1.4-1.8,2.9-3.6,4.6-5.2c1.4-1.3,2.9-2.6,4.5-3.6c2.8-1.8,5-4,6.4-7c1.9-4.1,4.6-7.2,9.1-8.7
		c2.3-0.8,3.3-2.6,3.5-5c0.3-2.7,0.5-5.4,0.8-8.1c0.2-1.3,0.5-2.7,0.9-4c3.8-11.6,16.5-12.8,23.7-5.8c4,3.9,5.7,8.8,5.5,14.4
		c-0.1,4-0.5,8-0.8,12c-0.1,0.9,0,1.9,0,3.3c1.3-0.6,2.2-0.9,3.1-1.4c3.4-1.8,6.7-3.7,10.2-5.3c4.3-2,8.7-2.1,13-0.2
		c1.1,0.5,2,0.4,2.8-0.4c0.7-0.7,1.5-1.3,2.2-1.9c5.5-4.5,11.9-6,18.9-5.4c6.5,0.5,12,3,16.7,7.5c1.2,1.2,2.5,2.2,3.8,3.3
		c2.6,2.1,5,2.3,7.6,0.2c2.8-2.2,5.6-4.4,7.8-7c4.1-4.9,9.3-6.9,15.4-7c3.5-0.1,7,0.2,10.5,0.5c5.2,0.5,10.3,1.2,15.3,2.7
		c4.5,1.3,8.6,3.3,12.4,6.2c0.7,0.5,1.5,0.9,2.4,1.4c0.5-1.7,0.9-3.2,1.4-4.6c1.1-2.9,2.8-5.2,6.1-5.9c2.8-0.6,5.4-0.1,7.4,2.2
		c0.6,0.7,1.3,1.2,2.2,1.9c2.6-3.1,6.4-4.1,10-5.4c0.7-0.3,1.5-0.6,2.2-1c6.6-3.7,13.8-4.3,21.2-3.6c3.8,0.3,7.6,1.2,11.1,2.8
		c5.3,2.4,8.2,6.4,8.6,12.3c0.1,1.6,0.1,3.2,0.2,4.8c0,0.9,0.1,1.9,0.2,3c3.8,0,7.3-0.4,11-1.5c-0.7-1.1-1.3-2-1.9-3
		c-3.3-5.1-3.1-8.7,0.6-13.4c0.9-1.1,1-2.1,0.7-3.3c-1.4-5.7-1.9-11.5-1.8-17.4c0.1-5.2,3.4-8.1,8.6-7.6c2.8,0.3,5.3,1.3,7.1,3.5
		c2.4,2.9,4.7,5.9,6.9,8.9c1.9,2.6,3.7,5.4,5.5,8.1c1.8,2.5,4.3,3.3,7.2,2.3c1.7-0.6,3.5-1.2,5.1-2c3.1-1.6,6.2-3.3,9.3-5
		c3.8-2.1,7.7-2.7,11.7-0.6c0.5,0.2,1,0.3,1.9,0.5c0-1.7,0.1-3.2,0-4.6c-0.2-3.4,0.4-6.7,1.9-9.8c2.1-4.3,3.6-8.7,3.8-13.5
		c0.2-3.5,3.1-5.8,6.7-5.9c7.5-0.1,13.9,5.5,15,13.2c0.3,1.9,0.2,3.8,0.2,5.7c0,1.7-0.1,3.4,0,5c0.2,4,2.9,6.7,6.9,6.8
		c2,0.1,2.5-0.2,3.2-2.2c1.6-4.8,2.7-9.7,2.8-14.8c0.1-6.8,0-13.6,0.1-20.4c0-2.9,0.3-5.7,0.4-8.6c0-0.5,0.1-1,0.2-1.4
		c0.9-4.2,3.3-6.8,6.8-7.4c4-0.6,8.2,1.3,10.1,4.9c1,1.9,1.9,3.9,2.6,5.9c3.7,10.6,7.3,21.2,11,31.7c0.5,1.4,1.1,2.8,1.8,4.3
		c2.8-0.6,5.4-1.2,7.9-1.7c2.8-0.5,5.1,0.9,7.8,1.8c2.9-6.1,7.6-8.9,14.5-7.2c0.5-0.6,1.1-1.2,1.6-1.8c2.5-2.9,5.7-4.3,9.6-4
		c2.6,0.2,5.2,0.6,8.1,0.9c0.5-0.5,1.2-1.3,1.9-2c2.7-2.7,5.2-3.1,8.3-1c1.6,1.1,3.3,1.5,5.2,1.5c2.2,0,4.3,0.1,6.5,0.3
		c2.5,0.2,4.8,1.1,6.9,2.6c0.6,0.4,1.2,0.7,1.8,1.1c1.4-1.4,2-3,2.1-4.6c0.1-5.3,0.2-10.5,0.1-15.8c0-3.5-1.5-6.5-3.2-9.4
		c-0.9-1.6-1.8-3.4-2.2-5.3c-0.7-3.6,0.6-6.6,3.4-8.9c2.1-1.7,4.5-2.6,7.1-3.3c4.1-1,8.2-1.9,12.4-2.9c3.8-0.9,5.2-2.3,5.6-6.2
		c0.4-4.1,0.5-8.3,0.7-12.4c0.2-8,0.3-16,0.6-24c0.7-17.2,0.8-34.4,0.6-51.6c-0.2-14.3-0.7-28.6-1.1-42.9
		c-0.2-8.1-0.4-16.1-0.6-24.2c-0.3-8.8-0.6-17.6-0.8-26.4c-0.3-9.9-0.3-19.8-0.6-29.7c-0.5-13.8-0.8-27.7-1.8-41.4
		c-1.2-16.3-3.1-32.6-4.7-48.9c-0.6-6.5-1-13.1-1.6-19.6c-0.1-0.9-0.2-1.9-0.3-2.8c-4.7-0.7-9.3-0.7-14-0.5c0,3.7,0,7.2,0,10.7
		c0,2.4,0.2,4.8,0.2,7.2c0,2.1-1.1,3.5-2.8,4c-2.4,0.7-4.5-1.2-4.7-4.1c-0.1-3.2-0.2-6.4-0.2-9.6c-0.1-13.8,0.5-27.5,1.4-41.2
		c0-0.6,0-1.1,0-1.9c-0.7-0.1-1.4-0.2-2.1-0.2c-3,0-6.1,0.1-9.1,0c-2.2,0-3.6-1.5-3.7-3.6c-0.1-1.8,1.2-3.4,3.1-3.7
		c0.5-0.1,1.1,0,1.7,0c9.9,0,19.8,0,29.8,0c0.2,0,0.5,0,0.7,0c2.5,0.1,3.9,1.4,3.9,3.6c0,2.2-1.4,3.7-3.8,3.7c-3,0.1-5.9,0-8.9,0
		c-1.3,0-2.5,0-4,0c-0.4,7-0.7,13.8-1.1,20.8c1.7,0,3.2,0,4.7,0c3.9,0,7.9-0.3,11.7,0.2c7.6,1,11.3,5.3,11.9,13
		c0.3,4.9,0.5,9.7,0.9,14.6c0.8,8.3,1.8,16.5,2.6,24.8c1.1,11,2.4,21.9,3.1,32.9c0.8,14,1.1,28.1,1.6,42.2
		c0.3,8.2,0.3,16.5,0.5,24.7c0.4,12.9,0.9,25.7,1.2,38.6c0.3,9.3,0.5,18.5,0.7,27.8c0.3,18.3,0.6,36.6,0.6,54.9
		c0,12.1-0.4,24.3-0.7,36.4c-0.2,8.6-0.4,17.3-0.9,25.9c-0.2,3.1-0.8,6.2-1.7,9.2c-1.4,4.8-4.5,8.3-9.3,9.9c-4.6,1.5-9.3,2.8-14,4.1
		c-0.4,0.1-0.9,0.2-1.5,0.4c0.1,0.7,0.1,1.4,0.4,1.9c2.5,4.8,2.8,10,3,15.2c0.2,6.2,0.1,12.3-1.4,18.4c-1,3.9-3,7.2-5.9,10
		c-2,1.9-4.5,3.1-7.2,3.6c-3.3,0.6-6.4-0.1-8.8-2.6c-2-2.1-4.5-2.9-7.4-2.7c-1.1,0.1-2.2,0.1-3.4,0c-2.2-0.1-4.3,0.2-6.3,1.3
		c-2.2,1.2-4.6,1.3-7,1c-2-0.3-4.1-0.7-6.2-1.1c-1.8,2.1-3.1,4.7-5.9,5.8c-2.7,1.1-5.4,0.4-8,0.2c-0.9,1.8-1.6,3.4-2.5,5
		c-3.4,5.9-9.9,7.2-15.3,3c-1.1-0.9-2.2-1.9-3.1-2.7c-2.3,0.6-4.3,1.2-6.4,1.6c-5.4,1.1-10-1-12.8-5.8c-2.9-5-4.8-10.4-6.3-16
		c-0.3-1.1-0.3-2.3-1.7-3.3c-0.2,2-0.4,3.7-0.6,5.4c-0.8,4.9-1.4,9.8-2.5,14.6c-0.5,2.4-1.7,4.7-2.9,6.8c-1.8,3.1-4.6,5.1-8.2,5.6
		c-7,0.9-13.4-0.5-19-4.8c-3.1-2.4-5.1-5.5-6.1-9.3c-0.2-0.6-0.3-1.2-0.5-1.9c-1.3,0.2-1.5,1.2-1.6,2.1c-0.1,1.1-0.1,2.2,0,3.4
		c0.4,5-1.2,9.3-4.1,13.2c-1.9,2.5-4,4.8-6.6,6.6c-0.9,0.6-1.9,1.2-2.9,1.6c-3.4,1.3-6.4,0.4-8.3-2.7c-0.6-0.9-1.1-1.9-1.7-3.1
		c-0.6,0.2-1.2,0.4-1.8,0.7c-3.1,1.4-6.1,2.9-9.2,4.2c-3.7,1.5-7.5,2.2-11.5,1.8c-3.4-0.4-6.5-1.7-9.1-3.9c-0.9-0.7-1.8-1.5-3-2.5
		c0,0.8,0,1.3,0.1,1.8c0.3,1.9,0.4,3.8-0.4,5.7c-0.4,0.9-0.1,1.6,0.3,2.5c0.8,1.5,1.6,3,2.1,4.6c1.2,4.2-0.3,8.1-4.2,10.2
		c-2.3,1.2-4.8,2.2-7.4,2.7c-6,1.1-12,2-18,2.7c-1.8,0.2-3.7,0-5.4-0.5c-4.8-1.1-7.4-4.2-7.7-9.1c-0.2-2.9,0-5.8,0-8.6
		c0.1-3-0.5-3.8-3.4-4.5c-2.5-0.6-5-0.9-7.6-0.6c-1,0.1-1.9,0.2-2.9,0.2c-3,0-5.6,0.9-8.1,2.4c-1.8,1.1-3.9,1.8-5.9,2.4
		c-0.9,0.3-1.4,0.6-1.7,1.4c-0.2,0.8-0.5,1.5-0.8,2.3c-2.4,5.9-8.1,8.2-13.9,5.7c-0.7-0.3-1.5-0.6-2.3-1c-1.1,0.8-2.2,1.6-3.3,2.4
		c-3.5,2.4-7.3,2.9-11.1,1.2c-1.9-0.8-3.7-1.9-5.4-3.1c-5.5-3.9-11.6-6-18.3-6.5c-3.5-0.2-7-0.6-10.5-0.9c-4.3-0.5-7.6,1.1-10,4.7
		c-3.6,5.3-8.6,8.7-14.8,10.4c-5.4,1.5-10.5,0.6-14.9-2.9c-2.3-1.8-4.5-3.6-6.7-5.4c-2.2-1.8-4.7-3-7.5-3.5
		c-3.8-0.7-7.1,0.1-10.1,2.4c-2.2,1.7-4.4,3.5-6.7,5.1c-3,2.1-6.3,2.8-9.8,1.6c-1.6-0.5-2.9-1.6-4.6-2.6c-2.7,1.5-5.5,3.1-8.4,4.7
		c-3.3,1.9-6.7,3.4-10.4,4.1c-3.4,0.6-6.7,0.4-9.9-1.1c-3.3-1.6-4.7-3.8-4.4-7.5c0.5-6.1,1.1-12.1,1.5-18.2c0.1-1.7,0-3.3-0.1-5
		c-0.1-1.2-0.5-2.2-1.8-2.7c-1.2,0.4-1.3,1.5-1.4,2.5c-0.3,2.6-0.5,5.3-0.7,7.9c-0.5,6.4-3.7,11-9.3,13.9c-2.7,1.4-4.6,3.2-5.9,6
		c-1.6,3.6-4.3,6.4-7.5,8.5c-3.2,2.1-5.9,4.6-8.2,7.7c-4.5,5.8-10.4,8.2-17.6,7.7c-6.8-0.4-16.5,3.5-19.7,12.9c-0.7,2-1.3,4-1.7,6
		c-1.5,7.4-7.7,12.6-16.1,12.8c-5.2,0.1-9.8-1.4-13.8-4.7c-1.6-1.3-3.1-2.7-4.7-4.1c-1.8-1.6-4-2.1-6.3-1.3
		c-4.2,1.5-8.3,3.3-12.1,5.8c-2.5,1.7-4.5,3.8-5.9,6.5c-1.1,2-2.1,4-3.3,5.9c-4.6,7.6-12.9,11.2-21.6,9.4c-3.3-0.7-6.3-0.4-9.3,1.2
		c-5.8,3-12,4.3-18.5,4.4c-1,0-2.1,0-3.1,0c-0.8,0-1.4,0.3-1.6,1.1c-1.7,5-6,6-10.4,6.6c-1.3,0.2-2.7,0.4-3.9,0.9
		c-2,0.8-3.2,2.2-3.6,4.4c-0.4,2-1,4.1-1.9,5.9c-2.5,4.7-6.8,6.5-11.8,7.2c-1.8,0.2-3.7,0.4-5.5,0.5c-1.7,0.1-3.1,0.6-4.2,2
		c-1.6,1.9-3.7,3.3-6.1,4.2c-1.3,0.5-2.1,1.3-2.6,2.5c-0.5,1.2-1.2,2.3-1.9,3.3c-1.4,2.1-3.4,3.2-5.9,3.1c-1.8-0.1-3.6-0.3-5.7-0.5
		c-0.3,0.5-0.7,1.1-1.1,1.6c-1.3,1.7-2.9,3-4.9,3.8c-1.2,0.4-1.8,1.1-2.2,2.3c-0.8,2.6-2.7,4.3-5.4,4.9c-1.5,0.3-2.9,0-4.2-0.6
		c-0.7-0.3-1.4-0.7-2.4-1.2c-0.3,0.7-0.7,1.3-1,2c-1.7,4.4-5.7,7.2-10.4,7.2c-3.8,0-6.4-1.7-7.9-5.2c-0.6-1.3-1-2.7-1.2-4.1
		c-0.3-1.9-1.9-1.7-3-2.2c-1.2-0.5-2,0.2-2.7,1.1c-0.9,1.3-1.7,2.7-2.7,4c-1.3,1.7-2.6,3.4-4.1,5c-2.1,2.2-4.7,3.4-7.8,2.9
		c-1.3-0.2-2.2,0.2-3,1c-0.3,0.3-0.7,0.6-1.1,0.9c-4.3,3.5-10.3,1.5-11.3-4.4c-0.4-2,0-4.1,0.3-6.2c0.2-1.5,0.6-3.1,1.5-4.3
		c1.7-2.5,0.7-4.2-0.9-6.1c-9.4-11.3-17.6-23.4-24.6-36.3c-1.2-2.2-2.2-4.4-3.1-6.7c-1.6-4.2-0.7-7.9,2.6-10.9
		c1.9-1.8,4.1-3.3,6.3-4.7c17.2-10.5,34.8-20.3,52.5-30c12.3-6.8,24.4-14.1,36.5-21.2c1.9-1.1,3.7-2.5,5.6-3.7
		c1-0.7,1.4-1.5,0.7-2.6c-1.6-2.8-2.9-5.7-4.7-8.3c-4.8-7-9.8-13.8-14.6-20.8c-6.6-9.6-9.5-20.4-9.4-31.9c0-7.4,0.6-14.9,1-22.3
		c0.3-6,0.7-12,1.3-17.9c0.8-8.7,1.7-17.3,2.6-26c0.9-8.1,1.8-16.2,2.6-24.3c1.1-10.3,2.2-20.5,3.1-30.8c0.6-6.6,0.9-13.2,1.2-19.9
		c0.8-17.8,1.5-35.6,2.4-53.4c0.6-12.9,1.5-25.9,2.3-38.8c0.6-10.4,1.3-20.7,2.1-31.1c0.6-8.6,1.4-17.2,2.1-25.8
		c0.7-8.5,1.4-17,2.2-25.6c0.8-9.2,1.7-18.5,2.6-27.7c0.9-8.8,1.7-17.7,2.7-26.5c0.8-7.9,1.7-15.7,2.6-23.6
		c0.5-4.6,1.1-9.2,1.7-13.8c0.1-1,0.4-2.1,0.8-3c0.8-2.1,2.3-3.5,4.7-3.5c3.1-0.1,6.2-0.1,9.3,0c14.7,0.5,29.4,1.1,44.1,1.6
		c10.4,0.4,20.8,0.6,31.2,1c14.5,0.5,29.1,1.2,43.6,1.7c7.7,0.3,15.5,0.6,23.2,0.8c13.6,0.4,27.2,0.8,40.7,1.3
		c14.1,0.5,28.3,0.9,42.4,1.4c15,0.5,30,1.1,45.1,1.6c1.8,0.1,3.5,0.1,5.3,0.2c3.6,0.3,5.8,2.2,6.4,5.7c0.4,2.4,0.3,4.8,0.5,7.2
		c0.1,2,0.5,2.5,2.4,2.3C418.4,150.5,422.4,150,426.5,148.9z"/>
	<path d="M581.4,163.9c0.3-1.7,0.7-3.4,0.7-5.2c0.2-7.2,0.6-14.4,0.5-21.6c-0.1-7.6-0.5-15.2-0.8-22.7c0-0.6,0-1.1,0-1.7
		c0.3-1.8,1.6-3,3.4-3.1c2.1-0.1,3.4,0.8,3.8,2.9c0.1,0.6,0.2,1.3,0.2,1.9c0.6,13.4,1,26.8,0.5,40.3c-0.1,3.7-0.8,7.5-1.4,11.2
		c-0.2,1.4-0.8,2.8-1.4,4c-2.1,4.1-6.6,4.8-10,1.5c-1.7-1.7-2.9-3.7-3.6-5.9c-2.4-7.2-4.7-14.4-7-21.6c-0.2-0.8-0.4-1.5-1.1-2.3
		c-0.1,0.7-0.2,1.4-0.3,2.1c-0.1,8.2-0.2,16.5-0.3,24.7c0,0.8,0,1.6-0.1,2.4c-0.3,2-1.7,3.1-3.7,3c-1.9,0-3.3-1.4-3.5-3.3
		c-0.1-0.6,0-1.3,0-1.9c-0.1-17.4,0.6-34.8,1.4-52.2c0-0.8,0.1-1.6,0.3-2.4c0.5-1.9,1.9-3.1,3.5-3.1c1.7,0,3.1,1,3.6,3
		c1.4,5.3,2.6,10.5,4,15.8c2.8,10.3,5.4,20.5,9.1,30.5c0.5,1.3,1,2.5,1.5,3.7C581,163.9,581.2,163.9,581.4,163.9z"/>
	<path d="M526.4,141.4c-0.1,4.7-0.3,9.4-0.3,14.1c-0.1,4.7,0,9.4-0.1,14.2c0,2.5-1.3,4-3.4,4.1c-2,0.1-3.5-1.1-3.9-3.1
		c-0.1-0.4-0.1-0.8-0.1-1.2c0-18.1,0.4-36.1,1.6-54.2c0-0.7,0.2-1.4,0.5-2.1c0.6-1.4,1.7-2.3,3.3-2.3c1.6,0.1,2.9,1,3.4,2.6
		c0.4,1.4,0.7,2.8,1.1,4.2c3.5,12.7,7,25.4,10.6,38.1c0.8,2.7,1.9,5.4,3.1,8.5c1-1.9,1.1-3.4,1.2-5c0.2-8.2,0.5-16.5,0.5-24.7
		c0-6.9-0.4-13.9-0.7-20.8c-0.1-2.6,1.3-4.1,3.6-4.2c2.3-0.1,3.7,1.3,3.8,3.9c0.3,7.4,0.6,14.9,0.7,22.3c0.1,6.7,0,13.4-0.3,20.1
		c-0.1,3.5-0.8,7-1.4,10.4c-0.2,1.4-0.9,2.8-1.6,4c-2,3.3-5.8,4-8.9,1.7c-2-1.5-3.4-3.7-4.2-6c-2.4-7-4.6-13.9-6.9-20.9
		c-0.4-1.2-0.7-2.4-1.1-3.7C526.8,141.4,526.6,141.4,526.4,141.4z"/>
	<path d="M513.2,138.2c0,6.7-0.7,13.5-1.9,19.6c-0.7,3.5-1.9,6.8-4,9.7c-2.2,3-5,5.2-8.8,5.6c-4.1,0.4-7.2-1.5-9.7-4.7
		c-2.5-3.3-3.7-7.1-4.3-11.1c-1.4-9.7-1.6-19.4-0.1-29.1c0.6-3.8,1.6-7.5,3.4-10.9c1.2-2.3,2.7-4.3,4.8-5.9
		c8.6-6.6,16.4,0.8,18.6,9.3C512.5,126,513.2,132.1,513.2,138.2z M505.8,138.6c0.3-7.5-0.4-15-3.7-20.6c-1.4-2.4-3.3-2.6-5.3-0.6
		c-1.1,1-2.1,2.3-2.7,3.6c-0.9,2.1-1.7,4.3-2.1,6.6c-1.3,6.5-1.7,13.2-1.1,19.8c0.4,4,0.8,7.9,1.6,11.8c0.4,1.8,1.4,3.6,2.6,5.1
		c1.3,1.7,3,1.7,4.6,0.3c0.7-0.6,1.5-1.3,1.8-2.2c0.9-2.2,2.1-4.4,2.4-6.7C504.7,150.8,505.5,144.7,505.8,138.6z"/>
	<path d="M793.4,134.1c-0.1,7.9-0.3,15.8-1.9,23.6c-1,4.7-2.9,9-6.5,12.3c-6.1,5.9-14.5,4.8-19-2.3c-2.5-4-3.4-8.4-3.7-13
		c-0.7-10.1-0.7-20.1,0.5-30.2c0.4-3.2,1.2-6.4,1.8-9.6c0.1-0.5,0.3-1.1,0.5-1.6c0.9-2,2.8-2.9,4.7-2.2c1.9,0.6,3,2.6,2.3,4.7
		c-2,6.3-2.4,12.9-2.7,19.4c-0.3,7-0.3,14.1,0.5,21.1c0.3,2.6,0.9,5,2.3,7.3c2.1,3.5,5,3.8,7.9,1c2.4-2.3,3.7-5.3,4.2-8.4
		c0.7-3.8,1.2-7.7,1.4-11.6c0.5-8.4,0.8-16.8,0.1-25.2c-0.1-1.7-0.4-3.3-0.6-5c-0.2-2.2,0.8-3.7,2.7-4.2c2.2-0.6,4.2,0.6,4.6,3
		c0.5,3.2,0.8,6.5,0.9,9.8C793.6,126.6,793.4,130.4,793.4,134.1z"/>
	<path d="M604.4,118.8c-0.3,7.6-0.5,14.8-0.8,22.2c2.6,0,4.8,0,7,0c0.7,0,1.4-0.1,2.2,0c1.7,0.2,2.9,1.5,3.1,3.2
		c0.2,1.9-0.7,3.4-2.4,4c-0.8,0.3-1.7,0.3-2.6,0.3c-2.3,0-4.6,0-7.1,0c-0.6,6-0.2,11.8-0.4,17.7c0.9,0.1,1.5,0.2,2.2,0.2
		c4,0,8,0,12-0.1c0.6,0,1.3,0,1.9,0.1c1.8,0.3,3.1,1.9,3,3.8c-0.1,1.8-1.3,3.2-3.1,3.4c-0.9,0.1-1.8,0.2-2.6,0.2
		c-5.3,0.1-10.5,0.1-15.8,0.2c-3.6,0-4.9-1.3-4.9-4.9c0-10.1-0.1-20.1,0.1-30.2c0.1-7.5,0.6-15,0.9-22.5c0-0.4,0.1-0.8,0.1-1.2
		c0.4-2.3,1.5-3.4,3.8-3.5c4.8-0.1,9.6-0.1,14.4-0.1c1.4,0,2.7,0,4.1,0c2.5,0,4.1,1.4,4.1,3.6c0,2.1-1.5,3.7-3.9,3.7
		c-4.2,0.1-8.3,0-12.5,0C606.5,118.8,605.7,118.8,604.4,118.8z"/>
	<path d="M728,146.1c-0.1-7.5,0.6-14.9,2.6-22.1c0.9-3.2,2.1-6.2,4.1-8.9c4.3-5.7,12-6.8,17.2-2.4c3.1,2.7,4.1,6.2,3.2,10.2
		c-0.6,2.9-3.8,3.9-6,2.1c-1.1-0.9-1.5-2.1-1.3-3.4c0.2-1.6,0-2.9-1.5-3.7c-1.6-0.8-3.3-0.5-4.5,0.6c-1.1,1.1-2.1,2.4-2.7,3.8
		c-2.1,4.6-2.8,9.6-3.3,14.7c-0.6,6.1-0.7,12.3,0,18.4c0.3,2.2,0.8,4.4,1.3,6.6c0.2,0.8,0.6,1.6,1.1,2.4c1.1,1.6,2.5,1.8,4.1,0.7
		c1.4-1,2-2.4,2.5-4c0.2-0.8,0.6-1.7,1.2-2.3c1-1,2.4-1.2,3.8-0.7c1.5,0.6,2.2,1.7,2.3,3.4c0.1,4.4-4,9.9-8.7,11.3
		c-4.5,1.4-9-0.4-11.7-4.8c-1.9-3.1-2.8-6.5-3.1-10C728.3,154.2,728.1,150.2,728,146.1z"/>
	<path d="M629.8,146c-0.1-7.7,0.6-15.3,2.9-22.8c0.9-2.8,2-5.6,3.8-8c3.6-4.8,9.8-6.5,14.9-4c4.3,2.1,6.6,6.6,5.7,11.4
		c-0.4,2.2-2.3,3.6-4.3,3.3c-2.1-0.3-3.4-2.1-3.1-4.4c0.2-1.4,0-2.6-1.2-3.4c-1.3-0.9-2.7-0.7-4.1-0.1c-1.5,0.7-2.6,2-3.1,3.5
		c-1,3-2.2,6-2.8,9.1c-1.6,8.9-1.8,18-0.6,27c0.3,2.1,1,4.2,1.9,6.1c1.1,2.4,3.2,2.6,5,0.7c0.7-0.8,1.2-1.9,1.7-2.8
		c0.2-0.4,0.2-0.9,0.4-1.4c0.7-1.8,2.4-2.7,4.2-2.3c1.7,0.3,2.9,1.8,2.8,3.6c-0.2,5.8-6,12.7-13.3,11.5c-2.7-0.4-4.7-1.9-6.3-4
		c-2.1-2.8-3.2-5.9-3.6-9.3C630.2,155.3,629.8,150.7,629.8,146z"/>
	<path d="M673.8,116.4c-3,0-5.8,0-8.7,0c-1,0-1.9,0.1-2.9,0c-1.8-0.2-3.1-1.8-3.1-3.7c0-1.8,1.4-3.4,3.2-3.6c0.6-0.1,1.1,0,1.7,0
		c9.8,0,19.7,0,29.5,0c0.4,0,0.8,0,1.2,0c2.2,0.1,3.6,1.7,3.6,3.7c0,2-1.6,3.6-3.7,3.6c-3,0.1-6.1,0-9.1,0c-1.3,0-2.5,0-4,0
		c-0.3,5.8-0.7,11.4-0.9,16.9c-0.2,11.8-0.3,23.6-0.4,35.5c0,2.9-1.4,4.6-3.6,4.7c-2.3,0-3.6-1.7-3.7-4.6c-0.7-15.3,0.1-30.7,0.9-46
		C673.9,120.9,673.8,118.8,673.8,116.4z"/>
	<path d="M714.5,166.1c0.8,0,1.7-0.1,2.5,0c2.3,0.2,3.6,1.5,3.6,3.6c0,2.1-1.3,3.5-3.6,3.7c-1.4,0.1-2.9,0.1-4.3,0.1
		c-3,0-5.9,0-8.9,0c-2.2,0-3.7-1.4-3.9-3.4c-0.1-2,1.3-3.6,3.4-3.9c0.9-0.1,1.9-0.1,2.8-0.2c0.5-16.4,1-32.7,1.5-49.1
		c-0.6-0.1-1.2-0.1-1.8-0.2c-2-0.3-3.2-1.7-3.2-3.6c0-1.8,1.2-3.4,3.1-3.7c1-0.2,2.1-0.1,3.1-0.1c3,0,5.9-0.1,8.9,0
		c2.6,0,4.1,1.5,4,3.7c0,2.1-1.5,3.5-3.9,3.7c-0.7,0-1.4,0-2.1,0C714.6,119.8,713.3,159.7,714.5,166.1z"/>
</g>
</svg>
