<?xml version="1.0" encoding="utf-8"?>
<!-- Generator: Adobe Illustrator 23.0.4, SVG Export Plug-In . SVG Version: 6.00 Build 0)  -->
<svg version="1.1" id="Layer_1" xmlns="http://www.w3.org/2000/svg" xmlns:xlink="http://www.w3.org/1999/xlink" x="0px" y="0px"
	 viewBox="0 0 864 864" style="enable-background:new 0 0 864 864;" xml:space="preserve">
<g>
	<path d="M498.7,390.7c2.4-1.1,4.6-2.1,6.8-3.1c1.2-0.6,2.5-1.2,3.7-1.7c1.9-0.7,3.3-0.4,4.5,1.1c5.7,7.2,6.7,15.4,0.8,23.1
		c-3,3.9-6.9,6.7-11.2,8.8c-8,3.9-16.4,5.8-25.3,4.7c-3.8-0.5-7.3-1.7-10.4-4c-2-1.5-3.5-3.5-4.6-5.8c-1.2-2.8-0.8-4.5,2-6
		c5.6-3.1,11.3-6,16.9-9c1.1-0.6,2.3-1.2,3.5-1.8c-0.4-0.7-0.7-1.4-1-2c-4-6.4-5.1-13.2-3.4-20.5c0.7-3,0.3-5.6-0.8-8.4
		c-4.2-10.5-10-20-18.4-27.7c-6.4-5.9-13.8-10-22.5-11.6c-1.1-0.2-2.2-0.4-3.3-0.8c-3.6-1.2-6-3.6-7-7.3c-0.5-1.6-0.8-3.3-1.1-4.9
		c-2.4-9.9-6.2-19.3-11-28.3c-3.4-6.4-8-12-13.6-16.6c-4.6-3.8-8.9-8-12.9-12.5c-3.2-3.6-5.7-7.5-6.7-12.3
		c-0.9-4.2-0.6-8.4,0.5-12.6c1.4-5.6,3-11.1,4.2-16.7c1.7-8,2.2-16.2,0.8-24.3c-1.1-6.1-3.7-11.4-8.3-15.6c-1.4-1.3-2.8-2.6-4.3-3.9
		c-2.3-2.1-3.5-4.7-3.8-7.7c-0.9-8.7,2-16.1,7.9-22.3c4.3-4.5,9.4-7.9,14.8-10.9c3.3-1.9,6.5-3.8,9.7-5.8c3.3-2,5.7-4.9,7-8.5
		c1.1-3.1,2.1-6.2,3.3-9.2c1-2.4,2-4.7,3.3-6.9c1.9-3.1,4.7-5.2,8.2-6.2c1.5-0.4,3.1-0.9,4.6-1.4c1.9-0.7,2.5-1.6,2.3-3.7
		c-0.2-1.3-0.3-2.7-0.7-4c-2.6-8.7-0.8-16.6,3.9-24c2.4-3.7,5.4-6.7,8.7-9.5c0.6-0.5,1.2-1,1.9-1.6c-1.5-2.6-3.7-4.5-6.1-6.1
		c-5.3-3.7-11.1-6.3-17.4-7.8c-20.5-4.9-40.6-3.8-60.3,4.1c-5.2,2.1-10.1,4.8-14.5,8.3c-5.2,4.2-10.6,8.1-15.4,12.6
		c-10.8,10.1-17.2,22.8-19.8,37.3c-1,5.5-1.6,11.1-1.8,16.7c-0.6,14.5-1,28.9-1.2,43.4c-0.5,27.9,0.5,55.8,1.4,83.7
		c0.9,26.6,1.8,53.2,2.7,79.9c0.7,21.9,1.2,43.8,1.9,65.7c0.6,21.3,1.2,42.7,2,64c1,29,2.2,58,3.3,87c1,25.3,2,50.5,2.8,75.8
		c0.9,25.2,1.8,50.4,2.4,75.5c0.6,23,1,46.1,1.4,69.1c0.4,21.5,0.6,43,0.8,64.5c0,0.5,0.1,0.9,0.1,1.7c1,0,1.9,0.1,2.8,0.1
		c22.1,0.2,44.2,0.4,66.2,0.5c36.9,0.2,73.8,0.4,110.6,0.5c10.3,0,20.6,0.1,31,0.2c25,0.1,49.9,0.1,74.9,0.2c2.3,0,4.5,0,6.8,0
		c0-0.2,0-0.3,0-0.5c-0.7-0.1-1.3-0.2-2-0.4c-2-0.5-4.1-0.9-6-1.7c-3-1.2-5.2-3.4-6.7-6.3c-2.1-4.2-1.4-8.8,1.9-12.1
		c0.6-0.6,1.2-1.1,1.8-1.7c-0.6-0.5-1.1-1-1.7-1.5c-3-2.7-3.7-6-2.6-9.8c1.1-3.7,3.6-6.3,7.1-8.1c4.8-2.4,10-2.8,15.2-1.8
		c11.9,2.3,19.5,9.3,23,20.9c1.2,4.1,2.2,8.3,3.3,12.5c0.4,1.6,1.2,2.9,2.9,4.2c0-4.8-1.2-9.1-1.5-13.4c-0.4-4.4-0.9-8.7-1.4-13.1
		c-0.5-4.4-0.9-8.8-1.3-13.1c-0.5-4.4-0.9-8.7-1.8-13.2c-0.4,0.5-0.7,1.1-1.1,1.6c-1.7,3-3.8,5.5-6.6,7.5c-5.4,3.7-11.2,3.4-16-1
		c-2.3-2-4.3-4.3-6.4-6.5c-1.2-1.2-2.3-2.4-3.6-3.5c-2-1.6-3.6-1.6-5.7-0.2c-2.2,1.5-3.7,3.5-4.8,5.9c-0.9,2-1.6,4.2-2.4,6.3
		c-1,2.6-1.9,5.3-3,7.8c-3,6.8-9.7,9.5-16.7,7c-0.7-0.2-1.4-0.5-2-0.9c-7.5-5-12.5-11.6-13.3-20.8c-0.1-0.7-0.1-1.4-0.2-2.2
		c-4-0.2-7.9-0.3-11.8-0.6c-2.9-0.2-5.9-0.4-8.8-1c-2.1-0.5-4.3-1.4-6.2-2.5c-8.4-4.9-10.2-17.3-1.8-24c2.9-2.3,6.2-4,9.7-5.2
		c7.4-2.5,15-4.1,22.7-4.7c9.9-0.8,19.8-1.3,29.7-2c3.9-0.3,7.8-0.7,11.7-1.1c0.6-0.1,1.2-0.3,1.8-0.9c-2.8-0.3-5.5-0.5-8.3-0.9
		c-3.3-0.5-6.7-0.9-9.8-2c-9.1-3.2-15-9.6-17.2-19c-0.5-2.1-0.5-4.5-0.2-6.7c0.6-4.6,4.5-6.9,9-5.5c1.2,0.4,2.4,1,3.6,1.3
		c2.6,0.8,5.2,1.6,7.8,2.3c0.8,0.2,1.8,0.1,2.6,0c4.5-0.6,6.1-2.3,6.5-6.8c0.4-4.7,3.1-7.8,7.8-8.7c1.5-0.3,3-0.5,4.5-0.4
		c5.8,0.2,11.2,1.9,15.9,5.4c2.3,1.7,4.2,3.9,6.3,5.8c0.5,0.5,0.9,1,1.8,2c-0.2-2.8-0.2-5.1-0.5-7.4c-0.9-9.6-2.3-19.1-4.7-28.4
		c-2.5-9.7-5.1-19.5-9.1-28.8c-1.7-4-3.9-7.8-6-11.9c-6.2,3-12.1,5.8-18.3,8.8c0.8,1.4,1.5,2.6,2.1,3.8c0.6,1.1,1.2,2.1,1.6,3.2
		c0.8,2,0.2,3.8-1.6,4.7c-1.7,0.9-3.7,0.4-4.8-1.4c-1.2-1.9-2.2-3.9-3.3-5.9c-0.2-0.3-0.4-0.5-0.7-1c-4.7,2.4-9.3,4.9-14.1,7.4
		c0.3,0.7,0.5,1.3,0.7,1.8c1.7,3.2,3.4,6.3,5.1,9.5c0.3,0.6,0.6,1.1,0.8,1.7c0.6,1.6-0.1,3.3-1.5,4.2c-1.4,0.9-3.3,0.7-4.4-0.6
		c-0.4-0.5-0.8-1-1.1-1.6c-2.5-4.6-4.9-9.2-7.5-13.7c-1.3-2.3-1.1-4.8,1.8-6.4c14.3-7.8,28.9-15.2,43.7-21.9c3.1-1.4,4.6-1,6.1,1.9
		c6.5,12,12.9,24.3,17.5,37.2c4.9,13.7,7.1,27.9,8.9,42.3c0.2,1.4,0.3,2.7,0.5,4.1c0.5,3.9,0.7,7.8,0.9,11.7c0.2,4.5,0.3,9,0.5,13.4
		c0.2,3.5-1.2,6-4.1,7.2c-3.2,1.3-6.1,0.5-8.3-2.3c-0.9-1.1-1.6-2.4-2.2-3.7c-2.9-5.8-5.8-11.6-8.7-17.4c-2-4-4.8-7.4-9-9.3
		c-1-0.5-2.2-0.7-3.5-1.2c-1.2,5.3-4.3,8.8-8.4,11.6c-4,2.8-8.5,4.3-13.4,4.8c0.4,0.1,0.7,0.3,1.1,0.4c5.5,0.8,11.1,1.5,16.6,2.3
		c3,0.4,5.7,1.5,8.3,3.1c4.2,2.7,5.9,7,4.7,11.8c-1.1,4.4-3.8,7.7-7.7,10c-3.9,2.4-8.2,3.6-12.7,3.8c-7.3,0.4-14.5,0.7-21.8,0.9
		c-12.3,0.4-24.4,2.1-36.2,5.4c-1.4,0.4-2.9,1-4.2,1.8c-1.7,1.1-1.6,2.3,0.3,3.1c1.3,0.5,2.8,0.9,4.2,1c6.7,0.2,13.4,0.3,20.1,0.5
		c1.8,0,3.7,0,5.5,0.3c5,0.9,7.2,6.3,4.6,10.6c-0.5,0.9-1.2,1.7-1.5,2.7c-0.3,1.2-0.7,2.6-0.4,3.7c1,3.2,2.9,5.8,6.2,7.8
		c0.7-1.9,1.3-3.6,1.9-5.3c1.4-4.4,3.1-8.7,5.7-12.7c1.8-2.8,3.9-5.3,6.5-7.3c6-4.6,13-5,19.6-1.3c3.2,1.8,5.8,4.3,8.2,7
		c1.5,1.6,3,3.3,4.6,5c1.9-1.4,2.8-3.1,3.5-5c2.1-6.3,5.4-12.1,8.6-17.9c0.9-1.7,2.3-3.1,3.9-4.2c4.7-3.2,9.7,0,10.7,4
		c0.4,1.5,0.6,3.1,0.8,4.7c1.2,11.7,2.3,23.4,3.5,35.1c1.1,10.4,2.4,20.8,3.6,31.2c0.5,4.1,1.2,8.3,0.1,12.4
		c-0.6,2.1-1.2,4.3-2.3,6.2c-3.1,5.4-9,7.2-14.7,4.6c-2.5-1.1-4.6-2.9-6.3-5c-4.2-5-6.3-10.9-7.8-17.1c-1-4-1.8-8.1-4.2-11.6
		c-0.5-0.7-1-1.3-1.8-1.9c1.3,5.4-1.8,9-4.9,12.7c0.7,0.4,1.2,0.7,1.8,1c5.2,2.5,8.4,6.7,9.9,12.3c0.7,2.7,1,5.3,0.8,8.1
		c-0.3,4.4-3,6.8-7.4,6.8c-15.9-0.1-31.8-0.2-47.8-0.3c-28-0.1-56-0.3-84-0.4c-22.6-0.1-45.3-0.4-67.9-0.5
		c-25.5-0.2-51-0.3-76.5-0.4c-11.5-0.1-23-0.2-34.6-0.3c-0.6,0-1.3,0-1.9-0.1c-3.5-0.4-5.8-2.9-5.9-6.4c-0.1-5.2-0.1-10.4-0.2-15.6
		c-0.1-16.1-0.2-32.2-0.4-48.2c-0.3-19.9-0.7-39.8-1.2-59.7c-0.7-27-1.5-54-2.4-81.1c-0.7-20.6-1.5-41.2-2.3-61.9
		c-0.5-14.2-1.1-28.5-1.6-42.7c-0.7-18.1-1.5-36.3-2.2-54.4c-0.4-10.5-0.7-20.9-1.1-31.4c-0.6-16.2-1.2-32.4-1.7-48.7
		c-0.5-14.4-0.9-28.8-1.3-43.2c-0.6-21.8-1.3-43.7-1.9-65.5c-0.7-22.1-1.6-44.1-2.2-66.2c-0.4-14.8-0.8-29.6-0.6-44.4
		c0.2-17.6,0.8-35.2,1.4-52.8c0.2-5.5,0.4-11,1.1-16.5c5.3-43.4,44.4-76.2,86.5-81.7c5.9-0.8,11.8-0.8,17.7-0.6
		c10.4,0.4,20.5,1.8,30.4,5.2c7.2,2.5,13.8,5.9,19.5,11.1c3.9,3.5,6.9,7.7,9.3,12.4c2.1,4.1,0.6,8.7-3.5,10.8
		c-4.7,2.4-8.3,5.8-11.1,10.3c-2,3.3-2.7,6.8-2.1,10.6c0.4,2.5,0.9,5,1.1,7.6c0.2,2.1,0.3,4.3,0,6.4c-0.7,4.5-3.3,7.9-7.4,10.1
		c-2.2,1.2-4.7,2.1-7.1,2.9c-2,0.7-3.4,1.8-4,3.8c-0.7,2.2-1.4,4.4-2,6.7c-2.2,8.2-6.7,14.6-13.8,19.2c-4.9,3.1-10,6.1-15,9.1
		c-3.2,1.9-6,4.2-8.5,7c-1.4,1.6-2.4,3.4-2.9,5.5c-0.6,2.3-0.2,4.2,1.8,6c5.4,4.7,9.3,10.6,11.7,17.3c2.7,7.3,3.6,14.9,3.3,22.6
		c-0.4,9.2-2.3,18.2-4.8,27.1c-0.8,2.7-1.3,5.4-1.8,8.2c-0.5,2.7,0.2,5.1,2.1,7.1c3,3.1,5.9,6.3,9,9.3c2.6,2.6,5.5,4.9,8.2,7.4
		c5.4,5,9.7,10.8,13.1,17.3c5.1,9.9,9,20.3,12.3,30.9c0.5,1.8,1.4,2.8,3.3,3.3c3.4,1,6.7,2.2,9.9,3.6c8.4,3.6,15.4,9.1,21.4,15.9
		c5.7,6.4,10.3,13.6,14,21.4c1.2,2.5,2.3,5.1,3.5,7.6c1.6,3.4,2.5,6.9,2.2,10.7c-0.4,5.7,0.8,11.3,2.5,16.8
		C498.2,389.3,498.4,389.9,498.7,390.7z M471.1,412.9c1.5,1.7,3.3,2.5,5.3,3.1c3.6,1,7.2,1,10.9,0.5c6.4-0.9,12.2-3,17.5-6.8
		c2.5-1.8,4.6-3.9,5.8-6.8c1.3-3.2,0.8-6.2-1-9C504.3,395.7,475.8,409.5,471.1,412.9z"/>
	<path d="M539,537.9c-1.3,0-2.2,0.1-3.1,0c-2-0.4-4.1-0.7-6-1.5c-3.3-1.5-4.6-4.9-3.2-8.3c0.7-1.7,1.8-3.5,3.1-4.8
		c2.4-2.2,4.9-4.3,7.7-6.1c9.5-6,19.4-11.1,29.9-15.1c1.8-0.7,3.6-1.3,5.5-1.7c2.7-0.5,4.7,1.3,4.4,3.9c-0.2,1.6-1.2,2.6-2.7,3
		c-10.4,3-19.8,8.1-29.1,13.4c-3.1,1.8-6,3.9-8.9,6c-1.1,0.8-2,2-3.2,3.2c3,1,5.6,0.8,8.2,0.4c5-0.7,9.8-2.3,14.4-4.3
		c0.6-0.3,1.2-0.6,1.8-0.8c1.9-0.7,3.7-0.1,4.6,1.5c0.9,1.6,0.5,3.7-1.1,4.9c-0.6,0.5-1.4,0.8-2.1,1.2c-3.1,1.8-6.3,3.5-9.3,5.5
		c-2,1.4-3.8,3.1-5.6,4.9c-1.1,1.1-2,2.5-1.1,4.1c0.7,1.5,2.4,1.4,3.6,1.2c3.4-0.5,6.8-0.9,10.1-1.9c11.3-3.6,21.9-8.6,31.5-15.4
		c1.8-1.3,3.9-1,5.1,0.6c1.1,1.5,0.9,3.6-0.6,4.9c-1.1,0.9-2.3,1.8-3.5,2.5c-9.8,6.2-20.2,11.1-31.2,14.5c-3.3,1-6.7,1.4-10.1,1.9
		c-1.3,0.2-2.7,0.1-4.1-0.1c-7-0.9-10.5-7.7-7.2-14C537.3,540.5,538.1,539.4,539,537.9z"/>
	<path d="M592.6,603.8c-0.2,1-0.4,1.7-0.5,2.4c-0.5,3.9-2.2,7.3-5,10.1c-2.8,2.8-6.2,4.7-9.8,6.3c-2.2,1-4.2,0.2-5.1-1.8
		c-0.8-1.9,0-3.7,2.2-4.9c1.4-0.7,2.9-1.4,4.2-2.2c4.5-2.6,7.6-6.5,6.4-14.8c-0.8,0.4-1.6,0.6-2.4,1c-4.2,2.1-8.4,4.2-12.7,6.3
		c-0.6,0.3-1.3,0.7-2,0.9c-1.8,0.7-3.7-0.1-4.5-1.7c-0.8-1.6-0.3-3.6,1.2-4.7c0.5-0.4,1.1-0.6,1.7-0.9c5.2-2.6,10.5-5.1,15.7-7.8
		c1.2-0.6,2.2-1.5,3.4-2.2c0.5-0.3,1.1-0.6,1.7-0.8c1.3-0.5,2.7-0.8,4-1.4c6.6-3.2,13.2-6.5,19.8-9.8c0.5-0.2,1-0.5,1.5-0.7
		c1.9-0.8,3.2-0.5,4.5,1c3.5,4.2,6,8.9,6.7,14.4c1.1,8.5-5.3,16.2-14,16.8c-5.4,0.4-10.3-1.1-14.8-4c-0.3-0.2-0.7-0.5-1-0.7
		C593.6,604.5,593.3,604.3,592.6,603.8z M593.7,594.5c2.7,3.3,5.7,5.8,9.5,6.9c1.9,0.6,4.1,0.8,6.1,0.6c4.6-0.4,7.6-4.3,7.1-8.9
		c-0.4-3-1.6-5.7-3.5-8.2C606.6,588.1,600.2,591.3,593.7,594.5z"/>
	<path d="M530.1,506c-2.4-4.7-4.8-9.2-7.3-13.9c-3.8,1.2-7.4,2.7-10.9,4.3c-0.6,0.3-1.1,0.6-1.7,0.8c-1.8,0.6-3.7-0.1-4.5-1.7
		c-0.8-1.6-0.3-3.7,1.3-4.6c1.4-0.8,2.8-1.5,4.3-2.1c11.9-4.8,24.1-9,36.8-11.2c2.7-0.5,5.6-0.6,8.3-0.7c1.5,0,3,0.3,4.4,0.9
		c3,1.2,4.4,3.9,3.5,7c-0.6,1.8-1.5,3.6-2.7,5c-2.1,2.5-4.4,4.8-6.9,7c-9.5,8.4-20,15.5-31.3,21.2c-0.6,0.3-1.1,0.6-1.7,0.8
		c-2.1,0.8-4.1,0-4.8-1.8c-0.8-1.8-0.1-3.6,1.8-4.7c3.1-1.7,6.2-3.4,9.3-5.1C528.8,506.9,529.4,506.5,530.1,506z M529.8,489.7
		c2.3,4.4,4.3,8.3,6.5,12.3c0.7-0.4,1.1-0.6,1.5-0.9c4.7-3.7,9.4-7.4,14.1-11.2c1.5-1.3,2.8-2.8,4.2-4.3c0.3-0.4,0.5-0.9,0.8-1.7
		C547.4,484.4,538.8,487,529.8,489.7z"/>
	<path d="M571,583.3c-2.5-4.7-4.9-9.3-7.3-13.9c-0.6,0.2-1.2,0.3-1.8,0.5c-3.3,1.4-6.6,2.7-10,4.1c-0.7,0.3-1.5,0.6-2.3,0.7
		c-1.5,0.1-2.9-1.1-3.4-2.6c-0.4-1.4,0.1-2.9,1.3-3.8c0.7-0.5,1.5-0.9,2.3-1.2c13.3-5.7,26.9-10.3,41.2-12.6
		c2.6-0.4,5.3-0.3,7.9-0.2c1.1,0,2.2,0.4,3.2,0.9c2.6,1.2,4,3.7,3.2,6.5c-0.5,1.7-1.3,3.5-2.4,4.9c-1.8,2.3-3.9,4.5-6.1,6.4
		c-9.9,8.8-20.7,16.3-32.6,22.3c-0.7,0.4-1.4,0.7-2.2,0.9c-1.7,0.5-3.5-0.4-4.2-1.9c-0.7-1.5-0.3-3.3,1.1-4.3
		c0.6-0.5,1.4-0.8,2.1-1.2C564.3,586.9,567.6,585.1,571,583.3z M597.9,561.5c-5.2-0.7-22.9,3.1-27,5.7c2,4,4,8,6.3,12
		C584.6,573.8,591.8,568.6,597.9,561.5z"/>
	<path d="M507.1,431.3c1,1.9,2,3.6,2.9,5.2c0.3,0.6,0.7,1.3,1,1.9c0.7,1.9,0,3.7-1.6,4.5c-1.7,0.9-3.7,0.4-4.8-1.4
		c-1-1.6-1.8-3.4-2.8-5c-0.3-0.6-0.7-1.1-1.2-1.9c-4.7,2.5-9.4,4.9-14.2,7.4c0.5,0.9,0.8,1.6,1.2,2.3c1.7,3.2,3.5,6.4,5.2,9.7
		c1.1,2.2,0.6,4.2-1.3,5.2c-1.8,1-3.9,0.3-5-1.8c-2.7-4.9-5.4-9.8-8-14.8c-1.2-2.3-0.7-4.2,1.6-5.4c14.6-8,29.4-15.6,44.5-22.4
		c2.7-1.2,4.2-0.7,5.6,1.8c2.7,4.9,5.3,9.8,8,14.8c1,2,0.5,4-1.2,5c-1.8,1.1-3.9,0.5-5.1-1.6c-1.8-3.3-3.5-6.6-5.3-9.9
		c-0.4-0.8-0.9-1.5-1.4-2.4C519.1,425.5,513.1,428.3,507.1,431.3z"/>
	<path d="M500.9,469.7c1.9,3.5,3.7,6.8,5.5,10.1c0.3,0.6,0.7,1.3,0.9,1.9c0.6,1.7-0.1,3.4-1.7,4.3c-1.5,0.8-3.2,0.5-4.3-0.8
		c-0.3-0.4-0.6-0.8-0.8-1.2c-2.5-4.4-4.9-8.8-7.4-13.2c-1.5-2.7-1.2-4,1.3-5.6c2-1.3,4.1-2.5,6.2-3.7c12.8-7,25.9-13.2,39.2-19.1
		c0.7-0.3,1.5-0.6,2.3-0.6c1.7-0.2,2.9,0.7,3.5,2.3c0.6,1.6,0.2,3.1-1.2,4c-0.8,0.5-1.7,0.9-2.6,1.3c-13.1,5.9-26.1,12.1-38.7,19
		C502.4,468.8,501.7,469.2,500.9,469.7z"/>
</g>
</svg>
