<?xml version="1.0" encoding="utf-8"?>
<!-- Generator: Adobe Illustrator 23.0.4, SVG Export Plug-In . SVG Version: 6.00 Build 0)  -->
<svg version="1.1" id="Layer_1" xmlns="http://www.w3.org/2000/svg" xmlns:xlink="http://www.w3.org/1999/xlink" x="0px" y="0px"
	 viewBox="0 0 864 864" style="enable-background:new 0 0 864 864;" xml:space="preserve">
<g>
	<path d="M289.5,83.1c-0.1,1.9-0.2,3.5-0.3,5.2c0,3.4,0,6.9,0.1,10.3c0.1,3.1-1.1,4.9-3.5,5.1c-2.3,0.2-4-1.5-4.1-4.5
		c-0.2-3.4-0.1-6.7-0.1-10.1c0.1-7,0.4-13.9,0.6-20.9c0-0.9,0.2-1.8,0.2-2.8c0.1-1.5-0.5-2.4-1.9-3c-4.6-2.1-10.5-1.2-15.3-0.5
		c-15.6,2.2-31.2,4.1-47,4.4c-11.3,0.2-22.7-0.1-34.1-0.3c-7-0.1-13.9-0.4-20.9-0.6c-12.2-0.4-24.3-0.9-36.4-1.4
		c-15.7-0.6-31.5-0.7-47.2-0.5c-7.7,0.1-15.3,0.2-23,0.5c-3.3,0.1-6.5,0.6-9.8,1c-2,0.3-3.9,0.9-5.7,2.4c0.7,1.7,1.2,3.6,2.2,5.2
		c2.7,4.4,5.6,8.7,8.6,13c2,2.9,4.2,5.7,6.1,8.6c3.9,6,4.1,12.3,0.8,18.7c-1.1,2.2-2.4,4.3-3.6,6.5c-0.5,1-1,1.9-1.3,3.1
		c1.9-0.4,3.5-1.3,4.8-2.5c3.5-3.3,7-6.6,10.4-9.9c2.5-2.4,5.1-4.4,8.5-5.1c9.2-1.9,14.7,3.2,16.1,10.6c0.3,1.5,0.5,3,0.7,4.5
		c0,0.1,0.1,0.1,0.4,0.3c3-1,6.1-2,9.2-3c8.4-2.7,16.7-5.5,25.1-8.1c6.7-2.1,13.6-2.9,20.6-1.8c5.4,0.8,10.4,3.1,14.6,6.5
		c6.7,5.4,14.4,9,22.5,11.7c4.1,1.4,8.2,3,12.1,4.8c4.6,2.1,9,2.5,13.7,0.2c4.9-2.4,10-2.6,15.1-0.6c6,2.3,9.5,8.3,8.1,14.1
		c-1.2,4.8,0.3,8.3,3.6,11.6c3.6,3.6,6.8,7.6,9.2,12.2c2.3,4.5,3.4,9.3,3.9,14.2c0.1,1,0.3,1.9,0.4,2.8c0.3,2.2,1.4,3.9,3.3,5.1
		c3.3,2.1,6.6,4.3,10,6.2c6.8,3.8,14,3.9,21.4,1.7c6.9-2,12.5-5.8,16.6-11.8c8.6-12.7,20.9-19.5,36-21.1c2.2-0.2,4.4-0.6,6.9-0.9
		c-0.1-1.3-0.2-2.6-0.3-3.8c-0.3-3.4-0.5-6.7,0.2-10c1.6-7.9,7-13.1,15-14.5c7-1.3,13.7-0.1,20.3,2.1c22.9,7.4,42.9,19.4,59.7,36.6
		c6.7,6.9,12.5,14.6,18,22.4c7.1,10,15.9,18.3,26.4,24.8c5.9,3.6,11.7,7.3,17.5,11c3.1,2,6.2,4,9.2,6.2c8.5,6.2,15.3,14,20.7,23.1
		c5.2,8.8,9.8,18,13.7,27.4c3.2,7.6,3.4,15.5,2.4,23.6c-0.7,5.8-2.6,11.4-4.4,16.9c-2.3,7.6-4.9,15-6.2,22.9
		c-0.1,0.7-0.2,1.4-0.3,2.5c1.3-0.8,2.2-1.4,3.1-2c8.4-5.5,19.7-3.5,25.6,4.7c1.7,2.4,3.1,5,4.8,7.7c1.1-0.2,2.3-0.6,3.6-0.6
		c2.7-0.1,5.5-0.5,8.1,0c7.4,1.4,11.6,6.3,13.4,13.4c1.5,6.1,0.4,11.9-2.6,17.4c-3.4,6.4-8.4,11.4-14.4,15.5
		c-3.2,2.2-6.6,4.2-9.9,6.3c-0.8,0.5-1.5,1.1-2.4,1.7c0.8,1.4,1.5,2.6,2.2,3.9c3.4,6.9-1.4,13.3-7.2,14.5c-1.3,0.3-2.7,0.3-4,0.4
		c-0.8,0.1-1.7,0-2.7,0.2c10.1,11.2,18.2,23.7,25.4,37.1c0.5-0.7,0.8-1.1,1.1-1.6c3.1-5.2,8.5-7.1,14.2-5.1c3.8,1.4,7,3.7,9.8,6.7
		c1.3,1.4,2.6,2.9,3.9,4.3c0.6,0.6,1.2,1.3,1.9,1.8c2.1,1.7,3.4,1.7,5.7,0.3c2.5-1.7,4.9-3.6,7.6-5.1c5.4-2.8,10.9-5.4,16.4-8
		c2.8-1.3,5.6-1.2,8,1c2.7,2.4,3.8,5.3,2.8,8.8c-1.3,4.2-3.2,8.2-5.4,12c-3,5.2-7,9.7-10.8,14.4c-3.8,4.6-7.7,9-11.3,13.7
		c-2.3,3-4.3,6.3-6.4,9.6c-1.3,2.1-0.8,4.4-0.9,6.8c0.7,0,1.2,0.1,1.6,0c13-2.1,30.4,6.6,35.4,21.2c1.9,5.4,3.4,10.8,5.2,16.2
		c2.5,7.3,5.1,14.5,7.7,21.7c2.4,6.7,7.1,10.7,13.9,12.8c10.2,3.1,20.2,6.5,29.7,11.4c9,4.7,17.1,10.6,23.9,18.3
		c7.9,8.9,11.2,19.4,10.4,31.2c-0.3,3.9-0.5,7.8-0.6,11.7c-0.1,3.7,1.7,5.4,5.4,5.6c2.6,0.1,5.1-0.4,7.4-1.5
		c2.5-1.2,5.1-2.4,7.4-3.8c6.1-3.7,13-6.1,20.1-7.2c5.2-0.8,10.3-2.1,15.4-3.4c5.5-1.3,8.5-5,9.6-10.5c1.5-7.8,1.2-15.6,0.2-23.4
		c-1.1-8.1-0.7-16.1,2.4-23.8c2-4.8,3.8-9.7,5.5-14.6c2.6-7.7,4.1-15.6,4.1-23.8c0-4.9-0.5-9.9-0.9-14.8c-0.4-5.3-1.1-10.5-1.1-15.8
		c0-5.8,0.7-11.6,1.1-17.5c0.4-6.5,1-12.9,1.3-19.4c0.3-7.6-1.8-14.7-5.4-21.4c-2.4-4.5-4.8-9-7.2-13.6c-1.7-3.3-2.1-6.8-1.7-10.5
		c0.2-1.8-0.2-3.8-0.8-5.6c-2.9-8.6-7.4-16.4-12.4-24c-8.7-13.3-17.7-26.5-26.1-40c-11.1-17.7-20.3-36.3-27.2-56
		c-1.5-4.3-2.7-8.7-3.8-13.2c-1.1-4.4,0.6-8.9,4-11.9c1.7-1.6,1.9-3.1,1.3-5.2c-3.4-11.8-9.4-22-17.8-30.9c-4-4.2-8.5-7.9-12.9-11.9
		c-3.8-3.5-6.9-7.5-8.9-12.4c-2.3-5.7-6.2-10.4-10.5-14.8c-7.9-8-14.7-16.8-19.7-27c-4-8.3-6.6-17-8.4-25.9
		c-1.5-7.5-3.7-14.7-7.5-21.4c-4.1-7.5-6-15.6-7.4-23.9c-1-5.7-1.9-11.4-3.8-16.8c-1.2-3.5-2.7-6.8-4.9-9.9c-3-4.2-7-6.9-12.1-8.1
		c-5-1.2-7.3-4.9-5.8-9.9c0.5-1.6,1.4-3,2.2-4.8c-0.8-0.4-1.7-0.9-2.6-1.5c-4.8-2.9-7.2-7.1-7.1-12.7c0.1-5,3.6-8.3,8.7-8.2
		c1.3,0,2.7,0,4.2,0c-0.6-2.3-2-3.4-4-3.9c-1.6-0.4-3.2-0.6-4.9-0.6c-5.2-0.2-10.4-1.5-15.2-3.5c-2.7-1.1-5.4-2-8.1-2.8
		c-1.5-0.4-3.2-0.4-4.7-0.4c-2.2,0.1-3.2,1.2-3.2,3.4c0,1.5,0.3,3,0.6,4.5c0.9,4.1,2,8.2,2.9,12.4c1.5,6.7,1.9,13.5,0.3,20.2
		c-2.1,8.4-9.3,14.5-18,14.8c-10.8,0.4-17.7-5.3-22.2-14.2c-1.1-2.2-1.7-4.6-2.5-7c-0.8-2.5-2-4.5-4.3-5.9c-2.4-1.5-6-0.7-7.5,1.7
		c-0.4,0.6-0.3,1.5-0.3,2.3c0.1,4.5,0.3,8.9,0.4,13.4c0,0.9,0,1.8-0.1,2.6c-0.4,2.1-2.1,3.4-4.1,3.2c-1.9-0.2-3.3-1.7-3.3-3.8
		c-0.1-3.8,0-7.5-0.1-11.3c0-1.4-0.2-2.8-0.3-4.4h-18.9c-0.1,0.7-0.4,1.4-0.4,2.2c-0.4,4.5-0.9,9.1-1.3,13.6
		c-0.2,1.8-1.2,3.1-2.8,3.5c-1.5,0.4-3.1-0.2-4-1.6c-0.4-0.7-0.7-1.7-0.6-2.5c0.3-4.3,0.5-8.6,1.1-12.9c1.4-11.2,3.4-22.3,6.7-33.1
		c1.1-3.5,2.5-6.9,3.9-10.3c0.5-1.3,1.4-2.5,2.3-3.6c3.5-4.4,8.3-4.4,11.6,0.2c1.3,1.8,2.3,4,3.1,6.2c2.1,5.7,3.2,11.7,4.3,17.7
		c0.6,3.4,1.1,6.8,1.7,10.4c0.5-0.4,0.9-0.7,1.2-1c1-1.4,1.9-2.7,2.9-4.1c3.6-5.5,9.3-6.6,14.7-2.9c3.6,2.5,6.4,5.8,7.9,10
		c1,2.7,1.8,5.5,2.8,8.2c0.5,1.4,1,2.9,1.8,4.2c0.5,1,1.2,1.9,2.1,2.5c2.9,2,6.7,1.8,7.3-2.7c0.4-2.7,0.5-5.5,0-8.1
		c-0.7-4.5-1.9-8.9-2.9-13.3c-0.6-2.8-1.3-5.6-1.7-8.4c-1.5-11.9,6.4-20.5,17.9-21.7c3.5-0.4,7-0.1,10.4,1.1
		c2.2,0.8,4.4,1.4,6.5,2.3c5.8,2.5,11.9,3.8,18.1,4.2c8.8,0.5,14.9,4.8,18.2,12.9c0.6,1.5,1.3,3.1,1.7,4.7c0.7,2.6,1.2,5.3,1.7,8
		c0.3,1.6-0.1,3-0.9,4.3c-0.5,0.9-1.2,1.7-1.9,2.7c0.4,0.6,0.8,1.2,1.2,1.7c2.6,3.5,3.4,7.3,2.1,11.6c-0.3,0.9-0.4,1.6,0.4,2.4
		c8.2,7.2,12.5,16.7,14.8,27.1c1.6,7.3,3.1,14.7,4.8,22c1.2,5.1,3.1,9.9,5.6,14.5c4,7.2,6.3,15,7.8,23.1c3.1,17,11,31.4,23.1,43.6
		c5.3,5.4,10.1,11.1,13.4,18c2,4.2,5.1,8,8.7,10.9c16.1,13,27.1,29.4,32.8,49.3c1.2,4.1,1.5,8.3,0,12.6c-0.7,1.9-2,3.5-3.5,4.9
		c-1,0.9-1,1.7-0.6,3c3.2,11.5,7.7,22.5,12.9,33.3c7.5,15.5,16.6,30.1,26,44.5c6.8,10.3,13.5,20.6,20.1,31c5.1,8,9,16.6,10.9,26
		c0.4,1.8,0.4,3.6,0.2,5.4c-0.2,1.6,0,3,0.7,4.4c2.3,4.1,4.5,8.3,6.9,12.4c3.5,6.1,5.5,12.5,6.2,19.5c0.5,5.4,0.1,10.7-0.4,16
		c-0.7,7.9-1.6,15.8-1.8,23.7c-0.2,5.6,0.5,11.3,0.9,17c0.5,7.3,1.4,14.6,0.9,22c-0.8,11.3-3.5,22.1-7.5,32.6
		c-0.9,2.2-1.7,4.5-2.7,6.7c-2.1,4.7-2.6,9.5-2.2,14.5c0.7,8.1,1.5,16.3,1.2,24.4c-0.2,5.1-1.4,10.1-3.5,14.8
		c-3,6.5-7.9,10.9-14.6,13.5c-5.5,2.2-11.3,3.3-17.2,4.2c-8.4,1.3-16.3,3.8-23.6,8.2c-6.2,3.7-12.9,5.8-20.3,5.2
		c-2.5-0.2-5.1-0.8-7.4-1.8c-7.5-3.2-11.2-9.1-11.7-16.8c-0.3-4.1,0.1-8.3,0.2-12.5c0.2-3.8,0.2-7.7-0.5-11.5
		c-1.3-6.2-4.9-10.8-9.4-14.9c-7.4-6.8-16.1-11.6-25.4-15.2c-5.5-2.1-11.2-3.9-16.7-5.9c-2.9-1-5.7-2.1-8.4-3.4
		c-6.4-3.1-11.1-8-14.2-14.4c-4.2-8.6-7.3-17.5-10.1-26.7c-1.4-4.5-2.6-9.1-4-13.6c-2.9-10-10.2-13.1-18.8-13.1
		c-2.5,0-5,0.1-7.4-0.3c-7.4-1.2-12.6-7.2-13.1-14.7c-0.3-4.8,0.9-9.2,3-13.4c3.2-6.5,7.7-12.1,12.4-17.6c1.1-1.3,2.3-2.7,3.4-4
		c0.3-0.3,0.5-0.7,1-1.5c-5.5,1-10.4,0.5-15.2-2.3c0.2,1.5,0.3,2.6,0.4,3.7c0.1,1.7,0.2,3.4,0,5c-0.7,6.9-6.4,11-13.3,9.5
		c-4-0.9-7.2-3-9.9-5.9c-3.5-3.7-6.1-8-8.5-12.4c-4-7.3-7.9-14.6-11.9-21.8c-6.4-11.4-14.6-21.7-24.2-30.7c-2.5-2.3-4.5-5.2-6.5-8
		c-1.7-2.4-2.2-5.3-2.3-8.2c-0.1-3.7,2-6,5.1-7.4c3.5-1.6,7.2-2.1,11-1.6c1,0.1,2,0.2,3.2,0.4c0.2-0.5,0.4-1,0.4-1.4
		c0.4-3.4,2.2-6.2,4.7-8.4c2.2-1.9,4.6-3.5,6.9-5.1c3.6-2.4,7.3-4.6,10.9-7c3.5-2.3,6.4-5.1,8.1-9c0.6-1.5,1.1-3.2,1.2-4.8
		c0.2-2.2-1.4-3.5-3.5-2.8c-1.5,0.5-2.8,1.5-4.1,2.3c-0.5,0.3-0.9,0.9-1.4,1.3c-5,4.8-11.9,1.7-13.5-3.6c-0.5-1.7-0.7-3.6-1-5.4
		c-0.4-2.4-1-4.7-2.4-6.7c-0.9-1.2-1.9-2.1-3.2-2.4c-4.2-0.8-2.7,11.6-2.6,13.9c0.3,6.9,0.2,13.9-1.8,20.6c-0.6,2-1.4,4-2.6,5.7
		c-2.5,3.5-6.6,5.2-10.9,5.2c-3.3,0-5.7-1.2-7.8-3.8c-1.2-1.5-1.9-3.3-2.5-5.1c-1.3-3.5-2.1-7.1-2.6-10.7
		c-1.1-10.1-1.4-20.2-0.5-30.3c1-12,3.5-23.7,7.3-35.1c1.8-5.5,3.4-11.2,4.7-16.8c1.3-5.4,0.5-10.7-1.9-15.7
		c-4.1-8.6-8.4-17.1-12.7-25.5c-3.7-7.1-9.3-12.6-15.8-17.1c-6.1-4.2-12.4-8.2-18.6-12.3c-4.5-2.9-9-5.8-13.4-8.8
		c-8.9-6.1-16.5-13.8-22.9-22.5c-5.6-7.8-11.7-15.2-18.3-22.2c-8.6-9-18.4-16.4-29.3-22.3c-7.6-4.1-15.3-8-23.7-10.3
		c-2.8-0.8-5.6-1.1-8.5-1.6c-0.5-0.1-1-0.1-1.5-0.1c-3.5,0-4.4,0.8-4.1,4.1c0.3,3.6,0.7,7.2,1.3,10.7c0.9,5.7-2.4,11.1-7.5,13.1
		c-2.7,1.1-5.6,1.3-8.5,1.4c-4.6,0-9.1,0.4-13.5,1.8c-5.8,2-10.8,5.2-14.7,9.9c-1.5,1.9-3,3.8-4.4,5.7c-4.2,5.9-10.1,10.3-16.8,12.9
		c-6.2,2.4-12.6,3.8-19.2,4.3c-7,0.6-13.5-1.3-19.7-4.3c-4.9-2.3-9.6-5.2-13.9-8.5c-5.2-3.9-8.4-9.1-9.3-15.6c-0.3-2-0.6-4-0.9-5.9
		c-0.7-4.7-2.8-8.8-6-12.3c-1.8-2-3.6-3.9-5.4-5.8c-4.2-4.6-6.5-9.8-6-16.1c0-0.3-0.1-0.6-0.2-1.2c-0.9,0.3-1.8,0.5-2.6,0.8
		c-7,2.4-14.6,2-21.5-0.7c-6.9-2.7-13.7-5.2-20.6-7.8c-6-2.2-11.5-5.1-16.3-9.4c-5.4-4.9-12-6.3-19-4.7c-6.9,1.6-13.8,3.6-20.5,5.7
		c-9.7,3.1-19.2,6.5-28.8,9.8c-3.4,1.2-6.4,1-9.2-1.4c-1.7-1.5-2.8-3.3-2.6-5.6c0.1-2.2,0.3-4.4,0.5-7.3c-1,0.8-1.7,1.3-2.3,1.9
		c-3.6,3.4-7.5,6.4-12,8.8c-3.9,2.1-8,3.5-12.5,3.8c-6.6,0.4-12-2.5-14.3-7.9c-1.5-3.4-1.3-6.8-0.5-10.3c0.8-3.5,2.4-6.6,4.4-9.5
		c0.9-1.3,1.9-2.6,2.7-4c1.5-2.3,1.5-4.7-0.1-6.9c-0.6-0.9-1.2-1.7-1.9-2.5c-5.3-6-9.7-12.5-13.5-19.5c-1.7-3.1-2.8-6.4-3.2-10
		c-0.6-6.1,1.5-11.2,6.4-14.9c4-3,8.6-4.7,13.5-5.3c6.3-0.8,12.6-1.6,18.8-1.7c15.6-0.3,31.2-0.3,46.8-0.2c9.7,0.1,19.3,0.8,29,1.2
		c9.4,0.4,18.8,0.9,28.3,1.1c15,0.4,30.1,0.8,45.1,0.8c11.4,0,22.9-0.7,34.2-2.1c6.7-0.9,13.4-1.9,20.2-2.8
		c4.8-0.6,9.6-0.8,14.3,0.2c0.4,0.1,0.8,0,1.3,0.1c0.1-1.6,0.3-3.1,0.4-4.6c0.3-2.5,1.3-3.6,3.8-3.9c1.3-0.2,2.7-0.2,4.1-0.2
		c6.4-0.2,12.8-0.3,19.2-0.4c0.5,0,1,0,1.4,0c2.1,0.1,3.6,1.4,3.7,3.3c0.2,2.9-2.2,4.1-4.7,4.3c-1.6,0.1-20.2,0.7-20.2,0.6
		c-0.5,9.7-1,19.4-1.6,29.3c1.5,0,2.7,0.1,3.9,0.1c3,0,5.9-0.2,8.9-0.1c2.4,0.1,3.8,1.6,3.8,3.8c0,2.2-1.4,3.6-3.8,3.7
		c-2.7,0.1-5.4,0-8.2,0C292.7,82.9,291.2,83,289.5,83.1z M523.7,46c-3.4,3.7-9.6,24.8-9.3,31.7c5.5,0.3,11,0.2,16.6,0.1
		c0-0.6,0.1-0.8,0.1-1c-1.3-7.1-2.4-14.1-3.8-21.2C526.5,52.3,525.6,49,523.7,46z"/>
	<path d="M666.5,778.1c14.7,0,28.7-3.4,42.1-9.2c16.2-7,30.7-16.7,44.3-27.9c1.3-1.1,2.4-2.3,3.6-3.5c8.1-8.2,16.2-16.3,24.4-24.5
		c5.2-5.2,10.5-10.3,15.7-15.5c4.2-4.2,9.3-6.7,15.2-7.5c2.2-0.3,4.4-0.6,6.7-0.8c2.5-0.3,4.6,0.6,6.1,2.6c2.7,3.5,3,7.8,0.4,11.6
		c-2.7,4-5.5,7.9-8.6,11.5c-8.6,9.9-18.8,17.7-29.9,24.6c-5,3.1-10.2,5.9-15.3,9c-3.1,1.9-6.3,3.9-9.1,6.1
		c-12,9.4-24.5,18-38.1,24.9c-13.5,6.9-27.6,11.8-42.6,13.9c-6.9,1-13.8,1.3-20.8,0.9c-0.6,0-1.1-0.1-1.7-0.2c-6-0.8-9.2-6.2-7-11.9
		c1.1-2.9,3.3-4.2,6.3-4.3C660.9,778.1,663.7,778.1,666.5,778.1z"/>
	<path d="M565.9,803c0.3-1.1,0.5-2.1,0.9-3.1c1-2.9,2.9-5,6.1-5.5c2.1-0.3,3.4-1.2,4.6-3c1.2-2,3.3-3,5.7-3.1
		c3.6-0.3,7.2-0.4,10.8-0.6c1-0.1,1.9-0.2,2.9-0.2c0.3-0.6,0.6-1.1,0.9-1.7c2.7-4.8,7.4-7.2,12.9-6.3c0.1,0,0.2,0,0.2,0
		c3.1,1.1,5.4,0.4,7.7-2.4c2.8-3.5,9-2.8,11.8,0.9c1.4,1.8,2.1,4,2,6.3c-0.1,2.2,0.5,4.1,2.1,5.7c2.8,2.7,2.8,5.9,1.7,9.3
		c-1,2.9-2.9,4.2-6,4.2c-2.8,0-5.4,0.4-8,1.3c-0.4,0.1-0.7,0.3-1.1,0.5c-0.1,1.3-0.1,2.6-0.3,3.9c-0.5,2.9-2.2,4.9-5.2,5.2
		c-5,0.6-10,1.2-15,1.3c-15.7,0.4-31.2,2.7-46.2,7.4c-1.9,0.6-3.7,1.1-5.6,0.3c-1.1-0.4-2.2-1.1-3-1.9c-4.1-4.6-2.3-11.7,3.5-13.8
		c2.8-1,5.7-1.7,8.5-2.5C560.3,804.5,563,803.8,565.9,803z"/>
	<path d="M402.4,79c0,2.7,0,4.8,0,6.9c-0.1,5.1-0.3,10.2-0.4,15.3c0,2.7-2.3,4-3.9,4c-2.1-0.1-3.7-1.6-3.6-4c0-4.2,0.2-8.3,0.3-12.5
		c0.1-3.5,0.5-7,0.2-10.5c-0.2-3.1,0-6.2,0.2-9.3c0.6-9.4,0.6-18.8,0.9-28.3c0.1-2.9,1-3.9,3.9-4.5c4.8-0.9,9.7-1.1,14.5,0.1
		c7.5,1.9,12.4,6.5,13.7,14.3c0.7,4.6-0.5,8.9-2.9,12.8c-2.8,4.6-6.8,7.8-11.5,10.1c-0.6,0.3-1.2,0.5-1.7,0.8
		c-0.1,0.1-0.2,0.2-0.4,0.5c0.7,0.5,1.4,1,2.1,1.5c5.5,3.7,8.4,9,9,15.4c0.3,3.2,0.2,6.4,0.1,9.6c0,1.5-1,2.5-2.4,3
		c-1.4,0.5-2.7,0.2-3.8-0.7c-1.2-1-1.2-2.3-1.2-3.7c0-2.3,0.1-4.6-0.1-6.9c-0.4-5.1-3-8.9-7.4-11.3C406.2,80.8,404.5,80.1,402.4,79z
		 M402.9,69c0.7,0,1.2,0,1.7-0.1c4.2-1,8-2.8,11.2-5.7c1.9-1.7,3.4-3.8,4.3-6.3c1.5-4.1,0.8-7.9-2.2-10.5c-4.1-3.6-9-3.8-14.2-3
		C403.3,52.1,403.1,60.5,402.9,69z"/>
	<path d="M387.8,64c-0.2,9.2-0.3,16.3-1.7,23.2c-1,4.8-2.8,9.2-6.4,12.7c-5.1,4.9-11.7,4.8-16.5-0.4c-2.9-3.2-4.4-7.1-5.1-11.2
		c-2.1-12.1-2.3-24.3,0.3-36.4c1-4.7,2.7-9,6-12.6c2.7-2.9,6-4.8,10.1-4.5c3.1,0.2,5.6,1.8,7.6,4.1c3.1,3.8,4.5,8.2,5,13
		C387.5,56.6,387.7,61.4,387.8,64z M380.1,66.5c0-4.8-0.2-9.7-0.7-14.6c-0.3-2.9-1.1-5.6-2.9-8c-1.6-2.1-3.4-2.3-5.4-0.7
		c-1.1,0.9-2.2,2-2.7,3.3c-1.1,2.5-2.3,5.1-2.8,7.8c-2.1,10.3-1.9,20.7-0.3,31c0.4,2.3,1.1,4.7,2.1,6.8c2.3,4.7,5.5,4.8,8.5,0.5
		c2.5-3.6,3-8,3.5-12.3C379.9,75.7,380.1,71.1,380.1,66.5z"/>
	<path d="M465.4,77.8c0.1-6.1,0.2-12.1,0.5-18.2c0.3-5.7,0.6-11.5,1-17.2c0.1-2.4,1.3-3.7,3.9-4.1c12.3-1.8,20.5,3.3,24.3,14.7
		c2.3,7.1,2.1,14.4,0.8,21.6c-1.1,6.3-3.2,12.4-6.7,17.8c-2.3,3.7-5.2,6.9-8.9,9.2c-3.1,1.9-6.5,2.7-10.1,2.6
		c-3.4-0.2-4.8-1.5-4.8-4.9C465.3,92.2,465.3,85,465.4,77.8z M472.8,96.3c1.5,0,2.5-0.6,3.5-1.2c2.6-1.6,4.6-3.9,6.3-6.5
		c2.9-4.5,4.6-9.5,5.7-14.7c1.2-6.1,1.4-12.2-0.3-18.3c-0.8-2.8-2.1-5.3-4.3-7.3c-2.6-2.4-5.8-3.1-9.4-2.9
		C473.1,62.6,472.5,79.3,472.8,96.3z"/>
	<path d="M451.4,43c-1.4,17.8-1.8,35.4-1.5,53.3c1.2,0,2.2,0,3.2,0c2.2,0.1,3.5,1.3,3.7,3.3c0.2,2.1-1.1,3.7-3.2,4.1
		c-0.5,0.1-1,0.1-1.4,0.1c-4.3,0-8.6,0-12.9,0.1c-1.3,0-2.3-0.4-3.2-1.3c-1-1.1-1.2-2.4-0.7-3.8c0.5-1.4,1.5-2.3,3-2.4
		c1.2-0.1,2.4,0,3.5,0c0.5-17.9,1-35.6,1.5-53.4c-0.6,0-1.3-0.1-2-0.1c-2-0.3-3.3-1.9-3.3-3.8c0-1.9,1.4-3.6,3.4-3.6
		c4.5-0.1,8.9-0.1,13.4-0.1c1.9,0,3.2,1.5,3.3,3.4c0.1,2-1,3.6-3,4C454.1,42.9,452.9,42.9,451.4,43z"/>
	<path d="M330.4,96.5c3.5,0,6.6,0,9.8,0c1.9,0,3.8-0.1,5.8,0c2.1,0.1,3.4,1.3,3.8,3.1c0.4,2.4-1,4.3-3.5,4.4c-2,0.1-4,0.1-6,0.2
		c-4.3,0.1-8.6,0.2-12.9,0.3c-2.8,0-3.8-0.9-4-3.6c-0.2-2.4-0.4-4.8-0.4-7.2c0-6.7-0.1-13.4,0.1-20.2c0.4-10.7,1.1-21.4,1.6-32.1
		c0-0.5,0.1-1,0.2-1.4c0.4-2.1,1.8-3.3,3.8-3.2c2.1,0.1,3.5,1.4,3.5,3.5c0,2.4-0.1,4.8-0.3,7.2c-0.3,6-0.7,12-0.9,18
		c-0.2,9.7-0.3,19.3-0.5,29C330.4,95,330.4,95.7,330.4,96.5z"/>
	<path d="M473.1,848.5c-1.1-0.2-2.2-0.4-3.2-0.8c-3-1.2-5.9-2.4-8.8-3.8c-3.2-1.5-4.8-4.6-4.3-8.1c0.5-3.7,3-6.5,6.5-7.1
		c1.1-0.2,2.3-0.2,3.3,0.2c3.6,1.3,7.2,2.7,10.6,4.3c3.3,1.5,4.4,5,3.4,9.1C479.7,846.1,476.8,848.4,473.1,848.5z"/>
	<path d="M500.2,845.1c-3.2-0.3-5.7-0.8-8.1-2.2c-3.4-2-4.8-5.9-3.5-9.8c1.2-3.7,4.4-5.7,8.4-5.3c2,0.2,4,0.5,5.9,0.8
		c3.7,0.6,6.6,3.9,6.9,7.6c0.2,3.4-2.2,6.9-5.7,8C502.8,844.7,501.2,844.9,500.2,845.1z"/>
	<path d="M523.9,820.4c0.8,0.2,2.2,0.4,3.4,0.8c3.3,1.2,5.1,3.8,5.1,7.1c0,3.6-1.7,6.4-5,7.7c-2,0.8-4,1.1-6.1,0.8
		c-4.3-0.7-7.1-4.1-7-8.4c0.1-4.1,3-7.3,7.3-7.9C522.3,820.5,522.8,820.5,523.9,820.4z"/>
</g>
</svg>
