<?xml version="1.0" encoding="utf-8"?>
<!-- Generator: Adobe Illustrator 23.0.4, SVG Export Plug-In . SVG Version: 6.00 Build 0)  -->
<svg version="1.1" id="Layer_1" xmlns="http://www.w3.org/2000/svg" xmlns:xlink="http://www.w3.org/1999/xlink" x="0px" y="0px"
	 viewBox="0 0 864 864" style="enable-background:new 0 0 864 864;" xml:space="preserve">
<g>
	<path d="M133.5,52c-2.5,0-4.4,0-6.3,0c-1,0-1.9,0.1-2.9,0c-2-0.2-3.6-1.9-3.7-3.8c-0.1-1.9,1.2-3.7,3.3-4c4.9-0.9,9.9-0.6,14.7,0.3
		c1.7,0.3,2.7,1.6,3,3.3c0.1,0.3,0.1,0.6,0.1,0.9c0,6.4,0.1,12.8-1.6,19c-1,3.9-2.6,7.5-5.4,10.5c-2,2.2-4.3,3.9-7.2,4.4
		c-4.6,0.8-8.5-0.5-11.5-4.2c-3-3.7-4.5-8-5.3-12.6c-0.4-2.5-0.7-5-1-7.7c-2.9-0.9-5.7-0.5-8.5-0.1c-2.2,0.3-3.4,1.7-3.6,3.9
		c-0.1,2.1-0.2,4.2,0.2,6.2c0.8,4.5,1.7,9.1,3,13.5c3.7,12.7,6.3,25.7,8.1,38.8c2.2,15.3,4.6,30.5,7.1,45.8
		c3.3,20.6,6.7,41.2,10.1,61.8c2.7,16.7,5.5,33.3,8.1,50c2.4,14.9,4.8,29.9,7.1,44.8c2.6,16.5,5.2,33,7.8,49.6
		c0.1,0.6,0.4,1.2,0.7,2.1c0.9-0.4,1.6-0.6,2.2-1c2.1-1.5,4.1-3,6.2-4.5c3.5-2.6,10.5-1.2,11.3,4.9c0.6,4.3-0.1,8.3-2.3,11.9
		c-1.6,2.7-3.4,5.4-5.4,7.9c-5.6,6.9-6.6,14.6-4.7,23c1.3,5.6,3.4,10.9,5.8,16.2c2.8,6.2,5.6,12.5,7.4,19.2c0.6,2.2,1.1,4.3,1.6,6.5
		c1,4.6,2.8,8.8,5.6,12.6c1.7,2.3,3.3,4.7,4.9,7.1c4.2,6.4,5.2,13.2,3.2,20.6c-0.5,2-1.1,4-1.7,6c-1,3.1-0.2,5.6,2.2,7.8
		c2,1.8,4.1,3.5,6.1,5.4c1.3,1.2,2.5,2.5,3.5,3.9c2.8,4.1,3.2,8.6,1.4,13.2c-1.5,4-4.3,7-7.7,9.6c-2.3,1.7-4.6,3.4-7,5
		c-4.9,3.2-7.3,7.8-7.4,13.7c0,2.1-0.4,4.1-0.4,6.2c-0.1,5.5-1.6,10.7-3.6,15.7c-1.2,2.9-2.1,6-2.9,9.1c-0.8,2.7-0.8,5.4,0.1,8
		c1.4,4.4,2.9,8.8,4.4,13.1c1.2,3.3,2.8,6.4,4,9.7c3.8,9.9,4.8,20.1,2.5,30.5c-1.2,5.4-2.3,10.9-3.6,16.3
		c-3.3,13.1-2.5,25.9,2.7,38.4c2.6,6.3,5.3,12.6,8,18.9c4.7,11,8.8,22.2,10.3,34.2c0.1,0.8,0.4,1.5,0.8,2.6c0.9-0.6,1.5-0.9,2.1-1.4
		c2-1.6,3.9-3.3,6-4.8c5.2-3.7,10.9-4.2,16.8-1.8c3.4,1.4,5.8,3.9,7.1,7.4c2,5.2-0.5,9.6-6,10.7c-3.1,0.6-6.3,1.1-9.4,1.8
		c-1,0.2-2,0.8-3,1.1c-0.1,1.3,0.8,1.1,1.3,1.1c13.6-0.9,27.1,0.4,40.6,1.4c11.4,0.8,22.9,1.5,34.3,2.2c12.1,0.8,24.2,1.7,36.2,2.5
		c10.5,0.7,21,1.4,31.5,2.2c11.6,0.8,23.2,1.7,34.8,2.6c4.8,0.4,9.5,0.7,14.3,1c16.2,1.1,32.4,2.1,48.6,3.3
		c10.8,0.7,21.6,1.6,32.4,2.4c5.9,0.4,11.8,0.8,17.7,1.1c18.9,1.1,37.9,2.2,56.8,3.3c4.9,0.3,9.9,0.6,14.8,0.8
		c7.3,0.4,8.5,2.5,8.7,8.1c0.2,3.5,0.4,7,0.6,10.5c0.2,3,0.5,6,1,9c0.6,3.7,2.3,7,5.4,9.3c2.5,1.8,4.3,1.6,6.2-0.8
		c1.5-1.9,2.2-4.2,2.7-6.6c1.2-5.8,1.4-11.7,1.3-17.6c-0.1-9.4-0.4-18.8-0.4-28.2c0-3.2,0.5-6.4,1.1-9.5c1.3-5.8,4.9-9.5,10.7-10.9
		c6.3-1.6,12.6-1.6,18.9-0.2c5.8,1.3,11.3,3.3,16.7,5.7c5.1,2.2,10.2,4.6,15.3,6.7c4.1,1.7,8.3,3.2,12.8,3.5c0.8,0.1,1.6,0,2.6,0
		c0.1-1,0.4-1.9,0.3-2.8c-0.2-2.4-0.6-4.7-0.9-7.1c-0.2-1.4-0.3-2.9-0.3-4.3c0-3.5,1.4-5.6,4.7-7c1.3-0.5,2.8-0.8,4.1-1.3
		c1-0.4,2-1,2.9-1.6c0.4-0.3,0.7-0.6,0.9-1c0.1-0.3,0.2-0.7,0.2-1c0-0.1,0-0.2-0.1-0.2c-0.1-0.1-0.2-0.1-0.3-0.2
		c-0.8-0.2-1.7,0-2.4,0.4c-0.8,0.5-1.3,0.5-2.2,0.5c-0.5,0-1,0-1.5-0.1c-0.9-0.1-1.7-0.3-2.5-0.7c-1.6-0.7-3-1.9-4.3-3
		c-5.6-4.5-6.1-8.9-3.7-15.8c1-3,2.9-4.9,6.1-5.4c0.8-0.1,1.6-0.2,2.6-0.4c0.1-1.1,0.3-2.1,0.3-3.2c0-5.3,0-10.5,0-15.8
		c0-1,0-1.9,0-2.9c0.3-6.1,6.2-9.1,11.4-5.7c1,0.7,1.9,1.5,2.9,2.3c1.9-2.5,4.6-8,4.9-9.8c0.1-0.6,0.1-1.3,0-1.9
		c-0.1-1.1-1.1-2.1-2.2-2.1c-1.3,0-2.5,0.2-3.8,0.2c-3.7,0-6.1-1.6-7.2-5.1c-1.5-4.9-1-9.4,2-13.6c2.7-3.8,6.3-6.2,10.8-7.5
		c2.6-0.8,5.2-1.4,7.8-2.2c1.1-0.4,2.5-0.6,2.8-2.5c-1.7-0.2-3.4-0.5-5.1-0.7c-1.6-0.2-3.1-0.8-4.3-1.9c-3.4-3.1-3.5-7.7,0-10.9
		c3-2.7,6.4-4.7,10-6.4c2-0.9,4-1.9,5.8-2.8c0.2-1.7-0.9-2.2-1.6-3c-1.6-1.6-3.3-3-4.8-4.7c-3.1-3.5-4.6-7.5-4.4-12.2
		c0.2-4.9,4.1-10.5,9.5-10c0.2,0,0.5-0.3,1-0.5c0-1.1-0.1-2.4,0-3.6c0.2-1.2,0.4-2.5,0.9-3.7c2-4.2,6.4-5.4,10.4-2.8
		c1.9,1.2,3.6,2.6,5.5,4.1c0.8-0.7,1.5-1.2,2.1-1.9c3.1-3,6.2-6,9.1-9.1c2.1-2.2,3.9-4.6,5.7-7.1c1.6-2.2,1.8-4.6,0.8-7.2
		c-2.1-5.6-1.5-7.1,3.1-11.1c0.2-0.2,0.3-0.5,0.6-1c-0.5-0.4-1.1-0.9-1.7-1.4c-2.4-1.6-4.7-3.3-7.1-4.8
		c-6.9-4.6-11.6-10.9-14.1-18.7c-1.6-5-2.8-10.1-3.9-15.2c-1.1-5-1.8-10-2.9-15c-0.9-4.5-2.5-8.9-4.6-13
		c-3.6-7.1-8.9-12.4-16.3-15.5c-1.6-0.7-3.2-1.4-4.8-2.2c-5.2-2.7-8.2-7.1-8.8-12.8c-0.5-4.3-0.8-8.6-0.7-12.9
		c0.3-8.3-1.5-16.1-4.7-23.7c-1.6-3.7-3.1-7.4-4.5-11.1c-1.8-4.6-3.4-9.3-3.8-14.3c-0.4-5.1-3.1-8-7.8-9.6
		c-4.7-1.6-9.2-3.5-13.7-5.5c-3.3-1.5-6.6-3.2-9.7-5.2c-5.4-3.5-9.4-8.2-11.3-14.4c-0.9-2.9-2.5-4.7-5.3-5.6c-0.1,0-0.3-0.2-0.4-0.2
		c-7.6-2.7-10.8-8.4-10.8-16.3c0-0.5,0-1,0-1.4c0.3-4.8-1.6-8.7-4.7-12.1c-2.6-2.8-5.2-5.6-7.9-8.3c-4.5-4.5-8.9-9.1-13.6-13.5
		c-3.5-3.3-7.2-6.2-11-9.2c-3-2.4-6.5-3.4-10.3-2.9c-3.5,0.4-6.9,1-10.3,1.7c-5.5,1.1-11,2.1-16.6,1.3c-1.4-0.2-2.8-0.5-4.2-0.9
		c-5.4-2-6.9-7.6-3.2-11.9c2.4-2.8,5.2-5.2,8.4-7c2.4-1.3,4.7-2.6,7-4.1c1.1-0.7,2-1.5,2.9-2.5c0.7-0.8,0.7-1.8,0.1-2.6
		c-0.8-1-1.7-1.9-2.7-2.7c-14.5-13.2-26.6-28.3-36.8-45c-5-8.2-9.2-16.8-12.7-25.6c-1.5-3.8-3.1-7.7-4.6-11.5c-2-5.1-5-9.6-9.3-13.1
		c-3.9-3.3-6.5-7.3-8-12.2c-0.6-1.8-1.2-3.6-2.4-5.3c-1.2,0.2-2.3,0.2-3.4,0.5c-8.8,2.4-16.8,0.5-23.9-4.9c-2.8-2.1-5.3-4.6-7.5-7.3
		c-2.9-3.6-5.5-7.4-8-11.3c-4.5-7.1-10.1-13-17.5-17.2c-8.5-4.8-12-13.9-9.8-23.9c1.6-7,5-13.1,10-18.2c1.8-1.9,3.2-4,4.2-6.3
		c0.3-0.7,0.6-1.5,0.8-2.3c0.6-2.7-0.3-4-3-4.1c-5.9-0.1-11.8-0.1-17.7-0.1c-0.6,0-1.2,0.2-2,0.4c-0.1,1.4-0.2,2.6-0.2,3.8
		c0,3.7,0.1,7.3,0.1,11c0,1,0,1.9-0.2,2.9c-0.3,2-2.2,3.5-4,3.4c-1.9-0.1-3.6-1.7-3.7-3.7c-0.1-3.5,0-7-0.1-10.5
		c-0.1-2.5,0.1-5.1-0.9-7.8c-7-0.3-14,0-21.1-0.3c-1.1,2.9-1.3,5.7-1.5,8.5c-0.3,3.2-0.5,6.4-0.8,9.5c-0.1,0.9-0.4,1.9-0.9,2.6
		c-0.9,1.2-2.3,1.7-3.8,1.3c-1.5-0.4-2.6-1.3-2.9-2.8c-0.2-0.9-0.2-1.9-0.2-2.8c0.3-3.7,0.5-7.3,1-10.9c1.8-14.4,4.2-28.7,8.7-42.5
		c1.2-3.6,2.8-7.1,4.5-10.5c0.8-1.7,2.2-3.2,3.6-4.4c2.9-2.5,6.1-2.4,9.1,0c1.9,1.5,3.3,3.5,4.1,5.8c1.3,3.4,2.5,6.9,3.4,10.4
		c2.2,8,3.4,16.2,4.6,24.4c0.1,0.8,0.3,1.5,0.4,2.6c1.1,0,2.2,0.2,3.3,0.1c11.9-0.7,23.9-1.5,35.8-2.3c1.7-0.1,3.5-0.1,5.2,0.1
		c4.2,0.7,6.1,3.4,5.2,7.5c-0.5,2.1-1.4,4.2-2.4,6.2c-1.9,3.7-4.5,6.9-7.4,9.9c-2.9,3-5.9,5.9-8.6,9c-2.2,2.5-4.3,5.1-6.1,7.9
		c-1.1,1.7-1.8,3.7-2.3,5.7c-0.8,3.1,0.3,5.7,2.8,7.6c1.3,0.9,2.6,1.8,4,2.5c4.6,2.4,8.4,5.7,11.5,9.9c1.9,2.6,3.7,5.2,5.4,7.9
		c3,4.7,6.4,9.2,10.1,13.3c1.2,1.3,2.5,2.5,3.8,3.6c3.2,2.5,6.9,3.2,10.8,2.4c1.9-0.4,3.7-0.8,5.6-1.2c5.6-1.2,10.1,0.8,13.3,5.4
		c1.7,2.5,3,5.3,4.1,8.1c1.2,3.2,2.9,5.9,5.5,8.2c4.6,4.1,7.9,9.2,10.3,14.8c2.2,5,4.2,10,6.3,15c8.1,19.5,19.4,36.9,33.5,52.5
		c2.6,2.8,5.5,5.3,8.2,8.1c2.7,2.7,5.4,5.4,7.9,8.3c4.7,5.5,5.8,11.5,2.6,18.2c-0.3,0.7-0.5,1.4-0.8,2.4c0.9,0.1,1.5,0.2,2.1,0.2
		c9.6-0.4,17.7,3.2,24.9,9.3c3.3,2.8,6.5,5.7,9.6,8.7c5.1,5,10.2,10.1,15.2,15.2c2.4,2.5,4.7,5.2,7,7.9c4.1,4.6,5.9,10.1,6.4,16.1
		c0.1,1.7,0.2,3.5,0.3,5.3c0.1,1.4,0.8,2.4,2.1,2.9c1.3,0.6,2.6,1.1,3.9,1.7c4.1,1.9,7,4.9,8.7,9.1c0.4,1,0.9,2,1.2,3.1
		c1.5,4.5,4.6,7.6,8.9,9.4c4.5,1.9,9.1,3.9,13.6,5.8c2.9,1.3,5.9,2.5,8.7,3.9c5.6,2.8,9.1,7.3,10.5,13.5c0.3,1.6,0.6,3.1,0.9,4.7
		c1.4,6.1,3.2,12,5.8,17.7c2.7,6,5.3,11.9,6.6,18.4c1,5,1.4,10.1,1.2,15.2c-0.1,2.9,0,5.7,0,8.6c0,3.1,1.6,5,4.4,6.2
		c1.7,0.8,3.4,1.7,5.1,2.6c8.9,4.4,15.3,11.3,19.7,20.1c3.3,6.6,5.2,13.7,6.6,20.9c1,5.3,2,10.6,2.9,16c1.9,10.1,7.1,17.9,15.8,23.4
		c5,3.2,9.8,6.5,14.7,9.8c3.5,2.4,6.2,5.4,8.6,8.9c0.5,0.8,1.1,1.6,1.5,2.5c2.3,4.8,0.3,9.6-4.7,11.1c-2.6,0.8-5.3,1-8,1.3
		c-1.6,0.2-3.2,0-4.9,0c-0.5,1.1-1.1,2.1-1.4,3.1c-2,5.9-5.5,10.8-10,14.9c-2.1,1.9-4.2,3.9-6.4,5.8c-3.7,3.3-6.2,7.2-7,12.2
		c-0.6,3.4-3,5.2-6.3,5.7c-1.2,0.2-2.5-0.2-3.7-0.4c-1.4-0.3-2.8-0.5-4.1,0.3c-0.7,1.4,0.4,2.1,1.1,2.9c2.3,3,3.7,6.3,3.6,10.1
		c0,2.8-0.4,5.4-2.1,7.7c-1.3,1.8-1.7,3.6-1.4,5.8c1.5,11.9-4.5,21.7-15.8,25.9c-1.6,0.6-3.3,1.2-4.9,1.7c0,1.7,1.4,2.1,2.3,2.9
		c3,2.9,4.8,6.4,5.2,10.5c0.3,2.8-0.3,5.4-1.2,8c-0.7,2.3-1.6,4.5-2.6,6.6c-2.1,4.2-4.1,8.3-6.2,12.4c-1.7,3.4-3.2,8.2-6.2,10.7
		c-0.8,0.7-1.8,1.3-2.5,2.1c-1.5,1.7-1.8,4.2-2.1,6.5c0,0.2,0,0.5,0.1,0.7c0.1,0.1,0.2,0.2,0.3,0.3c3.9,2.7,7.1,5.5,8.5,10.2
		c1.3,4.2,0.7,8.8-1.4,12.7c-1.6,3-3.9,5.5-6.6,7.4c-1.3,0.9-2.6,1.8-4.1,2.9c0.3,2.8,0.6,5.7,1,8.5c0.2,2.1,0.6,4.1,0.7,6.2
		c0.3,4.2-1.6,7-5.8,8c-5.3,1.4-10.8,1.2-16.1,0.4c-5.2-0.7-10.2-2.3-15.1-4.3c-8.1-3.3-16.2-6.7-24.3-10c-4.6-1.9-9.5-2.8-14.5-2.5
		c-0.5,0-1,0.1-1.4,0.2c-0.3,0.1-0.6,0.3-1,0.5c-1.3,2-1.2,4.4-1.3,6.8c-0.1,7.2,0,14.3,0,21.5c0,7.3,0.2,14.7-1,21.9
		c-0.6,3.9-1.3,7.9-3,11.5c-1.1,2.5-2.4,4.9-4,7c-5.1,6.5-12.9,8.3-20.6,5.3c-5.6-2.2-9.8-5.9-12.6-11.2c-2.2-4.1-3.5-8.5-3.9-13.2
		c-0.3-4-0.5-7.9-0.8-11.7c-1.3-1.5-2.8-1.2-4.2-1.3c-5.1-0.3-10.2-0.5-15.3-0.7c-13.5-0.8-27-1.5-40.6-2.4
		c-12.4-0.8-24.8-1.7-37.2-2.5c-11.3-0.8-22.6-1.5-33.9-2.3c-11-0.8-21.9-1.6-32.9-2.4c-10.6-0.8-21.3-1.5-32-2.2
		c-12.4-0.9-24.8-1.7-37.2-2.6c-6-0.4-12.1-0.8-18.1-1.2c-11.9-0.8-23.8-1.7-35.8-2.4c-18-1.1-35.9-3.1-53.9-3.3
		c-6.2-0.1-12.4,0-18.6-0.1c-2.4,0-4.8-0.4-7.1-0.7c-5.3-0.8-9.1-3.6-11-8.8c-0.2-0.4-0.4-0.9-0.6-1.5c-1-0.3-2-0.6-3.1-0.9
		c-4-1.4-5.3-3.2-5.4-7.4c-0.1-2.2-0.1-4.5-0.3-6.7c-0.7-9.5-3.4-18.5-6.9-27.2c-3.7-9.2-7.5-18.3-11.1-27.5c-3.5-9-5.2-18.4-5.1-28
		c0.1-5.4,1-10.8,2.1-16.1c1.2-5.9,2.3-11.9,3.6-17.8c1.6-7.6,0.9-14.9-1.8-22.1c-1.8-4.8-3.8-9.4-5.5-14.3
		c-1.4-3.9-2.5-7.9-3.4-11.9c-1.7-7.2-0.6-14.3,2.3-21c2.8-6.4,4.1-13,4.5-19.9c0.2-3,0.7-6,1.3-9c1.3-6,4.4-10.9,9.2-14.6
		c3.1-2.5,6.3-4.9,9.4-7.4c0.9-0.7,1.7-1.4,2.8-2.3c-0.8-0.9-1.5-1.7-2.2-2.4c-1.9-1.8-3.7-3.5-5.6-5.2c-5.8-5.2-7.5-11.6-6.1-19.1
		c0.5-2.8,1.2-5.6,2-8.4c0.9-3.1,0.5-6-1.2-8.7c-0.9-1.5-1.9-3-2.9-4.4c-4.7-6.5-8.1-13.7-9.9-21.5c-1.4-6.1-3.7-11.9-6.1-17.6
		c-2.2-5.3-4.3-10.6-6.4-16c-1.8-4.6-2.7-9.5-3.2-14.4c-0.5-4.5,0-8.9,1-13.3c0.3-1.2,0.6-2.5,0.9-3.9c-0.6-0.5-1.2-1-1.9-1.4
		c-2.2-1.3-3.3-3.4-3.9-5.8c-1.1-4.5-2.4-8.9-3.1-13.5c-2.4-14.5-4.5-29-6.8-43.4c-2.4-15.1-4.8-30.2-7.2-45.3
		c-2.4-14.9-4.8-29.9-7.3-44.8c-2.7-16.7-5.5-33.3-8.2-50c-3.4-20.9-6.8-41.8-10-62.8c-2.1-13.2-4.6-26.3-7.9-39.3
		C85,83,83.9,77,82.7,71.1c-0.9-4.6-0.8-9.2,0.4-13.7c2-7.8,7.8-12.9,15.8-13.9c3.4-0.4,7-0.4,10.7-0.6c0.8-2.3,0.8-5.1,1.1-7.7
		c0.6-5.4,1.7-10.7,3.8-15.7c1-2.5,2.2-5,3.8-7.1c4.7-6.4,13.6-8.2,20-4.2c4.2,2.6,6.1,6.3,5.8,11.2c0,0.8-0.2,1.6-0.5,2.3
		c-0.7,1.9-2.2,2.9-4,2.8c-1.9-0.1-3.5-1.6-3.8-3.7c-0.1-0.5,0-1,0-1.4c-0.2-3.8-2.6-5.7-6.3-5.1c-2.1,0.4-3.9,1.5-5,3.3
		c-1.2,2-2.4,4.2-3.1,6.4c-1,3.2-1.7,6.5-2.3,9.7c-1.7,9.6-1.6,19.3-0.6,29.1c0.2,1.7,0.6,3.5,1.1,5.1c0.3,1.2,0.8,2.4,1.5,3.5
		c2.4,4.3,5.5,4.4,8.4,0.4c0.7-1,1.4-2.2,1.8-3.3C133.4,63.3,133.8,58,133.5,52z M371.8,53.5c6.6,0.8,16.2,0.7,19.7-0.2
		c-0.5-3.4-0.9-6.9-1.4-10.3c-1.1-6.7-2.4-13.5-4.5-20c-0.6-1.9-1.1-3.9-2.8-5.5c-1.8,1.5-2.5,3.4-3.2,5.3
		C375.8,32.7,373.4,42.9,371.8,53.5z"/>
	<path d="M246,55.8c-0.1,1.2-0.3,2.5-0.3,3.7c-0.2,6.2-0.3,12.4-0.5,18.6c0,1.1-0.1,2.2-0.3,3.3c-0.4,2.1-2,3.3-4.1,3.2
		c-2-0.1-3.5-1.5-3.7-3.6c-0.1-0.9-0.1-1.9,0-2.9c0.2-7.3,0.4-14.7,0.6-22c0-0.3,0.1-0.6,0.1-1c0.2-3.4-0.9-6.7,0-10.3
		c0.9-3.3,0.3-7,0.4-10.5c0.1-3.5,0.2-7,0.3-10.5c0.1-3.5,0.4-7,0.3-10.5c-0.1-5.7,1.4-6.4,6.3-7c5.4-0.7,10.8-0.8,16.1,0.9
		c7.8,2.6,12.6,7.8,13.8,16.1c0.6,4.1-0.4,7.9-2.1,11.6c-2.7,5.7-7.1,9.8-12.4,12.8c-1.4,0.8-2.8,1.5-4.1,2.2
		c-0.1,1.5,1.1,1.6,1.7,2.1c7.1,4.7,10.3,11.5,10.7,19.8c0.1,2.9,0.1,5.7-0.1,8.6c-0.2,2.2-1.8,3.4-3.9,3.4c-2.2,0-3.7-1.2-3.9-3.4
		c-0.1-1.1,0-2.2,0-3.3c-0.2-2.7-0.2-5.4-0.7-8.1c-0.7-4.5-3.2-7.9-7-10.4C250.4,56.9,249.4,56.4,246,55.8z M246.9,14.6
		c-0.2,9.3-0.5,18.4-0.7,27.4c0,0.6,0.3,1.2,0.5,2c6.4-1.2,12-3.7,16.1-8.7c1.4-1.7,2.5-3.7,3.2-5.8c2.1-5.9-0.3-11.3-6-13.8
		C256.1,14,251.9,13.4,246.9,14.6z"/>
	<path d="M229.1,40.8c0,10.1-0.7,20.7-4.2,29.6c-3.5,8.7-13.2,16.3-22.1,9.1c-2.1-1.7-3.8-3.9-4.8-6.5c-1-2.7-2.1-5.4-2.6-8.2
		c-2.2-13.6-2.5-27.3,0.5-40.8c0.7-3.2,2-6.4,3.4-9.4c1.3-2.8,3.3-5.1,5.7-6.9c6-4.5,13.1-3.6,17.8,2.2c4.9,6.1,6,14.3,6.1,21.8
		C229.1,34.7,229.1,37.7,229.1,40.8z M221,40.1c-0.4-5.2-0.6-10.5-1.2-15.7c-0.3-2.5-1.2-4.9-2.1-7.3c-0.4-1.1-1.4-2.2-2.3-3
		c-1.3-1.2-2.8-1.3-4.4-0.4c-2,1.1-3.4,2.9-4.5,4.9c-1.5,2.8-2.4,5.9-3,9c-2.2,12-2,24.1,0,36.1c0.2,1.4,0.6,2.8,1.1,4.1
		c0.4,1,0.8,2.1,1.4,3c2.7,4.5,6.2,4.6,9.4,0.4c0.8-1,1.4-2.1,1.9-3.3c0.7-1.8,1.3-3.6,1.7-5.4C220.4,55,220.8,47.6,221,40.1z"/>
	<path d="M307.4,52c-2.6,0-4.5,0-6.3,0c-1,0-1.9,0.1-2.9,0c-2.1-0.2-3.6-1.7-3.7-3.7c-0.2-2,1-3.6,3.1-4.2c0.5-0.1,0.9-0.2,1.4-0.2
		c4.3-0.5,8.6-0.3,12.8,0.4c2.5,0.5,3.6,1.7,3.7,4.2c0.1,5.9,0.1,11.8-1.1,17.6c-0.8,3.6-2.1,7-4.2,10.1c-1.4,2-3,3.7-5.1,4.9
		c-4.6,2.8-10.2,2.1-14.1-1.5c-2.4-2.2-4-5-4.9-8.1c-0.9-2.9-1.7-5.9-1.9-8.8c-0.9-10.5-0.9-21,0.8-31.4c0.9-5.4,2.2-10.6,4.8-15.4
		c1.1-1.9,2.3-3.9,3.8-5.4c5-5.1,13.2-6,18.9-2.2c4.4,2.9,6.4,8.1,5.1,12.9c-0.6,2.2-2.1,3.4-4.1,3.3c-2.1-0.1-3.6-1.7-3.8-4.1
		c0-0.2,0-0.3,0-0.5c0.3-1.9,0-3.6-1.7-4.6c-2-1.3-4.2-1.3-6.4-0.4c-1.7,0.7-3,1.9-3.8,3.5c-1.3,2.6-2.5,5.2-3.3,7.9
		c-1.8,6-2.4,12.2-2.8,18.4c-0.3,6.2-0.2,12.4,0.7,18.6c0.3,1.9,0.7,3.8,1.2,5.6c0.4,1.3,1.1,2.7,1.9,3.8c2,2.8,4.3,2.9,6.7,0.4
		c1.8-1.9,2.8-4.2,3.6-6.7C307.3,61.8,307.1,57.2,307.4,52z"/>
	<path d="M162.6,16.7c-1,4.8-1.6,19.1-1.2,27.2c0.8,0.1,1.7,0.4,2.6,0.4c2.7,0,5.4-0.1,8.1,0c2.4,0.1,3.8,1.7,3.8,4
		c0,1.9-1.1,3.4-3,3.8c-1.4,0.2-2.9,0.2-4.3,0.3c-2.4,0.1-4.7,0.2-7,0.3c-1.1,4.4-1.3,17.5-0.3,22.2c1,0.1,2.1,0.3,3.1,0.3
		c4.3,0,8.6-0.1,12.9-0.2c1.1,0,2.2-0.1,3.3,0.1c2,0.4,3.5,2.3,3.4,4.1c-0.1,1.7-1.5,3.4-3.2,3.8c-0.8,0.2-1.6,0.2-2.4,0.2
		c-6.5,0.1-13.1,0.1-19.6,0.2c-0.5,0-1,0-1.4,0c-3.3-0.2-4.6-1.4-4.7-4.8c-0.2-5.3-0.3-10.5-0.2-15.8c0.3-15,0.7-29.9,1.1-44.9
		c0-1.8,0.1-3.5,0.3-5.2c0.4-3.1,1.6-4.2,4.6-4.6c1.1-0.1,2.2-0.1,3.3-0.1c5.9,0,11.8,0,17.7,0c0.9,0,1.9,0,2.8,0.2
		c1.8,0.4,2.9,2.1,2.9,3.9c0,1.7-0.9,3.1-2.6,3.6c-1.4,0.4-2.8,0.5-4.2,0.5c-4.6,0.1-9.2,0-13.9,0C164.2,16.5,163.6,16.6,162.6,16.7
		z"/>
	<path d="M334,74.7c0.2-0.5,0.5-0.8,0.5-1.1c-0.2-19.7,0.5-39.4,1.7-59.4c-1.1-0.2-2-0.3-2.9-0.5c-2.4-0.7-3.6-2.2-3.3-4.5
		c0.2-2,1.5-3.2,3.9-3.5c0.6-0.1,1.3-0.1,1.9-0.1c3.5-0.1,7-0.1,10.5-0.1c0.9,0,1.9,0,2.8,0.2c1.9,0.4,3,1.9,3.1,3.7
		c0.1,2-1.2,3.8-3.2,4.2c-1.4,0.3-2.8,0.3-4.4,0.5c-0.2,0.9-0.4,1.6-0.4,2.4c-1.2,18.8-1.9,37.5-1.6,56.3c0,0.6,0.3,1.2,0.4,1.9
		c1.5,0.1,2.9,0.1,4.3,0.4c2,0.3,3.4,2.1,3.3,4.1c-0.1,1.8-1.3,3.3-3.2,3.6c-1.1,0.2-2.2,0.2-3.3,0.2c-4.1,0.1-8.3,0.1-12.4,0.1
		c-0.8,0-1.6,0-2.4-0.2c-1.8-0.5-3-2.1-2.9-3.9c0-1.8,1.3-3.5,3-3.8C331,74.9,332.5,74.9,334,74.7z"/>
</g>
</svg>
