<?xml version="1.0" encoding="utf-8"?>
<!-- Generator: Adobe Illustrator 23.0.4, SVG Export Plug-In . SVG Version: 6.00 Build 0)  -->
<svg version="1.1" id="Layer_1" xmlns="http://www.w3.org/2000/svg" xmlns:xlink="http://www.w3.org/1999/xlink" x="0px" y="0px"
	 viewBox="0 0 864 864" style="enable-background:new 0 0 864 864;" xml:space="preserve">
<g>
	<path d="M335.3,199.8c-1.1-1.4-2.1-2.5-3-3.7c-2.6-3.6-2.1-7.4,1.3-10.2c1.6-1.3,1.8-3.2,0.3-4.9c-0.4-0.5-1-0.8-1.5-1.2
		c-12.1-8.6-19.7-20.3-24.2-34.3c-1-3-1.2-6.1-1.2-9.2c0-10.1,0-20.2,0-30.2c0-24.9,0-49.8,0-74.6c0-0.9,0-1.7,0-2.7
		c-20.4,0-40.5,0-60.9,0c0,1,0,1.8,0,2.7c0,15.7,0,31.4,0,47c0,41.4-0.1,82.7-0.1,124.1c0,23,0.1,45.9,0.1,68.9
		c0,15,0.1,30.1-0.2,45.1c-0.1,7.8,0.9,15.5,2.8,23c0.6,2.5,1.1,5,1.7,7.5c1.3,5.2,1.3,10.5,0.2,15.7c-1.2,5.8,0.6,10.4,5.4,13.8
		c2.9,2.1,5.9,4.1,8.8,6.2c2.8,2,5.6,4,8.2,6.3c8.5,7.3,11.5,16.8,10.7,27.7c-0.6,8.3-3.6,15.9-7.2,23.2c-2.7,5.6-5.4,11.2-8.3,16.8
		c-3.8,7.2-5.6,14.9-6.4,22.9c-0.4,4.2-1,8.4-1.9,12.6c-0.9,4.5-3.1,8.5-6.1,12.1c-2.4,2.8-4.8,5.5-7.3,8.3
		c-7.7,8.7-14.1,18.2-17.9,29.3c-1.4,4.1-2.2,8.3-3.1,12.5c-0.2,1.1,0,2.2,0,3.6c2.1-0.6,4.1-1.2,6.1-1.8c3-0.9,6-1.2,9-0.5
		c5.2,1.3,8.6,4.7,10.3,9.7c1.6,4.6,1.5,9.4,1.2,14.2c-0.8,10.3-3.2,20.2-7.4,29.6c-0.7,1.6-1,3.4-1,5.1c0,23.7,0,47.4,0,71
		c0,14.4,0,28.8,0,43.2c0,22.5,0,45,0,67.4c0,1,0,1.9,0,2.8c1.8,0.6,29.7,0.8,35.1,0.3c0.6-10.9,1.1-21.8,1.7-32.9
		c-0.7-0.1-1.4-0.2-2-0.2c-1-0.1-1.9,0-2.9-0.2c-1.9-0.4-3.1-1.8-3.2-3.7c-0.1-2,0.9-3.6,2.8-4.2c0.6-0.2,1.3-0.3,1.9-0.3
		c5.8-0.1,11.7-0.1,17.5-0.1c2.6,0,4.3,1.7,4.3,4.1c0,2.3-1.6,4-3.8,4.1c-1.9,0.1-3.8,0-6.1,0c-1.9,26.5-2.9,52.9-2.2,79.6
		c1.9,0,3.7,0,5.5,0.1c2.3,0.1,3.6,0.9,4.3,2.8c0.8,2.3-0.4,4.7-2.7,5.3c-0.8,0.2-1.7,0.3-2.6,0.3c-6.2,0.1-12.5,0.1-18.7,0.1
		c-2.7,0-4.5-1.7-4.5-4.2c0-2.2,1.3-3.8,3.6-4.1c1.7-0.2,3.4-0.1,5-0.1c0.5,0,0.9-0.1,1.5-0.1c0-10.7,0-21.2,0-32c-1,0-2,0-2.9,0
		c-12.2,0.1-24.5,0.3-36.7,0.4c-1,0-2.1,0-3.1-0.3c-3-0.8-5-3.3-5.2-6.5c-0.1-0.8,0-1.6,0-2.4c0-31.8,0-63.5,0-95.3
		c0-29.8,0-59.7-0.1-89.5c0-2.4,0-4.8-0.1-7.2c-0.1-2.6,0.5-5,1.7-7.4c3-6.2,5.2-12.7,6.3-19.6c0.8-4.7,1-9.4,0.3-14.1
		c-0.2-1.8-0.8-2.2-2.6-1.7c-2.1,0.6-4.1,1.4-6.1,2.1c-2.6,0.9-5.3,1.3-8,1.2c-5.8-0.2-9.1-3.4-9.7-9.2c-0.7-6.5,0.1-12.9,1.7-19.3
		c2.4-10,7-19,12.6-27.5c4.8-7.3,10.3-14,16.4-20.4c3.4-3.6,5.1-7.9,5.3-12.8c0.5-13.8,4.3-26.6,10.7-38.7
		c2.7-5.1,5.3-10.2,7.8-15.4c2.5-5.1,4-10.4,4.1-16.1c0.1-5.9-2.1-10.8-6.8-14.4c-3.4-2.7-7-5.1-10.5-7.6c-2.3-1.7-4.7-3.4-6.9-5.1
		c-7.6-6-10.8-13.9-9.3-23.5c0.9-6,0.5-11.8-1.1-17.6c-1.2-4.3-2.1-8.7-3.2-13c-0.8-3.2-0.7-6.5-0.7-9.8c0.2-14.9,0.4-29.7,0.4-44.6
		c0-11.3-0.3-22.6-0.3-33.8c0-72.3,0-144.6,0-217c0-2,0.1-4,0.3-6c0.4-4.3,2.8-6.4,7.1-6.4c24.6,0,49.1,0,73.7,0c1,0,1.9,0,2.9,0.3
		c2.9,0.7,4.7,2.7,5,5.7c0.2,1.5,0.2,3,0.2,4.6c0,36.8,0,73.6,0,110.4c0,3.2,0.5,6.2,1.6,9.1c2.1,5.7,5,10.9,8.8,15.6
		c2.2,2.8,4.7,5.2,7.8,7c5.4,3.1,8.5,7.8,9.9,13.8c0.3,1.4,0.6,2.8,1,4.2c1.3,4.4,1.3,5.2-1,9.2c1,1.2,1.9,2.5,3,3.6
		c2.5,2.6,3.4,5.5,2.3,9c-0.1,0.3-0.1,0.6-0.1,1.1c2.6,1.9,4.6,4.4,5.9,7.4c2,0.4,4.1,0.7,6.1,1.2c4.9,1.3,8.4,4.1,10.2,8.9
		c1.4,3.9,4,7.1,7.2,9.8c2.2,1.9,4.4,3.8,6.6,5.6c2.8,2.3,5,5,6.2,8.4c1.5,3.9,3.8,6.9,7.4,9.1c1.3,0.8,2.4,1.8,3.5,2.9
		c2.2,2.1,3.6,4.7,3.6,7.8c0,2,0.9,3.2,2.8,3.9c4.5,1.6,9,3.3,13.5,5c0.7,0.3,1.4,0.5,2,0.7c3,1.1,4.6,3.3,5,6.4
		c0.1,0.9,0.3,1.9,0.5,2.9c2.7,0,5.3,0,7.8,0c2.2,0,4.5,0,6.7,0.1c3.8,0.2,6.6,2.7,6.7,6.5c0.2,5.7,0.1,11.4-0.1,17
		c0,1.3-0.9,2.7-1.7,3.8c-0.6,0.9-0.9,1.6-0.6,2.6c1,3.1,0.1,5.8-1.9,8.3c-2,2.5-3,5.5-2.8,8.7c0.1,3.2-0.2,6.1-2.4,8.5
		c0.4,1.1,0.8,2,1.2,3c1.7,4.2,1,6.5-2.6,9.1c-0.3,0.2-0.6,0.5-1,0.8c0.5,3,1.3,6.1,0.1,9.2c0.6,0.5,1.2,1,1.7,1.4
		c2.4,1.8,3.7,4.2,3.9,7.1c0.2,3.8,0.2,7.5,0.5,11.3c0.2,3.5-1.5,5.8-4.5,7.2c-1.1,0.6-2.3,1-3.4,1.7c-2,1.3-2.2,2.1-0.9,4.1
		c0.8,1.2,1.7,2.4,2.3,3.7c1.8,4,1.1,7.7-2,10.7c-0.5,0.4-1,0.8-1.6,1.2c1.5,2.9,3.4,5,5.5,7c0.6-0.7,1.1-1.2,1.6-1.7
		c3.3-4.3,7.7-7,12.9-8.3c2.3-0.5,3.4-1.6,3.9-3.8c0.4-1.8,1.2-3.5,1.9-5.2c1.9-4.2,5.3-6,9.8-6c4.6,0,8,1.9,10,6.1
		c0.5,1,0.8,2.1,1,3.2c0.4,1.8,1.4,3,3.1,3.6c0.9,0.3,1.8,0.7,2.6,1.2c1.7,1,2.6,2.6,2.9,4.5c0.2,1.2,0.8,1.8,2,2.3
		c3.7,1.4,5.3,4.6,4.4,8.5c-1.3,5.8-0.8,11.5,1.5,16.9c3.4,8.1,8.1,15.4,13.5,22.3c0.9,1.2,2.2,2.1,3.4,2.9
		c4.3,2.7,6.4,6.6,6.4,11.6c0,2.3-0.1,4.7-0.6,6.9c-0.5,1.9-1.7,3.7-2.8,6c0.6,1.7,1.9,3.7,3.8,5.6c0.8-0.4,1.7-0.8,2.5-1.3
		c3.4-1.7,6.8-1.7,10,0.5c0.1,0.1,0.3,0.2,0.4,0.3c8.7,5.5,9.1,6,13.3,15.4c1.4,3.1,2.7,6.2,3.9,9.3c2.2,5.7,2.9,11.4,1.3,17.4
		c-0.6,2.4-0.4,2.7,2.4,4c0.4-1.5,0.8-3.1,1.3-4.6c0.5-1.3,1-2.7,1.9-3.8c1.2-1.7,3.1-2.2,5.1-2.1c4,0.2,8,0.4,12,0.8
		c4.4,0.4,8.7,1.1,13.1,1.6c0.5,0.1,0.9,0,1.6,0c0.2-0.9,0.4-1.7,0.5-2.6c0.3-2.2,1.3-4.1,3.1-5.5c0.6-0.4,1.1-0.9,1.6-1.4
		c3.6-4.1,8.1-4.7,13.1-3.6c2.5,0.5,4.7,1.6,6.6,3.2c1.8,1.5,3.6,1.6,5.8,0.9c2.5-0.8,5.1-1.5,7.7-1.8c4.4-0.5,8.6,0,12.2,3.3
		c2.4-1.9,4.6-3.8,7.8-4.1c2.9-0.2,5.7-0.4,8.8-0.7c0.3-2.1,0.7-4.1,0.9-6.2c0.5-5.1,2.8-8.9,7.4-11.3c0.8-0.4,1.5-1,2.1-1.6
		c2.9-2.6,7.3-2.6,10,0.2c4.3,4.5,8.4,9,12.6,13.5c2,2.2,3.2,4.8,3,7.8c-0.1,1.1,0.3,1.9,1.1,2.5c1.2,1,2.3,2.2,3.6,3.1
		c5.5,4,7.7,9.6,7.7,16.2c0,9.8-0.1,19.5-0.1,29.3c0,25.4-0.1,50.7-0.1,76.1c0,8.3,0.1,16.6,0,25c0,1.4-0.6,2.8-1.1,4.1
		c-0.4,1-0.6,1.8-0.2,2.7c0.9,1.8,0.9,3.7,0.7,5.6c-0.1,1.2-0.1,2.4-0.1,3.6c0,36.6,0,73.1,0,109.7c0,1.3,0,2.6-0.3,3.8
		c-0.7,3.2-2.9,5-6.2,5c-5.3,0.1-10.6-0.1-15.8,0.1c-3.6,0.1-6.5-0.9-8.3-5.1c-0.6,0.9-0.8,1.5-1.3,1.9c-1.5,1.6-3.4,2.4-5.5,2.6
		c-0.8,0.1-1.6,0.1-2.4,0.1c-18.6,0-37.1,0.1-55.7,0.1c-23.7,0-47.4,0-71,0.1c-5,0-10.1,0-15.1,0.1c-0.7,0-1.4,0-2.4,0
		c-0.1,1.1-0.2,2-0.2,2.9c-0.4,5.9-0.9,11.8-2.4,17.6c-1.1,4-2.6,7.9-5,11.4c-1.9,2.7-4.1,5.1-7,6.8c-5.4,3-11.3,2.5-16.1-1.3
		c-2.9-2.4-4.9-5.4-6.5-8.8c-2.2-4.8-3.1-9.9-3.8-15.1c-1.1-9-1.3-18-1-27.1c0.3-8,1.3-15.9,3.8-23.6c1.7-5.2,4.1-9.9,8.1-13.7
		c1.5-1.4,3.2-2.7,5.1-3.5c5.5-2.7,10.7-1.8,15.4,2.1c2.8,2.3,4.5,5.3,6,8.6c2.2,5.1,2.9,10.4,3.3,15.9c0.3,4.5,0.5,8.9,0.7,13.4
		c1.8,0.6,134.9,0.7,139.8,0.2c0.5-2,1-4.1,1.7-6.1c1.8-5.8,7.9-9.3,13.8-8c5.8,1.3,9.6,5.3,10.6,11.3c0.2,1,0.3,2,0.5,3.2
		c0.7,0,1.4,0,2.3,0c0-0.9,0-1.7,0-2.5c0-34.5,0-69,0-103.4c0-2.3-0.5-4.4-1.7-6.4c-2.5-4.1-4.9-8.3-7.3-12.4
		c-0.6-1-1.2-2.1-1.7-3.2c-1.3-2.7-1.4-5.3,0.6-7.6c2.1-2.4,4.8-3.1,7.8-2.4c0.8,0.2,1.5,0.5,2.5,0.8c0-1.1,0.1-2,0.1-2.9
		c0-33,0-66.1,0-99.1c0-3.8,0.1-7.5,0.3-11.3c0.1-2-0.4-3.5-2-4.8c-2.1-1.7-4-3.7-6-5.5c-2.7-2.5-4.5-5.4-4.4-9.2
		c0-0.8-0.2-1.7-0.6-2.2c-1.9-2.2-3.9-4.3-6.3-6.9c-0.2,1.9-0.4,3.2-0.6,4.5c-0.3,2.6-0.5,5.3-0.9,7.9c-0.6,3.3-2.7,5.2-6,5.6
		c-2.7,0.3-5.4,0.6-8.1,0.4c-4-0.2-7.4,0.9-10.2,3.7c-1.7,1.7-3.7,2.8-6.2,2.9c-3.3,0.1-5.9-1.3-7.9-3.8c-1.1-1.4-2.2-1.8-3.9-1.3
		c-1.9,0.6-3.9,0.8-5.8,1.4c-5,1.4-9.5,0.5-13.7-2.3c-1.1-0.7-2.4-1.2-3.7-1.9c-0.4,2-0.8,3.6-1.2,5.2c-0.3,1-0.6,2-0.9,3
		c-1.6,3.9-4.5,6-8.7,5.9c-2.9-0.1-5.8-0.7-8.8-1c-4.6-0.6-9.2-1.1-13.8-1.6c-0.9-0.1-1.7,0-2.8,0c-0.5,1.3-1,2.4-1.5,3.6
		c-1,2.5-1.8,4.9-2.9,7.4c-1.4,3.2-3.6,4.5-7.1,3.8c-1.3-0.3-2.7-0.7-3.7-1.5c-3.7-2.8-7.2-5.8-10.9-8.7c-4.6-3.5-5.7-8.1-4.1-13.5
		c1.3-4.5,0.8-8.8-1.1-13.1c-1.5-3.4-2.9-6.9-4.3-10.4c-0.8-1.8-2-3.2-3.7-4.3c-0.9-0.6-1.6-0.6-2.4,0.1c-0.5,0.4-1,0.8-1.5,1.2
		c-2.9,2.1-5.6,2.3-8.7,0.4c-4.2-2.6-7.7-6.1-10-10.4c-2-3.8-3.7-7.8-5.5-11.7c-0.2-0.5-0.3-1.1-0.5-1.6c-1.1-3.6-0.4-6.6,2.8-8.8
		c0.4-0.3,0.7-0.6,1.3-1c-0.6-0.7-1.1-1.4-1.7-2c-6.7-7.3-11.8-15.5-16.2-24.3c-3.2-6.4-5.3-13.2-5.5-20.5c0-0.3-0.1-0.6-0.2-1.1
		c-0.5-0.1-1-0.3-1.5-0.5c-0.9-0.3-1.9-0.4-2.8-0.8c-3.1-1.2-4.6-3.6-4.4-6.9c0-0.5,0.1-1,0.2-1.4c0.5-1.7,0.1-3.1-1.6-4.3
		c-0.2,0.5-0.5,0.9-0.7,1.4c-1.1,3.2-3.4,4.6-6.7,4.9c-1.8,0.2-3.6,0.5-5.4,0.9c-2.6,0.6-4.6,2.1-5.9,4.5c-0.6,1-1.2,2.1-2,3
		c-3.7,4.8-9.2,6.1-14.5,3c-2.9-1.7-5.6-4-8.1-6.4c-3.4-3.3-6-7.2-7.5-11.8c-1.5-4.5-1.4-8.7,2.5-12.3c-2.3-4.1-2.5-8.5-1-12.9
		c1.5-4.5,4.8-7.2,8.6-9.6c0.4-2.5,0-4.7-2.1-6.5c-1.5-1.4-2.9-3-4.2-4.6c-2.4-3-2.5-5.7-0.2-8.8c0.9-1.2,1.1-2.4,0.5-3.8
		c-1-2.7-2-5.4-2.9-8.1c-1.5-4.3-0.4-6.9,3.5-9.2c0.6-0.4,1.2-1,1.6-1.6c0.8-1.3,1.6-2.6,2.3-4c0.4-0.7,0.7-1.5,0.7-2.3
		c-0.2-4.2,0.9-8.1,3.2-11.7c-0.5-0.9-1-1.8-1.5-2.7c-0.6-1.1-1.3-2.2-1.7-3.4c-1.1-3.4,0.2-6.6,3.3-8.4c1-0.6,2.1-1.1,3.2-1.6
		c0-1.1,0-2.1,0-3.4c-1,0-2,0-2.9,0c-3.3,0.1-6.6,0.2-9.8,0.4c-3.9,0.2-6.4-1.5-7.4-5.3c-0.5-2-0.7-4.1-1.1-6.2
		c-3.8-1.5-7.6-3-11.3-4.6c-2.6-1.1-5.2-2.4-7.8-3.7c-4-2.1-5.6-5.7-5.1-10c0.2-1.9-0.4-2.8-1.9-3.6c-4.9-2.6-8.5-6.4-10.2-11.9
		c-1-3.2-3.1-5.7-5.9-7.6c-3.9-2.7-7.5-5.8-10.3-9.6c-1.6-2.2-2.9-4.6-4.1-7c-0.7-1.4-1.5-2.3-3.1-2.6c-2.5-0.5-5-1.2-7.4-1.9
		c-3.1-0.9-5.2-2.6-5.9-5.9c-0.4-1.9-1.6-3.1-3.4-3.8c-1.6-0.6-3.1-1.2-4.7-1.8c-2.6-1-4.8-2.5-6.7-4.5c-3.9-4-3.5-8.8,1-12
		C334.7,200.3,334.9,200.1,335.3,199.8z M519.4,802.8c-0.3-9.8-0.2-17.2-1.5-24.4c-0.6-3.7-1.8-7.3-4.2-10.4
		c-2.7-3.6-6.3-4.2-9.7-1.2c-1.7,1.5-3.3,3.3-4.4,5.3c-1.4,2.6-2.4,5.4-3.3,8.2c-1.9,6.2-2.4,12.7-2.7,19.2c-0.6,10.4,0,20.8,1.8,31
		c0.7,4.1,2,8.1,4.8,11.4c3,3.6,6.7,3.9,10.2,0.7c2.1-1.9,3.5-4.3,4.6-6.9c1.7-3.9,2.6-7.9,2.9-12.1
		C518.5,815.8,519,808.1,519.4,802.8z"/>
	<path d="M407.3,827.2c-10,0-19.7,0-29.7,0c-0.4,3.1-1,6.3-1.3,9.4c-0.5,4.8-0.7,9.6-1.1,14.3c-0.2,2.5-1.9,4.3-4.2,4.3
		c-2.2,0-4.1-1.9-4.1-4.4c0.1-4,0.3-8,0.8-12c1.6-13.4,3.6-26.8,6.7-39.9c1.8-7.8,3.8-15.5,6.6-23c1.4-3.6,2.9-7.1,5.3-10.2
		c1.1-1.4,2.3-2.7,3.7-3.6c2.9-2,6-1.8,8.9,0.3c2,1.5,3.5,3.5,4.6,5.7c2.4,4.8,4,9.9,5.2,15.1c3.5,14.5,6,29.1,6.8,44
		c0.4,7.3,0.4,14.7,0.6,22c0,0.9,0,1.8-0.2,2.6c-0.4,2-2.1,3.4-4.1,3.4c-2,0-3.8-1.7-4-3.7c-0.1-0.6,0-1.1,0-1.7
		c-0.2-7-0.3-14.1-0.5-21.1C407.5,828.4,407.4,827.9,407.3,827.2z M379,818.7c9.4,0,18.4,0,27.4,0c0-0.7,0.1-1.4,0-2
		c-1.3-11.1-3.1-22.1-6.1-33c-1-3.8-2.5-7.6-3.9-11.3c-0.4-1.2-1.1-2.3-2.5-3c-0.9,1.3-1.8,2.4-2.4,3.6c-1.5,3.3-3,6.5-4.2,9.9
		c-3.1,9.4-5.4,19.1-7.2,28.8C379.8,813.9,379.5,816.1,379,818.7z"/>
	<path d="M437.3,810.8c8.3,0,16.3,0,24.4,0c0.1-0.8,0.3-1.4,0.3-2c0.4-9.3,0.7-18.7,1.2-28c0.3-6.3,0.7-12.6,1.1-18.9
		c0-0.7,0.1-1.4,0.3-2.1c0.5-2.1,2.1-3.3,4.1-3.2c2.1,0.1,3.7,1.7,4,3.8c0,0.5,0,1,0,1.4c-0.6,9.3-1.3,18.5-1.6,27.8
		c-0.5,13.8-0.8,27.6-1,41.5c-0.1,5.4,0.2,10.9,0.3,16.3c0,0.6,0,1.3,0,1.9c-0.1,2.5-1.6,4.1-4,4.2c-2.1,0.1-4.3-1.9-4.3-4
		c-0.1-5.5-0.3-11-0.4-16.5c-0.1-3.9,0-7.8,0-11.8c0-0.5,0-1.1-0.1-1.8c-8.2,0-16.2,0-24.4,0c0,2.6-0.2,4.9-0.1,7.3
		c0.1,7.8,0.2,15.5,0.3,23.3c0,1.5-0.1,2.9-1.4,3.9c-1.3,1-2.7,1.4-4.3,0.7c-1.6-0.7-2.5-2-2.6-3.7c-0.1-3-0.2-6.1-0.2-9.1
		c-0.5-19.8,0.3-39.6,1.2-59.4c0.3-6.5,0.8-13.1,1.3-19.6c0-0.4,0-0.8,0.1-1.2c0.4-2.2,2.2-3.6,4.3-3.4c2.2,0.1,3.9,1.8,3.9,4.1
		c-0.1,3.8-0.4,7.7-0.6,11.5c-0.5,9.2-0.9,18.4-1.3,27.5C437.6,804.3,437.5,807.4,437.3,810.8z"/>
	<path d="M311.5,814.9c0.7-15,1.4-28.9,2.1-42.8c0.1-1.9,0.2-3.8,0.4-5.7c0.2-2.5,1.2-3.8,3.7-4.3c5.3-1.1,10.6-1.2,15.9,0.4
		c6.3,1.8,11,5.6,14.5,11.1c3.7,5.7,5.5,12.1,6.1,18.8c1.3,14.7-1.4,28.7-8.2,41.8c-3,5.8-6.8,11-12.1,15c-4.7,3.6-10,5.6-16,5.3
		c-0.6,0-1.3,0-1.9-0.2c-2.7-0.5-4-1.7-4.1-4.5c-0.2-3.9-0.3-7.8-0.3-11.7C311.4,830,311.5,821.9,311.5,814.9z M319.9,846
		c1.2-0.2,2.1-0.3,2.9-0.5c2.8-0.8,5.3-2.3,7.4-4.2c3.2-2.8,5.7-6.2,7.8-10c5-9.1,7.5-19,8-29.3c0.3-6.3-0.2-12.5-2.3-18.4
		c-1.3-3.8-3.3-7.1-6.4-9.7c-4.4-3.7-9.6-4.7-15.3-3.9C320.4,795.3,319.3,820.5,319.9,846z"/>
</g>
</svg>
