<?xml version="1.0" encoding="utf-8"?>
<!-- Generator: Adobe Illustrator 23.0.4, SVG Export Plug-In . SVG Version: 6.00 Build 0)  -->
<svg version="1.1" id="Layer_1" xmlns="http://www.w3.org/2000/svg" xmlns:xlink="http://www.w3.org/1999/xlink" x="0px" y="0px"
	 viewBox="0 0 864 864" style="enable-background:new 0 0 864 864;" xml:space="preserve">
<g>
	<path d="M573.8,64.1c0.8,4.1,1.2,7.5,0.6,11.1c-0.9,5.2-3.3,9.3-8.1,11.7c-4.7,2.4-10.1,1.5-13.6-2.4c-1.2-1.4-2.3-3.1-3-4.9
		c-1.6-4.1-1.8-8.4-0.8-12.7c0.4-1.9,1.2-3.6,2.7-5c1.3-1.2,3.1-1.4,4.4-0.4c1.3,1,1.6,3,0.6,4.5c-2.7,4.3-2.2,8.7,0.1,12.9
		c1.6,3,5,3.4,7.7,1.6c2.9-2,3.7-5.7,3.8-9c0-2.4-0.2-4.9-1.5-6.9c-1.1-1.6-2.7-2.8-4.3-3.9c-10-7.1-16.3-18.7-9-30.5
		c2.3-3.6,5.5-5.7,9.8-6.1c5.4-0.6,10,2.3,11.7,7.5c1.2,3.6,1.2,7.2,0.5,10.9c-0.4,1.9-1.8,2.9-3.6,2.7c-1.8-0.2-2.8-1.6-2.8-3.6
		c0.1-1.4,0.2-2.9,0.2-4.3c0-0.8,0-1.6-0.2-2.4c-0.4-1.9-1.1-3.7-3.1-4.2c-2.1-0.6-4.1-0.2-5.8,1.4c-0.5,0.4-0.9,0.9-1.2,1.5
		c-2.5,4.6-3.9,12.3,1.9,17.4c2.7,2.3,5.6,4.5,8.5,6.7c0.5,0.4,1.3,0.4,2,0.4c7.7,0,15.4,0,23,0c0.6,0,1.3,0,1.9,0
		c2.6,0.3,4.5,2,4.6,4.7c0.1,1.3-0.1,2.6-0.5,3.8c-2.5,7.1-3.2,14.5-3.4,21.9c-0.1,2.2,0.1,4.3,0.3,6.5c0.6,5.9,3.3,11,7,15.5
		c5.6,6.8,9.6,14.3,12.6,22.5c1.9,5.4,4.2,10.7,6.5,16c3.4,8.1,4.3,16.4,3.7,25.1c-0.5,8.4-0.4,16.9-0.5,25.4c0,1.2,0.1,2.4,0.1,3.6
		c0,88.6,0,177.3,0,265.9c0,7.7-0.7,15.3-2,22.9c-0.7,3.8-1.2,7.6-1.6,11.4c-0.4,3.6,0.5,7,1.1,10.5c0.4,2.3,0.7,4.6,0.8,6.9
		c0.1,5-1.9,9.2-5.6,12.5c-0.6,0.5-1.2,1.1-1.9,1.5c-3.7,2.4-3.9,4.8-1.8,8.6c0.9,1.7,2.1,3.2,3.4,4.6c1.7,2,3.6,3.8,5.4,5.8
		c5.8,6.4,8.1,14,7.4,22.6c-0.6,8.4-3.3,16.1-7.1,23.5c-7.2,13.8-14.6,27.5-22,41.3c-1,1.9-2.3,3.6-3.5,5.4
		c-2.2,3.3-5.2,5.8-8.7,7.7c-2.6,1.3-5.1,2.7-7.7,3.9c-6.1,3.1-9.2,8-9.2,14.8c0,4.9,0.4,9.7,0.6,14.6c0.2,5.5-0.5,10.9-2.9,15.9
		c-0.4,0.9-0.3,1.6,0.1,2.5c3.6,7.8,2.7,15.2-2.1,22.3c-2.1,3.1-4.1,6.3-6.1,9.5c-0.8,1.4-0.9,2.9-0.3,4.4c0.3,0.9,0.9,1.4,2,1.3
		c3.5-0.5,5.8,1.4,7.4,4.2c1.8,3.1,1.8,6.4,0.5,9.7c-1.8,4.3-5.1,7.1-9.2,9c-4.3,1.9-8.8,2.9-13.3,3.8c-4.3,0.8-8.7,1.5-13,2.4
		c-4.8,1-9.3,3-12.9,6.5c-1.5,1.5-2.8,3.3-3.8,5.2c-1.6,3-1.3,6,0.4,8.9c1,1.6,2,3.1,2.8,4.8c3.4,6.9,1.2,13.5-5.7,16.9
		c-3.9,1.9-8,2.3-12.1,1.5c-6-1.1-11.7-3.3-17.3-5.7c-4.6-1.9-9.1-3.8-14-4.8c-6-1.3-11.4-0.2-16.3,3.6c-2.9,2.3-4.2,5.1-3.4,8.8
		c0.4,2,0.5,4.1,0.6,6.2c0.1,7.3-6.7,12.2-13.7,9.9c-2-0.7-3.8-1.6-5.7-2.4c-4.6,3.8-7.4,3.6-11.8-0.2c-9.6-8.4-14.8-19.1-16.7-31.5
		c-1.4-8.8-1.1-17.7-0.7-26.6c0.3-7.1,0.5-14.2-0.2-21.3c-0.8-8.4-3.6-16.1-9.3-22.4c-3-3.3-6.1-6.6-9.2-9.8
		c-4-4.1-8.5-7.5-13.5-10.2c-3.1-1.7-6.5-2.7-10.1-2.7c-4.4,0-6.7-1.9-7.5-6.2c-0.8-4.8-3.2-8.2-7.1-10.9
		c-4.9-3.3-9.7-6.7-14.6-10.1c-3.7-2.5-7-5.5-9.9-9c-5.1-6.1-7.4-13.1-7.2-21.1c0.2-5.6,1.3-10.9,2.8-16.3
		c4.8-17.1,9.6-34.1,14.4-51.2c0.7-2.4,1.2-4.8,1.5-7.3c0.8-5.9-1.7-9.9-7.3-11.9c-3.5-1.2-7-1.4-10.6-0.3
		c-3.8,1.2-7.3,2.8-10.4,5.3c-2.8,2.2-5.5,4.4-8.2,6.7c-0.7,0.6-1.3,1.2-2,1.7c-3.2,2.3-6.6,2.1-9.4-0.6c-2.4-2.4-4.3-5.2-5.7-8.2
		c-2.7-5.8-3.8-12-4.3-18.3c-0.5-5.8-0.8-11.6-1.3-17.5c-0.7-7.8-4.1-14.4-9.7-19.8c-5.2-4.9-10.4-9.7-15.9-14.2
		c-15.9-13.1-30.2-27.6-41.9-44.7c-8.8-12.8-15.6-26.6-19.2-41.8c-2.1-8.7-2.9-17.5-1.7-26.4c0.9-7,3.3-13.3,7.5-19
		c1.6-2.2,3.2-4.4,4.8-6.6c0.7-1,1.3-2,2-3c2.2-3.3,2.4-6.8,0.8-10.5c-0.8-1.8-1.5-3.7-2-5.6c-2-7.5,2-13.6,9.8-14.9
		c2-0.3,4.1-0.5,6.2-0.6c4-0.1,7.3-1.6,10-4.5c1.5-1.7,3-3.4,4.2-5.2c5.7-8.3,10.8-17,14.6-26.4c2.6-6.5,4-13.1,3.2-20.1
		c-0.5-4.7-2.1-9-4.2-13.2c-1.7-3.3-3.4-6.6-4.8-9.9c-2.3-5.4-3.1-11.1-1.5-16.9c1.5-5.3,4.6-9.6,8.7-13.2
		c5.6-4.9,12.3-7.8,19.4-9.5c6.5-1.6,13.1-2.8,19.7-4.3c2.6-0.6,5.1-1.4,7.6-2.3c4.4-1.6,8.2-4.2,11.4-7.7c3.6-3.9,6.9-8,9.6-12.6
		c7.5-12.7,14-25.9,18.9-39.8c1.4-4,2.5-8.1,2.8-12.4c0.1-1.8,0.1-3.7-0.1-5.5c-0.5-5.3-3.5-8.8-8.4-10.7c-1.6-0.6-3.3-1.1-5-1.7
		c-1.7-0.6-3.5-1.2-5.2-1.9c-7.4-3.1-11.7-8.7-12.2-16.6c-0.3-4.6-2.3-7.5-6.2-9.7c-5.7-3.2-9.4-8.4-12.5-13.9
		c-2.4-4.3,1.4-10.1,6.4-9.6c11.8,1.2,23.7,0.3,35.5,0.7c0.3,0,0.6-0.1,1.3-0.1c0.4-9.1,0.9-18.3,1.3-27.6c-0.8-0.1-1.5-0.1-2.2-0.2
		c-2-0.3-3.1-1.5-3.1-3.3c0-1.7,1.3-3,3.3-3.1c1.8-0.1,3.7,0,5.5,0c2.1,0,4.2-0.1,6.2,0c2.1,0,3.4,1.4,3.5,3.2
		c0,1.8-1.3,3.1-3.4,3.2c-0.9,0-1.9,0-3.1,0c-1.4,17.1-1.8,34-1.5,51.2c1.2,0,2.3,0,3.3,0.1c1.9,0.2,3.1,1.3,3.3,2.9
		c0.2,1.8-1.1,3.3-3.1,3.5c-1.4,0.1-2.9,0.1-4.3,0.1c-3,0-6.1,0-9.1,0c-1.4,0-2.4-0.6-3.1-1.9c-0.6-1.2-0.4-2.3,0.4-3.4
		c0.7-0.9,1.7-1.2,2.7-1.3c1,0,2,0,3.2,0c0-4.9,0-9.6,0-14.5c-6.9,1.5-13.4,3.9-20.7,4.4c0.5,0.5,0.7,0.8,1,1
		c4.4,3.2,6.8,7.5,7.7,12.8c0.2,1.4,0.5,2.8,0.7,4.3c0.5,2.8,2,4.7,4.6,5.7c2.4,0.9,4.8,1.7,7.2,2.6c1.9,0.7,3.8,1.3,5.6,2.2
		c8.5,4.2,12.8,11.2,13.6,20.6c0.7,8.1-1,15.8-3.6,23.3c-4.5,13-10.2,25.5-16.8,37.6c-2.2,4-4.8,7.8-7.4,11.5
		c-8.8,12.4-20.8,20.1-35.8,22.9c-6,1.1-12.1,2.3-18,3.9c-3.2,0.8-6.3,2.3-9.3,3.8c-3.3,1.7-5.6,4.4-7.2,7.8c-1.1,2.4-1.4,5-0.3,7.4
		c1.4,3.3,3,6.5,4.6,9.7c2.1,4,4.2,8.1,5.4,12.5c2,7.6,1.8,15.3-0.2,22.8c-4.4,16.7-12.4,31.6-23.5,44.9c-1.3,1.6-2.8,3-4.4,4.4
		c-4.4,3.7-9.5,5.5-15.2,5.6c-1,0-2,0-3.2,0c0.7,2.1,1.4,3.9,2,5.7c1.9,6.3,1.1,12.4-2.4,17.9c-2,3.1-4.1,6.1-6.1,9.2
		c-1.2,1.8-2.5,3.6-3.6,5.4c-2.3,3.5-3.4,7.4-3.7,11.5c-0.4,6.4,0.2,12.6,1.6,18.8c3.7,16.1,11.1,30.4,20.8,43.6
		c9.3,12.6,20.2,23.5,32,33.7c3.9,3.4,7.9,6.5,11.7,9.9c3.7,3.4,7.4,6.8,10.9,10.5c6.2,6.6,9.8,14.5,11.2,23.5
		c0.7,4.7,1,9.4,1.4,14.1c0.4,4.1,0.5,8.1,1,12.2c0.3,2.3,1.1,4.6,1.9,7.4c1-0.7,1.6-1.1,2.2-1.5c5.1-3.8,10.4-7.2,16.4-9.2
		c8.5-2.9,16.8-2.6,24.8,1.8c9.6,5.3,13.4,14,11.9,24.4c-0.8,5.2-2.3,10.3-3.7,15.4c-4.3,15.2-8.7,30.4-12.9,45.7
		c-1.3,4.7-2.3,9.5-1.9,14.4c0.5,5.7,2.9,10.3,7.4,13.7c3.9,3,8,5.8,12.1,8.7c2.8,2,5.6,4,8.3,6.1c3.8,3.1,6.8,6.8,8.7,11.3
		c0.5,1.1,1.1,1.8,2.4,2.1c6.8,1.3,12.6,4.5,18,8.6c7.6,5.8,14.3,12.5,20.5,19.8c6.4,7.6,9.8,16.6,10.8,26.5
		c1,9.6,0.6,19.2,0.4,28.8c-0.1,6.8-0.2,13.6,1,20.3c0.9,5.2,2.6,10.1,5.2,14.6c0.7,1.2,1.5,2.2,2.4,3.6c1.7-2.1,3.6-3.4,6.2-3.5
		c2.5-0.1,4.3,1.3,6.2,3.4c0.1-1.5,0.2-2.5,0.3-3.5c0.7-5.6,3.7-10,7.8-13.6c5.9-5.1,12.8-7.3,20.6-7.2c6.7,0.1,13.1,1.9,19.3,4.2
		c5.3,2,10.6,4.1,15.9,6.1c2.4,0.9,3.3,0.8,6.3,0.2c-0.4-0.6-0.7-1.2-1.2-1.8c-4.7-6.2-5.5-13.1-2.7-20.2
		c3.8-9.8,10.9-16.3,20.8-19.5c5.3-1.7,10.9-2.6,16.3-3.9c3.4-0.8,6.9-1.6,10.3-2.3c0.3-0.1,0.5-0.2,0.8-0.3
		c-0.7-0.8-1.3-1.5-1.9-2.1c-5.2-5.7-6.2-14.2-2.3-21c1.8-3.1,3.8-6.1,5.8-9.1c1.4-2.2,2.7-4.4,2.9-7c0.1-1.8-0.1-2.6-1.9-3.1
		c-5.2-1.4-5.2-8.9-2.1-11.2c4.9-3.7,5.2-8.8,5-14.2c-0.2-4.6-0.6-9.3-0.7-13.9c0-3.8,0.6-7.5,1.8-11.1c1.8-5.2,4.9-9.3,9.6-12.2
		c2.4-1.5,4.8-2.9,7.3-4.1c5.1-2.4,9.1-6,11.8-10.9c8-14.6,15.9-29.2,22.9-44.3c1.5-3.1,2.7-6.3,3.7-9.6c2.1-6.7,1.5-12.9-3.5-18.4
		c-2.5-2.8-4.9-5.7-7.3-8.6c-2.9-3.5-5.2-7.3-5.8-11.9c-0.8-5.5,0.7-10.3,4.5-14.3c1-1,2-2.1,3.1-3c2.6-2,3.1-4.6,2.5-7.7
		c-1.2-5.5-1.8-11.1-1.2-16.7c0.5-4.3,1.3-8.5,2.1-12.8c1.3-7.7,1.9-15.4,1.6-23.2c-0.2-4.6-0.3-9.1-0.3-13.7
		c0-78.2,0-156.5,0-234.7c0-12.2,0-24.5,0.1-36.7c0-4.2,0.5-8.3,0.5-12.5c0-4.3-1.1-8.4-2.7-12.3c-2.2-5.4-4.3-10.8-6.4-16.3
		c-2.9-7.5-6.7-14.5-11.8-20.7c-5.7-7-8.5-15.1-8.9-24.1c-0.3-6.6,0.1-13.1,1.2-19.6c0.7-4.3-1.1-7.3-5.3-8.6
		C577.8,64.7,575.9,64.5,573.8,64.1z"/>
	<path d="M468.7,80.5c0.4-2,0.8-3.5,1-5.1c0.9-8,1-16.1,0.8-24.2c-0.2-7.6-0.5-15.2-0.8-22.8c0-0.7-0.1-1.5,0.1-2.1
		c0.3-1.5,1.5-2.4,3.1-2.4c1.7,0,2.8,0.8,3.1,2.4c0.2,1.3,0.3,2.7,0.3,4.1c0.2,11.9,0.5,23.8,0.5,35.7c0,4.6-0.8,9.2-1.4,13.8
		c-0.2,1.5-0.8,2.9-1.5,4.3c-2,4-6.4,4.8-9.5,1.4c-1.5-1.6-2.6-3.7-3.4-5.7c-3.3-8.2-5.8-16.8-8.1-25.3c-0.2-0.7-0.4-1.5-1.1-2.2
		c-0.1,0.8-0.2,1.6-0.2,2.4c-0.2,9.3-0.3,18.5-0.5,27.8c0,0.9,0,1.8-0.1,2.6c-0.3,1.8-1.6,2.9-3.3,2.8c-1.7-0.1-3-1.3-3-3.1
		c-0.1-3.8-0.1-7.5,0-11.3c0.5-14.5,1-29.1,1.5-43.6c0-0.6,0.1-1.3,0.2-1.9c0.4-1.8,1.6-2.9,3-3c1.6-0.1,2.8,0.9,3.3,2.9
		c0.7,2.7,1.3,5.4,2,8.1c3.5,12.2,7,24.4,10.5,36.6c0.6,2,1.4,3.9,2.2,5.8C467.8,79.1,468.2,79.6,468.7,80.5z"/>
	<path d="M513.3,52.5c0.1,6.7-0.4,13.4-1.7,19.8c-0.7,3.5-2,6.8-4.1,9.6c-5.6,7.7-14.3,7.2-19.1-1.1c-1.6-2.8-2.5-5.9-3-9.1
		c-1.6-11.2-1.9-22.3,0.7-33.4c0.7-3.2,1.7-6.4,3.8-9c1.2-1.6,2.6-3.3,4.3-4.5c4.5-3.3,9.9-2.6,13.6,1.6c4.7,5.3,4.9,12.6,5.3,19.3
		C513.1,48,513.2,50.3,513.3,52.5z M506.7,54c0.1-3.6,0-7.3-0.3-10.9c-0.2-3.4-0.6-6.9-2.1-10c-1-2-2.9-4.1-5.1-3.6
		c-1,0.2-1.9,0.9-2.6,1.7c-4.4,4.8-5.1,12-5.6,18.1c-0.6,7.9-0.4,16,1.4,23.7c0.5,2,1.1,4.1,2.4,5.8c0.7,0.8,1.5,1.6,2.6,1.8
		c2.1,0.4,4-1.3,5.1-3.1c2.1-3.4,2.8-7.4,3.3-11.4C506.3,62.2,506.6,58.1,506.7,54z"/>
	<path d="M431.2,30.1c-1.2,17.1-1.8,34-1.4,51.2c1.2,0,2.2-0.1,3.3,0c2.1,0.2,3.4,1.5,3.3,3.4c-0.1,1.7-1.3,3.1-3.3,3.1
		c-4.5,0.1-9,0.1-13.4,0.1c-1.9,0-3.2-1.4-3.2-3.2c0-1.8,1.1-3.1,3.1-3.3c1.1-0.1,2.2,0,3.2,0c0.5-17.1,1-34,1.5-51.1
		c-0.6-0.1-1.4-0.1-2.1-0.2c-1.8-0.3-2.9-1.5-2.9-3.2c0-1.7,1.2-3.1,3-3.1c4.2-0.1,8.5-0.1,12.7-0.1c1.7,0,2.7,1.4,2.7,3.1
		c0,1.7-1,2.9-2.6,3.2c-0.6,0.1-1.3,0-1.9,0.1C432.7,30,432.1,30,431.2,30.1z"/>
	<path d="M526.5,81.3c0.5-17.2,1-34.1,1.5-51.2c-0.6,0-1.3-0.1-2-0.2c-1.9-0.3-2.9-1.4-3-3.2c0-1.8,1.1-3.1,3.1-3.3
		c0.8-0.1,1.6,0,2.4,0c3.2,0,6.4-0.1,9.6,0c2.2,0,3.5,1.5,3.3,3.5c-0.1,1.6-1.3,2.7-3,2.9c-1.1,0.1-2.2,0-3.5,0
		c-1.1,17.2-1.9,34.1-1.4,51.3c1.2,0,2.2-0.1,3.2,0c2.2,0.1,3.4,1.3,3.4,3.3c0,1.9-1.2,3.2-3.4,3.2c-4.4,0.1-8.8,0.1-13.2,0.1
		c-1.9,0-3.2-1.3-3.3-3.1c-0.1-1.9,1.1-3.2,3.2-3.4C524.4,81.3,525.5,81.3,526.5,81.3z"/>
	<path d="M359.5,81.5c3.5,0,7,0,10.4,0c1.5,0,3-0.1,4.6,0c2,0.1,3.2,1.3,3.2,3.1c0,1.9-1.2,3.2-3.3,3.3c-5.8,0.2-11.5,0.3-17.3,0.4
		c-2.8,0.1-3.8-0.8-3.9-3.6c-0.2-5.5-0.5-11-0.4-16.5c0.3-11.8,0.9-23.5,1.4-35.2c0.1-1.6,0.2-3.2,0.4-4.8c0.2-2.2,1.5-3.3,3.4-3.2
		c2,0.1,3.1,1.3,3,3.6c-0.2,4.7-0.5,9.4-0.7,14.1c-0.7,12.3-1,24.6-0.8,36.9C359.4,80.2,359.5,80.8,359.5,81.5z"/>
	<path d="M391.4,81.5c3.6,0,7.1,0,10.5,0c1.5,0,3-0.1,4.6,0c2,0.1,3.3,1.3,3.3,3.1c0.1,1.8-1.3,3.2-3.4,3.3
		c-5.8,0.2-11.7,0.3-17.5,0.4c-2.5,0-3.4-0.6-3.6-3.1c-0.3-3.3-0.4-6.7-0.5-10c-0.2-15.4,0.6-30.8,1.6-46.2c0-0.7,0.2-1.4,0.4-2.1
		c0.5-1.4,1.7-2.1,3.2-1.9c1.5,0.1,2.6,1,2.8,2.5c0.1,0.8,0.1,1.6,0,2.4c-1,15.1-1.6,30.3-1.6,45.5
		C391.2,77.4,391.3,79.4,391.4,81.5z"/>
</g>
</svg>
