<?xml version="1.0" encoding="utf-8"?>
<!-- Generator: Adobe Illustrator 23.0.4, SVG Export Plug-In . SVG Version: 6.00 Build 0)  -->
<svg version="1.1" id="Layer_1" xmlns="http://www.w3.org/2000/svg" xmlns:xlink="http://www.w3.org/1999/xlink" x="0px" y="0px"
	 viewBox="0 0 864 864" style="enable-background:new 0 0 864 864;" xml:space="preserve">
<g>
	<path d="M45,189.4c0.5,1.6,1.1,3.2,1.5,4.7c0.8,2.7,1.7,5.4,2.1,8.1c0.7,4.4-0.6,8.4-3.2,12c-0.3,0.4-0.6,0.8-0.9,1.2
		c-1.3,2-1.1,3.5,0.6,5.1c0.7,0.7,1.5,1.2,2.2,1.8c7.9,6.3,11.9,14.7,12.3,24.7c0.2,4.6-1.4,8.5-4.8,11.6c-4,3.5-5.4,8-5.6,13
		c-0.1,2.3-0.5,4.4-1.4,6.5c-1.5,3.3-2,6.9-2.1,10.5c-0.1,2.5-0.2,5-0.8,7.4c-0.9,4.2-3.5,7.5-6.7,10.3c-0.7,0.6-1.3,1.2-2.1,1.9
		c0.5,0.8,1,1.5,1.6,2.1c5.6,6.5,10,13.9,14.5,21.1c2.2,3.5,2.8,7.4,2.7,11.5c-0.1,2.7,0,2.7,2.4,3.6c4.8,1.8,7.3,5.3,7.6,10.3
		c0.2,2.5,0.2,5.1-0.2,7.6c-1.3,8.5,1.1,15.7,7.4,21.5c2.3,2.1,3.5,4.5,3,7.7c-0.4,2.5-1.6,4.5-3.8,5.9c-0.7,0.4-1.3,0.8-2.1,1.4
		c1.7,2.5,3.4,4.8,5,7.1c1.7,2.5,3.9,4.9,4.2,8c0.3,3.2,1.4,5.8,3.9,8c1.6,1.5,3,2.9,5.2,3.6c3.4,0.9,5.9,3,7.7,6.1
		c1,1.8,2.2,3.5,3.4,5.2c2.5,3.7,2.4,7.3,0.1,11c-1.7,2.7-1.7,4,0.1,6.5c1.1,1.5,2.4,3,3.7,4.4c4.2,4.4,4.9,9.8,1.6,14.9
		c-0.6,1-0.9,1.9-0.6,3.1c0.8,3.3,0.3,6.3-1.9,9c-0.5,0.6-1,1.2-0.6,2.2c1.2,3.3,1.1,6.7,0.3,10.2c0,0.1,0,0.3,0,0.6
		c0.6,0.2,1.2,0.5,1.9,0.7c4.2,1.3,7.4,3.9,9.2,7.9c0.8,1.8,2,2.8,3.8,3.2c1.2,0.3,2.4,0.8,3.5,1.4c4,2.1,6.1,5.6,6.5,10
		c0.3,3.2-0.1,6.4-1.5,9.4c-0.9,1.9-1.7,3.8-2.5,5.7c0.2,0.4,0.4,0.8,0.6,1c3.1,3.6,3.9,7.7,3.6,12.3c-0.2,2.7,0,5.4,0,8.4
		c0.7,0.3,1.6,0.6,2.6,1c6.1,2.3,7.7,8.6,3.2,13.5c-0.4,0.4-0.8,0.8-1.2,1.2c-1,0.9-1.3,2-1.1,3.4c0.3,1.9,0.3,4,0.2,5.9
		c-0.1,1.3,0.1,2.3,1.2,3.2c2.3,1.8,3.1,4.4,3.5,7.2c0.6,5.4,1.3,10.8,1.9,16.2c0.4,4-0.1,7.8-1.9,11.4c-0.4,0.7-0.7,1.4-0.9,2.2
		c-1.2,4.4-2.8,8.6-5,12.7c-1.2,2.2-0.8,4.3,0.8,6.2c0.5,0.6,1,1.2,1.6,1.8c3.8,3.4,7.7,6.8,9.6,11.9c5.1,0.2,10,0.4,15,0.4
		c11.6,0.2,23.2,0.4,34.8,0.5c10.4,0,20.8-0.2,31.2-0.3c10.6-0.1,21.1-0.2,31.7-0.3c8.6-0.1,17.3-0.2,25.9-0.2
		c14.4,0.1,28.8,0.2,43.2,0.3c2.9,0,5.7,0.4,8.6,0.6c1,0.1,2,0.1,3.4,0.2c0.8-16.5,1.5-32.8,2.3-49.4c-1.6,0-2.8,0.1-4.1,0
		c-2.6-0.2-3.9-1.7-3.9-4.2c0-2.4,1.5-3.9,4.1-4c3.6-0.1,7.2-0.2,10.8-0.3c1.8,0,3.7-0.1,5.5-0.1c1,0,2.1,0,3.1,0.3
		c2.2,0.6,3.2,2.2,3.1,4.5c-0.2,2.1-1.6,3.6-4,3.7c-1.8,0.1-3.7,0-5.4,0c-1.8,4.2-3.8,69.8-2.5,79.6c1.8,0,3.7,0,5.6,0.1
		c2.9,0.1,4.6,2.2,4.1,4.9c-0.3,1.7-1.4,2.9-3.1,3.2c-1,0.2-2.1,0.2-3.1,0.2c-5.8,0-11.5,0-17.3,0c-0.6,0-1.1,0-1.7-0.1
		c-2.3-0.3-3.6-1.8-3.6-4.1c0-2.4,1.3-4,3.7-4.1c2-0.1,4,0,5.9,0c0.5-1.8,0.6-11.3,0.2-14.6c-0.6-0.1-1.2-0.3-1.8-0.3
		c-7.4-0.2-14.9-0.5-22.3-0.6c-7.5-0.2-15-0.3-22.5-0.3c-10,0-20,0.1-30,0.1c-13.3,0.1-26.6,0.2-39.8,0.3c-18,0.2-36,0.4-54,0.4
		c-8.9,0-17.9-0.6-26.8-0.9c-1.6-0.1-3.2,0-4.8,0c-4.7-0.1-7.8-3.3-7.7-8c0-0.3,0-0.6,0.1-1c0.3-1.5-0.2-2.6-1.4-3.6
		c-1.6-1.3-3.1-2.8-4.6-4.2c-8-7.1-9.1-18.8-4.6-26.7c1.9-3.4,3.4-7,4.1-11c0.1-0.8,0.5-1.5,0.9-2.2c1-1.7,1.3-3.6,1-5.5
		c-0.4-2.5-0.7-4.9-0.9-7.4c-0.1-1.3-0.7-2.3-1.7-3c-4.2-3.1-5.4-7.3-4.8-12.5c0.5-4.5,0.5-9.1,0.6-13.6c0.1-2.4-0.7-4.6-2.2-6.5
		c-1.9-2.4-2.2-5-1.9-7.9c0.3-2.5,0.6-5.1,0.9-7.6c0.1-1.1,0-2-0.9-2.8c-4.1-3.9-4.7-8.8-3.8-13.9c0.3-1.9,1.3-3.8,2-5.6
		c0.4-1,0.9-1.8,1.5-2.8c-2.8-1.3-5.5-2.6-8.3-3.8c-0.8-0.3-1.9-0.2-2.8-0.2c-5.5,0.2-9.8-3.3-10.5-8.7c-0.5-3.7-1.2-7.4-3-10.8
		c-1.2-2.2-1.1-4.7-0.1-7c1-2.2,0.9-4.1-0.2-6.2c-1.7-3.3-1.7-6.6-0.1-9.9c0.6-1.2,0.7-2.3,0.5-3.7c-0.6-3,0.1-5.8,1.9-8.2
		c0.9-1.2,1-2.1,0.1-3.4c-1.9-2.7-3.6-5.5-5.3-8.3c-0.3-0.5-0.7-1.1-1-1.6c-2.2-3.8-2-7.5,0.3-11.1c0.5-0.8,1-1.6,1.6-2.6
		c-1.3-0.4-2.4-0.8-3.5-1.2c-1.4-0.5-2.9-0.9-4.3-1.5c-2.1-0.8-3.5-2.4-4.4-4.5c-0.6-1.4-1.5-2.8-2.5-4c-1.7-2-2.8-4.3-3.2-6.9
		c-0.6-4-2.2-7.7-4.5-11c-1.4-1.9-2.8-3.9-4.1-5.9c-3-5-3.5-10.3-1-15.6c0.6-1.4,0.4-2.3-0.3-3.5c-3.2-5.4-5.5-11.2-5.8-17.6
		c-0.2-3.2,0.1-6.4,0.2-9.8c-0.6-0.3-1.5-0.6-2.4-1c-5.5-2.4-8.3-7.4-7.5-13.4c0.2-1.2,0.2-2.4,0.3-3.6c0.2-2.3-0.5-4.4-1.8-6.4
		c-3.1-4.5-6-9-9.3-13.4c-1.2-1.6-2.7-3.2-4.4-4.3c-5.9-3.9-7.2-10.6-4.6-16.5c1.2-2.9,3.1-5.2,5.6-7c0.6-0.4,1.2-0.8,1.8-1.2
		c2.8-1.9,4.1-4.5,4.2-7.9c0.1-2.9,0-6,0.7-8.8c0.9-3.4,1.7-6.5,0.2-10.1c-1.2-2.8,0.1-5.7,2.2-7.9c1.2-1.3,2.1-2.7,2.5-4.5
		c0.7-2.7,2.3-4.9,4.5-6.6c0.7-0.5,1.4-1.1,2.1-1.6c1-0.7,1.3-1.7,0.8-2.7c-1.3-2.8-2.7-5.6-4.1-8.4c-0.8-1.5-2.3-1.8-4-1.7
		c-2.6,0.2-4.7-0.8-6.5-2.5c-2.1-2-2.9-4.5-1.9-7.2c1-2.8,0.9-5.3-0.7-8c-0.9-1.5-1.4-3.5-1.3-5.2c0.1-3,1.8-5.2,4.7-6.4
		c0.9-0.4,1.8-0.6,2.6-0.9c0.5-1.3,0-2.4-0.5-3.5c-1.5-3.3-3-6.5-4.4-9.9c-1.4-3.3-2.1-6.7-1.2-10.3c1.1-4.6,4.5-7.6,9.3-7.9
		c1.1-0.1,2.2-0.1,3.4-0.1c53.6,0,107.2,0,160.8,0c164.6,0,329.1,0.1,493.7,0.1c1.8,0,3.5-0.1,5.3,0c5.6,0.4,8.8,4.8,7.4,10.2
		c-0.1,0.5-0.3,0.9-0.4,1.4c-1.6,4.3-0.9,8.2,1.8,11.7c2.6,3.4,5.9,6.1,9.6,8.2c5,2.9,8.4,7,10.4,12.4c1,2.9,1.3,5.9,1,9
		c-0.2,2.3-1.1,4.3-2.9,5.9c-1,0.9-2,1.8-3,2.7c-4.9,4.2-7.6,9.6-8.4,15.9c-0.8,5.8,0.1,11.5,1.7,17c2.7,9.4,6.6,18.4,11,27.1
		c3.3,6.5,8.8,9.9,16,10.8c5.1,0.7,10.3,1.3,15.4,2.2c12.3,2.4,19.4,10.5,20.7,23.4c0.4,3.9,0.6,7.8,0.7,11.7
		c0.1,6.3,2.4,11.5,7,15.7c4.8,4.4,9.6,8.9,14.4,13.4c4.1,3.9,7.1,8.6,9.5,13.7c1.5,3.2,3,6.4,4.6,9.5c1.4,2.8,1.8,2.9,5.1,2.8
		c8.5-0.4,15.6,2.5,20.6,9.4c3.9,5.3,4.6,11.3,3.6,17.6c-0.7,4.3-2,8.6-2.6,12.9c-0.8,5.9-1.3,11.8-1.9,17.6c-1,8.6-5.2,15-13,18.9
		c-5.6,2.8-8.7,7.4-9.6,13.5c-0.5,3.5-0.8,7-1.5,10.4c-1.2,6.8-4.2,12.6-10.2,16.3c-1.6,1-3.4,1.9-5.2,2.4c-6.7,2-12.9,5.1-19,8.5
		c-4,2.2-8,4.3-12.2,6.1c-4.8,2-10,2.6-15.2,3.2c-5.4,0.6-10.8,1.2-16.2,2.1c-2.1,0.3-4.2,1.1-6.1,2.1c-5.6,2.8-7.8,8.5-5.6,14.4
		c0.7,1.9,1.7,3.8,2.9,5.5c1.4,2.2,3,4.3,4.7,6.4c6.8,8.2,9.6,17.7,9,28.3c-0.3,5.1-0.8,10.2-1,15.3c-0.2,4.1-1.8,7.4-4.7,10.2
		c-4.7,4.7-8.5,9.9-11,16.1c-1.7,4.3-2.4,8.8-3.1,13.3c-0.3,2.1-0.6,4.1-1.1,6.1c-1.6,6.6-5.5,11.1-12.3,12.7c-3,0.7-6.1,1-9.2,1.4
		c-3.9,0.6-7.9,1.2-12.1,1.8c0.6,2.2,1.2,4.1,1.7,6c1,3.6,2.2,7.2,2.9,10.9c1.5,7.2-0.1,13.7-5.1,19.2c-5.3,5.9-18.3,8.2-26.1,0.4
		c-1.9-1.9-3.6-4.2-4.7-6.6c-1.7-3.6-3.6-6.9-5.8-10.2c-4.9-7-8.1-14.2-17.4-15.5c-25.2-3.3-51.3-2-76.7-2.3c-0.3,0-0.6,0.1-1.2,0.2
		c0,1.5,0,3,0,4.5c0,5.7,0.1,11.4,0.1,17c0,0.8,0,1.6-0.1,2.4c-0.3,2.2-2.2,3.8-4.3,3.7c-2.2-0.1-3.8-1.7-3.9-4.1
		c-0.2-5.3-0.3-10.5-0.4-15.8c0-1.8,0-3.7-0.1-5.5c0-0.9-0.2-1.7-0.4-2.6c-9.8,0-19.5,0-29.4,0c-0.3,1.6-0.6,3.1-0.8,4.7
		c-0.6,5.7-1,11.5-1.6,17.2c-0.1,1-0.2,2.1-0.4,3.1c-0.5,2-2.1,3-4.1,2.9c-2-0.1-3.5-1.4-3.8-3.3c-0.1-0.9,0-1.9,0-2.9
		c0.4-9.7,1.7-19.3,3.3-28.8c1.9-11.8,4.3-23.4,7.6-34.9c1.9-6.5,4.2-12.7,7.8-18.5c0.9-1.5,2-2.9,3.3-4c3.2-2.9,7.4-2.7,10.7,0.1
		c2.2,1.9,3.7,4.4,4.9,7c2.7,5.7,4.3,11.7,5.4,17.8c1.7,9.7,3.2,19.4,4.9,29.1c0.1,0.5,0.3,1.1,0.5,1.7c0.8,0,1.5-0.1,2.2-0.1
		c15.3-1.6,31.1-2.6,46.6-2.9c8.1-0.2,16.3-0.2,24.4,0c6.9,0.1,15.6-1.1,21.7,2.5c7.6,4.4,13.6,10.3,16.5,18.9
		c1.1,3.2,2.4,6.4,3.7,9.6c0.6,1.3,1.4,2.5,2.5,3.5c1.7,1.6,3.5,1,4.3-1.2c0.6-1.5,0.6-3.1,0.2-4.7c-1.3-5-2.5-10.1-3.7-15.1
		c-0.3-1.3-0.5-2.7-0.7-4c-0.6-5.8,1.9-10.3,7.1-13c3.7-1.9,7.7-2.5,11.8-2.9c3.7-0.4,7.5-0.6,11.2-1c2.4-0.2,2.7-0.5,3.1-3
		c0.7-4.4,1.2-8.9,2.4-13.2c2.4-9.5,7.3-17.7,13.7-25c2.3-2.7,3.7-5.5,3.7-9.1c0-3.6,0.5-7.2,0.7-10.8c0.2-5.7-1.6-10.7-4.9-15.2
		c-2.2-3-4.4-5.9-6.5-8.9c-3.7-5.4-5.9-11.3-6-17.9c-0.1-8,3.1-14.6,8.7-20.1c5.6-5.4,12.5-7.9,20-8.8c5.6-0.7,11.1-1.1,16.7-1.9
		c6.8-0.9,13.1-3.4,19-6.9c2.5-1.5,4.9-2.9,7.4-4.4c3.5-2,7.2-3.6,11.1-4.4c4.7-1,7.4-3.9,8.1-8.6c0.7-4.3,1.3-8.5,2.1-12.8
		c1.5-7.9,5.7-14,12.5-18.3c1.6-1,3.2-2.2,4.7-3.3c2.5-1.7,3.9-4,4.4-6.9c0.4-2.5,0.7-5.1,0.8-7.6c0.3-7.1,1.7-14,3.2-20.8
		c0.3-1.3,0.6-2.7,0.7-4c0.3-3-1.1-5.4-4-6.3c-1.6-0.5-3.3-0.6-4.9-0.8c-1.1-0.1-2.2-0.1-3.4,0c-5.2,0.2-9.3-2.1-12.4-6.1
		c-2.9-3.8-5.1-8-6.8-12.4c-2.4-6.1-6.2-11.1-11-15.5c-4.2-3.8-8.3-7.7-12.4-11.7c-5.2-5.1-8.6-11.3-9.6-18.6
		c-0.2-1.7-0.2-3.5-0.3-5.3c-0.3-3.9-0.4-7.8-0.8-11.7c-0.6-5.2-3.5-8.5-8.6-9.6c-3-0.6-6-0.9-9-1.3c-3.6-0.5-7.3-0.8-10.9-1.7
		c-9.2-2.1-16.1-7.3-20.5-15.6c-5-9.4-9.5-19-12.7-29.2c-2.1-6.4-3.3-13-3.6-19.8c-0.4-11.4,3.3-21.3,10.9-29.9
		c1-1.1,1.9-2.2,2.9-3.2c0-0.1,0-0.2,0.1-0.4c-0.4-1.7-1.8-2.8-3.3-3.8c-3.9-2.4-7.4-5.3-10.6-8.6c-4.8-5-8.1-10.7-8.7-17.7
		c0-0.5-0.2-0.9-0.3-1.4c-0.1-0.3-0.1-0.6-0.2-0.9c-0.1-0.1-0.2-0.2-0.2-0.2c-0.1,0-0.1-0.1-0.2-0.1c-0.5-0.1-0.9-0.1-1.4-0.1
		c-213.5,0-427,0-640.6,0C45.7,189.2,45.5,189.3,45,189.4z M518.8,663.2c9.4,0,18.4,0,27.3,0c0-0.3,0.1-0.5,0.1-0.6
		c-1.1-9.5-2.6-19-4.7-28.3c-1.3-5.7-2.8-11.3-5.2-16.7c-0.5-1.2-1-2.5-2.6-2.9c-2.4,2.8-3.8,6.1-5.1,9.5
		c-3.8,9.9-6.1,20.2-8.2,30.5C519.8,657.4,519.3,660.2,518.8,663.2z"/>
	<path d="M453.7,680.8c-1.3,2.7-2.3,4.8-3.4,7c-1.6,3.1-3.6,6.1-6.4,8.3c-5.1,4-10.5,3.3-14.4-1.8c-1-1.4-1.9-3-2.5-4.6
		c-2.4-6.1-3.3-12.5-3.9-19c-0.9-10-0.5-20-0.2-30c0.1-5.6,0.3-11.2,0.8-16.8c0.4-5.2,1.3-10.3,2-15.4c0.1-0.8,0.4-1.6,0.7-2.3
		c1-2.1,2.7-2.9,4.9-2.4c2,0.4,3.2,2,3,4.3c-0.2,2.2-0.9,4.4-1.1,6.6c-0.7,8.1-1.4,16.2-2,24.4c-0.7,10.8-0.4,21.6,0.5,32.3
		c0.4,4.9,1.1,9.7,2.8,14.3c0.5,1.2,1.1,2.3,1.7,3.4c0.6,0.9,1.5,1,2.2,0.3c0.8-0.8,1.6-1.6,2.2-2.5c3-3.9,4.9-8.4,6.3-13.1
		c2.2-7.5,3.7-15.2,3.9-23.1c0-0.9,0.1-1.8,0.3-2.6c0.5-2.5,2-3.7,4.4-3.5c2.2,0.2,3.8,1.7,4,4c0.1,1.5,0.1,3,0.2,4.5
		c0.3,6.6,0.6,13.3,1,19.9c0.3,4.1,1.5,8,3.5,11.6c1,1.9,2.5,3.3,4.5,4.2c1.5,0.7,2.9,0.5,4.3-0.5c1.9-1.4,3.2-3.3,4.1-5.5
		c2.8-6.9,4.6-13.9,5.8-21.2c1.4-9.1,2.1-18.3,2-27.5c-0.1-5.5,0-11-0.1-16.5c-0.1-2.6-0.5-5.2-0.7-7.9c-0.1-1.1-0.3-2.2-0.3-3.3
		c0-2.4,1.4-3.8,3.6-4c2.4-0.2,4,0.9,4.5,3.3c0.5,2.3,0.8,4.7,1,7.1c1.3,17.3,0.5,34.5-2,51.7c-1.3,8.7-3.4,17.1-7.7,24.8
		c-2.3,4.2-5.6,7.5-10.5,8.3c-5.5,0.9-9.9-1.1-13.4-5.2c-2.2-2.6-3.6-5.7-4.7-8.8C454.4,682.8,454.1,682.1,453.7,680.8z"/>
	<path d="M410.4,645.7c0.1,10.4-0.6,21-2.8,31.1c-1.4,6.3-4,12-8.7,16.5c-6.5,6.3-15.3,6.2-21.5-0.3c-1.5-1.5-2.7-3.4-3.7-5.2
		c-2.5-4.4-3.6-9.2-4.4-14.1c-1.9-12.4-1.9-24.8-0.9-37.3c0.6-7,2-13.8,4.7-20.2c2.1-5,5.2-9.3,9.9-12.4c6.1-4,13.4-3.3,18.3,2
		c1.9,2,3.4,4.4,4.7,6.9c3.9,7.2,3.8,16.7,4.2,24.7C410.3,640.2,410.4,643,410.4,645.7z M401.9,643.7c0-1.1,0-2.2-0.1-3.3
		c-0.3-8.9,0.1-19.6-5.3-27.1c-2.9-4.2-6.4-4.6-10.4-1.3c-1.9,1.6-3.4,3.6-4.5,5.8c-1.9,3.9-3.2,8-3.9,12.3
		c-2.5,14.9-2.3,29.7,0.1,44.6c0.8,4.8,2.5,9.3,6,12.8c2.4,2.5,5.5,2.7,8.1,0.4c1.3-1.1,2.4-2.4,3.4-3.7c2.6-3.6,3.8-7.9,4.6-12.2
		C401.5,662.6,402,653.1,401.9,643.7z"/>
</g>
</svg>
