<?xml version="1.0" encoding="utf-8"?>
<!-- Generator: Adobe Illustrator 23.0.4, SVG Export Plug-In . SVG Version: 6.00 Build 0)  -->
<svg version="1.1" id="Layer_1" xmlns="http://www.w3.org/2000/svg" xmlns:xlink="http://www.w3.org/1999/xlink" x="0px" y="0px"
	 viewBox="0 0 864 864" style="enable-background:new 0 0 864 864;" xml:space="preserve">
<g>
	<path d="M798.7,267.1c-0.8,0.4-1.7,0.9-2.5,1.3c-3.7,2-7.4,2.1-11.3,0.5c-4-1.7-8-3.3-12-4.9c-3.1-1.2-5.4-3.2-6.4-6.3
		c-0.9-2.9-3.2-4.3-5.4-5.8c-0.6-0.4-1.4-0.4-2.1-0.4c-1.8-0.1-3.7-0.1-5.5-0.1c-8.6-0.1-17.3-0.1-25.9-0.2
		c-17.9-0.1-35.8-0.1-53.8-0.2c-30.2-0.1-60.5-0.3-90.7-0.4c-18.2,0-36.5,0-54.7,0.1c-26.3,0.1-52.6,0.3-78.9,0.4
		c-15,0.1-29.9,0.1-44.9,0.1c-11.8,0-23.5,0.1-35.3,0.2c-0.7,0-1.4,0.1-2.2,0.1c0.2,2.2,0.3,4.2,0.4,6.3c0.2,5.4-0.9,10.5-4.3,14.9
		c-4,5.1-10.5,7.5-16.2,5.8c-4.4-1.3-7.5-4.3-9.3-8.4c-2.6-5.8-3-11.9-1.4-18.1c0.6-2.1,1.6-4,3.3-5.5c1.5-1.3,3.4-1.4,4.8-0.3
		c1.4,1.1,2,3.5,0.7,4.9c-2,2.3-2.2,4.9-2.3,7.6c-0.1,3.1,0.4,6.1,2,8.8c2.6,4.7,7.5,5.4,11.4,1.7c2.5-2.4,3.7-5.4,3.9-8.8
		c0.1-2.4-0.1-4.8-0.4-7.2c-0.4-2.4-1.6-4.5-3.6-6c-1.6-1.3-3.4-2.4-5-3.8c-2.5-2-5-4-7.2-6.3c-5.2-5.2-6.8-11.6-6.1-18.7
		c0.4-3.8,1.3-7.4,3.2-10.7c3.1-5.6,8-8.5,14.3-8.4c7.8,0.2,11.8,5.2,13.1,11.7c0.7,3.5,0.6,7,0,10.5c-0.4,2.5-2,3.8-4.2,3.6
		c-2-0.2-3.1-1.7-3-4.1c0.1-1.8,0.3-3.7,0.3-5.5c0-1.3-0.2-2.7-0.6-4c-1.3-4.5-4.3-5.4-8.2-4.5c-2.2,0.5-3.9,1.9-5,3.9
		c-2.5,4.7-3.4,9.6-2.1,14.8c0.5,2.1,1.5,4,3,5.7c1,1.1,2.1,2,3,3.1c1.6,1.8,3.6,2.3,6,2.3c26.2-0.1,52.5,0,78.7-0.1
		c14.5,0,29-0.1,43.4-0.2c9.9,0,19.8-0.1,29.8-0.1c16.9-0.1,33.8-0.1,50.6-0.2c12.6,0,25.3-0.1,37.9-0.2c20.7-0.1,41.4-0.1,62.2-0.1
		c13.6,0,27.2,0.1,40.8,0.2c5.2,0,10.4,0,15.6,0.1c14.3,0.1,28.6,0.3,42.9,0.5c3.9,0.1,7.4,1.2,10.4,3.8c1.3,1.1,2.6,2.1,4,3.1
		c1.7,1.3,3.1,2.7,4,4.7c0.6,1.3,1.6,2.1,2.9,2.7c2.3,1,4.7,2.1,6.9,3.3c1.2,0.6,2.1,0.5,3.1-0.3c0.4-0.3,0.8-0.6,1.1-0.9
		c4.4-3.5,9.4-3.8,14.5-2c2.8,1,4.7,3.1,5.7,5.8c0.8,2.1,1.7,4.1,3.1,5.9c1.5,1.8,2,4,2,6.3c-0.1,2.4,0.2,4.7,0.9,7.1
		c1.9,6.8-2.3,12.8-9.5,14.2c-0.9,0.2-1.7,0.3-2.6,0.5c-2,0.4-3.5,1.5-4.7,3.1c-2.6,3.7-5.1,7.3-7.6,11c-2.2,3.3-2.1,5,0.8,7.8
		c1.5,1.5,3.1,2.8,4.7,4.1c2.2,1.8,4.1,3.8,5.4,6.4c0.5,1.1,1.3,1.5,2.4,1.7c1.9,0.3,3.8,0.7,5.6,1.3c5,1.6,7.6,5.8,6.8,10.9
		c-0.1,0.6-0.1,1.1-0.3,1.7c-1,2.3,0.1,4,1.7,5.5c3,2.8,6.4,4.7,10.4,5.6c0.9,0.2,1.7,0.4,2.5,0.7c6.3,1.9,9.1,5.5,9.3,12
		c0,0.6,0,1.1,0,1.7c0,97.1,0,194.2,0,291.4c0,0.7,0,1.4,0,2.2c-0.3,3.8-3,6.5-6.8,6.8c-0.7,0.1-1.4,0-2.2,0
		c-267.9,0-535.8,0-803.7,0c-0.4,0-0.8,0-1.2,0c-4.7-0.1-7.4-2.5-8.1-7.2c-0.1-0.9-0.1-1.8-0.1-2.6c0-136.2,0-272.5,0-408.7
		c0-2,0.4-4.1,0.9-6.1c0.6-2.3,2.2-3.7,4.6-4.1c1.2-0.2,2.4-0.3,3.6-0.3c20.6,0,41.1,0,61.7,0c0.9,0,1.9,0,2.8,0
		c0.1-0.7,0.2-1.1,0.3-1.4c0.5-9.8,1-19.6,1.5-29.5c0-0.6,0-1.1,0.1-1.7c0.4-2,1.8-3.2,3.9-3.1c2.1,0.1,3.4,1.4,3.4,3.5
		c0,2.2-0.2,4.3-0.3,6.5c-0.4,7.2-0.8,14.4-1.2,21.5c0,0.5,0,0.9,0.1,1.6c0.7-0.3,1.3-0.5,1.8-0.8c7.4-4.2,13.3-9.8,17.6-17.2
		c1.5-2.6,2.4-5.4,2.8-8.3c0.1-0.5,0-1,0.2-1.4c0.5-1.9,2.1-3,3.9-2.8c1.9,0.3,3.2,1.6,3.2,3.5c0,2.9-0.7,5.7-1.7,8.4
		c-2.6,6.5-6.8,11.9-12,16.5c-4.3,3.9-8.9,7.2-14.2,9.5c-0.1,0.3-0.2,0.5-0.1,0.6c2.5,7.7,5.7,15.1,11.2,21.3c1,1.1,2.1,2.2,3.3,3.2
		c2.3,1.9,4.8,3.1,7.9,2.6c0.7-0.1,1.6,0,2.3,0.4c1.4,0.7,2.1,2,1.9,3.6c-0.1,1.5-1.1,2.8-2.8,3.2c-2.6,0.8-5.2,0.4-7.8-0.4
		c-3.7-1.3-6.7-3.6-9.4-6.4c-2.9-3-5.2-6.4-7.3-10.1c-0.4-0.7-0.8-1.3-1.6-1.9c0,3.1,0,6.1,0,9.2c0,2.8,0.2,5.6,0.2,8.4
		c0.1,2.6-1.4,4.4-3.6,4.4c-2.1,0-3.6-1.6-3.8-4.1c-0.1-2.6-0.1-5.1-0.1-7.7c0-4.6,0-9.3,0-13.9c0-0.8-0.1-1.6-0.1-2.6
		c-19.2,0-38.3,0-57.5,0c-0.5,1.6-0.7,393.8-0.2,398.8c1.8,0.5,789.8,0.6,792.2,0c0-94.8,0-189.5,0-284.6c-1.1-0.4-2.2-0.9-3.4-1.3
		c-6.6-2.1-12-5.9-16.5-11.1c-2.9-3.3-4.9-6.9-4.5-11.5c0-0.2-0.1-0.5-0.1-0.9c-1.5-0.5-3.1-1.1-4.6-1.6c-3-1.1-5.3-2.9-6.4-6
		c-0.9-2.4-2.4-4.3-4.5-5.8c-2.6-1.9-4.9-4.1-6.8-6.7c-4.1-5.4-4.9-11.3-2.4-17.6c1.7-4.3,4.1-8.2,6.9-11.8
		c3.2-4.1,6.5-8.1,9.8-12.1c0.3-0.4,0.6-0.7,1-1c1.2-1,2.5-1.7,2.7-3.7C799.9,271.4,800.1,269.3,798.7,267.1z"/>
	<path d="M221.4,270c1.8-3.3,2.2-6.7,2.4-10.1c1-12.3,0.7-24.6,0.3-36.9c-0.2-6.3-0.5-12.6-0.7-18.9c0-0.4,0-0.8,0-1.2
		c0.1-2.3,1.4-3.6,3.5-3.7c2.3-0.1,3.6,1.1,3.7,3.4c0.2,3.2,0.4,6.4,0.5,9.6c0.3,10.5,0.6,21.1,0.6,31.6c0,7,0,14.1-1.2,21
		c-0.4,2.7-1.2,5.3-1.9,7.9c-0.2,0.8-0.6,1.5-1,2.2c-2.4,3.8-6.9,4.5-10.3,1.5c-2.2-1.9-3.6-4.3-4.6-6.9c-2.8-8.1-5.5-16.2-8.1-24.3
		c-1.3-4-2.3-8.2-3.4-12.2c-0.2-0.6-0.4-1.2-0.9-1.7c-0.2,3.4-0.4,6.9-0.5,10.3c-0.2,10.9-0.3,21.9-0.5,32.8c0,0.4,0,0.8,0,1.2
		c-0.2,1.9-1.7,3.2-3.6,3.2c-1.8,0-3.4-1.3-3.6-3.2c-0.1-0.6,0-1.3,0-1.9c0.2-12.9,0.3-25.7,0.6-38.6c0.3-9.8,0.9-19.6,1.3-29.4
		c0-0.7,0.1-1.4,0.4-2.1c0.6-1.7,2-2.9,3.5-2.8c1.6,0.1,2.9,1.1,3.4,2.9c0.8,3.1,1.5,6.2,2.3,9.3c4.1,14.8,8.3,29.5,12.5,44.3
		c0.9,3.2,2.2,6.3,3.4,9.5C220.2,267.8,220.9,268.9,221.4,270z"/>
	<path d="M174.6,256.7c-8,0-15.8,0-23.9,0c-0.4,2.7-0.8,5.5-1.1,8.4c-0.3,3.5-0.5,7-0.8,10.5c-0.2,2.5-1.6,4.1-3.8,4.1
		s-3.8-1.8-3.6-4.4c0.4-5.1,0.8-10.2,1.4-15.3c1.5-11.7,3.5-23.4,6.7-34.8c1.5-5.4,2.9-10.8,5.6-15.8c0.9-1.7,1.9-3.3,3.1-4.8
		c3.4-4.2,8.3-4.2,11.7,0c1.5,1.9,2.7,4.2,3.6,6.4c2.6,6.4,3.9,13.2,5.2,19.9c2.1,10.8,3.3,21.8,3.7,32.8c0.1,3.9,0.1,7.8,0,11.8
		c0,0.7-0.2,1.4-0.4,2.1c-0.6,1.4-2.2,2.4-3.6,2.2c-1.6-0.2-3-1.5-3.2-3.1c-0.1-0.7,0-1.4-0.1-2.2c-0.1-5-0.2-10.1-0.3-15.1
		C174.9,258.5,174.7,257.7,174.6,256.7z M174,249c0-0.7,0.1-1.1,0-1.5c-1.3-7.6-2.4-15.1-3.9-22.6c-0.9-4.3-2.4-8.4-3.8-12.6
		c-0.4-1.2-0.9-2.3-2.2-3.1c-0.6,0.9-1.3,1.7-1.7,2.5c-1.1,2.4-2.3,4.8-3.1,7.2c-2.8,8.1-4.7,16.4-6.3,24.8
		c-0.3,1.7-0.6,3.4-0.9,5.2C159.5,249,166.6,249,174,249z"/>
	<path d="M317.8,256.7c-8,0-15.8,0-23.9,0c-0.3,1.6-0.6,3.4-0.8,5.2c-0.5,4.6-0.8,9.2-1.3,13.8c-0.1,0.8-0.3,1.8-0.7,2.5
		c-0.8,1.2-2.1,1.7-3.6,1.4c-1.5-0.3-2.5-1.2-2.8-2.6c-0.2-0.9-0.3-1.9-0.2-2.8c1.5-18.1,4.3-36,9.5-53.5c1.4-4.6,2.9-9.2,5.5-13.3
		c0.9-1.4,1.9-2.8,3.1-3.9c2.9-2.6,6.3-2.6,9.3-0.1c1.7,1.4,2.8,3.2,3.8,5.2c2.3,4.8,3.5,9.9,4.7,15.1c2.9,12.5,4.6,25.2,5.2,38
		c0.2,4.6,0.1,9.3,0.1,13.9c0,0.2,0,0.3,0,0.5c-0.2,2.3-1.8,3.9-3.8,3.9c-2.1-0.1-3.5-1.9-3.6-4.3c-0.1-5.8-0.2-11.7-0.4-17.5
		C318,257.7,317.9,257.4,317.8,256.7z M317.1,249.2c0-1,0-1.7-0.1-2.4c-1-6.2-1.9-12.5-3.2-18.6c-1.1-5.1-2.6-10-4.1-15
		c-0.4-1.4-1.4-2.6-2.3-4.3c-0.8,1.2-1.5,1.9-1.9,2.7c-1.2,2.5-2.5,5-3.3,7.7c-1.8,6-3.4,12-4.9,18c-0.9,3.8-1.6,7.6-2.4,11.8
		C302.5,249.3,309.8,249.1,317.1,249.2z"/>
	<path d="M275,216.7c-0.2,1.7-0.2,3.5-0.5,5.2c-0.4,2.4-2.3,3.6-4.5,3.2c-1.9-0.4-3.1-2.2-2.8-4.4c0.4-2.8,0.6-5.6,0-8.3
		c-1.3-5.7-6.6-7.6-11.2-3.9c-1,0.8-1.8,1.8-2.4,2.9c-2.2,4.3-3,8.9-2,13.7c0.5,2.3,1.4,4.5,3.1,6.1c2.3,2.2,4.7,4.3,7.1,6.4
		c1.3,1.1,2.8,2.1,4.2,3.1c4.5,3.4,7,8,7.4,13.7c0.4,5.4,0.3,10.7-2.5,15.6c-1.6,2.8-3.6,5-6.4,6.7c-7.3,4.3-15.8,2.1-20.1-5.3
		c-1.4-2.4-2.2-5-2.6-7.7c-0.5-3.7-0.6-7.3,0.2-11c0.5-2.2,1.4-4.2,3-5.9c1.7-1.7,3.8-2,5.4-0.7c1.6,1.4,1.6,3.6,0.3,5.6
		c-0.7,1-1.2,2.1-1.5,3.2c-0.9,3.6-0.5,7.2,0.7,10.6c0.3,1,0.8,1.9,1.4,2.8c2.4,3.5,6.4,4.2,9.8,1.7c2.8-2,4.3-4.8,4.8-8
		c0.4-3,0.4-6.1-0.3-9.1c-0.5-2.3-1.7-4.3-3.6-5.8c-1.8-1.4-3.6-2.6-5.4-4c-2.2-1.8-4.4-3.5-6.4-5.5c-5.1-5-7.1-11.3-6.5-18.3
		c0.3-4.3,1.3-8.4,3.5-12.1c3.6-6.1,9.8-8.9,16.7-7.6c4.4,0.9,7.4,3.6,9.2,7.6C274.7,210.3,275.1,213.5,275,216.7z"/>
</g>
</svg>
