<?xml version="1.0" encoding="utf-8"?>
<!-- Generator: Adobe Illustrator 23.0.4, SVG Export Plug-In . SVG Version: 6.00 Build 0)  -->
<svg version="1.1" id="Layer_1" xmlns="http://www.w3.org/2000/svg" xmlns:xlink="http://www.w3.org/1999/xlink" x="0px" y="0px"
	 viewBox="0 0 864 864" style="enable-background:new 0 0 864 864;" xml:space="preserve">
<g>
	<path d="M556.7,222.8c0.2,1.8,0.5,3.6,0.5,5.5c-0.1,2.2-0.3,4.5-0.8,6.6c-0.3,1.6-0.1,2.7,0.9,4c3.2,4,5.6,8.4,6.8,13.4
		c0.4,1.6,0.6,3.3,0.7,5c0.3,6.2-3.8,11-10,11.5c-1.7,0.1-3.5,0.1-5.3-0.1c-5.8-0.8-11.3,0.1-16.5,2.9c-2.6,1.4-5.2,2.8-7.8,4.3
		c-5.8,3.3-11.9,3.9-18.3,2c-2.8-0.8-5.7-1.7-8.5-2.5c-0.4-0.1-0.8-0.2-1.4-0.3c-0.3,1.6-0.5,3-0.7,4.5
		c-1.8,11.2-7.6,19.7-17.8,24.9c-0.5,0.3-1,0.5-1.5,0.8c-2.6,1.2-3.8,3.4-3.8,6.1c-0.1,2.2,0,4.3,0,6.5c-0.1,3.5-0.7,7-2.3,10.2
		c-2.1,4-5.4,6.3-9.7,7c-2.4,0.4-4.8,0.4-7.2,0.4c-3.7-0.1-5.2,0.8-6.6,4.3c-1.1,2.9-1.3,5.9-1.5,8.9c-0.3,3.4-0.5,6.9-1.4,10.2
		c-2.4,8.6-9.3,14-18.2,14.6c-5.7,0.4-11.2-0.3-16.6-2c-5.1-1.5-8.7-4.7-10.8-9.5c-1.4-3.1-2.7-6.3-4-9.5c-0.3-0.8-0.8-1.6-1.3-2.6
		c-2.3,2.4-5.1,3.7-8,4.8c-1.5,0.6-1.8,2-2,3.3c-0.8,4.1-1.6,8.1-2.5,12.2c-0.4,2-0.8,3.9-1.3,5.8c-1,3.7-3.1,6.3-6.7,7.9
		c-2.8,1.2-5.3,3.2-7.9,4.9c-1.6,1.1-3.2,2.1-5.2,2.4c-3.8,0.4-7-0.7-9.1-4c-1.3-1.9-2.4-4-3.4-6c-1.5-3-2.8-6.1-4.3-9.1
		c-0.5-1.2-1.2-2.3-2.7-2.8c-0.4,1-0.9,1.9-1.3,2.8c-2,5.1-5.7,7.9-11.2,8.5c-2.3,0.2-2.4,0.3-2.7,2.5c-0.3,2.2-0.4,4.5-0.9,6.6
		c-0.4,1.9-1.1,3.9-1.9,5.7c-4.4,9.5-15,8.6-20.2,2.6c-1.9-2.3-3.5-4.8-5.2-7.2c-0.8-1.1-1.6-2.2-2.4-3.3c-2.7-3.2-6.1-4.9-10.2-5
		c-1.1,0-2.3-0.1-3.4,0.1c-4.6,0.6-9.1,0.6-13.7-1.2c-0.1,1.4-0.3,2.5-0.4,3.7c-0.2,2.8-1.2,5.3-2.8,7.5c-4.6,6.5-12.8,5.7-16.1-1.5
		c-0.6-1.2-0.8-2.6-1.2-3.9c-0.2-0.7-0.4-1.4-0.7-2.2c-2,0-4,0-6,0c-1.9,0-3.8,0-6,0c0.1,1,0.1,1.8,0.3,2.5
		c1.6,7.9-4.4,15.3-13.4,14.3c-1.7-0.2-3.3-0.5-5-0.7c-2-0.3-2.1-0.2-3.1,1.4c-1,1.7-2,3.3-2.9,5c-1.5,3-1.2,4.7,1.1,7.1
		c1.8,1.8,3.6,3.6,5.3,5.5c2,2.2,3.4,4.8,3.9,7.8c1.1,6.6-2.1,12.3-8.5,14.6c-3.1,1.1-6.4,1.4-9.7,1.3c-3.2-0.1-6.4-0.1-9.6-0.2
		c-2.3-0.1-4.4,0.6-6.3,2c-1.3,0.9-2.6,1.9-3.9,2.8c-3.9,2.8-8,3-12.1,0.3c-0.6-0.4-1.2-0.7-1.8-1c-1.2,1.4-1.5,1.9-0.6,3.4
		c1.2,2,2.6,3.9,4,5.7c2,2.6,4.2,5,6,7.7c2.7,4,4.4,8.3,4.2,13.3c-0.2,4.6-1.6,8.8-4.7,12.3c-3.4,3.9-7.8,5.4-13,4.4
		c-2.3-0.4-4.2-1.7-5.6-3.4c-2.3-2.8-5.3-4.1-8.8-4.2c-7.3-0.3-13.6-3.1-19.4-7.4c-1.7-1.3-3.5-2.6-5.3-3.7
		c-3.9-2.4-7.1-2.2-10.5,0.9c-1.6,1.5-3.2,3.2-4.5,5c-2.4,3.3-4.5,6.8-6.8,10.2c-0.5,0.7-0.7,1.6-1.1,2.4c-0.5,0.9-0.2,1.7,0.5,2.3
		c7.9,6.7,8,20.2,0.8,28.1c-0.3,0.3-0.5,0.6-0.7,1c0.5,1,1.1,2,1.6,3c1.8,3.9,0.9,7-2.7,9.3c-0.4,0.3-0.8,0.5-1.2,0.7
		c-1.5,0.8-1.9,2-1.6,3.6c0.3,1.4,0.6,2.8,0.9,4.2c0.5,2.5,0.5,5.1-0.2,7.6c-1.4,5-5.7,8.3-10.9,8.5c-4,0.2-7.6-0.9-10.7-3.4
		c-0.5-0.4-1-0.8-1.6-1.1c-0.1-0.1-0.3-0.1-0.7-0.2c-0.6,2.7-1.1,5.3-1.8,8.2c45.1,0,90,0,135.1,0c0.1-0.9,0.3-1.8,0.2-2.7
		c-0.4-5-1.2-10-3.2-14.7c0-0.1-0.1-0.1-0.1-0.2c-3-7.8,0.7-14.4,9.1-15.3c5-0.5,10.1-0.5,15.1-0.4c7.3,0.1,14.7,0.6,22,0.9
		c12,0.5,24,0.9,35.9,1.4c1.5,0.1,3,0,4.8,0c0.1-2.1,0.3-4,0.4-6c0.4-7.3,0.8-14.7,1.2-22c0-0.6,0-1.3,0.2-1.9
		c0.5-1.8,2.1-2.8,3.8-2.6c1.9,0.2,3.3,1.5,3.3,3.5c0,2-0.2,4-0.3,6c-0.4,7.1-0.8,14.2-1.2,21.3c0,0.5,0,1,0,1.6
		c0.6-0.2,1.2-0.3,1.6-0.5c7.6-4.3,13.8-10.1,17.9-17.9c1.3-2.5,2-5.2,2.4-8c0.3-2.4,1.9-3.6,4.1-3.3c2,0.3,3.2,1.8,3.1,4.1
		c-0.2,3.4-1.1,6.6-2.6,9.7c-3.1,6.5-7.8,11.7-13.3,16.2c-3.5,2.9-7.3,5.4-11.4,7.1c-0.1,0.3-0.2,0.5-0.2,0.6
		c2.5,7.7,5.7,15.1,11.3,21.2c1.2,1.3,2.7,2.5,4.1,3.6c1.8,1.4,3.9,2,6.3,1.7c0.9-0.1,1.9,0.1,2.7,0.5c1.3,0.7,1.8,2,1.6,3.5
		c-0.1,1.5-1.3,2.9-2.9,3.1c-2,0.2-4.2,0.3-6.2-0.1c-3.6-0.7-6.5-2.9-9.2-5.3c-3.4-3.2-6.1-7-8.4-11c-0.4-0.6-0.7-1.2-1.1-1.8
		c0,0-0.1,0-0.5-0.1c0,3.2,0,6.3,0,9.5c0,2.6,0.2,5.1,0.2,7.7c0,2.9-1.3,4.4-3.6,4.4c-2.1,0-3.7-1.6-3.7-4.2
		c-0.1-6.1-0.1-12.2-0.1-18.2c0-2.8,0-5.6,0-8.7c-8.1-0.4-16.1-0.5-24.1-0.8c-8-0.3-16-0.5-24-0.8c-8.1-0.3-16.1-0.7-24.4-1
		c0.1,1.1,0.1,1.9,0.3,2.7c0.4,2.4,0.9,4.7,1.4,7.1c1.3,6.2,0.9,12.4-0.6,18.5c-0.9,3.6-2.6,5.2-6.3,5.6c-0.8,0.1-1.6,0.1-2.4,0.1
		c-48.5,0-97,0-145.4,0c-1,0-2.1,0-3.1-0.2c-3.7-0.6-5.7-3-5.7-6.8c0-1,0.1-2.1,0.3-3.1c1.4-7,2.8-13.9,4.3-20.9c0.2-1,0.5-2,0.8-3
		c1.1-3.4,3.6-5,7.1-4.9c2.9,0.1,5.6,1.1,8.1,2.6c2.1,1.3,4.2,2.6,6.5,4.1c0.1-0.7,0.2-1.2,0.1-1.7c-0.6-4.6-0.5-9.1,1.5-13.4
		c0.5-1,0.2-1.8-0.3-2.7c-0.6-1.1-1.3-2.3-1.5-3.5c-0.8-3.6,0.5-6.4,3.4-8.6c1.2-0.8,2.4-1.5,3.6-2.4c3.6-2.7,3.8-6.2,0.6-9.4
		c-0.6-0.6-1.3-1.2-1.9-1.8c-3-2.5-4-5.7-3.2-9.5c0.4-1.9,0.9-3.9,1.7-5.7c3.5-8,8.1-15.3,14.4-21.3c3.5-3.4,7.4-6,12.2-7.2
		c5.1-1.2,9.9-0.4,14.3,2.1c2.2,1.2,4.2,2.6,6.2,4.1c4.8,3.8,10.2,5.9,16.3,6.3c5.5,0.3,10.6,1.8,14.4,6.2c1-1.5,0.9-2.8,0.6-4.1
		c-0.6-2.3-1.8-4.2-3.3-6.1c-2.2-2.7-4.4-5.3-6.4-8.1c-2.6-3.5-4.4-7.4-4.5-11.9c-0.2-5.8,2.3-10.4,6.8-13.8c4-3,8.4-3.2,12.9-1.2
		c0.9,0.4,1.8,0.9,2.8,1.4c0.3-0.2,0.6-0.3,0.8-0.5c6.1-4.9,13.2-6.2,20.8-5.4c2.6,0.3,5.2,0.4,8.1-0.5c-1-1.1-1.9-2.1-2.8-3.1
		c-1.1-1.2-2.2-2.4-3.2-3.5c-4.3-4.6-5.3-10.1-3.9-16.1c1.4-6,4.3-11.1,8.6-15.6c2.9-2.9,6.4-4.2,10.4-4c1.5,0.1,3,0.2,4.9,0.3
		c-0.3-1-0.5-1.8-0.7-2.6c-0.9-3.1-1.5-6.2-0.7-9.5c0.6-2.4,1.8-4.4,3.6-6.1c3-2.9,6.3-2.7,9.2-0.8c3.2,2.3,6.7,3.2,10.6,3.1
		c2.4-0.1,4.8,0,7.3,0c0.2-0.8,0.5-1.5,0.7-2.2c1.6-5.1,6-7.9,11.3-7.2c3.2,0.4,6.3,1.4,8.7,3.8c3,3,6.5,3.8,10.6,3.2
		c3.8-0.6,7.6-0.4,11.4,0.7c7,2,12.5,6,16.4,12.1c0.9,1.5,1.9,2.9,3.2,4.8c0.4-2,0.5-3.4,0.9-4.7c0.5-2.1,0.8-4.3,1.6-6.3
		c1.8-4.9,5.3-7.9,10.6-8.6c0.7-0.1,1.4-0.2,2.1-0.4c0.1,0,0.1-0.1,0.4-0.2c0.5-1.2,1.1-2.5,1.7-3.8c4.2-8.5,14.7-10.5,21.7-4
		c2.9,2.7,4.8,6.2,6.6,9.6c1.1,2,2.1,4.1,3.2,6.5c2.1-1.1,4.1-2,5.9-3.2c0.6-0.4,1-1.4,1.1-2.2c1.1-5,2.1-10,3.2-15
		c0.3-1.3,0.6-2.7,0.8-4c1-4.8,1.1-5,5.1-7.5c0-0.2,0.1-0.3,0.1-0.5c-0.6-4.9,1.4-7.9,6.1-9.3c6.8-2,12.7,0.1,18.2,4.2
		c3.1,2.4,5.2,5.6,6.7,9.2c1,2.4,2,4.9,2.7,7.4c0.9,3.3,3,5,6.4,5.2c2.6,0.1,5.3,0.5,7.9,0.5c4.4,0,6.7-1.9,7.4-6.2
		c0.6-3.5,0.7-7.2,1-10.7c0.4-3.7,1.3-7.2,2.8-10.6c3.3-7.3,9.1-10.7,17.1-10.2c1.1,0.1,2.2,0.1,3.4,0c2.3-0.1,3-0.7,3.1-3
		c0.2-2.7,0.3-5.4,0.3-8.1c0.2-7.9,3.7-13.7,10.5-17.7c1.6-0.9,3.2-1.8,4.8-2.7c2.6-1.5,4.6-3.7,5.8-6.5c1.9-4.4,2.9-8.9,1.9-13.8
		c-0.9-4.5,1.2-7.6,5.7-8.8c3.2-0.9,6.5-1,9.7-0.3c3.7,0.8,7.4,1.8,11.1,3c4.5,1.5,8.6,0.9,12.5-2c7.4-5.6,15.9-7.6,25-7.5
		c0.9,0,1.9,0,3.2,0c-0.3-1.1-0.4-2-0.8-2.9c-1.3-2.8-3-5.2-5.3-7.3c-3-2.8-3.6-5.5-1.9-9.3c1-2.2,1.4-4.6,1.2-7
		c-0.1-1.8-0.2-3.5-0.1-5.3c0.1-4.8,2.2-8.6,6-11.5c4.8-3.7,10.2-4.9,16-4.2c9.9,1.2,19.6,2.8,29,6.1c6.7,2.4,12.9,5.6,17.9,10.8
		c3.4,3.5,5.8,7.6,7.8,12c1.3,2.8,2.5,5.5,3.8,8.3c2.3,5,6.3,7.2,11.7,7.2c2.6,0,5.3,0.1,7.9,0.1c6.7,0,12.2,2.8,16.9,7.4
		c2.7,2.7,5.4,5.5,8.2,8.1c1.3,1.3,2.8,2.4,4.3,3.4c2.3,1.6,4.6,1.4,6.9-0.2c1.3-0.9,2.7-1.8,4.2-2.3c4.4-1.7,8.6-1.2,12.7,1.2
		c2.6,1.6,5.2,3.2,7.8,4.8c5.1,3.1,10.1,3.2,15.4,0.3c4.9-2.7,9.1-6.2,13.4-9.7c2.4-1.9,4.7-3.9,7.1-5.7c3.8-2.7,7.9-4.5,12.7-4.5
		c6.7,0,12.1,3.5,14.6,9.8c0.7,1.7,1.2,3.5,1.6,5.3c1,4.3,3.4,7.6,6.8,10.4c3.5,2.9,7.1,5.8,10.1,9.1c7.7,8.4,10.6,18.6,10,29.9
		c-0.2,4.5-1.5,8.8-2.9,13.1c-1.2,4-1.1,7.7,0.6,11.4c6,13.6,13.3,26.4,22.1,38.4c9.8,13.4,20.9,25.6,33.5,36.5
		c1.8,1.5,3.5,3,5.4,4.3c3.7,2.5,3.7,8.2,1.6,10.9c-10.9,14.9-24.3,26.6-41.6,33.6c-5.5,2.2-11,4.4-16.4,6.7
		c-4.1,1.8-7.9,4.2-11.2,7.3c-3.4,3.1-5.7,6.9-6.4,11.5c-0.2,1.2-0.7,2.5-1.2,3.6c-1.3,2.4-3.3,3.7-6,3.6c-0.6,0-1.1,0-2,0
		c-0.3,1.2-0.7,2.4-1,3.6c-0.4,1.6-0.6,3.1-1.1,4.7c-1.7,5.9-5.7,9.3-11.6,10.4c-3.1,0.6-6.2,1-9.4,1.5c-0.1,0.3-0.3,0.7-0.3,1.1
		c-1.7,9-6.5,16.2-12.5,22.8c-6.1,6.8-14,9.5-22.8,10.1c-17.3,1.2-34.5,1.1-51.8,0.9c-9.2-0.1-18.4-0.4-27.8-0.7
		c-0.1,1.6-0.2,3.2-0.2,4.8c0,5.6,0,11.2,0,16.8c0,0.8-0.2,1.6-0.5,2.3c-0.6,1.3-2.1,2-3.6,1.9c-1.5-0.2-2.7-1.1-3-2.6
		c-0.2-0.7-0.2-1.4-0.2-2.1c0.2-10.3,0.4-20.6,0.6-30.9c0-1.7-0.2-3.3-0.9-4.9c-4.3-9.8-8.4-19.7-12.6-29.5
		c-0.3-0.8-0.7-1.6-0.9-2.5c-0.5-2.1,0.5-3.7,2.4-4.3c1.8-0.6,3.5,0.1,4.3,2c1.8,4.1,3.6,8.2,5.3,12.3c2,4.6,3.9,9.1,5.9,13.7
		c0.2,0.5,0.5,1,0.9,1.8c0.5-0.7,0.8-1.2,1.1-1.7c4.7-8.3,9.5-16.7,14.2-25c0.4-0.6,0.7-1.3,1.1-1.8c1.2-1.5,3.1-1.9,4.7-0.9
		c1.6,0.9,2.2,2.8,1.5,4.5c-0.3,0.7-0.7,1.3-1,1.9c-5.2,9.2-10.4,18.3-15.6,27.5c-0.4,0.8-0.8,1.5-1.4,2.5c0.7,0.1,1.2,0.3,1.7,0.3
		c7.9,0.2,15.8,0.4,23.7,0.6c7.2,0.1,14.4,0.2,21.6,0.2c11,0,22.1-0.4,33.1-1.2c4.1-0.3,7.1-2.2,9.7-5.1c1.8-2,3.4-4.2,5-6.4
		c2.1-3,3.2-6.4,3.4-10.1c0.4-5.7,4-9.8,9.7-11c2.4-0.5,4.9-0.7,7.4-1c1-0.1,2.1-0.2,3.1-0.4c2-0.3,3.2-1.4,3.7-3.3
		c0.4-1.4,0.7-2.8,1-4.2c0.9-5.5,3.8-9.6,9-11.9c1-0.5,2-1,2.4-2.2c3.2-7.8,8.9-13.3,15.9-17.8c5.7-3.6,11.8-6.4,18-8.9
		c11-4.5,21.2-10.1,30-18.2c2.5-2.3,4.7-4.8,7.1-7.2c0.5-0.6,1-1.2,1.6-2c-1.5-1.3-2.8-2.5-4.2-3.7c-13-11.4-24.5-24.1-34.5-38.2
		c-9-12.6-16.4-26.1-22.3-40.4c-2.4-5.8-2.6-11.8-0.9-17.8c1-3.6,2.1-7.2,2.5-10.9c1.1-9.3-2.3-16.9-9.2-23.1
		c-2.4-2.2-5-4.3-7.5-6.4c-4.8-4.1-7.9-9.1-9.3-15.3c-0.3-1.2-0.7-2.5-1.2-3.6c-0.9-1.9-2-2.4-3.9-1.6c-1.8,0.8-3.5,1.8-5.1,3
		c-4.4,3.4-8.7,7.1-13.1,10.5c-4.5,3.5-9.6,6.1-15.2,7.3c-7.8,1.8-14.9,0.3-21.3-4.5c-1.4-1.1-2.9-2.1-4.3-3.1
		c-1.7-1.3-3.5-1.3-5.4-0.2c-0.5,0.3-1,0.5-1.4,0.9c-4.2,2.9-8.7,3.4-13.5,2.1c-5.5-1.4-10-4.5-13.9-8.5c-1.8-1.9-3.6-3.8-5.4-5.8
		c-3.3-3.6-7.4-5.4-12.3-5.4c-2.8,0-5.6-0.1-8.4-0.3c-7.9-0.5-14.1-4.1-18.1-10.9c-2.4-4.1-4.6-8.4-6.5-12.8
		c-3.3-7.7-8.9-12.7-16.9-14.8c-7.9-2-15.9-3.7-23.9-5.3c-3-0.6-6.1-0.6-8.8,1.3C557.1,222.4,556.9,222.6,556.7,222.8z"/>
	<path d="M409.5,571.2c1.7-3.1,2-6.3,2.3-9.5c1-12,0.7-24,0.4-35.9c-0.1-6.4-0.5-12.8-0.8-19.2c0-0.5,0-1,0-1.4
		c0.2-2,1.8-3.4,3.7-3.4c1.9,0,3.3,1.2,3.5,3.2c0.3,2.8,0.4,5.6,0.4,8.4c0.3,11.3,0.6,22.5,0.6,33.8c0,7.5-0.1,15-1.7,22.4
		c-0.4,2-1,4.1-2,5.9c-2.3,4.7-7.5,5.3-11.1,1.6c-1.9-2-3.1-4.4-4.1-7c-3.8-9.9-6.8-19.9-9.6-30.1c-0.5-2-1.1-4-2.1-6
		c-0.1,0.5-0.3,1-0.3,1.4c-0.2,13-0.4,26.1-0.7,39.1c0,0.9,0,1.8-0.2,2.6c-0.4,1.8-1.8,2.9-3.6,2.8c-1.8-0.1-3.1-1.2-3.4-3.1
		c-0.1-0.9-0.1-1.8-0.1-2.6c0.1-20,0.5-40,1.6-59.9c0.1-1.9,0.2-3.8,0.3-5.7c0.1-0.9,0.2-1.8,0.5-2.6c0.6-1.7,1.9-2.5,3.4-2.4
		c1.6,0.1,2.8,1,3.3,2.7c0.8,2.9,1.4,5.7,2.1,8.6c4.1,15.8,8.1,31.6,13.4,47c0.7,2.2,1.6,4.4,2.5,6.5
		C408.4,569.3,409,570.2,409.5,571.2z"/>
	<path d="M571.5,558.6c0,0.8,0,1.5,0,2.3c0.1,4.7,0.1,9.4,0.2,14.1c0,0.5,0,1,0,1.4c-0.1,1.8-1.4,3.2-3.2,3.3c-1.8,0.2-3.5-1-4-2.8
		c-0.1-0.6-0.1-1.3-0.1-1.9c-0.5-14.5-0.2-28.9,0.5-43.4c0.4-8.5,0.9-16.9,1.4-25.4c0.2-3.1,2.8-4.6,5.3-3.4c1.5,0.7,2,2,1.9,3.6
		c-0.2,3.6-0.5,7.2-0.7,10.8c-0.3,5.8-0.6,11.6-0.9,17.7c0.7-0.2,1.2-0.3,1.7-0.5c7.5-4.3,13.6-10,17.8-17.6
		c1.2-2.3,2.1-4.7,2.3-7.2c0.1-0.6,0.2-1.3,0.4-1.9c0.6-1.8,1.9-2.7,3.9-2.4c1.8,0.2,3.1,1.3,3,3.1c-0.1,2.2-0.4,4.5-1,6.6
		c-1.6,5.6-4.8,10.4-8.8,14.7c-5,5.3-10.5,9.8-17.2,12.7c-0.1,0.1-0.2,0.2-0.5,0.4c2.8,8.3,6.2,16.4,12.6,22.7
		c0.7,0.7,1.5,1.4,2.4,2c2.1,1.5,4.3,2.5,6.9,2c1.5-0.3,2.7,0.1,3.6,1.4c1.7,2.4,0.3,5.4-2.8,5.9c-3,0.4-5.9,0.1-8.6-1.3
		c-4.4-2.2-7.9-5.5-10.7-9.4c-1.8-2.4-3.3-5.1-5-7.6C571.8,558.6,571.7,558.6,571.5,558.6z"/>
	<path d="M512.7,528.4c-0.1,9-0.5,17.9-1.7,26.8c-0.7,5.3-1.9,10.5-4.7,15.2c-2.1,3.4-4.6,6.3-8.3,8.1c-5.9,2.8-12.2,1.5-16.4-3.6
		c-3.3-3.9-4.8-8.6-5.5-13.6c-1.2-8.3-1.1-16.6-1-24.9c0.1-7.6,0.6-15.2,2-22.7c0.5-2.6,1.2-5.1,1.9-7.7c0.4-1.5,1.5-2.4,3.1-2.6
		c2.7-0.3,4.5,2.1,3.8,4.9c-0.8,3.3-1.8,6.5-2.1,9.8c-0.7,5.8-1.2,11.6-1.4,17.4c-0.3,8.1-0.3,16.2,0.9,24.2
		c0.4,2.9,1.1,5.6,2.5,8.2c3,5.6,7.9,6.2,12.2,1.5c3.2-3.6,4.8-7.9,5.4-12.6c0.8-6.3,1.5-12.7,1.7-19.1c0.2-8.2,0-16.5-0.1-24.7
		c0-2.1-0.4-4.1-0.7-6.2c-0.4-2.4,0.7-4.3,2.9-4.7c2-0.4,3.8,0.8,4.3,3.2c0.4,1.8,0.6,3.6,0.7,5.5
		C512.3,516.7,512.5,522.6,512.7,528.4z"/>
	<path d="M51.6,563.2c-0.2,5.3-1.7,10.1-5.3,14.1c-1.6,1.7-3.5,2.5-5.9,2.7c-4.7,0.3-9.2-0.4-13.8-1.2c-5.5-0.9-9.3-4.1-11.3-9.2
		c-2.2-5.5-2.9-11.1-1-16.8c1.7-5.3,5.3-8.6,10.7-9.9c7.3-1.8,13.9-0.2,19.8,4.3c3.2,2.5,4.8,5.9,5.7,9.7
		C51.1,558.9,51.3,561.1,51.6,563.2z M37.2,566.5c0.1-1.4,0.2-2.5,0.2-3.5c0.1-4.6-3.2-7.7-7.8-7.2c-1.6,0.1-2.8,1.1-2.8,2.7
		c-0.1,1.5,0.1,3,0.3,4.5c0.3,1.6,1.4,2.5,2.9,2.8C32.3,566.1,34.6,566.3,37.2,566.5z"/>
	<path d="M346.4,548.6c0,8.1,0,15.9,0,24.1c3.9,0,7.7,0,11.6,0c2.7,0,5.4,0.1,8.2-0.1c2-0.1,4,1.4,3.9,3.6c0,2.1-1.6,3.6-3.9,3.6
		c-7.7,0.1-15.3,0.1-23,0.2c-2.7,0-3.9-1.2-4-4c-0.1-3.7-0.2-7.3-0.2-11c0.1-11.3,0.2-22.7,0.5-34c0.2-7.3,0.6-14.5,1.1-21.8
		c0.2-4,1.2-4.9,5.2-5c5.7-0.1,11.4-0.1,17-0.1c1.4,0,2.7,0.1,4.1,0c2.7-0.4,4.8,1.4,4.8,3.5c0.1,2.5-1.5,3.8-4.7,3.8
		c-5.4,0-10.9,0-16.3,0c-0.9,0-1.7,0-2.9,0c-0.7,9.9-0.9,19.7-1.2,29.7c2.3,0,4.5,0,6.6,0c1.7,0,3.4-0.1,5,0
		c2.4,0.1,3.8,1.6,3.7,3.8c-0.1,2-1.5,3.4-3.8,3.5c-2.6,0.1-5.3,0-7.9,0.1C348.9,548.3,347.8,548.5,346.4,548.6z"/>
	<path d="M522.1,548.6c0.2-11.8,0.8-21.1,3.5-30.3c1.2-3.8,2.6-7.6,5.3-10.6c4-4.6,9-6.3,14.9-4.6c6.1,1.7,9.6,7.6,8.4,13.8
		c-0.4,2.2-2.3,3.7-4.2,3.4c-2.1-0.3-3.4-2.1-3-4.4c0.3-2.2-0.1-4-2-5.2c-1.9-1.3-3.9-1.1-5.9-0.2c-1.9,0.9-3.1,2.4-4.1,4.2
		c-2.3,4.3-3.4,9-4.1,13.7c-1.6,10.7-2,21.5-0.5,32.2c0.3,2.1,0.9,4.2,1.5,6.3c0.3,1.1,1,2.2,1.7,3.2c1.5,2.1,3.5,2.4,5.7,1.1
		c1.9-1.1,3.1-2.7,3.7-4.8c0.2-0.6,0.3-1.3,0.5-1.9c0.6-1.7,2.2-2.7,3.9-2.4c1.6,0.2,2.9,1.5,3.1,3.2c0.1,0.5,0,1.1-0.1,1.7
		c-0.8,4.3-3.1,7.7-6.6,10.1c-6.1,4.2-13.4,2.4-17.2-4.3c-1.9-3.3-2.9-6.9-3.3-10.7C522.6,556.9,522.3,551.6,522.1,548.6z"/>
	<path d="M449.9,508.4c-0.2,2.8-0.5,5.3-0.6,7.9c-0.4,9.5-0.8,19-1.1,28.5c-0.2,6-0.3,12-0.3,18c0,4.2,0.2,8.3,0.3,12.5
		c0.1,2.1-0.9,3.7-2.6,4.2c-2.2,0.6-4.3-0.6-4.6-2.9c-0.3-1.8-0.3-3.7-0.4-5.5c-0.3-13.6,0-27.2,0.8-40.7c0.3-6.6,0.7-13.2,1-19.9
		c0-0.5,0-1.1,0-1.8c-0.8-0.1-1.5-0.1-2.1-0.1c-4.1,0-8.2,0.1-12.2,0.1c-0.8,0-1.8-0.1-2.5-0.5c-1.4-0.7-2-2.4-1.7-3.9
		c0.3-1.4,1.5-2.6,3-2.8c0.6-0.1,1.3-0.1,1.9-0.1c12.3,0,24.6,0,36.9,0c0.6,0,1.1,0,1.7,0c2,0.2,3.4,1.8,3.4,3.7
		c0,1.9-1.6,3.5-3.5,3.5c-4.2,0.1-8.3,0-12.5,0C453.1,508.4,451.6,508.4,449.9,508.4z"/>
</g>
</svg>
