<?xml version="1.0" encoding="utf-8"?>
<!-- Generator: Adobe Illustrator 23.0.4, SVG Export Plug-In . SVG Version: 6.00 Build 0)  -->
<svg version="1.1" id="Layer_1" xmlns="http://www.w3.org/2000/svg" xmlns:xlink="http://www.w3.org/1999/xlink" x="0px" y="0px"
	 viewBox="0 0 864 864" style="enable-background:new 0 0 864 864;" xml:space="preserve">
<g>
	<path d="M680.6,599.1c-0.8-0.2-1.5-0.4-2.1-0.5c-8.2-1.7-12.4-6.6-12.7-15.1c-0.1-3.1,0.4-6.2,1.7-9.1c1.2-2.8,2.2-5.6,3.3-8.5
		c0.4-1.1,0.5-2.3,0.8-3.7c-3.9-0.5-7.5-1-11.1-1.6c-4.5-0.7-9-1.2-13.5-2.1c-8.5-1.7-15.6-5.9-20.9-12.6
		c-5.9-7.4-11.5-15.1-17.3-22.7c-0.5-0.6-0.9-1.3-1.3-2c-2.3-3.6-2.5-7.4-0.6-11.2c1.3-2.6,2.8-5,4.5-7.4c3.6-4.9,7.3-9.7,11-14.5
		c1.1-1.5,2.4-2.8,3.7-4.1c3.3-3.3,7.3-4.8,11.9-4.8c2.6,0,5.1,0.2,7.7,0.2c1.1,0,2.2,0,3.8,0c-0.9-1-1.3-1.6-1.9-2.1
		c-6.2-5.9-13-11-20.6-15.2c-4.4-2.4-8.7-5.1-12.7-8.1c-6.7-4.9-9.9-11.6-9.1-19.9c0.9-9.4,9.2-15.4,18.5-13.3
		c2.2,0.5,4.3,1.6,6.5,2.5c1.1,0.4,2.1,1,3.2,1.4c3.1-4.7,1.3-10.5-1.9-13c-1.8-1.4-3.8-2-6-1.3c-0.2,0.1-0.5,0.2-0.7,0.2
		c-5.1,1.6-8.2,0.4-10.7-4.4c-3-5.7-1.9-13.2,3.1-18.4c2-2,4.4-3.6,6.8-5.3c2.2-1.6,4.5-3,6.7-4.7c1.9-1.5,1.9-2,0.8-4.1
		c-0.8-1.5-1.7-3.1-2.6-4.6c-4.3-6.7-6-14-5.7-21.9c0.3-11.6,4.6-21.8,11.7-30.8c7.1-9,15.9-15.9,25.5-22c4.6-2.9,3.7-3,2.8-6.9
		c-0.8-3.9-1.6-7.8-2.5-11.7c-0.1-0.6-0.3-1.2-0.7-2.3c-0.9,1.9-1.6,3.4-2.3,4.8c-3.6,7.8-9.4,13.2-17.6,15.9
		c-5.1,1.7-10.3,2.1-15.6,1.1c-0.5-0.1-0.9-0.1-1.5-0.2c-0.4,0.5-0.8,1-1.1,1.5c-2.8,4.3-5.5,8.6-8.4,12.9c-1.1,1.6-2.2,3.2-3.3,4.7
		c-5,6.4-11.6,9.3-19.7,9c-2.8-0.1-5.6-0.4-8.7-0.6c0.5,1.2,0.8,2.3,1.3,3.3c3.4,8.1,7.1,16.1,10.3,24.3c3.5,8.7,5.4,17.7,5.4,27.1
		c0,6.3-2.6,11.1-8,14.3c-3.1,1.9-3.4,2.5-2.7,6c0.6,2.8,1.2,5.6,1.7,8.5c1.1,6.5,0.1,12.7-2.6,18.7c-0.8,1.8-1.5,3.5-2.4,5.2
		c-4.9,9-5.6,18.5-3.6,28.4c3.2,16.1,6,32.2,9.1,48.3c1.1,6,3.6,11.2,8,15.5c2.2,2.1,4,4.6,5.2,7.4c2.8,6.6,1,13.3-4.7,18.1
		c-0.7,0.6-1.3,1.1-2.1,1.7c0.8,1,1.4,2,2.1,2.8c10.2,13.5,16.7,28.7,19.6,45.3c1.1,6.3,1.5,12.7,1.4,19.1c-0.1,2.7-0.9,5-2.9,6.8
		c-2.5,2.1-7,3.3-10.1-0.7c-3.6-4.6-7.9-8.6-12.5-12.2c-5.4-4.1-11.3-7.3-17.7-9.4c-11.3-3.6-20.8-10-29.7-17.7
		c-7.9-6.8-15.8-13.5-23.8-20.2c-0.5-0.4-1-0.7-1.6-1.2c-1.1,1.6-2.1,3.1-3.1,4.6c-4.6,6.5-11.5,7.9-18.3,3.8
		c-3.5-2.1-6.1-5.1-8.4-8.4c-5.1-7.3-10.1-14.6-15.1-21.9c-0.6-0.8-1.2-1.6-2-2.6c-1.1,0.7-2,1.3-3,1.9c-5.3,3.4-10.8,6.1-17.1,7.3
		c-7,1.2-13.7,0.3-20-3c-9.8-5.2-14.3-15.7-11.3-26.4c1.6-5.6,4.2-10.7,8-15.2c10.1-12,20.1-24.1,30.2-36c6.7-7.9,7.6-9.9,8-20.6
		c0.2-5,1.2-9.9,4.2-14.1c1.5-2.2,3.3-4.1,5.1-6.1c1.9-2.1,4-4,5.8-6.1c0.9-1,1.5-2.3,2-3.5c0.6-1.7,0.2-2.2-1.6-2.2
		c-1.7,0-3.5,0.2-5.2,0.5c-7.5,1.3-14.5,0-20.9-4.1c-2.8-1.8-5.3-3.8-7.9-5.8c-2.9-2.3-5.6-4.7-8.5-7c-6.9-5.5-14.6-9.5-23.1-11.9
		c-6.1-1.7-12.1-3.7-17.7-6.6c-6.7-3.4-12.3-8-16.5-14.3c-4.9-7.3-6.2-15.1-3.7-23.5c0.8-2.8,1.5-5.6,1.9-8.4
		c1.1-8.3-4-15.2-12.2-16.8c-4.6-0.9-9.3-1.3-14-1.9c-2-0.3-4-0.5-5.9-1c-7.2-1.7-11.8-7.4-12.1-14.8c-0.1-1.8-0.7-3-2.4-3.7
		c-1.5-0.7-3-1.6-4.4-2.4c-3.4-1.9-6-4.5-7.2-8.3c-1.2-3.7-2.3-7.5-3.2-11.3c-1.8-7.9-5.5-14.6-11.1-20.4
		c-7.8-8-17.2-13.2-28.4-14.8c-6.6-0.9-13.1,0.1-19.4,1.9c-7.1,2.1-14.1,4.1-21.2,6.1c-4.9,1.3-9.9,1.8-15,1.8
		c-0.3,0.5-0.6,1-0.8,1.5c-3.3,10.4-10.7,16.5-20.8,19.7c-8.6,2.7-16.9,1.5-25-1.7c-6.3-2.6-12.1-6.2-17.6-10.1
		c-4-2.8-8-5.6-12.2-8.6c-0.6,0.8-1.1,1.4-1.6,2.1c-6.5,9.2-12.8,18.6-20.3,27.1c-1.7,1.9-3.6,3.7-5.6,5.2c-3.4,2.6-7.2,3-11.1,1.3
		c-1.5-0.6-2.9-1.3-4.2-2.2c-4.3-3-8.9-3.1-13.8-1.8c-5.4,1.5-9.8,4.6-13.3,8.9c-4.7,5.7-7.7,12.3-10.4,19.1
		c-0.9,2.2-1.6,4.3-2.6,6.4c-1.3,2.9-3.6,4.4-6.8,4.6c-2.3,0.2-4.2-0.6-5.7-2.4c-0.1-0.2-0.3-0.4-0.4-0.6c-1.7-2.1-2.6-2.3-4.5-0.4
		c-2.1,2.1-4,4.3-5.8,6.7c-1.7,2.2-3,4.7-4.5,7.1c-2,3.1-4.4,5.9-7.3,8.2c-2.7,2.1-5.8,3.2-9.2,3c-4-0.2-6.9-2.3-9-5.6
		c-1.8-2.8-2.6-5.8-2.8-9.1c-0.3-5.4-0.5-10.9-0.6-16.3c0-24.7,0-49.4,0.1-74.2c0-8.7,0-17.4,0.1-26.2c0-4.6,2.3-7.8,6.3-8.9
		c0.9-0.3,1.9-0.3,2.8-0.4c0.8-0.1,1.6,0,2.4,0c101.8,0,203.7,0,305.5,0c2.6,0,5.1,0,8,0c0.1-2.2,0.3-4.4,0.3-6.6
		c0.1-7.8,0.1-15.7,0.1-23.5c0-1,0-2.1,0.1-3.1c0.1-1.7,1.1-2.8,2.5-3.2c1.6-0.4,3.1,0.1,4,1.5c0.3,0.5,0.5,1,0.8,1.5
		c3.8,8,7.7,16,11.5,24c0.3,0.7,0.7,1.3,1.3,2.3c0.6-1,1-1.8,1.4-2.5c4-8.1,8-16.2,11.9-24.3c0.2-0.4,0.3-0.7,0.5-1.1
		c1-1.6,2.4-2.2,4.1-1.8c1.5,0.4,2.5,1.6,2.7,3.3c0.1,1.7,0,3.4,0,5c0,2.5-0.1,5-0.1,7.4c-0.1,9.6-0.1,19.2-0.2,28.8
		c-0.1,8.2-0.2,16.5-0.2,24.7c0,0.4,0,0.8,0,1.2c-0.1,2-1.5,3.4-3.3,3.5c-1.8,0.1-3.4-1.1-3.7-3c-0.2-1.2-0.1-2.4-0.1-3.6
		c0-1.3,0.1-2.6,0.1-3.8c0.1-13.7,0.2-27.4,0.2-41c0-0.8,0-1.7-0.4-2.6c-0.3,0.6-0.7,1.2-1,1.8c-2.7,5.5-5.3,10.9-8,16.4
		c-0.5,0.9-1,1.8-1.7,2.6c-1.6,1.6-3.9,1.3-5.2-0.4c-0.5-0.7-0.9-1.5-1.3-2.3c-2.4-5-4.8-10.1-7.2-15.1c-0.4-0.8-0.8-1.5-1.5-2.2
		c-0.1,0.6-0.2,1.2-0.2,1.7c-0.1,13.4-0.2,26.7-0.2,40.1c0,2.6,0,5.3-0.1,7.9c0,1.9-1,3.3-2.4,3.7c-2.3,0.7-4.6-0.8-4.7-3.4
		c-0.1-3.7,0-7.4,0-11c0-2.2,0-4.5,0-6.6c-0.2-0.2-0.3-0.2-0.3-0.2c-0.1,0-0.1-0.1-0.2-0.1c-0.4-0.1-0.8-0.1-1.2-0.1
		c-102.2,0-204.3,0-306.5,0c-0.4,0-0.8,0-1.3,0.1c-0.1,0.4-0.2,0.8-0.2,1.1c-0.1,3.4-0.2,6.9-0.2,10.3c-0.1,21.3-0.2,42.6-0.2,63.8
		c0,9.5,0.2,19,0.4,28.5c0,0.9,0.1,1.8,0.7,2.8c0.4-0.5,0.7-0.9,1.1-1.4c2.1-3.3,4.2-6.6,6.4-9.8c3.3-4.8,7.7-8.4,13.5-9.7
		c2.9-0.7,6-0.7,9.4-1.1c0.8-1.7,1.8-3.8,2.8-5.9c2.9-6,6.3-11.7,10.8-16.6c7.6-8.2,17.1-12.6,28.2-13c5.3-0.2,10.3,1.2,14.9,3.7
		c0.6,0.3,1.1,0.6,1.7,0.9c0.1,0.1,0.3,0.1,0.7,0.1c0.9-1.1,1.9-2.2,2.8-3.4c6.2-7.7,11.8-15.7,17.2-23.9c1.5-2.3,3.4-4.4,5.4-6.4
		c2.9-2.9,6.4-3.6,10.4-2.4c3.3,1,6.4,2.5,9.2,4.5c4,2.9,7.9,5.7,11.9,8.5c4.6,3.2,9.4,6,14.8,7.9c7.1,2.5,13.6,1.1,19.6-3
		c3.5-2.3,4.9-5.7,4-10c-1.5-6.7,3.5-10.2,9.1-9.3c2,0.3,3.9,0.7,5.9,0.8c5,0.3,9.9-0.8,14.6-2.2c6.6-1.8,13.2-3.9,19.8-5.7
		c11-2.9,22.2-3.5,33.1,0.3c22.4,7.7,37.3,22.6,42.8,46.1c0.3,1.2,0.5,2.5,0.6,3.8c0.4,3,1.9,5.2,4.7,6.5c1.9,0.9,3.7,2,5.4,3.1
		c2.9,1.8,4.5,4.5,4.9,7.9c0.1,1.1,0.3,2.2,0.5,3.3c0.6,2.8,1.9,4,4.8,4.2c2.6,0.2,5.3,0.3,7.9,0.4c4.5,0.1,9,0.6,13.2,2.2
		c10.8,4.3,16.7,12.7,19.2,23.7c1,4.6,0.4,9.2-1,13.7c-0.5,1.5-0.9,3.1-1.4,4.6c-1.9,5.3-0.6,9.9,2.9,14.1c3.2,3.8,7.2,6.6,11.8,8.5
		c5.2,2.1,10.4,4.1,15.8,5.6c10.3,3,19.5,7.8,27.5,15.1c2.5,2.3,5.1,4.4,7.7,6.5c1.3,1.1,2.7,2,4.1,3c3.8,2.8,8.1,3.5,12.7,2.7
		c2.4-0.4,4.9-0.7,7.4-0.7c7.9,0.1,14.1,5,15.6,12.4c0.9,4.1,0.2,8.1-1.6,11.9c-1.8,3.8-4.6,6.7-7.4,9.7c-1.4,1.4-2.8,2.9-4.1,4.4
		c-2,2.3-3.2,4.9-3.5,8c-0.4,4-0.7,8-1.3,11.9c-0.6,4.7-2.7,8.8-5.4,12.7c-4.2,6.1-9.3,11.6-14.2,17.2c-6,6.8-12.1,13.6-18,20.5
		c-3.1,3.6-5.8,7.5-7.4,12c-0.6,1.6-1,3.4-0.9,5.1c0.2,3.4,2.3,5.7,5.4,7c3.8,1.6,7.6,1.5,11.5,0.3c3.6-1.1,6.8-2.8,9.8-4.9
		c2.5-1.7,5-3.5,7.3-5.4c3.7-3.1,7.7-1.6,10,0.6c0.8,0.8,1.6,1.8,2.3,2.8c6.7,9.5,13.3,19,20,28.4c1,1.4,2.1,2.8,3.2,4.3
		c1.7-2.6,2.3-5.2,2.6-7.9c0.1-0.6,0.1-1.1,0.1-1.7c0.8-5.8,6.8-8.6,11.8-5.4c0.7,0.5,1.4,1.1,2.1,1.6c11.2,9.5,22.4,19,33.7,28.5
		c8.4,7.1,17.7,12.6,28.2,16.1c5.9,2,11.4,4.7,16.3,8.5c0.3,0.2,0.5,0.4,0.8,0.5c0.1,0.1,0.3,0.1,0.7,0.1c0-0.6,0-1.2-0.1-1.8
		c-3.5-15.7-10.1-29.8-21.1-41.6c-3-3.3-6.5-6.2-9.8-9.2c-1-0.9-2.1-1.8-3-2.8c-2.4-2.8-2.4-6.7-0.2-9.3c2.3-2.7,6.3-3.5,9.4-1.8
		c2.2,1.2,4.4,2.6,6.6,3.8c2,1.1,2.7,1,4.8-0.1c-0.1-1.2-1.1-1.9-1.8-2.7c-2-2.3-4.1-4.5-5.9-6.9c-3.7-5.1-5.5-11-6.7-17.1
		c-1.3-6.1-2.1-12.3-3.3-18.4c-1.7-9.4-3.5-18.7-5.2-28c-1.2-6.3-2-12.6-1.3-19.1c0.7-6.1,2.3-11.9,4.9-17.4
		c1.2-2.5,2.3-4.9,3.4-7.4c1.7-3.9,2-8,1-12.2c-0.7-2.9-1.3-5.8-1.8-8.7c-0.6-3.7-0.1-7.3,1.5-10.7c1.4-2.9,3.5-5.1,6.5-6.4
		c2.9-1.2,3.4-2.2,2.9-5.2c-1.7-11.6-5.4-22.6-10.5-33.2c-2.3-4.8-4.3-9.8-6.2-14.8c-1.2-3.1-1.8-6.3-1.4-9.6
		c0.7-6.1,4.5-9.8,10.7-9.9c3.7-0.1,7.3,0.4,11,0.6c1,0.1,2.1,0.2,3.1,0.3c3.7,0.3,6.5-1.2,8.7-4.1c4.4-6,8.2-12.4,11.8-18.9
		c0.5-0.8,0.9-1.7,1.3-2.6c1.7-3.9,4.9-4.9,9.4-4c0.8,0.2,1.6,0.6,2.5,0.9c7.5,3,14.9,0.7,19.3-6c1.5-2.3,2.8-4.7,4.1-7
		c0.9-1.6,1.8-3.2,2.8-4.8c1.6-2.7,3.9-4.6,6.7-6.1c4.5-2.3,9.2-1.6,12.8,1.9c2.5,2.4,3.9,5.4,4.6,8.8c1.5,7.5,3,15.1,4.3,22.6
		c1,5.6-0.4,10.5-5.2,14c-3.2,2.4-6.4,4.7-9.7,7c-6.2,4.4-12.1,9.2-16.9,15.2c-4.5,5.7-7.6,12-8.6,19.2c-0.9,6.4,0.4,12.2,3.9,17.6
		c0.8,1.3,1.7,2.5,2.4,3.8c5,8.3,3.1,17.1-4.8,23.4c-1.6,1.2-3.3,2.2-5,3.2c-1.1,0.7-2.2,1.3-3.5,2.1c1.2,0.5,2.2,0.8,3.2,1.2
		c9.7,3.6,14.5,10.9,15.5,20.9c0.6,6-0.5,11.8-3.5,17.1c-2.6,4.5-6.6,6.4-11.7,5.4c-1.1-0.2-2.2-0.4-3.3-0.8
		c-2.4-0.9-4.8-1.8-7.2-2.7c-1.2-0.4-2.4-0.9-3.5-1.3c-1,1.3-0.7,2.4-0.2,3.5c0.9,2,2.5,3.3,4.3,4.4c4.3,2.6,8.7,5,13,7.7
		c13.7,8.8,25.2,19.8,35,32.8c2.6,3.5,2.2,7.4-0.9,10.3c-1.5,1.4-3.3,1.9-5.3,1.8c-5.7-0.3-11.5-0.7-17.2-1
		c-3.3-0.2-6.5-0.5-9.8-0.7c-2.1-0.1-3.7,0.7-4.9,2.4c-4.5,6.2-8.9,12.3-13.5,18.7c0.8,1.2,1.7,2.5,2.7,3.8
		c4,5.3,8.1,10.5,12.2,15.7c4.9,6.2,11.4,9.3,19.1,10.3c6.6,0.8,13.1,2,19.7,2.9c4.1,0.6,7.1,2.7,9,6.3c2.6,4.7,2.8,9.6,1.3,14.6
		c-1.3,4.4-2.8,8.8-4.2,13.2c-0.2,0.5-0.2,1.1-0.4,1.7c0.7,0.2,1.3,0.4,1.9,0.5c1.4,0.3,2.8,0.6,4.2,1c6.7,2.1,10.3,7.9,9.2,14.8
		c-0.4,2.4-1,4.7-1.7,7c-0.8,2.6-0.4,4.9,1.1,7c1.2,1.6,2.3,3.2,3.4,4.9c2.7,4.2,4,8.7,3.4,13.7c-0.1,0.7,0,1.4,0,2.2
		c4.7,2.6,9.7,3.7,15,3.7c5.3,0.1,10.5-1,15.7-1.8c8.1-1.3,16.2-2.6,24.4-3.7c5.5-0.8,11-0.4,16.5,0.3c3.4,0.4,6.3-0.5,8.5-3
		c13.3-15.3,27.3-29.9,39.2-46.3c4.6-6.4,8.7-13,11.7-20.3c3.4-8.4,5.2-17.1,5.9-26.1c0.4-4.4,0.4-8.9,0.4-13.4c0-1-0.2-2-0.3-3.2
		c-1.6-0.1-3.1-0.2-4.6-0.2c-11-0.2-22.1-0.3-33.1-0.5c-15.6-0.2-31.2-0.4-46.8-0.6c-5.3-0.1-10.6-0.2-15.8-0.3
		c-0.9,0-1.8,0-2.6-0.1c-2.6-0.4-4.4-1.7-5.5-4.1c-1.2-2.7-1.7-5.5-1.9-8.4c-1.1-13.7-2.2-27.4-3.3-41.1c-1-12.6-2-25.2-3-37.8
		c-1-12.7-2.1-25.3-3.2-38c-0.9-10.7-1.7-21.4-2.6-32c-1-12.7-2.1-25.3-3.2-38c-0.7-8.6-1.4-17.2-2.1-25.8
		c-0.9-10.5-1.8-21-2.7-31.5c-0.7-8.5-1.4-17-2.1-25.6c-0.6-6.8-1.2-13.7-1.8-20.5c0-0.4-0.1-0.8-0.2-1.2c-0.5-0.1-0.8-0.1-1.2-0.1
		c-3.8,0-7.5,0-11.3,0c-2.2,0-3.7,0.7-4.6,3c-1.9,4.8-4.7,9.1-8.5,12.7c-4,3.8-8.7,6.3-14.4,6.2c-0.7,0-1.4-0.1-2.1-0.2
		c-2.3-0.4-3.3-1.4-3.4-3.6c-0.2-6.4-0.3-12.8-0.2-19.2c0-5.1,0.1-10.2,0.3-15.3c0.4-9.7,0.9-19.5,1.4-29.2c0.2-2.8,1.2-3.8,3.9-4.3
		c4.8-0.8,9.6-0.7,14.1,1.3c6.5,2.9,10,8.2,12.1,14.7c1.7,5.2,2,10.7,1.8,16.1c0,0.6,0,1.1-0.1,1.8c3.5,0.1,6.9,0.1,10.3,0.2
		c3.1,0.1,6.2,0.1,9.3,0.2c5.2,0.1,7.5,3.3,7.7,7.1c0.5,6.4,1.1,12.7,1.6,19.1c0.8,8.9,1.5,17.8,2.2,26.8c0.7,8.4,1.4,16.7,2.1,25.1
		c0.7,8.9,1.5,17.8,2.2,26.8c0.7,8.4,1.4,16.9,2.1,25.3c0.7,9,1.5,18,2.2,27c0.7,8.4,1.4,16.7,2.1,25.1c0.7,8.8,1.5,17.5,2.2,26.3
		c0.7,8.4,1.4,16.7,2.1,25.1c0.7,8.8,1.5,17.7,2.2,26.5c0.7,8.6,1.4,17.2,2.1,25.8c0.5,5.7,1,11.5,1.5,17.2c0,0.2,0.2,0.4,0.3,0.8
		c2.3,0.1,4.7,0.3,7.1,0.4c9,0.1,18.1,0.1,27.1,0.2c11.1,0.1,22.2,0.3,33.3,0.5c9.4,0.1,18.9,0.3,28.3,0.5c2.4,0,4.8,0.1,7.2,0.3
		c3.9,0.3,6.2,2.7,6.5,6.6c0.6,7,1.3,14,0.9,21.1c-0.8,13.9-3.1,27.5-9.1,40.2c-3.8,8.1-8.6,15.5-14.3,22.4
		c-8,9.9-16.2,19.6-24.4,29.3c-4.1,4.8-8.3,9.5-12.5,14.2c-3.4,3.8-7.5,6.7-12.7,7.7c-3.9,0.8-7.8,0.6-11.7,0.3
		c-7.6-0.5-15.2,0.1-22.7,1.5c-6.5,1.2-13,2.5-19.6,3.3c-10.8,1.4-21.4,0.5-31.3-4.5c-3-1.5-5.7-3.5-8.3-5.6c-3.7-3-4-6.8-1.2-10.6
		c1.1-1.5,1.1-2.7,0.2-4.2c-1-1.5-1.8-3-2.9-4.4c-4.7-6.2-5.9-13.1-4.1-20.6C680.5,601.2,680.5,600.1,680.6,599.1z M665.4,229.5
		c2.1,0.1,3.6-0.7,5.1-1.6c2.6-1.6,4.7-3.8,6.4-6.4c6.3-9.7,8.7-20.3,7.8-31.8c-0.3-3.7-1.2-7.2-2.9-10.5c-2.7-4.9-8.1-8.3-14.7-7.1
		C665.8,191.1,665.1,210.2,665.4,229.5z"/>
	<path d="M640,228.2c0.3-1,0.6-1.9,0.8-2.9c1.2-6.2,1.4-12.5,1.4-18.9c0.2-13-0.2-26.1-0.9-39.1c0-0.6-0.1-1.3,0-1.9
		c0.1-1.9,1.3-3.2,3.1-3.3c2-0.2,3.3,0.8,3.8,2.8c0.1,0.5,0.1,0.9,0.2,1.4c0.3,13.2,0.8,26.4,0.9,39.6c0,7.2-0.1,14.4-1.7,21.5
		c-0.4,1.7-0.9,3.4-1.7,5c-2.3,4.6-7.4,5.4-10.8,1.5c-1.6-1.8-3-4.1-3.8-6.3c-2.7-7.8-5.3-15.6-7.7-23.4c-1.2-3.6-2.1-7.3-3.5-11
		c-0.1,1.2-0.2,2.5-0.2,3.7c-0.2,11.8-0.4,23.7-0.6,35.5c0,0.7,0,1.5-0.3,2.1c-0.5,1.6-1.9,2.4-3.5,2.3c-1.6-0.1-2.9-1.2-3.2-2.7
		c-0.1-0.5-0.1-1.1-0.1-1.7c0.3-13,0.5-26.1,0.8-39.1c0.2-8.1,0.7-16.1,1-24.2c0-0.9,0.1-1.9,0.4-2.8c0.6-1.7,1.9-2.6,3.4-2.5
		c1.6,0.1,2.8,1,3.2,2.7c0.7,2.8,1.3,5.6,2.1,8.4c4,15.2,7.9,30.5,13,45.4c0.7,2,1.5,3.9,2.3,5.8c0.3,0.8,0.8,1.5,1.2,2.2
		C639.7,228.2,639.9,228.2,640,228.2z"/>
	<path d="M449.1,204.8c1.2,0.8,2.1,1.3,2.9,1.9c6.2,3.8,9.7,9.5,10.5,16.6c0.4,3.5,0.3,7,0.2,10.5c0,2.1-1,3.1-2.7,3.4
		c-2,0.5-3.9-0.8-4.2-2.8c-0.1-0.7,0-1.4,0-2.1c0.2-3.4,0.1-6.7-0.7-10c-0.9-3.8-3-6.8-6.2-9.1c-2.5-1.8-5.2-3.1-8.4-4.2
		c-0.1,2.8-0.3,5.3-0.3,7.8c-0.2,5.8-0.3,11.5-0.5,17.3c-0.1,2.6-1.3,3.9-3.5,4c-2.2,0-3.6-1.5-3.5-4.2c0.1-5.4,0.2-10.7,0.4-16.1
		c0.1-3.4,0.9-7,0.2-10.3c-0.9-4.1,0.6-7.8,0.5-11.7c-0.1-5.5,0.2-11,0.4-16.5c0.1-4.2,0.2-8.3,0.3-12.5c0.1-2.3,0.9-3.5,3.1-3.9
		c6-1.1,11.9-1.4,17.8,0.4c8.8,2.6,14.2,10.2,13.5,19.2c-0.4,5.3-2.8,9.8-6.4,13.7c-3.1,3.3-6.8,5.8-10.9,7.6
		C450.9,204,450.2,204.3,449.1,204.8z M441.7,169.5c-0.7,6.3-1.1,28.1-0.5,29.9c5.8-1,11-3.2,15.3-7.2c1.9-1.8,3.4-4,4.4-6.5
		c2.6-6.7-0.1-12.8-6.8-15.3C450.1,168.9,446,168.7,441.7,169.5z"/>
	<path d="M595.9,216.1c-7.7,0-15,0-22.5,0c-0.4,3.3-0.9,6.7-1.2,10c-0.3,2.6-0.3,5.3-0.5,7.9c-0.1,2.2-1.7,3.7-3.6,3.7
		c-1.8,0-3.4-1.7-3.4-3.7c0-2.6,0.2-5.1,0.5-7.7c1.6-14,3.8-27.9,7.6-41.4c1.3-4.5,2.6-9.1,4.9-13.2c1-1.8,2.2-3.6,3.6-5.1
		c2.9-3.1,6.8-3.1,9.7,0c1.4,1.5,2.5,3.3,3.4,5.2c2.4,5.2,3.6,10.9,4.8,16.5c3.1,14.7,4.6,29.5,4.3,44.5c0,0.7,0,1.4-0.2,2.1
		c-0.5,1.8-1.9,2.9-3.7,2.7c-1.7-0.1-3-1.5-3.2-3.3c-0.1-1,0-1.9,0-2.9C596.1,226.4,596,221.4,595.9,216.1z M586.3,171.9
		c-0.3,0-0.6,0-0.9,0c-6.3,11.4-8.2,24.1-10.9,36.9c7,0,13.7,0,20.4,0c0-0.3,0.1-0.6,0.1-0.8c-1-6-1.7-12-2.9-18
		c-1-4.9-2.5-9.7-4-14.5C587.8,174.2,586.9,173.1,586.3,171.9z"/>
	<path d="M416.3,216c-7.5,0-14.8,0-22.3,0c-0.5,3.7-1,7.3-1.3,10.9c-0.2,2.3-0.3,4.6-0.4,6.9c-0.1,2.2-1.6,3.7-3.6,3.7
		c-1.8,0-3.4-1.6-3.4-3.7c0.1-3.7,0.3-7.4,0.8-11c1.4-11.5,3.2-22.9,6.2-34.2c1.4-5.4,2.8-10.8,5.3-15.9c0.9-1.9,2-3.8,3.4-5.5
		c3.4-4.1,7.8-4.3,11.2-0.2c1.5,1.8,2.8,4,3.4,6.2c1.7,5.4,3.2,10.9,4.4,16.4c2.1,9.9,3.3,19.9,3.8,29.9c0.2,4.6,0.2,9.3,0.1,13.9
		c0,2.5-1.5,3.9-3.6,3.9c-1.6,0-3.5-1.6-3.5-4.1c0.1-4.7-0.1-9.4-0.1-14.2C416.5,218.4,416.4,217.4,416.3,216z M415.6,208.7
		c0-0.6,0.1-1,0-1.4c-1.1-6.6-2-13.3-3.4-19.8c-0.9-4.4-2.4-8.6-3.8-12.8c-0.3-1.1-0.8-2.2-2.3-3c-6.3,11.6-8.3,24.3-10.9,37
		C402.2,208.7,408.8,208.7,415.6,208.7z"/>
	<path d="M496.4,191.7c1.5-2.6,2.7-4.7,3.9-6.8c3.5-6.2,7-12.4,10.5-18.6c0.4-0.7,0.8-1.4,1.3-2c1.2-1.4,3.1-1.6,4.6-0.6
		c1.5,1,2.1,2.7,1.3,4.4c-0.6,1.3-1.4,2.5-2.1,3.8c-5.3,9.2-10.5,18.5-15.8,27.7c-0.6,1.1-1,2.1-1,3.4c-0.2,9.3-0.4,18.5-0.6,27.8
		c0,0.9,0,1.8,0,2.6c-0.2,2.1-1.5,3.4-3.6,3.4c-1.9,0-3.2-1.3-3.4-3.3c-0.1-0.6,0-1.3,0-1.9c0.2-9.7,0.3-19.3,0.6-29
		c0-1.6-0.2-3.1-0.9-4.6c-4-9.3-8-18.7-12-28c-0.3-0.8-0.7-1.6-0.9-2.5c-0.4-1.7,0.6-3.5,2.1-4.1c1.7-0.6,3.4,0,4.3,1.6
		c0.4,0.7,0.7,1.4,1,2.2c3.1,7.3,6.2,14.5,9.4,21.8C495.4,189.6,495.7,190.4,496.4,191.7z"/>
	<path d="M534.8,229.7c2.1,0,4,0,5.9,0c3.6-0.1,7.2-0.2,10.8-0.3c0.5,0,1,0,1.4,0.1c2,0.3,3.2,1.8,3.1,3.6c-0.1,1.9-1.4,3.3-3.4,3.4
		c-2.6,0.1-5.1,0.1-7.7,0.1c-4.4,0.1-8.8,0.3-13.2,0.4c-2.7,0.1-3.6-0.7-4-3.3c-0.2-1.6-0.3-3.2-0.4-4.8
		c-0.3-11.8-0.2-23.6,0.4-35.4c0.5-8.7,0.9-17.4,1.5-26.1c0.1-0.9,0.2-1.8,0.6-2.5c0.6-1.3,2-1.8,3.5-1.6c1.5,0.2,2.5,1.1,2.8,2.6
		c0.1,0.7,0.1,1.4,0.1,2.1c-0.6,13.5-1.2,27-1.7,40.4c-0.2,6.7,0,13.4,0,20.1C534.6,228.9,534.7,229.2,534.8,229.7z"/>
</g>
</svg>
