<?xml version="1.0" encoding="utf-8"?>
<!-- Generator: Adobe Illustrator 23.0.4, SVG Export Plug-In . SVG Version: 6.00 Build 0)  -->
<svg version="1.1" id="Layer_1" xmlns="http://www.w3.org/2000/svg" xmlns:xlink="http://www.w3.org/1999/xlink" x="0px" y="0px"
	 viewBox="0 0 864 864" style="enable-background:new 0 0 864 864;" xml:space="preserve">
<g>
	<path d="M855.4,529.4c0.7-2.2,1.3-4.5,1.5-6.8c1.3-12.1,1.4-24.2-0.4-36.3c-1.4-9.7-3.7-19.1-7.7-28.1c-4.1-9.3-9.6-17.6-18-23.5
		c-5.2-3.7-10.2-7.7-15.1-11.8c-3.9-3.3-8.5-5.3-13.7-5.8c-8.6-0.8-17.2-0.6-25.8,0.6c-5.1,0.7-9.4,3.1-12.7,7
		c-4.8,5.6-4.4,13.7,0.8,18.9c1.9,2,4.3,3.3,6.8,4.4c5.5,2.2,11.2,3,17.1,3.4c3,0.2,6.1,0.5,9,1.1c4.4,0.8,6.8,3.6,7.5,8.2
		c0.5,3.5,1.3,7.1,2.3,10.5c1.4,4.7,4.5,7.9,9.5,8.7c1.3,0.2,1.9,0.8,2.1,2.1c1.1,5.2,1.9,10.4,2,15.7c0.1,4.1-0.4,8.1-2.1,11.9
		c-2.2,4.9-3.7,5.9-9,5.6c-5.2-0.3-10.2,0.8-14.9,2.9c-2.5,1.1-4.9,2.3-7.4,3.5c-7.7,3.8-15.7,6.3-24.3,6.9
		c-10,0.6-19.4-1.6-28.3-5.9c-9.2-4.5-15.1-11.7-17.2-21.8c-1.1-5.1-2-10.2-3.1-15.3c-1.2-5.6-2.9-11-6.1-15.8
		c-3.8-5.8-8.8-9.2-16.1-9.1c-6.8,0-11.1-4.5-15.2-9.2c2.7-3,5.3-5.6,7.6-8.5c6.5-8.2,6.9-17,1.1-25.7c-1.8-2.6-3.9-5.1-6-7.4
		c-4.5-4.9-8.1-10.3-10.1-16.7c-2.6-8.5-7.4-15.5-14.5-20.7c-9-6.6-18.4-12.8-27.6-19.2c-1.6-1.1-3.4-1.2-5.3-0.6
		c-2.9,1-4.8,2.8-5.5,5.8c-0.4,1.8-1,3.7-1.5,5.6c-1.5-0.2-2.7-0.4-4-0.6c-4.1-0.8-8.1-1.9-11.7-4.1c-2.8-1.8-5.2-4-6.5-7.1
		c-0.7-1.7-0.5-2.4,1.1-3.4c1.3-0.8,2.6-1.5,3.9-2.4c6.9-4.9,11.9-11.1,13.8-19.5c0.5-2.1,0.7-4.3,1-6.4c0.3-2.8,1.7-4.4,4.4-5.3
		c5.5-1.7,10.4-4.5,14.9-8.1c1.8-1.4,3.6-3,5.1-4.7c4.1-4.7,4.1-9.7,0.2-14.6c-1.2-1.6-2.6-3-3.9-4.5c-0.6-0.7-1.2-1.4-1.7-2.2
		c1.2-0.2,2.2-0.1,3.2,0.1c3.2,0.6,6.4,1.3,9.7,1.6c4.7,0.5,9-1.2,13.3-2.7c7.8-2.7,15.7-5.6,23.4-8.6c3.1-1.2,6.2-2.7,8.9-4.6
		c6.1-4.2,9.6-10.1,10.1-17.4c0.8-11.5-11-21.8-22.9-17.9c-2.5,0.8-5,1.7-7.6,2.3c-5.5,1.4-10.4-1.1-12.7-6.4
		c-1-2.4-1.6-4.9-1.8-7.4c-0.6-6.4-1.2-12.7-1.9-19.1c-0.8-6.1-2.1-12.1-4.3-17.9c-2.6-6.5-6.9-11.3-13.6-13.7
		c-9.9-3.5-20.2-5-30.7-3.7c-6.6,0.8-12.2,3.8-16.2,9.3c-1.5,2-2.6,4.2-3.9,6.3c-1.1,1.8-2,3.7-3.1,5.4c-1.2,1.9-2.4,2.2-4.5,1.4
		c-0.9-0.3-1.7-0.8-2.6-1.2c-3.2-1.3-6.6-2-10.1-1.3c-7.3,1.4-13.1,7.5-14.2,14.8c-0.4,2.8-0.8,5.7-1.2,8.7
		c-5.9-0.1-11,1.6-14.4,6.3c-2.7-2.1-5.2-4-7.6-5.9c-1-0.8-2-1.7-2.9-2.5c-5.3-4.7-3.9-11.9-1.5-15.8c0.5-0.8,1.3-1.5,2.1-1.9
		c3.1-1.7,6.1-0.4,6.7,3.1c0.3,1.4,0.2,2.9,0.2,4.3c0,0.9-0.2,1.8-0.1,2.6c0.1,1.4,1,2.5,2.3,2.8c1.4,0.3,2.8-0.3,3.4-1.6
		c0.3-0.6,0.5-1.2,0.5-1.8c0.1-2.2,0.2-4.3,0-6.5c-0.8-7.5-7.4-11.6-14.5-9.1c-3.1,1.1-5.3,3.3-6.7,6.2c-3.5,7.7-3.5,16.8,4.5,23.5
		c2,1.6,4.1,3.1,6.1,4.7c3.5,2.8,4.8,9,3.5,13.1c-1.8,5.7-9.4,6.5-11,0c-0.8-3.3-1.3-6.6,0.9-9.6c1-1.5,0.7-3.3-0.6-4.3
		c-1.2-1-3.1-0.8-4.3,0.5c-0.7,0.8-1.5,1.8-1.8,2.8c-1.9,5.8-1.6,11.4,1.8,16.6c3.2,4.9,9.3,6.2,14.4,3.3c4.1-2.3,6.1-6,6.8-10.5
		c0.2-1.5,0.8-2.3,2.2-2.6c2.7-0.5,5.3-1.1,8-1.4c4.5-0.4,8.9-0.5,13.2-2.2c3.6-1.4,5.3-4,4.9-7.9c-0.1-1.4-0.5-2.8-0.6-4.3
		c-0.1-2.3-0.3-4.6-0.1-6.9c0.3-2.7,1.8-3.5,4.4-2.9c0.7,0.2,1.4,0.4,2.1,0.6c1.5,0.5,3,1,4.6,1.5c1.9,0.6,3.9,0.9,5.9,0.5
		c6-1.2,10.4-4.7,13.3-10c1-1.8,1.9-3.7,2.8-5.6c2.7-5.5,7.3-8,13.4-8c5.9,0,11.6,1.4,17.2,3c3.9,1.1,6.4,3.7,7.6,7.6
		c1.7,5.4,2.8,11,3.4,16.6c0.7,6.2,1.2,12.4,1.9,18.6c0.4,3.7,1.5,7.2,3.2,10.5c4.7,9.1,19.2,17.1,33.1,11c1.2-0.5,2.4-0.9,3.6-1.4
		c1.4-0.6,2.5-0.3,3.5,0.8c1,1.1,1.4,2.5,0.6,3.8c-0.7,1.3-1.7,2.6-2.8,3.5c-2.8,2.4-6,3.9-9.5,5c-6,2.1-11.9,4.1-17.7,6.6
		c-5.5,2.3-11,2.9-16.8,1.4c-3.6-1-7.4-1.6-11.1-0.7c-3.8,0.8-7.1,2.4-9.7,5.3c-3.6,4.1-3.8,10.1-0.2,15.1c1.7,2.4,3.8,4.5,5.8,6.7
		c0.4,0.5,0.8,0.9,1.2,1.4c-1.4,1-2.8,1.7-3.9,2.6c-3.4,2.7-7,4.8-11,6.7c-4.6,2.2-7.5,6.1-8.6,11.2c-0.4,2-0.8,3.9-1,5.9
		c-0.8,6-3.8,10.4-8.8,13.6c-2.2,1.4-4.3,2.8-6.2,4.4c-4,3.3-5.6,7.7-5.1,12.8c0.6,5.2,2.6,9.9,6,13.9c4.3,5.1,9.9,8.3,16.1,10.5
		c7.2,2.5,14.8,3.1,22.4,3.8c3,0.3,5.2-1.2,6.6-3.9c0.3-0.7,0.7-1.4,1.2-2.2c6,4.3,12.1,8.4,17.8,12.9c1.8,1.4,3.2,3.6,4.4,5.6
		c1,1.6,1.7,3.4,2.3,5.3c2.5,8.5,6.9,15.7,13.1,22c1.9,2,3.7,4.2,5.2,6.5c1.7,2.4,1.4,5-0.3,7.4c-1,1.3-2,2.5-3.1,3.7
		c-1.5,1.7-3.1,3.4-4.7,5.1c-0.8,0.9-1.6,1.8-2.2,2.8c-2.8,4.1-2.9,8.2-0.2,12.3c4.4,6.6,10.1,11.9,17.1,15.8c2.3,1.3,4.9,2,7.6,2
		c0.8,0,1.6,0.1,2.4,0.2c3.1,0.1,5.3,1.7,6.6,4.4c0.9,1.8,1.9,3.8,2.4,5.7c1.1,4.7,2.1,9.5,2.9,14.3c2.5,16,10.8,28,25.1,35.6
		c16.5,8.8,33.8,10,51.7,5.6c6.3-1.5,12-4.3,17.7-7.2c3.1-1.6,6.2-3.1,9.7-3.4c2.5-0.2,5-0.1,7.4-0.2c4.9,0,9.2-1.6,12.5-5.1
		c1.9-1.9,3.5-4.2,4.8-6.6c3.2-5.8,4.4-12.1,4.6-18.7c0.2-5.1-0.5-10.2-1.3-15.3c-0.5-3.3-1.1-6.6-1.9-9.9c-1.1-4.6-4-9.1-10.6-9.5
		c-0.5,0-1-0.2-1.5-0.3c-0.6-3.4-1-6.6-1.7-9.8c-1.4-7-5.3-12.1-11.9-14.8c-3.1-1.3-6.4-2.1-9.7-2.6c-5-0.9-10.1-1.3-15.2-2
		c-1.9-0.3-3.8-0.4-5.5-1.7c1.3-1.3,2.9-1.6,4.4-1.6c5-0.2,9.9-0.3,14.9-0.5c5.4-0.2,10,1.7,13.8,5.5c3.1,3,6.1,6.2,10,8.2
		c4.2,2.2,7.2,5.4,9.8,9.3c9.1,13.6,12.9,28.8,13.4,44.9c0.2,6.2-0.2,12.5-0.4,18.7c-0.2,5.2-0.2,5.2-4.4,8.3
		c-2.6,1.9-4.2,4.4-4.7,7.6c-0.8,5.6,0.8,10.5,5.3,14.1c2.2,1.7,2.8,3.7,2.1,6.5c-0.5-0.3-1-0.5-1.3-0.7c-3.7-2.6-7.8-3.2-12.1-2.6
		c-2.8,0.4-5.5,0.9-8.2,1.6c-12.1,2.8-24.3,5.7-36.4,8.6c-11,2.6-22,3.8-33.3,2.9c-3.7-0.3-7.5-0.2-11.2,0.2
		c-4.9,0.4-8.8,2.8-11.6,6.8c-1.1,1.5-2.1,3.1-2.9,4.7c-1.8,3.2-4.4,5.2-8,5.9c-2.7,0.6-5.5,1.1-8.2,1.7c-4.9,1-9.1,3.3-12.5,7.1
		c-0.7,0.8-1.3,1.6-2,2.4c-1.6,1.7-3.3,3.2-5.7,3.9c-1.7,0.5-2.6-0.2-2.7-1.9c-0.1-0.8,0-1.6,0.2-2.4c1.3-7.2,2.7-14.3,3.9-21.5
		c0.5-3.2,1.5-6.2,3.1-9c2.1-3.8,3.4-7.9,4.5-12.1c1.5-6.1,1.5-12.4,1.4-18.6c0-3.6-1.5-5.8-4.5-7c-3.1-1.2-6-0.8-8.3,1.8
		c-1,1.1-2,1.3-3.4,0.9c-3.3-0.8-6.6-1.3-10-1.1c-6.7,0.3-13.6,4.3-15.9,11.8c-0.3,1-0.6,2-0.8,3c-0.6,2.7-1.1,5.5-1.8,8.2
		c-1,4-3.6,6.5-7.5,7.7c-1.3,0.4-2.6,0.7-4,1c-2.6,0.6-5.1,1.6-7.1,3.4c-1.2,1-2.2,1.1-3.7,0.6c-3.7-1.3-7.3-0.9-10.5,1.5
		c-1.5,1.1-3,2.2-4.2,3.5c-5.7,6.4-9.3,13.8-9.2,22.6c0,2.7-1.2,4.6-3.5,5.8c-0.9,0.5-1.9,1-2.8,1.3c-3.9,1.1-7.8,2.2-11.8,3.2
		c-2.2,0.5-4.5,0.7-6.9,1.1c-0.2-0.9-0.4-1.5-0.5-2.1c-1.8-9.5-3.6-19-5.2-28.5c-1.4-8.1-3.8-15.5-10.1-21c0.2-2.6,0.5-5,0.5-7.4
		c0.1-5.9-4.1-9.1-9.7-7.4c-4,1.2-7.2,0.3-10.1-2.6c-2.3-2.3-4.5-4.6-6.7-6.8c-1.7-1.7-3.4-3.4-5.3-4.8c-2.5-1.8-5.3-3.3-7.9-5
		c-2.9-1.8-3.8-3.7-2.8-6.9c1.1-3.6,2.5-7.1,3.8-10.6c0.6-1.6,1.3-3.1,1.8-4.7c2.1-7.4-3.6-16.6-12.5-15.8c-0.7,0.1-1.4,0-2.1,0
		c-0.1-1-0.2-1.8-0.2-2.6c0.3-6.8,0.6-13.6,0.9-20.4c0.2-3.8,0.2-7.5-0.7-11.2c-1.2-5.3-4.6-8.1-10.1-8.1c-3,0-5.9,0.3-8.9,0.4
		c-13,0.6-26,1.1-39,1.8c-12.5,0.7-25.1,0.6-37.5,2.8c-1.2,0.2-2.1-0.1-2.7-1.3c-2.2-4.1-5.8-6.3-10.4-6.9c-1.6-0.2-3.2-0.2-4.8-0.1
		c-7.3,0.4-14.5,0.8-21.8,1.2c-10,0.5-20,0.8-29.9,1.2c-14.9,0.6-29.9,1.2-44.8,1.7c-9.2,0.3-18.4,0.6-27.6,0.7
		c-8.3,0.1-16.6,0.3-24.9-0.2c-14.7-0.8-29.3-1.9-44-3c-4.1-0.3-8.1-0.1-12.2,0.8c-5.1,1.1-8.6,4-10.3,9c-0.3,0.8-0.6,1.6-1.1,2.8
		c-0.2-1-0.4-1.4-0.4-1.9c-0.5-3.5-2.5-6-5.6-7.6c-1.8-0.9-3.6-1.7-5.5-2.3c-5-1.5-10.2-2-15.4-1.9c-11.6,0.1-23.2,0.5-34.8,0.5
		c-11.6-0.1-23.2-0.6-34.8-0.9c-7.8-0.2-15.5-0.4-23.3-0.6c-9.4-0.3-18.9-0.6-28.3-0.9c-3.2-0.1-6.4-0.3-9.6-0.5
		c-1.3-0.1-2-0.6-2.1-2.1c0-1.3-0.3-2.5-0.4-3.8c-0.4-5.5,0.7-10.8,2.2-16.1c2.3-7.7,4.8-15.2,6.9-22.9
		c6.3-23.1,12.4-46.2,18.5-69.2c7.8-29.3,15.5-58.5,23.2-87.8c0.2-0.8,0.5-1.5,0.7-2.2h23.2c0,0.7,0.1,1.2,0.1,1.8
		c0,3.3,0,6.6,0,9.8c0,1.8,1.1,3,2.7,3.1c1.7,0.1,3.1-0.9,3.4-2.7c0.1-0.6,0.1-1.3,0.1-1.9c0-8.5,0.1-17,0.1-25.4
		c0-3.5,0-7.1,0-10.6c0.7,0.3,1,0.7,1.2,1.1c1.2,2.5,2.4,5,3.6,7.6c0.8,1.6,1.5,3.2,2.3,4.7c1.4,2.4,4,2.6,5.6,0.3
		c0.4-0.6,0.7-1.2,1-1.9c1.7-3.5,3.4-7,5.2-10.6c0.3-0.5,0.6-1,1.1-1.9c0.1,0.9,0.1,1.3,0.1,1.7c0,7.4-0.1,14.9-0.1,22.3
		c0,4.6-0.1,9.1,0,13.7c0,0.9,0.3,1.9,0.8,2.6c0.7,1,2.1,1.2,3.3,0.7c1.2-0.5,1.9-1.5,1.9-2.8c0.1-2.8,0.2-5.6,0.2-8.4
		c0-10.9,0.1-21.8,0.1-32.6c0-3.6,0.1-7.2,0-10.8c0-0.9-0.3-2-0.8-2.7c-1.4-1.8-3.9-1.4-5.1,0.8c-1.2,2.2-2.2,4.4-3.3,6.7
		c-2.3,4.7-4.6,9.3-7.1,14.4c-0.6-1.1-0.9-1.7-1.3-2.3c-2.6-5.5-5.3-11-7.9-16.4c-0.4-0.9-0.8-1.7-1.3-2.5c-0.8-1.2-2-1.5-3.4-1.2
		c-1.2,0.2-2,1.2-2.1,2.6c-0.1,1.2-0.2,2.4-0.2,3.6c-0.1,7.1-0.1,14.2-0.2,21.3c0,0.5-0.1,1.1-0.2,1.7c-1,0-1.9,0-2.7,0
		c-9.3,0-18.6,0-27.8,0c-3.8,0-6.1,2-6.8,5.7c-0.1,0.7-0.3,1.4-0.5,2.1c-2.7,10.1-5.5,20.2-8.1,30.3c-8,30.7-15.9,61.4-24.1,92.1
		c-4.9,18.5-10.2,37-15.4,55.4c-1.6,5.7-3.5,11.3-4.4,17.2c-1,6.5-0.8,12.9,1.2,19.2c1.3,4.1,3.8,7.1,7.8,8.5
		c2.3,0.8,4.8,1.5,7.2,1.6c8.1,0.4,16.3,0.6,24.4,0.9c12.1,0.4,24.3,0.9,36.4,1.2c12.4,0.3,24.8,0.5,37.2,0.5
		c13.1,0,26.2-0.3,39.3,0.4c1.8,0.1,3.6,0.6,5.3,0.9c0.1,1,0.2,1.6,0.3,2.2c1.1,5.8,5.5,10.3,11.2,11.4c7.2,1.4,14.1-1.9,17.4-8.5
		c0.9-1.7,1.4-3.5,2.2-5.4c3.1,0,6.2-0.2,9.3,0c7.3,0.5,14.7,1.2,22,1.7c15,1.1,30,1.6,45.1,1.2c13.5-0.4,27-0.6,40.5-1
		c6.9-0.2,13.7-0.4,20.6-0.7c13-0.5,26-1.1,39-1.7c8.1-0.4,16.3-0.7,24.4-1c0.6,0,1.2,0,1.8,0c0.3,0.6,0.5,1,0.7,1.4
		c2.5,4.3,6,7.1,11.2,6.8c2.8-0.1,5.6-0.2,8.3-0.6c9.9-1.3,19.9-1.8,29.9-2.3c13.4-0.6,26.8-1,40.3-1.5c2.3-0.1,4.6,0,7,0
		c0.1,0.6,0.3,1.2,0.2,1.7c-0.3,7.8-0.7,15.6-1.1,23.5c-0.2,3.5-0.5,7-0.6,10.5c-0.1,2.8,1.1,4.8,3.6,6c1.3,0.7,2.8,1.2,4.3,1.4
		c1.9,0.3,3.9,0.2,6,0.3c-0.4,0.9-0.8,1.8-1.2,2.7c-2.3,4.9-3.4,10-3,15.4c0.5,6.6,3.4,11.8,9.4,14.9c5.5,2.9,10.2,6.8,14.4,11.4
		c4,4.4,8.7,7.8,14.3,9.7c0.4,0.1,0.8,0.4,1.4,0.6c-0.4,0.8-0.7,1.5-1,2.3c-1.2,2.9-0.5,5.8,1.8,7.9c1.5,1.4,3.3,2.3,5.4,2.2
		c2.3-0.2,3.8,1,4.6,3.1c0.5,1.4,1.1,2.8,1.4,4.3c0.9,4.8,1.7,9.6,2.5,14.4c1.4,8.1,2.9,16.2,4.3,24.3c0.8,4.6,3.6,7.4,8.2,8.4
		c1.5,0.3,3,0.6,4.5,0.5c6.4-0.1,12.7-1.6,18.8-3.3c5.3-1.5,10.4-3.5,15-6.8c4.3-3.1,6.7-7.4,7.3-12.7c0.3-2.5,0.5-4.9,0.9-7.4
		c0.3-1.6,0.7-3.2,2-4.6c0.6,0.9,1.1,1.6,1.7,2.2c3.3,4.1,8.7,5.1,13.1,2.4c3.5-2.2,5.2-5.5,5.8-9.5c0.2-1.1,0.3-2.2,0.4-3.3
		c2.1-0.8,4-1.6,5.9-2.4c9.8-4.1,15.4-11.3,16.6-21.9c0.2-1.5,0.4-3,0.9-4.5c0.7-2.5,1.8-3.3,4.3-3.3c3.1,0,6.1,0.8,9.3,1.6
		c-0.1,1.1-0.2,2.2-0.3,3.2c-0.6,3.4-2.1,6.4-3.7,9.3c-1.8,3.3-3.2,6.8-3.9,10.5c-1.1,6-2.4,12.1-3.6,18.1
		c-0.8,4.2-1.3,8.4-1.1,12.6c0.4,7.2,4.6,13,10.9,14.8c3.6,1,7.2,1.1,10.9,0.3c4.9-1.1,8.6-4.1,11.7-7.9c2.6-3.2,5.9-5,9.9-5.8
		c2.7-0.6,5.5-1.2,8.1-2c6.4-1.9,11.4-5.7,14.7-11.5c0.5-1,1.1-2,1.7-2.9c1.1-1.6,2.7-2.6,4.6-2.7c2-0.1,4,0.1,6,0.2
		c2.4,0.2,4.8,0.5,7.2,0.6c10,0.4,19.8-1,29.5-3.1c13.8-3.1,27.5-6.6,41.3-9.8c1.2-0.3,2.5-0.3,4.1-0.6c-0.7,1.9-1.2,3.4-1.7,4.9
		c-1,3.2-2.2,6.4-2.9,9.6c-0.7,3.1,1,5.9,3.8,7.3c2.3,1.1,4.6,1,7,0.2c7.5-2.7,12.6-7.9,16-15c3.3-7.1,4.3-14.5,3.6-22.2
		c-0.4-5.1-2.2-9.5-6.2-12.8c-0.3-0.2-0.5-0.5-0.9-0.9c0.8-0.7,1.6-1.2,2.3-1.8C853.3,533.5,854.7,531.7,855.4,529.4z"/>
	<path d="M263.9,225c-5.6,0-11,0-16.8,0c-0.4,2.8-0.8,5.8-1.1,8.8c-0.2,1.5-0.2,3-0.3,4.5c-0.1,2.2-1.3,3.5-3.2,3.4
		c-1.8-0.1-3-1.3-2.8-3.4c0.3-4.3,0.5-8.6,1.1-12.9c1.4-9.8,3.1-19.6,6.2-29c1-2.9,2.2-5.9,3.8-8.5c3.4-5.6,8.5-5.4,11.7,0.3
		c2.1,3.7,3.1,7.9,4,12c2.7,12,4.1,24.1,3.9,36.4c0,0.8,0,1.6-0.1,2.4c-0.3,1.8-1.7,3-3.3,2.9c-1.6-0.1-2.8-1.5-2.9-3.3
		c-0.1-3.4-0.1-6.9-0.1-10.3C264.1,227.2,264,226.2,263.9,225z M248.1,218.5c5.3,0.4,10.2,0.3,15.4,0.1c-0.6-3.7-0.9-7.1-1.7-10.4
		c-0.6-2.8-1.2-5.8-1.9-8.7c-0.7-2.9-1.5-6.7-3.4-9c-2.9,3.3-4.1,9.4-5.2,13.6C250,208.7,249.1,213.6,248.1,218.5z"/>
	<path d="M163.8,224.9c-5.6,0-11,0-16.6,0c-0.3,2-0.7,4-0.9,6.1c-0.2,2.3-0.6,4.6-0.5,6.9c0.1,2.6-1.5,3.8-3.3,3.8
		c-1.9-0.1-3.1-1.7-2.8-4.2c0.7-6.3,1.4-12.7,2.3-19c1.2-8.1,3-16,5.7-23.7c0.8-2.3,2-4.5,3.1-6.7c0.3-0.6,0.7-1.1,1.1-1.5
		c3.1-3.6,7-3.6,9.8,0.4c1.2,1.7,2,3.6,2.7,5.6c2.5,7,3.7,14.4,4.7,21.7c1,7.1,1.4,14.3,1.4,21.5c0,1-0.1,2.1-0.2,3.1
		c-0.2,2-1.7,3.3-3.3,3.1c-1.4-0.2-2.8-1.3-2.8-3.3c0-4.1-0.2-8.1-0.3-12.2C164,225.9,163.9,225.6,163.8,224.9z M157,190.7
		c-0.2,0-0.5,0-0.7-0.1c-4.6,8.6-6.1,18.1-8.1,27.8c5.2,0.3,10.1,0.1,14.9,0.2c0.2-0.5,0.3-0.6,0.2-0.8c-1-7.9-2.2-15.7-4.7-23.2
		C158.2,193.3,157.6,192.1,157,190.7z"/>
	<path d="M328,220.3c-4.7,0-9,0-13.6,0c-0.1,0.7-0.2,1.3-0.2,1.9c0.1,5,0.2,9.9,0.3,14.9c0,0.6,0.1,1.3-0.1,1.9
		c-0.3,1.5-1.5,2.5-3.1,2.5c-1.5,0-2.8-1-3-2.6c-0.2-2-0.3-4-0.3-6c-0.2-15.4,0.3-30.7,1.4-46c0-0.6,0.1-1.1,0.2-1.7
		c0.3-2.1,1.5-3.3,3.2-3.2c1.8,0.1,2.9,1.5,2.9,3.7c-0.1,2.3-0.3,4.6-0.4,6.9c-0.3,6.3-0.6,12.6-0.9,18.9c0,0.7,0.1,1.4,0.1,2.2
		c4.5,0,8.8,0,13.3,0c0.2-4.7,0.4-9.3,0.6-13.8c0.3-5.2,0.6-10.4,0.9-15.5c0.2-2.3,1.6-3.5,3.6-3.1c1.8,0.3,2.6,1.6,2.5,3.8
		c-0.1,2.7-0.4,5.4-0.5,8.1c-0.3,7-0.7,14-0.9,21.1c-0.1,7.5,0,15,0,22.5c0,2.6-1.3,4-3.5,3.7c-1.7-0.2-2.6-1.4-2.7-3.4
		c-0.1-4-0.1-8-0.1-12C328,223.6,328,222,328,220.3z"/>
	<path d="M370.7,202.6c0,7.3-0.2,14.5-1.4,21.7c-0.7,4.6-2.2,8.8-5.3,12.4c-2.7,3.1-6.1,4.9-10.4,4.3c-3.1-0.4-5.5-2.1-7.3-4.6
		c-2.6-3.6-3.5-7.7-3.9-11.9c-0.9-10-0.8-20,0.5-29.9c0.3-2.5,0.9-5,1.5-7.5c0.1-0.5,0.3-1.1,0.5-1.6c0.7-1.7,2.3-2.5,3.8-2
		c1.7,0.5,2.4,2.1,2,4c-0.7,3.2-1.6,6.4-1.9,9.6c-1,10-1.4,19.9,0.2,29.9c0.3,1.7,0.9,3.4,1.8,4.9c2.1,3.7,5,4,8,1.1
		c2.5-2.5,3.7-5.6,4.1-9c0.7-5.5,1.2-11.1,1.4-16.7c0.2-6.1-0.2-12.3-0.3-18.4c0-0.8-0.2-1.6-0.4-2.4c-0.3-2,0.6-3.7,2.4-4
		c1.8-0.4,3.3,0.8,3.6,2.9c0.4,2.9,0.7,5.9,0.8,8.8C370.8,197,370.7,199.8,370.7,202.6z"/>
	<path d="M233.4,194.7c0,1.5-0.1,3-0.4,4.6c-0.3,1.8-1.7,2.9-3.4,2.7c-1.7-0.2-2.8-1.7-2.7-3.6c0.1-1.9,0.3-3.8,0.1-5.7
		c-0.2-1.8-0.9-3.5-2.9-4c-2.2-0.5-4.1,0.1-5.6,1.9c-3.1,3.7-3.3,11.3-0.1,15c1.4,1.6,3.1,3,4.7,4.4c0.8,0.7,1.8,1.3,2.7,2
		c3.2,2.2,5.5,5.1,6.2,9c0.9,4.9,0.8,9.7-1.9,14.2c-2.7,4.4-7.5,6.7-12.2,5.9c-3.4-0.6-5.9-2.5-7.5-5.5c-2.6-4.7-3-9.7-1.5-14.8
		c0.4-1.4,1.4-2.7,2.3-3.8c1.1-1.3,2.9-1.3,4.1-0.3c1.1,1,1.5,2.8,0.6,4.1c-2.3,3.3-1.9,6.8-0.8,10.3c0.6,2,1.8,3.6,4.1,3.9
		c2.4,0.3,4.1-1,5.4-2.9c3.1-4.7,1.8-11.6-2.6-15c-2.4-1.9-4.9-3.6-7.1-5.7c-6.1-6-6.9-16.5-2.1-23.6c2.9-4.2,6.9-5.8,11.8-5.1
		c3.9,0.6,6.5,3,7.7,6.7C233.1,191,233.4,192.9,233.4,194.7z"/>
	<path d="M202,194.9c0,1.5-0.1,2.9-0.4,4.3c-0.4,2-1.9,3-3.6,2.8c-1.6-0.3-2.6-1.5-2.5-3.5c0-1.8,0.2-3.7,0.1-5.5
		c-0.1-1.9-0.9-3.7-2.9-4.3c-2.2-0.6-4.1,0.1-5.6,1.8c-3.4,4-3.4,11.7,0.3,15.5c1.6,1.7,3.3,3.3,5.3,4.5c6.8,4.1,9.1,10.2,8.2,17.8
		c-0.5,4.8-2.5,8.7-6.8,11.2c-5.2,3.1-11.5,1.7-14.7-3.5c-3.1-5.1-3.4-10.6-1.6-16.2c0.4-1.2,1.3-2.4,2.3-3.3c1.1-1.1,2.8-1,3.9-0.1
		c1.1,1,1.5,2.7,0.6,3.9c-2.4,3.2-1.8,6.6-1,10.1c0.2,0.8,0.6,1.5,1,2.1c1.7,2.5,4.5,2.9,6.9,1.1c1.7-1.3,2.8-3.1,3-5.3
		c0.2-2,0.2-4.1-0.1-6.2c-0.2-2.1-1.5-3.7-3.1-4.9c-2.1-1.5-4.1-3-6.1-4.7c-8.1-6.6-8.3-15.5-4.8-23.4c2-4.5,5.6-6.9,10.5-7.1
		c5.1-0.2,9,2.7,10.3,7.6C201.7,191.6,202,193.2,202,194.9z"/>
	<path d="M401.3,225.3c0.2,4.3-0.7,7.9-3.1,11c-5.7,7.5-16.1,6.2-19.7-2.5c-1.6-4-1.9-8.1-0.9-12.2c0.4-1.8,1.2-3.5,2.6-4.8
		c1.3-1.1,3-1.2,4.2-0.3c1.1,1,1.5,2.8,0.6,4.1c-2.3,3.1-1.9,6.5-0.9,9.8c0.6,2.2,1.8,4.2,4.5,4.4c2.5,0.2,4.2-1.4,5.4-3.4
		c2.8-4.6,1.4-11.4-2.8-14.6c-2-1.5-4-2.9-5.9-4.5c-5.5-4.7-7.3-10.7-6-17.7c0.4-2.4,1.2-4.8,2.6-6.9c2.8-4.3,6.9-6,12-5.4
		c4.2,0.6,7.6,3.9,8.2,8.5c0.4,2.7,0.2,5.4,0.1,8.1c-0.1,1.9-1.7,3.1-3.4,2.9c-1.7-0.2-2.8-1.6-2.7-3.6c0.1-2,0.2-4,0-5.9
		c-0.1-1.7-0.9-3.2-2.6-3.7c-1.9-0.6-3.8-0.2-5.3,1.3c-0.1,0.1-0.2,0.2-0.3,0.3c-2.4,2.7-4.2,10.5-0.6,14.8c1.1,1.3,2.3,2.5,3.5,3.6
		c1.1,0.9,2.3,1.8,3.5,2.6C399.1,214.7,401.6,219.5,401.3,225.3z"/>
	<path d="M415.6,190c-0.3,7.3-0.5,14.2-0.7,21.2c2.1,0,3.9,0,5.7,0c1,0,1.9-0.1,2.9,0.1c1.9,0.2,2.9,1.5,2.8,3.2
		c-0.1,1.8-1.2,2.8-3.1,2.9c-2.2,0.1-4.3,0.1-6.5,0.1c-0.5,0-0.9,0.1-1.7,0.1c-0.4,5.7-0.1,11.3-0.2,17.2c2.2,0.3,4.2,0.2,6.3,0.1
		c2.8-0.1,5.6-0.1,8.4-0.1c1.7,0,2.7,0.9,2.9,2.3c0.3,1.5-0.3,2.9-1.6,3.4c-0.6,0.3-1.4,0.3-2.1,0.3c-4,0.1-8,0.1-12,0.1
		c-1.4,0-2.7,0.1-4.1,0.2c-2.7,0.1-3.9-1-3.9-3.6c0-9.3-0.1-18.5,0.1-27.8c0.1-7.3,0.6-14.5,0.9-21.8c0.1-3.1,1-4,4.1-4.1
		c5.5-0.1,11-0.1,16.5-0.1c1.9,0,3.3,1.3,3.3,3c0,1.6-1.4,3.1-3.3,3.1c-3.8,0.1-7.5,0-11.3,0C417.9,190,416.9,190,415.6,190z"/>
	<path d="M276.7,217.1c0.3-8,0.6-14.8,2.4-21.3c0.9-3,1.9-6,3.8-8.5c2.6-3.5,6.1-5.1,10.4-4.5c5.3,0.7,8.8,5.2,8.2,10.5
		c-0.2,2.1-1.6,3.5-3.4,3.4c-1.9-0.1-3-1.6-2.9-3.9c0.2-3.1-2.1-4.7-5-3.6c-1.5,0.6-2.5,1.7-3.2,3.1c-1.8,3.4-2.6,7-3.2,10.7
		c-1.1,7.3-1.3,14.6-0.5,22c0.3,2.3,0.8,4.7,1.7,6.9c1.2,3,3.9,3.2,5.9,0.6c0.7-0.9,1-2.1,1.4-3.3c0.4-1.2,1.3-2,2.6-2.2
		c1.2-0.2,2.3,0.2,2.9,1.3c0.4,0.7,0.5,1.5,0.5,2.3c-0.2,5.7-6.3,10.7-11.9,9.9c-2.2-0.3-3.9-1.4-5.2-3.1c-2.2-2.6-3.2-5.7-3.6-9
		C277.2,224.2,277,220,276.7,217.1z"/>
	<path d="M488.6,187.8c-2.5,0-4.8,0-7,0c-1.4,0-2.7,0.1-4.1,0c-1.7-0.1-2.8-1.3-2.8-2.9c-0.1-1.7,1-2.9,2.7-3.1c0.6-0.1,1.1,0,1.7,0
		c9,0,17.9,0,26.9,0c0.6,0,1.1,0,1.7,0c1.7,0.2,2.8,1.4,2.7,3.1c0,1.6-1.1,2.9-2.8,2.9c-3.1,0.1-6.2,0-9.4,0c-1,0-2,0-3.1,0
		c-0.2,0.7-0.3,1.1-0.4,1.6c-0.4,9.3-0.9,18.7-1.1,28c-0.2,6.4,0,12.8,0,19.2c0,0.3,0,0.6,0,1c-0.1,1.9-1.4,3.3-3.1,3.3
		c-1.6,0-3.1-1.4-3.1-3.3c-0.1-4.6-0.3-9.3-0.2-13.9c0.2-8.1,0.5-16.3,0.8-24.4C488.1,195.6,488.4,191.9,488.6,187.8z"/>
	<path d="M449.5,187.8c-3.1,0-6,0-8.8,0c-0.8,0-1.6,0-2.4,0c-1.5-0.2-2.6-1.4-2.6-2.9c0-1.5,1-2.8,2.6-3c0.6-0.1,1.3-0.1,1.9-0.1
		c9,0,17.9,0,26.9,0c0.4,0,0.8,0,1.2,0c2.1,0.1,3.2,1.2,3.2,3.1c0,1.7-1.2,2.9-3.1,2.9c-3.3,0.1-6.6,0-9.8,0c-0.8,0-1.6,0.1-2.5,0.1
		c-0.2,3.6-0.5,7.1-0.6,10.6c-0.3,10-0.6,20-0.9,30c-0.1,2.6,0.2,5.3,0.3,7.9c0,0.6,0,1.3-0.1,1.9c-0.3,1.5-1.7,2.6-3.1,2.6
		c-1.5,0-2.9-1.2-3-2.9c-0.2-2.9-0.4-5.9-0.3-8.9c0-5.8,0.1-11.7,0.4-17.5c0.2-6.9,0.6-13.9,0.9-20.8
		C449.5,189.9,449.5,189,449.5,187.8z"/>
</g>
</svg>
