<?xml version="1.0" encoding="utf-8"?>
<!-- Generator: Adobe Illustrator 23.0.4, SVG Export Plug-In . SVG Version: 6.00 Build 0)  -->
<svg version="1.1" id="Layer_1" xmlns="http://www.w3.org/2000/svg" xmlns:xlink="http://www.w3.org/1999/xlink" x="0px" y="0px"
	 viewBox="0 0 864 864" style="enable-background:new 0 0 864 864;" xml:space="preserve">
<g>
	<path d="M676,251c5.1,2.9,8.4,7.3,11.7,11.8c1,1.4,2.1,2.9,3.2,4.2c2.1,2.3,4.7,3,7.6,1.8c3-1.3,6-2.7,8.9-4.1
		c3.8-1.8,7.7-3.5,12-4.2c4.1-0.7,8.2-0.6,12.1,0.9c7.6,2.9,11.6,8.7,13,16.5c2,11.3-7.5,22.2-17.2,23.4c-5.4,0.7-10.5-0.5-15.3-2.9
		c-1.1-0.6-2.2-1.3-3.3-1.9c-3.5-2-7.3-2.8-11.3-2.3c-6.2,0.7-12.4,1.3-18.6,2c-6,0.7-11.4-0.9-16.5-3.9c-6.9-4-13.8-8.1-20.7-12.1
		c-1.8-1-3.7-2-5.5-2.8c-2.7-1.3-5.3-0.8-7.7,0.9c-2.7,1.9-4.5,4.5-6.4,7.5c1.9,2.6,3.9,5.3,5.9,8.2c0.9-0.6,1.6-1.1,2.3-1.6
		c3.6-2.6,7.6-3.2,11.9-2.6c0.9,0.1,1.9,0.5,2.7,1c4.8,3.5,10.3,5,16,6.1c3.4,0.7,6.9,1.5,10.3,2.4c3.3,0.9,6.1,2.7,8.4,5.2
		c3.2,3.6,3.6,7.5,1.4,11.7c-1.6,3-4,5.4-6.8,7.3c-0.9,0.6-1.7,1.2-2.9,2c1.2,0.6,2.2,1.1,3.2,1.5c12.8,5.5,25.6,10.9,38.3,16.4
		c12.9,5.6,24.6,13,34.5,23c8.5,8.7,14.3,19,16.8,31c0.5,2.2,0.7,4.4,0.7,6.7c0.1,5.3-3.2,9.4-8.4,10.4c-2.3,0.4-4.8,0.3-7.2,0.4
		c-0.9,0-1.7,0-2.8,0c0.2,0.7,0.2,1.2,0.5,1.7c0.9,1.8,1.8,3.6,2.9,5.2c5.9,8.9,8.8,18.8,9.3,29.4c0.9,16.5-3.3,31.8-11.2,46.2
		c-5.3,9.7-11.6,18.8-18.3,27.6c-4.3,5.6-9.5,10.1-15.4,13.9c-5.3,3.4-10.5,6.8-14.8,11.4c-3.8,4-4.7,8.9-2.4,13.4
		c3.4,7,12,8.8,17.7,3.4c2.1-1.9,3.7-4.4,5.3-6.8c1.8-2.8,3.2-5.9,4.8-8.9c6.4-12.5,16.2-21.4,28.9-27.4c7.5-3.5,15.3-6.2,23.6-7
		c6.4-0.6,12.8-0.3,18.8,2.4c7,3.1,12,8.4,15.5,15.1c3.8,7.3,5.6,15.1,6.7,23.1c1.5,11.6,2.8,23.3,4.9,34.9c1.7,9.7,4.2,19.4,6.4,29
		c1.9,8.7,4.1,17.4,5.7,26.2c2.2,11.9,2.1,23.9-1.1,35.7c-2.1,7.7-5.9,14.5-11.2,20.4c-2.9,3.2-6.3,3.8-10,2.3c-2.5-1-4-2.9-4.2-5.6
		c0-0.6-0.1-1.1-0.2-2c-0.9,0.5-1.7,0.8-2.4,1.2c-2.7,2-4.4,4.7-5.1,8.1c-1.2,5.7-2.4,11.4-3.8,17.1c-1.5,6.3-4.4,11.8-8.6,16.7
		c-3.1,3.6-6.2,7.1-8.5,11.3c-0.9,1.6-1.8,3.2-2.5,4.9c-2,4.6-4.5,8.8-7.4,12.9c-4.5,6.2-9,12.5-13.5,18.7c-2.8,3.9-5,8.1-6.2,12.9
		c-0.5,2-1.6,4-2.8,5.8c-3.9,5.5-8.8,9.9-14.7,13.2c-2,1.1-3.1,2.5-3.2,4.9c-0.2,2.6-0.6,5.2-1.1,7.8c-0.2,1.2-0.7,2.5-1.3,3.6
		c-2,3.7-6.1,4.2-9,1.1c-1.5-1.7-2.6-3.6-3.3-5.8c-2.3-7.2-4.7-14.4-7-21.7c-0.2-0.7-0.5-1.5-1.1-2.2c-0.1,1.9-0.3,3.8-0.3,5.7
		c-0.1,7.4-0.2,14.7-0.3,22.1c0,0.6,0,1.3-0.1,1.9c-0.3,1.4-1.3,2.2-2.7,2.3c-1.5,0.1-2.8-0.6-3.1-2.1c-0.3-1.1-0.4-2.2-0.4-3.3
		c0.3-10.8,0.6-21.6,0.9-32.4c0.2-5.2,0.3-10.4,0.5-15.6c0-1.1,0.2-2.2,0.6-3.3c0.4-1.4,1.5-2.1,2.9-2.1c1.4,0,2.3,0.7,2.7,2
		c0.4,1,0.7,2.1,0.9,3.2c3.4,13.1,6.6,26.2,11,39c0.7,2.1,1.6,4.2,2.5,6.6c1.1-1.6,1.2-3.1,1.3-4.5c0.6-11.6,0.9-23.2,0.3-34.8
		c-0.2-3.1-0.2-6.2-0.3-9.3c0-1.5,0.5-2.7,1.9-3.3c1.9-0.7,3.8,0.3,4.2,2.3c0.3,1.3,0.2,2.7,0.3,4.1c0.2,7.9,0.4,15.8,0.7,23.7
		c0,0.4,0.1,0.8,0.2,1.5c0.6-0.6,1-0.8,1.3-1.3c1.7-2.6,2.7-5.5,3-8.5c0.8-7.7,3.5-14.6,8-20.8c3.4-4.8,6.8-9.7,10.2-14.5
		c4.3-6,8.2-12.2,11.4-18.8c2.5-5.1,5.7-9.8,9.5-14.1c5.3-6,8.4-12.9,9.9-20.7c0.8-4.3,1.8-8.6,3-12.8c1.9-6.9,5.8-12.4,12.1-16
		c4.7-2.7,9.6-3.3,14.7-1.3c1.1,0.4,2.2,0.8,3.4,1.2c1.8-2.2,2.5-4.7,3.2-7.3c1.6-6.5,1.8-13.1,1.3-19.8c-0.8-9.2-3.1-18.1-5.2-27
		c-3.8-15.8-7.3-31.6-9.7-47.7c-1.2-8.1-2-16.2-3-24.3c-0.8-6.4-2.2-12.6-5.4-18.3c-3.7-6.6-9.3-10.1-17-9.3
		c-6.6,0.6-12.9,2.5-18.8,5.4c-3.2,1.5-6.2,3.3-9.2,5.2c-7.7,4.8-12.5,11.9-16.4,19.9c-2,4.2-4.3,8.3-7,12
		c-7.8,10.6-19.1,13.8-31.5,9.4c-10-3.5-15.2-11-17.1-21c-1.8-9.5,1.6-17.3,8.4-23.8c4-3.9,8.7-7.1,13.3-10.2
		c4.4-2.9,8.6-5.9,12-9.8c3-3.5,5.8-7.3,8.4-11.1c5.1-7.5,10.3-15,14.3-23.3c5-10.4,7.6-21.4,6.5-33c-0.8-8.4-3.5-16-8.1-23.1
		c-2.4-3.6-4.3-7.5-5-11.8c-1.6-9.4,5.3-17.5,14.7-17.4c1,0,2,0,3.3,0c-0.3-1.3-0.5-2.4-0.9-3.4c-2.6-8.2-7.4-14.8-13.7-20.5
		c-9.2-8.4-19.9-14.5-31.2-19.4c-21.8-9.3-43.7-18.5-65.6-27.8c-4-1.7-8.1-3.5-12.1-5.3c-2.6-1.2-4.9-1.1-7.3,0.4
		c-1.3,0.8-2.9,1.3-4.4,1.7c-5.3,1.3-8.4,4.8-9.6,9.9c-1.2,5.1,0.2,9.5,4.2,12.9c1.8,1.5,3.5,3.1,5.1,4.7c4.5,4.6,5.2,11,1.8,16.5
		c-3.1,5-7.8,7.7-13.5,8.6c-2.4,0.4-4.9,0.4-7.4,0.6c-5.1,0.2-9,2.4-11.8,6.7c-3.7,5.6-5.5,11.8-6.6,18.4c-1.3,7.5-2.6,15-4.4,22.3
		c-1.6,6.7-5.3,12.5-10.4,17.2c-2,1.8-4.1,3.3-6.7,4.2c-5.7,2-11.7-0.4-14.4-5.8c-1.5-3-2.1-6.2-2-9.5c0.1-6.9,0.3-13.7,0.5-20.6
		c0-0.8,0-1.5,0-2.7c-0.7,0.5-1.1,0.8-1.4,1.1c-4.9,5.4-10.5,10-16.1,14.7c-4.4,3.6-8.7,7.3-12.8,11.2c-6.9,6.8-10.5,15.2-11.5,24.7
		c-0.7,6.7-1.1,13.4-1.5,20.1c-0.7,12.3-3.9,23.8-9.9,34.5c-2.3,4.1-4.6,8.2-7,12.3c-3.8,6.3-4.9,13.1-3.9,20.3
		c0.9,6.4,1.6,12.9,2.2,19.3c0.6,5.6,0,11.2-0.6,16.7c-1.1,9.7,0.4,19.1,3.8,28.2c3,8.1,6.3,16.1,9.2,24.2
		c3.3,9.4,4.6,19.2,4.9,29.2c0.8,22.9-3.6,45-10.4,66.7c-2.3,7.2-4.5,14.5-7.1,21.6c-2.1,5.6-4.3,11.2-7.6,16.2
		c-5.7,8.7-8.6,18.5-9.9,28.8c-0.3,2-0.5,4.1-0.7,6.5c4.2,0,8.1,0,12.2,0c0-0.5,0.1-1.1,0.1-1.7c0.1-5.5,0.1-11,0.2-16.6
		c0-0.6,0-1.1,0.1-1.7c0.2-1.5,1.1-2.6,2.6-2.8c1.4-0.2,2.5,0.4,3.2,1.6c0.6,1,1.1,2.1,1.6,3.2c2.9,6,5.8,12.1,8.9,18.5
		c0.4-0.7,0.8-1.1,1.1-1.6c2.9-6,5.8-11.9,8.8-17.9c0.4-0.8,0.7-1.6,1.2-2.4c0.9-1.5,2.2-2,3.6-1.6c1.5,0.4,2.3,1.4,2.3,3.2
		c0,5.8,0,11.7,0,17.5c0,0.6,0,1.3,0,1.9c-0.1,10.9-0.1,21.8-0.2,32.6c0,0.6,0,1.3-0.1,1.9c-0.3,2-1.3,2.9-3.1,2.9
		c-1.7,0-2.9-1.1-3.1-3c-0.1-1.5-0.1-3,0-4.6c0-1.3,0.1-2.6,0.1-3.8c0.1-9.8,0.1-19.7,0.2-29.5c0-0.4,0-0.8,0-1.7
		c-0.6,0.7-0.9,1.1-1.1,1.5c-1.9,3.7-3.7,7.4-5.5,11.2c-0.3,0.6-0.6,1.1-0.9,1.7c-0.7,1.3-1.7,2.2-3.2,2.1c-1.4,0-2.3-0.9-2.9-2.1
		c-1.7-3.5-3.3-6.9-5-10.4c-0.6-1.2-1.2-2.4-2.1-3.6c-0.1,0.6-0.2,1.1-0.2,1.7c-0.1,12-0.1,24-0.2,36c0,0.6,0,1.1,0,1.7
		c-0.2,1.8-1.5,3-3.2,3c-1.7,0-3-1.1-3.1-3c-0.1-1.5,0-3,0-4.6c0-4.9,0-9.9,0-15.1c-1.4,0-2.8-0.1-4.2-0.1c-5,0-9.9-0.1-14.9,0.1
		c-4.8,0.1-8.6-3.2-8.1-7.9c1.3-10.5,1.7-21.2,5.1-31.4c1.9-5.6,4.1-10.9,7.1-15.9c2.5-4.1,3.9-8.6,5.4-13.1
		c3.4-10.6,7.1-21.2,10.3-31.9c4.2-13.8,6.6-28,7.4-42.4c0.8-14.7-1.4-29-6.8-42.8c-3.1-7.9-5.9-15.9-8.5-23.9
		c-2.7-8.4-3.5-17-2.5-25.8c1.2-10.5,0.4-20.9-1.1-31.3c-1-6.9-1.5-13.9,0.3-20.7c0.7-2.6,1.6-5.2,2.9-7.6
		c3.3-6.2,6.7-12.4,10.2-18.5c4.5-7.7,6.5-16.1,7.1-24.9c0.4-7.4,1-14.8,1.8-22.2c1.7-16.1,8.8-29.4,21.3-39.7
		c4.3-3.5,8.5-7.1,12.7-10.6c5.7-4.7,10.7-10,14.9-16.2c3.4-5,7.1-9.7,11.9-13.4c0.4-0.3,0.9-0.7,1.3-1c2.6-2.1,5.4-2.2,8.3-0.7
		c2.9,1.5,4.3,3.9,4.1,7.3c-0.4,5.4-1,10.8-1.2,16.3c-0.4,8-0.6,16-0.8,24c0,0.6,0.1,1.3,0.1,2c1-0.3,1.1-1.1,1.4-1.8
		c1.9-4.5,2.9-9.3,3.8-14.1c1.2-6.7,2.4-13.4,3.8-20c1.7-8,5.9-14.7,11.6-20.3c4.4-4.3,9.9-6.3,16-6.9c3.1-0.3,6.2-0.7,9.3-1
		c0.2-1.4-0.8-1.8-1.5-2.3c-3.9-3.3-7.1-7.2-8.6-12.2c-2.5-8.8-1.9-17.3,2.6-25.3c3.2-5.7,8.2-9.3,14.3-11.4c2-0.7,4.1-1.2,6.2-1.9
		c1.6-0.6,3-1.3,4.8-2.1c-0.9-1.7-1.6-3.2-2.5-4.6c-8-12.8-19.5-19.9-34.4-21.8c-10.6-1.3-20.3,1.2-29.3,6.9c-3,1.9-6.1,3.8-9.1,5.9
		c-7.3,5.1-15.2,6.2-23.8,4.5c-2-0.4-3.9-0.8-5.9-1.1c-3.9-0.7-7.5,0-10.8,2c-4.3,2.7-7.7,6.2-10.3,10.5c-3,4.9-5.9,9.9-8.8,14.9
		c-2.3,3.9-4.7,7.6-7.8,10.9c-3.3,3.4-7.1,6.1-11.8,6.8c-1.6,0.3-3.4,0.3-5,0.1c-4.4-0.7-7.4-4.2-7.4-9.3c0-3.6,0.5-7.3,1.1-10.9
		c0.5-2.9,1.5-5.7,2.3-8.6c0.1-0.4,0.2-0.7-0.1-1.3c-0.8,0.9-1.6,1.8-2.3,2.7c-2,2.7-3.8,5.5-5.8,8.2c-1.2,1.6-2.4,3.2-3.9,4.6
		c-5,4.6-13.1,2.9-15.9-3.3c-0.8-1.8-1.5-3.6-2.5-6c-0.7,1.3-1.3,2.1-1.7,3c-9.7,20.4-21.4,39.7-35.3,57.6c-4.4,5.6-9,11-13.5,16.6
		c-2.3,2.8-5.2,3.6-8.6,2.9c-5.2-1.1-8.8-4.1-10.1-9.4c-0.6-2.6-1-5.2-1.4-7.8c-0.2-0.9-0.3-1.7-0.4-2.6c-0.2-1.5-1-2.5-2.4-3.1
		c-0.2-0.1-0.4-0.2-0.7-0.3c-5.8-2.4-8.6-6.9-9.5-12.8c-0.6-4.4-0.1-8.8,0.7-13.1c1-5.3,2.1-10.5,1.7-15.9c-0.5-7-3.3-12.6-9.4-16.3
		c-6.3-3.9-10.6-9.4-12.5-16.7c-0.4-1.5-1-2.9-1.6-4.3c-1-2.4-2.9-3.7-5.4-3.7c-6.4,0-12.8-0.1-19.2,0.2c-9.4,0.4-18.5-0.6-27.1-4.8
		c-5.8-2.9-11.6-5.7-17.6-8.3c-9.9-4.4-20.3-7.3-30.6-10.6c-22.4-7-44.8-14.1-67.2-21.1c-1.9-0.6-3.8-1.3-5.6-2.2
		c-2.9-1.3-4.1-3.7-3.7-6.8c0.2-1.3,0.4-2.7,0.6-4c0.5-3.1-0.6-5.7-2.8-7.8c-2.9-2.6-6.3-4.1-10.1-4.6c-3.2-0.5-6.4-0.7-9.5-1.1
		c-1-0.1-1.9-0.2-2.9-0.4c-5.6-1.1-8-7.1-4.7-11.7c0.8-1.1,1.8-2.1,2.9-2.8c14.6-9.7,29.2-19.3,43.9-28.9c6.1-4,12.6-7,19.9-7.8
		c2.9-0.3,5.9-0.7,8.8-0.6c11.4,0.2,21.7-3,31.2-9.4c5.7-3.9,11-8.2,16.1-12.9c8.5-7.9,17-15.8,25.6-23.6c9-8.2,18.5-15.8,29-22
		c11.9-7,24.6-11.6,38.2-13.3c8.9-1.1,17.7-0.9,26.5,0.6c3.3,0.5,6.6,1.2,9.9,1.6c2.9,0.4,4.8,2,6,4.6c3.1,6.4,1.2,15.4-6.2,19.5
		c-2.1,1.2-4.5,2.2-6.9,2.8c-7.7,2-14.5,5.7-20.5,11c-10.4,9.2-19.8,19.3-28.1,30.4c-0.5,0.6-0.9,1.3-1.2,2.2
		c0.4-0.2,0.9-0.4,1.3-0.6c3.1-1.8,6.4-2.7,10.1-2.6c7.4,0.1,14.7,0,22.1,0.1c12.3,0.1,22.7,4.7,31,13.9
		c7.1,7.9,13.1,16.5,18.1,25.9c2.4,4.5,3.8,9.3,4.6,14.3c0.1,0.5,0.2,1.1,0.3,1.7c2.1,1,4.4,1,6.5,0.4c3.6-0.9,7.2-2.1,10.8-3.3
		c3.7-1.2,7.4-1.8,11.3-1.3c2.7,0.3,5.2,1,7.5,2.3c4.5,2.6,8.9,2.5,13.3-0.3c1.7-1,3.6-1.8,5.5-2.3c4.2-1.2,7.1,0.1,9.2,4
		c0.2,0.4,0.4,0.8,0.8,1.4c2.4-2.3,4.6-4.4,6.9-6.5c11.9-11.5,26.3-18,42.7-19.8c8.1-0.9,16.2-1.3,24.4-1.9
		c14.3-0.9,28.5-2.5,42.6-5.1c8.5-1.6,17-1.9,25.5-0.2c5.2,1,7.3,4,6.6,9.3c-0.1,0.9-0.2,1.9-0.4,2.8c-1,4.3-2.1,8.5-3.2,12.8
		c-0.3,1.2-0.5,2.3-0.6,3.5c-0.1,3.1,1.1,4.7,4.1,5.3c3,0.6,6,1.1,9,1.1c12-0.2,23.7-1.8,35.1-5.6c3-1,6.2-1.7,9.3-2
		c10.2-1,18.5,6.5,18.5,16.8c0,3-0.7,6-1.3,9c-1.1,4.6-2.4,9.1-3.6,13.7C676.3,248.4,676.2,249.6,676,251z M141.1,208.6
		c1.8,1,3.3,1.8,4.8,2.7c7.3,4.5,12,11,13.2,19.6c0.3,2.3,1.2,3.2,3.2,3.6c0.2,0.1,0.5,0.1,0.7,0.2c21,6.5,42,13.1,62.9,19.6
		c8.7,2.7,17.5,5,25.9,8.7c6.9,3.1,13.7,6.4,20.6,9.7c4.3,2.1,8.7,3.8,13.5,3.9c4.4,0.2,8.8,0,13.2,0c5-0.1,9.9-0.4,14.9-0.2
		c10.6,0.5,17.6,5.5,20.6,15.6c1.7,5.6,5,9.9,9.8,13.3c2,1.4,3.8,2.9,5.5,4.7c5.9,6.4,8.3,14.2,8.5,22.8c0.2,6.2-1,12.3-1.9,18.3
		c-0.4,2.9-0.8,5.8-1.2,8.7c0.5,0.3,0.8,0.4,1.1,0.5c6.8,2.1,10.6,6.8,11.5,13.9c0.1,0.6,0.4,1.3,0.7,2.2c0.9-1,1.5-1.7,2.1-2.5
		c19.2-24,34.6-50.1,45.8-78.7c0.6-1.6,1.2-3.1,2-4.6c1.7-3.5,4.6-4.6,8.3-4.3c3.4,0.3,5,2.4,6,5.4c0.3,0.8,0.5,1.7,0.8,2.5
		c1,3.5,2,7.1,3,10.6c0.2,0.6,0.5,1.2,0.9,2.2c1.7-1.9,3.2-3.6,4.7-5.2c3.9-4.1,8.4-7.3,13.9-8.4c8.4-1.7,14.1,2.8,15.7,9.3
		c0.5,1.9,0.3,4,0.5,5.9c0,0.6,0.1,1.1,0.3,2.2c1.1-1.8,1.9-3.1,2.8-4.4c2-3,3.8-6.1,5.9-9c4.1-5.8,9.2-10.4,15.6-13.6
		c5.6-2.8,11.5-3.9,17.7-2.8c3,0.6,6,1,9,1.6c3.5,0.8,6.7,0,9.6-1.8c2.8-1.8,5.5-3.6,8.2-5.4c10.5-7.1,22-10.8,34.7-10.9
		c11.6-0.1,22.5,2.7,32.4,8.9c0.7,0.5,1.5,0.8,2.3,1.3c1.7-1.9,3.3-3.7,4.9-5.4c2.3-2.6,5-4.8,8.1-6.3c6.2-3.1,12.4-2.6,18.5,0.1
		c3.5,1.6,6.9,3.4,10.3,5.2c6.2,3.4,12.3,6.8,18.5,10.2c3.3,1.8,6.7,2.2,10.5,0.9c-2-2.6-3.9-5-5.6-7.5c-2.7-3.8-5.9-7.1-10.2-9.2
		c-2.7-1.3-4.1-3.7-4.4-6.7c-0.5-4.7-0.2-9.4,1.2-14c1.2-4.1,2.5-8.3,3.7-12.4c0.4-1.2,0.7-2.5,0.8-3.7c0.2-2.2-1.2-3.5-3.4-3.1
		c-1.2,0.2-2.3,0.5-3.5,0.9c-2.3,0.7-4.5,1.6-6.8,2.3c-11.8,3.4-23.8,4.8-36,4.9c-5.7,0-11.1-0.9-16.2-3.6c-4.1-2.2-7.1-5.3-8.9-9.7
		c-1.7-4.2-1.6-8.4-0.7-12.7c0.7-3.3,1.3-6.6,1.9-10.1c-1.2-0.1-2.1-0.3-3.1-0.2c-6.3,0.7-12.7,1.3-19,2.4c-11.9,2-23.9,3.2-36,4.1
		c-8.8,0.6-17.7,1.5-26.5,2.4c-8.5,0.9-16,4.2-22.9,9.2c-4.7,3.5-9,7.5-13,11.7c-2.3,2.4-4.4,4.9-6.7,7.2c-3.3,3.2-6.6,3.5-10.4,1
		c-1.4-0.9-2.8-2-3.8-3.3c-1.8-2.4-3.9-2.7-6.6-1.7c-3.5,1.3-7.2,1.7-10.9,0.7c-2.7-0.8-5.4-1.9-8-3.1c-2.5-1.2-5-1.4-7.7-0.6
		c-3.3,1.1-6.7,2.1-10.1,3.1c-5.6,1.6-11.3,2.3-17.1,1.2c-5.2-1-8.7-3.9-10-9.1c-0.4-1.7-0.6-3.5-0.9-5.2c-0.4-2.9-0.7-5.8-2.1-8.3
		c-4.6-8.7-9.8-17.1-16.4-24.5c-5-5.5-11.2-8.9-18.6-9.2c-7.3-0.3-14.5-0.3-21.8-0.3c-2.3,0-4.4,1-5.9,2.8
		c-4.7,5.6-10.3,10.2-15.9,14.9c-3,2.4-6.3,3.4-10.1,2.9c-5.2-0.7-7.9-3.7-8-9c-0.2-7,2.1-13.4,5.4-19.4c4.1-7.4,9-14.1,14.4-20.6
		c8.4-10,17-19.8,27-28.2c5.8-4.9,12-9.3,19.3-11.9c0.3-0.1,0.6-0.3,0.9-0.5c-0.1-0.2-0.1-0.4-0.2-0.4c-0.3-0.1-0.6-0.2-0.9-0.2
		c-9.3-0.5-18.5,0.2-27.6,2.6c-11.8,3.2-22.2,8.9-31.9,16.2c-11.2,8.3-21.2,18-31.3,27.5c-7.5,7.1-15,14.1-23.3,20.3
		c-13.2,9.8-27.8,15.1-44.4,14.9c-6.8-0.1-13.2,1.5-18.9,5.2c-9.3,5.9-18.5,12-27.7,18.1C142.1,207.8,141.8,208.1,141.1,208.6z
		 M637.1,310.7c4,1.7,7.9,3.4,11.8,5.1c1.3,0.6,2.6,0.6,3.9,0c2.5-1.1,5-2,7.5-3.1c1.1-0.5,2-1.2,3.2-1.9c-8.4-2.5-16.5-5-24.8-7.5
		C638.2,305.8,637.7,308.1,637.1,310.7z M710.9,279.5c0,0.2-0.1,0.5-0.1,0.7c1.4,0.7,2.7,1.5,4.1,2.2c2.4,1.2,4.8,2.4,7.4,3.4
		c2.2,0.8,4.5-0.1,5.9-2c1.3-1.8,1.3-4.4,0.1-6.3c-1.3-1.9-3.7-3.1-5.8-2.3C718.6,276.6,714.8,278.1,710.9,279.5z"/>
	<path d="M211.7,107.6c-7.9,0.6-15.9-5.3-17.8-15c-1.1-5.6-0.2-10.8,2.2-15.9c2.4-5.2,5.9-9.7,10-13.7c7.6-7.6,15.7-14.6,24.7-20.5
		c5.3-3.5,10.9-6.3,16.9-8.6c3.1-1.1,6-2.7,8.9-4.2c4.8-2.5,9.6-5.1,14.9-6.5c6.4-1.7,12.7-1.6,18.8,0.8c7,2.7,11.3,7.7,11.8,15.4
		c0.3,4.4-1.1,8.3-3.9,11.8c-3.9,4.9-8.4,9.2-13.1,13.4c-13.4,12.2-27.8,23.1-43.9,31.5c-7,3.6-14.3,6.7-21.5,10
		C217.1,107.3,214.4,107.7,211.7,107.6z M207.4,87.6c0.1,0,0.2,0.1,0.2,0.1c0.1,0.9,0.1,1.8,0.4,2.6c0.7,2.6,2.6,3.8,5.3,3.2
		c0.8-0.2,1.5-0.5,2.3-0.8c15.2-6.2,29.3-14.2,42.4-24c8.9-6.7,17-14.2,25.1-21.9c1.3-1.3,2.6-2.6,3.7-4c1.8-2.4,1.5-3.7-1.2-5.1
		c-2.1-1.1-4.4-1.5-6.7-1.3c-3.7,0.2-7.1,1.7-10.5,3.3c-5.1,2.5-10.2,5-15.4,7.3c-13.2,5.9-24.9,13.9-35.2,24.1
		c-3.5,3.5-6.6,7.4-8.8,11.9C208.3,84.4,207.9,86,207.4,87.6z"/>
	<path d="M669.4,824.3c-0.4,4.2-0.8,8.3-1.2,12.3c-0.1,0.6,0,1.1-0.1,1.7c-0.2,1.9-1.4,2.8-3.3,2.8c-1.8,0-2.8-1-3-2.8
		c-0.1-1.4-0.1-2.7,0-4.1c1.3-12.4,3-24.8,6.8-36.7c1.2-3.7,2.8-7.3,4.4-10.8c1-2.1,2.7-3.8,5.2-4.3c2-0.3,3.6,0.4,4.9,1.8
		c1.7,1.8,2.9,3.9,3.6,6.2c1.3,4.8,2.7,9.5,3.6,14.4c2,9.7,2.8,19.6,2.8,29.5c0,1.3-0.1,2.6-0.2,3.8c-0.2,2-1.2,3-3,3.1
		c-1.8,0-3.1-1.1-3.2-3.1c-0.1-3,0-5.9-0.1-8.9c0-1.6-0.2-3.2-0.3-4.9C680.9,824.3,675.4,824.3,669.4,824.3z M685.9,817.5
		c0-0.7,0-1.1,0-1.4c-1.1-8.2-2.7-16.4-5.3-24.3c-0.3-0.8-0.8-1.5-1.2-2.3c-3.6,4.6-8.9,23.3-8,28
		C676.1,817.5,680.8,817.5,685.9,817.5z"/>
	<path d="M574.6,812.5c4.5,0.8,8.8,0,13.3,0.1c0.2-1.4,0.4-2.7,0.4-4c0.4-7.9,0.7-15.8,1.1-23.7c0.1-1,0.2-2.1,0.5-3.1
		c0.5-1.6,1.8-2.4,3.3-2.2c1.5,0.2,2.6,1.2,2.6,2.9c0,3.2-0.2,6.4-0.4,9.6c-0.3,6.4-0.6,12.8-0.9,19.2c-0.2,3.8-0.3,7.5-0.3,11.3
		c0,4.1,0.2,8.1,0.2,12.2c0,1,0.1,1.9-0.1,2.9c-0.3,1.7-1.5,2.4-3.1,2.4c-1.6-0.1-2.8-1-2.9-2.6c-0.2-2.3-0.3-4.6-0.4-6.9
		c-0.1-3-0.1-6.1-0.1-9.1c0-0.5-0.1-1.1-0.2-2c-4.4,0-8.8,0-13.4,0c0,1.5-0.1,2.9-0.1,4.3c0.1,4.4,0.1,8.8,0.2,13.2c0,0.3,0,0.6,0,1
		c-0.2,2-1.5,3.2-3.3,3.1c-1.6-0.1-2.8-1.3-2.9-3.2c-0.1-3.1-0.2-6.2-0.3-9.3c-0.4-14.2,0.6-28.3,1.3-42.4c0-1,0.2-1.9,0.4-2.8
		c0.4-1.8,1.5-2.7,3.2-2.6c1.7,0.1,2.8,1.2,2.9,3.2c0,0.8,0,1.6-0.1,2.4c-0.4,8.3-0.8,16.6-1.2,24.9
		C574.6,811.4,574.6,811.8,574.6,812.5z"/>
	<path d="M646.7,816.2c-1.7,0-3.3,0-4.9,0c-0.8,0-1.6,0-2.4-0.1c-1.4-0.3-2.3-1.3-2.4-2.6c-0.1-1.3,0.6-2.6,1.8-3.1
		c0.6-0.3,1.4-0.4,2.1-0.4c3.1,0.1,6.2,0.2,9.3,0.3c2.2,0.1,3.1,0.9,3.2,3.1c0.1,5,0.1,10.1-1.1,15c-0.9,3.4-2.3,6.5-4.9,8.9
		c-4.8,4.6-11.2,3.8-14.8-1.7c-1.7-2.7-2.8-5.6-3.2-8.7c-1.4-11-1.3-21.8,1.7-32.6c0.8-3,2-5.7,3.7-8.3c3.1-4.7,8.8-6.7,14.1-4.8
		c4.5,1.6,7.1,5.8,6.3,10.6c-0.3,2-1.6,3.2-3.3,3.2c-1.8,0-2.8-1.2-3-3.4c0-0.1,0-0.2,0-0.2c0-1.6-0.2-3.2-1.8-3.9
		c-1.8-0.8-3.7-0.7-5.2,0.5c-1,0.8-1.9,1.9-2.6,3.1c-1.7,2.8-2.5,6-3.1,9.3c-1.5,8.7-1.8,17.5-0.2,26.2c0.3,1.9,1.1,3.9,2.1,5.5
		c1.4,2.3,3.3,2.3,5.1,0.3c0.5-0.5,0.9-1.1,1.3-1.7C646.6,826.9,647.6,820.9,646.7,816.2z"/>
	<path d="M536.1,815.9c0.2-8,0.4-14.9,2.5-21.4c0.9-2.8,2-5.6,3.5-8.1c2.7-4.7,8.6-6.5,13.6-4.4c4.2,1.8,6.7,6.6,5.5,10.8
		c-0.5,1.9-1.7,2.8-3.4,2.7c-1.7-0.2-2.7-1.3-2.8-3.3c0-0.3,0-0.6,0-1c-0.2-3.3-2.8-4.7-5.5-3c-1.1,0.7-2.1,2-2.8,3.2
		c-1.8,3.1-2.5,6.6-3,10c-1.2,8.2-1.6,16.4-0.3,24.6c0.3,1.9,0.9,3.8,1.6,5.5c1.2,2.8,3.5,3,5.4,0.6c0.6-0.8,1-1.8,1.5-2.7
		c0.3-0.6,0.5-1.4,0.9-1.9c0.8-1.1,1.8-1.5,3.2-1.2c1.3,0.3,2.2,1.4,2.3,2.7c0,0.2,0,0.3,0,0.5c0.1,4-3.5,8.8-7.8,10.2
		c-4.2,1.3-8.2-0.2-10.7-4.2c-1.8-2.8-2.6-6-2.9-9.3C536.5,822.3,536.3,818.5,536.1,815.9z"/>
	<path d="M517.1,787c-0.9-0.1-1.4-0.2-2-0.3c-2-0.5-2.8-1.6-2.5-3.7c0.2-1.7,1.1-2.4,3.2-2.5c3.4-0.1,6.9-0.2,10.3-0.1
		c0.9,0,2,0.2,2.7,0.7c1.8,1.3,1.3,4.5-0.9,5.3c-1.1,0.4-2.3,0.4-3.5,0.6c-1.6,4.5-2.8,40.2-1.5,46.9c0.9,0.1,1.8,0.1,2.8,0.2
		c2,0.3,3,1.6,2.9,3.4c-0.1,1.6-0.9,2.6-2.5,2.7c-4.3,0.2-8.6,0.3-12.9,0.3c-0.5,0-1.1-0.2-1.6-0.4c-1.2-0.5-1.9-1.8-1.7-3.1
		c0.1-1.3,0.8-2.3,2.1-2.6c1.1-0.2,2.3-0.3,3.8-0.4C516.2,818.2,516.6,802.7,517.1,787z"/>
	<path d="M616.3,786.8c-1.2,15.6-1.7,31.2-1.3,46.8c1.1,0.1,1.9,0,2.8,0.2c0.9,0.2,1.9,0.6,2.5,1.2c0.9,0.8,1,2,0.6,3.1
		c-0.4,1.2-1.3,1.9-2.5,1.9c-4.2,0.1-8.5,0.3-12.7,0.3c-1.9,0-3-0.9-3.3-2.2c-0.5-2.2,0.5-3.8,2.9-4c0.9-0.1,1.7-0.1,2.9-0.2
		c0.5-15.6,0.9-31.1,1.4-46.8c-0.9-0.2-1.6-0.3-2.4-0.6c-1.7-0.5-2.5-1.9-2.3-3.5c0.2-1.6,1.2-2.5,3-2.5c3.7-0.1,7.4-0.2,11-0.2
		c2.2,0,3.3,1.1,3.4,2.9c0.1,1.9-1.1,3.2-3.2,3.4C618.2,786.7,617.3,786.7,616.3,786.8z"/>
	<path d="M563.6,324.4c0.1,2-0.7,3.8-2.1,5.2c-1.5,1.4-2.1,3.1-2.4,5.1c-0.5,3.8-1.3,7.5-4,10.6c-1.9,2.2-4.2,3.1-7,2.8
		c-4.7-0.5-7.8-5.4-6.3-9.9c1.1-3.3,2-6.7,3-10.1c0.3-1.1,0.6-2.3,0.9-3.5c1.2-3.6,3.7-6.1,7.2-7.5
		C558.3,315,563.6,318.6,563.6,324.4z"/>
	<path d="M505.4,388.3c0.2-1.1,0.3-2.7,0.7-4.2c1-3.8,3.9-5.6,8.4-5.4c3.5,0.2,5.8,2.5,6.3,6.3c0.3,2.8,0.6,5.5,0.9,8.3
		c0.3,4-1.9,7.2-5.5,8.1c-3.6,1-7-0.7-8.8-4.4C506.1,394.4,505.6,391.6,505.4,388.3z"/>
	<path d="M507.9,403c-0.1,3.1-1.5,5.4-4.3,6.6c-2.5,1-5.2,1.6-7.9,1.3c-5.3-0.6-8.3-5.4-6.5-10.3c0.8-2.3,2.5-3.7,4.7-4.4
		c2-0.6,4-0.9,6.1-1.1C504.6,394.9,508,398.4,507.9,403z"/>
	<path d="M535.2,311.3c1.5,0.2,3,0.3,4.5,0.7c3.2,1,5.1,4,4.9,7.7c-0.2,3.3-2.3,6-5.6,6.6c-1.9,0.4-4,0.6-5.9,0.4
		c-3-0.2-5.4-1.7-6.5-4.6c-1.1-2.9-0.9-5.8,1.2-8.4c1.2-1.5,3-2.1,4.8-2.3c0.9-0.1,1.8,0,2.6,0C535.2,311.5,535.2,311.4,535.2,311.3
		z"/>
	<path d="M561.2,306.4c0.4,4.8-5.9,8.7-10.5,6.5c-4.5-2.1-7-7.3-5.8-12.2c1.3-5.1,8.3-7.2,12.2-3.7
		C559.1,298.8,561.2,303.6,561.2,306.4z"/>
	<path d="M526.3,348c1.2,0.1,2,0.1,2.8,0.2c4.2,0.6,6.7,3.5,6.7,7.7c0,3.1-1.4,5.4-4.2,6.6c-3.6,1.6-7.2,1.4-10.6-0.5
		c-2.9-1.6-4.1-4.4-3.7-7.7c0.4-2.9,2.6-5.3,5.8-5.9C524.4,348.1,525.6,348,526.3,348z"/>
	<path d="M563,307c-0.3-6.3,6.5-10.2,11.7-9.3c3.5,0.6,6.1,5.7,5.1,9.4c-0.9,3.4-5.4,7.1-9,7.3C566.3,314.6,563,311.5,563,307z"/>
</g>
</svg>
