<?xml version="1.0" encoding="utf-8"?>
<!-- Generator: Adobe Illustrator 23.0.4, SVG Export Plug-In . SVG Version: 6.00 Build 0)  -->
<svg version="1.1" id="Layer_1" xmlns="http://www.w3.org/2000/svg" xmlns:xlink="http://www.w3.org/1999/xlink" x="0px" y="0px"
	 viewBox="0 0 864 864" style="enable-background:new 0 0 864 864;" xml:space="preserve">
<g>
	<path d="M555.1,820.4c0,4.8,0,9.4,0,13.9c0,0.9,0,1.8-0.2,2.6c-0.4,1.6-1.7,2.5-3.4,2.4c-1.6-0.1-2.8-1.3-3.1-2.9
		c-0.1-0.6,0-1.3,0-1.9c-0.1-4.2-0.2-8.5-0.3-12.7c0-0.7-0.1-1.4-0.2-2.3c-6.8,0-13.4,0-20.3,0c-0.3,2.6-0.8,5.3-1,7.9
		c-0.3,2.7-0.4,5.4-0.6,8.1c0,0.6-0.1,1.3-0.4,1.8c-0.6,1.3-2.2,2-3.6,1.8c-1.5-0.3-2.7-1.5-2.7-3.2c0.1-3.2,0.2-6.4,0.6-9.6
		c1.4-11.4,3.1-22.7,6.2-33.7c1.2-4.5,2.7-8.9,4.5-13.1c0.9-2.2,2.3-4.2,3.9-6c2.8-3,6.3-2.9,9.3,0c1.9,1.8,2.9,4.2,3.8,6.6
		c2.1,5.6,3.3,11.4,4.3,17.2c0.8,4.4,1.4,8.8,2,13.3c0.1,0.4,0.2,0.8,0.3,1.3c1.1-0.1,2.1,0,3.1-0.3c6.9-1.7,13.9-1.8,21-1.7
		c13.2,0.2,26.4,0.1,39.6,0.1c2.8,0,5.6,0,8.4,0c0.7-2.3,0.6-4.5,0.3-6.6c-0.4-3.1-1-6.2-1.4-9.2c-0.6-4.1-0.6-8.1,0-12.2
		c0.7-4.1-0.2-7.9-2.6-11.4c-2.4-3.6-5.5-6.5-9.1-8.7c-4.5-2.8-9.1-5.4-13.7-7.8c-13.2-7-24-16.6-31.8-29.5
		c-1.5-2.5-3.3-4.7-4.9-7.1c-4.4-6.6-10.5-11.1-18-13.7c-5.7-2-11.6-3.7-17.3-5.6c-3.4-1.1-6.8-2.3-10.2-3.6
		c-14.7-6-24-16.8-28.2-32.1c-1.9-7.1-2.8-14.4-3.1-21.8c-0.5-13.2,0.8-26.2,2.6-39.2c1.3-9.4,4.6-17.9,9.9-25.7
		c1.6-2.4,3.3-4.7,4.8-7.2c1.6-2.6,1.3-3.8-1.3-5.2c-0.7-0.4-1.4-0.7-2.2-1c-10.5-4.4-15.5-13.3-13.8-25.1
		c1.4-9.4,6.6-16.5,13.8-22.3c2.9-2.3,6.2-4.2,9.4-6.2c3.5-2.2,7-4.2,10.5-6.2c10.9-6.2,16.7-15.7,18.9-27.8c1-5.3,1.2-10.6,1.3-16
		c0.3-9.4,0.3-18.7,0.7-28.1c0.3-7.9,0.9-15.8,3-23.5c3-11.3,8.7-21,16.1-30c5.3-6.4,11.3-12,17.5-17.4
		c20.1-17.4,40.1-34.8,60.7-51.6c23.4-19,47.5-37.1,72.6-53.9c9.4-6.3,19.1-12.2,29.6-16.7c10.7-4.6,21.8-7.4,33.4-8
		c1.5-0.1,3-0.4,4.5-0.6c0.4-0.1,0.7-0.2,1.3-0.4c-0.4-0.3-0.7-0.5-1-0.6c-5-1.4-9.4-4-13.8-6.6c-3.7-2.2-7.4-4.4-11.2-6.6
		c-7.9-4.6-16.5-6.5-25.6-5.5c-7.5,0.8-14.9,2.1-22.3,3.3c-6.7,1.1-13.4,2.1-20.3,2c-3.3,0-6.5-0.5-9.8-0.6c-4-0.2-6.1-3.8-6.3-6.9
		c-0.2-2.5-0.5-5.1-1-7.6c-0.2-1.1-0.8-2.2-1.3-3.5c-2.5,1.1-4.6,2.3-6.5,3.8c-5.7,4.6-11.4,9.4-17.2,13.8c-3.4,2.6-7,5.1-10.8,7.1
		c-9,4.8-18,4.3-26.8-0.7c-4.1-2.3-7.7-5.2-11-8.4c-11.2-10.9-22.3-21.8-33.5-32.6c-1.4-1.4-3-2.7-4.6-3.8c-3.6-2.4-6.5-1.6-8.6,2.2
		c-1.7,3-2.7,6.4-3,9.8c-0.3,3.4-0.6,6.9-0.3,10.3c0.4,5-4.8,9.2-10.2,7.1c-4.6-1.8-8-4.9-10.1-9.4c-1.8-4.1-2.6-8.4-3.4-12.7
		c-0.6-3.3-1.2-6.6-1.9-9.9c-0.7-3.3-2.8-5.3-6.1-6c-2-0.4-4-1-6-1.7c-6.2-2.4-9.5-7.1-10-13.7c-0.2-2.1-0.1-4.2-0.3-6.2
		c-0.2-2.9-0.9-3.7-3.6-4.3c-23.7-5.2-46.2-2.3-67.2,10.2c-3.3,2-6.8,3.6-10.4,4.9c-7.5,2.7-14,0.8-19.5-4.8c-1.2-1.3-2.4-2.6-3.5-4
		c-4.4-6.1-10.4-9.5-17.5-11.5c-6.7-1.9-13.6-2.9-20.5-3.8c-7-1-13.9-2-20.7-3.9c-6-1.7-11.6-4.2-16.5-8.1
		c-4.4-3.5-7.7-7.8-10.3-12.8c-1-1.9-2.1-3.8-3.3-5.5c-2.5-3.6-6.2-5.4-10.5-5.2c-4,0.2-8,0.7-11.9,1.1c-5.1,0.5-10.1,0.3-15-1.2
		c-4.1-1.3-7.8-3.3-10.6-6.7c-1.3-1.6-2.8-2.3-4.8-2.3c-0.7,0-1.4,0-2.2,0c-33.8,0-67.5-0.1-101.3,0c-10.5,0-20.9-0.6-31.4-1.2
		c-4.7-0.2-9.4-0.1-14.1,0.1c-2,0.1-3.9,0.8-5.8,1.2c-1.2,0.3-1.8,1.1-1.5,2.3c0.4,1.7,0.7,3.5,1.5,5c3.2,6.6,6.6,13.1,9.9,19.7
		c2.3,4.6,3.5,9.4,2.8,14.6c-0.4,2.7-0.9,5.4-1.6,8c-1.5,5.5-3.1,10.9-4.6,16.4c-2.8,10.5-4.1,21.2-3.9,32
		c0.3,19.3,4.8,37.7,13.5,54.9c3.5,7.1,6.8,14.3,8.6,22.1c1.5,6.3,2.1,12.8,2.4,19.2c0.3,8.8,0.5,17.6,0.8,26.4
		c0.4,11.5,0.9,23,1.3,34.5c0.3,7.5,0.3,15,0.7,22.5c1,20.8,3.1,41.5,8.6,61.6c2.1,7.7,4.9,15.2,7.5,22.8c3,8.6,6.2,17.1,8.4,26
		c2,8.2,3.2,16.5,2.7,24.9c-0.6,10.4-3,20.2-8.9,29c-3.1,4.7-7.1,8.7-11.8,11.8c-2.1,1.4-4.3,2.8-6.3,4.3c-1.8,1.3-2,2.3-0.8,4.1
		c4.9,7,10.8,12.8,18.6,16.6c3,1.5,6.3,1.8,9.5,2.3c3.4,0.5,6.4,1.9,9,4.1c1.6,1.4,2.3,3.1,2.3,5.3c-0.1,11.8-0.1,23.5-0.2,35.3
		c0,1.3,0.1,2.6,0.1,3.8c0,16.6,0,33.3,0.1,49.9c0,8.7,0.1,17.4,0.1,26.2c0.1,21.4,0.2,42.7,0.2,64.1c0,16.4,0.1,32.8,0.1,49.2
		c0,0.8,0,1.6,0,2.3c1.9,0.5,43.7,0.7,46.9,0.2c0-0.4,0.1-0.9,0.1-1.3c0.1-10.8,0.2-21.6,0.3-32.4c0-0.6,0-1.3,0.1-1.9
		c0.2-1.5,1.2-2.6,2.5-2.9c1.5-0.3,2.7,0.2,3.6,1.4c0.5,0.7,0.9,1.5,1.2,2.3c3.5,7.2,6.9,14.4,10.4,21.6c0.2,0.4,0.5,0.8,0.9,1.6
		c0.5-0.9,0.9-1.5,1.2-2.2c3.6-7.4,7.3-14.8,10.9-22.2c0.3-0.6,0.6-1.3,1.1-1.9c0.9-1,2.1-1.5,3.4-1.1c1.4,0.4,2.2,1.3,2.4,2.7
		c0.1,0.6,0.1,1.3,0.1,1.9c-0.1,19.8-0.2,39.7-0.3,59.5c0,2.8-1.2,4.3-3.4,4.3c-1.8,0-3.1-1.1-3.3-2.8c-0.1-0.7,0-1.4,0-2.2
		c0.1-13.8,0.1-27.7,0.2-41.5c0-0.8,0-1.7-0.4-2.6c-0.3,0.5-0.6,1-0.9,1.5c-2.3,4.7-4.6,9.5-7,14.2c-0.4,0.7-0.7,1.5-1.2,2.1
		c-1.7,2.1-4.3,2-5.8-0.3c-0.3-0.4-0.4-0.9-0.6-1.3c-2.3-4.8-4.6-9.5-6.8-14.3c-0.3-0.6-0.6-1.1-1.3-1.6c-0.1,1.3-0.2,2.6-0.2,3.9
		c-0.1,13.4-0.2,26.9-0.2,40.3c0,0.4,0,0.8,0,1.2c-0.1,2.2-1.4,3.5-3.4,3.5c-2,0-3.3-1.4-3.3-3.6c0-2.8,0-5.6,0.1-8.4
		c0-0.8,0-1.6,0-2.6c-1.2,0-2.3-0.1-3.4-0.1c-11.7,0-23.4,0.1-35,0.2c-4.4,0-8.8,0-13.2,0c-1,0-1.9,0-2.9-0.1
		c-3.2-0.5-5.2-2.5-5.6-5.7c-0.2-1.3-0.3-2.7-0.3-4.1c0-21.5,0-43,0-64.6c0-21.9-0.1-43.8-0.2-65.8c-0.1-17.4-0.2-34.9-0.3-52.3
		c-0.1-15.2-0.1-30.4-0.2-45.6c0-1.2-0.1-2.4-0.2-3.7c-2-0.2-3.8-0.4-5.6-0.6c-3.1-0.4-6.1-1.5-8.8-3.1c-7.4-4.4-14-9.8-19.5-16.5
		c-3-3.7-5.3-7.8-5.8-12.7c-0.5-4.6,0.8-8.6,4.1-11.8c2.2-2.2,4.6-4.2,7.2-5.9c10.4-6.6,15.3-16.4,16.7-28.3
		c1.1-10.1-0.5-19.8-3.7-29.2c-3.3-9.8-6.8-19.5-10.1-29.2c-4.3-12.5-7.3-25.3-9.3-38.4c-2.7-17.4-3.9-34.9-4.4-52.5
		c-0.4-14.7-0.9-29.4-1.4-44.1c-0.4-10.8-0.9-21.6-1.4-32.3c-0.5-9.8-3.3-19-7.8-27.7c-5.1-10-9.3-20.4-12-31.3
		c-3.8-15.2-5-30.6-3.8-46.2c0.9-11.5,3.4-22.6,7-33.5c1-3,1.7-6.2,2.4-9.3c0.7-3.1,0.2-6.1-1.2-8.9c-2-3.9-4-7.8-6.1-11.7
		c-2.2-4-4.4-8-5.6-12.4c-0.6-2.5-1.1-5.2-1.2-7.8c-0.3-5.5,2.2-9.7,6.8-12.7c4.2-2.7,8.9-3.7,13.7-3.9c6.3-0.2,12.6-0.1,18.9,0.1
		c7.5,0.2,15,0.9,22.5,1c37.8,0.2,75.7,0.2,113.5,0.2c0.8,0,1.6,0,2.4,0c2.9-0.1,5.1,1.1,6.2,3.7c2.5,5.9,7.3,6.9,12.8,6.6
		c5.3-0.3,10.5-0.9,15.8-1.2c8-0.5,14.8,2,20.1,8.1c2,2.3,3.9,4.7,5.2,7.4c5,10,13.1,15.4,23.9,17.2c8.5,1.5,17,2.9,25.5,4.3
		c6.2,1,12.2,2.5,18,4.8c6.9,2.8,12.8,6.8,17.3,12.8c0.9,1.1,1.8,2.3,2.7,3.4c2.1,2.4,3.6,2.8,6.6,1.5c2.8-1.3,5.7-2.6,8.3-4.2
		c12.1-7.3,25.3-11.3,39.3-13c12.8-1.5,25.4-0.8,37.8,2.5c8,2.1,12.7,7.8,13.1,16c0.1,1.8,0.2,3.5,0.3,5.3c0.1,2.4,0.4,2.8,2.8,3.5
		c1.8,0.6,3.7,1.1,5.5,1.7c6.7,2.1,10.9,6.7,12.9,13.4c0.5,1.8,1,3.5,1.6,5.7c0.6-0.8,1-1.2,1.3-1.7c0.8-1.2,1.6-2.4,2.5-3.5
		c6.5-8.2,15.8-10.1,25-5.1c4.6,2.5,8.5,5.9,12.3,9.5c10.7,10.3,21.3,20.7,32.1,31c2.1,2,4.5,3.6,6.9,5.1c3.4,2,7.1,2.1,10.6,0.6
		c2.2-0.9,4.4-2,6.3-3.5c4.7-3.7,9.3-7.6,13.9-11.4c4.4-3.7,8.9-7.4,14.1-9.8c3-1.4,6.2-2.6,9.4-3.4c4.1-1.1,6.7,0.1,9,3.7
		c2.5,3.9,4.3,8.2,5.4,12.8c0.9,3.8,0.9,3.7,5,3.6c9.3-0.4,18.4-2.4,27.5-3.9c7.1-1.2,14.2-2.2,21.5-1.8c8.1,0.4,15.7,2.8,22.8,6.8
		c4.5,2.6,8.9,5.4,13.4,8c2.4,1.4,4.8,2.8,7.4,4c3.3,1.6,6.7,1.8,10.3,0.6c1.5-0.5,3.1-0.6,4.7-0.5c3,0.1,4.6,1.7,5.3,4.6
		c1.9,8.1-1.5,15.9-8.9,20.6c-4.1,2.6-8.7,3.5-13.4,4.1c-6.5,0.8-13,1.3-19.4,3c-10.2,2.8-19.6,7.3-28.6,12.7
		c-12.7,7.6-24.7,16.2-36.7,24.9c-32.1,23.2-62.7,48.3-92.4,74.5c-6.8,6-13.6,11.9-20.3,17.9c-5.5,4.9-10.3,10.5-14.6,16.5
		c-6.5,9.3-9.9,19.7-10.8,30.9c-0.6,7.5-0.7,15-0.9,22.5c-0.2,8.2-0.1,16.5-0.6,24.7c-0.5,8.5-2.9,16.7-7,24.3
		c-4.3,8-10.5,14.2-18.3,18.9c-4.3,2.5-8.6,5-12.8,7.5c-3.3,1.9-6.6,4-9.3,6.8c-3.1,3.2-5.2,7-6,11.5c-0.7,3.6,0.5,6.5,3.4,8.6
		c1.2,0.8,2.5,1.5,3.7,2.2c2,1.2,4,2.3,6,3.6c5,3.5,6.9,8.6,5.3,14.5c-0.6,2.1-1.4,4.3-2.5,6.2c-1.5,2.8-3.1,5.6-4.9,8.2
		c-4.5,6.6-7.1,13.9-8.4,21.7c-1.5,8.7-2.1,17.5-2,26.3c0.1,6.3,0.1,12.6,0.6,18.9c0.5,5.7,2.1,11.1,4.7,16.3
		c3.4,7,8.7,12.1,16,14.8c6,2.3,12.3,4.1,18.4,6.2c4.5,1.6,9.1,3.1,13.4,5.1c9.6,4.3,17.1,11.1,23,19.8c1.6,2.4,3.2,4.8,4.6,7.3
		c4.9,8.1,11.4,14.4,19.5,19.1c6.2,3.6,12.5,7.1,18.7,10.8c5.7,3.4,10.6,7.7,14.5,13.1c4.5,6.3,6.3,13.1,5.1,20.8
		c-0.9,5.7-0.1,11.5,1,17.2c1.3,6.6,1,13-1.7,19.3c-1.5,3.5-3.9,4.9-7.7,4.9c-11.1-0.1-22.1-0.1-33.2-0.1c-5.1,0-10.3-0.1-15.4-0.1
		c-4.4,0-8.9,0.2-13.3-0.5c-4.5-0.7-9-2.1-13.5-3.1C556,820.4,555.6,820.4,555.1,820.4z M547.3,812.4c-0.1-1.1-0.1-1.9-0.2-2.8
		c-0.6-3.8-1-7.6-1.8-11.4c-1.1-5.1-2.5-10.2-3.8-15.3c-0.4-1.5-1-3-2.2-4.2c-3.7,3.7-10.2,25.6-10.1,33.6
		C535,812.4,541,812.4,547.3,812.4z"/>
	<path d="M271,22.9c0-1.1,0-2.2,0-3.3c0.2-3.9,2.7-6.6,6.6-6.3c4.2,0.3,8.4,1.1,12.5,1.9c4.1,0.8,8,2.3,11.5,4.5
		c5.8,3.7,9.4,8.9,10.1,15.7c0.7,6.4-1.4,11.9-6.8,15.7c-4.8,3.4-9.1,7.3-12.5,12.1c-2.4,3.3-5.6,4.8-9.7,4.5
		c-2.9-0.2-5.1-1.7-6.6-4.1c-1.5-2.4-2.3-5.1-2.5-7.9C272.8,44.7,271.9,33.8,271,22.9C271,22.9,271,22.9,271,22.9z M285.7,29
		c0.5,6,1.1,11.6,1.6,17.6c1.9-1.3,3.5-2.3,4.9-3.3c1.4-1,2.9-2,4.1-3.3c1.9-1.9,2-4.3,0.2-6.2C293.8,30.7,290.1,29.5,285.7,29z"/>
	<path d="M315.3,830.1c0.3-1.6,0.8-3.2,1-4.8c0.8-8.4,1.2-16.7,0.9-25.1c-0.2-6.3-0.3-12.6-0.5-18.9c-0.1-2.8-0.3-5.6-0.3-8.4
		c0-2.6,2.3-4.1,4.7-3.1c1.6,0.6,2,2,2,3.5c0.2,3.8,0.4,7.7,0.5,11.5c0.2,7.9,0.5,15.8,0.4,23.7c-0.1,6.6-0.1,13.3-1.3,19.8
		c-0.4,2.1-1,4.2-1.9,6.2c-2,4.3-6.7,5-10.1,1.6c-1.8-1.8-2.9-4-3.8-6.3c-3.5-9-6.2-18.3-8.7-27.6c-0.3-1.1-0.6-2.1-1.3-3.1
		c-0.1,3.1-0.3,6.1-0.3,9.2c-0.1,8.6-0.2,17.3-0.3,25.9c0,0.5,0,1,0,1.4c-0.3,2-1.7,3.2-3.6,3.1c-1.8-0.1-3-1.4-3.1-3.3
		c-0.1-4.6-0.1-9.3,0-13.9c0.2-8.5,0.3-17.1,0.6-25.6c0.2-6.8,0.6-13.6,1-20.3c0-0.8,0.2-1.6,0.5-2.3c0.5-1.3,1.5-2.1,3-2.1
		c1.4,0,2.6,0.9,3.1,2.2c0.2,0.6,0.3,1.2,0.5,1.8c3.9,14.1,7.6,28.2,11.6,42.3c1,3.6,2.5,7.1,3.8,10.6c0.3,0.8,0.8,1.5,1.1,2.3
		C314.8,830.2,315,830.1,315.3,830.1z"/>
	<path d="M357.8,830.2c0.4-2.5,1-5,1.2-7.5c1-12.3,0.7-24.6,0.2-36.9c-0.2-4.1-0.4-8.1-0.5-12.2c0-1,0.4-2.2,1-3.1
		c0.8-1.1,2.2-1.2,3.5-0.9c1.3,0.4,2,1.3,2.2,2.6c0.2,1.6,0.3,3.2,0.4,4.8c0.5,13.3,1,26.5,0.5,39.8c-0.2,4.9-0.4,9.7-1.8,14.5
		c-0.4,1.2-0.8,2.4-1.4,3.5c-2,3.7-6.4,4.4-9.5,1.5c-1.9-1.8-3.2-4-4-6.4c-1.6-4.6-3.3-9.2-4.8-13.8c-1.8-5.6-3.3-11.3-5.3-17
		c-0.1,1.5-0.3,3-0.4,4.6c-0.2,9.9-0.3,19.8-0.5,29.7c0,0.7,0,1.4,0,2.2c-0.2,1.8-1.4,3-3.1,3c-1.7,0.1-3.1-1-3.5-2.7
		c-0.1-0.4-0.1-0.8-0.1-1.2c0.1-6.7,0-13.4,0.2-20.1c0.2-8.2,0.5-16.5,0.8-24.7c0.2-4.9,0.5-9.9,0.8-14.8c0-0.2,0-0.5,0.1-0.7
		c0.3-1.9,1.6-3.3,3.2-3.4c1.7-0.1,3,1,3.5,3c2.1,8.1,4.1,16.3,6.3,24.3c2.7,9.8,5.3,19.6,9.1,29c0.4,1,0.9,2,1.4,3
		C357.3,830.2,357.6,830.2,357.8,830.2z"/>
	<path d="M479.4,800.2c0.1,7.2-0.3,14.5-1.8,21.5c-0.8,4-2.3,7.8-4.9,11.1c-1.5,1.8-3.2,3.3-5.4,4.2c-4.1,1.7-7.8,0.9-11.1-2
		c-2.7-2.4-4.4-5.5-5.3-8.9c-0.8-3.2-1.5-6.6-1.8-9.9c-0.9-8.6-1-17.2,0.3-25.8c0.7-4.4,1.7-8.8,3.8-12.8c1.3-2.4,2.9-4.6,5-6.3
		c5.3-4.3,11.9-3.5,16,2c2.7,3.5,4,7.6,4.4,12C479,790.1,479.3,795.1,479.4,800.2z M472.4,799.3c0-4.7-0.2-9.4-0.7-14.2
		c-0.2-2.5-1.1-5-2.5-7.2c-2.1-3.2-4.7-3.5-7.3-0.9c-1.1,1.1-2.2,2.4-2.8,3.8c-1.1,2.5-2,5.1-2.5,7.7c-1.8,9.2-1.8,18.6-0.7,27.9
		c0.3,2.7,0.8,5.4,1.6,8c0.6,1.8,1.7,3.6,2.9,5.1c1.6,1.9,3.5,2,5.5,0.4c1.2-1.1,2.3-2.5,3.1-3.9c2.1-3.7,2.6-7.8,2.9-12
		C472.2,809.1,472.4,804.2,472.4,799.3z"/>
	<path d="M440.4,784.7c-0.1,1.6-0.2,3-0.4,4.3c-0.3,2.3-1.9,3.6-3.8,3.4c-2-0.2-3-1.8-2.9-4.2c0.1-2.1,0.3-4.1,0.1-6.2
		c-0.2-2.4-1.1-4.6-3.7-5.3c-2.6-0.7-4.9,0.1-6.7,2.2c-0.8,1-1.4,2.1-1.9,3.3c-1.1,2.7-1.4,5.6-1.1,8.5c0.3,2.8,1.4,5.3,3.4,7.2
		c1.8,1.8,3.8,3.4,5.8,5c1.1,0.9,2.3,1.7,3.5,2.6c3.5,2.7,5.7,6.2,6.3,10.6c0.5,4,0.6,8-0.7,11.9c-1.3,4-3.7,7.2-7.5,9.2
		c-5.9,3.1-12.5,1.5-16.3-4c-2.8-4.2-3.5-8.9-3.2-13.7c0.1-1.9,0.5-3.8,1.2-5.6c0.5-1.4,1.6-2.6,2.6-3.6c1.1-1.1,3.1-1,4.2-0.1
		c1.2,1,1.7,3,0.7,4.3c-2.9,3.7-2.3,7.8-1.3,11.9c0.7,2.8,2.3,5.3,5.6,5.5c3.1,0.3,5.3-1.6,6.7-4.2c2.3-4.4,2.1-8.9,0.4-13.4
		c-0.4-1.1-1.3-2-2.2-2.8c-1.2-1.1-2.5-1.9-3.8-2.9c-2-1.6-4-3.1-5.9-4.9c-5.6-5.2-7-11.8-5.9-19.1c0.4-2.8,1.3-5.4,2.7-7.9
		c2.2-3.8,5.5-6.1,9.9-6.8c7.1-1.1,13,3.3,14,10.8C440.3,782,440.4,783.5,440.4,784.7z"/>
	<path d="M382.1,778.5c-0.3,8.5-0.6,16.9-0.9,25.3c2.6,0,5,0,7.3,0c0.9,0,1.8,0,2.6,0c2.2,0.2,3.6,1.5,3.6,3.4
		c0,1.9-1.3,3.3-3.6,3.4c-2.9,0.1-5.7,0.1-8.6,0.2c-0.4,0-0.8,0.1-1.3,0.1c0,6.9,0,13.7,0,20.7c3.9,0,7.8,0,11.7,0
		c1.9,0,3.8-0.1,5.8,0c1.7,0.1,2.8,1.1,3.1,2.5c0.3,1.4-0.1,2.9-1.3,3.6c-0.6,0.4-1.5,0.6-2.3,0.6c-3.7,0.1-7.3,0.1-11,0.2
		c-2.9,0-5.8,0.2-8.6,0.1c-3,0-4.2-1.2-4.2-4.2c0-11.6-0.1-23.2,0.1-34.8c0.1-8,0.7-16,1.1-23.9c0.2-3.3,1.2-4.2,4.5-4.2
		c6.3,0,12.6-0.1,18.9-0.1c0.3,0,0.6,0,1,0c1.9,0.2,3.1,1.4,3.2,3.2c0.1,1.8-1.1,3.3-3,3.5c-1.5,0.2-3,0.1-4.6,0.1
		c-3.8,0-7.5,0-11.3,0C383.8,778.3,383.1,778.4,382.1,778.5z"/>
	<path d="M505.8,775.8c-0.1,0.7-0.2,1.3-0.2,1.8c-0.9,15.9-1.7,31.7-1.5,47.7c0,2.6,0.2,5.3,0.2,7.9c0,0.8,0,1.6-0.1,2.4
		c-0.3,1.5-1.5,2.6-3,2.7c-1.3,0.1-2.8-0.7-3.3-2c-0.3-1-0.5-2-0.5-3c-0.5-15.1,0-30.2,0.8-45.3c0.2-3.4,0.4-6.9,0.5-10.3
		c0-0.5,0-1.1,0-1.9c-1,0-1.8-0.1-2.7-0.1c-3.4,0-6.7,0-10.1,0c-2.2,0-3.4-1.1-3.6-3c-0.2-1.7,0.9-3.2,2.5-3.5
		c0.5-0.1,1.1-0.1,1.7-0.1c11,0,22.1,0,33.1,0c0.5,0,1,0,1.4,0c1.7,0.3,2.9,1.7,2.9,3.3c0,1.6-1.2,3.1-2.9,3.3
		c-0.6,0.1-1.3,0.1-1.9,0.1c-3.7,0-7.4,0-11,0C507.4,775.7,506.6,775.8,505.8,775.8z"/>
	<path d="M274.7,775.8c-1.1,5.5-2.8,49.9-1.5,55.7c1.1,0,2.3,0,3.4,0c2.1,0.1,3.4,1.3,3.4,3.2c0.1,1.9-1.2,3.4-3.3,3.4
		c-5,0.1-9.9,0.1-14.9,0.1c-1.8,0-3.2-1.5-3.2-3.3c0-1.9,1.3-3.3,3.2-3.5c0.6-0.1,1.3,0,1.9,0c0.6,0,1.2-0.1,2.2-0.1
		c-0.5-18.5,0.5-36.8,1.5-55.3c-1-0.1-1.7-0.1-2.5-0.2c-2.1-0.2-3.2-1.5-3.2-3.5c0-1.8,1.2-3.2,3.2-3.2c4.4-0.1,8.8-0.1,13.2-0.1
		c2,0,3.2,1.3,3.3,3.1c0.1,1.8-1,3.3-2.9,3.5C277.4,776,276.1,775.8,274.7,775.8z"/>
</g>
</svg>
