<?xml version="1.0" encoding="utf-8"?>
<!-- Generator: Adobe Illustrator 23.0.4, SVG Export Plug-In . SVG Version: 6.00 Build 0)  -->
<svg version="1.1" id="Layer_1" xmlns="http://www.w3.org/2000/svg" xmlns:xlink="http://www.w3.org/1999/xlink" x="0px" y="0px"
	 viewBox="0 0 864 864" style="enable-background:new 0 0 864 864;" xml:space="preserve">
<g>
	<path d="M205.8,531c-1.1-1-2-1.8-2.9-2.7c-4.4-4.2-5.8-9.2-4-15.1c1.7-5.5,4.9-9.7,9.9-12.4c3.7-2.1,7.5-3.9,11.3-5.9
		c1.7-0.9,3.5-1.7,5-2.9c3.6-2.6,3.8-5.5,0.7-8.6c-0.7-0.7-1.4-1.3-2.2-1.9c-7.6-5.7-11.1-13.5-11.6-22.7c-0.2-3,0.2-6.1,0.4-9.1
		c0-0.9,0.1-1.9,0.2-3c-1.3-0.2-2.5-0.4-3.7-0.6c-2.8-0.4-5.4-1.4-7.7-3.1c-3.9-3-5.6-8.2-4.1-12.9c1.1-3.6,0.9-6.9-0.8-10.2
		c-2.5-4.7-2-9.2,0.9-13.6c1.3-1.9,2.6-3.8,3.9-5.8c2.1-3.3,2.8-6.9,2.3-10.8c-0.1-0.4-0.1-0.8-0.2-1.2c-0.1-0.3-0.2-0.6-0.4-1
		c-0.5,0.1-1.1,0.1-1.6,0.2c-4.4,0.9-7.2-0.4-9.5-4.3c-3.4-5.8-3.8-11.9-2-18.3c1.5-5.2,4.1-9.9,7.6-14.1c3.3-3.9,6.8-7.7,10.3-11.4
		c3-3.2,3.1-3.5,0.3-6.9c-1-1.3-2-2.7-2.9-4.1c-1.9-3.3-2.4-6.9-1.4-10.6c0.4-1.7,0.9-3.4,1.5-5.3c-0.8-0.5-1.6-1.1-2.4-1.6
		c-6-4.1-10.5-9.4-11.9-16.8c-1.9-9.7,0.3-18.5,7.4-25.6c2.5-2.5,5.4-4.4,8.2-6.6c0.7-0.5,1.5-0.9,2.4-1.5c-0.2-0.8-0.4-1.5-0.6-2.3
		c-0.7-2.8,0-5,2.3-6.8c0.9-0.7,1.8-1.3,2.6-2.1c3.7-3.5,5.1-7.6,3.4-12.6c-0.8-2.4-1.9-4.8-2.8-7.1c-1.1-2.9-1.6-5.9-1-8.9
		c1.2-6.5,6.3-11.3,13.3-12.4c1.5-0.2,3-0.3,4.5-0.5c0.6-0.1,1.3-0.1,1.9-0.2c3.2-0.6,4-1.7,3.9-4.9c-0.1-3.1-0.2-6.3,0.2-9.3
		c1.7-14.1,7.6-26,18.9-34.9c5-4,10.3-7.6,15.4-11.4c2.9-2.2,5.6-4.5,8.4-6.8c6.3-5.3,8.5-12,6.6-20c-0.9-3.8-1.8-7.6-2.3-11.5
		c-0.9-6,1.2-10.8,5.9-14.6c0.8-0.6,1.7-1.2,2.5-1.8c3-2.3,4.4-5.3,4.6-9.1c0.2-2.5,0.6-5.1,1.1-7.6c1.2-5.2,4.3-9.1,9.1-11.4
		c3.8-1.8,7.8-3.2,11.8-4.7c1.4-0.5,2.9-0.9,4.4-1.2c1.7-0.3,2.9-1.3,3.8-2.7c0.7-1,1.4-2,1.9-3.1c1.4-2.8,3.6-3.9,6.6-3.9
		c4.6,0,9.2,0,14.1,0c0-1.2,0-2.5,0-3.9c0-5.4,0.1-10.7,0.1-16.1c0-0.6,0-1.3,0.1-1.9c0.2-1.4,1.1-2.3,2.3-2.4
		c1.3-0.2,2.4,0.3,3.1,1.4c0.4,0.6,0.7,1.3,1,1.9c2.2,4.5,4.3,9.1,6.5,13.6c0.3,0.7,0.7,1.4,1.2,2.4c0.4-0.7,0.8-1.2,1-1.7
		c2.4-4.9,4.9-9.9,7.3-14.9c0.4-0.7,0.7-1.5,1.2-2.1c0.7-0.8,1.7-1.2,2.8-0.9c1.2,0.3,2,1.1,2.2,2.3c0.1,0.5,0.1,1,0.1,1.4
		c-0.1,14.5-0.1,29-0.2,43.4c0,0.6,0,1.1-0.1,1.7c-0.3,1.6-1.5,2.7-2.9,2.7c-1.5,0-2.8-1.2-2.8-3c-0.1-3.5,0-7,0-10.6
		c0-6.8,0.1-13.6,0.1-20.4c0-0.3-0.1-0.6-0.2-1.4c-0.5,0.8-0.9,1.3-1.1,1.8c-1.3,2.6-2.6,5.3-3.9,8c-0.2,0.5-0.5,1-0.8,1.5
		c-1.6,2.6-4.2,2.5-5.6-0.2c-1.5-2.9-2.8-5.9-4.3-8.9c-0.3-0.6-0.7-1.2-1-1.8c-0.2,0-0.3,0.1-0.5,0.1c0,3.6,0,7.3,0,10.9
		c0,6.5,0,13-0.1,19.4c0,0.6,0,1.3-0.1,1.9c-0.3,1.6-1.6,2.6-3.1,2.5c-1.4-0.1-2.6-1.2-2.6-2.9c-0.1-2.4,0-4.8,0-7.2
		c0-1,0-2.1,0-2.9c-3.1,0-5.9,0.1-8.8,0c-1.2,0-2,0.4-2.5,1.4c-0.1,0.1-0.2,0.3-0.3,0.4c-1.5,4-4.6,5.8-8.7,6.6
		c-3.6,0.7-7.2,1.7-10.6,3c-7.1,2.5-7.1,3.3-7.5,9.9c-0.1,1.9-0.2,3.8-0.5,5.7c-0.7,4.7-3,8.5-6.9,11.4c-1,0.8-2.1,1.5-3.1,2.3
		c-2.1,1.6-2.9,3.8-2.3,6.4c0.6,2.9,1.2,5.8,1.9,8.7c2.2,9.3,0.4,17.8-5.3,25.4c-2.7,3.6-5.7,6.9-9.4,9.6c-5.4,4-10.8,8-16.2,12
		c-3.4,2.5-6.5,5.1-9.2,8.3c-5.8,6.9-8.9,14.9-9.1,23.9c-0.1,2.9-0.3,5.8-0.3,8.6c-0.1,5.8-4.1,12.2-12.1,13.8
		c-2.7,0.5-5.4,0.6-8.1,0.9c-0.6,0.1-1.1,0.1-1.7,0.2c-1.5,0.4-2,1.2-1.6,2.7c0.7,2.4,1.8,4.6,2.5,7c0.8,2.7,1.7,5.5,2.1,8.3
		c0.7,5.6-1.2,10.7-4.4,15.4c-0.8,1.1-1.6,2.2-2.4,3.4c0.5,1,1.1,2,1.5,3c1.8,4.3-0.1,8.3-4.6,9.6c-4.2,1.2-8.1,3-11.4,6
		c-3,2.7-5.2,5.9-5.7,10c-0.7,5.8,2.4,11.6,7.7,14.2c1.6,0.8,3.3,1.7,4.7,2.8c3,2.4,4.2,5.6,3.2,9.4c-0.5,1.9-1.2,3.8-1.9,5.7
		c-0.9,2.3-0.6,4.4,0.9,6.3c0.8,1,1.6,2,2.3,3c3.5,4.9,3.8,10.7,0.5,15.7c-1.3,2.1-3.1,3.9-4.7,5.7c-3.5,4-7.1,8-10.7,12
		c-1.8,2-2.9,4.4-3.5,7c-0.2,0.8-0.2,1.7-0.3,2.6c0.4,0.1,0.7,0.2,0.9,0.2c3.9-0.8,6.7,0.7,8.8,3.8c5.8,8.7,6.8,17.9,3.1,27.6
		c-0.7,1.9-2,3.6-3.1,5.4c-0.7,1.1-1.7,2.2-2.4,3.3c-1.1,1.8-1.3,3.7-0.1,5.4c2.4,3.7,2.5,7.7,1.7,11.8c-0.2,1.2-0.4,2.5-0.6,3.8
		c2.4,0.8,4.5,0,6.6-0.2c1-0.1,2-0.4,3.1-0.5c5-0.4,8.3,2.8,7.9,7.8c-0.2,2-0.7,3.9-1.2,5.9c-1,4.5-1.7,8.9-1.3,13.5
		c0.4,4.8,2.4,8.7,5.8,12c1.6,1.5,3.2,2.9,4.7,4.4c6.9,6.6,7.3,15.7,1.2,23c-3.3,4-7.6,6.8-12.3,8.9c-2.6,1.2-5.3,2.3-7.7,3.8
		c-1.7,1.1-3.3,2.6-4.6,4.1c-1.2,1.4-1.1,2.5,0.2,3.8c1.1,1.1,2.3,2,3.5,2.9c1.8,1.5,3.3,3.3,4,5.6c1.1,3.2,0.4,6.2-1.4,8.9
		c-1.5,2.2-3.2,4.4-5.1,6.4c-8.9,9.6-17.9,19.2-26.9,28.7c-4,4.2-6.2,9.2-6.8,15c-0.8,7.7-2.8,15.1-6.4,22
		c-5.7,11.2-11.4,22.3-17.1,33.5c-1,2.1-1.9,4.2-2.6,6.4c-1.1,3.6-3.3,6.2-6.6,7.8c-0.9,0.4-1.8,0.8-2.6,1.2c-2.5,1.3-3,2.2-2.4,5
		c0.4,1.9,0.9,3.7,1.5,5.5c1.2,3.9,2.6,7.7,3.8,11.6c1.6,5.1,2.7,10.4,2.6,15.8c0,1.4-0.2,2.8-0.4,4.6c1.1,0.1,2.1,0.2,3.1,0.2
		c12,0.1,24,0.1,36,0.1c27.8,0.2,55.5,0.4,83.3,0.5c18.5,0.1,37,0.3,55.4,0.4c28.8,0.2,57.6,0.3,86.4,0.4c1.5,0,3.1,0.1,4.5,0.6
		c2.6,0.8,4.2,2.6,4.6,5.3c0.6,4.3-0.1,8.5-1.4,12.5c-1,3-2.2,6-3.7,8.8c-2.7,5.4-5.7,10.6-8.4,15.9c-1.4,2.7-2.5,5.5-3.4,8.4
		c-1.9,6-1,11.7,2.2,17c3,4.9,6.5,9.5,10.4,13.8c4.8,5.3,9.6,10.8,14.2,16.3c3.8,4.5,6.5,9.6,7.5,15.4c0.5,3.1,0.5,6.4,0.7,9.5
		c0.1,1.9,0,3.8,0.1,5.8c0,1.4,0.5,2.6,2,3.3c0.4-0.2,0.7-0.4,1-0.7c4.1-4.2,7.9-8.6,10.7-13.8c0.8-1.4,1.6-2.8,2.4-4.2
		c3.1-5.4,7.7-8.6,13.8-9.8c5.3-1.1,10.7-2.1,15.7-4.3c3.4-1.5,6.8-3.2,10.2-4.7c8.4-3.7,17.3-4.9,26.5-4.7
		c11,0.3,21.7,2.8,32.4,5.2c8.9,2,17.8,4,26.7,5.7c5.8,1.1,11.6,1.2,17.4,0.3c1.4-0.2,2.8-0.6,4.3-1c0.1-0.8,0.1-1.5,0.1-2.2
		c-0.4-15.7-0.7-31.5-1.4-47.2c-0.6-13.3-1.6-26.7-2.6-40c-0.9-12.5-2.1-25-3.1-37.5c-1.1-13.4-2.1-26.8-3.1-40.2
		c-0.8-10.8-1.4-21.5-2.1-32.3c-0.3-4.2-0.5-8.5-0.6-12.7c-0.2-10.7-0.7-21.4-0.5-32.1c0.1-7.9,0.9-15.8,1.5-23.7
		c0.5-7.5,1.1-15,1.7-22.5c0.7-8.6,1.4-17.2,2.1-25.8c0.6-6.8,1.1-13.5,1.7-20.3c0.9-10.1,1.8-20.2,2.7-30.3
		c0.7-7.5,1.4-15,2.1-22.5c0.9-9.3,1.8-18.6,2.7-27.9c0.8-8.5,1.7-17,2.5-25.5c1.1-10.1,2.2-20.2,3.2-30.3
		c0.8-7.8,1.7-15.6,2.6-23.4c1.2-10.4,2.4-20.8,3.6-31.2c1-8.6,2-17.2,3.1-25.7c1.4-10.9,2.7-21.9,4.2-32.8c1.5-11.5,3-23,4.5-34.5
		c1.8-13.1,3.7-26.3,5.6-39.4c1.5-10.4,2.9-20.9,4.5-31.3c1.6-11.2,3.3-22.3,5-33.4c0.4-2.6,0.8-5.2,1.1-7.8
		c0.4-3.7,0.4-9.3-4.6-9.2c-2.4,0-4.8,0.1-7.2,0.3c0,2.6,0,5.3,0,7.9c0,0.2,0,0.5,0.1,0.7c0.3,0.4,0.8,0.3,1.3,0.3
		c1.3-0.1,2.6,0.5,3.3,1.6c0.7,1.1,0.5,2.7-0.4,3.5c-0.9,0.7-2.1,0.8-3.2,0.8c-2.6,0-5.3,0-7.9,0.1c-1.5,0-3.2-0.1-4.1-1.3
		c-0.7-0.9-0.6-2.4,0.2-3.3c0.7-0.9,2-1.3,3.1-1.3c0.4,0,1,0.1,1.2-0.2c0.2-0.2,0.2-0.5,0.2-0.8c0-13.1,0.7-26.2,1.1-39.2
		c-0.5-0.1-1.1-0.1-1.6-0.2c-1.5-0.3-2.4-1.4-2.4-2.8c0-1.4,1-2.6,2.5-2.8c0.5-0.1,1.1-0.1,1.7-0.1c2.7,0,5.4-0.1,8.2,0
		c1.6,0,2.6,0.8,2.9,2c0.5,1.9-0.6,3.5-2.6,3.7c-0.8,0.1-1.6,0.1-2.6,0.1c-0.3,5.7-0.6,11.3-0.9,17.1c0.7,0.1,1.3,0.1,1.9,0.1
		c3.7,0.1,7.5,0,11.2,0.4c5.2,0.6,8.9,3.7,11.2,8.4c2.5,5.2,2.7,10.7,1.9,16.4c-2.4,15.6-4.8,31.1-7.1,46.7c-2.1,14-4.1,28-6,42
		c-1.4,10.1-2.7,20.3-4,30.4c-1.5,11.9-3.1,23.8-4.6,35.7c-1.2,9.9-2.4,19.8-3.6,29.8c-1.2,10-2.4,20-3.6,30c-1,8.9-2.1,17.8-3,26.7
		c-1.1,9.5-2.1,18.9-3.1,28.4c-0.9,8.4-1.8,16.9-2.7,25.3c-1.1,10.6-2.2,21.2-3.2,31.7c-0.9,9-1.7,18-2.6,27
		c-0.9,9.7-1.8,19.4-2.7,29.1c-0.7,8.2-1.4,16.4-2.1,24.6c-0.9,10.9-1.9,21.8-2.7,32.8c-0.7,9.2-1.4,18.3-2.1,27.5
		c-0.4,4.8-0.8,9.6-1.1,14.4c-0.2,4.3-0.4,8.6-0.2,12.9c0.4,12.2,0.7,24.5,1.4,36.7c0.7,13.7,1.7,27.3,2.7,40.9
		c0.8,10.8,1.7,21.5,2.6,32.3c1.2,14.9,2.5,29.8,3.6,44.7c0.9,12.3,1.6,24.6,2.1,36.9c0.6,14,0.8,28,1.5,42
		c0.3,6.7-2.7,10.9-8.5,13.7c-3.7,1.7-7.6,2.5-11.6,3c-8.5,1.1-16.9,0.1-25.3-1.7c-11.6-2.5-23.2-5.2-34.9-7.7
		c-7.5-1.6-15-2.3-22.6-1.8c-4.9,0.4-9.6,1.4-14.2,3.4c-2.9,1.3-5.9,2.5-8.7,4c-5.6,2.9-11.5,4.8-17.8,5.5c-3.2,0.4-5.4,1.8-6.9,4.7
		c-3.3,6.2-7.2,11.9-12.1,16.9c-1.6,1.7-3.3,3.2-5.2,4.6c-8.4,6-19.2,3.2-23.5-6.2c-1-2.1-1.4-4.6-1.8-6.9c-0.3-2.1-0.2-4.3-0.1-6.5
		c0.2-6.7-1.6-12.7-5.8-17.9c-3.8-4.7-7.8-9.3-11.9-13.8c-4.5-5.1-9.1-10.1-12.8-15.8c-6-9.4-7.2-19.3-3.8-29.8
		c1.5-4.7,3.7-9.2,6.2-13.5c1.8-3.2,3.8-6.3,5.5-9.6c1.3-2.6,2.4-5.4,3.5-8.1c0.3-0.6,0.3-1.3,0.5-2.2c-0.9,0-1.7-0.1-2.4-0.1
		c-19.9-0.1-39.8-0.2-59.7-0.3c-29.7-0.2-59.3-0.4-89-0.6c-20.6-0.1-41.3-0.3-61.9-0.4c-16.6-0.1-33.1-0.2-49.7-0.3
		c-0.2,0-0.5,0-0.7,0c-6.1-0.2-9.2-3.3-9.3-9.5c0-1.7,0.1-3.4,0.3-5c0.7-5.4,0.2-10.7-1.5-15.9c-1.7-5.2-3.3-10.4-4.8-15.6
		c-0.9-3.1-1.4-6.2-0.9-9.5c0.8-5.4,3.6-9.4,8.7-11.4c2.4-0.9,3.6-2.5,4.5-4.8c1.7-4.2,3.7-8.3,5.8-12.4c3.6-7,7.3-14.1,11-21
		c4.3-8,6.9-16.5,7.8-25.5c0.5-5,2.1-9.5,5.1-13.5c2.8-3.7,5.7-7.3,8.8-10.8c6-6.6,12.1-13,18.2-19.5
		C201.2,536.5,203.3,533.8,205.8,531z"/>
	<path d="M581.7,839.4c-4.8-0.2-9.5-1.2-14-2.8c-4.5-1.7-9.1-2.5-13.9-1.7c-1.5,0.2-3,0.2-4.5,0.1c-3.6-0.4-5.9-3.1-5.9-6.7
		c0-3.5,2.2-6.4,5.7-6.5c7.7-0.2,15.5-0.8,23,2c3.9,1.5,8,2.3,12.2,2.2c3.4,0,5.4,1.4,6.3,4.1c0.9,3-0.2,6.1-2.7,7.9
		C586.3,839.1,584.7,839.5,581.7,839.4z"/>
	<path d="M532.5,62.2c0.2,3-0.4,5.7-1.9,8.2c-1.6,2.8-4,4.7-7.2,5.5c-4,1-8.2-0.9-10.4-4.7c-2.4-4.3-2.8-8.8-1.3-13.4
		c0.3-1.1,1.1-2.2,1.8-3c1.2-1.4,2.9-1.4,4.1-0.4c1.1,0.9,1.3,2.5,0.4,3.9c-2,3-1.6,6.1-0.4,9.2c1.4,3.5,5,3.9,7.4,1
		c2.9-3.6,2.2-10.3-1.5-13.2c-1.9-1.5-4-2.9-5.8-4.6c-6-5.5-7.1-14-3-21c1.6-2.7,3.9-4.4,6.9-5.1c5.2-1.1,9.7,1.5,11.1,6.6
		c0.7,2.7,0.8,5.4,0.2,8.1c-0.4,1.9-1.8,3-3.4,2.7c-1.6-0.3-2.5-1.7-2.4-3.6c0.1-1.7,0.3-3.4,0-5c-0.6-3.3-3.8-4.3-6.4-2.1
		c-0.4,0.4-0.8,0.8-1.1,1.3c-1.9,3.4-3.1,9.4,1.4,13.4c1.5,1.4,3.1,2.7,4.9,3.9C530.7,52.8,532.8,57,532.5,62.2z"/>
	<path d="M483.3,62.6c0-3.1,0.9-6.1,3-8c1.2-1.1,2.6-1.1,3.7-0.3c1.2,0.9,1.6,2.6,0.6,3.9c-1.9,2.6-1.6,5.4-0.9,8.3
		c0.5,1.9,1.4,3.6,3.7,3.9c1.8,0.3,3.8-1.1,4.9-3.2c2.1-4.2,0.9-9.5-2.9-12.4c-2-1.6-4.1-3-5.9-4.8c-5.5-5.4-6.2-14.8-1.7-21.1
		c2.4-3.4,5.7-4.8,9.8-4.4c4.1,0.4,7.3,3.4,7.9,7.8c0.3,2.3,0.2,4.6,0.1,6.9c-0.1,1.9-1.7,3-3.2,2.8c-1.6-0.2-2.6-1.5-2.5-3.5
		c0-1.5,0.2-3,0.1-4.5c-0.1-1.7-0.7-3.2-2.6-3.7c-1.9-0.4-3.5,0.2-4.7,1.7c-2.8,3.5-2.7,10,0.5,13.3c1.1,1.2,2.5,2.2,3.8,3.3
		c0.5,0.4,1,0.7,1.6,1.1c6.2,4.5,8.4,11.8,5.5,18.9c-1.7,4.3-4.8,7.2-9.6,7.5c-4,0.3-6.9-1.6-8.9-5
		C484.1,68.9,483.3,65.7,483.3,62.6z"/>
	<path d="M450,36.8c0.3-3.8-2-9.2-6.5-5.7c-0.3,0.2-0.6,0.5-0.8,0.8c-2.8,3.4-2.8,9.9,0.2,13.2c1.4,1.5,3,3,4.7,4
		c6.1,3.7,8,9.2,7.2,16c-0.5,4.4-2.6,7.9-6.6,10c-4.1,2.2-9.1,1.2-11.8-2.6c-3.6-4.9-4.9-13.2-0.3-17.8c1.2-1.2,2.7-1.3,3.9-0.4
		c1.1,0.9,1.5,2.6,0.6,3.9c-1.9,2.8-1.6,5.8-0.7,8.7c0.5,1.7,1.5,3.2,3.6,3.4c2.1,0.2,3.5-1,4.5-2.7c2.4-3.9,1.3-9.9-2.3-12.7
		c-1.8-1.4-3.8-2.7-5.5-4.3c-5.9-5.4-7.1-13.9-3.1-20.8c1.9-3.3,4.7-5.2,8.5-5.5c4.6-0.4,8.3,2.2,9.6,6.6c0.8,2.7,0.7,5.4,0.4,8.1
		c0,0.4-0.2,0.8-0.3,1.1c-0.6,1.2-1.9,2-3.1,1.7c-2.5-0.5-2.4-2.9-2.1-4.9C450,36.9,450,36.8,450,36.8z"/>
	<path d="M405.8,62.7c0-1.3,0.2-2.5,0.5-3.7c0.6-2.4,3.2-7.2,6.2-4.6c1,0.9,1.4,2.5,0.6,3.7c-1.8,2.5-1.7,5.2-1,8
		c0.6,2.6,2.1,4.1,3.9,4.3c2,0.1,3.9-1.2,4.9-3.6c1.2-2.9,1.2-5.8,0-8.6c-0.5-1.2-1.6-2.1-2.6-3c-2-1.7-4.2-3.2-6.1-5
		c-5.7-5.5-6.5-14.2-2.2-20.9c2.1-3.3,5.2-4.9,9.1-4.9c3.9,0,6.7,1.9,8.3,5.5c1.3,3.1,1.4,6.4,0.7,9.7c-0.4,1.7-1.8,2.7-3.3,2.4
		c-1.5-0.3-2.5-1.7-2.4-3.4c0.1-1.7,0.2-3.3,0.1-5c-0.1-1.6-0.9-3-2.6-3.3c-1.8-0.3-3.3,0.3-4.5,1.7c-2.9,3.4-2.8,9.8,0.2,13.1
		c1.2,1.3,2.6,2.4,3.9,3.5c0.4,0.4,0.9,0.7,1.4,1c6.2,4,8.1,9.5,6.2,17.8c-1.1,5.1-5.6,8.7-10.1,8.8c-3.8,0.1-6.6-1.6-8.6-4.7
		C406.5,68.9,405.7,65.8,405.8,62.7z"/>
	<path d="M566.8,55.3c0,3.7,0,7.7,0,11.7c0,2,0.2,4,0.2,6c0,1.9-1.2,3.1-2.9,3.1c-1.6,0-2.7-1.1-2.9-2.9c0-0.3,0-0.6,0-1
		c0-6-0.2-12-0.1-18c0.2-8.8,0.8-17.5,1.2-26.3c0.1-3.1,0.7-3.7,3.7-4.3c3.9-0.7,7.8-0.7,11.6,0.5c7.7,2.6,11.2,10.1,8.2,17.7
		c-1.8,4.4-4.9,7.7-9.1,9.7C573.8,53,570.5,54,566.8,55.3z M567,48.8c4.7-0.8,8.6-2.4,11.4-5.8c1-1.3,1.9-2.8,2.4-4.3
		c1.1-3.5-0.4-6.8-3.7-8.4c-2.8-1.4-5.8-1.5-9.1-1C567.7,35.7,567.4,42.1,567,48.8z"/>
	<path d="M597.8,55.1c0,1.7,0,3.6,0,5.4c0,3.9,0.1,7.8,0.1,11.7c0,0.5,0,1,0,1.4c-0.2,1.3-1.1,2.2-2.3,2.4c-1.3,0.2-2.6-0.5-3.1-1.8
		c-0.3-0.8-0.3-1.7-0.4-2.6c-0.3-11.7,0-23.5,0.7-35.2c0.2-3.1,0.4-6.2,0.6-9.3c0.2-2.2,0.8-3,2.9-3.4c3.6-0.7,7.1-0.8,10.7,0
		c9.4,2.2,13.5,11.2,9.1,19.7c-2.3,4.4-5.9,7.3-10.4,9.1C603.4,53.6,600.8,54.2,597.8,55.1z M599,29.3c-0.3,6.4-0.6,12.8-0.9,19.3
		c3.6,0.1,9.2-2.6,11.5-5.7c0.8-1.1,1.6-2.4,2.1-3.7c1.4-4-0.3-7.5-4.2-9.2C604.9,28.9,602.1,28.8,599,29.3z"/>
	<path d="M549.7,69.9c1.1,0.1,1.9,0,2.6,0.1c1.7,0.3,2.8,1.6,2.7,3.1c-0.1,1.5-1.2,2.6-2.9,2.6c-3.7,0.1-7.4,0.1-11,0
		c-1.5,0-2.6-1.2-2.7-2.6c-0.1-1.4,0.8-2.7,2.3-3c0.9-0.2,1.9-0.2,2.8-0.3c0.4-13.4,0.8-26.6,1.2-40.1c-0.6-0.1-1.2-0.1-1.8-0.2
		c-1.4-0.3-2.2-1.4-2.2-2.8c0-1.3,0.7-2.3,1.9-2.7c0.2-0.1,0.5-0.2,0.7-0.2c3.4,0,6.7-0.1,10.1,0c1.4,0,2.4,1.1,2.6,2.4
		c0.2,1.2-0.4,2.5-1.5,3c-0.5,0.2-1.1,0.3-1.6,0.3c-0.6,0.1-1.2,0.1-2.1,0.1C549.8,43.1,549.4,56.4,549.7,69.9z"/>
	<path d="M389.5,29.8c-0.7-0.1-1.1-0.1-1.6-0.2c-1.6-0.3-2.4-1.3-2.4-2.8c0-1.5,0.9-2.5,2.4-2.8c0.7-0.1,1.4-0.1,2.2-0.1
		c2.5,0,5-0.1,7.4,0c2.1,0,3.4,1.2,3.3,3c0,1.6-1.3,2.7-3.2,2.8c-0.5,0-1.1,0-1.6,0c-1.2,3.2-2.3,35.9-1.3,40.2
		c0.8,0.1,1.6,0.1,2.3,0.2c1.8,0.3,2.7,1.4,2.7,3.1c-0.1,1.6-1,2.6-2.8,2.6c-3.7,0.1-7.3,0.1-11,0c-1.5,0-2.5-1.1-2.6-2.6
		c-0.1-1.5,0.7-2.6,2.2-3c0.9-0.2,1.9-0.2,2.8-0.3C388.7,56.6,389.1,43.3,389.5,29.8z"/>
	<path d="M472.1,69.8c1,0.1,1.8,0.1,2.6,0.2c1.8,0.3,2.8,1.5,2.7,3.1c-0.1,1.5-1.1,2.6-2.9,2.6c-3.7,0.1-7.4,0.1-11,0
		c-1.5,0-2.4-1-2.5-2.4c-0.2-1.5,0.6-2.7,2-3.1c1-0.2,2-0.3,3.1-0.4c0.4-13.3,0.8-26.6,1.1-40.1c-0.5-0.1-1.1-0.1-1.6-0.2
		c-1.5-0.3-2.4-1.4-2.4-2.8c0-1.4,1-2.5,2.5-2.8c0.6-0.1,1.3-0.1,1.9-0.1c2.6,0,5.1-0.1,7.7,0c2.1,0,3.3,1.1,3.3,3
		c0,1.7-1.1,2.7-3.2,2.8c-0.6,0-1.2,0.1-2,0.2C472.2,43.1,471.8,56.4,472.1,69.8z"/>
	<path d="M610.4,828.7c2.2,0,4.3-0.1,6.5,0c2.7,0.1,4.6,1.6,5.7,4.1c1.5,3.3,0.2,6.9-3.1,8.4c-1.3,0.6-2.8,0.9-4.2,0.9
		c-3.6,0.1-7.2,0-10.8,0c-2.1,0-4-0.7-5.3-2.3c-1.7-1.9-2.4-4.2-1.5-6.7c1-2.7,3-4.1,5.7-4.4C605.8,828.5,608.1,828.7,610.4,828.7
		C610.4,828.7,610.4,828.7,610.4,828.7z"/>
	<path d="M505,837.3c-1.2,0-2.4,0.1-3.6,0c-1.2-0.1-2.4-0.2-3.5-0.6c-2.9-1-4.5-3.6-4.3-6.7c0.1-2.8,2-5.3,4.8-5.8
		c4.4-0.9,8.9-0.9,13.3,0c2.8,0.5,4.8,3.3,5,6.1c0.2,2.7-1.3,5.1-3.9,6.3c-1.2,0.5-2.6,0.7-3.9,0.9
		C507.6,837.4,506.3,837.3,505,837.3z"/>
</g>
</svg>
