<?xml version="1.0" encoding="utf-8"?>
<!-- Generator: Adobe Illustrator 23.0.4, SVG Export Plug-In . SVG Version: 6.00 Build 0)  -->
<svg version="1.1" id="Layer_1" xmlns="http://www.w3.org/2000/svg" xmlns:xlink="http://www.w3.org/1999/xlink" x="0px" y="0px"
	 viewBox="0 0 864 864" style="enable-background:new 0 0 864 864;" xml:space="preserve">
<g>
	<path d="M33.6,232.2c0,1.1,0,2,0,3c0,24.6,0,49.1,0,73.7c0,2.6,0,5.3-0.1,7.9c-0.1,2.6,0.9,4.7,2.7,6.7c3.9,4.2,7.8,8.5,11.4,13
		c4.6,5.7,7.8,12.1,8.8,19.4c0.8,6,0.3,12-1.4,17.8c-0.5,1.8-1.1,3.7-1.7,5.8c1.6,1,3.1,2.1,4.8,3c5.7,2.9,10.6,6.8,14.8,11.7
		c14.1,16.3,28.2,32.5,42.3,48.7c2.9,3.3,6,6.4,9.6,9c4.5,3.2,9.5,4.7,14.7,2.6c5.5-2.1,10.3,3.1,9.9,7.9c-0.1,1-0.3,2.1-0.6,3.1
		c-3.7,14.5-7.5,28.9-11.2,43.4c-0.2,0.8-0.3,1.6-0.5,2.3c-0.6,2,0,3.6,1.2,5.2c0.7,1,1.5,1.9,2.2,2.8c2,2.7,3.1,5.7,2.9,9.2
		c-0.3,4-1.9,6.1-5.7,7.3c-4.6,1.5-7.1,4.8-7.7,9.5c-0.2,2.1,0,4.3,0.5,6.4c1.2,5.1,4.4,8.9,8.3,12.8c1.5-1.4,2.9-2.7,4.3-4.1
		c3.7-3.5,7.4-7,11.2-10.5c3.5-3.2,7.5-4.7,12.3-4c3.7,0.6,6.6,2.7,9.1,5.4c3.5,3.8,5.4,8.5,6.6,13.4c1.1,4.4,1.9,8.9,2.4,13.4
		c1,8.9,4.3,16.4,11.1,22.4c4.4,4,8.3,8.4,11.3,13.6c2.2,3.8,3.8,7.9,4.2,12.4c0.1,1.4,0.6,2.1,2,2.5c12.7,3.6,20.6,12.4,25.3,24.3
		c2,5.2,2.9,10.6,3.8,16.1c0.1,0.4,0.2,0.9,0.3,1.6c0.6-0.4,1.1-0.6,1.5-1c6.4-5.1,13.6-6.9,21.6-5.5c1.1,0.2,2.2,0.3,3.2-0.4
		c3.5-2.6,7.6-3.1,11.8-3.5c3.6-0.3,7.2-0.5,10.8-0.5c8.2-0.1,16.5-0.1,24.7-0.1c1,0,2.1-0.1,3.1-0.3c2.6-0.4,4.5-1.9,5.5-4.4
		c1.3-3,2.1-6.2,2.4-9.5c0.1-1,0.3-2.1,0.5-3.1c0.9-3.9,3.5-6.1,7.5-6.1c5.8,0,10.9,2.1,14.6,6.6c3.7,4.4,7.1,9.1,10.6,13.6
		c0.9,1.2,1.7,2.5,3.5,3c0.1-0.7,0.3-1.3,0.3-1.9c0-9.4,0-18.7,0-28.1c0-3.7,0-7.4,0-11c0-4.9,2.8-7.7,7.7-7.9c1.4,0,2.9,0,4.3,0
		c16.2,0,32.5,0,48.7,0c1,0,1.9,0,3,0c0.1-0.8,0.2-1.5,0.2-2.2c0.1-11.3,0.2-22.6,0.2-33.8c0-2.4,0-4.8,0.1-7.2
		c0-2.3,1.1-3.8,2.8-4.2c2.1-0.4,3.6,0.3,4.7,2.5c3.3,6.8,6.6,13.7,9.9,20.5c1.6,3.2,3.1,6.5,4.9,10.1c1.3-2.6,2.4-4.8,3.5-7.1
		c3.9-7.9,7.7-15.8,11.6-23.7c0.6-1.3,1.3-2.4,2.8-2.8c2.5-0.7,4.7,0.8,4.9,3.5c0.1,1.3,0,2.6,0,3.8c-0.1,11.8-0.2,23.5-0.2,35.3
		c-0.1,11.5-0.2,23-0.2,34.5c0,0.8-0.1,1.6-0.3,2.4c-0.5,1.6-1.9,2.5-3.4,2.5c-1.7,0-3.1-1-3.6-2.7c-0.2-0.9-0.3-1.9-0.3-2.8
		c0.1-17.6,0.3-35.2,0.4-52.8c0-0.8,0-1.7-0.4-2.6c-0.4,0.7-0.8,1.3-1.1,2c-3.1,6.4-6.3,12.8-9.4,19.1c-0.4,0.7-0.7,1.4-1.2,2.1
		c-2,2.4-5,2.2-6.5-0.5c-1.4-2.6-2.6-5.3-3.9-8c-2-4.2-4-8.4-6-12.5c-0.3-0.5-0.6-1-0.9-1.6c-0.2,0-0.3,0.1-0.5,0.1
		c0,0.8,0,1.5,0,2.3c-0.1,17.7-0.2,35.4-0.3,53c0,0.8,0,1.6-0.2,2.4c-0.5,1.9-2.1,2.8-4,2.7c-1.7-0.1-3.1-1.4-3.3-3.2
		c-0.1-0.7,0-1.4,0-2.2c0-4.1,0-8.2,0-12.2c0-0.4-0.1-0.8-0.2-1.5c-15.8-0.2-31.6-0.4-47.6,0.1c-0.1,1.4-0.2,2.5-0.2,3.6
		c0,10.1,0.1,20.2,0,30.2c0,2-0.2,4-0.5,6c-1.2,7.2-6.7,10.8-13.6,10.1c-7.8-0.8-13.4-5.2-17.7-11.5c-1.8-2.7-3.6-5.5-5.4-8.2
		c-0.3-0.5-0.8-0.9-1.5-1.6c-0.4,1.1-0.7,1.9-1.1,2.8c-1.2,2.6-2.2,5.3-3.8,7.7c-3.5,5.4-8.7,8.5-15.1,9.1c-5,0.5-10.1,0.6-15.1,0.7
		c-7.4,0.1-14.9,0.1-22.3,0.2c-0.6,0-1.3,0.1-1.9,0.1c-1.9,0-3.1,0.5-4.1,2.5c-1.8,3.8-5.9,5-9.8,3.3c-1.2-0.5-2.3-1.1-3.5-1.5
		c-2.9-1-5.7-0.8-8.3,0.6c-1.3,0.7-2.6,1.6-3.8,2.5c-2.2,1.6-4.4,3.3-6.6,4.8c-3.3,2.3-6.9,2.7-10.8,1.6c-3.8-1.1-6-3.7-6.4-7.8
		c-0.6-5.1-1.1-10.2-1.9-15.2c-1-5.7-3-11.1-6.6-15.8c-1.9-2.4-4.1-4.4-6.8-5.9c-2.7-1.5-5.5-2.1-8.5-1.9c-0.2,0-0.3,0-0.5,0
		c-6.6,0.5-10.4-4.5-8.1-10.7c1.2-3.3,1-6.3-0.8-9.2c-1.7-2.6-3.6-5.1-5.6-7.5c-2.3-2.7-4.9-5.2-7.4-7.8
		c-6.3-6.5-9.8-14.3-11.2-23.1c-0.8-5-1.5-10-2.4-14.9c-0.6-3.2-1.6-6.4-4.3-8.9c-1.4,1.3-2.8,2.5-4.2,3.9
		c-5.2,5.1-10.3,10.3-15.5,15.4c-2.9,2.8-6.8,3.1-9.8,0.7c-7-5.6-13-12.1-16.8-20.3c-1.8-3.9-2.9-7.9-3.1-12.2
		c-0.4-7.8,2.4-14.4,7.3-20.3c1-1.2,2.1-2.4,3.2-3.7c-4.1-5.6-3.9-11.7-2.3-17.9c2.8-10.9,5.6-21.8,8.4-32.7
		c0.2-0.9,0.4-1.8,0.6-2.8c-0.4-0.2-0.7-0.4-1-0.4c-7.6-1.4-13.8-5.4-19.5-10.3c-4.9-4.2-9-9.1-13.2-13.9
		c-12-13.9-24.1-27.8-36.1-41.7c-3.1-3.6-6.8-6.5-10.9-8.9c-3-1.7-5.9-3.6-8.6-5.7c-4.8-3.9-6.6-8.4-4.1-14.4
		c1.4-3.4,2.5-6.9,3-10.6c0.7-5.2-0.4-10-2.9-14.5c-2.7-4.9-6.5-8.9-10.2-13c-2.4-2.7-4.9-5.3-7.4-7.9c-2.1-2.2-3.2-4.7-2.8-7.8
		c0.1-1.1,0.1-2.2,0.1-3.4c0-30.8,0-61.6,0-92.4c0-0.6,0-1.3,0-1.9c0.2-4.4,2.9-7.1,7.3-7.3c0.8,0,1.6,0,2.4,0
		c270.5,0,540.9,0,811.4,0c1.3,0,2.6,0,3.8,0.2c3.3,0.5,5.6,3,5.9,6.3c0.1,0.8,0,1.6,0,2.4c0,130.5,0,260.9,0,391.4
		c0,7-3.8,9.4-10.5,9.6c-5.6,0.2-69.2-3.3-71.6-3.9c0.2,3.4,0.3,7.6,0.3,10.9c0,3,0,6.1-0.1,9.1c-0.1,2.2-1.4,3.6-3.3,3.8
		c-2.5,0.3-4.2-1.4-4.3-4.2c0-4.8,0-9.6-0.1-14.4c0-1.7-0.3-3.5-0.4-5.3c-8.4,0-16.6,0-25,0c-0.3,1.8-0.6,3.6-0.8,5.4
		c-0.5,4.9-0.8,9.7-1.3,14.6c-0.1,1-0.4,2.1-1,2.8c-1,1.2-2.4,1.5-3.9,0.9c-1.5-0.6-2.5-1.8-2.4-3.5c0.1-3.4,0.2-6.7,0.6-10
		c1.4-12.2,3.2-24.3,6.1-36.1c1.6-6.5,3.6-12.9,5.8-19.3c1-2.9,2.8-5.6,4.4-8.2c0.7-1.2,2-2.1,3.1-2.9c2.4-1.5,4.9-1.4,7.2,0.1
		c2.1,1.3,3.5,3.3,4.6,5.5c2.2,4.2,3.4,8.8,4.5,13.4c2.2,9.1,3.8,18.3,4.9,27.6c0,0.3,0.1,0.6,0.2,0.9c3.3,0.1,67.2-4.6,67.2-2.7
		c0-126.2,0-252.3,0-378.3c0,0-0.1-0.1-0.2-0.1c-0.1-0.1-0.1-0.1-0.2-0.1c-0.4,0-0.8-0.1-1.2-0.1c-266,0-532,0-798,0
		C34.4,231.9,34.1,232.1,33.6,232.2z M736.1,614.3c7.9,0,15.4,0,23,0c0-0.5,0-0.9-0.1-1.3c-0.9-8.5-2.3-16.9-4.4-25.2
		c-1-4.2-2.5-8.2-3.9-12.3c-0.3-1-1.1-1.8-1.9-3c-0.9,1.4-1.8,2.4-2.3,3.5c-1.1,2.3-2.2,4.6-3,7c-2.7,7.8-4.6,15.8-6.2,23.8
		C736.9,609.3,736.5,611.7,736.1,614.3z"/>
	<path d="M705.1,636.2c0.5-2.5,1.2-5,1.4-7.5c0.5-6.4,1-12.8,1-19.1c-0.1-13.8-0.6-27.6-0.9-41.5c0-0.9-0.1-1.8,0-2.6
		c0.2-1.8,1.6-2.9,3.5-3c2-0.1,3.4,0.8,3.7,2.6c0.3,2,0.4,4,0.4,6c0.3,12.5,0.8,24.9,0.9,37.4c0,7.6-0.1,15.2-1.3,22.7
		c-0.4,2.6-1.2,5.1-1.8,7.7c-0.2,0.7-0.5,1.3-0.9,2c-2.4,4.4-7.4,5.2-11.1,1.8c-2.3-2.1-3.8-4.8-4.8-7.7c-3-8.9-5.9-17.7-8.7-26.6
		c-1.1-3.5-2-7.1-2.9-10.6c-0.2-0.7-0.5-1.5-1.1-2.2c-0.1,1.6-0.2,3.1-0.3,4.7c-0.2,13.4-0.4,26.9-0.7,40.3c0,0.6,0,1.3-0.2,1.9
		c-0.5,1.9-2,2.9-3.9,2.8c-1.8-0.1-3.2-1.4-3.5-3.4c-0.1-0.7,0-1.4,0-2.2c0.2-12.6,0.2-25.3,0.6-37.9c0.3-10.7,0.9-21.4,1.4-32.1
		c0-0.9,0.2-1.8,0.4-2.6c0.5-1.7,2-2.9,3.4-3c1.7,0,3.3,1.2,3.8,3.1c1.5,5.7,2.8,11.5,4.4,17.2c3.8,14.3,7.5,28.7,12.5,42.8
		c0.7,2.1,1.6,4.2,2.4,6.3c0.4,1,1.1,1.9,1.6,2.8C704.6,636.2,704.9,636.2,705.1,636.2z"/>
	<path d="M539.4,595.5c-0.1,1.6-0.2,3.1-0.3,4.7c-0.2,13.4-0.4,26.9-0.7,40.3c0,0.6,0,1.3-0.2,1.9c-0.5,1.9-2,2.9-3.9,2.8
		c-1.8-0.1-3.2-1.4-3.5-3.4c-0.1-0.6,0-1.3,0-1.9c0.2-12.7,0.2-25.4,0.6-38.1c0.3-10.7,0.9-21.4,1.4-32.1c0-0.9,0.2-1.8,0.4-2.6
		c0.5-1.7,2-2.9,3.4-3c1.7,0,3.3,1.2,3.8,3.1c1.5,5.7,2.8,11.5,4.4,17.2c3.8,14.3,7.5,28.7,12.5,42.8c0.7,2.1,1.6,4.2,2.4,6.3
		c0.4,1,1.1,1.9,1.8,3.1c1.5-2.7,1.8-5.3,2-7.9c0.5-6.5,1-12.9,0.9-19.4c-0.1-13.7-0.6-27.5-0.9-41.2c0-0.9-0.1-1.8,0-2.6
		c0.2-1.8,1.6-2.9,3.5-3c2-0.1,3.4,0.8,3.7,2.6c0.3,1.9,0.4,3.8,0.4,5.7c0.3,12.6,0.8,25.2,0.9,37.9c0,7.5-0.1,15-1.3,22.5
		c-0.4,2.6-1.2,5.1-1.8,7.7c-0.2,0.7-0.5,1.3-0.9,2c-2.4,4.4-7.4,5.2-11.1,1.8c-2.3-2.1-3.8-4.8-4.8-7.7c-3-8.9-5.9-17.9-8.8-26.9
		c-1.1-3.5-2-7.1-2.9-10.6c-0.2-0.7-0.4-1.3-0.6-1.9C539.6,595.5,539.5,595.5,539.4,595.5z"/>
	<path d="M655.7,622.1c-8.5,0-16.6,0-25,0c-0.2,0.7-0.4,1.5-0.5,2.2c-0.6,6-1.2,11.9-1.7,17.9c-0.2,2.4-1.8,4-4,3.9
		c-2-0.1-3.6-1.8-3.5-4.1c0.1-3.3,0.2-6.6,0.6-9.8c1.4-12.3,3.2-24.6,6.3-36.6c1.6-6.3,3.6-12.6,5.7-18.8c1-2.8,2.6-5.3,4.2-7.8
		c0.7-1.1,1.8-2.1,2.8-2.9c2.8-2,6-1.8,8.6,0.4c2.1,1.7,3.4,4,4.5,6.4c2.5,5.8,3.9,12,5.2,18.2c2.7,12.8,4.3,25.7,4.7,38.7
		c0.1,3.9,0,7.8,0,11.8c0,0.4,0,0.8-0.1,1.2c-0.4,2.2-1.9,3.4-4,3.3c-2-0.1-3.4-1.7-3.4-3.9c0-3.6,0-7.2,0-10.8
		C656.1,628.4,655.9,625.4,655.7,622.1z M645.1,572.9c-0.3,0-0.5-0.1-0.8-0.1c-0.2,0.3-0.5,0.7-0.6,1c-1.4,2.9-3.1,5.8-4.2,8.8
		c-3.3,9.6-5.5,19.5-7.3,29.5c-0.1,0.7-0.1,1.4-0.1,2.2c7.7,0,15.2,0,22.7,0c0-0.6,0.1-1,0-1.5c-1.1-6.8-2-13.6-3.3-20.3
		c-1-5.1-2.6-10-4.1-15C646.9,575.9,645.9,574.4,645.1,572.9z"/>
	<path d="M521.1,602c-0.3,6.8-1,13.5-1.8,20.3c-0.6,4.9-2.1,9.5-4.8,13.7c-1.7,2.7-3.8,5.1-6.8,6.7c-4.8,2.5-9.4,2.2-13.7-1.1
		c-2.7-2.1-4.5-4.9-5.9-8c-2.1-4.8-2.8-9.8-3.4-14.9c-0.8-7.5-0.9-15-0.5-22.5c0.3-6.6,1.3-13,3.4-19.3c1.3-3.8,3.1-7.2,5.7-10.2
		c1.6-1.8,3.5-3.3,5.7-4.3c4.7-2.1,9.8-1.3,13.6,2.3c3.7,3.5,5.6,7.9,6.6,12.8C521,585.6,521.4,593.8,521.1,602z M513.4,598.7
		c-0.3-5.1-0.4-10.2-0.8-15.3c-0.3-3.9-1.2-7.7-3.4-11.1c-2.6-4.2-6-4.6-9.5-1.2c-1.8,1.7-3,3.7-4,5.9c-1.8,4.2-2.7,8.7-3.3,13.2
		c-1.2,9.7-1.1,19.5,0,29.2c0.4,3.7,0.9,7.3,2.4,10.7c0.8,1.8,1.9,3.5,3.2,5c2,2.1,4.5,2.3,6.7,0.4c1.5-1.3,2.8-2.9,3.8-4.5
		c1.7-2.7,2.5-5.7,3-8.8C512.9,614.4,513.3,606.6,513.4,598.7z"/>
	<path d="M604,569.3c-0.2,3.4-0.5,6.6-0.6,9.8c-0.5,11.1-1.1,22.2-1.4,33.3c-0.2,8.9,0.1,17.7,0.2,26.6c0,0.6,0,1.3,0,1.9
		c-0.1,2.3-1.7,3.9-3.7,3.9c-2,0-3.7-1.5-3.8-3.8c-0.1-1.9-0.2-3.8-0.2-5.7c-0.4-12.8,0-25.6,0.6-38.3c0.4-8.9,0.8-17.7,1.3-26.6
		c0-0.2-0.1-0.5-0.2-0.9c-0.6-0.1-1.3-0.2-2-0.2c-4.5,0-9,0-13.4,0c-1.4,0-2.5-0.3-3.4-1.4c-1.8-2.2-0.8-5.3,2-6.1
		c0.7-0.2,1.4-0.2,2.1-0.2c13.2,0,26.4,0,39.6,0c0.7,0,1.4,0,2.1,0.2c1.9,0.5,3,2,2.9,3.9c-0.1,1.8-1.5,3.4-3.3,3.5
		c-1.6,0.1-3.2,0-4.8,0C613.4,569.3,608.9,569.3,604,569.3z"/>
</g>
</svg>
