<?xml version="1.0" encoding="utf-8"?>
<!-- Generator: Adobe Illustrator 23.0.4, SVG Export Plug-In . SVG Version: 6.00 Build 0)  -->
<svg version="1.1" id="Layer_1" xmlns="http://www.w3.org/2000/svg" xmlns:xlink="http://www.w3.org/1999/xlink" x="0px" y="0px"
	 viewBox="0 0 864 864" style="enable-background:new 0 0 864 864;" xml:space="preserve">
<g>
	<path d="M195.5,479.8c-1.3,0-2.3,0-3.3,0c-57.1,0-114.2,0-171.4,0c-0.9,0-1.8,0-2.6,0c-3.7-0.2-6.1-2.4-6.6-6.1
		c-0.2-1.1-0.2-2.2-0.2-3.4c0-82,0-164,0-246c0-0.6,0-1.3,0-1.9c0.1-3.2,3.5-6.5,6.5-6.2c1.6,0.1,3.2,0.1,4.8,0.1
		c21.9,0,43.8,0.1,65.8,0.1c0.8,0,1.6,0,2.6,0c0.1-2.7,0.2-5.2,0.3-7.8c0.3-7.3,0.5-14.5,0.8-21.8c0.1-3.1,0.3-6.2,0.5-9.3
		c0-0.7,0.2-1.4,0.4-2.1c0.5-1.7,1.8-2.7,3.3-2.7c1.6,0,3,1,3.4,2.8c0.9,3.2,1.6,6.5,2.4,9.8c3.8,14.6,7.6,29.2,12.5,43.5
		c0.7,2.2,1.6,4.4,2.5,6.5c0.4,0.9,0.9,1.8,1.6,3c1.3-2.2,1.5-4.4,1.7-6.5c1.1-9.3,1.1-18.7,0.9-28c-0.2-9.5-0.6-19-0.9-28.5
		c-0.1-2.7,1.2-4.1,3.5-4.1c2,0,3.3,1.2,3.6,3.4c0.2,1.5,0.1,3,0.2,4.6c0.3,11.8,0.7,23.7,0.8,35.5c0,6.8-0.1,13.6-1.3,20.3
		c-0.4,2.4-1.1,4.9-2.1,7.1c-2.3,4.9-7.6,5.6-11.1,1.5c-1.6-1.8-2.8-4.1-3.7-6.3c-4.1-10.2-7.1-20.7-9.9-31.3
		c-0.3-1.1-0.6-2.2-0.9-3.2c0-0.1-0.2-0.2-0.5-0.6c-0.2,3.9-0.4,7.5-0.4,11.1c-0.2,9.8-0.3,19.5-0.4,29.3c0,0.3,0,0.6,0,1
		c-0.2,1.9-1.7,3.3-3.5,3.2c-1.8,0-3.4-1.4-3.4-3.3c-0.1-2.5,0-5,0-7.4c0-0.9,0-1.7,0-2.7c-21.5,0-42.7,0-64.2,0
		c0,78.1,0,156.1,0,234.3c0.6,0.1,1.2,0.2,1.8,0.2c29.3,0,58.6,0,87.8,0c28.6,0,57.3-0.1,85.9-0.2c4.4,0,7.3,2.2,8.1,6
		c0.1,0.6,0.1,1.3,0.1,1.9c0.1,9.2,0.1,18.4,0.2,27.6c0.1,10.8,0.3,21.6,0.5,32.4c0.2,11.6,0.3,23.2,0.5,34.8
		c0.1,5.6,0.1,11.2,0.2,16.8c0,1.2,0.4,2.5,0.7,3.9c1.1,0,2.2,0,3.2,0c35.8,0,71.5,0,107.3,0c16.7,0,33.4,0.1,50.1,0.2
		c15.5,0.1,31,0.1,46.6,0.2c12.4,0,24.8,0,37.2,0.1c9.4,0,18.9,0.1,28.3,0.2c9.8,0.1,19.5,0.1,29.3,0.1c24.9,0.1,49.8,0.1,74.6,0.2
		c12.1,0,24.2,0.1,36.2,0.2c20,0.1,40,0.1,60,0.1c12.9,0,25.8,0.1,38.6,0.1c25.1,0,50.2,0,75.4,0.1c10.1,0,20.2,0.1,30.2,0.2
		c1.1,0,2.2-0.2,3.4-0.3c-0.3-0.7-0.5-1.1-0.8-1.5c-6.4-10.4-11.9-21.4-16.8-32.6c-3.5-8-8-15.5-13.2-22.5c-2.3-3.2-4.6-6.4-6.7-9.7
		c-3.1-4.9-5-10.3-5.3-16.2c-0.2-4.3,0.6-8.5,2.7-12.2c1.2-2.1,1.2-4,0.7-6.2c-1.2-5.5-2.5-11.1-3.3-16.7c-1.2-8-0.8-16.1,0.4-24.1
		c0.6-4,1.6-8,2.4-12c0.4-2,0.4-2.4-1.5-3.5c-1.5-0.9-3-1.8-4.5-2.7c-6.2-3.5-10.4-8.6-13.4-14.9c-3.1-6.5-4.8-13.4-5.4-20.5
		c-0.6-8.4-1-16.8-1.5-25.1c-0.3-4.9-0.7-9.7-2.3-14.4c-1.6-4.5-3.9-8.6-7.4-11.9c-6.1-5.8-9.8-12.8-11.5-21.1
		c-1.6-7.6-3.5-15.1-5.3-22.6c-0.3-1.2-0.6-2.3-1-3.7c-1,0.1-2,0.1-3,0.3c-3.4,0.5-6.7,0.4-10-0.4c-5.6-1.4-9.7-4.7-12.7-9.5
		c-1.5-2.4-3-4.9-4.7-7.2c-3.2-4.5-7.3-7.7-12.8-9.1c-3.7-0.9-6.4-3.2-8.1-6.6c-1.4-2.8-2.8-5.6-4.1-8.4c-1.2-2.8-3-4.1-6.2-4.2
		c-6.2-0.2-12.4-0.8-18.5-2.6c-3.9-1.2-7.5-2.8-10.6-5.4c-1.2-1-2.3-1.1-3.7-0.5c-3.7,1.5-7.4,2.9-11.1,4.4
		c-5.4,2.2-10.3,1.5-14.9-2.1c-2.5-1.9-3.3-1.9-5.6,0.3c-1.3,1.2-2.5,2.7-3.6,4.1c-0.6,0.7-0.9,1.5-1.4,2.2
		c-4.9,7.7-12.4,10.7-21.3,8.6c-4.7-1.1-8.9-3.2-12.7-6c-5.8-4.3-11.5-8.7-17.1-13.1c-5.3-4.1-10.9-7.6-17.5-9.1
		c-15-3.4-30.6-3.5-45.9-3.8c-15.3-0.3-30.6-2.3-45.8-3.9c-2.2-0.2-4.4-0.4-6.7-0.5c0,0.7,0,1.4,0,2c0.1,5.4,0.2,10.7,0.3,16.1
		c0,0.7-0.1,1.4-0.4,2.1c-0.6,1.5-2.2,2.4-3.6,2.2c-1.5-0.2-2.8-1.5-3.1-3c-0.1-0.5,0-1.1,0-1.7c-0.1-5-0.2-9.9-0.3-14.9
		c0-0.7-0.2-1.4-0.3-2.3c-7.4,0-14.8,0-22.4,0c-0.2,1.2-0.5,2.5-0.6,3.8c-0.4,4.7-0.8,9.4-1.2,14.1c-0.2,1.9-1,3.1-2.6,3.6
		c-1.3,0.4-2.8,0.1-3.6-1.1c-0.5-0.7-0.8-1.8-0.8-2.6c0.3-4.6,0.5-9.3,1.1-13.9c1.3-10.4,3-20.7,5.7-30.9c1.4-5.3,3.2-10.6,5.1-15.7
		c0.8-2.2,2.2-4.3,3.6-6.2c0.9-1.2,2.3-2.3,3.6-3c2.1-1.1,4.2-0.6,6.1,0.7c2.2,1.5,3.5,3.7,4.6,6.1c2.1,4.6,3.4,9.5,4.3,14.4
		c1.3,6.8,2.3,13.7,3.5,20.6c0.1,0.6,0.3,1.2,0.5,2c15.1-2.6,30.8-2.7,46-2.5c9.7,0.1,19.5,0.8,29.2,0.8c6.5,0.3,12.9,0.8,19.4,1.5
		c11,1.1,20.7,5.3,29.3,12c4.4,3.4,8.6,6.9,13,10.2c2.6,2,5.3,3.8,8.1,5.6c1.3,0.8,2.8,1.2,4.2,1.7c2.5,0.7,4.5-0.1,6-2.3
		c1.4-2,2.8-4.1,4.2-6.1c2.8-4,6.6-6.7,11.3-8c5.1-1.3,9.9-0.8,14.1,2.4c1.7,1.3,3.4,1.5,5.3,0.6c2.5-1.2,5.2-2.1,7.7-3.2
		c3.3-1.4,6.7-1.9,10.3-1.9c2.1,0,4,0.6,5.5,2c5.2,4.8,11.5,6.3,18.3,6.7c2.6,0.1,5.3,0.4,7.9,0.7c6.1,0.6,10.7,3.5,13.8,8.8
		c1.6,2.8,3,5.6,4.5,8.5c0.8,1.5,1.8,2.6,3.4,3.1c9.2,3.1,15.6,9.4,20.4,17.6c1.1,1.8,2.1,3.6,3.3,5.3c1.1,1.6,2.7,2.3,4.7,2.3
		c3,0,5.7-0.7,8.3-2.1c0.8-0.4,1.5-0.9,2.3-1.3c4.1-1.8,8.1-0.1,9.3,4.2c1,3.3,1.7,6.7,2.4,10c2.2,9.3,4.3,18.5,6.5,27.8
		c1.1,4.5,3.4,8.4,6.8,11.6c7,6.6,10.8,14.9,12.6,24.3c1.6,8.4,1.9,16.8,2,25.3c0.1,6.8,0.4,13.6,2.3,20.2c0.6,2,1.3,4,2.1,5.9
		c1.8,4.3,4.5,7.7,8.6,9.9c1.7,1,3.4,2.1,5.1,3.1c5.4,3.2,8,8,7.3,14.3c-0.5,4.3-1.3,8.5-2.1,12.8c-2,12-1.3,23.9,1.7,35.7
		c0.7,2.8,1.5,5.5,2.4,8.3c0.9,2.9,0.4,5.4-1.7,7.5c-2.9,2.9-3.4,6.4-2.5,10.2c0.7,2.8,1.9,5.4,3.6,7.8c2.1,3.2,4.3,6.4,6.6,9.5
		c5.8,7.8,10.6,16.2,14.3,25.1c3.9,9.4,8.8,18.3,13.8,27.1c2.6,4.5,5,9.1,7.4,13.7c0.6,1.2,1.1,2.7,1.1,4.1c0.3,4-2.1,6.7-6.1,7.3
		c-0.9,0.1-1.8,0.2-2.6,0.2c-29.3,0-58.6,0-87.8,0c-14,0-28-0.1-42-0.2c-16.3-0.1-32.6-0.1-49-0.2c-21-0.1-42.1-0.1-63.1-0.1
		c-35-0.1-69.9-0.2-104.9-0.3c-8.3,0-16.6-0.1-25-0.1c-19.8-0.1-39.7-0.2-59.5-0.3c-24.2-0.1-48.3-0.1-72.5-0.1
		c-9.2,0-18.4-0.1-27.6-0.1c-11.1-0.1-22.2-0.2-33.3-0.2c-24.1-0.1-48.2-0.1-72.2-0.1c-1.2,0-2.4-0.1-3.5-0.4
		c-2.6-0.7-4.2-2.6-4.7-5.2c-0.2-0.9-0.2-1.7-0.2-2.6c-0.1-11.8-0.1-23.7-0.3-35.5c-0.1-13.3-0.4-26.5-0.6-39.8
		c-0.2-10.6-0.3-21.1-0.5-31.7C195.7,485.6,195.6,482.8,195.5,479.8z M433.3,218.1c0-0.5,0-0.8,0-1.1c-1.1-6.8-2.1-13.6-3.4-20.3
		c-0.9-4.4-2.4-8.6-3.7-12.9c-0.4-1.2-0.9-2.3-2-3.1c-4.1,4.7-11.1,28-11.2,37.3C419.7,218.1,426.4,218.1,433.3,218.1z"/>
	<path d="M195.1,214.5c1.3,0.7,2.6,1.4,3.8,2.2c3,1.9,5.6,4.3,7.2,7.5c3.6,7.1,1.2,15.1-5.8,19c-4.1,2.3-8.6,2.8-13.2,2.5
		c-0.5,0-0.9-0.1-1.5-0.1c-0.3,0.4-0.6,0.8-0.9,1.1c-1.1,1.2-2.4,1.6-3.9,1c-1.5-0.5-2.2-1.7-2.3-3.3c-0.2-4.6-0.4-9.1-0.5-13.7
		c-0.1-8.6-0.2-17.1-0.1-25.7c0.1-9.5,0.4-19,0.7-28.5c0.1-2.3,0.9-3.5,3.1-3.9c6.6-1.1,13.3-1.8,20-0.3c0.7,0.2,1.4,0.3,2.1,0.6
		c8.1,2.7,11.5,8.9,9.6,17.3c-1.9,8.1-6.4,14.6-12.6,19.9C199,211.8,197.1,213.1,195.1,214.5z M184.8,211.2
		c5.9-2.1,10.5-5.1,14.4-9.3c3.7-4,6.5-8.5,7.4-14c0.7-4-0.5-6.2-4.4-7.6c-5.4-2.1-10.9-1.6-16.7-0.8
		C185.3,190,185.1,200.4,184.8,211.2z M184.8,219.2c0.2,6.5,0.3,12.7,0.5,19c4.3,0.9,8.2,0.6,11.9-1.6c3.1-1.9,4.2-5.2,2.8-8.5
		c-0.7-1.5-1.7-2.9-2.9-4C193.7,221.2,189.6,220,184.8,219.2z"/>
	<path d="M231.3,218.1c-0.1,4.9-0.3,9.2-0.4,13.5c-0.1,4.2-0.2,8.3-0.4,12.4c-0.1,2.5-1.6,3.8-3.8,3.7c-2-0.1-3.4-1.7-3.3-3.9
		c0.2-7.4,0.5-14.8,0.6-22.3c0-2.6,0.7-5.3-0.6-7.8c-0.2-0.4-0.2-1-0.1-1.4c1.5-3.5,1-7.2,1.1-10.8c0.3-8.3,0.4-16.6,0.6-24.9
		c0.1-3.6,0.9-4.4,4.5-5c5.6-0.9,11.2-1.1,16.6,0.6c7.8,2.4,12.6,7.6,13.7,15.9c0.5,3.7-0.3,7.3-1.9,10.7
		c-3.2,6.8-8.6,11.2-15.3,14.2c-0.8,0.4-1.6,0.7-2.7,1.2c0.7,0.5,1.2,0.9,1.8,1.2c3.9,2.4,7.2,5.3,9.3,9.4c1.4,2.7,2.3,5.7,2.5,8.7
		c0.3,3.4,0.3,6.9,0.2,10.3c-0.1,2.1-1.7,3.4-3.6,3.4c-2.1,0-3.4-1.5-3.5-3.8c0-0.5,0-1,0-1.4c0-1.9,0-3.8,0-5.8
		c-0.2-6.5-3-11.5-8.8-14.7C235.9,220.3,233.8,219.3,231.3,218.1z M231.5,208.5c0.7,0,1.1,0.1,1.6,0c4.6-1,8.8-2.7,12.5-5.6
		c3.1-2.4,5.4-5.4,6.6-9.2c1.5-4.7,0.3-9.3-3.3-12.1c-4.9-3.9-10.6-4.1-16.7-3.2C232,188.6,231.8,198.5,231.5,208.5z"/>
	<path d="M300.4,225.5c-7.6,0-14.9,0-22.6,0c-0.5,5.3-1.1,10.5-1.6,15.7c-0.1,0.9-0.1,1.8-0.2,2.6c-0.2,2-1.5,3.3-3.3,3.5
		c-1.7,0.1-3.4-1.3-3.6-3.2c-0.1-1,0-2.1,0.1-3.1c1.4-17.8,4.3-35.3,9.7-52.4c1.2-3.8,2.6-7.6,5-10.8c0.9-1.3,2-2.5,3.3-3.4
		c2.4-1.8,5.3-1.7,7.5,0.3c1.4,1.3,2.7,2.9,3.7,4.6c2.3,4.2,3.4,8.9,4.5,13.6c2.9,12.4,4.6,25,5.2,37.7c0.2,4,0.1,8,0.1,12
		c0,0.8-0.1,1.6-0.3,2.4c-0.5,1.5-1.9,2.5-3.5,2.4c-1.6-0.1-3.1-1.4-3.3-3c-0.1-0.8,0-1.6,0-2.4c-0.1-4.6-0.2-9.3-0.3-13.9
		C300.7,227.3,300.5,226.5,300.4,225.5z M290.9,180.7c-4.1,3.9-11.8,29.2-11.4,37.4c6.8,0,13.5,0,20.6,0c-1.1-6.5-2-12.8-3.3-19.1
		c-0.7-3.3-1.6-6.6-2.6-9.9C294.1,188.6,291.2,180.4,290.9,180.7z"/>
	<path d="M365.8,203.1c0.5-0.2,0.9-0.3,1.3-0.5c7.3-4.3,13.4-9.8,17.2-17.5c1-2,1.4-4.4,2-6.6c0.2-0.7,0.2-1.4,0.5-2.1
		c0.6-1.5,2.1-2.2,3.7-1.9c1.6,0.3,3,1.4,2.8,3c-0.2,2.4-0.5,4.9-1.2,7.3c-1.6,5.2-4.7,9.6-8.4,13.5c-4.7,5-10,9.2-16.3,12
		c-0.1,0.1-0.2,0.2-0.5,0.4c0.1,0.5,0.3,1.1,0.5,1.7c1.6,4.6,3.4,9.2,6.1,13.2c1.8,2.7,4,5.2,6.2,7.6c2.2,2.3,5,3.6,8.4,3.2
		c2.7-0.3,4.5,1.9,3.9,4.4c-0.4,1.5-1.6,2.5-3.5,2.8c-3.3,0.4-6.4-0.2-9.2-1.8c-3.4-1.9-6.2-4.5-8.5-7.6c-1.6-2.2-3-4.5-4.5-6.8
		c-0.3-0.4-0.6-0.9-1.2-1.8c-0.1,1.4-0.1,2.1-0.1,2.9c0.1,4.3,0.1,8.6,0.2,12.9c0,0.6,0.1,1.1,0,1.7c-0.2,1.9-1.6,3.3-3.4,3.4
		c-1.9,0.1-3.5-1.4-3.7-3.4c-0.1-1.4-0.1-2.9-0.1-4.3c-0.3-12.9-0.1-25.9,0.5-38.8c0.4-7.7,0.8-15.5,1.2-23.2c0-0.6,0.1-1.1,0.2-1.7
		c0.3-2.2,1.7-3.3,3.8-3.2c2.1,0.1,3.5,1.7,3.4,3.9c-0.1,2.6-0.4,5.1-0.5,7.6c-0.3,6.3-0.6,12.6-0.9,18.9
		C365.6,202.6,365.7,202.8,365.8,203.1z"/>
	<path d="M317,227.5c0.1-2.1,0.4-4.1,1-6.1c0.6-2.2,1.8-4,3.3-5.7c1.2-1.3,3.3-1.2,4.6-0.2c1.2,1,1.7,3.3,0.7,4.6
		c-3.1,4.1-2.5,8.5-1.5,13c0.2,0.7,0.5,1.4,0.8,2c2.4,4.9,7.6,5.8,11.3,1.7c1.1-1.1,2-2.6,2.5-4c1.4-4,1.2-8.1-0.1-12
		c-0.5-1.4-1.6-2.8-2.7-3.9c-1.4-1.4-3.2-2.4-4.7-3.7c-2.6-2.2-5.2-4.2-7.5-6.6c-4.4-4.6-5.9-10.3-5.3-16.6
		c0.3-3.9,1.3-7.7,3.3-11.2c2.8-4.8,7-7.3,12.5-7.6c6.6-0.3,11.7,3.8,13.2,10.5c0.8,3.6,0.8,7.3,0.1,11c-0.4,2.2-2.1,3.4-4.1,3.1
		c-2-0.3-3.1-2-3-4.3c0.2-1.8,0.3-3.7,0.4-5.5c0-0.9-0.2-1.7-0.3-2.6c-1.2-5.8-6.2-6.1-9.8-3.9c-1.2,0.8-2.3,2-3,3.3
		c-1.8,3.5-2.5,7.2-2.1,11.1c0.4,3.9,2.3,6.9,5.1,9.5c1.6,1.4,3.3,2.7,5,4.1c1.4,1.1,2.8,2.1,4.2,3.2c4.3,3.4,6.4,7.9,6.6,13.3
		c0.2,3.6,0.3,7.2-0.9,10.7c-1.5,4.5-4.2,8-8.4,10.3c-5.9,3.1-12.7,1.7-16.8-3.5C318.2,237.5,316.9,232.5,317,227.5z"/>
	<path d="M145.8,180.5c-0.3,9.5-0.7,18.9-1,28.3c2.4,0,4.4,0,6.5,0c1.9,0,3.8-0.1,5.7,0.2c1.7,0.3,2.8,1.8,2.7,3.5
		c0,1.6-1.3,3.1-2.9,3.4c-0.4,0.1-0.8,0.1-1.2,0.1c-2.8,0.1-5.6,0.1-8.4,0.2c-0.7,0-1.4,0.1-2.4,0.2c-0.4,7.7-0.1,15.2-0.2,23
		c1,0.1,1.7,0.2,2.5,0.2c5.3,0,10.6-0.1,15.8-0.1c0.5,0,1,0,1.4,0c1.7,0.2,2.8,1.3,3.1,2.8c0.3,1.7-0.5,3.3-2.1,3.9
		c-0.8,0.3-1.7,0.4-2.6,0.4c-7,0.1-14.1,0.1-21.1,0.1c-2.8,0-4.1-1.2-4.1-4.1c-0.1-8.1-0.3-16.2-0.1-24.2
		c0.3-13.4,0.9-26.8,1.4-40.2c0-0.2,0-0.5,0-0.7c0.3-2.7,1.3-3.7,3.9-3.9c1.8-0.1,3.5-0.2,5.3-0.2c5.4,0,10.7,0,16.1,0
		c0.7,0,1.5,0,2.1,0.2c1.8,0.5,2.8,2,2.6,3.8c-0.2,1.6-1.4,3-3.1,3.1c-1.8,0.1-3.7,0.1-5.5,0.1c-4.2,0-8.5,0-12.7,0
		C147.2,180.3,146.7,180.4,145.8,180.5z"/>
</g>
</svg>
