<?xml version="1.0" encoding="utf-8"?>
<!-- Generator: Adobe Illustrator 23.0.4, SVG Export Plug-In . SVG Version: 6.00 Build 0)  -->
<svg version="1.1" id="Layer_1" xmlns="http://www.w3.org/2000/svg" xmlns:xlink="http://www.w3.org/1999/xlink" x="0px" y="0px"
	 viewBox="0 0 864 864" style="enable-background:new 0 0 864 864;" xml:space="preserve">
<g>
	<path d="M362.9,609.7c-0.5,0.7-1.1,1.3-1.6,2c-3.7,4.2-7.3,8.5-11,12.7c-0.9,1.1-2,1.9-3.5,1.9c-1.5,0-2.7-0.5-3.4-1.8
		c-0.7-1.4-0.8-2.8,0-4.1c0.3-0.5,0.8-1,1.2-1.5c4.4-5.1,8.8-10.2,13.3-15.5c-6.8-6.1-13.5-12.1-20.3-18.1c-1.8,1.5-3.6,3-5.3,4.5
		c-3.5,3.3-6.9,6.6-10.4,9.9c-0.6,0.6-1.3,1.2-2.1,1.5c-1.6,0.6-3.4-0.1-4.3-1.4c-0.9-1.3-0.9-3.2,0-4.5c0.6-0.9,1.4-1.7,2.2-2.5
		c15.4-14.7,31.9-28.2,50.3-39.1c4.2-2.5,8.6-4.6,13.5-5.5c1-0.2,2.1-0.3,3.1-0.2c3.8,0.2,6.2,2.3,7,6.1c0.5,2.4,0.3,4.8-0.5,7.1
		c-1.5,4.1-3.1,8.2-5,12.2c-4.7,9.3-10.2,18.1-16.2,26.6c-0.5,0.7-1,1.4-1.6,2.4c15.7,15.5,34.7,27.4,51.2,42.1
		c11.4,10.2,23,20.3,34.5,30.4c14.8,13.1,29.6,26.2,44.5,39.3c6.8,6,13.7,11.7,20.5,17.8c9.1,8.1,18.1,16.3,27,24.6
		c16.3,15.2,32.7,30.4,48.8,45.8c9.4,9,18.5,18.4,27.8,27.6c0.7,0.7,1.5,1.3,2.5,2.1c0.2-0.8,0.5-1.2,0.5-1.7
		c0.1-5.8-0.6-11.3-4.3-16.1c-2.1-2.8-3-6.2-2.7-9.7c0.3-3.6-0.5-6.7-2.4-9.8c-2.9-4.9-3.6-10.4-2.7-16c0.6-3.9,0.1-7.4-1.8-10.9
		c-3.1-5.6-2.8-11,0.9-16.2c0.4-0.6,0.8-1.2,1.2-2c-1.2-1.5-2.4-3-3.6-4.4c-2.1-2.5-3.2-5.3-3.3-8.5c-0.2-5.8,1.2-11.1,4.3-15.9
		c2.9-4.5,6.9-7.3,12.2-8c8.2-1.1,16.3-0.6,24.3,1.3c4.4,1.1,8.4,3.1,11.9,6c1.2,1,2.5,2,3.8,3c2.3-1.4,3.6-3.4,4.6-5.7
		c1.6-3.7,2.4-7.6,2.3-11.7c-0.1-8.3-0.3-16.6-0.4-24.9c0-1,0-2.1,0-3.1c0-171,0-341.9,0-512.9c0-23.9,0.1-47.8,0.2-71.8
		c0-19.8,0.1-39.5,0.1-59.3c0-2.1,0-4.1,0-6.4c-10.3-1-21-0.3-31.4-0.3c-46.4,0.1-92.8,0-139.2,0c-46.9,0-93.8,0-140.7,0
		s-93.8,0-140.7,0c-25.6,0-51.1,0-76.7,0c-2,0-4-0.1-6,0.1c-2.4,0.2-2.4,0.3-2.5,2.6c-0.1,4.4-0.2,8.8-0.2,13.2
		c-0.1,18.5-0.1,37-0.1,55.4c-0.1,37.8-0.3,75.5-0.5,113.3c-0.1,30.2-0.3,60.5-0.5,90.7c-0.1,24.9-0.2,49.8-0.4,74.6
		c0,2.7,0.8,4.9,2.9,6.8c4,3.8,7.9,7.7,11.9,11.6c0.5,0.5,1,1,1.9,1.7c0.6-0.8,1.1-1.5,1.7-2.1c8.7-9,17.4-18.1,26.2-27.1
		c0.7-0.7,1.4-1.4,2.1-1.9c1.6-1.1,3.7-1,4.9,0c1.4,1.2,1.7,3.1,0.7,5c-3.7,7.3-7.6,14.5-11.2,21.8c-6,12.2-12.2,24.3-17.3,36.9
		c-1.1,2.7-2.1,5.5-3.1,8.3c-0.3,0.9-0.4,2-0.6,3.6c1.5-0.9,2.6-1.3,3.5-2.1c3.9-3.5,7.9-6.8,11.5-10.5
		c12.3-12.7,23.5-26.4,34.6-40.2c0.7-0.8,1.3-1.7,2-2.4c1.6-1.7,3.7-1.8,5.4-0.4c1.7,1.4,2,3.4,0.7,5.4c-0.6,0.9-1.3,1.6-1.9,2.5
		c-11.3,14-22.7,27.9-35.3,40.9c-3.7,3.8-7.6,7.3-11.7,10.7c-1.7,1.5-3.8,2.6-6,3.5c-5.5,2.3-10.2-0.9-10.4-6.9
		c-0.1-3.2,0.7-6.2,1.8-9.1c4.2-11.2,9.2-22,14.5-32.6c1.3-2.6,2.6-5.3,3.6-8.1c-0.5,0.5-1,0.9-1.5,1.4
		c-10.4,11.3-20.8,22.6-31.3,33.9c-0.5,0.6-1,1.2-1.6,1.7c-1.6,1.4-3.8,1.4-5.2,0c-1.5-1.3-1.7-3.5-0.5-5.2c0.5-0.7,1.1-1.4,1.7-2
		c4.3-4.8,8.5-9.5,13-14.5c-0.6-0.7-1.3-1.4-1.9-2c-5.3-5.2-10.6-10.4-16-15.6c-2.2-2.1-3.1-4.5-3.1-7.5c0.1-14.8,0.1-29.6,0.2-44.4
		c0-13.1,0.1-26.2,0.1-39.4c0.1-32.6,0.3-65.3,0.4-97.9c0.2-33.6,0.3-67.2,0.5-100.8c0.1-26.2,0.3-52.5,0.5-78.7c0-1,0-2.1,0.3-3.1
		c0.7-3,3.1-5,6.1-5.2c1.9-0.1,3.8-0.1,5.8-0.1c180.2,0,360.5,0,540.7,0c1.9,0,3.8-0.1,5.8,0.1c4.1,0.3,5.9,2,6.5,6
		c0.3,2,0.3,4,0.3,6c0,71.9-0.1,143.8-0.1,215.8c0,33.6-0.1,67.2-0.1,100.8c0,64.9,0,129.8,0,194.6c0,43.4-0.1,86.9-0.1,130.3
		c0,11.7,0.4,23.3,0.6,35c0.1,5.6-0.2,11.2-1.9,16.6c-1.8,6-5,11.2-9.7,15.4c-3.8,3.4-8.2,4.5-13.1,3.1c-1.5-0.4-2.9-1.3-4.2-2.2
		c-1.6-1.2-3-2.6-4.5-3.9c-3.1-2.7-6.7-4.3-10.9-4.5c-2.8-0.1-5.6-0.4-8.4-0.7c-0.8-0.1-1.6-0.1-2.4-0.1c-5.1,0-8.1,2.7-8.6,7.7
		c-0.2,1.6,0.4,3,1.4,4.2c1,1.3,2,2.5,3,3.8c1.9,2.6,3.1,5.6,3.5,8.8c0.5,3.2-0.4,6-2.9,8.2c-2.4,2.1-2.5,3.3-0.5,5.6
		c2.9,3.3,3.6,7,2.7,11.2c-0.4,1.7-0.6,3.5-0.8,5.2c-0.3,2.8,0.2,5.4,1.4,7.9c0.5,1,1,2,1.6,3c1.8,3.2,2.8,6.6,2.4,10.4
		c-0.3,2.7,0.4,5,1.8,7.3c2.7,4.2,3.9,8.9,4.5,13.8c0.7,6.6,0,13.1-0.3,19.6c-0.1,2.7-0.4,5.4-0.6,8.1c-0.2,3.1-2.3,4.8-4.9,5.9
		c-2.6,1.1-4.9,0.3-6.8-1.5c-0.6-0.5-1.1-1.1-1.7-1.7c-15.5-17-32.1-33.1-48.8-48.9c-19.2-18-38.3-36.1-57.7-53.9
		c-12.7-11.7-25.9-22.9-38.9-34.3c-17.3-15.3-34.6-30.5-51.9-45.8c-16.8-14.8-35-29-49.9-45.7c-4.5-5-8.9-10.2-13.8-14.7
		C363.6,608.8,363.3,609.1,362.9,609.7z M344,580.3c6.2,5.5,12.2,11,18.4,16.5c0.5-0.6,0.9-1.1,1.3-1.6c5.9-8.4,11.3-17.1,15.9-26.2
		c1.5-3,2.7-6.1,3.9-9.3c0.4-1.1,0.4-2.3,0.7-3.8c-1.3,0.2-2.3,0.2-3.1,0.6c-3.3,1.4-6.6,2.8-9.7,4.6c-9.1,5.2-17.6,11.4-25.8,17.9
		C345.1,579.3,344.7,579.7,344,580.3z"/>
	<path d="M277.6,532.1c-6.7-6-13.3-11.9-19.9-17.8c-0.5,0.3-1,0.7-1.5,1.1c-4.8,4.4-9.7,8.8-14.4,13.4c-1.9,1.8-4.6,1.7-5.8,0.6
		c-1.6-1.4-1.7-3.9-0.1-5.8c0.8-1,1.7-1.9,2.6-2.8c15-14.1,30.9-27.1,48.6-37.7c4.4-2.6,9-4.9,14.1-5.9c1.1-0.2,2.2-0.3,3.3-0.2
		c3.7,0.2,6,2.3,6.9,5.9c0.6,2.5,0.2,4.9-0.4,7.3c-1.3,4.7-3.3,9-5.6,13.2c-9.6,17.9-21.1,34.5-34.9,49.4c-0.6,0.6-1.2,1.3-1.9,1.8
		c-1.6,1-3.6,0.7-4.8-0.5c-1.3-1.3-1.4-3.6-0.3-5.1c0.3-0.4,0.8-0.8,1.1-1.2c3.9-4.6,7.9-9.3,11.8-13.9
		C276.7,533.3,277.1,532.8,277.6,532.1z M304.1,484.6c-1.7,0.4-2.7,0.4-3.6,0.8c-7,3.1-13.7,6.8-20,11.1c-1.3,0.9-17,12.2-16.8,12.4
		c1.4,1.5,18.8,16.5,18.6,16.8c0.6-0.7,1-1.2,1.3-1.7c5.6-8.1,10.8-16.4,15.3-25.2c1.5-2.8,2.7-5.8,3.9-8.7
		C303.4,488.5,303.6,486.9,304.1,484.6z"/>
	<path d="M296.6,573.8c-6.2-0.1-12.1-1.9-16.7-6.6c-0.6-0.6-1.1-1.2-1.5-1.9c-0.9-1.6-0.7-3.2,0.5-4.7c1.6-2,3.2-4,4.9-5.9
		c14.9-17.3,30.8-33.6,47-49.6c1.7-1.7,3.3-2,5.2-1c5.4,3.2,10,7.3,12.5,13.1c2.6,5.9,2.4,12,0.5,18c-2.4,7.5-6.8,13.7-12.3,19.2
		c-8.1,8.2-17.6,14.3-28.7,17.6C304.3,573.2,300.6,573.8,296.6,573.8z M287,563.2c1.8,0.8,3.3,1.6,4.9,2c4.2,1.2,8.4,0.9,12.5-0.3
		c14.7-4.3,26.2-12.9,34.4-25.9c1.7-2.7,2.9-5.7,3.5-8.9c1.3-6.6-1.3-13.5-7.9-17.5C318,528.8,302.1,545.3,287,563.2z"/>
	<path d="M209,498.2c0-3.5,1-6.8,2.3-10c2.5-6.4,6-12.2,9.9-17.8c9.1-13.3,19.4-25.6,30.7-37.1c0.8-0.8,1.6-1.6,2.5-2.3
		c1.7-1.3,3.8-1.1,5.2,0.4c1.3,1.4,1.4,3.7,0,5.2c-1.5,1.7-3.2,3.2-4.7,4.8c-11,11.6-21.2,24-29.9,37.4c-2.7,4.2-5.3,8.6-7,13.3
		c-0.7,1.9-1.1,4-1.2,6c-0.1,2.2,0.9,3,3,2.5c2-0.5,4-1.1,5.8-2.1c4.7-2.4,9.3-4.9,13.8-7.7c13.7-8.5,26.5-18.2,38.7-28.7
		c1.8-1.6,3.5-3.3,5.3-4.9c1.7-1.5,3.9-1.5,5.4-0.1c1.5,1.4,1.6,3.7,0.2,5.4c-0.7,0.8-1.4,1.5-2.2,2.2c-14.5,13.1-30,24.9-46.9,34.8
		c-4.3,2.5-8.8,4.5-13.3,6.5c-2.3,1-4.9,1.6-7.4,1.8c-6.2,0.7-9.9-2.7-10.1-8.9C209,498.9,209,498.5,209,498.2z"/>
	<path d="M220.3,410.6c-7.8,8.2-15.6,16.4-23.4,24.6c3.2,2.7,6.2,5.3,9.1,7.8c0.5,0.5,1.1,0.9,1.5,1.5c1.3,1.6,1.2,3.5-0.1,5
		c-1.3,1.4-3.3,1.8-5,0.8c-0.5-0.3-1-0.8-1.5-1.2c-2.5-2.1-5-4.3-7.5-6.4c-0.6-0.5-1.2-1-2-1.6c-6.2,6.9-12.2,13.7-18.5,20.6
		c0.7,0.7,1.3,1.3,2,1.8c4.7,4.1,9.4,8.2,14.1,12.3c0.5,0.4,1,0.8,1.4,1.3c1.5,1.6,1.5,3.6,0.2,5.2c-1.2,1.5-3.5,1.8-5.2,0.7
		c-0.5-0.3-0.9-0.7-1.3-1.1c-6-5.2-12.1-10.5-18.1-15.7c-0.5-0.4-1-0.8-1.4-1.3c-1.4-1.5-1.5-3.4-0.3-5.1c0.3-0.4,0.6-0.7,0.9-1.1
		c16.4-19.1,33.3-37.6,51.1-55.3c2.8-2.8,4.3-2.9,7.4-0.3c4.7,4.1,9.4,8.2,14.1,12.3c1.7,1.5,3.4,2.9,5,4.4c1.4,1.3,1.7,2.9,1.1,4.6
		c-0.6,1.5-2.2,2.6-3.8,2.3c-0.9-0.1-1.8-0.6-2.6-1.2c-1.6-1.2-3-2.6-4.5-3.9c-3.6-3.2-7.2-6.4-10.8-9.5
		C221.8,411.7,221.1,411.3,220.3,410.6z"/>
</g>
</svg>
