<?xml version="1.0" encoding="utf-8"?>
<!-- Generator: Adobe Illustrator 23.0.4, SVG Export Plug-In . SVG Version: 6.00 Build 0)  -->
<svg version="1.1" id="Layer_1" xmlns="http://www.w3.org/2000/svg" xmlns:xlink="http://www.w3.org/1999/xlink" x="0px" y="0px"
	 viewBox="0 0 864 864" style="enable-background:new 0 0 864 864;" xml:space="preserve">
<g>
	<path d="M443.9,205.2c3.7,4.7,4.5,10.2,4.8,15.8c0.1,1.2,0.4,1.9,1.4,2.5c5.6,3.4,8.1,8.6,8.8,14.9c0.1,1.1,0.2,2.2,0.3,3.3
		c0.3,4.3,1.4,8.4,4.2,11.8c1.7,2.1,1.7,6.3-0.5,8.9c-1.2,1.4-2.8,2-4.6,2.3c-0.9,0.1-1.8,0.3-2.7,0.5c-0.1,0.4-0.2,0.5-0.2,0.7
		c1.2,3.9-0.4,7.6-0.6,11.4c-0.1,2-0.4,4-0.7,5.9c-0.9,5.4-4,8.6-9.3,9.6c-1.9,0.4-3.8,0.6-5.7,0.7c-1.9,0.1-3.1,1-3.9,2.7
		c-0.9,1.9-1.9,3.7-2.7,5.6c-2.5,5.5-6.6,9.3-12.1,11.7c-2.4,1-4.8,2.2-7.2,3.2c-5.6,2.4-10.1,6-13.5,11.1c-2.2,3.3-4.2,6.6-6.6,9.8
		c-1.4,2-3.1,3.9-4.9,5.5c-2.8,2.5-6.1,2.5-9.4,0.7c-1.3-0.7-2.6-1.5-4-2.2c-8.4-4.6-19.4-0.6-24.6,7.7c-1.8,2.9-2.2,6-1.2,9.2
		c1.5,4.6,1.6,9.2,1.1,14c-0.5,4.5,0.2,8.9,1.7,13.2c1.1,3,2.1,6.1,1,9.4c-0.5,1.6-1.3,3.2-2.2,4.7c-0.9,1.6-2.1,3-3.3,4.7
		c0.7,0.6,1.4,1.1,2.1,1.6c2.3,1.8,3.3,4.2,2.4,7c-0.5,1.7-1.3,3.4-2.2,5c-1.8,3.3-4.4,6.1-7.2,8.6c-1.8,1.7-3.6,3.4-5.4,5.1
		c-1.8,1.7-2.9,3.8-3,6.3c-0.1,1-0.2,1.9-0.3,2.9c-0.3,2.2-0.5,4.2,1.7,5.7c1.3,0.9,1.6,2.5,1.5,4.1c-0.2,4.1-1.5,7.7-4.8,10.3
		c-1.8,1.4-2.8,3.2-3,5.5c-0.3,5.1-2.6,9.2-6.2,12.6c-1.1,1-2.1,2-3.2,2.9c-2.6,2.2-3.7,4.9-3.6,8.2c0.1,2.6,0.2,5.3,0.2,7.9
		c0.2,9.3-4,16.3-11.5,21.4c-1.2,0.8-2.4,1.6-3.7,2.3c-3.7,2-5.9,5.1-6.6,9.2c-0.6,3.6-1.2,7.3-1.8,10.9c-0.9,5.1-2.5,9.9-6.2,13.8
		c-0.7,0.7-0.9,2-1,3.1c-0.4,2.4-0.5,4.8-1,7.1c-1,4.4-3.8,7.3-8,8.8c-3.5,1.3-3.9,1.7-3.9,5.3c0,3.5,0.2,7,0.6,10.5
		c0.6,5.4,1,10.7-0.5,16c-0.1,0.5-0.1,1-0.1,1.4c0.3,3.9-0.8,7.4-2.3,10.9c-1.7,4.1-3.2,8.2-4.9,12.3c-0.6,1.4-0.5,2.6,0.3,3.9
		c1.7,2.9,2.7,6,2.8,9.3c0.2,5.3,1,10.7-0.3,16c-0.6,2.3-1.2,4.7-2.5,6.7c-2.8,4.6-3.8,9.6-4.3,14.8c-0.3,2.8-0.6,5.6-1,8.3
		c-0.3,1.6-0.7,3.2-1.4,4.6c-1,2.1-1.2,4.3-0.7,6.5c0.7,3.4,1.5,6.7,2.2,10.1c0.7,3.2,0.5,6.4-0.5,9.5c-0.9,2.7-1.8,5.5-3,8.1
		c-1.4,3.2-1.8,6.4-0.9,9.8c1.7,6.1,0.3,11.7-3.4,16.8c-3,4.1-6.8,7.4-10.8,10.5c-2,1.6-3,3.3-3.1,5.9c-0.1,2.5-0.6,4.9-1,7.4
		c-0.4,2.7-1.4,5.2-3,7.5c-1.5,2.1-1.9,4.3-1.5,6.8c0.8,5.3,3.2,9.7,6.7,13.6c1.9,2.1,3.7,4.1,4.9,6.8c0.5,1.2,1.8,2,2.7,3
		c4.8,5,4.4,4.9,11.6,5.1c13.7,0.3,27.3,0.8,41,1.2c10.2,0.3,20.3,0.7,30.5,1.1c14.4,0.6,28.8,1.2,43.2,1.7
		c13.6,0.5,27.2,1.1,40.8,1.6c16.4,0.6,32.8,0.9,49.2,1.5c10.8,0.4,21.5,1.5,32.2,3c8.1,1.1,15.7-0.3,22.7-4.9
		c2.8-1.8,5.7-3.6,8.5-5.4c1.3-0.8,1.8-1.7,2.1-3.2c0.6-3.4,1.3-6.7,2.3-10c1.1-3.7,3.4-6.9,6.2-9.5c5.1-4.8,11.1-6.5,17.9-4.8
		c2.4,0.6,4.8,1.2,7.2,1.8c2.1,0.5,2.4,0.4,3.6-1.4c1.2-1.9,2.4-3.8,3.5-5.8c4.6-8.2,11.7-12.2,21-12.6c4.6-0.2,9.1,0.2,13.5,1.6
		c1.5,0.5,2.5,0.2,3.4-0.8c1.5-1.7,3.2-3.4,4.4-5.3c5.6-9.1,11.3-18.2,17.6-26.9c1.8-2.5,3.3-5.3,4.8-8c1.2-2.1,1.2-2.7-0.3-4.5
		c-3.9-4.7-8.6-8.1-14.5-9.7c-2.2-0.6-4.5-1.2-6.7-1.8c-7.2-2.2-10.5-7.9-8.8-15.2c0.8-3.2,2.1-6.4,3.2-9.5c0.5-1.4,1.2-2.8,1.6-4.2
		c1.6-4.6,1-8.9-1.6-13.1c-2.5-4-5.4-7.7-8.6-11.2c-4.7-5.1-9.3-10.1-13.9-15.2c-8.2-9.2-10.8-20.1-9.6-32.1
		c0.6-5.9,2.3-11.4,4.3-16.9c1.2-3.4,2.6-6.7,3.7-10.1c2.7-8.7,4.7-17.6,3.5-26.9c-0.9-6.9-1.3-13.9-1.9-20.8c-0.2-2.5,1-4,3.5-4.2
		c8.8-0.7,17.5-1.5,26.3-2c9.5-0.6,19-0.9,28.5-1.2c1.2,0,2.4-0.1,3.6,0c1.9,0.1,2.9,0.9,3.2,2.9c0.4,2.2,0.6,4.4,0.8,6.7
		c0.4,4.4,0.7,8.8,1,13.2c0,0.2,0,0.3,0,0.5c0,2.1-1.2,3.5-3,3.7c-1.8,0.2-3.4-1.1-3.6-3.1c-0.2-1.9-0.3-3.8-0.5-5.7
		c-0.2-3-0.4-5.9-0.6-8.9c-0.1-0.8-0.2-1.6-0.4-2.6c-8.3,0.3-16.5,0.7-24.9,1c0.2,2.4,0.4,4.5,0.6,6.6c0.1,1.1,0.3,2.2,0.2,3.3
		c0,2-1.2,3.2-3,3.4c-1.9,0.2-3.4-1-3.6-3c-0.3-2.2-0.4-4.5-0.6-6.7c-0.1-0.9-0.3-1.9-0.4-3.2c-6.7,0.5-13.4,1-20.2,1.5
		c0.3,3.3,0.4,6.3,0.8,9.3c0.6,4.9,1.4,9.8,2.5,14.6c1.3,5.5,2.4,11.1,2,16.9c-0.2,3.7-0.6,7.3-1.8,10.8c-1.8,5.6-3.6,11.1-5.1,16.7
		c-1.4,5.2-2,10.5-0.9,15.9c0.5,2.5,1.4,4.9,3,7c3.1,3.9,6.2,7.7,9.4,11.5c2.7,3.1,5.7,6.1,8.5,9.2c3.9,4.3,7.4,9.1,10,14.3
		c4.3,8.5,4.7,16.9,0.5,25.6c-1.2,2.4-2.6,4.8-2.5,7.8c1.2,0.4,2.4,0.7,3.6,1.1c8.1,2.4,15.3,6.1,21,12.4c2.1,2.3,3.8,4.9,5.6,7.4
		c2.2,3.1,2.5,6.6,0.9,10c-1.8,3.8-3.6,7.7-5.9,11.2c-9.2,14.2-18.5,28.4-27.9,42.5c-0.9,1.3-2,2.5-3.3,3.4
		c-2.7,1.9-5.6,1.7-8.2-0.3c-0.4-0.3-0.8-0.7-1.3-1.1c-4.1-3.5-8.9-4.5-14.2-3.5c-2.2,0.4-4,1.6-5.3,3.4c-1.4,1.9-2.7,4-4,6
		c-1.1,1.7-2,3.4-3.1,5.1c-3.2,4.7-7.7,6.4-13.1,5.4c-2.7-0.5-5.5-1.2-8.2-1.9c-5.1-1.4-8.2,0-10.1,4.9c-0.8,2.1-1.1,4.3-1.5,6.5
		c-0.3,1.8-0.3,3.7-0.4,5.5c-0.2,2.7-1.4,4.7-3.7,6c-5.9,3.4-11.8,6.8-17.7,10.2c-7.9,4.6-16.4,5.8-25.3,4.7
		c-12.7-1.5-25.5-2.2-38.3-2.7c-14-0.5-28-1.1-42-1.7c-9-0.4-18.1-0.7-27.1-1.1c-14.5-0.6-28.9-1.2-43.4-1.8
		c-11.5-0.4-23-0.8-34.5-1.2c-16.5-0.6-32.9-1.1-49.4-1.7c-2.6-0.1-5.3-0.2-7.9-0.2c-4.5,0-8.5-1.4-11.7-4.6
		c-2.6-2.6-5.2-5.2-7.8-7.8c-0.4-0.4-0.8-0.8-1-1.3c-1-2.6-2.8-4.6-4.6-6.7c-4.9-5.8-8.5-12.2-9.5-19.8c-0.5-3.4-0.6-6.9,0.3-10.3
		c0.5-1.8,1.2-3.7,2.3-5.2c1.6-2.2,2.4-4.7,2.8-7.3c0.3-2,0.5-4,0.6-6c0.2-4.5,2.3-7.8,5.8-10.5c2.9-2.2,5.7-4.7,8.4-7.2
		c2.9-2.6,3.7-5.7,2.3-9.6c-1.6-4.4-1.6-8.9,0.7-13.3c0.5-1,1-2,1.5-3c2.2-4.1,2.6-8.5,1.6-13c-0.7-3.2-1.2-6.4-1.8-9.7
		c-0.5-2.5-0.3-5,0.6-7.3c1.8-4.8,2.3-9.8,3-14.8c0.3-2.5,0.7-5.1,1.1-7.6c0.5-3,1.6-5.9,3.3-8.4c1.9-2.9,2.7-6.1,2.7-9.5
		c0-2,0-4,0-6c-0.1-2.6-0.8-5-2.7-7c-2.2-2.2-2.6-4.9-1.7-7.8c1.8-5.4,3.4-10.8,5.5-16.1c3.5-8.9,4.5-18.1,3.2-27.6
		c-0.5-4-0.4-8.1-0.4-12.2c0.1-2.9,1.3-5.6,2.7-8.1c1.5-2.7,3.7-4.5,6.7-5.5c3.1-1,3.4-1.4,3.5-4.8c0-1,0-2.1,0-3.1
		c0.1-2.3,0.8-4.4,2.4-6.1c3.6-4,5.1-8.8,5.9-13.9c0.4-3,0.9-6,1.6-9c1.5-6.4,5.3-11.2,10.6-14.9c1.3-0.9,2.7-1.7,4.1-2.5
		c4.3-2.5,6.5-6.3,6.5-11.2c0-2.4-0.2-4.8-0.4-7.2c-0.7-6,1-11.2,5-15.7c1.3-1.4,2.7-2.7,4.2-3.9c2.7-2.2,4.2-5,4.4-8.5
		c0.2-3.9,1.4-7.4,4.8-9.8c-1-4.5-1.4-9-1-13.6c0.6-7.8,3.8-14.3,9.8-19.4c2-1.7,4-3.5,6-5.3c-0.4-0.8-0.7-1.6-1.1-2.4
		c-2.8-5.7-2.1-11,1.7-16c2.8-3.6,2.8-2.7,1.6-7.5c-1.2-4.9-1.7-9.9-1.5-15c0.1-4.1-0.4-8.3-0.9-12.4c-0.4-3.4-0.7-6.8-0.1-10.3
		c0.7-4.2,2.2-8.1,4.8-11.3c7.4-9.1,16.9-14,28.8-13.7c3.5,0.1,6.8,0.7,10,2.1c1,0.4,2.1,0.8,3.2,1.2c0.7-1.1,1.3-2.1,2-3.1
		c2.8-3.8,5.4-7.7,8.4-11.3c3.7-4.5,8.5-7.7,14-9.8c2.5-0.9,4.9-2.1,7.2-3.2c3-1.5,5.2-3.7,6.6-6.7c0.9-2,1.9-3.9,2.9-5.8
		c2.8-5.7,7.4-8.9,13.7-9.6c1-0.1,2.1-0.2,3.4-0.4c0.2-2.1,0.4-4.2,0.5-6.3c0-0.7-0.6-1.5-1.1-2c-4.2-3.9-4.1-11.1,2-14.9
		c1.5-0.9,3.1-1.7,4.7-2.6c-0.1-1.3-0.3-2.5-0.4-3.8c-0.3-2.9-0.6-5.9-0.9-8.8c-0.3-2.5-1.6-4.2-4-4.8c-3.4-0.8-5.1-3-5.5-6.4
		c-0.2-2.1-0.6-4.3-0.6-6.4c-0.1-4.1-1.3-7.6-4.3-10.6c-3.4-3.3-3.9-7.5-1.5-11.6c0.9-1.6,2.3-3.1,3.6-4.5c1.5-1.6,3.1-3,4.7-4.5
		c2-2,3.3-4.3,3.8-7.1c0.4-2.4,1.5-4.5,3.4-6.2c1.8-1.5,2.4-3.4,2.1-5.8c-0.6-5.5,1.1-10.1,5.3-13.7c2-1.8,4.3-3.3,6.6-5.1
		c-0.3-0.7-0.6-1.4-0.8-2.2c-0.3-1.6-0.8-3.2-0.6-4.7c0.4-3.4-0.7-6.1-3.2-8.3c-2.8-2.6-4.1-5.8-4.1-9.6c0-5.2,2.9-9.4,7.8-11.3
		c0.9-0.3,1.8-0.7,2.8-1c-0.3-2.4-0.6-4.7-0.8-6.9c-0.6-4.5-0.1-8.9,1.4-13.2c1.7-5.1,4.8-9.2,9.3-12.1c1.1-0.7,2.2-1.5,3.3-2.2
		c0.1-0.3,0.1-0.5,0.1-0.6c-1.1-4.4-0.4-8.6,1.4-12.6c0.9-2.1,1.8-4.3,2.6-6.4c1.4-3.6,0.8-5.2-2.6-7.1c-0.9-0.5-1.9-0.9-2.8-1.4
		c-2-1.1-3.1-2.8-2.8-5.1c0.2-1.4,0.5-2.9,1-4.2c0.9-2.1,2.5-3.2,4.8-3.3c4.3-0.1,8.6-0.3,12.9-0.4c2.5-0.1,3.1-0.5,3.6-2.9
		c0.2-0.7,0.3-1.4,0.5-2.1c0.5-2.8,1.9-4.7,4.5-6.1c2.1-1.1,4-2.6,5.9-4.1c5.6-4.6,11.8-4.2,17.3-0.6c4.3,2.8,8.2,6.2,11.6,10
		c1.2,1.4,2.5,2,4.3,1.9c1.2-0.1,2.4,0.1,3.6,0.2c1.8,0.1,3.3-0.6,4.2-2.2c0.8-1.5,1.5-3,2.2-4.5c1.6-3.5,3.8-6.5,6.9-8.8
		c4.3-3.2,8.8-3.2,13.1,0c3.8,2.8,6.1,6.6,6.6,11.3c1.1,10.2,0.8,20.3-1.7,30.3c-0.3,1.2-0.6,2.5-0.9,4c1,0,1.9,0,2.7,0
		c11.4-0.5,22.9-0.9,34.3-1.4c1.1,0,2.2-0.1,3.4,0c0.8,0,1.6,0.2,2.3,0.5c1.2,0.5,2,1.4,2,2.7c0,1.4-0.6,2.5-1.9,3.1
		c-0.5,0.2-1.1,0.4-1.6,0.5c-14.5,4.9-29.1,9.8-43.2,15.7c-2.4,1-4.8,2.2-7.2,3.3c-0.8,0.4-1.5,0.9-2.1,1.5c1.6,0.7,3.2,1,4.9,0.9
		c6.7-0.2,13.4-0.2,20.1-0.7c9.7-0.8,19.4-2,29.1-3c0.7-0.1,1.4-0.2,2.2-0.1c1.7,0.1,2.9,1.2,3.1,2.8c0.2,1.6-0.7,3-2.2,3.5
		c-0.7,0.2-1.4,0.3-2.1,0.4c-6.8,0.8-13.5,1.7-20.3,2.3c-9.2,0.7-18.3,1.2-27.5,1.5c-3,0.1-6.1-0.4-9-1c-2.8-0.5-5.2-1.9-5.8-5
		c-0.6-3.1,1.1-5.2,3.3-6.9c1.5-1.1,3-2.1,4.7-2.8c8.3-3.4,16.7-6.8,25.1-10.1c0.9-0.4,1.9-0.7,2.7-1.5c-0.8,0-1.5,0-2.3,0
		c-10.4,0.6-20.8,1.2-31.1,1.8c-0.6,0-1.3,0.1-1.9,0c-1.6-0.3-2.8-1.6-2.8-3.1c-0.1-1.7,1-3.1,2.8-3.4c1.1-0.2,2.2-0.2,3.4-0.3
		c2.7-10.2,5.5-20.2,3.1-31.4c-0.7,1.2-1.1,1.9-1.6,2.6c-0.9,1.5-1.6,3.1-2.5,4.6c-2.7,4.3-6.6,6.4-11.6,6.6
		c-3.1,0.1-6.2,0.1-9.3,0.8c-2.5,0.5-5-0.2-7-1.8c-2.3-1.9-4.3-4-6.4-6.1c-2.5-2.5-5-5.1-7.7-7.8c-1.9,1.3-3.7,2.3-5.2,3.7
		c-1,0.9-1.8,2.3-2.2,3.6c-1.8,5.9-5.6,9.6-11.5,11c-0.3,0.1-0.6,0.2-0.9,0.4c0,2.2,0.3,4.4-0.1,6.4c-0.6,3-1.5,5.9-2.7,8.7
		c-1.5,3.6-2.2,7.1-1.3,11c1.1,4.5-0.6,8-4.1,10.7c-1,0.8-2.1,1.4-3.1,2.2c-1.6,1.2-3.2,2.4-4.6,3.8c-1.8,1.7-2.8,3.8-2.6,6.2
		c0.3,3.3,0.7,6.5,1.2,9.7c0.2,1.7,0.7,3.3,1,4.9c0.9,5.2-1.2,9.1-6,11.3c-0.9,0.4-1.7,0.8-2.9,1.3c0.4,0.7,0.8,1.4,1.2,2
		c2.2,3.2,3.3,6.7,3,10.6c-0.1,2.4,0.2,4.6,1.1,6.8c1.7,4.3,0.7,8-2.5,11.2c-1.6,1.6-3.3,3-5.1,4.3c-2.9,2-4.3,4.5-4,8.1
		c0.4,4.7-0.9,8.8-4.4,12.2c-1,0.9-1.8,2.3-2.1,3.6c-1.1,4.3-3.5,7.9-6.3,11.2C446.6,202.3,445.3,203.7,443.9,205.2z"/>
	<path d="M567.9,166.9c-2.3-1.1-4.4-1.8-6.2-2.9c-1.7-1-3.3-2.3-4.5-3.9c-2.2-2.8-1.9-6.1,0.4-8.8c1.5-1.7,3.4-2.8,5.5-3.7
		c4.3-1.7,8.9-2.6,13.5-3.2c10.8-1.3,21.6-2.2,32.5-1.9c3.1,0.1,6.2,0.4,9.3,0.8c2,0.3,3.1,1.6,3.1,3.4c0,2.1-1.7,3.5-3.9,3.2
		c-15.2-1.8-30.3-0.5-45.3,2c-2.6,0.4-5.1,1.4-7.5,2.2c-0.8,0.3-1.5,1-2.4,1.6c1,1.5,2.4,2.2,3.7,2.9c4.6,2.3,9.5,3.3,14.5,3.8
		c3.3,0.3,6.7,0.3,10.1,0.4c2.5,0.1,3.9,1.1,4,3.1c0.1,2-1.5,3.4-3.9,3.7c-5.2,0.6-10.3,1.1-15.4,2c-2.4,0.4-4.8,1.4-7,2.4
		c-1.2,0.5-2.2,1.6-3,2.6c-1.2,1.7-0.9,3.2,0.9,4.3c1.3,0.9,2.8,1.6,4.3,2.1c4.4,1.5,9,2.1,13.7,2.4c11,0.7,22.1,0.3,33-1.4
		c1.3-0.2,2.5-0.5,3.7-0.8c2.2-0.5,3.9,0.3,4.4,2.1c0.6,2-0.4,3.8-2.7,4.2c-4.3,0.8-8.6,1.6-13,2c-8,0.9-16,0.8-24,0.5
		c-6-0.2-12-0.9-17.7-2.9c-2.2-0.8-4.5-1.8-6.3-3.3c-4.7-3.8-5-10.2-0.8-14.6c1.4-1.5,3.3-2.4,5-3.6
		C566.5,167.6,567.1,167.3,567.9,166.9z"/>
	<path d="M608.9,326.6c1,0.4,1.7,0.8,2.4,1.1c7.3,2.9,14.5,5.8,21.8,8.7c0.7,0.3,1.4,0.5,2,0.9c1.2,0.7,1.8,1.8,1.6,3.2
		c-0.2,1.4-1,2.3-2.3,2.8c-0.6,0.2-1.3,0.3-1.9,0.3c-15.3,1.1-30.6,2.2-45.9,3.3c-4.1,0.3-8.3,0.6-12.4,0.8
		c-2.5,0.2-4.1-1.2-4.1-3.3c0-1.8,1.2-3,3.2-3.2c3.9-0.4,7.8-0.6,11.7-0.9c10.3-0.7,20.6-1.5,30.9-2.2c0.6,0,1.2-0.2,2.3-0.3
		c-1.2-0.5-1.9-0.8-2.6-1.1c-4.6-1.8-9.2-3.7-13.8-5.5c-0.9-0.4-1.8-0.8-2.5-1.3c-1.7-1.4-1.7-3.8,0-5.2c0.5-0.5,1.2-0.8,1.8-1.1
		c4.2-2.4,8.4-4.9,12.7-7.3c0.7-0.4,1.3-0.8,1.9-1.6c-2.7,0.2-5.4,0.3-8.1,0.5c-8.4,0.6-16.8,1.2-25.1,1.8c-3.3,0.2-6.5,0.5-9.8,0.7
		c-0.6,0-1.1,0.1-1.7,0.1c-1.8-0.1-3.2-1.5-3.3-3.2c-0.1-1.7,1.2-3.2,3-3.4c3.7-0.4,7.5-0.6,11.2-0.9c11.1-0.8,22.2-1.5,33.3-2.3
		c4.9-0.3,9.9-0.7,14.8-1c2.1-0.1,3.5,0.7,4,2.3c0.5,1.6-0.1,3.1-2,4.2c-6.9,4-13.8,8-20.7,12C610.5,325.6,609.9,326,608.9,326.6z"
		/>
	<path d="M611.9,514.2c-0.5,0.9-0.9,1.6-1.3,2.3c-3.1,5.9-8,9.4-14.5,10.8c-2.8,0.6-5.7,0.7-8.6,1c-0.5,0.1-1.1,0-1.7-0.1
		c-1.6-0.4-2.7-1.8-2.6-3.3c0-1.6,1.3-3,3-3.2c1.7-0.2,3.5-0.3,5.3-0.4c7-0.5,11.9-3.8,14.4-10.4c0.4-1.1,0.8-2.2,1.2-3.4
		c0.1-0.2,0-0.5-0.1-0.9c-3.4,0.2-6.8,0.3-10.3,0.5c-3.9,0.2-7.8,0.5-11.7,0.6c-2.2,0.1-3.6-0.9-3.9-2.7c-0.3-2,0.8-3.6,2.9-3.9
		c1.7-0.2,3.3-0.3,5-0.4c6.2-0.3,12.5-0.3,18.7-1.1c3.1-0.4,6-0.3,9.1-0.4c9.3-0.4,18.5-0.9,27.8-1.3c2.3-0.1,3.5,0.5,4.1,2.5
		c1.5,5.5,2.3,11.1,0.8,16.8c-2.7,10.2-12.2,15.3-22.2,11.8c-6.4-2.2-10.8-6.6-14.1-12.4C612.9,515.9,612.4,515.1,611.9,514.2z
		 M616.3,506c1.6,5.9,4.1,10.8,8.8,14.3c1.5,1.1,3.3,2,5.1,2.6c4.9,1.5,9.4-0.3,11.7-4.5c2.3-4.3,2-8.9,1-13.7
		C634,505.1,625.4,505.5,616.3,506z"/>
	<path d="M584.8,295.1c-0.5-6.7-1-13.1-1.4-19.6c-1.7-0.1-3.4-0.4-5-0.4c-3.6-0.1-7.2-0.1-10.8-0.1c-2.2,0-3.7-1.1-3.9-3
		c-0.2-1.9,1.4-3.5,3.6-3.6c1.8-0.1,3.5-0.1,5.3-0.1c15,0.4,29.9,1.6,44.4,5.3c3.2,0.8,6.4,2,9.4,3.6c5.9,3.2,6.1,8.7,0.5,12.5
		c-2.2,1.5-4.7,2.7-7.3,3.6c-11.3,4.2-22.9,6.9-34.8,8.6c-4,0.6-8.1,0.9-12.2,1.3c-1.2,0.1-2.4,0.2-3.6,0.1
		c-1.9-0.1-3.2-1.5-3.2-3.2c0-1.7,1.2-3.2,3.1-3.4c2.5-0.3,5.1-0.3,7.7-0.6C579.1,295.8,581.8,295.4,584.8,295.1z M591.4,293.7
		c0.9-0.1,1.7-0.1,2.3-0.2c3.4-0.8,6.9-1.4,10.2-2.4c5.3-1.6,10.5-3.3,15.7-5.1c1.5-0.5,3-1.2,3.9-2.5c-4-3.2-25.8-7.9-33.4-7.2
		C590.6,282,591,287.8,591.4,293.7z"/>
	<path d="M592.3,234.4c0.5,5.4,0.9,10.5,1.4,15.8c0.9,0,1.6,0,2.4,0c10.1-0.3,20.1-0.5,30.2-0.8c0.7,0,1.4,0,2.2,0
		c1.7,0.2,2.8,1.3,2.9,2.9c0.1,1.7-0.8,3.1-2.6,3.5c-0.6,0.1-1.3,0.1-1.9,0.2c-12.6,0.4-25.3,0.6-37.9,1.2
		c-6.5,0.3-13.1,1.1-19.6,1.7c-0.7,0.1-1.4,0.2-2.2,0.2c-2,0-3.3-1-3.6-2.8c-0.3-1.8,0.9-3.5,2.9-3.8c1.8-0.3,3.6-0.5,5.5-0.6
		c4.5-0.4,8.9-0.7,13.4-1.1c0.5,0,0.9-0.2,1.6-0.3c-0.4-5.2-0.9-10.4-1.3-15.8c-2.8,0.2-5.4,0.3-8,0.5c-4.1,0.4-8.1,0.8-12.2,1.2
		c-0.3,0-0.6,0.1-1,0.1c-2,0-3.3-1-3.5-2.8c-0.2-1.9,0.9-3.4,2.9-3.8c1.7-0.3,3.5-0.4,5.2-0.6c18-1.7,36.1-2.4,54.1-2.5
		c0.7,0,1.4,0,2.2,0c2,0.2,3.2,1.4,3.3,3.2c0.1,1.9-1.2,3.3-3.3,3.4c-1.7,0.1-3.4,0.1-5,0.1c-8.6,0.2-17.3,0.5-25.9,0.7
		C593.9,234.2,593.2,234.3,592.3,234.4z"/>
	<path d="M608,437.4c0.5,5.2,0.9,10.4,1.4,15.7c1,0,1.8,0,2.6,0c10.2-0.2,20.3-0.5,30.5-0.7c0.6,0,1.3,0,1.9,0.1
		c1.8,0.3,2.9,1.6,2.8,3.3c-0.1,1.7-1.2,3-3,3.1c-3.8,0.2-7.5,0.2-11.3,0.3c-12.2,0.5-24.4,1-36.7,1.6c-4.1,0.2-8.1,0.8-12.2,1.2
		c-0.3,0-0.6,0.1-1,0.1c-2.1,0.1-3.5-1.1-3.6-3c-0.1-1.9,1.1-3.4,3-3.6c3.2-0.4,6.4-0.7,9.5-1c2.8-0.2,5.6-0.4,8.4-0.6
		c0.6-0.1,1.3-0.2,2.2-0.3c-0.1-5.3-0.9-10.4-1.2-15.9c-3.4,0.3-6.7,0.5-9.9,0.7c-3.6,0.3-7.2,0.7-10.7,1.1c-2.2,0.2-3.7-0.9-4-2.9
		c-0.3-1.8,1.1-3.5,3.2-3.7c6.9-0.7,13.8-1.5,20.8-1.8c12.9-0.6,25.7-0.9,38.6-1.3c0.9,0,1.8,0,2.6,0.2c1.7,0.4,2.5,1.6,2.5,3.3
		c-0.1,1.7-1.1,2.8-2.8,3.1c-0.6,0.1-1.1,0.1-1.7,0.1c-10,0.3-20,0.6-30,0.9C609.3,437.2,608.7,437.3,608,437.4z"/>
	<path d="M593.5,395.3c0.8,0.1,2.5,0.2,4.1,0.7c1.4,0.4,2.8,1.2,3.9,2.2c1.5,1.2,1.6,2.9,0.7,4.3c-0.9,1.4-2.9,1.9-4.5,1
		c-4.5-2.6-8.7-1.5-13,0.5c-0.3,0.1-0.6,0.3-0.8,0.5c-3.1,2.3-3.4,5.9-0.7,8.7c1.7,1.8,3.8,2.8,6.1,2.9c2.5,0,4.9-0.2,7.4-0.6
		c2.1-0.4,3.8-1.6,5-3.5c0.9-1.3,1.7-2.7,2.6-4c1.2-1.8,2.4-3.6,3.7-5.3c5.2-6.7,12.2-8.7,20.3-7.5c2.7,0.4,5.3,1.2,7.6,2.7
		c4.6,3,6.6,7.3,6.2,12.7c-0.4,4.6-3.1,7.6-7.3,9.3c-3.4,1.4-7,1.7-10.6,1.4c-0.6,0-1.3-0.2-1.8-0.5c-1.3-0.6-2-2-1.8-3.4
		c0.2-1.4,1.3-2.5,2.7-2.7c0.7-0.1,1.4,0,2.2,0c1.8-0.1,3.7-0.2,5.5-0.5c2.1-0.4,4-1.5,4.5-3.8c0.4-2.4-0.3-4.7-2.3-6.2
		c-1.1-0.8-2.5-1.6-3.8-1.8c-2.3-0.4-4.6-0.6-6.9-0.6c-2.8,0.1-5.3,1.2-7.2,3.3c-1.7,1.8-3.1,3.8-4.6,5.8c-0.8,1.1-1.4,2.3-2.1,3.5
		c-2.8,4.8-7,7.5-12.5,8.3c-4.2,0.5-8.3,0.6-12.3-1.1c-2.6-1.1-4.8-2.8-6.5-5.2c-4-5.8-2.9-13,2.9-17.2
		C583.8,396.3,588.1,395.4,593.5,395.3z"/>
	<path d="M599.3,360.9c-1.9,0-3.7-0.1-5.4,0c-6.1,0.5-12.3,1-18.4,1.7c-1.7,0.2-3.1-0.1-4-1.6c-1.3-2.1,0-4.6,2.6-5
		c4.4-0.5,8.9-1,13.4-1.4c15.5-1.2,31.1-1.6,46.7-1.8c3.2,0,4,0.6,4.8,3.8c1.3,5.1,1.9,10.2,0.5,15.4c-2.7,10.4-12.2,15.5-22.3,12
		c-4.4-1.5-7.9-4.2-10.8-7.7c-3.4-4.1-5.5-9-6.8-14.1C599.5,361.8,599.4,361.5,599.3,360.9z M606,360.2c1.5,6.2,3.9,11.2,8.6,14.8
		c1.6,1.2,3.5,2.2,5.5,2.9c5.1,1.6,9.9-0.5,12.1-5.1c2-4.3,1.8-8.6,0.6-13.3C623.9,359.7,615.1,360,606,360.2z"/>
	<path d="M579.2,114.7c-6.8,0.5-13.3,1-19.9,1.4c-0.3,2,0,3.9,0.2,5.8c0.3,3.7,0.7,7.3,0.9,11c0.1,2.1-0.9,3.4-2.6,3.7
		c-2,0.4-3.6-0.8-3.9-2.9c-0.3-2.4-0.5-4.8-0.7-7.2c-0.4-4.1-0.7-8.1-1.1-12.2c-0.2-3.2,0.9-4.4,4-4.7c18.2-1.7,36.3-2.7,54.6-3.2
		c1,0,1.9,0,2.9,0c2.5,0.1,3.5,1,3.8,3.4c0.3,2.7,0.6,5.4,0.8,8.1c0.3,3.8,0.6,7.6,0.8,11.5c0.2,2.1-1.1,3.7-3,3.9
		c-1.8,0.2-3.3-1.1-3.6-3.1c-0.4-3.7-0.6-7.5-0.9-11.2c-0.2-1.9-0.4-3.8-0.6-6c-8.4,0.3-16.5,0.7-24.9,1c0.3,3,0.5,5.7,0.7,8.3
		c0.1,0.6,0.2,1.3,0.1,1.9c-0.1,1.8-1.3,3-3,3.1c-1.8,0.1-3.3-0.9-3.5-2.8c-0.4-2.8-0.6-5.6-0.9-8.3
		C579.4,116,579.3,115.5,579.2,114.7z"/>
	<path d="M587.2,478c17.9-2,35.5-2.3,53.2-2.8c0.2,0,0.4-0.2,0.7-0.3c0-0.7,0-1.4,0-2.1c0.1-2,1.2-3.2,3-3.4c1.7-0.2,3.2,1,3.5,2.9
		c0.4,3,0.6,6,0.9,9.1c0.1,1.2,0.3,2.4,0.3,3.6c0.1,2.1-1.1,3.5-3,3.7c-1.9,0.2-3.3-0.9-3.6-3c-0.2-1.1-0.3-2.2-0.4-3.6
		c-17.9,0.1-35.8,0.8-53.7,2.6c0,1.2,0,2.3,0,3.4c0,2.2-1.2,3.7-3.1,3.8c-1.8,0.1-3.3-1.1-3.5-3.2c-0.5-4.6-0.8-9.2-1.1-13.9
		c-0.1-2.2,1.1-3.5,2.9-3.7c2-0.2,3.4,1,3.7,3.2C587.1,475.5,587.1,476.6,587.2,478z"/>
</g>
</svg>
