<?xml version="1.0" encoding="utf-8"?>
<!-- Generator: Adobe Illustrator 23.0.4, SVG Export Plug-In . SVG Version: 6.00 Build 0)  -->
<svg version="1.1" id="Layer_1" xmlns="http://www.w3.org/2000/svg" xmlns:xlink="http://www.w3.org/1999/xlink" x="0px" y="0px"
	 viewBox="0 0 864 864" style="enable-background:new 0 0 864 864;" xml:space="preserve">
<g>
	<path d="M801.7,104.2c0,1.4,0,2.5,0,3.6c0,206.6,0,413.3,0,619.9c0,1.5,0,3.1-0.3,4.5c-1.7,7.9-7.1,12-14.5,14
		c-2.3,0.6-4.7,0.8-7.4,1.2c-0.1,1.3-0.2,2.8-0.3,4.3c-0.5,3.9-0.8,7.8-1.6,11.6c-0.8,4-2.7,7.7-5.7,10.6
		c-4.7,4.4-11.1,4.1-15.3-0.8c-2.3-2.7-3.6-5.8-4.3-9.2c-1.6-7.3-1.8-14.7-1.6-22.2c0.2-5.1,0.7-10.2,2.1-15.2
		c1-3.7,2.4-7.2,5.2-9.9c1.4-1.4,3-2.7,4.8-3.4c3.8-1.7,7.4-0.9,10.4,1.9c3.3,3.1,4.8,7.1,5.5,11.5c0.5,3.2,0.6,6.5,0.9,9.8
		c0,0.4,0.1,0.7,0.2,1.4c3.9-3.1,6-6.7,6-11.4c0.1-12.2,0.1-24.5,0.1-36.7c0-38.2,0-76.3,0.1-114.5c0-46.2,0.1-92.5,0.2-138.7
		c0.1-112.7,0.1-225.4,0.2-338.1c0-0.3,0-0.6,0-1c0-5,1.1-6.6,5.7-8.5c0.2-0.1,0.4-0.3,0.7-0.5c0-18.2,0-36.5,0-55.1
		c-0.9-0.1-1.7-0.1-2.6-0.1c-23.9-0.1-47.8-0.2-71.7-0.2c-17,0-34.1,0-51.1-0.1c-20.9,0-41.8-0.1-62.6-0.2
		c-25.4-0.1-50.7-0.1-76.1-0.2c-31,0-62.1-0.1-93.1-0.1c-42.2,0-84.3,0-126.5-0.1c-67.6,0-135.2-0.1-202.8-0.2
		c-7,0-13.9,0.1-20.9,0.2c-0.6,0-1.2,0.1-2,0.2c0,267.5,0,534.9,0,802.6c1.6,0.1,3.1,0.3,4.5,0.3c26.5,0,53,0.1,79.4,0.1
		c0.5,0,0.9,0,1.7-0.1c0-1,0.1-1.9,0.1-2.8c0-15,0-29.9,0-44.9c0-1.2,0.1-2.4,0.3-3.6c0.7-3.4,3.2-5.6,6.7-5.8c1-0.1,1.9,0,2.9,0
		c60.9,0,121.8,0,182.6,0c1,0,2,0,3.3,0c-0.2-1-0.3-1.7-0.4-2.3c-0.6-2.9-0.7-5.9,0.4-8.8c0.5-1.4,0.4-2.6-0.2-3.9
		c-1.4-3.2-2.3-6.5-2.3-10c0-2.1,0.5-4.1,1.7-5.9c1.2-1.8,2.7-2.9,4.8-3.2c1-0.2,2.1-0.3,3.1-0.3c13,0,25.9,0,38.9,0
		c0.2,0,0.3-0.1,0.8-0.2c0.1-0.7,0.2-1.6,0.2-2.4c0.3-7.5,0.7-15,1-22.5c0-0.8,0.2-1.6,0.5-2.3c0.5-1.2,1.5-2,2.8-1.9
		c1.4,0.1,2.5,0.7,2.9,2.1c0.2,0.5,0.3,1.1,0.4,1.6c3.7,13.4,7.3,26.8,11.1,40.2c0.8,3,2.1,5.9,3.2,8.8c0.3,0.8,0.7,1.5,1.3,2.6
		c1.3-3.1,1.4-6,1.6-8.9c0.5-8.5,0.6-16.9,0.2-25.4c-0.3-6.2-0.4-12.5-0.6-18.7c-0.1-1.8,0.6-3,1.9-3.5c2.1-0.8,4.1,0.3,4.4,2.6
		c0.2,1.8,0.3,3.7,0.4,5.5c0.2,8.6,0.5,17.3,0.6,25.9c0.1,6.4,0,12.8-1,19.1c-0.4,2.3-0.9,4.6-1.8,6.7c-2,4.7-6.9,5.4-10.1,1.4
		c-1.3-1.6-2.3-3.5-3.1-5.4c-3.3-8.2-5.8-16.8-8.1-25.3c-0.2-0.8-0.5-1.6-1.1-2.3c-0.1,2-0.2,4.1-0.3,6.1
		c-0.2,8.6-0.3,17.1-0.4,25.7c0,2.7-1.1,4.2-3.1,4.3c-2.1,0-3.3-1.6-3.3-4.4c0-3.4,0-6.7,0.1-10.1c0-0.9,0-1.7,0-2.8
		c-9.8,0-19.4,0-29.5,0c0.7,0.9,1.2,1.6,1.7,2.3c1.7,2.3,1.8,4.7,0.3,7.1c-0.8,1.3-1.7,2.5-2.8,3.9c0.5,0.4,0.9,0.8,1.4,1.1
		c2.8,1.6,5.6,3.1,8.4,4.7c2.5,1.3,3.8,3.4,4.1,6.1c0.5,4.5-2.3,8-6.8,8.6c-0.7,0.1-1.4,0.2-2.1,0.2c-3.8-0.1-7.5-0.2-11.3-0.2
		c-62,0-124,0-186,0c-1,0-2.1,0-3.4,0c-0.1,1.2-0.3,2.2-0.3,3.3c0,14.9,0,29.8,0,44.6c0,1.1,0,2.2-0.2,3.3c-0.6,3.4-3.1,5.7-6.5,6
		c-0.8,0.1-1.6,0.1-2.4,0.1c-32.2,0-64.5,0-96.7,0c-1.2,0-2.4-0.1-3.6-0.2c-3.6-0.4-6.3-3.2-6.5-6.9c0-0.7,0-1.4,0-2.2
		c0-271.8,0-543.7-0.1-815.5c0-6.3,3.4-9.1,9.1-9.1c28.4,0,56.8,0,85.2,0c7.1,0,14.2,0.1,21.4,0.1c40.6,0,81.1,0.1,121.7,0.1
		c35.7,0,71.4,0,107,0.1c20.3,0,40.6,0.1,61,0.2c25,0.1,49.9,0.2,74.9,0.2c26.9,0.1,53.8,0.1,80.6,0.1c56.1,0.1,112.2,0.1,168.2,0.2
		c1.5,0,3,0.1,4.6,0.2c3.8,0.3,6.3,2.7,6.7,6.6c0.1,1.6,0.2,3.2,0.2,4.8c0,19.2,0,38.4,0,57.6c0,2.3,0.3,4.4,1.1,6.5
		c1.6,4-0.1,7.9-4,9.5c-1,0.4-1.9,0.7-3,0.2C803.2,104,802.5,104.2,801.7,104.2z M772.7,741.8c0-2.8,0.1-5.6,0-8.4
		c-0.1-2.3-0.3-4.6-0.9-6.9c-0.5-1.9-1.3-3.8-2.3-5.5c-1.6-2.6-3.8-2.8-6-0.7c-1.3,1.3-2.4,2.8-3.2,4.4c-0.9,1.8-1.5,3.9-1.9,5.9
		c-1.8,8.9-1.9,17.9-0.7,26.9c0.3,2.6,0.9,5.2,1.7,7.7c0.5,1.5,1.6,3,2.7,4.2c1.2,1.3,2.9,1.4,4.3,0.3c0.9-0.7,1.9-1.6,2.4-2.6
		c1-2,2-4.2,2.5-6.4C772.8,754.6,772.9,748.2,772.7,741.8z"/>
	<path d="M495.3,770.9c2-1.4,3-3.3,3.9-5.3c2.5-5.3,3.7-10.9,4.3-16.6c0.2-1.6,0.3-3.2,0.4-4.8c0.2-2,1.2-3.1,2.9-3.2
		c1.7-0.1,3.1,0.9,3.6,2.6c0.2,0.8,0.2,1.6,0.2,2.4c0.2,4.4,0.2,8.8,0.6,13.2c0.2,2.1,0.8,4.2,1.4,6.3c0.3,1,0.8,2,1.3,2.8
		c1.8,2.8,4.3,2.9,6.1,0.1c1.2-1.9,2-4,2.7-6.1c1.6-4.8,2.4-9.8,2.8-14.8c0.5-5.3,0.8-10.7,0.9-16c0-4.5-0.5-8.9-0.8-13.4
		c0-0.6-0.2-1.1-0.2-1.7c0-1.7,1.1-2.9,2.7-3.2c1.8-0.3,3.3,0.6,3.6,2.3c0.5,3.2,0.9,6.3,1,9.5c0.4,10.5-0.2,20.9-1.9,31.3
		c-0.7,4.4-1.8,8.6-3.7,12.6c-0.9,1.8-1.9,3.6-3.3,5c-3.7,4-9.4,4.1-13.3,0.3c-1.4-1.3-2.3-3.2-3.4-4.9c-0.5-0.7-0.7-1.5-1.2-2.6
		c-0.6,1.1-1,2-1.5,2.8c-1.2,1.8-2.3,3.9-3.9,5.4c-3.9,3.9-8.8,3.2-11.7-1.5c-1.5-2.5-2.3-5.3-2.7-8.1c-0.5-4.7-1.2-9.4-1.2-14.1
		c0-8.1,0.3-16.3,0.7-24.4c0.2-3.3,0.8-6.5,1.4-9.7c0.4-2,1.5-2.9,3.2-3c2.2-0.1,3.8,1.6,3.3,3.7c-2.5,11.6-2.4,23.4-2.1,35.1
		c0.1,4.2,0.8,8.4,1.4,12.6C493.3,767.4,493.7,769.3,495.3,770.9z"/>
	<path d="M594,732.2c-0.4,0.7-0.8,1.3-1.1,2c-2.1,4.2-4.2,8.5-6.2,12.7c-0.1,0.3-0.3,0.6-0.4,0.9c-0.7,1.3-1.7,2.1-3.2,2.1
		c-1.5,0-2.5-0.9-3.1-2.2c-1.5-3.1-3-6.2-4.4-9.3c-0.9-1.9-1.9-3.9-3.1-6.3c-0.1,1-0.3,1.4-0.3,1.9c-0.1,7.7-0.1,15.4-0.2,23
		c0,5.6-0.1,11.2-0.2,16.8c0,0.3,0,0.6,0,1c-0.2,1.8-1.6,3.2-3.3,3.1c-1.6,0-2.9-1.3-3.1-3.1c-0.1-1-0.1-2.1-0.1-3.1
		c0.1-5.6,0.2-11.2,0.2-16.8c0.1-7.8,0-15.7,0.1-23.5c0-4.5,0.1-9,0.2-13.4c0.1-2.7,1.6-4.1,3.8-3.7c1.4,0.2,2.1,1.2,2.7,2.4
		c2.2,4.6,4.4,9.2,6.6,13.8c1.3,2.7,2.6,5.5,4.1,8.6c0.5-0.9,0.9-1.4,1.2-2c3.3-6.7,6.6-13.5,10-20.2c0.3-0.6,0.5-1.2,0.9-1.7
		c0.8-1.1,2-1.6,3.4-1.3c1.4,0.3,2.2,1.3,2.5,2.7c0.1,0.5,0.1,1,0.1,1.4c0,11.7-0.1,23.4-0.2,35c0,7-0.2,14.1-0.3,21.1
		c0,0.7-0.1,1.5-0.4,2.1c-0.6,1.2-1.9,1.7-3.3,1.5c-1.4-0.2-2.4-1.2-2.6-2.7c-0.1-1,0-2.1,0-3.1c0-11.3,0-22.6,0.1-33.8
		c0-1.1,0.1-2.2,0.1-3.4c0-0.8,0-1.5,0-2.3C594.3,732.3,594.2,732.3,594,732.2z"/>
	<path d="M661.3,738.8c2.4-4.3,4.5-8.2,6.7-12.1c2-3.5,3.9-7,6-10.4c0.5-0.8,1.3-1.7,2.2-2c1.2-0.5,2.5-0.1,3.4,1
		c0.9,1,1,2.2,0.5,3.4c-0.3,0.7-0.7,1.3-1,1.9c-4.3,7.8-8.6,15.7-13,23.5c-0.8,1.5-0.7,2.5,0,4c4,8.1,8,16.2,11.9,24.3
		c0.4,0.8,0.7,1.6,0.9,2.5c0.3,1.6-0.7,3-2.2,3.6c-1.4,0.5-2.8,0-3.7-1.4c-0.3-0.5-0.6-1.1-0.9-1.7c-3.3-6.8-6.5-13.5-9.8-20.3
		c-0.3-0.6-0.6-1.1-1.1-1.9c-2.3,4.6-4.4,9-6.5,13.3c-1.4,2.8-2.6,5.7-3.9,8.5c-0.3,0.7-0.8,1.4-1.3,2c-0.9,0.9-2.4,1.1-3.5,0.5
		c-1.1-0.6-1.9-1.5-1.8-2.9c0.1-0.9,0.4-1.9,0.8-2.7c3.8-7.9,7.6-15.8,11.5-23.7c0.8-1.6,0.9-2.8,0-4.4c-4.3-7.6-8.5-15.2-12.7-22.8
		c-0.3-0.6-0.7-1.1-0.9-1.7c-0.6-1.5,0-3.1,1.4-3.9c1.3-0.8,2.8-0.6,3.9,0.6c0.5,0.6,0.9,1.3,1.3,2c3.4,6.1,6.9,12.3,10.3,18.4
		C660.2,737,660.7,737.7,661.3,738.8z"/>
	<path d="M458.3,721.8c-0.3,8-0.6,15.7-0.9,23.7c1.6,0,2.9,0,4.2,0c1.7,0,3.4-0.1,5,0c2,0.1,3.3,1.3,3.4,3c0.1,1.9-1.1,3.3-3.2,3.5
		c-1.6,0.1-3.2,0.1-4.8,0.1c-1.4,0-2.8,0-4.6,0c0,6.5,0,12.8,0,19.3c1.8,0,3.5,0,5.1,0c3.6,0,7.2,0,10.8-0.1c1.3,0,2.3,0.4,3,1.6
		c1,1.8,0.1,4.1-1.9,4.6c-0.6,0.2-1.3,0.2-1.9,0.2c-5.8,0.1-11.5,0.1-17.3,0.2c-3.4,0-4.5-1.1-4.5-4.4c0-8.6-0.2-17.3,0-25.9
		c0.2-9.3,0.7-18.7,1.1-28c0.2-3.4,1.1-4.2,4.5-4.2c5-0.1,10.1,0,15.1,0c0.9,0,1.8-0.1,2.6-0.1c2.2,0,3.7,1.3,3.8,3.2
		c0.1,1.8-1.4,3.3-3.6,3.3c-4.2,0.1-8.3,0-12.5,0C460.8,721.8,459.7,721.8,458.3,721.8z"/>
	<path d="M614.8,771.3c3,0,5.6,0,8.2,0c2.6,0,5.1,0,7.7,0c2.1,0,3.3,1,3.5,2.9c0.2,1.9-1,3.3-3.1,3.5c-0.4,0.1-0.8,0.1-1.2,0.1
		c-5.7,0.1-11.4,0.1-17,0.2c-3.5,0-4.5-1.1-4.6-4.6c-0.2-16.9,0.1-33.7,1-50.6c0.1-1.4,0.2-2.9,0.4-4.3c0.2-1.7,1-2.6,2.7-2.9
		c1.7-0.2,3.3-0.3,5-0.3c4.9,0,9.7,0,14.6,0c2,0,3.4,1.4,3.5,3.2c0.1,1.8-1.3,3.3-3.4,3.3c-4.2,0.1-8.5,0-12.7,0
		c-1.1,0-2.2,0.1-3.6,0.2c-0.3,7.9-0.6,15.6-0.9,23.4c2.5,0,4.7,0,6.9,0c0.9,0,1.8-0.1,2.6,0c1.7,0.2,2.8,1.3,3,2.9
		c0.1,1.7-0.8,3.1-2.6,3.5c-0.8,0.2-1.6,0.2-2.4,0.2c-2.4,0-4.8,0-7.5,0C614.6,758.5,614.9,764.7,614.8,771.3z"/>
	<path d="M722.3,750.5c0.5,4.7,0.9,9.4,1.6,14c0.2,1.6,1,3.2,1.9,4.6c1.2,2,2.9,2.2,4.7,0.8c1.1-0.9,1.8-2.2,2.6-3.4
		c0.2-0.3,0.2-0.8,0.3-1.1c0.6-2,2.1-3.1,3.9-2.7c1.7,0.4,2.7,1.8,2.5,3.8c-0.3,4.7-4.8,9.7-9.5,10.6c-3.8,0.7-6.9-0.5-9.4-3.5
		c-2.1-2.6-3.1-5.7-3.7-9c-1.2-7.2-1.2-14.5-0.8-21.8c0.3-4.9,0.9-9.7,2.2-14.4c0.9-3.3,2.1-6.5,4.2-9.4c3.2-4.4,8.7-6.2,13.6-4.4
		c4.7,1.7,7.5,6.5,6.5,11.2c-0.3,1.5-1.1,2.7-2.6,3.1c-1.2,0.3-2.7-0.2-3.3-1.3c-0.4-0.7-0.6-1.7-0.5-2.5c0.2-1.7-0.1-3.2-1.7-4.1
		c-1.7-1-3.4-0.6-5,0.4c-1.6,1-2.4,2.5-3.2,4.1c-1.7,3.8-2.5,7.9-3.1,12c-0.2,1.7-0.4,3.3-0.5,5c-0.2,2.6-0.2,5.3-0.4,7.9
		C722.5,750.5,722.4,750.5,722.3,750.5z"/>
	<path d="M700.9,770.9c1.4,0,2.4-0.1,3.4,0c2.2,0.3,3.3,1.5,3.1,3.5c-0.1,1.8-1.3,3-3.4,3c-4.5,0.1-9,0.1-13.4,0.1
		c-1.8,0-3-1.3-3.1-3c-0.1-1.9,1-3.2,2.9-3.4c1.2-0.1,2.4,0,3.9,0c-0.4-17.2,0.4-34.2,1.4-51.5c-0.9,0-1.7,0-2.4-0.1
		c-1.7-0.2-3-1.5-3-3.2c0-1.5,1.2-2.9,2.8-3.1c0.5-0.1,1.1-0.1,1.7-0.1c3-0.1,5.9-0.1,8.9-0.2c0.5,0,1,0,1.4,0
		c2.5,0.1,3.8,1.4,3.8,3.4c0,2-1.4,3.1-4,3.2c-0.8,0-1.6,0-2.6,0C701.1,736.7,700.5,753.6,700.9,770.9z"/>
</g>
</svg>
