<?xml version="1.0" encoding="utf-8"?>
<!-- Generator: Adobe Illustrator 23.0.4, SVG Export Plug-In . SVG Version: 6.00 Build 0)  -->
<svg version="1.1" id="Layer_1" xmlns="http://www.w3.org/2000/svg" xmlns:xlink="http://www.w3.org/1999/xlink" x="0px" y="0px"
	 viewBox="0 0 864 864" style="enable-background:new 0 0 864 864;" xml:space="preserve">
<g>
	<path d="M627.1,250c0.5,0.3,0.8,0.6,1.2,0.9c6.6,3.8,11.1,9.4,13.7,16.4c2.1,5.8,4.1,11.8,5.5,17.8c2.2,9.4,5.6,18.3,10.1,26.8
		c4.5,8.5,5.7,17.5,4.2,26.8c-1.5,9.5-3.6,19-5.2,28.5c-2.3,13.2-3.8,26.4-4.4,39.8c-0.6,15.1,0.3,30,3.1,44.9
		c2,10.3,5.1,20.3,8.4,30.2c3.3,10.1,6.7,20.2,9.7,30.4c3.3,11.2,4.6,22.7,5.2,34.3c0.7,14.4-0.7,28.6-3.8,42.6
		c-0.4,1.9-0.8,3.9-1.1,5.9c-0.4,3.1,0.6,5.8,2.3,8.4c1.1,1.7,2.4,3.2,3.4,4.9c2.5,3.8,4.2,7.9,4.4,12.5c0.1,1,0,2.1-0.1,3.1
		c0,0.8-0.1,1.7-0.2,2.9c2.1-1.2,3.5-2.6,4.7-4.2c1.8-2.4,3.5-4.8,4.9-7.4c2.5-4.5,6.3-6.8,11.4-7.3c10.3-1.1,20.3,0.1,29.8,4.3
		c4.9,2.2,9.7,1.9,14.6-0.3c6.3-2.9,11.9-6.8,17.6-10.7c9.1-6.2,17.6-13.1,25.4-20.8c4-4,7.8-8.2,11.5-12.6c3.4-4,7.7-5.1,12.4-2.9
		c6.9,3.2,13.8,6.4,20.7,9.6c0.7,0.3,1.4,0.7,2.1,1.2c5.7,3.6,8.1,9.3,6.6,15.9c-1.4,6.3-4.8,11.4-9.2,16
		c-14,14.4-30.1,26.2-47.2,36.8c-10.9,6.8-22.1,12.8-33.5,18.6c-20.2,10.3-40.8,19.6-61.7,28.2c-10.3,4.3-21,6.8-32.1,7.4
		c-4.8,0.3-9.6,0-14.2-1.4c-10.8-3.3-17.7-10.4-21.2-21.1c-2.4-7.3-2.8-14.8-1.7-22.3c1.2-8,2.9-15.9,4.2-23.8
		c0.4-2.3,0.4-4.6,0.3-6.9c-0.1-3-1.5-4.5-4.5-5.1c-3.8-0.7-7.6-1.3-11.4-1.8c-22.4-3.1-42.6-11.2-59.9-26c-3.3-2.8-7-4-11.3-3.7
		c-11,0.8-19.4-4.2-24-14.3c-3.6-8-4.2-16.3-3-24.9c0.6-4.7,1.4-9.5,0.8-14.3c0-0.4-0.1-0.8-0.2-1.3c-0.9-0.1-1.8-0.2-2.6-0.2
		c-4.5,0.1-9,0.1-13.4,0.5c-4.6,0.4-7.9-1.2-10-5.3c-1.3-2.5-2.9-4.8-4.5-7.1c-2.4-3.2-4.9-3.9-8.6-2.6c-4,1.4-7.8,3.3-11,6.2
		c-5.4,4.7-10.8,9.3-16.2,14c-3,2.6-5.8,5.4-8.7,8.1c0,0.2,0,0.4,0.1,0.5c5.4,6,11.3,11.3,18.9,14.4c1.4,0.6,2.9,1,4.4,1.3
		c2.3,0.5,4.6,0.3,6.7-1c0.1-0.1,0.3-0.2,0.4-0.2c2.1-0.9,4.2-0.3,5.2,1.5c1,1.7,0.6,3.8-1.1,5.1c-2.4,1.8-5.1,2.5-8.1,2.7
		c-3.3,0.2-6.5-0.6-9.6-1.7c-5.2-1.9-9.7-4.9-13.9-8.3c-0.9-0.8-1.8-1.5-3.2-2.7c0.3,1.1,0.5,1.8,0.7,2.4c2.2,5.3,4.4,10.7,6.5,16
		c0.3,0.7,0.6,1.3,0.8,2c0.6,1.9-0.3,3.9-1.9,4.7c-1.7,0.8-4.1,0.2-5.1-1.4c-0.5-0.7-0.8-1.6-1.1-2.4c-6.5-15.3-12.2-30.9-17.5-46.7
		c-2.7-8-5.3-16.1-7.9-24.1c-0.2-0.7-0.5-1.4-0.6-2.1c-0.4-2,0.6-4.1,2.4-4.7c2.2-0.7,4.3,0.1,5.1,2.4c0.9,2.6,1.6,5.2,2.5,7.8
		c2.5,7.7,5.1,15.5,7.7,23.5c0.6-0.6,1.1-0.9,1.5-1.4c6.2-7.5,10.3-16,11.7-25.6c0.5-3.1,0.3-6.2-0.5-9.3c-0.2-0.6-0.3-1.2-0.4-1.9
		c-0.1-2,1.1-3.7,2.9-4.1c2-0.4,3.7,0.4,4.5,2.3c1.1,2.7,1.4,5.6,1.5,8.5c0.2,8.5-2.4,16.4-6.3,23.8c-1,1.8-2,3.6-2.7,5.7
		c0.7-0.6,1.3-1.2,2-1.8c6.2-5.6,12.3-11.2,18.5-16.7c1.7-1.5,3.6-2.9,5.4-4.3c3.9-3,8.3-3.9,13.1-3.4c6.5,0.6,12.4,2.8,17.7,6.8
		c1.5,1.1,3.2,1.5,5,1.4c5,0,9.9,0,14.9,0c1.6,0,3.2,0.2,4.7,0.5c2.9,0.7,4.9,2.5,5.7,5.3c2.2,6.8,3.7,13.7,3.1,21
		c-0.5,5.1-0.7,10.2-0.7,15.3c0,2.5,0.2,5.1,0.8,7.6c1.1,4.4,4.2,6.2,8.7,5.4c1.3-0.2,2.5-0.4,3.8-0.6c5-0.7,9.5,0.7,13.5,3.7
		c4,3,8,6.2,12,9.1c13.6,9.9,28.8,15.7,45.6,17.5c3.5,0.4,7,0.8,10.5,1.3c11,1.6,17.9,9.2,18.8,20.4c0.6,6.8-0.5,13.4-1.7,20
		c-1,5.6-2.1,11.2-2.9,16.8c-0.7,4.8-0.5,9.6,1.2,14.2c2.1,5.6,5.9,8.6,12,8.9c8.1,0.5,15.9-1.2,23.6-3.3c8.3-2.3,16.1-5.8,23.9-9.3
		c21.6-9.6,43-19.8,63.7-31.2c19.5-10.7,37.5-23.5,53.6-38.9c3.4-3.3,4.6-4.7,6-8.1c-4.4-1.7-8.9-3.3-13.3-5
		c-2.6,2.7-5.1,5.3-7.6,7.8c-12.8,13-27.4,23.8-43.3,32.7c-4.6,2.6-9.3,5-14.5,6.2c-6,1.4-11.7,0.9-17.4-1.4c-4-1.6-8-3.3-12.3-3.8
		c-2-0.3-4-0.5-6-0.6c-2.3-0.1-4.1,0.9-5.5,2.8c-3.2,4.1-6.4,8.2-9.9,12.1c-5,5.5-11,9.3-18.5,10.2c-6.3,0.8-11.7-1.3-15.6-6.5
		c-3.4-4.5-3.5-9.8-0.6-14.6c0.9-1.5,1.8-3,2.7-4.6c1.3-2.3,1.3-4.5-0.1-6.8c-1.4-2.2-2.6-4.4-4.1-6.5c-4-5.8-5.1-12.2-4.1-19
		c0.9-5.8,2-11.5,2.9-17.3c1.7-10.7,2.1-21.5,1.4-32.3c-1.1-17.7-5.9-34.5-12.1-50.9c-5.1-13.5-9.1-27.3-11.5-41.5
		c-1.6-9.5-2.5-19-2.7-28.6c-0.3-11,0.2-21.9,1.2-32.8c1.1-11.9,2.8-23.7,5-35.4c1.1-5.7,2.3-11.4,3.4-17.2c1.3-6.3,0.1-12.2-3-17.8
		c-2.7-4.8-5.1-9.8-6.9-15c-2-5.7-3-11.6-3.8-17.5c-0.6-4.7-2.1-9.2-4.3-13.4c-1.9-3.4-4.5-6-8.5-6.9c-0.9-0.2-1.7-0.3-2.6-0.3
		c-6.1,0-8.5-4.1-9.1-8.3c-0.6-4.6,0.2-8.9,2.7-12.9c1.1-1.7,2.4-3.4,3.7-5c0.5-0.6,1.1-1.2,1.5-1.8c2.2-3,2.1-4.7-0.7-7.3
		c-2.1-2-4.4-3.7-6.4-5.7c-5.6-5.8-8.9-13-11.3-20.6c-2.2-6.8-3.4-13.8-4.3-20.9c-2.1-17.3-5.9-34.2-10.8-50.8
		c-2.5-8.6-5-17.2-7.1-25.9c-2.1-8.5-2.9-17.2-2.6-25.9c0-0.3,0-0.6-0.1-0.9c0-0.2-0.2-0.4-0.4-1c-1.7,0.5-3.5,0.9-5.1,1.5
		c-7.6,2.9-15.2,5.8-22.8,8.8c-10.8,4.2-22,6.8-33.6,7c-5,0.1-10.1-0.2-15.1-0.4c-7.2-0.2-14.4-0.9-21.5,0c-7.9,1-15.4,3.6-22.6,6.9
		c-11.3,5.3-21.4,12.4-30.4,21.1c-13,12.4-23.2,27-32.2,42.5c-6,10.3-12,20.6-18.3,30.7c-7.1,11.3-15.9,21.1-27.1,28.4
		c-1.6,1.1-3.2,2.1-4.9,3c-3.3,1.8-6.1,4.3-8.6,7.2c-3.3,3.8-3.5,9.1-0.7,13.4c2.6,4,6.5,6.4,11.1,7.4c3.5,0.8,7.1,1.3,10.6,1.9
		c0.9,0.2,1.9,0.3,2.8,0.5c6,1.4,8.8,7.8,5.7,13.2c-0.6,1.1-1.5,2.1-2.2,3.1c-3.2,4.2-5.3,8.7-5.6,14c-0.2,4.2,0.6,8.1,2.4,11.8
		c1.5,3,3.2,5.9,5.1,8.7c6.9,10,4.3,23.8-4.6,31.5c-5.6,4.9-12.1,7.3-19.3,8.3c-0.9,0.1-1.9,0.5-2.8,0.4c-2.3-0.1-3.4,1.2-4.4,2.9
		c-4.8,8-9.7,16-14.7,23.9c-1.4,2.3-3.1,4.5-5,6.4c-3.5,3.6-8,5.5-13,6.1c-7.1,0.9-14.2,0.8-21.3,0.3c-3.7-0.2-7.5-0.4-11.3-0.4
		c-6.4,0-12.1,2.1-17.2,5.9c-6.9,5.1-14.5,7.3-23,6.3c-4.7-0.6-9.3-1.4-14-2.2c-7.3-1.2-14.6-2.6-22-3.7c-6-0.9-12.1-0.6-18.2-0.1
		c-15.7,1.2-30.8,5.5-45.8,10c-7.8,2.4-15.6,4.7-23.4,7.1c-3,0.9-5.9,2.1-8.7,3.4c-4.3,1.9-5.3,4.1-4.3,8.6
		c1.6,6.9,3.3,13.7,4.9,20.5c0.1,0.5,0.3,0.9,0.5,1.6c1.3,0.1,2.6,0.3,4,0.3c3.1,0.1,6.2,0,9.4,0.1c5.8,0.2,9.2,3.4,9.7,9.2
		c0.3,4.4,1.5,8.5,3.1,12.5c0.6,1.7,1.3,3.5,1.7,5.2c1.3,5.9-0.4,11.1-4.4,15.5c-3.6,4-7.6,7.6-12.4,10.2c-5.2,2.8-8.1,7.2-8.5,13
		c-0.5,6.6-3.2,11.8-8.6,15.6c-3.2,2.3-6.3,4.7-9.6,6.8c-7,4.5-13.2,10.1-19.1,15.9c-3.1,3.1-6.2,6-9.2,9.1c-2.5,2.6-5.2,5.4-6.1,9
		c-1,4.1,0.1,8.8,0.5,12.9c0.5,4.8,1,9.6,1.6,14.3c14.6-4.9,26.6-15.7,41.2-20.7c2.9-1,6.2-1.7,9.1-0.6c3.1,1.3,5,4.5,6.2,7.6
		c1.6,4.4,2.3,9.1,3.3,13.6c2,9.5,5.5,18.6,9,27.6c4.2,10.9,8.4,21.9,14.3,32c1.7-2.9,1.8-6.5,1.8-9.9c-0.1-20.5-2.6-41-5.3-61.4
		c-0.2-1.6-0.4-3.3,0-4.9c0.5-1.6,1.9-3,3.5-3c2.8,0,3.9,3.5,4.3,6.3c1.1,9.4,2.3,18.7,3.2,28.1c1,10.4,1.9,20.9,2,31.3
		c0.1,5,0,10-1.5,14.8c-0.9,3-2.7,6-5.6,6.9c-2.4,0.7-5.1-0.2-7-1.9c-1.9-1.7-3.2-3.9-4.4-6.1c-6.8-12.8-11.7-26.5-16.6-40.2
		c-1.3,1.4-1.2,3.5-1.1,5.4c0.9,13.1,1.7,26.2,2.6,39.3c0.2,2.5-0.1,5.7-2.4,6.6c-1.7,0.7-3.8-0.5-4.7-2.1s-1.1-3.6-1.2-5.4
		c-1.3-24.8-2.6-49.6-3.9-74.4c0-0.7-0.1-1.4-0.7-1.8c-0.4-0.2-1-0.1-1.4,0c-2.6,0.7-4.8,2.3-6.9,3.8c-11.8,8.6-22.7,18.8-37.2,22.6
		c-3.5,0.9-7.1,1-10.7,0c-4.7-1.3-7.5-4.3-8.1-9.3c-0.6-5.6-1.3-11.3-2-16.9c-0.4-3-0.7-6-1.1-9c-1.1-7.8,0.9-14.7,6-20.5
		c4.8-5.6,9.9-10.9,15.1-16.1c8.4-8.3,17.6-15.6,27.5-21.9c3.7-2.4,5.7-5.5,5.8-10.1c0.3-6.7,3.3-12.1,8.3-16.4c2.6-2.2,5.6-4,8.4-6
		c1.7-1.2,3.5-2.3,5.1-3.6c2.2-1.7,2.8-4,1.8-6.6c-1.1-2.9-2.3-5.8-3.4-8.7c-3.9,0-7.6,0-11.3,0c-1.3,0-2.6-0.1-3.8-0.4
		c-3.2-0.7-5.5-2.7-6.4-5.8c-2.6-9.2-5.3-18.4-7.7-27.7c-1.3-5.1-1.3-10.3-0.2-15.5c1.1-5.2,3.8-9.4,8.4-12.4c4-2.6,8.2-4.6,12.7-6
		c13.5-4.1,27-8.5,40.5-12.5c11.2-3.3,22.6-5.7,34.3-6.8c13.9-1.4,27.8-1,41.4,2.9c5.6,1.6,11.3,2.8,17.1,3.4
		c3.7,0.4,7.2-0.2,10.4-2c1.5-0.9,3-1.8,4.4-2.9c6.5-5.3,14.1-7.9,22.4-7.9c6.5,0,12.9,0.6,19.4,0.9c3.4,0.2,6.9,0.5,10.3,0.4
		c4.1-0.1,7.3-2.3,9.4-5.8c3.3-5.4,6.5-10.8,9.7-16.3c2.7-4.5,5.4-9.1,8.1-13.6c1.9-3.3,4.7-5.1,8.6-5.1c1.2,0,2.4,0.2,3.6,0.3
		c3.3,0.2,6.5-0.1,9.6-1.5c2-0.9,3.8-2.1,5.2-3.8c1.7-2.1,2-4.4,0.9-6.7c-0.8-1.6-1.7-3.1-2.8-4.5c-5.9-8.2-8.9-17.3-8.2-27.5
		c0.3-4.3,1.3-8.4,2.6-12.4c0.1-0.3,0.2-0.6,0.3-1.1c-1-0.4-2-0.8-2.9-1.1c-5.8-2.1-11.1-5-15.4-9.4c-8.9-9.2-11.4-22.6-6.1-33.7
		c2-4.2,4.8-7.7,8.4-10.6c2.4-1.9,4.9-3.8,7.6-5.5c11.3-7,20.3-16.3,27.3-27.6c6.7-10.9,13.2-21.9,19.8-32.9
		c8.1-13.5,17.3-26.3,28.2-37.8c12.1-12.7,25.8-23.4,42.1-30.4c10.8-4.7,22.1-7.3,33.9-8.1c7.1-0.5,14.2-0.2,21.3,0.4
		c11.7,1,23.1-0.1,34.2-4.5c9.2-3.7,18.5-7.1,27.8-10.5c6.4-2.3,13.1-3.6,19.9-4.4c0.8-0.1,1.6-0.1,2.4,0c5.3,0.4,8.5,4.1,8.1,9.3
		c-0.1,1.4-0.4,2.9-0.7,4.3c-2.2,9.5-1.9,18.9,0.3,28.3c2.2,9.2,4.9,18.4,7.6,27.5c4.9,16.2,8.3,32.7,10.4,49.4
		c0.7,5.6,1.7,11.2,2.8,16.8c1.5,7.7,5.2,14.2,10.7,19.7c2.3,2.3,4.6,4.5,6.6,6.9c3.6,4.3,5.7,9.2,5.3,15c-0.3,3.8-1.7,7.1-3.8,10.2
		C628.8,247.5,627.9,248.7,627.1,250z"/>
	<path d="M207.6,650.6c0.9-1.2,2-2.2,2.7-3.4c2.3-3.6,3.5-7.7,4.5-11.8c1.7-7.1,2.2-14.4,2-21.7c0-0.6-0.1-1.1,0-1.7
		c0.1-2.4,1.5-4,3.5-4.1c2.2-0.2,4.2,1.4,4.5,3.7c0.3,2.3,0.4,4.6,0.6,6.9c0.6,6,1.2,11.9,3,17.7c0.8,2.5,1.9,4.9,3.1,7.2
		c0.9,1.8,2.6,3,4.6,3.6c1.3,0.4,2.6,0.2,3.5-0.8c0.9-1.1,1.9-2.2,2.5-3.5c2-3.9,2.8-8.2,3.4-12.4c1.5-10.4,1.9-20.9,1.1-31.3
		c-0.5-7-1.3-14-2-21c-0.2-1.9-0.8-3.8-1.2-5.6c-0.6-2.4,0.5-4.5,2.7-5.1c2.1-0.6,4.2,0.5,4.7,2.9c0.9,4.2,1.8,8.4,2.3,12.7
		c1.5,11.6,1.8,23.3,1.4,35c-0.3,8.2-1,16.3-3.7,24.1c-0.9,2.5-1.9,5.1-3.4,7.3c-5.2,7.6-15.1,7.9-20.8,0.6c-2-2.6-3.4-5.5-5.2-8.4
		c-0.1,0.3-0.4,0.8-0.6,1.2c-1.3,2.9-2.5,5.9-3.9,8.7c-1.1,2.2-2.7,3.9-4.8,5.3c-3.4,2.2-7.3,2-10.4-0.6c-2.2-1.8-3.6-4.2-4.7-6.8
		c-2.2-5.4-3.4-11-4.2-16.7c-2.1-15.2-3.2-30.5-2.8-45.9c0.1-3.4,0.5-6.9,0.9-10.3c0.4-2.9,2.8-4.4,5.4-3.5c1.8,0.6,2.6,2.2,2.4,4.5
		c-0.3,3.6-0.8,7.2-0.8,10.7c-0.1,6.3-0.1,12.6,0.4,18.9c0.5,7.8,1.4,15.6,2.3,23.4c0.6,5,1.6,9.9,3.4,14.7
		C204.6,647.2,205.3,649.1,207.6,650.6z"/>
	<path d="M395.9,561.7c2.1,0.4,3.7,0.7,5.4,1.1c7.1,1.4,12.6,5.3,16.6,11.3c2.8,4.2,4.6,8.8,6.1,13.5c0.5,1.7,0.3,3.3-1.2,4.6
		c-1.3,1.1-2.8,1.2-4.3,0.4c-1.1-0.5-1.6-1.4-2-2.5c-0.8-2.3-1.7-4.6-2.6-6.9c-3.4-8.3-9.6-12.7-18.5-13.4c-2.1-0.2-4.3,0-6.7,0
		c0.3,0.8,0.6,1.6,0.9,2.4c3,8.3,5.9,16.5,8.9,24.8c0.2,0.7,0.5,1.3,0.7,2c0.4,1.9-0.7,3.7-2.5,4.4c-1.7,0.7-3.8,0-4.8-1.7
		c-0.4-0.7-0.6-1.5-0.9-2.2c-3.3-9.3-6.7-18.6-10-28c-0.4-1.1-0.9-2.1-1.7-3.1c-0.6-0.7-1.1-1.8-1.1-2.8c0-1.4-0.3-2.7-0.7-3.9
		c-4.2-11.6-8.3-23.1-12.5-34.7c-0.2-0.7-0.5-1.3-0.7-2c-0.3-1.6,0-3.1,1.5-4c6.9-4.5,14.2-7.7,22.6-7.6c12.2,0.3,21,9.1,21.2,21.4
		c0.1,7-2.1,13.2-6.2,18.8c-1.8,2.4-4,4.6-6,6.8C396.9,560.8,396.5,561.1,395.9,561.7z M384.9,559.4c5.7-2.7,11.5-8.6,14.3-14.4
		c1.7-3.4,2.5-7,2.3-10.9c-0.3-5.9-4-10.9-9.6-12.4c-1.6-0.4-3.3-0.6-5-0.6c-5.1,0.1-9.8,1.9-14.2,4.5
		C376.8,537,380.8,548.2,384.9,559.4z"/>
	<path d="M373,592.9c0.1,4.9-0.4,9.2-2.3,13.2c-2.2,4.6-5.7,7.7-10.9,8.4c-3.1,0.4-6-0.5-8.7-2c-3.9-2.1-6.8-5.3-9.3-8.8
		c-3.3-4.7-5.8-9.8-8.1-14.9c-3.9-8.8-7.3-17.7-9.2-27.2c-1.2-6.1-1.8-12.2-0.3-18.3c0.7-2.9,1.9-5.6,3.7-8
		c4.1-5.3,10.4-6.8,16.5-3.8c4.6,2.2,8,5.8,10.7,10.1c4.1,6.6,7,13.7,9.7,20.8c3.2,8.4,6.1,16.8,7.7,25.7
		C372.8,589.8,372.9,591.6,373,592.9z M331.2,553c0.2,1.6,0.4,4.2,1,6.8c2.4,11.7,6.8,22.8,12.4,33.3c1.7,3.2,3.4,6.4,6,8.9
		c1.5,1.4,3.1,2.8,4.9,3.8c3,1.7,5.9,0.7,7.6-2.2c0.6-1.1,1.1-2.3,1.5-3.5c0.9-3.4,0.8-6.8,0.3-10.2c-1-6.3-3-12.3-5-18.2
		c-2.7-7.9-5.8-15.6-9.6-23c-1.9-3.7-4.2-7-7.7-9.4c-4-2.8-7.3-1.9-9.5,2.4c-0.3,0.6-0.5,1.2-0.7,1.8
		C331.3,546.2,331.1,549.1,331.2,553z"/>
	<path d="M150.3,586c0.5,11.5,1,22.6,1.6,33.8c4-0.4,7.8-0.8,11.5-1.1c0.7-0.1,1.4-0.2,2.1-0.2c2.2,0.1,3.9,1.6,4,3.7
		c0.2,1.9-1.2,3.8-3.3,4.1c-2.7,0.4-5.4,0.5-8.1,0.8c-1.8,0.2-3.6,0.4-5.7,0.7c0.7,9.2,1.4,18.3,2.1,27.6c2.5-0.2,4.8-0.4,7.1-0.6
		c5-0.4,10-1,15-1.3c1.1-0.1,2.3,0.1,3.2,0.6c1.4,0.7,2,2.5,1.6,3.9c-0.4,1.7-1.5,2.8-3.3,3.1c-1.7,0.3-3.3,0.3-5,0.5
		c-7,0.6-14,1.3-21,1.9c-3.1,0.3-4.8-1.1-5.1-4.1c-1.7-17.4-3-34.9-3.8-52.4c-0.4-7.9-0.5-15.8-0.8-23.7c-0.1-2.8,1.1-4.4,4-4.7
		c6.7-0.7,13.4-1.2,20.1-1.8c1.9-0.2,3.8-0.3,5.7-0.5c1.5-0.2,2.9,0.2,3.9,1.5c1.9,2.3,0.6,5.7-2.5,6.2c-3.4,0.5-6.8,0.6-10.3,0.9
		C159.3,585.2,155,585.6,150.3,586z"/>
	<path d="M292.7,585.8c0.3-1.9,0.6-3.5,0.8-5.2c1.5-10.2,2.9-20.4,4.4-30.6c0.4-2.6,1.6-3.9,3.7-4c2.7-0.2,4.6,1.8,4.2,4.6
		c-0.9,6.5-1.9,13-2.8,19.4c-1.2,7.8-2.3,15.6-3.5,23.5c-0.1,0.8,0,1.8,0.3,2.6c3.9,10.9,7.9,21.8,11.9,32.6
		c0.2,0.6,0.5,1.2,0.7,1.8c0.6,2-0.3,4-2.1,4.8c-1.9,0.8-4,0.1-5-1.7c-0.4-0.8-0.8-1.6-1.1-2.4c-4.1-11-8.1-22-12.1-33.1
		c-0.4-1.2-1-2.3-1.9-3.2c-8.7-8.8-17.4-17.7-26.1-26.5c-0.6-0.6-1.2-1.3-1.8-2c-1.2-1.6-0.9-4,0.5-5.2c1.4-1.3,3.4-1.4,5-0.1
		c0.6,0.5,1.1,1.1,1.7,1.7c7.2,7.3,14.4,14.6,21.6,21.8C291.6,584.9,292,585.2,292.7,585.8z"/>
</g>
</svg>
