<?xml version="1.0" encoding="utf-8"?>
<!-- Generator: Adobe Illustrator 23.0.4, SVG Export Plug-In . SVG Version: 6.00 Build 0)  -->
<svg version="1.1" id="Layer_1" xmlns="http://www.w3.org/2000/svg" xmlns:xlink="http://www.w3.org/1999/xlink" x="0px" y="0px"
	 viewBox="0 0 864 864" style="enable-background:new 0 0 864 864;" xml:space="preserve">
<g>
	<path d="M786.8,477.3c-2.2-1.2-3.9-0.6-5.5,0.2c-1.6,0.8-3.1,1.7-4.5,2.7c-10.6,7.2-22,8-33.9,4.1c-5.7-1.9-10.9-4.6-15.9-7.8
		c-0.9-0.6-1.8-1.3-2.6-2.1c-3.3-3.1-4.5-6.8-3.1-11.1c1.4-4.2,4.2-6.9,8.7-7.6c1.2-0.2,2.4-0.2,3.6-0.1c2.4,0.1,4.8,0.3,7.2,0.3
		c5.4,0,10-2,13.7-5.9c2.2-2.4,4.2-5,6.5-7.8c-1.4-0.5-2.4-0.9-3.4-1.3c-8.5-2.6-16.6-6.4-23.8-11.7c-2.2-1.6-4.3-3.3-6.1-5.3
		c-1.5-1.6-2.7-3.6-3.4-5.7c-2.1-5.9,1.1-11.4,7.2-12.8c3.7-0.8,7.5-0.8,11.2-0.3c2.1,0.3,4.1,0.7,6.1,1c3.4,0.6,6.7,0.2,9.6-1.8
		c2.2-1.5,4.6-2.7,7.4-2.3c1.5,0.2,3,0.5,4.4,1.2c3.2,1.6,6.4,3.2,9.4,5.3c6.8,4.8,14.3,7,22.6,6.5c6.8-0.4,12.5-3.1,17.1-8.2
		c2.7-3,5.2-6.1,7.8-9.1c3-3.3,6.5-6,10.7-7.4c2-0.7,2.9-2,2.7-4c-0.2-3.7-0.5-7.3-0.9-11c-0.3-2.3-0.8-4.6-1.3-6.8
		c-0.1-0.4-0.3-0.8-0.6-1.4c-1.8,1.9-3.1,3.9-4,6.1c-1.7,4-3.5,8.1-5.1,12.2c-2.1,5.2-6.7,7-11.8,4.3c-3.3-1.7-5.4-4.5-6.2-8.1
		c-1-4.7-2-9.4-3-14.1c-0.3-1.2-0.5-2.5-0.8-3.8c-2.4,0-4.7-0.1-7,0c-6.1,0.2-12.1,0.6-18.2,0.8c-4.6,0.2-9.3,0.5-13.9,0.4
		c-6.5-0.2-12.6-1.9-17.7-6.4c-5.2-4.6-7.2-12.9-4.6-19.4c3.2-8,10.8-10.1,16.7-9c2.3,0.4,4.6,1.2,6.9,2c2.5,0.9,4.5,0.3,6.4-1.4
		c0.2-0.2,0.5-0.4,0.7-0.7c4.3-4.9,9.9-7.1,16.2-7.9c3.3-0.4,6.7-0.9,10-1.4c0.5-0.1,0.9-0.2,1.6-0.3c0-1.2,0.1-2.4,0-3.5
		c-0.6-6.9,5.2-11.1,11.6-8.2c2.7,1.3,5.1,3.2,7.7,4.9c2.3,1.5,4.6,3.2,6.9,4.7c0.5,0.3,1.1,0.5,2.2,0.9c-0.6-1.5-1-2.6-1.5-3.7
		c-1.9-4-3.8-8.1-4.4-12.6c-0.4-3.5-0.6-7-0.7-10.5c0-2.3-0.9-4.1-2.6-5.4c-1.8-1.3-3.7-2.6-5.7-3.5c-3.3-1.4-6.7-2.5-10.2-3.4
		c-2.6-0.7-5.3-0.9-8.1-1.3c0,2.4,0,4.6,0,6.7c0,2.8,0.1,5.6,0.1,8.4c0,0.6-0.1,1.1-0.3,1.7c-0.4,1.6-1.9,2.6-3.4,2.5
		c-1.5-0.1-2.8-1.4-3-3c-0.1-0.8,0-1.6,0-2.4c-0.1-3.9-0.1-7.8-0.3-11.7c-0.1-1.6-0.4-1.9-1.8-1.9c-5.5,0-11,0-16.6,0
		c-0.2,0-0.5,0.1-0.8,0.2c-0.9,4.8-1.4,9.6-1.6,14.5c0,0.4,0,0.8,0,1.2c-0.2,1.8-1.6,3.1-3.3,3.1c-1.6,0-3.1-1.4-3.1-3.1
		c0-2.2,0-4.5,0.3-6.7c1.4-12.3,3.3-24.6,6.7-36.5c1-3.6,2.3-7.1,3.7-10.6c0.7-1.7,1.7-3.3,2.8-4.7c3-4,7.5-4,10.5,0
		c1.3,1.7,2.4,3.7,3,5.7c1.5,4.9,2.8,9.8,3.8,14.8c0.9,4.4,1.4,8.8,2.1,13.3c0.1,0.5,0.2,1.1,0.4,1.8c4.6,0.2,9.1,0.4,13.6,0.5
		c6.5,0.2,12.9,0.6,19.1,2.9c1.1,0.4,2.1,0.8,3.1,1.3c4.9,2.3,7.3,6.6,7.1,12c-0.3,6.9,0.5,13.7,3.4,20.1c2.6,5.7,5.1,11.6,6.2,17.9
		c0.5,3,0.9,6,1.1,9c0.3,4-1.4,6.5-4.8,7.6c-3.6,1.2-6.9,0.2-9-2.9c-1.4-2.1-3.3-3.8-5.5-4.8c-3.8-1.8-7.7-3.4-11.7-5.1
		c-3.2,3.1-7.2,4.1-11.4,4.5c-4.4,0.5-8.7,1.2-13.1,1.7c-4,0.4-7.4,2.1-10.2,4.9c-5.3,5.5-11.7,6.8-18.9,5c-2.2-0.5-4.4-1.1-6.8-1.8
		c0,1.5,0.8,2.1,1.6,2.7c2.3,1.6,4.9,2.3,7.7,2.2c6.2-0.2,12.5-0.5,18.7-0.7c6.9-0.3,13.9-0.7,20.8-0.7c6.6-0.1,11.1,3.5,13.1,9.9
		c0.3,0.9,0.6,1.8,1,3.2c0.7-1,1.3-1.7,1.8-2.4c2.6-3.8,5.9-6.7,10.5-7.9c7.2-1.9,13.7,1.2,16.9,8c2.1,4.6,3,9.4,3.2,14.4
		c0.3,4.7,0.6,9.4,0.4,14.1c-0.1,2.7-0.7,5.6-1.6,8.2c-1.1,3.3-3.6,5.7-6.9,6.9c-5.3,2.1-9.4,5.6-12.8,10.1
		c-6.6,9-15.4,14.4-26.4,16.4c-7.6,1.4-15,0.6-22.3-1.5c-6-1.8-11.6-4.5-16.7-8.2c-0.3-0.2-0.6-0.5-1-0.7c-1.7-1.2-3.3-1.8-5.4-0.3
		c-2.7,1.8-5.9,2.3-9.2,2.4c-0.8,0-1.7,0-2.5,0c-0.1,0.2-0.1,0.4-0.2,0.5c0.7,0.4,1.4,0.8,2.2,1.1c5.5,2.2,11,4.3,16.5,6.5
		c1.3,0.5,2.5,1,3.7,1.7c5.1,2.9,7.4,8.8,5.8,14.2c-0.7,2.4-2.1,4.3-4.1,5.7c-3.2,2.1-5.8,4.7-8.3,7.6c-4.4,5.2-9.7,9-16.3,10.9
		c-0.4,0.1-0.7,0.3-1.2,0.6c0.7,0.3,1.2,0.6,1.8,0.7c5.2,1.1,10.2,0.8,14.8-1.9c2.3-1.3,4.5-2.7,6.8-4c8.8-5.1,17.9-4,25.8,1.9
		c2.3,1.7,3.1,4.2,3.3,6.9c0.3,4.6-0.7,8.9-3.2,12.8c-5.4,8.6-13,14.6-22.5,18.3c-5,2-10.3,2.9-15.7,3.3c-7.9,0.7-15.8,1.2-23.7,2.1
		c-8.2,0.9-16.1,2.8-23.4,6.6c-5.6,2.9-11.3,4.8-17.6,4.9c-1,0-1.7,0.3-2.1,1.4c-1.2,3.8-3.7,6.7-6.8,9.1
		c-5.1,4.1-10.2,8.2-15.5,12.2c-9.2,7-15.5,16-19.6,26.7c-2.1,5.6-4.5,11.1-7.1,16.5c-3,6.5-7.9,11.3-14.1,15
		c-2.1,1.3-4.3,1.5-6.7,0.9c-5-1.3-10.2-2.1-15.4-2.3c-8.3-0.3-16.2,1.1-23.7,4.8c-1.4,0.7-3,1.2-4.5,1.5c-2.4,0.4-4.4-0.7-6-2.4
		c-3.8-4-7.6-8-11.4-12c-10.6-11.2-21.2-22.4-31.8-33.7c-17.7-18.7-35.4-37.4-52.9-56.2c-2.2-2.3-4.4-3.2-7.5-3.3
		c-10.4-0.1-20.8-0.5-31.2-0.8c-12.2-0.4-24.4-0.9-36.7-1.2c-12.1-0.3-24.1-0.6-36.2-0.8c-3.7-0.1-6.4-1.6-7.7-5
		c-1.3-3.3-2.2-6.6-3.3-10c-1-3-1.8-6.1-2.9-9.1c-0.9-2.5-2.5-4.6-4.5-6.4c-0.9-0.8-1.9-1.3-3.3-0.9c-7,1.8-10.8-0.2-13.4-7.1
		c0-0.1-0.1-0.1-0.4-0.5c-1.7-0.1-3.5-0.2-5.4-0.3c-11.3-0.6-22.7-1.2-34-1.8c-8.1-0.4-16.1-0.9-24.2-1.3c-9.4-0.4-18.7,0.5-28,0.9
		c-8.7,0.4-17.4,0.5-26.1,0.8c-4.2,0.2-8.4,0.7-12.7,1c-4.9,0.4-9.7,0.9-14.6,1.3c-1,0.1-2.1,0.2-3.1,0.4c-2.2,0.4-4,1.5-5.4,3.3
		c-3.5,4.4-8.1,6.7-13.6,7.3c-5.4,0.6-10.7,1.7-15.7,3.9c-4.9,2.1-10.1,2-15.4,1.7c-10-0.5-20-1.2-30-0.7c-6.9,0.4-13.8,1.4-20.8,2
		c-2.4,0.2-4.8,0-7.2,0c-0.9,0-1.8-0.2-2.6,0.1c-4.8,1.8-9.9,1.9-14.9,2.3c-10.2,0.7-20.3,0-30.4-1.1c-5.7-0.6-8.1-3.5-8-9.2
		c0-1.3,0-2.6,0-3.8c0.1-5.8,0.3-11.7,0.5-17.5c0.1-2.8,0.3-5.6,1.3-8.3c1.4-3.7,3.8-5.5,7.8-5.6c3.6,0,7.2,0.2,10.8,0.3
		c1,0,2.1-0.1,3.1-0.3c3.3-0.7,5.3-2.9,5.2-6.2c-0.3-7.1,2.5-12.9,7.2-18c3.4-3.7,7.1-7.1,11.3-10c5.6-3.8,11.8-5.5,18.4-6.3
		c3.7-0.4,7.5-0.9,11.2-1.5c6-1,10.9-4,15-8.4c2.3-2.4,4.4-4.8,6.7-7.2c6.2-6.5,13.9-9.7,22.8-10.3c1.4-0.1,2.9-0.2,4.3-0.2
		c3.2-0.1,5.4-1.5,6.9-4.3c1.1-2.1,2.4-4.2,4-5.9c1.4-1.6,3.2-2.9,5-4c4.3-2.3,8.4-5,12.1-8.2c2.8-2.4,6-4.3,9.7-4.9
		c4.1-0.7,7.8,0.4,10.7,3.5c1.2,1.4,2.4,1.5,4,0.9c5.3-2,9.9-5.2,13.7-9.4c1.5-1.7,3-3.3,4.6-4.9c5.2-5,11.5-5.8,17.8-2.3
		c0.1,0,0.1,0.1,0.2,0.1c4.5,2.5,5.3,2.5,9.1-0.9c1.8-1.7,3.3-3.7,4.7-5.7c1.4-2.1,2.5-4.4,3.7-6.7c1.7-3.1,3.8-5.9,6.4-8.3
		c2.6-2.4,5.7-3.8,9.3-4.2c2-6,3.8-11.9,5.9-17.8c0.7-2.1,1.6-4.2,2.8-6c2.8-4.1,7.1-5.7,11.9-6.4c1.3-0.2,2.5-0.2,3.9-0.4
		c0.2-5.2,0.4-10.3,0.6-15.4c0.3-5.6,0.6-11.2,0.9-16.8c0-0.6,0.1-1.3,0.4-1.9c0.6-1.2,1.5-2.1,3-2c1.5,0,2.6,0.8,3,2.3
		c0.7,2.5,1.3,5.1,1.9,7.7c3.5,13.4,6.9,26.9,11.5,40.1c0.6,1.8,1.4,3.6,2.2,5.3c0.1,0.3,0.4,0.5,0.7,0.9c1.1-2.2,1.3-4.4,1.4-6.6
		c0.3-8.5,0.6-17.1,0.5-25.7c0-7.1-0.5-14.2-0.7-21.3c-0.1-2.5,1-4,3-4.2c2-0.2,3.4,1.1,3.5,3.3c0.2,3.7,0.4,7.5,0.5,11.3
		c0.2,9.2,0.4,18.4,0.3,27.6c0,5.5-0.3,11-1.7,16.4c-0.4,1.4-0.9,2.8-1.6,4c-1.8,3-5.5,3.8-8.3,1.5c-1.5-1.2-2.8-2.9-3.6-4.7
		c-1.7-3.8-3.1-7.7-4.4-11.7c-1.8-5.8-3.5-11.6-5.2-17.5c-0.2-0.6-0.4-1.1-0.9-1.6c-0.1,3.3-0.3,6.6-0.4,10
		c-0.1,7.6-0.2,15.2-0.3,22.8c0,0.5,0,1,0,1.4c-0.2,1.7-1.4,2.8-3,2.9c-1.7,0.1-3.1-0.9-3.5-2.6c-0.1-0.7-0.1-1.4-0.1-2.1
		c0-2.6,0-5.1,0-7.6c-2.2-0.6-3-0.3-3.8,1.4c-0.2,0.4-0.3,0.7-0.4,1.1c-2,6.5-4,13-5.9,19.5c-1.6,5.5-4.5,7.9-10.2,8.1
		c-3,0.1-4.7,1.3-6,3.9c-2.3,4.8-4.7,9.4-8.3,13.4c-3.2,3.6-6.8,6.5-11.1,8.6c-5.6,2.6-11.2,2.6-16.6-0.5c-3.5-2-3.5-2.3-6.2,1.2
		c-5.3,6.8-12.2,11.4-20.2,14.4c-1.6,0.6-3.3,1.2-4.9,1.9c-4.8,1.8-8.9,0.5-12.5-3c-0.5-0.5-1-1-1.6-1.7c-0.5,0.4-1,0.8-1.5,1.2
		c-1.6,1.5-3.1,3-4.8,4.4c-1.8,1.6-3.8,2.9-6.2,3.6c-3,0.9-4.9,2.8-6.2,5.6c-3.3,7.1-8.8,11.2-16.8,11.5c-4,0.2-8,0.3-11.8,1.7
		c-3.9,1.4-7.3,3.6-10.1,6.7c-2.2,2.3-4.3,4.7-6.5,7.1c-5.2,5.6-11.5,9.1-19,10.3c-5,0.9-10.1,1.6-15.2,2.4
		c-7.5,1.2-13.6,4.8-18.6,10.5c-2.5,2.9-4,6.2-3.9,10c0.3,8-4.1,13.2-10.5,17c-3.9,2.3-8.2,3.2-12.6,3.3c-1.5,0-3,0-4.8,0
		c0,4.9,0,9.6,0,14.7c1.7,0.2,3.6,0.5,5.5,0.6c7.6,0.3,15.2,0.1,22.8-0.6c1.3-0.1,2.4-0.6,3.3-1.6c3.1-3.4,6.4-3.8,10.3-1.3
		c1.2,0.8,2.4,1.1,3.8,0.9c7.9-0.7,15.8-1.5,23.7-1.9c10.3-0.5,20.6-0.5,30.9,0.7c3.6,0.4,7.2-0.2,10.6-1.6c5-2.1,10.1-3.6,15.5-3.5
		c2,0,3.5-0.8,4.8-2.2c0.1-0.1,0.1-0.1,0.2-0.2c4.2-5.7,10.1-8,16.9-8.6c10.4-0.9,20.8-2,31.3-2.8c5-0.4,10.1,0,15.1-0.2
		c6.1-0.2,12.3-0.7,18.4-1.1c8.9-0.5,17.7-0.6,26.6,0c6.5,0.5,12.9,0.8,19.4,1.2c7.3,0.4,14.7,1,22,1.3c5.4,0.2,10.9,0.2,16.3,0.2
		c5.2,0,9.6,1.7,12.3,6.5c0.5,0.8,1.1,1,2,1c4.7,0,8.4,2.1,11.7,5.2c6.5,6.1,10.1,13.7,11.8,22.3c0.2,1,0.4,2,0.7,3
		c0.1,0.4,0.3,0.7,0.5,1.2c3.5,0.1,7,0.2,10.5,0.3c14.2,0.4,28.4,0.7,42.7,1.3c17.6,0.7,35.1,1.5,52.7,1.4c3.2,0,5.8,1.2,8,3.6
		c13.9,14.9,28,29.7,42,44.5c15.8,16.7,31.5,33.4,47.2,50.1c2,2.2,4.2,4.2,6.2,6.4c0.9,1,1.8,1.2,3.2,0.7c7.8-2.7,15.9-4.3,24.2-3.9
		c4.7,0.2,9.4,0.8,14,1.6c2.6,0.4,4.5-0.2,6.2-2.1c3-3.2,5.5-6.9,7.1-11c1.5-3.9,3.1-7.9,4.5-11.9c3.1-9.4,8.4-17.3,15.8-24
		c6.4-5.9,12.9-11.8,20.2-16.6c2.7-1.8,4.3-4.1,4.7-7.4c0.2-1.6,0.9-3.2,1.7-4.7c2.4-4.4,7.1-6.2,11.9-4.6c4,1.3,7.4,0.8,11-1.3
		c6.4-3.8,13.5-5.8,20.7-7.3c7.8-1.6,15.6-2.3,23.5-2.9c5.2-0.4,10.4-0.9,15.5-1.5c6.8-0.8,12.4-4.1,17.2-8.7
		c0.9-0.9,1.9-1.8,2.6-2.8C785.6,479.7,786.1,478.5,786.8,477.3z M791.2,272.5c0-0.5,0.1-0.9,0-1.3c-0.8-5-1.4-10-2.5-14.9
		c-0.9-4.3-2.3-8.6-3.6-12.9c-0.3-1-1-1.9-1.5-2.9c-3.6,4.3-9.9,26.1-9.4,31.9C779.8,272.5,785.4,272.5,791.2,272.5z"/>
	<path d="M748.9,289.1c0.3-1.6,0.7-3.2,0.9-4.8c0.3-2.6,0.5-5.3,0.6-7.9c0.6-13.5-0.1-27-0.6-40.5c0-0.4-0.1-0.8-0.1-1.2
		c0.2-1.9,1.4-3.1,3.3-3.1c1.8,0,3,1,3.1,2.9c0.2,3.3,0.4,6.7,0.5,10.1c0.2,10.2,0.4,20.5,0.3,30.7c0,4.5-0.7,8.9-1.3,13.3
		c-0.2,1.8-0.9,3.6-1.8,5.2c-1.9,3.6-6,4.2-9.1,1.5c-1.9-1.7-3.1-3.9-3.9-6.3c-2.5-7.4-4.9-14.9-7.2-22.3c-0.6-1.7-1-3.5-1.5-5.3
		c-0.1-0.3-0.3-0.6-0.4-0.9c-0.2,0-0.3,0-0.5,0.1c0,1.3,0,2.6,0,3.9c-0.2,9.7-0.3,19.3-0.5,29c0,0.4,0,0.8,0,1.2
		c-0.2,1.6-1.5,2.7-3.1,2.7c-1.6,0-2.9-1-3.2-2.6c-0.1-0.5-0.1-1.1-0.1-1.7c-0.1-18.6,0.5-37.2,1.6-55.8c0.1-0.9,0.2-1.8,0.6-2.5
		c0.6-1.1,1.5-1.8,2.9-1.7c1.3,0.1,2.3,0.8,2.7,2c0.3,0.7,0.4,1.4,0.6,2.1c3.7,13.4,7.3,26.8,11.1,40.2c0.9,3.2,2.2,6.3,3.4,9.5
		c0.3,0.8,0.7,1.6,1.1,2.3C748.5,289.1,748.7,289.1,748.9,289.1z"/>
	<path d="M383.6,269.3c0.8,0.5,1.4,1,2,1.3c6,3.7,9,9.2,9.6,16c0.2,2.6,0.2,5.3,0.1,7.9c-0.1,2.2-1.4,3.3-3.3,3.3
		c-2,0-3.3-1.3-3.3-3.6c0-2.2,0.1-4.3,0-6.5c-0.2-5.4-2.7-9.4-7.4-12.1c-1.6-0.9-3.4-1.7-5.3-2.7c-0.1,0.9-0.3,1.4-0.3,1.9
		c-0.2,6.5-0.3,13.1-0.5,19.6c0,0.3,0,0.6,0,1c-0.3,1.8-1.6,3-3.5,2.9c-1.7-0.1-3-1.2-3.1-3c-0.1-2.5,0.1-5,0.1-7.4
		c0.1-5.2,0.6-10.4,0.4-15.6c-0.2-3.1,0.2-6.1,0.3-9.1c0.4-8.3,0.4-16.6,0.6-24.9c0-0.9,0.1-1.8,0.2-2.6c0.2-2.2,0.9-3,3-3.4
		c5.1-1,10.2-1.3,15.2,0.3c6.5,1.9,10.9,6,12.1,12.9c0.9,4.9-0.4,9.3-3.2,13.4c-2.4,3.6-5.6,6.3-9.4,8.3
		C386.5,267.9,385.2,268.5,383.6,269.3z M376.6,238.5c-0.2,8.7-0.7,17.2-0.5,25.8c3.1-0.5,5.8-1.4,8.4-2.8c3.5-1.9,6.5-4.4,8.3-8
		c3.2-6.4,0.4-12.7-6.5-14.6C383.1,238,380,237.9,376.6,238.5z"/>
	<path d="M593.4,272.9c-0.1,4.7-0.3,8.9-0.4,13c-0.1,3-0.1,6.1-0.3,9.1c-0.1,2.3-1.4,3.5-3.5,3.4c-1.8-0.1-3-1.2-3-3.1
		c-0.1-2.5,0-5,0.1-7.4c0.1-4.7,0.3-9.4,0.4-14.1c0-2.3-0.7-4.5-0.3-6.7c0.4-2.6,0.6-5,0.7-7.6c0.3-7.7,0.4-15.5,0.6-23.2
		c0.1-2.3,0.7-3.3,2.9-3.8c5.2-1.1,10.5-1.3,15.6,0.3c6.9,2.2,11.1,6.7,12,14.1c0.4,3.9-0.6,7.5-2.5,10.8c-2.8,4.9-7,8.3-12,10.6
		c-0.7,0.3-1.4,0.7-2.4,1.1c0.5,0.4,0.9,0.7,1.3,1c7.2,4.2,10.2,10.8,10.4,18.8c0.1,1.8,0.1,3.7-0.1,5.5c-0.2,2.3-1.5,3.5-3.5,3.4
		c-2-0.1-3.1-1.4-3.1-3.8c0-2,0.1-4,0-6c-0.3-5.5-2.7-9.8-7.6-12.5C597.2,274.7,595.5,274,593.4,272.9z M594.3,238.5
		c-0.2,8.7-0.4,17.1-0.7,25.6c0.4,0.1,0.6,0.2,0.9,0.1c4.3-0.9,8.2-2.5,11.6-5.4c2.2-1.9,4-4.2,4.9-7c1.9-5.6-0.4-10.5-5.9-12.6
		C601.7,237.9,598.1,237.9,594.3,238.5z"/>
	<path d="M571.8,279.2c-6.5,0-12.7,0-19,0c-0.8,4.8-1.4,9.5-1.6,14.3c0,0.6,0,1.1-0.1,1.7c-0.3,1.7-1.7,2.9-3.3,2.9
		c-1.6,0-3-1.3-3.2-3c-0.1-1.1-0.1-2.2,0-3.4c1.5-15.3,3.8-30.4,8.6-45.1c1-3.1,2.4-6.1,4.1-8.9c3.7-5.9,9.2-5.6,12.7,0.5
		c2.2,3.9,3.3,8.2,4.2,12.4c2.7,11.8,4.5,23.7,4.5,35.8c0,2.8,0,5.6,0,8.4c0,1.4-0.7,2.4-2.1,3c-1.3,0.5-2.4,0.2-3.3-0.6
		c-1-0.8-1-1.9-1-3c-0.1-4.5-0.2-8.9-0.3-13.4C571.9,280.4,571.9,279.9,571.8,279.2z M571,272.5c0-0.8,0.1-1.4,0-2
		c-0.7-4.6-1.3-9.2-2.3-13.7c-0.8-4.1-2-8.1-3.1-12c-0.4-1.4-1.2-2.7-1.9-4.2c-3.6,3.8-9.5,23.6-9.7,31.9
		C559.7,272.5,565.2,272.5,571,272.5z"/>
	<path d="M453.1,267.1c5.2,0,10.2,0,15.4,0c0.1-1.5,0.1-2.9,0.2-4.3c0.5-9.5,1-19,1.4-28.5c0.1-1.3,0.4-2.4,1.5-3.1
		c1.1-0.7,2.2-0.8,3.4-0.1c1.4,0.7,1.8,1.9,1.7,3.4c-0.4,6.1-0.8,12.3-1.1,18.4c-0.6,13.1-1,26.2-0.5,39.3c0,0.6,0,1.1,0,1.7
		c-0.2,1.9-1.4,2.9-3.2,2.9c-1.7,0-3.1-1.1-3.3-2.9c-0.2-2.1-0.2-4.1-0.2-6.2c0-4.5,0-9.1,0-13.8c-5.2,0-10.2,0-15.5,0
		c-0.1,1-0.2,2-0.2,3c0,5.7,0.1,11.4,0.2,17c0,1.4-0.2,2.5-1.5,3.3c-2.2,1.2-4.7,0-4.9-2.6c-0.2-2.2-0.3-4.5-0.3-6.7
		c-0.2-17.4,0.4-34.8,1.7-52.2c0-0.4,0-0.8,0.1-1.2c0.3-1.9,1.6-3.1,3.4-3c1.8,0.1,3.1,1.4,3,3.3c0,2.3-0.2,4.6-0.4,6.9
		c-0.4,8.1-0.8,16.1-1.2,24.2C453,266.3,453,266.5,453.1,267.1z"/>
	<path d="M361.3,261.4c-0.3,8.4-0.4,14.9-2.1,21.3c-1,3.9-2.7,7.5-5.6,10.4c-2.7,2.7-5.9,4-9.8,3.2c-2.4-0.5-4.3-1.7-5.8-3.5
		c-2.4-2.7-3.9-5.9-4.6-9.4c-2.4-12.8-2.7-25.5,0.4-38.3c1-4.2,2.8-8,6-11c5.6-5.4,12.6-4.7,17,1.7c2.5,3.7,3.5,7.9,3.8,12.2
		C361,253.2,361.2,258.2,361.3,261.4z M354.8,260.7c-0.3-4.4-0.3-8.8-0.8-13.1c-0.3-2.4-1-4.9-2.1-7.1c-1.9-4-4.9-4.3-7.9-0.9
		c-1,1.2-2,2.6-2.5,4.1c-1,2.9-1.9,6-2.3,9c-1.3,8.6-1.1,17.2,0,25.8c0.4,3.3,1.1,6.5,3.1,9.2c2,2.9,4.6,3.1,7,0.5
		c0.7-0.8,1.4-1.6,1.8-2.5c0.8-1.7,1.6-3.5,2-5.4C354.4,273.8,354.6,267.3,354.8,260.7z"/>
	<path d="M655.5,258.9c0.3,7.9-0.2,15.8-1.9,23.3c-0.8,3.6-2.3,7-4.7,9.8c-2.8,3.3-6.3,5.2-10.8,4.3c-3.1-0.6-5.3-2.5-7.1-5
		c-2-2.7-3.1-5.8-3.7-9c-2-11.8-2.2-23.7,0.3-35.5c0.9-4.1,2.3-8,5.1-11.2c1.4-1.5,3-2.9,4.8-3.9c4.2-2.3,9.1-1.2,12.3,2.6
		c2.7,3.1,4.2,6.8,4.6,10.9C654.9,249.8,655.3,254.3,655.5,258.9z M648.8,261.2c0.1-3,0-6.1-0.2-9.1c-0.2-3.7-0.5-7.5-2.2-11
		c-2.3-4.7-5.6-5-8.8-0.9c-1.6,2.1-2.6,4.6-3.3,7.1c-2.3,9.7-2.4,19.5-1.2,29.3c0.3,2.8,1,5.5,1.8,8.2c0.4,1.4,1.4,2.7,2.3,3.8
		c1.6,1.8,3.5,1.9,5.3,0.3c1-0.9,1.9-2,2.6-3.1c1.6-2.6,2.3-5.4,2.6-8.4C648.2,272,648.7,266.6,648.8,261.2z"/>
	<path d="M509.6,269.5c0.1-8.1,0.6-15.9,2.8-23.5c1-3.2,2.2-6.3,4.3-9c3.9-4.9,10.6-6.2,15.7-2.9c4.2,2.7,5.1,6.8,4.4,10.8
		c-0.3,1.8-1.9,2.9-3.7,2.7c-1.7-0.2-2.9-1.6-2.9-3.5c0-0.1,0-0.2,0-0.2c0.4-1.9,0-3.5-1.9-4.5c-1.8-1-3.7-0.6-5.1,0.7
		c-1.2,1.1-2.3,2.5-3,3.9c-1.7,3.4-2.4,7.1-3,10.8c-1.2,8.5-1.5,17-0.5,25.6c0.3,2.3,0.9,4.7,1.8,6.9c1.6,3.8,4.7,4.1,7.1,0.8
		c0.7-0.9,1-2.1,1.4-3.2c0.7-2,2-3,3.9-2.7c1.8,0.3,2.8,1.8,2.6,4c-0.4,5.1-5.3,10.2-10.4,10.8c-3.4,0.4-6.3-0.9-8.5-3.4
		c-2-2.3-3-5.1-3.7-8C509.8,280.1,509.7,274.6,509.6,269.5z"/>
	<path d="M419.1,237.7c-3.5,0-6.8,0-10.2,0c-0.8,0-1.6,0.1-2.4,0c-1.8-0.2-3.1-1.7-3-3.4c0-1.7,1.4-3,3.3-3.1c0.7,0,1.4,0,2.2,0
		c9.8,0,19.5,0,29.3,0c0.6,0,1.3,0,1.9,0c1.7,0.2,2.8,1.3,3,2.9c0.2,1.6-0.7,3-2.3,3.5c-0.6,0.2-1.3,0.2-1.9,0.2
		c-3,0-5.9-0.1-8.9-0.1c-1.3,0-2.7,0-4.1,0c-0.1,0.9-0.3,1.6-0.4,2.3c-0.4,8.9-0.8,17.7-1.1,26.6c-0.2,4.9-0.3,9.9-0.3,14.9
		c0,3.3,0.2,6.5,0.3,9.8c0,1,0.1,1.9,0,2.9c-0.2,1.7-1.6,2.9-3.2,3c-1.5,0-2.9-1.1-3.3-2.6c-0.1-0.5-0.1-1.1-0.1-1.7
		c-0.5-12.3-0.1-24.6,0.4-36.9c0.3-5.6,0.6-11.2,0.9-16.8C419.2,238.8,419.1,238.5,419.1,237.7z"/>
	<path d="M703.6,237.8c-1,0-1.7,0.1-2.4,0c-1.8-0.2-3-1.4-3-3.1c-0.1-1.7,1.1-3.1,2.9-3.2c2.3-0.2,4.6-0.2,6.9-0.2
		c1.8,0,3.5,0,5.3,0c2.5,0.1,3.7,1.2,3.7,3.4c0,2.1-1.3,3.2-3.6,3.2c-0.9,0-1.9,0-3,0c-1.2,17.5-1.9,34.8-1.5,52.4
		c1.3,0.1,2.5,0.1,3.8,0.3c1.7,0.2,2.7,1.1,2.9,2.7c0.3,1.9-0.8,3.7-2.8,3.7c-4.8,0.2-9.6,0.2-14.4,0.2c-2,0-3.1-1.4-3.1-3.3
		c0-1.9,1.2-3.2,3.4-3.3c1.1,0,2.2,0,3.6,0C701.6,272.9,702.8,255.6,703.6,237.8z"/>
	<path d="M669.5,290.7c2.9,0,5.6,0,8.3,0c2.4,0,4.8-0.1,7.2,0c2.3,0.1,3.6,1.9,3.1,4.1c-0.3,1.4-1.5,2.4-3.4,2.4
		c-1.9,0.1-3.8,0-5.8,0.1c-4,0.1-8,0.2-12,0.3c-2.7,0-3.7-0.8-3.8-3.5c-0.2-5.4-0.5-10.9-0.4-16.3c0.2-9.5,0.5-19,0.9-28.5
		c0.2-4.5,0.5-8.9,0.9-13.4c0.2-2.7,2.5-4,4.8-2.9c1.4,0.7,1.8,1.9,1.7,3.4c-0.1,1.9-0.2,3.8-0.3,5.7c-1.1,15.6-1.5,31.3-1.3,47
		C669.4,289.6,669.4,290.1,669.5,290.7z"/>
</g>
</svg>
