<?xml version="1.0" encoding="utf-8"?>
<!-- Generator: Adobe Illustrator 23.0.4, SVG Export Plug-In . SVG Version: 6.00 Build 0)  -->
<svg version="1.1" id="Layer_1" xmlns="http://www.w3.org/2000/svg" xmlns:xlink="http://www.w3.org/1999/xlink" x="0px" y="0px"
	 viewBox="0 0 864 864" style="enable-background:new 0 0 864 864;" xml:space="preserve">
<g>
	<path d="M813.2,678.6c0.3-4.5,0.6-8.4,0.8-12.3c0.6-9.5,1.1-19,1.8-28.5c0.7-9.8,1.4-19.6,2.1-29.4c0.7-9.3,1.5-18.6,2.2-28
		c0.5-7,1.1-14,1.6-21c0.7-9.6,1.5-19.1,2.1-28.7c0.8-12,1.6-24.1,2.3-36.1c0.3-5.5,0.7-11,0.9-16.5c0.3-6.8-0.8-13.6-1.6-20.3
		c-2.1-17.1-6.8-33.6-11.8-50.1c-4.6-14.9-8-30.1-9.9-45.6c-1.7-14.4-2.1-28.9-1.4-43.3c0.1-2.3-0.4-3.2-2.4-4.2
		c-1.3-0.7-3.4-1-5.5-0.8c0,0.5-0.1,1-0.1,1.6c0.1,6.2,0.2,12.3,0.2,18.5c0,0.3,0,0.6,0,1c-0.2,2.1-1.8,3.6-3.8,3.6
		c-1.9,0-3.6-1.6-3.7-3.7c-0.1-3.2,0-6.4,0-9.6c-0.1-3-0.2-6.1-0.3-9.1c0-0.6-0.2-1.2-0.3-2c-8.4,0-16.7,0-25.3,0
		c-0.4,2.6-0.8,5.1-1.1,7.7c-0.4,4.1-0.8,8.3-0.9,12.4c-0.1,2.3-1.7,4.1-3.8,4.1c-1.9,0-3.9-1.6-3.7-4.1c0.3-4,0.4-8,0.9-12
		c1.5-11.8,3.3-23.6,6.1-35.2c1.7-7.1,3.5-14.1,6.5-20.8c1-2.2,2.2-4.3,3.6-6.2c4.1-5.5,9.6-5.3,13.6,0.2c1.9,2.7,3.1,5.8,4.1,8.9
		c2.7,8.5,4.3,17.2,5.7,26c0.6,3.6,1,7.3,1.6,11.1c2.2,0.2,4.3,0.4,6.4,0.6c2.3,0.3,4.6,0.4,6.9,1c5.6,1.5,9.3,5.1,10.4,10.8
		c0.5,2.5,0.1,5.1,0.1,7.6c0.1,5.8-0.1,11.5,0.2,17.3c0.9,17.1,3.6,34,8.2,50.5c3.2,11.4,6.5,22.8,9.5,34.2
		c3.1,11.3,5,22.8,6.2,34.4c0.3,2.9,0.8,5.7,0.9,8.6c0.1,2.9,0.1,5.9-0.1,8.9c-0.9,13.9-1.8,27.8-2.7,41.6
		c-0.8,12.8-1.7,25.7-2.6,38.5c-0.8,11.6-1.8,23.1-2.7,34.7c-0.7,9.6-1.4,19.1-2.1,28.7c-0.8,11.2-1.5,22.5-2.2,33.7
		c-0.6,9.4-1.1,18.8-1.6,28.2c-0.1,1-0.1,2.1-0.4,3.1c-0.8,3.6-3.4,5.8-7.1,6c-9,0.3-17.2-2.2-23.6-8.7c-6.2-6.3-13.4-11.1-21.2-15
		c-7.8-3.9-15.5-8-23.2-12c-0.8-0.4-1.6-0.8-2.5-1.2c-1.2,1.2-2.5,2.3-3.6,3.5c-4.7,5.6-10.7,8.5-17.9,8.9c-4.5,0.2-8.9,0-13.4,0.1
		c-10,0.2-19.7,1.9-29,5.8c-6.3,2.7-12,6.3-17.6,10.2c-3.4,2.3-6.8,4.6-10.3,6.5c-4.6,2.5-9.5,3.8-14.8,3c-4.4-0.6-7.9-2.8-10.7-6.3
		c-2.3-2.9-3.7-6.2-4.7-9.6c-0.9-2.9-1.6-5.9-2.4-8.8c-0.1-0.5-0.4-1-0.6-1.7c-3.4,0.8-6.3-0.3-9.1-2c-5.6-3.5-13.6-0.1-15.7,5.8
		c-0.7,2-1,4.2-1.6,6.3c-0.7,2.5-1.3,5.1-2.4,7.5c-2.9,5.9-9.7,9.1-15.8,7.9c-4.1-0.8-6.8-3.3-8.7-6.9c-0.8-1.5-1.4-3-2.1-4.6
		c-0.9,0-1.8-0.1-2.7,0c-5.5,0.4-9.8-1.9-13.4-5.8c-1.3-1.5-2.7-3-3.8-4.6c-2.1-3-5-4.4-8.6-4.5c-2.8-0.1-5.6-0.1-8.4,0
		c-4.8,0.1-9.6,0-14.2-1.9c-0.4,0.3-0.9,0.6-1.3,1c-12,9.9-29.4,3.8-34.2-9.9c-1-3-1.4-6.2-2-9.4c-0.4-2-0.5-4.1-1-6.1
		c-0.6-2.3-1.5-2.5-3.5-1.2c-1.2,0.9-2.4,1.8-3.6,2.8c-6,4.8-12.6,5.4-19.6,2.6c-0.4-0.2-0.9-0.3-1.3-0.5c-2.8-1.3-5.5-1.1-8.4,0
		c-2.8,1.1-5.7,1.9-8.7,2.5c-3.7,0.7-7.2-0.2-10.3-2.2c-2.8-1.8-5.7-3.6-8.4-5.6c-4.5-3.3-9.3-4.3-14.7-3c-3.1,0.7-6.3,1.3-9.5,1.5
		c-7.3,0.6-13.3-2.1-18-7.6c-2.3-2.7-4-5.8-5.3-9.1c-1.2-2.9-2.3-5.8-3.4-8.7c-1.5-3.8-3.8-7.5-6-9.6c-0.7,0.9-1.4,1.7-2,2.6
		c-4.4,5.8-10.1,7.8-17.1,6.1c-4-0.9-7.7-2.7-10.9-5.3c-5.2-4.2-10.4-8.5-15.6-12.8c-1.7-1.4-3.4-2.7-5.2-3.8
		c-3.8-2.5-8-3.5-12.4-2.4c-5.1,1.3-10.1-3.3-9.4-9c0.5-3.7,0.7-7.5,0.7-11.2c0-67.5,0-135,0-202.5c0-1.1,0-2.2,0-3.5
		c-1.1-0.1-1.9-0.2-2.8-0.3c-1,0-2.1,0-3.1,0c-87,0-173.9,0-260.9,0c-1,0-2.1,0-3.1-0.1c-2.9-0.2-5-1.8-5.8-4.6
		c-0.5-2.1-0.8-4.3-0.8-6.4c0-5.4,0.1-10.9,0.3-16.3c0.2-9.9,0.5-19.8,0.8-29.7c0-1.2-0.1-2.4-0.1-3.6c0.1-4.4,3.3-8.3,8.3-8
		c0.2,0,0.5,0,0.7,0c110.8-0.1,221.6-0.1,332.4-0.2c12.5,0,25-0.1,37.4-0.1c4.6,0,9.1,0,13.7,0.1c0.3,0,0.6-0.1,1.2-0.1
		c0-0.8,0.1-1.5,0.1-2.3c0.2-6.9,1-13.7,2.9-20.4c1.3-4.7,3.3-9,6.7-12.6c3.1-3.2,6.7-5.4,11.4-5.1c3.7,0.2,6.6,1.8,8.9,4.5
		c3.6,4.1,5.3,9.1,6,14.4c1.2,8,1.1,16.1,1,24.2c-0.1,7.1-0.5,14.2-2,21.2c-1.2,5.8-3.4,11.2-7.7,15.4c-6,5.9-14.1,5.6-19.6-0.7
		c-3.1-3.6-4.8-7.9-5.7-12.5c-0.7-3.3-1.1-6.6-1.6-10.1c-126,0-252,0-378.4,0c-0.5,12.6-0.6,25.1-1,37.8c1.3,0,2.4,0,3.5,0
		c87.4,0,174.9,0,262.3,0c1.3,0,2.6,0,3.8,0.2c4.1,0.5,6.3,2.8,6.6,6.9c0.2,2.1,0.3,4.3,0.3,6.5c0,69.8,0,139.5,0,209.3
		c0,1.1,0,2.2,0,3.4c0.6,0.2,1,0.4,1.5,0.5c7.3,1.6,13.6,5.1,19.4,9.7c2.6,2,4.9,4.3,7.5,6.4c2.8,2.3,5.6,4.5,8.6,6.5
		c3.8,2.5,4.8,2.2,7.5-1.4c0.8-1.1,1.6-2.2,2.6-3.1c4.4-4,9.4-4.5,14.7-2.1c5.5,2.4,9.4,6.5,12,12c1.7,3.8,3.2,7.7,4.9,11.5
		c0.9,2.1,1.9,4.2,2.9,6.3c1.7,3.4,4.5,5.1,8.4,4.6c3.4-0.4,6.8-1,10.2-1.6c5.7-0.9,11,0.1,15.9,3c3.6,2.1,7.1,4.3,10.6,6.6
		c2.5,1.7,4.9,1.9,7.6,0.5c6.3-3.2,12.8-3.7,19.4-0.6c3.3,1.6,6.3,1.2,9.1-1.2c1.7-1.4,3.5-2.5,5.4-3.6c6.9-4,14.6-2.3,19.3,4.1
		c3,4.1,4.7,8.7,5.3,13.7c0.3,2.1,0.5,4.3,1,6.4c0.3,1.4,1,2.7,1.8,3.9c2.5,3.6,8.2,3.3,10.1-0.8c0.3-0.6,0.5-1.2,0.8-1.8
		c2.4-5,9-6.1,12.6-1.9c2.1,2.5,4.6,3.2,7.6,3.3c4.6,0,9.3,0,13.9,0.2c7.3,0.4,13.1,3.7,17.4,9.6c1.2,1.7,2.6,3.2,4,5
		c0.8-0.7,1.4-1.2,2-1.7c2.8-2.2,5.8-2.5,9-0.9c2.7,1.4,4.6,3.7,5.9,6.4c0.3,0.7,0.7,1.4,1.3,2.6c0.4-1.4,0.7-2.4,1-3.4
		c1.3-4.8,3.5-9.1,7.2-12.5c6-5.6,13.1-8,21.3-7.2c1.9,0.2,3.8,0.5,6,0.9c0.8-1.3,1.7-2.7,2.6-4.1c0.8-1.3,1.6-2.6,2.4-3.9
		c2.1-3.1,5-4.2,8.5-3.2c3.4,0.9,5.5,3.4,5.7,7.1c0.2,2.6,0.3,5.1,0.5,7.7c0.4,7.4,2,14.6,4.5,21.5c0.2,0.6,0.5,1.2,0.8,1.7
		c0.9,1.6,1.9,2.2,3.6,1.6c2.2-0.8,4.5-1.8,6.5-3c2.4-1.4,4.6-3.2,6.9-4.8c10.1-6.9,20.9-12.3,32.9-15.2c7.1-1.7,14.4-2.2,21.6-2.3
		c3.4,0,6.9-0.1,10.3-0.2c4.4-0.1,7.8-1.8,10.5-5.2c3.9-4.9,8.9-7.7,15.5-7c3.2,0.3,6,1.6,8.8,3c9.9,5.1,19.7,10.3,29.5,15.4
		c5.8,3.1,11.2,6.8,15.8,11.6C807.9,675.4,810.3,676.9,813.2,678.6z M435.6,290.6c-0.3-5.2-0.4-10.4-0.8-15.6
		c-0.3-4.1-1.2-8.1-3.4-11.6c-2.7-4.3-6.1-4.6-9.7-1.2c-1.8,1.7-3.2,3.8-4.1,6.1c-1,2.7-1.9,5.5-2.4,8.3
		c-2.3,12.7-2.1,25.5-0.2,38.2c0.4,2.6,1.2,5.1,2.1,7.6c0.6,1.6,1.7,3.1,2.8,4.4c2.2,2.3,4.8,2.5,7.3,0.4c1.3-1.1,2.4-2.4,3.2-3.8
		c1.9-3,2.9-6.4,3.4-9.9C435.1,306,435.5,298.3,435.6,290.6z M762.2,306.2c8.1,0,15.8,0,23.5,0c0-0.6,0-1,0-1.3
		c-1-8.6-2.4-17.1-4.4-25.5c-1-4.2-2.5-8.2-3.9-12.3c-0.4-1.1-1.2-2-2-3.4c-0.9,1.4-1.7,2.3-2.2,3.3c-1,2-2.1,4-2.7,6.1
		c-1.9,6.3-3.7,12.6-5.3,18.9C764,296.5,763.2,301.2,762.2,306.2z"/>
	<path d="M732.8,275.4c-0.5,1-1,1.9-1.5,2.9c-3,6.1-6,12.2-9,18.3c-0.4,0.7-0.7,1.4-1.1,2.1c-1.7,2.7-5.6,2.5-7-0.4
		c-1.4-3-2.8-5.9-4.2-8.9c-1.9-4-3.8-7.9-5.7-11.9c-0.2-0.5-0.5-0.9-1.1-1.9c-0.1,1.1-0.2,1.7-0.2,2.3c-0.1,7.4-0.2,14.9-0.2,22.3
		c-0.1,9.3-0.1,18.5-0.1,27.8c0,1.8-0.1,3.7-0.2,5.5c-0.1,2.2-1.8,3.8-3.9,3.8c-2-0.1-3.7-1.8-3.7-3.9c0-9.2,0.1-18.4,0.2-27.6
		c0-5.3,0.2-10.5,0.2-15.8c0.1-10.2,0.2-20.5,0.2-30.7c0-0.5,0-1,0-1.4c0.2-1.6,1.2-2.9,2.8-3.3c1.5-0.4,3.1,0.1,4,1.4
		c0.6,0.9,1.1,1.9,1.6,3c4.4,9.2,8.8,18.4,13.2,27.7c0.2,0.4,0.4,0.7,0.7,1.3c0.5-0.9,0.9-1.5,1.2-2.2c4.6-9.4,9.2-18.8,13.9-28.2
		c0.3-0.6,0.5-1.2,0.9-1.7c0.9-1.4,2.2-2.1,3.9-1.9c1.7,0.3,2.7,1.3,3.1,2.9c0.1,0.5,0.2,1.1,0.2,1.7c-0.1,9.3-0.2,18.5-0.3,27.8
		c-0.1,6.7-0.1,13.4-0.1,20.1c0,8.5,0,16.9-0.1,25.4c0,0.9-0.1,1.9-0.4,2.8c-0.6,1.7-2.2,2.5-4,2.3c-1.6-0.3-2.9-1.5-3.1-3.2
		c-0.1-0.6,0-1.1,0-1.7c0-10.2,0-20.5,0.1-30.7c0.1-7.5,0.2-15,0.3-22.5c0-1.1,0-2.2,0-3.4C733.2,275.5,733,275.5,732.8,275.4z"/>
	<path d="M580.2,314c-8.4,0-16.7,0-25.2,0c-0.2,0.7-0.4,1.6-0.5,2.4c-0.6,5.9-1.1,11.8-1.6,17.7c-0.2,2.4-1.7,4.1-3.8,4.2
		c-2.1,0.1-3.9-1.8-3.8-4.3c0.2-4.5,0.5-8.9,1-13.4c1.4-11.7,3.3-23.3,6.2-34.7c1.7-6.7,3.4-13.5,6.4-19.8c1.1-2.2,2.3-4.4,3.8-6.4
		c4-5.1,9.5-5,13.1,0.3c1.7,2.5,3,5.5,4,8.4c2.8,7.9,4.3,16.2,5.7,24.5c2.1,12.5,3.1,25.1,3,37.7c0,1.3,0,2.6-0.1,3.8
		c-0.2,2.3-1.8,3.9-3.8,3.9c-1.8,0-3.8-1.7-3.8-4.1c0-6.2-0.2-12.3-0.4-18.5C580.4,315.2,580.3,314.7,580.2,314z M556.2,305.9
		c4.8,0.6,21.4,0.6,23.4,0c-0.1-1-0.1-2-0.3-3.1c-1.2-6.9-2.2-13.9-3.6-20.8c-1-4.7-2.6-9.4-4-14c-0.5-1.5-1.1-3-2.7-4.1
		c-0.6,0.8-1.2,1.5-1.6,2.4c-1,2-2.1,4-2.8,6.1c-3,8.1-5,16.5-6.7,24.9C557.2,300.2,556.7,303,556.2,305.9z"/>
	<path d="M627.3,307.1c-6.9,0-13.7,0-20.8,0c0,0.9,0,1.7,0,2.5c0.1,7.5,0.2,15,0.2,22.5c0,0.6,0,1.3,0,1.9c-0.1,2.2-1.5,3.6-3.6,3.8
		c-1.8,0.1-3.6-1.3-3.9-3.2c-0.2-1.1-0.2-2.2-0.2-3.3c0-11.9-0.2-23.8,0.1-35.7c0.3-12.5,1.2-25.1,1.9-37.6c0-0.5,0.1-1,0.2-1.4
		c0.6-2.1,2.1-3.2,4-3c2.1,0.2,3.5,1.7,3.4,3.9c-0.2,3.9-0.5,7.8-0.7,11.7c-0.5,10-1,19.9-1.4,30.1c7.1,0,13.9,0,21,0
		c0.1-3.2,0.2-6.2,0.3-9.2c0.6-11.3,1.2-22.5,1.8-33.8c0.1-1.7,0.7-3.1,2.5-3.7c2.5-0.9,5,0.8,5,3.5c0,2.3-0.2,4.6-0.3,6.9
		c-0.5,9.3-1,18.7-1.4,28c-0.3,8.7-0.4,17.4-0.5,26.1c0,5,0.2,10.1,0.3,15.1c0.1,2.6-1,4.1-3.2,4.3c-2.3,0.3-4.2-1.1-4.3-3.4
		c-0.2-4.1-0.3-8.1-0.4-12.2c-0.1-3.8,0-7.5,0-11.3C627.4,308.8,627.3,308,627.3,307.1z"/>
	<path d="M684.7,290.7c0,5.7-0.3,11.5-0.7,17.2c-0.4,5.8-1.4,11.4-3.8,16.7c-1.5,3.3-3.5,6.3-6.4,8.6c-5.6,4.5-12.4,4.1-17.5-0.9
		c-2.3-2.2-3.8-4.9-4.9-7.9c-2.1-5.3-2.8-11-3.2-16.6c-0.7-9-0.8-18,0.4-27c0.8-6.1,2-12.1,4.9-17.7c2.1-4,4.8-7.3,8.9-9.4
		c5-2.5,10.4-1.7,14.4,2.2c4,3.9,6.1,8.8,6.8,14.2C684.4,277,684.7,283.9,684.7,290.7z M677.3,288.7c-0.3-3.9-0.5-9.6-1-15.2
		c-0.3-3.8-1.4-7.4-3.6-10.5c-2.4-3.5-5.5-3.9-8.8-1.1c-2.2,1.9-3.7,4.4-4.8,7.1c-1.5,3.8-2.4,7.8-2.9,11.8c-1.4,10.5-1.3,21,0,31.6
		c0.5,3.7,1,7.5,2.8,10.8c0.9,1.6,2,3.1,3.3,4.3c1.8,1.7,3.9,1.7,5.9,0.3c1.2-0.9,2.3-2,3.2-3.2c2.2-3,3.3-6.4,3.9-10
		C676.9,306.6,676.9,298.5,677.3,288.7z"/>
	<path d="M461.2,313.5c-0.1,1.3-0.2,1.9-0.2,2.6c0.1,5,0.1,9.9,0.2,14.9c0,0.7,0.1,1.4,0,2.2c-0.1,2.4-1.6,4.1-3.7,4.2
		c-2.1,0-3.8-1.6-3.9-4c-0.1-2.2-0.1-4.3-0.1-6.5c-0.3-16.6,0.1-33.1,1-49.6c0.3-6.1,0.7-12.3,1-18.4c0.2-3.4,2.8-5.2,5.5-3.9
		c1.7,0.8,2.3,2.2,2.2,3.9c-0.2,3.7-0.5,7.3-0.7,11c-0.3,5.8-0.6,11.7-0.9,17.5c0,0.7,0.1,1.4,0.1,2.3c0.6-0.2,0.9-0.3,1.3-0.5
		c8.3-4.6,15-10.8,19.6-19.2c1.5-2.7,2.3-5.6,2.7-8.6c0.4-3.4,3.4-4.9,6-3.1c1.4,1,1.7,2.4,1.5,4c-0.4,4-1.5,7.8-3.5,11.4
		c-5.6,10.3-14.1,17.7-24.4,23c-0.5,0.3-1,0.5-1.5,0.7c-0.1,0-0.1,0.1-0.3,0.4c0.4,1.2,0.9,2.7,1.4,4.1c1.9,5,4.1,9.9,7.1,14.4
		c2,3,4.4,5.7,7.2,7.9c2.4,1.8,4.9,2.9,8,2.4c2.3-0.4,4.2,1.2,4.4,3.3c0.2,2-1.1,3.8-3.4,4.2c-3.9,0.7-7.5-0.1-10.8-2
		c-4.2-2.4-7.6-5.9-10.4-9.8c-1.6-2.2-2.9-4.6-4.3-6.9C462.1,314.9,461.8,314.5,461.2,313.5z"/>
	<path d="M511.1,329.6c4.1,0,7.9,0,11.6,0c3,0,6.1-0.1,9.1,0c1.9,0.1,3.1,1.4,3.3,3.2c0.2,2-0.8,3.6-2.6,4.1
		c-0.5,0.1-0.9,0.1-1.4,0.2c-6.9,0.2-13.7,0.3-20.6,0.5c-1,0-2.1,0.2-3.1,0.1c-2.2-0.1-3.3-0.9-3.5-3.1c-0.4-3.7-0.7-7.5-0.7-11.2
		c0.2-13.8,0.4-27.6,0.8-41.5c0.2-7.6,0.9-15.2,1.4-22.7c0.2-3.1,2.2-4.8,4.8-4.1c1.9,0.5,2.9,1.9,2.8,4.2
		c-0.1,3.4-0.4,6.9-0.6,10.3c-0.5,10.9-1,21.7-1.3,32.6c-0.2,8-0.2,16-0.2,24C511,327.2,511.1,328.4,511.1,329.6z"/>
</g>
</svg>
