<?xml version="1.0" encoding="utf-8"?>
<!-- Generator: Adobe Illustrator 23.0.4, SVG Export Plug-In . SVG Version: 6.00 Build 0)  -->
<svg version="1.1" id="Layer_1" xmlns="http://www.w3.org/2000/svg" xmlns:xlink="http://www.w3.org/1999/xlink" x="0px" y="0px"
	 viewBox="0 0 864 864" style="enable-background:new 0 0 864 864;" xml:space="preserve">
<g>
	<path d="M785.4,722.3c0-1.3,0-2.3,0-3.4c0-82.6,0-165.3,0-247.9c0-12.5,1.5-24.7,4.3-36.8c0.7-3,1.4-6,2.2-9.3
		c-0.6-0.3-1.2-0.6-1.7-0.8c-5.4-1.9-10.8-4-15.7-7c-6.5-3.9-12-8.7-16-15.2c-4.5-7.3-5.3-15.1-2.9-23.3c1.5-5.1,3.9-9.8,7.1-14.1
		c8.7-11.5,17.3-23,26.1-34.4c3.4-4.5,6.2-9.3,7.1-15c0.2-1.6,0.3-3.2,0.3-4.8c0-4,0.8-7.8,2.7-11.3c2.2-4.1,4.5-8.3,7-12.3
		c7.3-11.7,14.4-23.6,19.8-36.4c4.5-10.7,8.2-21.7,11.6-32.7c0.8-2.4,1-5,1.1-7.6c0.1-3.1-1.2-5.8-3.9-7.6c-1.8-1.2-3.8-2.3-5.8-3.3
		c-3.8-1.9-7.7-3.5-11.4-5.5c-4.2-2.3-7.6-5.6-10.3-9.5c-1.6-2.3-3.6-4-6.5-5.2c-0.1,1.8-0.2,3.3-0.4,4.8c-0.5,4.7-0.9,9.4-1.6,14
		c-0.3,1.9-1,3.9-1.9,5.7c-2.5,5-7.7,5.8-11.7,1.8c-2-2-3.2-4.4-4.2-6.9c-3.8-9.5-6.7-19.3-9.5-29.2c-0.8-3-1.6-6-2.5-9
		c-0.2-0.6-0.4-1.2-1-1.7c-0.2,4.6-0.4,9.2-0.5,13.8c-0.2,10.5-0.3,20.9-0.4,31.4c0,0.4,0,0.8,0,1.2c-0.3,2-1.9,3.4-3.8,3.4
		c-1.9,0-3.5-1.4-3.8-3.4c-0.1-0.7-0.1-1.4,0-2.2c0.3-13.4,0.4-26.9,0.8-40.3c0.3-10,0.8-20,1.3-29.9c0-0.7,0.1-1.4,0.3-2.1
		c0.5-1.9,1.8-3.1,3.5-3.1c1.9-0.1,3.2,1,3.7,3c1.6,6.2,3.1,12.4,4.8,18.6c3.6,13.3,7.1,26.7,11.6,39.8c1,2.8,2.1,5.5,3.2,8.3
		c0.3,0.8,0.9,1.6,1.6,2.7c1.3-2.6,1.6-4.9,1.9-7.3c1.3-10.7,1.2-21.4,1-32.1c-0.2-9.8-0.6-19.7-1-29.5c0-0.6,0-1.3,0-1.9
		c0.2-1.9,1.5-3.3,3.4-3.4c2-0.2,3.5,0.8,3.9,2.8c0.3,1.6,0.3,3.2,0.4,4.8c0.3,10.8,0.7,21.6,1,32.4c0,0.4,0.1,0.8,0.2,1.3
		c0.9-0.1,1.6-0.3,2.4-0.4c4-0.4,7.4,0.9,10.3,3.6c1.5,1.3,2.9,2.7,4.3,4.2c3.3,3.6,7.2,6.3,11.5,8.4c3.8,1.8,7.6,3.7,11.3,5.8
		c3,1.7,5.8,3.7,8,6.4c3.7,4.4,5.1,9.5,4.9,15.1c-0.3,7.3-2.4,14.3-4.5,21.3c-6,19.7-14.3,38.5-25.1,56.1c-2.4,3.9-4.9,7.7-7.5,11.4
		c-3.1,4.5-5.2,9.5-5.2,15c0.1,9.6-4.2,17.4-9.7,24.7c-7,9.2-14,18.3-20.8,27.6c-3.2,4.4-6.1,9-8.9,13.6c-4.2,6.8-2.5,12.7,2.6,18
		c5.4,5.6,11.8,9.2,19.1,11.4c3,0.9,6.2,1.6,9.3,2.1c4.8,0.8,7.5,5.3,6.1,10.6c-1.4,5.3-2.9,10.6-4.2,16c-2.3,9.7-3.6,19.5-3.9,29.4
		c-0.1,3.4-0.2,6.9-0.2,10.3c0,82.5,0,165,0,247.4c0,1.8,0,3.5-0.1,5.3c-0.2,4.7-2.8,7.4-7.5,7.6c-1,0-1.9,0-2.9,0
		c-243.4,0-486.7,0-730.1,0c-1.4,0-2.9,0-4.3,0.2c-2.6,0.3-4.8-0.5-6.5-2.3c-10.4-11.3-20.2-22.9-26.9-36.9
		c-3.1-6.6-5.5-13.5-6.4-20.8c-1.1-9.4,0.3-18.3,5.3-26.5c1.2-2,2.4-4,3.5-6c0.6-1,1-2.2,1.3-3.3c0.7-2.7,0.4-5.3-1.7-7.3
		c-2.2-2.3-4.5-4.6-6.9-6.7c-7.1-6.1-8.9-13.6-6.3-22.3c2-6.4,4.4-12.7,6.6-19c1.4-3.9,2.9-7.8,4.4-11.7c2.4-6.1,2.7-12.4,1.9-18.9
		c-0.4-3.1-0.6-6.2-0.6-9.3c0-4.5,1.3-8.6,4.1-12.3c2.8-3.7,5.7-7.4,8.1-11.3c5.1-8.1,7.7-17,8.3-26.5c0.1-1.1,0-2.3-0.5-3.2
		c-1.3-2.5-1.1-4.9-0.4-7.4c1.9-6.3,3.9-12.5,5.7-18.8c4.5-15.3,7.5-30.9,9.6-46.7c2.2-16.9,3.2-33.9,2.7-51
		c-0.2-6.8-0.7-13.6-1.5-20.3c-1.4-11.4-0.8-22.4,2.8-33.4c2.6-7.9,4.9-15.9,6.2-24.1c1.8-11.2,3-22.5,3.1-33.9
		c0.1-9.7,0-19.4-0.1-29c-0.1-7.9-0.2-15.8-0.4-23.7c-0.2-8-1.4-15.9-4-23.6c-2.4-6.9-2.2-13.8,0.3-20.7c1.6-4.2,2.9-8.5,3-13
		c0.2-6.3-1.3-12.2-4.5-17.7c-0.2-0.4-0.5-0.8-0.7-1.2c-2.9-4.8-1.6-10.2,3.2-13.3c2.5-1.6,5.1-1.6,7.8-0.4c3.3,1.5,6.7,2.6,10.3,3
		c7.4,0.9,14.1-1.1,20.2-5.2c1.8-1.2,3.6-2.4,5.5-3.4c4.1-2.2,8.3-2.1,12.5-0.2c3.5,1.6,6.3,4,8.4,7.2c1.2,1.8,2.3,3.7,3.4,5.5
		c0.8,1.4,1.6,2.8,2.4,4.2c1.7,2.8,2.3,2.9,4.8,0.9c0.8-0.6,1.5-1.2,2.2-1.8c4.8-4.3,10.4-5.1,16.3-3c3.2,1.1,6.2,2.7,9.2,4.1
		c3.4,1.6,6.8,3.3,10.2,4.8c5.7,2.5,9.4,6.7,11,12.8c4.5,16.6,8.9,33.2,13.4,49.8c0.6,2.4,1.4,4.7,2.2,7.1c1,3.1,3.1,5.1,6.4,5.8
		c9.8,2.1,19.7,4.3,29.5,6.4c4.9,1,9.5,0.2,13.9-2.3c11.1-6.4,22.3-12.8,33.5-19.1c1-0.6,2.1-1.1,3.2-1.5c2.3-0.8,4.6-1,6.8,0
		c3.9,1.9,7.9,1.9,12,1.3c8.2-1.1,16.4-1.3,24.7-0.8c4.9,0.3,9.7,0.8,14.5,1.4c4.1,0.5,6.8,2.9,7.9,7c0.4,1.3,0.9,2.6,1.6,3.7
		c0.8,1.3,1.7,1.6,3.1,1.1c1.2-0.4,2.4-0.9,3.5-1.6c5.7-4.1,12.1-4.7,18.5-2.7c4.2,1.3,7.4,0.7,10.4-2.4c1.8-1.9,3.9-3.5,5.9-5.2
		c8.2-7,17.7-8.9,28.1-7c2.9,0.5,5.6,1.7,7.8,3.6c2.7,2.4,5.9,2.9,9.3,3.1c6.1,0.4,12-0.5,17.6-2.8c6.9-2.8,13.6-5.9,20.4-8.9
		c2.8-1.3,5.6-2.7,8.4-4.2c4.7-2.5,9.8-3.9,15-4.8c4.6-0.8,9-2,13.5-4c0-1.2,0-2.3,0-3.5c0.2-7.3,0.9-14.5,2.9-21.6
		c1.5-5.2,3.8-10,7.9-13.7c6.3-5.7,14.6-5,19.7,1.8c1,1.3,1.8,2.8,2.6,4.3c1.7,3.4,2.5,7.1,2.8,10.9c1.2,12.9,1.1,25.9-0.5,38.8
		c-0.6,4.8-1.8,9.4-4.1,13.7c-1.4,2.5-3,4.7-5.2,6.6c-5.8,4.9-13.4,4.3-18.4-1.5c-3.1-3.6-4.9-7.9-5.8-12.5c-0.7-3.5-1-7.1-1.5-10.7
		c-0.1-0.5-0.1-1.1-0.2-1.9c-0.6,0.3-1,0.5-1.4,0.8c-6.1,4.8-12.9,8.4-20.2,11.3c-7.4,2.9-14.6,6.5-21.9,9.8
		c-7.2,3.2-14.6,5.7-22.4,6.8c-7,1-13.9,0.7-20.7-1.3c-2.2-0.7-4.4-1.6-5.9-3.5c-1.4-1.8-3.3-2.3-5.5-2.3c-5.1-0.1-9.6,1.6-13.4,4.9
		c-2.2,1.8-4.4,3.7-6.5,5.7c-5.3,5-11.6,6.4-18.7,5.2c-1.5-0.2-3-0.5-4.5-0.8c-2.2-0.5-4.1-0.1-6,0.9c-1.7,0.9-3.4,1.8-5.1,2.7
		c-7.7,4.1-19.6,0.4-23.3-8.4c-1.1-2.6-2.7-3.4-5.3-3.4c-7.1,0-14.2-0.3-21.3-0.2c-4.3,0-8.6,0.6-12.9,0.7c-2.5,0.1-5-0.2-7.4-0.6
		c-2.2-0.4-4-0.2-6,0.9c-9.5,5.5-19,10.9-28.5,16.3c-4.9,2.8-10.1,4.7-15.8,5.3c-4.2,0.5-8.3-0.3-12.4-1.2c-9.7-2.1-19.4-4.1-29-6.3
		c-7.2-1.6-12.2-5.8-15.2-12.6c-2.4-5.5-3.8-11.4-5.3-17.1c-3.7-14.1-7.5-28.1-11.3-42.1c-0.7-2.7-2.2-4.3-4.9-4.9
		c-2.9-0.6-5.6-2-8.1-3.6c-1.8-1.1-3.6-2.1-5.4-3.1c-2.3-1.2-4.5-0.9-6.5,0.7c-0.7,0.6-1.4,1.1-2,1.7c-4.8,5.1-13.8,5.4-19.8,0.6
		c-3.3-2.6-5.7-5.8-7.6-9.5c-0.9-1.7-1.7-3.5-2.7-5.1c-0.7-1.1-1.8-2-2.8-3.1c-4.9,4.2-10.3,6.8-16.1,8.7c-5.8,1.9-11.7,2.3-17.9,2
		c0.4,2.5,0.8,4.8,1.1,7.1c1,6.6,0.3,13.1-1.8,19.4c-0.6,1.9-1.3,3.8-1.9,5.7c-1.2,3.9-1.3,7.7,0.1,11.5c2.4,6.3,3.3,12.8,3.9,19.5
		c1,9.7,1.2,19.5,1.2,29.2c0.1,9.1,0.2,18.2,0.1,27.3c-0.2,18.8-1.9,37.4-6.6,55.6c-1.2,4.7-2.6,9.4-4.1,14
		c-2.1,6.5-2.5,13.1-2,19.9c0.6,8.6,1.2,17.2,1.3,25.9c0.1,10.7,0,21.4-0.6,32.1c-0.6,9.9-1.7,19.8-3,29.6
		c-2.4,18.1-6.6,35.8-12,53.3c-0.8,2.8-1.3,5.6-1,8.5c0.6,7.2-0.6,14.2-2.6,21.1c-2.5,8.8-6.2,17.1-12.1,24.3
		c-1.3,1.6-2.7,3.2-3.9,4.9c-2,2.7-2.6,5.7-1.9,9.1c2,10.1,1.2,20-2.5,29.7c-2.7,6.9-5.4,13.9-8,20.8c-0.9,2.5-1.8,5-2.6,7.5
		c-1,2.9-0.3,5.3,1.9,7.4c2.7,2.6,5.4,5.3,8,8c4.1,4.2,6.6,9.2,6.3,15.3c-0.2,3.5-1.2,6.8-2.6,9.9c-1.4,3-2.8,5.9-4.4,8.8
		c-4,7.7-4.9,15.6-2.3,23.9c2.9,9.3,7.5,17.6,13.3,25.3c2.9,3.9,6.1,7.6,9.1,11.4c1.8,2.3,4.1,3.3,7.1,3.3c10.5-0.1,21-0.1,31.4-0.1
		c0.6,0,1.1,0,1.7,0c228.7,0,457.4-0.1,686.2-0.1C782.6,722.3,783.8,722.3,785.4,722.3z M553.2,160.1c-0.3-3.9-0.5-9.5-1-15.1
		c-0.3-3.8-1.4-7.4-3.7-10.5c-2.3-3.2-5.1-3.5-8.2-1.1c-2.3,1.8-3.7,4.2-4.8,6.8c-1.9,4.5-2.8,9.3-3.3,14.2
		c-1,10.2-0.9,20.4,0.5,30.6c0.5,3.4,1.2,6.8,2.9,9.8c0.7,1.3,1.7,2.6,2.8,3.6c2,1.8,4.2,1.9,6.3,0.2c1.3-1.1,2.5-2.5,3.5-3.9
		c1.7-2.6,2.6-5.6,3.2-8.7C552.8,177.9,552.8,169.8,553.2,160.1z"/>
	<path d="M579,176.9c-0.2,6.6-0.3,12.6-0.5,18.6c-0.1,3.4-0.2,6.9-0.3,10.3c-0.1,2.3-1.6,3.9-3.7,3.9c-2,0-3.8-1.6-3.8-3.8
		c0-4.5,0.1-8.9,0.3-13.4c0.1-5.6,0.4-11.2,0.4-16.8c0-1.4-0.8-2.8-0.8-4.1c0-1.4,0.9-2.7,1-4.1c0.3-10.6,0.6-21.3,0.8-31.9
		c0-1.8,0.1-3.7,0.2-5.5c0.2-2.1,1.1-3.3,3.2-3.7c6.1-1.2,12.2-1.6,18.3-0.1c7.9,2,13.7,6.5,15.9,14.7c1.5,5.5,0.6,10.8-2,15.8
		c-3.7,7-9.6,11.7-16.7,14.8c-0.9,0.4-1.7,0.8-2.8,1.3c0.8,0.5,1.2,0.9,1.8,1.2c8.8,4.8,13.1,12.4,13.8,22.2c0.2,3,0.1,6.1,0,9.1
		c-0.1,1.7-1,3-2.8,3.5c-1.5,0.5-3.2,0-4-1.4c-0.5-0.8-0.7-1.8-0.7-2.7c-0.1-2.5,0-5,0-7.4c-0.2-7.6-3.5-13.3-10.3-16.9
		C583.9,179.2,581.7,178.2,579,176.9z M579.3,166.9c0.4,0,0.7,0.1,0.9,0.1c4.9-0.9,9.5-2.6,13.7-5.5c4.5-3.1,7.8-7.1,8.9-12.6
		c1.1-5.1-0.3-9.4-4.5-12.5c-5.4-4-11.6-3.8-18.1-3.2C579.9,144.6,579.6,155.7,579.3,166.9z"/>
	<path d="M749.2,159.1c0.3,8.9-0.1,17.9-1.6,26.7c-0.8,4.8-2.2,9.3-4.8,13.4c-1.5,2.4-3.4,4.5-5.8,6c-5.1,3.2-11,2.7-15.5-1.4
		c-3-2.8-4.8-6.3-6.1-10.2c-1.4-4.2-2-8.6-2.4-12.9c-0.8-8.7-1-17.4,0-26.1c0.7-6.7,1.9-13.3,4.9-19.4c1.6-3.1,3.6-5.8,6.4-8
		c6.2-4.7,13.4-3.9,18.3,2.1c3.1,3.8,4.9,8.3,5.4,13.2C748.6,148,749,153.5,749.2,159.1z M741.8,161.9c-0.3-5.5-0.6-11-1-16.5
		c-0.3-3.9-1.4-7.7-3.8-11c-2.3-3.1-5.2-3.5-8.3-1c-1.9,1.6-3.3,3.5-4.3,5.7c-1.8,3.7-2.7,7.7-3.3,11.7c-1.7,11.6-1.5,23.1,0.1,34.7
		c0.4,3.3,1.2,6.5,2.9,9.3c0.7,1.2,1.6,2.4,2.6,3.4c2,1.8,4.2,2,6.3,0.3c1.5-1.2,2.8-2.8,3.9-4.5c1.6-2.6,2.5-5.5,3-8.5
		C741.3,177.7,741.5,169.8,741.8,161.9z"/>
	<path d="M691.3,174.3c-2.6-0.7-5.3-0.3-8-0.2c-0.8,0-1.6,0.1-2.4,0.1c-2-0.2-3.3-1.5-3.4-3.4c-0.2-2,1-3.6,3-4
		c0.2-0.1,0.5-0.1,0.7-0.1c4.8-0.1,9.6-0.4,14.4,0.4c2.6,0.4,3.8,1.6,3.7,4.4c0,4.2-0.2,8.3-0.5,12.4c-0.2,4.1-1.1,8.1-2.6,11.9
		c-1.3,3.2-3,6-5.6,8.3c-6,5.5-13.9,4.8-18.8-1.7c-3.2-4.2-4.7-9.1-5.3-14.2c-1.4-13.1-1.3-26.2,1.4-39.1c1-5.1,2.6-10.1,5.2-14.6
		c2.8-4.9,7-8,12.7-8.9c6.7-1.1,13.4,2.7,15.4,8.7c0.8,2.3,0.9,4.5,0.3,6.8c-0.5,2.2-2.4,3.5-4.4,3.1c-2.1-0.4-3.3-2.3-3-4.5
		c0.5-3.9-1.4-6.3-5.3-6.7c-3.3-0.3-6.1,0.9-7.9,3.6c-1.5,2.4-2.9,5-3.9,7.7c-2,5.4-2.7,11.2-3.3,16.9c-0.8,8.6-0.8,17.2,0.4,25.8
		c0.4,2.7,1.1,5.3,2,7.8c0.5,1.4,1.6,2.8,2.6,3.9c1.8,1.8,3.7,1.9,5.8,0.4c1.8-1.3,3-3.1,3.9-5.1c1.7-3.4,2.4-7.1,2.7-10.9
		C691.5,180.2,691.3,177.3,691.3,174.3z"/>
	<path d="M630.3,135.4c-0.7,2.9-1.7,27.9-1.3,31.6c2.6,0,5.2,0,7.8,0c1.5,0,3-0.1,4.6,0c2.3,0.1,3.6,1.5,3.7,3.6
		c0.1,2-1.2,3.6-3.4,4c-0.9,0.1-1.9,0.1-2.9,0.1c-3.3,0-6.5,0-9.7,0c-0.7,2.4-0.8,23.4-0.1,26.1c2.5,0,5,0,7.6,0
		c4.5,0,9-0.1,13.4-0.1c2,0,3.2,1,3.8,2.7c0.4,1.5-0.1,3.2-1.4,4c-0.8,0.5-1.8,0.7-2.7,0.8c-2.2,0.1-4.5,0.1-6.7,0.2
		c-5.6,0-11.2-0.1-16.8,0.1c-3.3,0.1-5-1.7-5-4.9c0.1-8.5-0.3-17-0.1-25.4c0.4-14.9,1-29.7,1.5-44.6c0.2-5.5,2.2-5.5,6.1-5.5
		c6.5,0,12.9,0,19.4,0c1,0,2.1-0.2,3.1-0.2c2.6,0,4.3,1.6,4.3,3.9c0,2.2-1.6,3.7-4.1,3.7c-6.2,0-12.3,0-18.5,0
		C632,135.4,631.1,135.4,630.3,135.4z"/>
</g>
</svg>
