<?xml version="1.0" encoding="utf-8"?>
<!-- Generator: Adobe Illustrator 23.0.4, SVG Export Plug-In . SVG Version: 6.00 Build 0)  -->
<svg version="1.1" id="Layer_1" xmlns="http://www.w3.org/2000/svg" xmlns:xlink="http://www.w3.org/1999/xlink" x="0px" y="0px"
	 viewBox="0 0 864 864" style="enable-background:new 0 0 864 864;" xml:space="preserve">
<g>
	<path d="M804.8,319.2c2.3,0.3,4.5,0.7,6.6,0.9c3,0.4,5.5,1.6,7.2,4.2c0.4,0.6,0.9,1.1,1.3,1.7c1.1,1.5,2.7,2.2,4.5,2.3
		c2.6,0.1,5.3,0.3,7.9,0.5c1,0.1,1.9,0.2,2.8,0.4c11.4,2.6,17.7,12.2,15.5,23.7c-0.3,1.8-0.9,3.4-2.3,4.6
		c-6.1,5.2-10,11.8-13.4,18.8c-5.3,10.9-10.5,21.8-15.8,32.6c-1.4,2.8-2.9,5.5-4.6,8.1c-2.5,4-6.3,6-11,6.3
		c-1.2,0.1-2.4,0.3-3.5,0.6c-1.7,0.5-2.4,1.5-2.1,3.3c0.2,1.7,0.6,3.5,1.3,5.1c0.8,2.2,1.8,4.3,2.9,6.3c2.7,5.2,3.2,10.5,1.6,16.1
		c-1.4,4.9-4.4,8.5-9.2,10.4c-0.6,0.2-1.2,0.5-1.9,0.8c0.2,0.6,0.2,1.2,0.5,1.8c1.3,3.3,1.2,6.7-0.7,9.7c-1.5,2.5-3.3,5-5.3,7.1
		c-2.8,3-4.1,6.4-4.2,10.4c0,1.4,0.4,2.2,1.8,2.7c3.9,1.4,7.3,3.6,9.9,6.9c3.9,4.8,5.7,10.3,4.9,16.5c-0.5,3.9,0.6,7,4.1,8.9
		c4.3,2.4,7.2,6,9.3,10.4c0.9,1.8,1.7,3.6,2.4,5.5c1.2,3,3.2,4.9,6.6,5c1.3,0.1,2.6,0.2,3.8,0.4c5.1,1,8.4,4.2,10,9
		c0.9,2.9,2.1,4.6,5.3,5.6c6.3,2,9.7,8.5,8.5,15.4c-1.2,7.6-5.6,12.6-12.9,14.9c-3.5,1.1-7.2,1.6-10.7,2.4c-1.2,0.3-2.3,0.6-3.5,0.9
		c-3.7,0.9-6.6,3-8.9,6.1c-5,6.7-10.2,13.3-15.2,20.1c-5.7,7.7-13.6,10.8-22.9,11c-4.9,0.1-9.7,0.2-14.6,0.4c-3,0.1-5.5,1.6-6.8,4.2
		c-2.2,4.3-7.8,4.6-11,1.6c-4.8-4.4-10.5-5.4-16.8-3.9c-4.4,1.1-8.4,3-12,5.8c-4.2,3.2-7.6,7-11.2,10.8c-1.4,1.5-2.8,3.1-4.2,4.6
		c-1.4,1.5-3.2,2.3-5.3,2.3c-5,0-9.9,0.1-14.9,0.1c-13.8,0-27.7,0-41.5,0c-2.8,0-5.5-0.1-7.7-2.6c-2.3,2.6-5.3,2.6-8.4,2.5
		c-6.6-0.1-13.1-0.1-19.7-0.1c-22.5-0.1-45-0.1-67.4-0.1c-5.4,0-10.7,0.4-16.1,0.1c-5.3-0.2-10.6-1.1-16-1.7c-2-0.2-3.9-0.5-6.1-0.7
		c0,2.1,0,4,0,5.9c0,3,0,5.9-0.1,8.9c0,1.4-0.9,2.3-2.3,2.8c-1.3,0.4-2.4,0-3.3-0.9c-0.9-0.9-0.8-2-0.8-3.1
		c-0.1-4.2-0.2-8.5-0.3-12.7c0-0.5-0.1-0.9-0.3-1.6c-6.1,0-12.2,0-18.5,0c-0.2,1.3-0.5,2.6-0.6,4c-0.4,3.5-0.6,7-1,10.5
		c0,0.5,0,1-0.1,1.4c-0.3,1.3-1.6,2.4-2.9,2.5c-1.2,0.1-2.6-0.6-3.1-1.9c-0.3-0.9-0.5-2-0.4-3c0.7-6.3,1.4-12.6,2.3-18.8
		c1.4-9.2,3.3-18.3,6.3-27.1c0.9-2.7,2.3-5.3,3.5-7.9c0.4-0.8,1-1.5,1.5-2.2c3-3.5,7.2-3.6,10,0c1.3,1.7,2.5,3.8,3.1,5.9
		c1.5,4.9,2.8,9.8,3.8,14.8c0.9,4.4,1.4,8.8,2.1,13.3c0.1,0.5,0.2,0.9,0.4,1.6c1.8-0.2,3.6-0.4,5.4-0.8c9.9-2,19.9-2.6,30-2.6
		c25.5,0.2,51,0.1,76.6,0.1c3.2,0,6.4,0,9.8,0c0.2-0.7,0.5-1.5,0.7-2.3c1.9-6.1,7.9-9.8,14-8.5c4.2,0.9,7,3.4,8,7.6
		c0.2,0.9,0.4,1.9,0.6,3c0.8,0.1,1.5,0.1,2.3,0.2c15.1,0,30.2,0,45.4,0c2.1,0,3.6-0.7,5-2.3c4.1-4.7,8.5-9.1,13.6-12.8
		c5.5-4.1,11.5-7.2,18.4-8.4c6.9-1.3,13.7-0.8,20.2,2.1c1.3,0.6,2.4,0.5,3.6-0.1c3.6-1.6,7.1-3.4,11.1-3.8c2.4-0.3,4.8-0.4,7.2-0.5
		c3.9-0.2,7.8-0.2,11.7-0.4c3.5-0.2,6.5-1.8,8.6-4.6c4.4-5.7,9.1-11.2,13-17.2c5.9-9,14.1-13.9,24.5-15.5c2.1-0.3,4.1-0.7,6.1-1.1
		c2.6-0.6,3.7-1.4,4.9-3.7c-0.9-0.3-1.8-0.7-2.7-1c-4.5-1.5-7.6-4.3-8.6-9.1c-0.1-0.7-0.4-1.4-0.6-2.1c-0.7-2.3-0.9-2.5-3.3-2.7
		c-7.7-0.4-13-4.3-16.2-11.2c-0.9-1.9-1.7-3.8-2.6-5.7c-1.2-2.7-3-4.9-5.5-6.5c-0.6-0.4-1.2-0.9-1.8-1.2c-5.9-3.6-8.4-9-8.5-15.7
		c0-2,0-4,0-6c-0.1-4.4-3.2-7.4-7.6-7c-4.3,0.4-7.6-2.1-8.2-6.3c-0.7-5-1.1-10-0.6-15.1c0.6-6.4,3.4-11.8,8.1-16.2
		c1.9-1.8,2.3-3.5,1.3-5.9c-1.1-2.5-1.3-5.3-0.9-8c0.6-4.4,3.6-7.6,8-8c4.1-0.4,4.5-2,3.9-5.4c-0.3-2.1-1.1-4.2-1.8-6.2
		c-0.9-2.5-2-4.9-2.9-7.4c-1.8-5.2-1.3-10.2,1-15.1c2-4.1,5.2-6.6,9.6-7.7c1.3-0.3,2.7-0.7,4-0.7c3.2-0.1,4.9-1.8,6.2-4.5
		c2-4.4,4.1-8.8,6.2-13.2c4.5-9.3,9.1-18.5,13.7-27.7c2.5-5,5.7-9.4,9.4-13.5c2.9-3.1,1.8-6.2-2.4-7c-2.7-0.5-5.4-0.7-8.1-1
		c-2.1-0.3-4.3-0.5-6.4-1c-3.2-0.8-5.9-2.5-7.9-5.2c-1.1-1.6-2.5-2-4.3-2c-2.3,0-4.7,0-6.9-0.5c-5.5-1.1-9.1-6-8.2-11.4
		c0.4-2.5-0.3-4.4-1.7-6.2c-2.5-3.2-3.3-6.9-2.8-10.8c0.2-1.5,0.8-2.9,1.3-4.3c0.3-0.8,0.7-1.6,1.2-2.3c1.1-1.6,0.9-2.8-0.3-4.3
		c-2.9-3.5-3.5-7.6-2-12c0.4-1.1,0.9-2.2,1.4-3.3c1.3-3,0.9-5.6-1.3-7.9c-1-1-2.1-1.9-3.4-2.7c-1.4-0.8-2.9-1.4-4.4-1.9
		c-2.4-0.7-4.9-1.3-7.4-1.9c-2.7-0.6-4.6-2-6.1-4.5c-2-3.3-4.5-6.5-8.3-8.1c-1.2-0.5-2.4-1.3-3.4-2.2c-2.8-2.3-3.6-5.1-2.5-8.6
		c0.2-0.7,0.5-1.5,0.9-2.4c-0.8-0.1-1.4-0.1-2-0.2c-0.5,0-1,0-1.4,0c-202.6,0-405.3,0-607.9,0c-2,0-3.9,0.3-5.8,1
		c-3.7,1.3-8.9,0.1-9.7-5.9c-0.1-0.7,0-1.4,0-2.2c0-10.8,0-21.6,0-32.4c0-0.9,0-1.7,0-2.7c-8.1,1.3-15.8,2.9-23.2,5.8
		c-7.1,2.8-13.8,6.3-20.5,9.9c-12.3,6.7-24.6,13.4-36.9,20c-4.1,2.2-8.3,4-12.6,5.9c-1.3,0.6-1.8,1.3-1.8,2.7c0,14.4,0,28.8,0,43.2
		c0,1.3,0.4,2,1.5,2.6c2,1.1,3.9,2.2,5.6,3.6c6.2,5.3,6.6,14.8,0.7,20.1c-1,1-2.4,1.6-3.6,2.3c-0.9,0.5-1.9,0.8-3.2,1.3
		c0.3,0.8,0.4,1.7,0.9,2.3c1.3,1.6,2.6,3.3,4.2,4.6c4.8,4.2,2.8,10.5-2.1,12.8c-0.7,0.3-1.5,0.6-2.4,1c0,1.1,0,2.1,0,3.1
		c0,92.4,0,184.8,0,277.2c0,7-0.3,14.1-0.4,21.1c0,0.9,0,1.7,0,2.7c8.3,1.3,16.4,2.3,24.6,3.4c0.1-1,0.1-1.6,0.2-2.2
		c0.4-8.3,0.9-16.6,1.3-24.9c0-0.5,0.1-1,0.1-1.4c0.1-1.7,1.1-2.6,2.7-2.9c5-1.1,10-1.3,15,0.1c7.3,2,13.2,8.1,12.2,17.4
		c-0.5,4.5-2.5,8.2-5.5,11.5c-4.9,5.2-11.1,7.7-17.9,8.9c-0.5,0.1-0.9,0.2-1.5,0.3c-0.1,2.9-0.3,5.7-0.2,8.4c0,4.2,0.1,8.3,0.2,12.5
		c0,0.8,0,1.6,0,2.4c-0.1,2.2-1.1,3.4-3.1,3.4c-1.9,0-3.2-1.1-3.3-3.3c-0.2-3.6-0.2-7.2-0.3-10.8c0-3.4,0-6.9,0-10.6
		c0,1.2-13.5,2.5-15,2.5c-5.4,0.2-10.9,0-16.3,0.1c-3.4,0.1-7.6-1.9-7.4-7.2c0-0.2,0-0.3,0-0.5c-0.1-105-0.1-210.1-0.2-315.1
		c0-3.5,0.3-4.6,2.2-7.5c-4.8-9.3-3.3-17.3,6-23.7c-1.5-0.3-2.5-0.6-3.6-0.8c-4.4-1-6.2-3.3-6.2-7.8c0-19.2,0-38.4,0-57.6
		c0-4.5,1.4-6.4,5.8-7.5c6.4-1.6,12.3-4.4,18.1-7.6c13.9-7.6,27.7-15.4,41.6-22.9c12.1-6.6,25-11,38.6-13.2c2.9-0.5,5.8-1.1,8.7-1.6
		c0.5-0.1,1.1-0.2,1.7-0.2c5.7-0.4,8.8,2.4,8.8,8.1c0,10.8,0,21.6,0,32.4c0,4.4,3.8,3,7.5,3.1c46.1,0,92.3,0,138.4,0
		c46.9,0,93.7,0,140.6,0c46.9,0,93.7,0,140.6,0c46.9,0,93.7,0,140.6,0c14.8,0,29.5,0,44.3,0c1.6,0,3.2,0,4.8-0.1
		c2.3,0,4.4,0.7,6.2,2.3c3.4,3.1,5.5,6.9,5.4,11.6c-0.2,5.2,6.5,8.7,10.1,11.5c1.2,1,2.5,1.7,3.9,2.2c4.9,1.6,9.6,3.7,13.4,7.3
		c4,3.7,6.6,8.2,7.4,13.7c0.5,3.5-0.1,6.7-1.6,9.8c-0.9,1.9-0.8,3.4,0.6,5c2.7,3.1,3,6.8,2,10.6c-0.4,1.6-1,3.2-1.8,4.7
		c-1.4,2.6-1.5,5,0.5,7.3c1.2,1.4,1.8,3.2,2.1,5C804.5,316.9,804.7,318,804.8,319.2z M64.6,618c-0.6,8.6-1,16.9-1.3,25.4
		c5-0.7,9.1-2.3,12.8-5.2c2-1.6,3.5-3.5,4.6-5.8c2.8-6,0.4-11.6-5.8-13.8C71.5,617.5,68.2,617.5,64.6,618z M488.6,652.4
		c-1-5.7-1.8-11.1-2.9-16.4c-0.8-3.9-2-7.7-3.1-11.5c-0.3-1.2-0.7-2.4-1.9-3.2c-3.4,4.2-9.5,24.9-9,31.1
		C477.1,652.4,482.6,652.4,488.6,652.4z"/>
	<path d="M418.3,668.8c0.3-1.5,0.8-3,0.9-4.6c0.3-4.5,0.8-8.9,0.7-13.4c-0.1-11.3-0.4-22.7-0.7-34c0-0.5-0.1-1,0-1.4
		c0.1-1.8,1.4-3,3.1-3c1.8-0.1,3.1,0.9,3.2,2.8c0.3,2.9,0.4,5.9,0.5,8.9c0.2,13.9,1.3,28.2-0.6,42c-0.4,3.1-1.1,7.4-3.7,9.4
		c-2.5,1.9-6.2,1.3-8-1.1c-1.2-1.6-2.5-3.4-3.1-5.3c-2.5-7.3-4.9-14.7-7.2-22.1c-0.6-2-1.1-3.9-2.1-5.9c-0.1,0.5-0.2,1-0.2,1.4
		c-0.2,10.2-0.4,20.5-0.6,30.7c0,2.3-0.8,3.5-2.4,3.9c-2.1,0.5-3.9-0.9-4-3.3c-0.1-2.6-0.1-5.1,0-7.7c0.1-5.7,0.1-11.4,0.3-17
		c0.4-10.4,0.9-20.8,1.3-31.1c0-0.5,0.1-1,0.2-1.4c0.5-1.7,1.6-2.6,3.1-2.6c1.5,0,2.6,0.8,3.1,2.5c1,3.6,1.8,7.3,2.8,10.9
		c3.3,12.2,6.3,24.4,10.6,36.3c0.7,1.8,1.5,3.6,2.2,5.4C417.9,668.8,418.1,668.8,418.3,668.8z"/>
	<path d="M193.5,668.7c1.1-3.2,1.3-6.5,1.5-9.9c0.6-11.8,0.3-23.7-0.2-35.5c-0.1-2.6-0.2-5.1-0.2-7.7c0-2.1,1.2-3.4,3.1-3.4
		c1.9,0,3.1,1.2,3.2,3.4c0.8,15.3,1.4,30.5,0.4,45.8c-0.3,3.8-0.7,7.7-2.3,11.2c-1.3,2.8-3.2,4-6,3.7c-1.7-0.1-3.1-1-4-2.3
		c-1.3-1.9-2.6-3.9-3.3-6c-2.7-8.1-5.2-16.3-7.8-24.4c-0.3-1-0.6-2-1.3-2.9c-0.1,0.8-0.1,1.6-0.2,2.4c-0.2,9.9-0.3,19.8-0.5,29.7
		c0,0.3,0,0.6,0,1c-0.2,2-1.5,3.1-3.3,3.1c-1.9,0-3.1-1.2-3.1-3.2c-0.1-4.7-0.1-9.4,0-14.2c0-4.6,0.1-9.3,0.3-13.9
		c0.4-9.3,0.8-18.7,1.3-28c0-0.6,0.1-1.1,0.3-1.6c0.5-1.5,1.7-2.3,3.1-2.2c1.4,0,2.5,0.8,3,2.3c0.4,1.2,0.6,2.5,1,3.7
		c3.5,12.6,6.9,25.3,10.5,37.9c0.9,3.1,2.1,6,3.2,9c0.3,0.7,0.7,1.4,1,2.1C193.2,668.8,193.4,668.7,193.5,668.7z"/>
	<path d="M136.9,640.8c-0.1,2.9-0.3,5.9-0.4,8.8c-0.1,7.6-0.2,15.2-0.3,22.8c0,0.8,0,1.6-0.2,2.4c-0.4,1.5-1.7,2.3-3.3,2.1
		c-1.4-0.1-2.6-1.1-2.8-2.5c-0.1-0.5-0.1-1.1-0.1-1.7c0.1-9.7,0.2-19.5,0.5-29.2c0.2-8.2,0.7-16.4,1-24.7c0-0.6,0-1.3,0.2-1.9
		c0.4-1.9,1.6-3.1,3.1-3.2c1.7-0.1,2.9,0.9,3.4,3c1,3.9,1.9,7.8,2.9,11.6c3.2,12,6.3,24.1,10.6,35.8c0.5,1.3,1,2.5,1.5,3.8
		c0.1,0.3,0.4,0.5,0.7,1c0.3-0.7,0.6-1.1,0.6-1.6c0.5-4.7,1.1-9.4,1.3-14.1c0.4-12.1-0.1-24.1-0.7-36.2c0-0.6,0-1.1,0-1.7
		c0.1-1.9,1.3-3,3-3.2c1.8-0.1,3.2,0.9,3.5,2.9c0.1,0.4,0.1,0.8,0.1,1.2c0.3,10.8,0.7,21.6,0.7,32.3c0,6.1,0,12.2-1.1,18.2
		c-0.4,2-0.9,4.1-1.7,6c-1.9,4.6-7.3,4.7-9.8,1.5c-1.3-1.7-2.6-3.7-3.3-5.7c-2.7-7.9-5.2-15.9-7.7-23.9c-0.4-1.3-0.7-2.6-1.1-3.9
		C137.2,640.7,137.1,640.8,136.9,640.8z"/>
	<path d="M380,659.1c-6.3,0-12.4,0-18.9,0c-0.5,4.7-0.9,9.4-1.4,14.1c0,0.4,0,0.8,0,1.2c-0.1,1.9-1.5,3.2-3.2,3.3
		c-1.6,0-3.2-1.4-3.2-3.2c-0.1-2.1,0-4.2,0.3-6.2c1.4-12.2,3.2-24.4,6.7-36.2c1.1-3.7,2.5-7.3,3.9-10.8c0.6-1.5,1.6-3,2.6-4.3
		c2.9-3.6,7.1-3.7,10-0.1c4.6,5.8,5.8,15.1,7.3,22.1c2.1,10.6,2.9,21.4,3,32.2c0,1.2-0.1,2.4-0.2,3.6c-0.2,1.9-1.6,3.1-3.4,3
		c-1.7-0.1-3-1.4-3-3.4c-0.1-3.8,0-7.5-0.1-11.3C380.3,661.8,380.1,660.5,380,659.1z M362.7,652.3c5.5,0.3,11.1,0.4,16.6,0.1
		c0-0.7,0.1-1.1,0-1.4c-0.6-4.2-1.1-8.4-2-12.5c-1-4.7-2.3-9.3-3.6-13.9c-0.3-1.2-1-2.2-1.6-3.4
		C368.6,624.9,362.5,645.4,362.7,652.3z"/>
	<path d="M236.6,626.4c-0.2,1.9-0.3,3.4-0.6,4.9c-0.4,1.8-1.9,2.8-3.5,2.7c-1.7-0.2-2.9-1.6-2.9-3.5c0-0.7,0.2-1.4,0.2-2.1
		c0-1.6,0.1-3.2-0.2-4.8c-0.8-4.5-5.2-6-8.7-3c-0.3,0.3-0.6,0.5-0.8,0.9c-2.9,3.8-4.7,12.7,0.6,17.7c1.7,1.6,3.6,3.1,5.5,4.6
		c1.6,1.3,3.3,2.5,4.8,3.9c1.9,1.7,3.1,3.9,3.6,6.4c1.1,4.8,1.2,9.5-0.7,14.1c-1,2.6-2.6,4.8-4.9,6.4c-6.5,4.7-14.7,2.7-18.2-4.5
		c-2.3-4.8-2.6-9.9-1.3-15c0.4-1.7,1.3-3.3,2.7-4.5c1.4-1.2,3.1-1.3,4.4-0.3c1.3,1,1.5,3,0.5,4.6c-2.4,3.8-2.2,9.8,0.3,13.4
		c1.9,2.6,5,3.2,7.5,1.2c1.1-0.9,2.2-2.2,2.8-3.5c1.7-3.7,1.5-7.6,0.1-11.4c-0.4-1.1-1.3-2-2.1-2.8c-1-1-2.3-1.8-3.4-2.6
		c-1.3-1-2.7-2-4-3.1c-9-7.4-8.9-17.1-5.3-25.4c1.8-4.3,5.2-7,9.9-7.8c6-1,11.3,2.3,12.8,8.2C236.3,622.7,236.4,624.7,236.6,626.4z"
		/>
	<path d="M332.9,670.3c0.7-1,1.5-1.9,1.9-2.9c1.3-3.2,2.8-6.3,3.8-9.6c4.3-13.8,7.2-27.8,8.6-42.2c0.2-2.1,1.5-3.3,3.4-3.2
		c1.8,0.1,3.1,1.3,2.9,3.4c-0.2,3.5-0.5,7-1.1,10.5c-1.7,10.8-3.9,21.5-7.2,32c-1.4,4.4-3,8.8-5.5,12.7c-0.8,1.3-1.7,2.5-2.8,3.6
		c-2.7,2.6-5.9,2.8-8.9,0.5c-2-1.5-3.2-3.6-4.2-5.8c-1.8-4-2.8-8.2-3.5-12.4c-1.4-8.4-2-16.8-2-25.3c0-4.6,0.1-9.1,0.2-13.7
		c0-1,0.1-2.1,0.4-3.1c0.4-1.6,1.7-2.6,3.3-2.4c1.6,0.1,2.8,1.2,2.9,2.9c0.1,1,0,2.1-0.1,3.1c-0.8,13.1-0.2,26,2.1,38.9
		c0.5,3.1,1.6,6.2,2.6,9.2C330.2,668,331,669.4,332.9,670.3z"/>
	<path d="M102.1,651.2c0,6.4,0,12.6,0,19.1c0.7,0.1,1.4,0.2,2,0.2c4.2,0,8.3-0.1,12.5-0.1c0.7,0,1.4,0,2.2,0.1
		c1.7,0.3,2.8,1.6,2.8,3.1c0,1.6-1.3,3.1-3,3.2c-2.3,0.1-4.6,0.1-6.9,0.1c-3.9,0.1-7.8,0.1-11.7,0.2c-3,0-4.4-1.1-4.4-4.1
		c0-8.7,0-17.4,0.1-26.1c0.1-7.4,0.4-14.8,0.6-22.3c0.1-2.3,0.2-4.6,0.4-6.9c0.2-2.1,1.3-3.3,3.4-3.3c6.4-0.1,12.8-0.2,19.2-0.2
		c2.2,0,3.4,1.3,3.4,3.2c0,2-1.3,3.2-3.6,3.2c-4.4,0-8.8,0-13.2,0c-0.9,0-1.7,0.1-2.9,0.1c-0.3,7.9-0.6,15.7-0.9,23.7
		c1.3,0,2.3,0,3.3,0c2.1,0,4.2-0.1,6.2,0c1.9,0.1,3.2,1.6,3.1,3.3c-0.1,1.7-1.4,3-3.3,3.1c-2.2,0.1-4.5,0-6.7,0.1
		C104,651,103.1,651.1,102.1,651.2z"/>
	<path d="M259.7,637.4c0.5-0.8,0.9-1.4,1.2-2c3.6-6.4,7.3-12.8,10.9-19.2c0.4-0.6,0.7-1.3,1.1-1.8c1.1-1.3,2.6-1.6,4.1-0.8
		c1.4,0.8,2.1,2.3,1.5,3.9c-0.3,0.7-0.7,1.4-1.1,2.1c-4.7,8.3-9.4,16.5-14.1,24.8c-0.7,1.2-1.1,2.4-1.1,3.8c-0.1,8-0.3,16-0.5,24
		c0,0.6,0,1.3,0,1.9c-0.2,1.6-1.3,2.6-2.8,2.8c-1.6,0.2-3-0.7-3.5-2.3c-0.2-0.8-0.2-1.6-0.2-2.4c0.1-8.2,0.3-16.3,0.5-24.5
		c0-1.8-0.2-3.4-1-5.1c-3.4-7.8-6.7-15.6-10-23.4c-0.4-0.9-0.7-1.8-0.8-2.7c-0.2-1.6,0.7-2.8,2.2-3.3c1.4-0.5,2.9,0.1,3.7,1.5
		c0.3,0.6,0.5,1.2,0.8,1.7c2.6,6.1,5.3,12.2,7.9,18.3C258.8,635.5,259.2,636.3,259.7,637.4z"/>
	<path d="M441.9,618.6c-1.1-0.1-1.9-0.1-2.7-0.2c-1.6-0.3-2.5-1.3-2.6-2.9c-0.1-1.6,0.8-2.8,2.2-3.3c0.3-0.1,0.6-0.1,0.9-0.2
		c4.1,0,8.2-0.1,12.2-0.1c1.8,0,3,1.3,3.2,3c0.1,1.7-1.1,3.2-2.9,3.5c-1.1,0.1-2.2,0-3.6,0c-1.4,17.2-1.8,34.3-1.4,51.7
		c1.1,0,2.1,0,3.1,0c2.1,0.1,3.5,1.3,3.5,3.2c0.1,1.8-1.3,3.2-3.4,3.3c-4.4,0.1-8.8,0.2-13.2,0.2c-2.1,0-3.4-1.3-3.5-3.2
		c-0.1-2,1.2-3.3,3.5-3.4c1-0.1,2,0,3.3,0C440,652.8,440.9,635.9,441.9,618.6z"/>
	<path d="M292.9,670.2c4.7,0,9.2,0,13.7,0c0.9,0,1.8,0,2.6,0.3c1.4,0.5,2.2,1.7,2.1,3.2c-0.1,1.4-0.9,2.4-2.2,2.8
		c-0.5,0.2-1.1,0.2-1.6,0.2c-5.3,0.1-10.5,0.3-15.8,0.4c-0.8,0-1.6,0.1-2.4-0.1c-1.3-0.2-2.3-0.8-2.5-2.2c-0.2-1.3-0.4-2.5-0.4-3.8
		c-0.4-11.9-0.2-23.8,0.4-35.7c0.3-6.1,0.7-12.3,1-18.4c0.1-2.3,1.2-3.5,3-3.6c2.2-0.1,3.6,1.3,3.5,3.8c-0.1,2.7-0.4,5.4-0.5,8.1
		c-0.4,8.9-0.8,17.9-1.1,26.8c-0.2,5.6,0,11.2,0,16.8C292.8,669.3,292.9,669.8,292.9,670.2z"/>
</g>
</svg>
