<?xml version="1.0" encoding="utf-8"?>
<!-- Generator: Adobe Illustrator 23.0.4, SVG Export Plug-In . SVG Version: 6.00 Build 0)  -->
<svg version="1.1" id="Layer_1" xmlns="http://www.w3.org/2000/svg" xmlns:xlink="http://www.w3.org/1999/xlink" x="0px" y="0px"
	 viewBox="0 0 864 864" style="enable-background:new 0 0 864 864;" xml:space="preserve">
<g>
	<path d="M241.2,570.2c1.7,2.6,3.2,4.6,4.5,6.8c2.7,4.4,4,9.3,3.3,14.4c-0.5,4.1-2.5,6.3-6.6,6.8c-3.3,0.4-6.7,0.3-10,0.3
		c-4.8,0-9.6,0.1-14.4-0.3c-9.6-1-14.6,9.7-12,16.3c0.8,2.2,1.9,4.2,2.9,6.3c1.6,3.1,3.1,6.3,3.6,9.8c0.4,2.7,0.2,5.3-0.7,7.8
		c-1,3-0.5,5.6,1.3,8.1c1.6,2.1,3,4.3,4.3,6.6c3,5.4,3.1,10.8-0.2,16.1c-3,4.8-6.1,9.6-9.2,14.3c-0.2,0.3-0.4,0.7-0.8,1.3
		c0.8-0.1,1.3-0.1,1.7-0.3c8.7-3.1,17.3-6.1,26-9.2c13-4.7,25.9-9.8,38.3-15.9c2.2-1.1,4.3-2.2,6.5-3.2c5.1-2.2,10.4-2.6,15.6-0.4
		c2.7,1.1,4.9,0.6,7.2-0.9c4.8-3.3,9.6-6.7,14.6-9.7c4.1-2.5,8.4-4.7,12.7-6.8c8.3-4,16.8-4.6,25.6-1.7c5.2,1.8,10.6,1.6,15.9,0.2
		c6.2-1.6,12.2-3.8,18.3-5.7c6.5-2,13-4,19.6-5.7c5.5-1.4,11.2-1.7,16.9-1c7.8,1,14.5,4.3,20.2,9.7c1.2,1.1,2.3,2.2,3.6,3.5
		c0.6-0.6,1.1-1.2,1.6-1.8c9.2-11.5,14.8-24.6,16.7-39.2c0.6-4.6,0.8-9.2,1.3-13.8c0.9-7.9,3.7-15,8.2-21.5
		c5.7-8.4,10.2-17.4,12.9-27.2c4-14.6,4.4-29.3,0.3-44c-2.1-7.5-5.8-14.2-10.7-20.2c-2.3-2.8-4.7-5.6-7-8.5
		c-6.9-8.8-6.8-18.8,0.2-27.5c4.1-5.1,9.6-8.2,15.9-9.7c4.2-1,3.6-1.2,3.6-4.6c0-3.6,0.6-7,2.1-10.3c0.9-1.9,0.8-3.4-0.5-5.1
		c-2-2.4-2-5.1-0.5-7.8c0.9-1.7,1.9-3.3,2.9-4.9c-1.1-1.1-2.1-2.1-3-3.2c-1.5-1.8-2-3.8-1.1-6.1c0.9-2.4,1.9-4.7,2.8-7.1
		c0.3-0.7,0.5-1.4,0.6-2.1c0.1-1-0.5-1.6-1.4-2c-0.9-0.4-1.7-0.3-2.4,0.5c-0.3,0.4-0.6,0.9-0.9,1.4c-3.4,4.9-8,5.5-12.5,1.6
		c-8-7.1-13.6-15.9-16.4-26.3c-0.5-1.9-0.9-3.9-1.1-5.9c-0.4-4.3,1.3-7.1,5.4-8.5c1.8-0.6,3-1.7,3.9-3.3c0.9-1.7,1.9-3.3,2.7-5.1
		c2.8-5.6,7.3-8.1,15.1-6.7c3.9,0.7,7.1,2.9,9.9,5.6c7.4,7,14.8,13.9,22.2,20.9c1,1,2.1,2,3.2,3.1c0.4-0.4,0.9-0.7,1.2-1.2
		c6.1-8.3,7-17.1,2.7-26.4c-0.9-2-2.2-3.9-3.5-5.7c-5.1-7.1-8.2-14.9-9.5-23.6c-1.6-10.8-2.2-21.6-2.8-32.5
		c-0.4-6.9-0.7-13.7-0.9-20.6c-0.2-7.7,4.2-12.5,11.9-13.1c8.3-0.6,15.4,4.5,17.3,12.8c1.2,5.3,2,10.7,2.9,16
		c1.2,6.9,2.3,13.7,4.8,20.3c2.9,7.4,7.1,13.8,13,19c4.8,4.3,10.5,6.7,17,6.8c1.7,0,3.4,0.1,5,0.2c0.7,0,1.4,0.1,2.2,0.2
		c4,0.6,6,2.7,6,6.7c0,5.5-0.1,11-0.2,16.6c-0.3,11-0.6,21.9-0.9,32.9c-0.1,3.2,0.9,4.6,3.9,5.8c9.5,3.7,20.5-1.4,23.1-11.3
		c1.4-5.3,1.9-10.8,2.9-16.3c0.6-3.5,1.2-6.9,2-10.4c0.9-3.9,2.5-7.6,4.8-10.9c1.4-2.1,1.8-4.3,1-6.6c-1.7-5.4-3.2-10.9-5.3-16.2
		c-4-10.4-11.3-17.9-21.4-22.6c-7.1-3.3-13.9-7.2-20.6-11.4c-10.1-6.3-15.6-15.6-17.6-27.1c-1-5.7-1.4-11.6-1.9-17.4
		c-1-12.2-1.9-24.4-2.8-36.6c-0.7-8.9-1.3-17.7-1.9-26.6c0-0.5-0.1-0.9-0.2-1.7c-2.8,0.3-5.4,0.5-8.1,0.8c-2.2,0.2-4.5,0.4-6.7,0.5
		c-3.5,0.1-5.8-1.6-6.6-5c-0.4-2.1-0.6-4.3-0.6-6.4c0-30.2,0-60.5,0-90.7c0-0.9,0-1.9,0-3.1c-0.7,0-1.3,0-1.8,0
		c-17.7,0.6-35.3,1.4-53,1.9c-17.8,0.6-35.7,1.2-53.5,1.4c-21.9,0.2-43.8,0.1-65.7,0c-17.5-0.1-35-0.4-52.5-0.6
		c-3.5,0-7-0.1-10.6-0.2c-3.1-0.1-5.4,1-6.9,3.8c-0.7,1.3-1.7,2.4-2.3,3.7c-2.5,5.2-11.1,6.9-15.9,3c-0.9-0.7-1.9-1.5-2.6-2.5
		c-4.3-5.6-10-7.2-16.6-6.2c-2.7,0.4-5.4,0.9-8,1.4c-1.8,0.3-2.9,1.5-2.9,3.2c-0.1,3.8,0,7.5,0,11.4c0.6,0.1,1.2,0.2,1.7,0.2
		c9.8,0.3,19.5,0.6,29.3,0.8c3.4,0.1,4.2,0.8,4.8,4c1.1,5.6,1.3,11.3-0.2,16.9c-2.2,7.9-6.9,13.3-15.2,14.9c-4.9,1-9.6,0-13.9-2.3
		c-6.3-3.4-10.6-8.7-13.5-15.1c-0.4-0.9-0.8-1.9-1.3-3.1c-0.4,0.5-0.8,0.9-1.1,1.3c-0.6,0.9-1.2,1.9-1.8,2.8
		c-3.7,5.6-9,8.9-15.6,9.8c-4,0.6-8.1,0.5-12.2,0.5c-2.6,0-4.1-2.2-3.6-4.5c0.4-1.8,1.9-2.7,4.2-2.7c3.1,0,6.2,0,9.3-0.3
		c5-0.5,9.1-2.9,12-7.1c1.8-2.6,3.2-5.5,4.4-8.8c-1.7-0.1-3.2-0.2-4.7-0.3c-7-0.2-14.1-0.4-21.1-0.6c-0.7,0-1.5,0-2.2-0.1
		c-1.7-0.3-2.9-2-2.8-3.7c0.1-1.6,1.3-3.1,2.9-3.4c0.9-0.1,1.8-0.1,2.6-0.1c6.7,0.2,13.4,0.4,20.1,0.5c1,0,2.1,0,3.2,0
		c0.1-0.7,0.2-1.3,0.2-2c0-4.8,0-9.6,0-14.4c0-0.8-0.1-1.6-0.2-2.4c-0.3-1.9,0-3.7,0.7-5.4c0.6-1.4,1.5-2.4,3-2.9
		c8.5-3.4,17.2-5.4,26.5-4.6c6.4,0.5,12.4,2.4,17.7,6.1c0.6,0.4,1.2,0.8,1.8,1.2c0.1,0,0.1,0.1,0.3,0.1c0.1-0.1,0.3-0.2,0.4-0.4
		c4-5.9,9.7-8.7,16.7-8.9c5.5-0.1,11,0.2,16.5,0.3c13,0.1,25.9,0.1,38.9,0.2c17,0.1,34.1,0.5,51.1,0.5c12.2,0,24.5-0.2,36.7-0.6
		c23.6-0.6,47.2-1.3,70.7-2.1c10.6-0.3,21.3-0.9,31.9-1.4c1,0,2.1,0,3.1,0.1c3.3,0.3,5.3,2.1,5.9,5.3c0.3,1.8,0.4,3.7,0.5,5.5
		c1,30.5,0.4,60.9,0.5,91.4c0,0.9,0,1.9,0,3.1c0.8,0,1.4,0,2,0c3.8-0.1,7.5-0.3,11.3-0.4c1.1,0,2.3,0.1,3.3,0.3
		c2.6,0.6,4.4,2.2,5,4.9c0.2,0.9,0.3,1.9,0.4,2.8c0.7,13.6,1.3,27.2,2.1,40.7c1,16.2,2.8,32.3,5.2,48.4c1,6.2,4.2,11,9.6,14.2
		c6.6,3.9,13.3,7.7,20.1,11.2c9.3,4.8,17.2,11.1,22.9,19.9c3.5,5.3,5.9,11.1,7.7,17.2c1.5,5.1,2.8,10.3,4.2,15.5
		c1,3.7,0.7,7.4-1.2,10.7c-4.5,7.8-6.2,16.4-7.4,25.1c-0.6,4.3-1.4,8.7-2.4,13c-2.3,9.4-8.1,16-17,19.8c-7.1,3.1-14.5,4.5-22.2,2.7
		c-4.2-1-8-2.8-11.5-5.3c-4.2-3.1-6.4-7.3-6.4-12.5c0.1-12.9,0.3-25.8,0.4-38.6c0-1.9-0.2-3.8-0.3-5.8c-1.1-0.3-2-0.6-3-0.8
		c-17.2-3.6-28.9-14-36.6-29.4c-4.2-8.3-6.3-17.2-7.6-26.4c-0.2-1.4-0.5-2.8-0.8-4.2c-0.1-0.4-0.3-0.7-0.7-1.1
		c0.1,1.1,0.2,2.3,0.3,3.4c0.9,10.6,1.8,21.2,2.6,31.8c0.5,6.4,2.8,12,6.9,17c14.1,17.5,11.1,43.9-6.5,57.7c-5,3.9-7.8,3.8-12.7-0.3
		c-9.8-8.2-18.5-17.4-27.5-26.4c-1.2-1.2-2.4-2.3-3.8-3.6c-1.1,2.6-2.1,4.8-3.1,7.1c-1.1,2.3-2.6,4.2-4.8,5.8c1.6,3.1,3.3,6,5.3,8.8
		c0.8,1.1,2.1,1.1,3.3,0.9c1.7-0.3,3.3-0.6,4.9-1c10.3-2,19.3,5.4,19.3,15.9c0,1.9-0.1,3.8-0.3,5.7c-0.2,2.6,0.1,5.1,1,7.5
		c1.2,3.5,1.4,7.1,0.1,10.6c-0.6,1.6-0.3,2.9,0.6,4.3c3.2,4.9,3,6.7-0.7,11.3c-1.4,1.7-2.4,3.8-3.3,5.8c-1,2.4-0.4,4.6,1.6,6.3
		c0.5,0.5,1.1,0.9,1.6,1.4c3.7,3.7,2.8,9.6-1.9,11.9c-1.5,0.8-3.3,1.1-5.1,1.3c-3.5,0.5-7,0.7-10.5,1.1c-4,0.4-7.4,1.9-9.7,5.4
		c-1.7,2.7-1.8,4.3,0.1,6.8c1.6,2.2,3.3,4.3,5.1,6.3c9.5,10.7,15.1,23.2,17.4,37.3c4.1,25.2-1,48.6-14.2,70.4
		c-1.2,2.1-2.5,4.1-3.7,6.2c-3.6,6.2-5.2,12.9-5.6,20.1c-1.3,22.6-9.3,42.5-24.6,59.3c-0.5,0.6-1.1,1.2-1.7,1.7
		c-4.1,3.4-9.2,3.9-13.8,1.2c-2.3-1.3-4-3.1-5.5-5.2c-4.5-6.2-10.6-9.4-18.3-9c-3,0.2-6.1,0.6-9,1.4c-9.7,2.9-19.2,6-28.8,9
		c-6.8,2.1-13.6,3.4-20.8,3.2c-3.9-0.1-7.8-0.7-11.6-1.9c-4.4-1.5-8.6-1-12.8,0.8c-6.6,2.8-12.6,6.5-18.6,10.5
		c-3.9,2.6-7.9,5.2-11.9,7.7c-4.9,3-9.9,3.4-15,0.6c-2.7-1.4-5.2-1.3-7.9,0.2c-12.4,7-25.5,12.2-38.8,17
		c-15.8,5.7-31.6,11.4-47.4,17.1c-4.1,1.5-8.2,2.7-12.6,2.3c-3.7-0.3-7-1.6-9.9-3.9c-4.3-3.3-4.5-8.3-0.3-11.8
		c2.6-2.2,5.5-4.2,8.4-6c8.4-5.5,14.6-13,19.9-21.5c1.2-2,1.2-3.9-0.2-5.8c-1.2-1.7-2.5-3.3-3.6-5.1c-0.9-1.3-1.7-2.7-2.4-4.1
		c-1.4-2.9-1.8-6-0.9-9.1c1.5-5.1,0.6-9.7-2-14.3c-4.6-8.2-5.2-16.8-2.1-25.7c2.2-6.2,6.4-10.8,11.9-14.2c2.8-1.7,5.9-2.4,9.2-2.4
		c3.5,0,7,0,10.6,0c0.6,0,1.3,0,1.9,0c4.5-0.3,6.7-3.5,5.6-7.8c-0.8-3.2-2.7-5.8-4.9-8.1c-0.6-0.6-1.5-0.9-2.3-1.2
		c-5.6-1.9-10.7-4.6-15.3-8.4c-4.1-3.5-7.4-7.6-8.5-13c-0.4-2.2-0.4-4.4-0.3-6.7c0.1-2.2,1.5-3.4,3.7-3.7c0.6-0.1,1.3-0.1,1.9-0.1
		c15.6-0.4,31.2,0,46.8,0.8c6.1,0.3,12.3,0.7,18.4,1c3.1,0.2,4.2,1,4.5,4.1c0.3,3,0.6,6.1,0.2,9.1c-0.9,7-4.7,12.1-10.7,15.6
		c-5.8,3.4-12.3,4.5-18.9,4.7C244.2,570.2,242.9,570.2,241.2,570.2z M206.7,542.2c0.4,3.3,1.9,5.8,3.9,8.1c2.5,2.8,5.6,5,9,6.7
		c9.4,4.7,19.5,6.6,30,5.7c3.2-0.3,6.3-1,9.2-2.4c2.4-1.1,4.6-2.6,6.2-4.7c2.6-3.4,3.4-7.2,2.9-11.6
		C247.4,542.5,227.2,541.7,206.7,542.2z M270.4,72.6c-10.6-0.3-21.1-0.6-31.6-0.9c0,0.7-0.1,1.2,0,1.6c1.1,4.8,2.8,9.3,5.9,13.2
		c2.4,3,5.3,5.4,8.9,6.7c7,2.5,13.3-0.5,15.9-7.4C271.1,81.7,271.3,77.3,270.4,72.6z"/>
	<path d="M634.5,377.1c1.4,0.1,2.7,0.1,4.1,0.3c3.5,0.4,5.7,2.4,6.4,5.9c1.2,6.4,1.2,12.9-0.3,19.3c-1.6,6.9-3.5,13.8-5.2,20.7
		c-2.2,8.5-3.1,17.1-2.3,25.9c1.1,11.5,2.2,22.9,3.4,34.4c1,10.3,2.1,20.7,1.1,31.1c-0.8,9.1-3.3,17.7-7.3,25.9
		c-1.4,2.8-3.4,5-6.9,5.3c-2.7,0.2-4.9-0.6-6.6-2.7c-0.8-0.9-1.5-1.9-2.5-2.6c-3.2-2.6-6.9-2.5-10,0.2c-1.1,0.9-2,2.1-2.7,3.3
		c-4,6.1-8,12.3-12,18.5c-4.6,7.2-10,13.5-17.2,18.1c-4.8,3-9.9,4.9-15.6,4.5c-7.8-0.6-13.8-3.9-16.7-11.5
		c-2.1-5.6-1.3-10.7,2.5-15.3c1.7-2,3.6-3.9,5.5-5.7c2.1-2,4.4-4,6.6-5.9c11.4-10.2,17.4-23.1,18.2-38.4c0.4-7.7,0.9-15.3,1.5-23
		c0.7-7.8,3.5-15.1,7-22c3.9-7.7,7.8-15.4,11.7-23.1c3.7-7.2,5.4-14.8,6.2-22.8c0.5-5.3,0.9-10.7,1.6-16c0.8-6.9,4.3-12.3,9.4-16.8
		C619.9,379.7,626.7,377.1,634.5,377.1z M630.7,393c-1.2,0.3-2.1,0.4-2.8,0.7c-4.5,1.8-7.6,5.1-8.5,10c-0.9,4.8-1.5,9.6-1.9,14.5
		c-0.9,10.1-3,19.9-7.8,29c-1.2,2.3-2.4,4.7-3.5,7.1c-3.3,6.9-6.7,13.8-10,20.7c-1.9,4.2-3.1,8.6-3.3,13.2
		c-0.4,7.3-0.9,14.5-1.3,21.8c-1,17.2-7.2,32.2-19.6,44.3c-3.6,3.5-7.4,6.9-11.1,10.3c-1.1,1-1.9,2.1-2,3.5c3.1,2.2,5.9,1.4,8.8-0.3
		c3.3-1.9,6-4.4,8.2-7.6c3.4-5,6.7-10,10.1-14.9c2.4-3.6,4.8-7.2,7.3-10.7c3.4-4.7,7.7-8.3,13.4-10.1c4.4-1.4,8.8-1.1,13.3-0.5
		c1.3,0.2,2.6,0.2,4.1,0.4c0.4-1.4,0.7-2.6,1-3.7c2.1-8.6,2.4-17.2,1.3-26c-1.7-14-3.4-28.1-4.9-42.2c-0.8-7.7-0.7-15.3,1-22.9
		c2.2-9.8,4.5-19.6,6.7-29.4C629.8,397.9,630.2,395.7,630.7,393z"/>
	<path d="M659.5,552.3c0.5-2.4,0.7-4.9,1.6-7.2c3.3-8.5,3.9-17.3,2.2-26.2c-1.6-8.4-3.8-16.7-5.6-25c-2.5-12-5.2-23.9-7.3-35.9
		c-2.5-14.1-2.8-28.3-1.8-42.6c0.9-12.4,2-24.9,3.1-37.3c0.5-5.3,1-10.7,1.9-16c0.7-4.5,2.9-8.4,5.8-11.9c2.6-3.2,5.9-4.3,9.9-3.3
		c11.7,2.8,23.3,5.6,35,8.4c4,1,6.4,3.4,7.1,7.5c0.2,0.9,0.2,1.9,0.4,2.9c0.3,1.7,0.6,3.4,0.8,5.2c0.1,0.6,0,1.3-0.2,1.9
		c-2.2,10-4.4,20-6.7,30c-0.8,3.4-0.5,6.6,0.4,9.9c0.5,1.8,1.4,3,3.1,3.7c3.4,1.3,5,3.7,5.6,7.4c2.1,14.6,4.5,29.2,6.5,43.9
		c1.4,9.8,2.2,19.7,3.4,29.5c0.3,2.6,1.2,5.1,1.8,7.7c0.3,1.2,0.9,2.4,1,3.7c0.5,4.3-1.4,7.1-5.6,8.2c-1,0.3-2,0.4-3.1,0.5
		c-2.8,0.2-5.6,0.3-8.4,0.4c-1.9,0.1-3.2,0.8-3.9,2.6c-4,10.6-10.7,19.4-19,27c-4.4,4.1-9,8-13.5,11.8c-1.2,1-2.7,1.8-4.1,2.3
		c-5,1.8-9.5-1.1-10.1-6.3c-0.1-0.9,0-1.8,0-2.6C659.7,552.3,659.6,552.3,659.5,552.3z M680.6,532c0.2,0,0.3,0.1,0.5,0.1
		c1.7-1.7,3.4-3.4,4.5-5.5c2.7-5.2,5.4-10.3,8-15.6c2.3-4.8,5.9-7.9,11.3-8.4c0.6-0.1,1.1-0.2,1.6-0.3c2.6-0.5,2.9-0.7,2.7-3.3
		c-0.7-7.7-1.4-15.4-2.3-23.1c-0.9-8.2-2.1-16.3-3.1-24.5c-1.1-9.2-3.6-17.8-8.9-25.5c-4.5-6.6-6.2-14.2-5.1-22.2
		c0.6-4.5,1.8-8.9,2.8-13.4c1.3-5.8,2.8-11.7,4-17.5c0.5-2.3,0-2.8-2.2-3.4c-2.5-0.6-5-1.2-7.4-1.8c-4.6-1.1-9.1-2.3-13.7-3.4
		c-3.9-0.9-4.9-0.2-5.5,3.7c0,0.1,0,0.2,0,0.2c-0.5,4.6-1.1,9.2-1.5,13.8c-0.8,9.6-1.8,19.3-2.2,28.9c-0.3,7.9-0.1,15.8,0,23.7
		c0.1,7.7,0.5,15.4,2,22.9c3.2,15.9,6.4,31.8,9.6,47.7c1.4,7,2.9,13.9,4.3,20.9C680.5,528,680.5,530,680.6,532z"/>
	<path d="M509.1,546.1c0.3-6.5,1.8-12.7,3.5-18.9c1.3-4.8,2.7-9.5,4.2-14.3c2.4-8,3.4-16.2,3.4-24.6c0-4.8,0.1-9.6,0.3-14.4
		c0.3-4.8,1.7-9.3,3.9-13.5c2.3-4.5,5.1-8.7,8.4-12.5c0.6-0.7,1.3-1.4,2-2c3.8-2.9,8.7-1.9,11,2.4c0.1,0.2,0.2,0.4,0.3,0.6
		c3.7,9.6,7.9,19.1,10.5,29.1c2.1,8.1,3.4,16.3,4,24.6c0.2,2.2-0.2,4.5-0.4,6.7c-0.4,3.3-0.9,6.7-1.3,10c-0.5,3.3-1.8,6.2-4.5,8.2
		c-2,1.4-2.5,3.3-2.8,5.5c-0.5,4-0.8,8-1.9,11.8c-2.9,10.3-9,18.1-19.1,22.3c-2.4,1-5,1.5-7.6,2c-2.8,0.5-5.2-0.4-7.3-2.2
		c-2.5-2.2-4.1-4.9-4.7-8.2C510.2,554.5,509.7,550.3,509.1,546.1z M525.6,552.4c0.5-0.2,0.8-0.3,1.1-0.4c4.4-2.8,7.3-6.7,8.3-11.8
		c0.5-2.7,0.8-5.4,1-8.1c0.4-5.9,1.8-11.3,6.5-15.5c0.8-0.7,1.4-2,1.6-3.1c0.5-2.5,0.8-5.1,0.9-7.6c0.6-12.2-2-23.8-7.1-34.9
		c-0.1-0.3-0.4-0.5-1-1.1c-0.3,1.5-0.7,2.7-0.7,3.9c-0.3,4.2-0.6,8.5-0.7,12.7c-0.2,11.2-1.5,22.3-4.6,33.1
		c-2.1,7.1-3.7,14.4-5.5,21.6C524.4,544.8,524.6,548.5,525.6,552.4z"/>
	<path d="M414.6,762.5c-0.4,3.7-0.8,7.5-1.3,11.2c-0.8,5-0.1,9.7,2.3,14.2c2.3,4.2,4.4,8.5,6.5,12.8c2.7,5.6,2.8,11.2,0.2,16.9
		c-2.1,4.4-5.5,7.2-10.4,8c-9.7,1.6-19.4,3.1-29.1,4.9c-4.4,0.8-8.5-0.1-12.4-1.6c-4.1-1.6-8-3.6-12-5.5c-0.8-0.4-1.5-0.9-2.2-1.4
		c-3.7-2.8-5-6.5-3.6-11c0.6-1.9,1.4-3.7,2.2-5.6c4.2-9.5,8.5-19,12.8-28.4c0.6-1.4,1.6-2.6,2.5-3.8c0.8-1,1.7-1.9,2.5-2.9
		c1.2-1.4,1.7-3,1.6-4.9c-0.3-9.9,3.6-18.2,10-25.4c2-2.2,4.2-3,7.1-2.1c4.7,1.5,9.3,3.4,13.3,6.5c4.9,3.8,8.5,8.5,9.6,14.7
		c0.1,0.5,0.2,0.9,0.2,1.4c0,0.7,0,1.4,0,2.2C414.5,762.5,414.5,762.5,414.6,762.5z M368.7,811c2.4,1.1,4.4,2.1,6.6,3
		c2.6,1.1,5.3,1.5,8.2,1c7-1.2,14-2.2,21.1-3.4c4.3-0.7,5.1-2.2,3.1-6.1c-1.7-3.4-3.3-6.7-5.2-10c-4.3-7.7-5.9-15.8-4-24.5
		c0.5-2.5,0.8-5.1,0.7-7.6c-0.1-3.5-2-6.2-5.3-7.7c-1.4-0.7-2-0.4-2.5,1.1c-0.2,0.4-0.3,0.9-0.4,1.4c-1.1,4-1.7,8.1-1.4,12.3
		c0.2,2.7-0.3,5.3-2.1,7.4c-0.9,1.1-2,2.1-3.1,3c-2.5,2.2-4.7,4.6-6.1,7.6c-2.1,4.5-4,9.1-6,13.6C371.2,805.1,370,807.9,368.7,811z"
		/>
	<path d="M539.2,425.2c0-4.3,1.3-8.2,3.8-11.7c0.5-0.7,1-1.3,1.4-1.9c1.3-1.9,1.7-4.1,0.5-6.1c-3.5-5.7-4.3-12.1-5-18.6
		c-1-9.8-0.8-19.5,0.9-29.2c0.2-1.2,0.6-2.5,1.1-3.6c1.7-3.5,5.1-5,8.8-3.7c1.6,0.5,3,1.4,4.4,2.4c3.2,2.3,5.7,5.3,8,8.6
		c2.8,4.2,5.6,8.4,8.2,12.7c2.8,4.5,6.3,8.2,10.9,10.9c7.5,4.5,10.1,11.6,10,20c0,3.3-0.9,6.5-2,9.6c-3.4,9.6-8.3,18.1-15.9,25
		c-3.6,3.3-7.7,5.6-12.7,6.2c-3.9,0.5-7.5-0.1-10.9-1.9C543.3,439.8,539.5,433.5,539.2,425.2z M555.5,377.4
		c-0.3,0.4-0.5,0.5-0.5,0.7c-0.1,0.3-0.1,0.6-0.1,0.9c0.2,7.8,1.4,15.4,4.6,22.6c2.8,6.4,2,12.5-2.1,18.1c-0.7,1-1.5,2.1-2.1,3.2
		c-1.4,2.6-1,4.5,1.1,6.4c2,1.8,3.9,1.8,6.3,0.1c0.6-0.4,1.1-0.9,1.6-1.4c6.6-6.5,10.7-14.5,12.5-23.5c0.6-3.1-0.2-5.1-3-6.7
		c-6.8-3.8-11.8-9.4-15.7-16.1C557.5,380.3,556.5,378.9,555.5,377.4z"/>
	<path d="M207.9,515.2c3.1,1.4,6.1,1.6,9,1.9c12.2,1.1,24.4,0.8,36.7,0.5c6.6-0.2,13.1-0.5,19.6-0.8c0.5,0,1-0.1,1.4,0
		c2.1,0.2,3.4,1.7,3.5,3.6c0,1.9-1.1,3.2-3.2,3.6c-0.5,0.1-1.1,0.1-1.7,0.2c-17.3,0.7-34.5,1.6-51.8,0.6c-4.1-0.2-8.1-0.8-12.1-1.5
		c-1.9-0.3-3.7-1-5.4-1.8c-4.7-2.4-5.4-7.4-1.7-11.1c2-1.9,4.3-3.3,6.9-4.2c8.9-3,17.9-5.9,26.9-8.7c2.9-0.9,5.8-1.6,8.8-2.4
		c0.4-0.1,0.9-0.3,1.3-0.8c-0.7,0-1.3-0.1-2-0.1c-13.2-0.2-26.4-0.5-39.6-0.7c-0.8,0-1.6,0-2.4-0.2c-1.6-0.3-2.7-1.6-2.8-3.2
		c-0.1-1.7,0.8-3.2,2.4-3.7c0.7-0.2,1.4-0.3,2.1-0.3c12,0.2,24,0.2,36,0.6c10,0.3,20,0.8,29.9,1.3c1,0,2.1,0.1,3.1,0.3
		c2.1,0.4,3.3,1.8,3.4,3.5c0,1.8-1,3.1-3.2,3.6c-5.3,1.4-10.7,2.6-16,4.1c-13.7,3.7-27.5,7.2-40.9,12c-2.3,0.8-4.6,1.8-6.9,2.8
		C209,514.3,208.6,514.7,207.9,515.2z"/>
	<path d="M221.3,468.7c0-8,0-15.7,0-23.6c-1.9-0.3-3.9-0.7-5.9-0.9c-4.3-0.4-8.6-0.9-12.9-1c-2.2-0.1-3.9-1.6-4-3.6
		c-0.1-1.7,1.7-3.9,4.2-3.7c4.5,0.4,8.9,0.6,13.4,1.1c10.6,1.4,21.2,3,31.6,5.7c5.4,1.4,10.8,3,16,4.9c2.5,0.9,4.9,2.4,7.3,3.7
		c0.9,0.5,1.7,1.2,2.4,1.9c3.2,3.3,3.3,7.2-0.1,10.3c-1.7,1.5-3.7,2.9-5.8,3.6c-4.6,1.7-9.4,3.2-14.2,4.3
		c-15.7,3.6-31.7,5.3-47.8,5.1c-1,0-1.9,0-2.9-0.1c-2.6-0.2-4.2-1.6-4.1-3.7c0.1-2.2,1.8-3.5,4.5-3.5c3.6,0,7.2,0,10.8-0.1
		C216.3,469.1,218.7,468.9,221.3,468.7z M268.4,458.4c-1.4-0.9-2.3-1.7-3.3-2.2c-2.4-1.1-4.8-2.2-7.3-3c-8.2-2.8-16.6-4.7-25.1-6.2
		c-1.2-0.2-2.5-0.4-3.9-0.6c0,7.4,0,14.4,0,21.5c0.4,0,0.6,0.1,0.9,0.1c6.9-1.1,13.9-2.1,20.8-3.5c4.6-0.9,9.1-2.4,13.6-3.8
		C265.5,460.3,266.7,459.4,268.4,458.4z"/>
	<path d="M227.7,137.9c0-6.6,0-12.8,0-19.2c-1.2-0.1-2.2-0.2-3.2-0.2c-6.7,0.1-13.4,0.1-20.2,0.2c-0.6,0-1.3,0.1-1.9,0
		c-2-0.1-3.4-1.6-3.5-3.6c0-1.8,1.3-3.4,3.2-3.6c0.4-0.1,0.8-0.1,1.2-0.1c14.7-0.6,29.4-0.3,44.1,0.4c8.8,0.4,17.6,1,26.3,1.5
		c0.6,0,1.1,0.1,1.7,0.2c1.6,0.5,2.7,1.9,2.6,3.6c-0.1,1.8-1.3,3.3-3.1,3.5c-1,0.1-2.1,0-3.1-0.1c-11.4-0.6-22.8-1.2-34.3-1.7
		c-0.8,0-1.6,0-2.3,0c0,6.5,0,12.8,0,19.2c1.7,0.1,3.2,0.2,4.7,0.3c11.3,0.5,22.5,1.1,33.8,1.6c0.9,0,1.8,0.1,2.6,0.3
		c2,0.5,2.9,1.9,2.7,3.9c-0.2,1.8-1.4,3.1-3.3,3.2c-0.8,0.1-1.6-0.1-2.4-0.1c-10.7-0.5-21.4-1.1-32.1-1.6
		c-12.2-0.5-24.5-0.7-36.7-0.1c-0.5,0-1,0-1.4,0c-1.8-0.3-3.1-1.6-3.1-3.4c-0.1-1.8,1.2-3.5,3-3.7c1.8-0.2,3.7-0.3,5.5-0.3
		c5.4-0.1,10.9-0.1,16.3-0.1C225.8,137.9,226.7,137.9,227.7,137.9z"/>
	<path d="M236.4,201.5c6.7,0.3,15.4,0.7,24.1,1.1c3.4,0.2,6.7,0.4,10.1,0.6c2.7,0.2,3.8,1.2,4.3,3.9c0.6,3.4,0.7,6.8,0.1,10.3
		c-1.1,6.2-4.5,10.8-9.8,14.2c-5.3,3.3-11.2,4.7-17.3,5.1c-11.1,0.6-21.6-1.6-31.5-6.6c-4.6-2.3-8.8-5.3-12.1-9.3
		c-3.5-4.3-5.4-9.2-4.9-14.9c0.3-3,1.3-4.3,4.3-4.3C213.9,201.5,224.2,201.5,236.4,201.5z M206.8,209.1c0.5,3.6,2.4,6.4,4.9,8.8
		c2.5,2.4,5.3,4.3,8.4,5.8c8.2,4,16.9,5.9,26,5.6c4.5-0.1,8.9-0.8,13-2.8c5-2.4,8.1-6.1,8.8-11.7c0.2-1.5,0.4-3-0.2-4.4
		C255.9,209,210.8,207.9,206.8,209.1z"/>
	<path d="M243.2,191.8c-7.7,0.1-15.5-0.3-23-1.6c-4-0.7-7.9-1.9-11.5-4c-2.4-1.4-4.6-3.2-6.2-5.6c-3.4-5-2.9-10.9,1.3-15.4
		c2.4-2.6,5.4-4.1,8.7-5.3c5.2-1.8,10.6-2.4,16-2.7c7.7-0.5,15.5-0.6,23.2,0.4c4.9,0.6,9.6,1.5,14.2,3.3c3.3,1.3,6.3,3.1,8.8,5.6
		c6.6,6.7,5.6,15.2-2.3,20.3c-4.2,2.7-8.9,3.9-13.8,4.3C253.7,191.5,248.5,191.8,243.2,191.8z M241,184.6c6.7,0,13.4-0.5,19.9-1.1
		c3.1-0.3,6.1-1.4,8.6-3.3c2.9-2.2,3.2-4.8,0.9-7.6c-1.9-2.4-4.5-3.8-7.3-4.9c-4.1-1.6-8.5-2.4-12.8-2.8c-9.6-1-19.2-0.8-28.7,0.5
		c-4.1,0.6-8,1.5-11.4,4.1c-3.1,2.4-3.4,5.4-0.6,8.2c1,1,2.2,2,3.4,2.6c2.1,1,4.2,1.9,6.5,2.4C226.4,184.1,233.7,184.6,241,184.6z"
		/>
	<path d="M260.8,387.2c-1.7-0.2-3.5-0.3-5.2-0.6c-2.3-0.4-3.6-2.2-3.2-4.2c0.3-1.9,2-3.1,4.3-3c1.9,0.1,3.8,0.5,5.7,0.4
		c1.6-0.1,3.3-0.5,4.9-1.1c2.3-0.9,3.4-2.8,3.3-5.3c-0.1-3.1-1.4-5.6-4.2-7.1c-5.9-3.2-15.5-4.7-22,2.6c-1.5,1.7-3,3.6-4.4,5.4
		c-1,1.3-2,2.7-3,4c-3.6,4.7-8.3,7.1-14.2,7.4c-3.8,0.2-7.7,0.3-11.4-1c-4.2-1.5-7.7-3.9-9.9-7.8c-4.1-6.9-2.2-15,4.6-19.3
		c4.8-3,10.1-3.8,15.7-3.3c2,0.2,4,0.6,5.8,1.4c1.5,0.6,2.9,1.7,4,2.9c1.3,1.3,1.2,3.3,0.1,4.6c-1.1,1.3-3.3,1.8-4.8,0.7
		c-4.7-3.5-9.7-2.6-14.6-1.1c-2.8,0.9-5,2.6-5.4,5.8c-0.4,3.3,1.2,5.7,3.7,7.6c0.9,0.6,1.9,1.2,3,1.6c4.3,1.5,8.7,1.4,12.9-0.1
		c1.5-0.5,2.9-1.7,4-2.8c1.4-1.4,2.4-3.2,3.7-4.7c2.2-2.6,4.3-5.4,6.8-7.7c5-4.9,11.3-6.4,18.1-5.7c3.4,0.4,6.8,1.2,9.9,2.8
		c5.9,3,9,7.8,8.9,14.4c0,5.5-3,9.8-8.1,12C266.8,386.8,263.8,387.1,260.8,387.2z"/>
	<path d="M268.5,254.9c-10.2-0.4-20-0.7-30-1.1c0,1.1,0,1.7,0,2.4c0.1,2.9,0.2,5.8,0.2,8.6c0,0.9-0.2,1.9-0.6,2.7
		c-0.7,1.3-2,1.8-3.4,1.7c-1.5-0.2-2.6-1-3-2.4c-0.3-1-0.3-2-0.3-3.1c-0.1-3.3-0.1-6.5-0.2-10c-8.2,0-16.2,0-24.5,0
		c0,1.1,0,2.1,0,3.1c0,5.2,0.1,10.4,0.1,15.6c0,0.6,0,1.1,0,1.7c-0.2,1.9-1.3,3.2-3.1,3.4c-1.9,0.2-3.5-0.9-4-2.7
		c-0.2-0.6-0.2-1.3-0.2-1.9c-0.1-7.3-0.1-14.6-0.2-21.8c0-3.4,1.2-4.7,4.6-4.7c18.1-0.2,36.1-0.1,54.2,0.8c4.3,0.2,8.6,0.4,12.9,0.7
		c3.2,0.2,4.5,1.3,4.6,4.6c0.1,7.6,0.1,15.2,0.1,22.8c0,2.4-1.5,3.9-3.6,3.9c-2.1,0-3.7-1.9-3.6-4c0.1-5.1,0-10.2,0-15.4
		C268.5,258.3,268.5,256.8,268.5,254.9z"/>
	<path d="M271,329c0-1,0.1-1.8,0.1-2.7c0.2-2.3,1.4-3.7,3.6-3.7c2.2,0,3.6,1.2,3.7,3.5c0.2,5,0.2,9.9,0.2,14.9
		c0,2.2-1.6,3.7-3.7,3.7c-2,0-3.5-1.5-3.7-3.7c-0.1-1.4,0-2.7,0-4.4c-21.3-1.6-42.5-2.3-64.1-1.8c0,1.6,0.1,3.1,0,4.6
		c-0.2,2.6-2.3,4.1-4.7,3.4c-1.5-0.4-2.5-1.6-2.5-3.4c-0.1-2.6-0.1-5.3-0.1-7.9c0-2.7,0-5.4-0.1-8.2c-0.1-2.8,1.7-4.2,3.5-4.3
		c2.3-0.1,3.8,1.5,3.8,4.2c0,1.3,0,2.6,0,4c0.6,0.1,1.2,0.2,1.7,0.2c20-0.5,40,0.5,59.9,1.6C269.4,329,270.1,329,271,329z"/>
	<path d="M206.7,404.2c0,2.6,0,5,0,7.4c0.1,3.4,0.2,6.9,0.2,10.3c0,0.9-0.1,1.8-0.4,2.6c-0.5,1.4-1.9,2.3-3.3,2.3
		c-1.5,0-2.8-0.9-3.3-2.3c-0.2-0.7-0.3-1.6-0.3-2.4c-0.2-6.6-0.3-13.3-0.5-19.9c0-0.4,0-0.8,0-1.2c0-2.4,1-3.5,3.4-3.8
		c2.1-0.2,4.1-0.4,6.2-0.5c17.4-0.3,34.9,0.1,52.3,1.3c3.6,0.2,7.2,0.4,10.8,0.6c0.8,0.1,1.6,0.1,2.4,0.3c2,0.6,2.9,2,2.6,4
		c-0.2,1.8-1.4,2.9-3.4,3.1c-0.6,0-1.1,0-1.7-0.1c-19.2-1.1-38.3-2.1-57.5-2c-1.8,0-3.5,0-5.3,0.1
		C208.1,404,207.4,404.1,206.7,404.2z"/>
</g>
</svg>
