<?xml version="1.0" encoding="utf-8"?>
<!-- Generator: Adobe Illustrator 23.0.4, SVG Export Plug-In . SVG Version: 6.00 Build 0)  -->
<svg version="1.1" id="Layer_1" xmlns="http://www.w3.org/2000/svg" xmlns:xlink="http://www.w3.org/1999/xlink" x="0px" y="0px"
	 viewBox="0 0 864 864" style="enable-background:new 0 0 864 864;" xml:space="preserve">
<g>
	<path d="M535.8,691.8c0,2,0,4,0,6c-0.2,7.7-2.7,14.7-8.1,20.2c-6.6,6.7-14.6,9.3-23.9,6.6c-3.8-1.1-7.5-2.3-11.2-3.4
		c-1.1-0.3-2.2-0.5-3.3-0.5c-1.8-0.1-2.8,1-2.3,2.7c0.5,2.1,1.3,4.1,2.2,6.1c0.7,1.6,1.8,3,2.7,4.5c2.9,4.5,1.6,9.1-3.2,11.3
		c-3.1,1.4-5.4,3.6-7.2,6.5c-1.2,1.8-2.3,3.7-3.4,5.5c-3.8,6.5-9.3,11.1-16,14.3c-4.8,2.3-9.6,4.3-14.4,6.6c-4.6,2.2-9,2.1-13.6,0
		c-8.9-4.2-16.1-10.3-21.8-18.2c-3.6-4.9-7.3-9.7-11-14.6c-0.2-0.3-0.5-0.6-0.9-1c-0.8,0.5-1.5,1-2.2,1.5c-3.4,2.6-6.8,5.3-10.3,7.9
		c-0.8,0.6-1.6,1.1-2.5,1.4c-1.6,0.6-3.2,0-4-1.3c-0.8-1.4-0.7-3.3,0.6-4.4c3-2.6,6.1-5.1,9.3-7.6c1.3-1,2.7-1.9,4.4-3.1
		c-4.2-5.6-8.2-11.1-12.4-16.8c-1.5,0.8-2.9,1.5-4.2,2.3c-3.3,2-6.5,4-9.8,6c-0.7,0.4-1.6,0.8-2.4,0.9c-1.5,0.2-2.9-0.6-3.3-1.8
		c-0.5-1.3-0.5-2.7,0.6-3.8c0.7-0.7,1.4-1.3,2.2-1.8c14.8-9.2,30.2-17.1,46.7-22.7c3.3-1.1,6.6-1.8,10.1-1.8c0.8,0,1.6,0,2.4,0.2
		c4,0.6,6.4,3.8,5.4,7.8c-0.5,2.1-1.5,4.2-2.5,6.2c-2.5,4.7-6,8.6-9.7,12.5c-3.6,3.8-7.2,7.5-10.8,11.2c-0.7,0.7-1.4,1.5-2.2,2.4
		c0.3,0.4,0.5,0.8,0.8,1.1c7.8,8.7,16.6,15.9,27.1,21c3.7,1.8,7,2.2,10.7,0.4c3.2-1.5,6.6-2.7,10-4.1c4.1-1.6,7.5-4.3,10-7.9
		c1.4-2,2.7-4.2,4.1-6.2c1.8-2.5,3.5-5,5.5-7.3c1-1.1,1.1-2.1,0.6-3.4c-0.9-2.7-1.7-5.3-2.3-8.1c-2.1-9.5,4.1-18.3,13.6-19.9
		c3.5-0.6,6.9,0,10.2,0.8c3.8,1,7.5,2.3,11.3,3.3c4.3,1.1,8.6-0.6,11-4.4c1.8-2.8,2.8-5.9,2.7-9.3c-0.1-2.7-0.3-5.4-0.5-8.1
		c-0.1-1.9-0.3-3.8-0.2-5.7c0.1-4.9,3.8-7.8,8.5-6.8c3.2,0.7,6.3,1.2,9.5,0.2c1.6-0.5,3.2-1.1,4.6-2c3.1-1.9,6.1-3.9,8.9-6
		c10.3-7.8,21.4-13.9,33.9-17.6c5.2-1.5,10.1-3.7,14.7-6.4c6.3-3.7,10.8-8.9,13-16c0.2-0.6,0.4-1.2,0.6-1.8
		c2.1-6.9,6.7-11.2,13.4-13.2c11.2-3.4,20.5-10,29.1-17.7c2.4-2.1,3.6-4.8,4-7.9c1-9.3,6-15.5,14.8-18.5c1.4-0.5,2.9-0.9,4.4-1.3
		c3.4-0.9,6.8-1.2,10.2-1c2.8,0.1,4.9-0.8,6.8-2.9c9.8-10.5,20.8-19.4,33-26.9c1.3-0.8,2.5-1.7,3.8-2.6c1.6-1.2,2.2-2.7,1.7-4.6
		c-0.3-1.1-0.6-2.3-0.8-3.5c-1.1-5.7,1.2-10.7,6.4-13.1c4.5-2,6.9-5.3,8.2-10c3.9-15,10.7-28.5,20.3-40.7
		c10.6-13.4,21.2-26.8,31.8-40.4c8.6-11,19.6-18.5,32.7-23c1-0.4,2.1-0.8,3.4-1.3c-0.6-0.8-1-1.5-1.6-2
		c-9.9-10.6-19.9-21.3-29.8-31.9c-18-19.3-36.1-38.5-54.1-57.8c-15.6-16.6-31.2-33.2-46.8-49.8c-14.3-15.3-28.7-30.5-43-45.9
		c-2.5-2.7-5.2-3.9-8.8-3.9c-61.4,0.1-122.9,0.1-184.3,0.1c-1.4,0-2.9-0.1-4.3-0.5c-2.7-0.7-4.5-2.6-4.6-5.4c-0.1-3,0.1-6.1,0.2-9.1
		c0.3-4.8,0.7-9.6,1-14.4c0.2-2.8-0.5-5.4-2.3-7.6c-5.9-7.3-11.8-14.5-17.8-22c-2.5,1.3-4.9,2.6-7.5,4c0.1,0.9,0.2,1.7,0.3,2.6
		c0.5,4.8-2.3,8.2-7.1,8.8c-4.4,0.5-8-1.2-10.9-4.4c-3.4-3.7-4.4-8.1-3.5-12.9c0.3-1.9,0.9-3.7,1.5-5.6c0.6-1.7,0.9-3.4,0-5.4
		c-1.2,0-2.5-0.1-3.8-0.1c-14.1-0.6-28.1-1-42.2-1.8c-13.1-0.7-26.2-1.6-39.2-2.6c-11.3-0.8-22.6-1.8-33.9-2.7
		c-9.5-0.7-19-1.4-28.5-1.9c-10.6-0.6-21.2-1.1-31.9-1.6c-6.9-0.3-13.7-0.3-20.6-0.5c-1.5,0-2.9,0.3-4.1,1.2
		c-3.9,3.1-8.3,3.4-13,2.2c-0.6-0.2-1.3-0.3-1.8-0.5c-4.5-2-8.8-1.5-13.2,0.3c-13.5,5.3-27.1,10.5-40.7,15.7
		c-9.1,3.5-18.5,6-28.2,7.3c-3.6,0.5-7.3,0.6-11,1c-9,0.9-16.6,4.8-23.3,10.8c-2,1.8-4.1,3.3-6.1,5.1c-3,2.6-6.2,5-9.1,7.8
		c-8.9,8.7-18,17.3-26.2,26.7c-3.2,3.7-6.4,7.4-9.4,11.2c-1.4,1.7-2.4,3.8-3.3,5.8c-1,2.4-0.2,4.4,2.1,5.7c0.9,0.5,1.8,1,2.8,1.3
		c9.2,2.9,17,8.1,23.8,14.8c4.7,4.6,9.1,9.7,13.6,14.5c2.5,2.6,5.2,5,8.3,6.8c9.2,5.1,20.4,3.6,27.9-3.8c1.8-1.8,3.5-3.7,5.3-5.6
		c2.7-2.8,5.8-3.9,9.6-2.7c3.7,1.3,5.7,4,6.3,7.8c0.2,1,0.1,2.1-0.1,3.1c-1,3.4-2,6.9-3.3,10.2c-2,4.9-4.4,9.6-6.6,14.4
		c-0.4,0.8-0.6,1.6-1,2.7c1.1-0.1,1.9-0.2,2.7-0.4c5.4-0.8,9.3,1.6,12.2,5.9c2.7,4.1,2.9,8.4,0.4,12.7c-2.3,4-5.9,6.7-10,8.6
		c-1.8,0.9-3.7,0.2-4.6-1.3c-0.9-1.6-0.5-3.5,1.1-4.7c1.4-1,3-1.9,4.4-3c1.1-0.8,2.1-1.8,2.8-2.9c2.2-3.2,0.3-7.4-3.5-8.1
		c-8.1-1.5-17.1,4.5-17.5,13.5c-0.1,3.7-0.4,7.3-0.4,11c0,4.3-1.7,7.9-4.8,10.9c-3.6,3.6-7.6,6.5-12.7,7.3
		c-5.8,0.9-10.8-0.4-14.6-5.1c-2.5-3-3.2-6.6-2.2-10.4c2.3-8.3,7.9-13.3,16.2-15.3c1.2-0.3,2.5,0,3.8,0.3c1.5,0.4,2.3,1.5,2.4,2.9
		c0.1,1.5-0.8,2.8-2.2,3.4c-0.6,0.2-1.2,0.3-1.9,0.4c-5,0.6-9.9,4.6-11.4,9.5c-0.8,2.6,0.2,5.1,2.7,6.5c2.3,1.3,4.7,1.4,7.2,0.6
		c3.7-1.2,6.6-3.5,8.9-6.6c1.2-1.6,1.6-3.4,1.6-5.4c0.1-4,0.2-8,0.5-12c0.3-4.2,2-7.8,4.7-11.1c1.8-2.1,3.5-4.4,5.1-6.7
		c2.6-3.7,3.9-8,4.6-12.5c0.2-1.5,0.4-3,0.5-4.5c0-0.5-0.3-1.1-0.7-1.4c-0.2-0.2-0.9,0.1-1.3,0.4c-1.6,1.3-3.2,2.6-4.7,4.1
		c-3.9,3.6-8.4,5.2-13.8,5.1c-6.9-0.1-13.5-1.1-19.6-4.5c-4.3-2.4-7.8-5.6-11.1-9c-4.2-4.5-8.4-9-12.7-13.4
		c-5.6-5.6-12.1-10-19.5-12.9c-1.9-0.8-3.9-1.5-5.7-2.4c-7.1-3.4-10.6-9.7-10.4-17.7c0.1-5,1.8-9.3,4.6-13.4
		c5.2-7.4,11.1-14.2,17.5-20.7c8.7-8.8,17.5-17.6,26.3-26.3c1.3-1.3,2.9-2.3,4.3-3.4c2.4-1.8,5-3.4,7.3-5.4
		c7.2-6.6,15.5-11.3,25.1-13.2c2.8-0.6,5.7-0.9,8.6-1.1c12.5-0.9,24.4-4,36-8.5c11.8-4.7,23.6-9.3,35.5-13.8c3.6-1.4,7.3-2.3,11-3.2
		c4-0.9,8-0.3,11.8,1c1.8,0.6,3.3,0.6,4.8-0.8c1.9-1.7,4.3-2,6.8-1.9c5.8,0.2,11.7,0.3,17.5,0.5c8.3,0.3,16.6,0.4,24.9,0.8
		c9.4,0.4,18.8,1.1,28.2,1.7c9.5,0.6,19,1.3,28.5,2c9.2,0.7,18.3,1.4,27.5,2.1c7.8,0.6,15.6,1.3,23.4,1.7
		c10.9,0.6,21.9,1.1,32.8,1.5c8.9,0.3,17.7,0.6,26.6,0.7c4.3,0.1,7.3,1.9,9.3,5.6c1.3,2.4,2.2,5,2.3,7.7c0,0.9,0.2,1.9,0.3,3.1
		c1.3-0.7,2.3-1.3,3.4-1.8c1.3-0.7,2.5-1.5,3.8-2.1c4-1.7,7.7-1.2,10.8,1.9c1.4,1.3,2.7,2.7,3.9,4.2c5.6,6.8,11,13.7,16.9,20.3
		c4.8,5.3,7,11.3,6.6,18.4c-0.2,4.1-0.3,8.1-0.5,12.2c0,0.8-0.1,1.6-0.2,2.7c1.2,0.1,2.2,0.3,3.3,0.3c6.4,0,12.8,0,19.2,0
		c53.4,0,106.7,0,160.1,0c1,0,2.1,0,3.1-0.1c2.6-0.3,4.7,0.6,6.5,2.4c3.2,3.3,6.5,6.7,9.6,10c15.2,16.1,30.3,32.3,45.5,48.4
		c16.3,17.4,32.5,34.9,48.7,52.3c17.8,19.1,35.7,38.2,53.6,57.3c9.4,10,18.8,20,28.3,30c1.4,1.5,2.9,2.9,4.5,4.4
		c1.9,1.8,2.7,4.1,2.6,6.7c-0.2,3.1-1.5,4.9-4.5,5.7c-2.8,0.7-5.6,1.3-8.4,2c-8.7,2-16.9,5-23.9,10.5c-2.6,2.1-5.2,4.3-7.4,6.8
		c-13.4,15.8-26.5,31.8-38.5,48.8c-6.2,8.8-10.9,18.4-13.5,28.9c-0.7,3-1.9,5.9-3.2,8.8c-1.6,3.7-4.2,6.8-7.8,8.9
		c-2.1,1.2-2.7,2.7-2.3,5c0.2,1.3,0.2,2.7,0.3,4.1c0,4.2-1.6,7.7-4.6,10.4c-2.6,2.3-5.3,4.4-8.1,6.4c-8.3,5.9-16.6,11.8-24,18.8
		c-3.3,3.1-6.5,6.4-9.6,9.7c-2.7,3-5.9,4.2-9.9,3.6c-4.9-0.8-9.7-0.1-14.3,1.9c-2.5,1.1-4.1,2.8-4.4,5.5c-0.2,1.6-0.5,3.2-0.7,4.7
		c-0.6,4.1-2.2,7.7-5.2,10.5c-8,7.5-16.5,14.4-26.6,19.1c-3.2,1.5-6.5,2.8-9.7,4c-3.2,1.2-5.2,3.2-6.1,6.5c-2.5,9-7.9,15.8-15.5,21
		c-5.4,3.7-11.3,6.3-17.3,8.6c-5.3,2-10.6,3.9-15.9,6.1c-5.1,2.1-9.8,5.1-14.3,8.2c-4.1,2.8-8.1,5.7-12.3,8.4
		c-4.3,2.9-9,4.8-14.2,5.6C537.2,691.4,536.6,691.6,535.8,691.8z M400.9,734.2c0.9-0.8,1.5-1.3,2.2-2c1.6-1.6,3.2-3.3,4.9-5
		c5-5.1,9.8-10.4,13.8-16.3c0.9-1.3,1.5-2.7,2.3-4.2c-5.9-0.5-29.4,8.2-34.1,12.5C393.5,724.1,397.1,729,400.9,734.2z"/>
	<path d="M372.9,674.2c-0.6,0.4-1.2,0.8-1.8,1.3c-8.7,6.2-17.4,12.5-26.2,18.6c-1,0.7-2,1.3-3.2,1.7c-1.6,0.6-2.8,0.1-3.6-1.1
		c-0.8-1.3-0.9-2.8,0.1-4c0.5-0.6,1.1-1.1,1.8-1.6c15.9-11.9,32.1-23.2,48.7-34c1.1-0.7,2.5-1.2,3.8-1.4c2.5-0.2,4,2.1,3,4.4
		c-0.3,0.8-0.9,1.5-1.5,2.2c-8.8,11.2-17.6,22.4-26.3,33.6c-2.9,3.8-5.4,7.9-8.1,11.9c-0.4,0.6-0.6,1.4-0.9,2
		c0.1,0.1,0.3,0.3,0.4,0.4c1.8-0.9,3.7-1.7,5.4-2.8c7.7-4.4,14.8-9.8,21.8-15.3c6.2-4.8,12.3-9.7,18.4-14.6c0.9-0.7,1.9-1.5,3-2
		c1.7-0.8,3.1-0.3,4,1c0.9,1.3,0.8,3.2-0.2,4.4c-0.3,0.3-0.6,0.5-0.9,0.8c-11.9,9.8-23.9,19.5-36.8,28c-3.3,2.1-6.7,4-10.2,5.9
		c-2.1,1.1-4.3,1.7-6.7,1.6c-3.3-0.1-5.5-2.3-5.7-5.6c-0.1-2.4,0.6-4.6,1.8-6.6c2.1-3.6,4.3-7.1,6.7-10.5
		c4.1-5.6,8.3-11.1,12.5-16.7c0.3-0.4,0.6-0.9,0.9-1.3C373.1,674.5,373,674.3,372.9,674.2z"/>
	<path d="M272.7,562.4c-1.1,0.7-1.9,1.2-2.6,1.7c-5,3.5-10.1,7.1-15.1,10.6c-0.8,0.6-1.6,1.1-2.4,1.6c-1.7,0.8-3.5,0.4-4.5-1
		c-1-1.3-0.8-3.3,0.5-4.6c0.7-0.7,1.5-1.2,2.3-1.8c5.6-3.9,11.1-7.8,16.7-11.7c1.2-0.8,2.1-1.9,3.3-2.8c0.9-0.7,1.9-1.5,2.9-2.1
		c1.8-1.1,3.6-2,5.3-3.2c7-4.9,14-9.8,21-14.7c0.7-0.5,1.3-0.9,2-1.3c1.3-0.7,2.6-0.6,3.8,0.4c5.6,5,10.1,10.7,11.2,18.5
		c1,7.2-2.4,14.1-8.9,17.4c-5.4,2.8-11,3.2-16.8,1.7c-2.4-0.6-4.6-1.7-6.9-2.6c-1.1-0.4-2.2-1-3.4-1.5c0,0.7,0,1.2,0,1.7
		c0.8,7.3-1.3,13.6-6.8,18.6c-2.4,2.2-5.1,4.1-7.7,6.1c-1.6,1.1-3.6,0.8-4.8-0.6c-1.1-1.3-1.1-3,0.3-4.5c0.8-0.9,1.8-1.6,2.7-2.3
		c1.4-1.1,2.9-2.1,4.2-3.2c4.6-4.1,6-9.3,4.9-15.2C273.5,565.8,273.1,564.2,272.7,562.4z M280.4,556.8c3.2,3.4,7.5,6,12,7.3
		c2.8,0.8,5.6,1.1,8.5,0.4c6.2-1.3,9.9-6,9.1-11.8c-0.7-4.8-3.3-8.5-6.8-11.9C295.6,546.1,288.1,551.4,280.4,556.8z"/>
	<path d="M240.9,530.7c-4.6,2.8-9,5.5-13.4,8.1c-0.9,0.5-1.8,1-2.8,1.2c-1.4,0.3-2.7-0.1-3.4-1.6c-0.7-1.3-0.6-2.8,0.5-4
		c0.6-0.6,1.3-1.2,2.1-1.6c5.9-3.4,11.7-6.9,17.7-10.2c9.3-5,18.9-9.3,29-12.6c3.6-1.2,7.2-2.1,11.1-1.8c1,0.1,2.1,0.2,3.1,0.5
		c2.7,0.9,4,2.7,4.1,5.5c0.1,2.4-0.6,4.6-1.8,6.6c-1.3,2.1-2.6,4.2-4.1,6.2c-10.7,13.6-23.1,25.4-37.2,35.5
		c-0.5,0.3-0.9,0.6-1.4,0.9c-1.9,1.1-3.9,0.8-5-0.7c-1.1-1.6-0.7-3.7,1-5.1c0.9-0.7,1.8-1.3,2.7-2c2.7-2.1,5.3-4.1,8-6.2
		c0.7-0.6,1.5-1.2,2.4-2C249.2,541.9,245.1,536.4,240.9,530.7z M258.8,543c2.8-2.9,5.3-5.5,7.9-8.2c4.8-4.9,9.2-10.2,13.1-15.9
		c0.7-1,1.5-2,1.4-3.4c-6.2-0.5-28.8,7.8-33.5,12.3C251.3,532.9,255,537.8,258.8,543z"/>
	<path d="M186.8,436.5c3.5,4.6,6.7,8.9,10.1,13.3c1-0.6,1.9-1.2,2.7-1.7c8.5-5.7,17-11.4,25.5-17c0.9-0.6,1.9-1.2,2.9-1.6
		c1.5-0.5,2.9,0,3.7,1.3c0.8,1.2,0.8,3.2-0.3,4.2c-0.9,0.9-2,1.6-3.1,2.3c-11.5,7.8-23,15.6-34.5,23.5c-4.9,3.4-9.4,7.1-14.2,10.7
		c-0.8,0.6-1.5,1.2-2.4,1.6c-1.4,0.6-2.8,0.3-3.7-0.8c-1-1.2-1.3-2.7-0.4-4c0.6-0.9,1.4-1.7,2.3-2.4c4.5-3.5,9-6.9,13.5-10.4
		c0.6-0.5,1.2-1,2-1.6c-3.4-4.5-6.7-8.9-10.1-13.4c-0.8,0.6-1.5,1-2.2,1.5c-5,3.8-10,7.7-15,11.5c-0.6,0.5-1.4,0.8-2.1,1
		c-1.5,0.3-2.7-0.3-3.5-1.6c-0.8-1.3-0.6-2.7,0.3-3.8c0.6-0.8,1.4-1.5,2.2-2.1c12.7-10.1,26-19.4,39.6-28.3c3.3-2.2,6.7-4.4,10-6.5
		c0.9-0.6,2-1.1,3-1.4c1.6-0.4,2.8,0.1,3.5,1.4c0.8,1.4,0.8,2.9-0.2,4c-0.5,0.6-1.2,1-1.9,1.5c-8.4,5.6-16.9,11.3-25.3,16.9
		C188.6,435.2,187.9,435.7,186.8,436.5z"/>
	<path d="M328.8,573c7.6-0.1,15,2.8,14.1,11.5c-0.5,5-2.7,9.2-6.3,12.6c-9.6,9.2-20.1,17-32.1,22.9c-4.4,2.2-9,3.1-13.9,2.5
		c-7.2-0.8-11.5-6.7-10.1-13.8c0.8-3.8,2.5-7.1,5.1-9.9c9-9.8,19.3-17.9,31.5-23.5C320.1,574.1,324.5,573.1,328.8,573z M293.3,615.8
		c3.7-0.1,7-1.3,10.2-3.1c9.6-5.3,18.4-11.6,26.4-19c2.5-2.3,4.8-5,5.7-8.5c0.7-2.7-0.4-4.7-3.1-5.2c-1.7-0.3-3.5-0.4-5.2-0.3
		c-3.7,0.3-6.9,1.8-10.1,3.5c-9,4.8-17,10.7-24.1,18.1c-1.9,1.9-3.5,4.2-4.8,6.6c-2.6,4.6-0.6,7.9,4.7,8
		C293.2,615.8,293.2,615.8,293.3,615.8z"/>
	<path d="M139.1,317.2c7.1-0.2,13.6,2.3,13.6,10.2c0,4.8-1.7,9-4.9,12.4c-3.2,3.3-6.7,6.4-10.2,9.4c-6.3,5.2-13.1,9.7-20.2,13.7
		c-4,2.2-8.2,4-12.9,4c-2.2,0-4.5-0.2-6.6-0.7c-5.7-1.6-8.7-7.1-7.3-13.2c0.9-4,2.8-7.5,5.6-10.4c8.4-8.9,17.9-16.4,28.9-21.9
		C128.4,318.9,133.9,317.4,139.1,317.2z M139.1,323.7c-4.1,0-7.8,1.6-11.4,3.4c-9.8,5-18.4,11.6-25.9,19.6c-2.1,2.2-3.8,4.7-4.5,7.8
		c-0.6,2.6,0.5,4.5,3.1,5.1c1.6,0.4,3.3,0.4,5,0.2c3.2-0.3,6-1.7,8.7-3.2c6.1-3.3,11.8-7.2,17.2-11.5c5.5-4.4,12.4-8.7,14.3-16
		c0.6-2.5-0.6-4.2-3.1-4.8C141.4,323.9,140.2,323.8,139.1,323.7z"/>
	<path d="M113.2,387.7c0.1-3.8,1.5-7.3,3.8-10.3c1.8-2.3,3.8-4.6,6-6.5c9.3-8.2,19.3-15.5,30.3-21.4c2.5-1.4,5.2-2.4,7.9-3.5
		c0.7-0.3,1.5-0.5,2.3-0.5c1.5-0.1,2.6,0.7,3.2,2.1c0.6,1.4,0.3,2.7-0.8,3.7c-0.5,0.5-1.2,0.8-1.8,1.1c-13.1,5.4-24.5,13.5-35,22.8
		c-1.4,1.3-3,2.4-4.2,3.9c-1.5,1.8-2.9,3.8-3.9,6c-1.8,3.9-0.2,7,3.9,8.1c3.6,1,7,0.4,10.3-1c5.6-2.4,10.8-5.6,15.8-9
		c7.5-5,14.8-10.3,21.6-16.3c0.8-0.7,1.4-1.5,2.2-2.2c0.7-0.6,1.6-1.1,2.4-1.4c1.3-0.4,2.6-0.1,3.5,1c1,1.2,1,2.6,0.3,3.8
		c-0.6,1-1.4,2-2.3,2.8c-11.3,9.9-23.5,18.8-36.7,26c-3.5,1.9-7.3,3.2-11.3,3.7c-3.6,0.5-7.2,0-10.5-1.7
		C115.6,396.7,113.3,392.9,113.2,387.7z"/>
	<path d="M267,486.9c-0.1,2.5-2.2,5.7-6.2,7.7c-1.7,0.9-3.4,0.6-4.4-0.5c-1.3-1.4-1.3-3.7,0.1-5c0.2-0.2,0.5-0.4,0.8-0.5
		c2.5-1.7,3.2-3.1,2.6-5.1c-0.8-2.3-3.2-4.2-5.7-4c-2.4,0.2-4.8,0.6-7,1.3c-2.7,0.9-5.4,2-7.9,3.4c-8,4.4-15.5,9.5-22.2,15.8
		c-2.2,2.1-4.2,4.3-5.6,7.1c-1.6,3.2,0.2,5.2,2.8,5.7c1.3,0.3,2.8-0.1,4.2-0.2c0.7-0.1,1.3-0.5,2-0.6c1.8-0.3,3.4,0.5,4,2
		c0.6,1.5,0.2,3.4-1.4,4.2c-1.6,0.9-3.3,1.6-5.1,1.9c-3.7,0.6-7.2-0.1-10.2-2.4c-3.6-2.7-4.9-7.3-3.5-11.9c0.9-2.9,2.5-5.3,4.4-7.6
		c3.2-3.7,7.1-6.7,11-9.6c7-5.3,14.4-10.1,22.5-13.5c1.8-0.8,3.7-1.4,5.7-2c4.2-1.2,8.3-0.7,12.2,1C264.5,476,267,480,267,486.9z"/>
	<path d="M190.6,387.9c-0.6-0.9-1.1-1.6-1.6-2.3c-2.1-2.8-4.2-5.5-6.2-8.3c-1.3-1.8-1-3.8,0.4-5c1.5-1.2,3.6-1,5.1,0.7
		c1.1,1.3,2.1,2.7,3.1,4c5.8,7.8,11.6,15.7,17.5,23.5c0.8,1,1.5,2,1.4,3.5c0,1.3-0.6,2.3-1.7,2.9c-1.2,0.7-2.5,0.7-3.6-0.2
		c-0.7-0.6-1.4-1.3-1.9-2.1c-2.2-2.9-4.4-5.9-6.5-8.9c-0.5-0.6-1-1.2-1.5-2c-0.7,0.4-1.4,0.7-2,1.1c-15.9,10.4-31.7,21-46.6,32.9
		c-0.5,0.4-1,0.8-1.6,1.1c-1.5,0.7-3.4,0.3-4.4-0.9c-1-1.2-1-3.1,0.1-4.4c0.7-0.8,1.5-1.4,2.3-2.1c10-8,20.5-15.3,31.1-22.5
		c4.8-3.2,9.6-6.4,14.4-9.6C189.1,389,189.8,388.5,190.6,387.9z"/>
	<path d="M327.6,667.9c15.6-10.9,31-21.6,46.5-32.5c-0.3-0.6-0.8-1.3-1.1-1.9c-1-1.8-0.7-3.6,0.8-4.7c1.5-1.1,3.6-0.9,4.9,0.7
		c2.7,3.5,5.4,7,8,10.5c1.3,1.8,1,3.7-0.6,4.9c-1.5,1.1-3.6,0.9-5-0.6c-0.8-0.8-1.4-1.7-2.1-2.6c-4.9,1.6-42.8,28.1-46.6,32.5
		c0.6,0.9,1.3,1.8,1.9,2.7c1.2,1.9,0.9,3.8-0.6,4.9c-1.6,1.2-3.7,0.9-5.1-0.9c-3-3.8-5.9-7.7-8.8-11.7c-1.3-1.7-0.9-3.7,0.6-4.9
		c1.5-1.2,3.7-0.9,5.1,0.7C326.2,666,326.9,667,327.6,667.9z"/>
	<path d="M306.3,640c3.1,4,6,7.8,8.9,11.6c0.5,0.7,1.1,1.4,1.5,2.2c0.8,1.6,0.5,3.3-0.8,4.3c-1.4,1.1-3.2,1.1-4.6-0.2
		c-0.4-0.4-0.8-0.8-1.1-1.3c-3.6-4.6-7.2-9.2-10.8-13.8c-0.1-0.1-0.2-0.2-0.3-0.4c-2.1-2.9-2-3.9,0.7-6.2
		c7.8-6.7,16.2-12.5,24.7-18.2c8-5.4,16-10.9,24-16.3c1-0.7,2-1.4,3.1-1.8c1.8-0.8,3.5-0.1,4.3,1.4c0.9,1.6,0.6,3.3-0.9,4.5
		c-0.9,0.7-1.8,1.3-2.8,1.9c-14.9,9.7-29.7,19.7-43.8,30.6C307.7,638.8,307.1,639.3,306.3,640z"/>
</g>
</svg>
