<?xml version="1.0" encoding="utf-8"?>
<!-- Generator: Adobe Illustrator 23.0.4, SVG Export Plug-In . SVG Version: 6.00 Build 0)  -->
<svg version="1.1" id="Layer_1" xmlns="http://www.w3.org/2000/svg" xmlns:xlink="http://www.w3.org/1999/xlink" x="0px" y="0px"
	 viewBox="0 0 864 864" style="enable-background:new 0 0 864 864;" xml:space="preserve">
<g>
	<path d="M30.5,109.2c0,142.1,0,283.9,0,426c1,0,1.8,0.1,2.7,0.1c5.9,0,11.8,0,17.8,0c5.6,0,11.2,0.3,16.7,1.3
		c1,0.2,2.1,0.5,2.9,0.9c1.9,1,2.5,3.3,1.2,5.1c-2.9,4.2-3.2,8.8-1.6,13.5c0.3,1,0.8,1.9,1.4,2.8c2.1,3.1,5.7,3.8,8.8,1.6
		c3.1-2.1,4.3-5.3,4.6-8.8c0.1-1.1,0-2.2,0-3.4c-0.1-4-1.5-7.3-4.9-9.6c-2.7-1.9-5.4-4-8-6.2c-10.6-8.8-8.9-21.9-4.4-29.9
		c3.1-5.5,9.3-8.2,15.3-7c4.2,0.9,7.1,3.3,8.7,7.1c1.9,4.5,1.9,9.2,1,13.9c-0.4,1.9-2.1,3-3.9,2.7c-1.7-0.2-2.9-1.7-2.9-3.6
		c0-1.8,0.3-3.5,0.3-5.3c0-1.1-0.1-2.2-0.3-3.3c-0.9-3.7-3.3-5.9-8.2-4.3c-1.9,0.6-3.2,1.9-4,3.6c-2.8,5.6-4.2,14.2,2.7,20.2
		c1.6,1.4,3.3,2.7,5,4.1c1.7,1.3,3.5,2.6,5.1,4c2.5,2.2,4.1,4.9,4.8,8.1c1.3,5.9,1.3,11.8-1.5,17.3c-1.5,2.9-3.7,5.2-6.6,6.8
		c-6.4,3.5-13.7,1.7-17.7-4.3c-2.2-3.3-3-7-3.3-11.2c-0.9-0.1-1.8-0.2-2.7-0.2c-11.3,0-22.6,0-33.8,0c-1.4,0-2.7,0-4.1-0.2
		c-3.1-0.4-5.2-2.5-5.8-5.6c-0.2-1.3-0.3-2.5-0.3-3.8c0-145.6,0-291.2,0-436.8c0-1.4,0.1-2.7,0.3-4.1c0.4-3.2,2.6-5.4,5.8-5.8
		c1.2-0.2,2.4-0.2,3.6-0.2c217.4,0,434.9,0,652.3,0c49.2,0,98.4,0,147.6,0c0.7,0,1.4,0,2.2,0c4.3,0.1,5.9,1.4,7.5,5.3
		c1.2,2.9,2.5,5.7,4.3,8.3c4.2,6.3,2.6,14.3-1.9,18.6c-5.2,5-10.6,9.8-17.1,12.9c-3.5,1.7-7.1,2.9-10.9,3.4c-4,0.5-5.2,2.1-4.9,6.4
		c1,0.3,2.1,0.6,3.2,0.8c5.8,1.5,9.5,5.1,10.7,11.1c0.4,1.9,0.9,3.7,1.4,5.6c1,3.5,3.2,5.9,6.6,7c3.1,0.9,6.3,1.6,9.5,2.4
		c4.7,1.1,9,3,12.3,6.6c3.3,3.5,4.6,7.5,3.1,12.4c-0.5,1.6-0.7,3.3-0.7,4.9c0,88.2,0,176.5,0,264.7c0,0.6,0,1.1,0,1.7
		c0,5.2-1.5,7.2-6.5,8.7c-1.6,0.5-3.2,0.8-4.9,1.2c-0.6,2,0,3.9,1,5.5c1.3,2.1,2.9,4,4.5,5.9c1.4,1.6,2.5,3.3,3,5.4
		c1,3.8,0,7.3-1.8,10.6c-1.1,1.8-2.6,3.4-4,5c-0.5,0.6-1.1,1.1-1.8,1.7c1.7,1.5,3.3,2.8,4.7,4.2c5.9,5.7,9.2,12.8,10.4,20.9
		c0.4,3,0.2,5.9-0.9,8.7c-0.8,2.1-2.1,3.9-4.1,5.2c-3.8,2.3-5.7,5.8-6,10.1c-0.3,4.9-0.5,9.7-0.8,14.6c-0.4,5.7-2,11-5.2,15.7
		c-0.2,0.3-0.4,0.7-0.7,1.2c0.6,0.8,1.1,1.5,1.7,2.2c7.6,9,12.2,19.3,13.8,30.9c0.4,2.5,0.2,5.1-0.2,7.6c-0.8,4.6-4.7,7.8-9.4,8.2
		c-4.8,0.4-9.1-1.3-13.2-3.6c-4.3-2.5-7.8-5.8-11.1-9.5c-3.3-3.7-6.6-7.4-9.8-11.2c-3.8-4.5-8.4-7.8-13.8-10
		c-12.9-5.3-25.8-10.9-38.7-16.3c-12.4-5.1-25-9.3-38.3-11.5c-5.6-0.9-11.2-1.5-16.9-2.2c-0.9-0.1-1.8,0-2.6,0
		c-2.2,0.1-3.8,1.2-4.7,3.2c-0.3,0.7-0.6,1.3-0.9,2c-3.7,10.1-12.6,13.7-22.2,11.3c-4.6-1.1-8.9-2.9-13.2-5
		c-10.4-5.1-20.7-10.4-30.6-16.4c-7.3-4.5-13.8-9.9-18-17.6c-0.6-1.1-1.4-1.1-2.4-1.1c-6.9,0-13.8,0.2-20.6,0
		c-7.7-0.3-15.3-0.9-23-1.6c-5.1-0.4-10.2-1.1-15.5-1.7c0,1.5,0,2.8,0,4.2c0,3.9,0.1,7.8,0.1,11.8c0,0.6,0,1.1-0.2,1.7
		c-0.4,1.8-1.8,2.9-3.6,2.8c-1.8-0.1-3.1-1.4-3.2-3.3c-0.1-3.8,0-7.5-0.1-11.3c0-2.1-0.3-4.3-0.4-6.6c-7.3,0-14.4,0-21.8,0
		c-0.3,1.8-0.6,3.7-0.8,5.6c-0.4,3.9-0.7,7.8-1,11.7c-0.1,1.2-0.4,2.2-1.3,3c-1,0.8-2.1,1.1-3.4,0.7c-1.3-0.4-2.2-1.4-2.4-2.8
		c-0.1-1-0.1-2.1,0-3.1c1.5-16.9,4.2-33.6,9.1-49.9c1.3-4.1,2.7-8.2,5.3-11.8c0.8-1.1,1.7-2.2,2.7-3c2.7-2.1,5.9-2.1,8.3,0.4
		c1.5,1.5,2.8,3.3,3.7,5.2c2.2,4.6,3.4,9.5,4.4,14.4c1.3,6.9,2.3,13.9,3.5,20.8c0.1,0.4,0.2,0.8,0.3,1.3c3.8-0.2,7.5-0.3,11.3-0.5
		c11.8-0.6,23.6-1.4,35.4-1.9c5-0.2,10.1,0,15.1,0c2.6,0,5.1,0,7.7-0.2c2.2-0.1,3.5,0.8,4.1,2.9c2,7.4,7.1,12.2,13.5,15.8
		c10.4,5.7,20.8,11.3,31.2,16.8c2.5,1.3,5.2,2.5,7.9,3.4c3.3,1.1,4.5,0.2,5.9-3c3.7-8.3,8.9-13.3,19.6-13.4
		c17.2-0.1,33.9,3,49.9,9.4c18,7.2,35.8,14.6,53.7,21.9c6.1,2.5,11.3,6.2,15.8,11.1c5,5.6,10.1,11.1,15.2,16.7
		c1,1.1,2.1,2.1,4.1,2.8c-0.7-2.3-1.2-4.3-2-6.2c-3-7.6-7.9-13.8-14-19.2c-0.7-0.6-1.4-1.1-2-1.7c-2.2-2.1-2.8-4.6-1.6-7.4
		c0.9-2.2,2.2-4,4.6-5c2.8-1.2,4.3-3.5,4.7-6.5c0.6-4.4,1-8.7,1.4-13.1c0.4-3.7,0.7-7.3,1.3-10.9c1.1-6.2,4-11.2,9.5-14.6
		c0.2-0.1,0.3-0.3,0.6-0.6c-1.7-7.9-5.6-14-13.3-17.2c-0.1,0-0.1-0.1-0.2-0.1c-5.9-2.7-7.4-6.9-4.6-12.7c1.5-3,3.7-5.4,6.2-7.5
		c1.4-1.2,2.8-2.3,4.3-3.5c-5.6-5.4-8.6-11.8-8.9-19.4c-0.1-3.5,0.5-7,1.7-10.4c1.1-3,3.3-4.6,6.5-5c1.3-0.1,2.5-0.3,4-0.5
		c0-1.3,0-2.5,0-3.7c0-85.9,0-171.8,0-257.8c0-2.3,0-4.6,1.3-7c-1.6-0.6-2.9-1.2-4.3-1.6c-3.1-0.9-6.2-1.6-9.3-2.5
		c-2.1-0.6-4.1-1.4-6-2.4c-6.9-3.5-11-9.1-12.2-16.7c-0.8-5.1-0.8-5.1-5.9-5.7c-6.3-0.8-10.2-5.2-10.5-11.4
		c-0.3-6.2,1.5-11.8,4.7-17.1c1.6-2.8,4.1-4.7,7.1-5.9c2.2-0.8,4.5-1.6,6.9-2.1c3.2-0.8,6.3-1.9,9-3.8c2-1.3,4-2.7,5.9-4.1
		c0.6-0.5,1.3-1,1.8-1.6c2.1-2.5,3.5-3,0.1-5.7c-0.1-0.1-0.3-0.2-0.3-0.4c-1.2-2.6-3.5-2.7-6-2.7c-261.1,0-522.2,0-783.3,0
		C33.1,109.2,31.8,109.2,30.5,109.2z M531,504.4c-2.6,3.3-3.9,6.6-4.9,10c-1.9,6.8-3.5,13.6-5.2,20.4c-0.5,2-0.7,4-1.1,6
		c4.2,0.5,17.7,0.6,19.9,0c0-0.4,0-0.8-0.1-1.1c-0.9-5.8-1.7-11.7-2.9-17.5c-1-4.8-2.6-9.6-4-14.3
		C532.5,506.8,531.8,505.8,531,504.4z"/>
	<path d="M374.4,548.3c-7.4,0-14.5,0-21.9,0c-0.4,2.7-0.8,5.4-1.1,8.2c-0.3,3-0.4,6.1-0.6,9.1c-0.1,2.4-1.5,4-3.6,4
		c-2,0-3.6-1.8-3.5-4.1c0.4-5.1,0.8-10.2,1.5-15.3c1.4-10.6,3.2-21.2,6.2-31.5c1.2-4.2,2.6-8.4,4.3-12.5c0.8-2.1,2.1-4.2,3.6-5.9
		c3.4-4.2,8.1-4.1,11.3,0.2c1.5,2,2.5,4.3,3.4,6.6c2.3,6.2,3.5,12.6,4.7,19c2.3,12.4,3.3,24.9,3.2,37.4c0,1,0,1.9-0.2,2.9
		c-0.3,2-1.8,3.2-3.6,3.1c-1.8-0.1-3.2-1.5-3.2-3.5c-0.1-3.2,0-6.4,0-9.6C374.7,553.8,374.5,551.1,374.4,548.3z M365,504.6
		c-4.1,4.3-10.8,26.4-11.1,36.4c6.5,0,13,0,19.7,0c-0.1-1.4-0.1-2.6-0.3-3.9c-0.9-5.4-1.7-10.7-2.8-16c-1-4.4-2.4-8.8-3.7-13.1
		C366.4,506.9,365.7,505.9,365,504.6z"/>
	<path d="M255.4,542.3c-6,0-11.7,0-17.7,0c-0.1,0.8-0.2,1.5-0.2,2.2c0.1,6.7,0.1,13.4,0.2,20.1c0,1.3,0,2.6-1.1,3.5
		c-1,0.8-2.2,1.3-3.6,0.7c-1.4-0.6-2.2-1.5-2.3-3.1c-0.1-2.2-0.2-4.5-0.2-6.7c-0.4-12.9,0.1-25.9,0.7-38.8
		c0.3-6.8,0.7-13.6,1.1-20.3c0-0.7,0.1-1.4,0.3-2.1c0.5-1.9,1.8-2.8,3.7-2.7c1.9,0.2,3.1,1.4,3.1,3.3c-0.1,3.9-0.5,7.8-0.6,11.7
		c-0.4,8.2-0.8,16.4-1.2,24.8c6,0,11.8,0,17.8,0c0.1-1,0.2-1.9,0.3-2.9c0.5-11.3,1.1-22.5,1.6-33.8c0-0.6,0.1-1.3,0.3-1.9
		c0.5-1.7,2-2.7,3.6-2.5c1.7,0.2,3,1.4,3.1,3.1c0.1,0.9,0,1.9-0.1,2.9c-0.5,10.1-1.3,20.1-1.5,30.2c-0.3,11.3-0.1,22.7-0.1,34
		c0,2.3-1.3,3.8-3.4,3.8c-2,0-3.5-1.4-3.6-3.6c-0.2-6.5-0.2-12.9-0.3-19.4C255.4,544.1,255.4,543.3,255.4,542.3z"/>
	<path d="M467.1,528.1c-0.2,7.5-0.3,15.2-1.9,22.7c-1,4.5-2.7,8.7-5.7,12.3c-3.5,4.1-8.4,5.7-12.9,4.2c-2.9-1-5.1-3-6.8-5.5
		c-2.4-3.4-3.6-7.3-4.2-11.4c-1.8-12.4-2.1-24.8,0.4-37.2c0.9-4.4,2.3-8.7,5-12.4c1.7-2.4,3.7-4.4,6.4-5.7c4.3-2.1,9-1.4,12.4,1.9
		c3.3,3.1,5,7,5.9,11.3C466.9,514.8,467,521.4,467.1,528.1z M441,534.8c0.4,3.5,0.8,9.2,1.6,14.9c0.3,2.4,1.2,4.8,2.3,7
		c2.6,5.1,6.6,5.3,10,0.6c1.9-2.7,2.9-5.7,3.5-8.8c1.5-8.5,1.7-17,1.4-25.6c-0.1-4.1-0.4-8.3-1.1-12.4c-0.4-2.4-1.4-4.8-2.7-6.8
		c-1.9-3.2-4.7-3.5-7.4-1c-1.1,1-2.2,2.2-2.8,3.5c-1.1,2.4-2.1,4.8-2.8,7.4C441.5,519.8,441.3,526.2,441,534.8z"/>
	<path d="M134.9,527.1c-0.3,8.2-0.4,15.9-1.9,23.3c-0.9,4.6-2.6,8.9-5.7,12.5c-2.3,2.7-5,4.5-8.6,4.8c-4.6,0.4-8-1.7-10.7-5.2
		c-2.6-3.5-4-7.5-4.7-11.7c-1.9-12.6-2.2-25.1,0.3-37.7c0.7-3.5,1.8-6.8,3.5-9.9c1.5-2.8,3.4-5.2,6.1-7c5.3-3.6,11.3-2.8,15.5,2.1
		c3.2,3.8,4.6,8.3,5.3,13.2c0.2,1.5,0.4,3,0.5,4.5C134.6,519.9,134.7,523.8,134.9,527.1z M127.7,529.5c0-6.1-0.4-12.1-0.9-18.2
		c-0.3-3-1.4-5.8-3.2-8.1c-1.8-2.3-4-2.6-6.3-1c-0.8,0.5-1.6,1.2-2.1,1.9c-1.2,2-2.4,4-3.2,6.1c-1.8,4.6-2.3,9.5-2.6,14.3
		c-0.6,8.6-0.3,17.3,1.2,25.8c0.5,3,1.5,5.9,3.5,8.3c2.2,2.7,4.9,2.9,7.4,0.4c0.6-0.6,1.2-1.3,1.7-2c2.9-4.4,3.4-9.5,4-14.7
		C127.4,538,127.6,533.7,127.7,529.5z"/>
	<path d="M301.9,533.1c0.5-9.7,1-19.9,1.6-30.2c0.1-1,0.2-2.1,0.7-3c0.4-0.7,1.2-1.4,2-1.5c8.2-1.6,15.8-0.7,21.8,5.9
		c3.3,3.6,5.1,8.1,6.1,12.8c2.3,11.6,0.5,22.7-4.2,33.5c-2,4.7-4.7,8.9-8.5,12.4c-4.2,3.9-9.1,6.2-14.9,5.9
		c-3.2-0.2-4.5-1.4-4.5-4.6C301.9,554.1,301.9,543.9,301.9,533.1z M310.4,505c-1.2,18.9-2,37.7-1.6,56.6c2.9-0.3,5-1.5,6.9-3.1
		c2.7-2.2,4.7-5,6.3-8.1c4.6-8.9,6.5-18.3,5.7-28.3c-0.3-3.4-1.1-6.8-2.7-9.9C322.1,506.7,316.6,503.9,310.4,505z"/>
	<path d="M178.8,519.9c0.1,8.5-0.2,16.9-1.2,25.4c-0.7,5.6-2,11-5.3,15.8c-2.5,3.6-5.5,6.4-9.9,7.4c-4.3,1-8.1-0.1-11.3-3
		c-2.9-2.7-4.6-6.1-5.6-9.9c-1.5-5.4-1.8-11-1.9-16.6c-0.2-8.9-0.2-17.8,1-26.6c0.5-3.6,1.3-7.2,2-10.8c0.2-0.9,0.5-1.7,0.8-2.5
		c0.8-1.9,2.7-2.7,4.5-2c1.7,0.6,2.7,2.5,2.1,4.3c-2.5,7.6-2.9,15.5-3.3,23.4c-0.4,7.9-0.4,15.8,0.6,23.7c0.3,2.7,1,5.3,2,7.9
		c0.6,1.6,1.8,3,3,4.2c1.7,1.6,3.8,1.6,5.8,0.6c2-1,3.4-2.6,4.6-4.4c2.1-3.4,3.2-7.1,3.7-11c1.5-11,1.7-22,1.5-33
		c-0.1-4.2-0.6-8.4-1-12.6c-0.2-2.3,0.7-3.9,2.8-4.4c1.9-0.4,3.8,0.7,4.1,3c0.5,3.5,0.9,7.1,1,10.7
		C178.9,512.8,178.8,516.3,178.8,519.9z"/>
	<path d="M398.1,526.7c1.8-1.1,3.3-1.9,4.7-2.8c3.5-2.3,6.5-5.1,9.2-8.3c3.4-4,6-8.5,6.5-13.9c0.1-1.6,0.9-2.7,2.5-3.1
		c2.4-0.6,4.4,0.9,4.4,3.4c0,3.9-1.2,7.6-3.1,11c-4.9,8.8-12.1,15.2-20.9,19.9c-0.6,0.3-1.1,0.6-1.8,0.9c0.2,0.7,0.4,1.4,0.6,2.1
		c1.8,5,3.9,9.8,6.9,14.2c1.8,2.7,3.9,5.1,6.5,7c1.9,1.4,4,2.2,6.5,1.8c2.2-0.3,3.8,1,4.1,3c0.3,1.9-1.2,3.6-3.3,4
		c-3.6,0.6-7-0.2-10.1-2.2c-4.5-2.9-7.8-6.8-10.6-11.3c-0.7-1.2-1.5-2.4-2.6-3.6c0,3,0,5.9,0,8.9c0,2.3,0.2,4.6,0.2,6.9
		c0,2.4-1.4,4-3.5,4.1c-2,0-3.6-1.6-3.6-4c-0.1-8.6-0.3-17.3,0-25.9c0.3-11.9,1-23.8,1.5-35.7c0.1-1.4,0.2-2.7,0.4-4.1
		c0.3-2,1.8-3.2,3.6-3.1c2.1,0.1,3.4,1.6,3.3,3.9c-0.2,5.1-0.6,10.2-0.9,15.3C398.4,518.8,398.3,522.5,398.1,526.7z"/>
	<path d="M495.3,501.6c-0.1,0.8-0.3,1.5-0.3,2.1c-0.8,16-1.8,32.1-1.6,48.2c0,4.1,0.1,8.2,0.2,12.2c0,0.4,0,0.8,0,1.2
		c-0.3,1.8-1.7,3.1-3.4,3.1c-1.7,0-3.3-1.2-3.4-3c-0.2-2.1-0.3-4.1-0.4-6.2c-0.3-15.9,0.3-31.8,1.2-47.7c0.2-3.2,0.3-6.4,0.5-9.7
		c-0.9,0-1.7-0.1-2.4-0.1c-3.6,0-7.2,0-10.8,0.1c-1.4,0-2.7-0.2-3.6-1.4c-1.5-2-0.7-4.7,1.7-5.4c0.7-0.2,1.4-0.2,2.1-0.2
		c11.8,0,23.5,0,35.3,0c0.3,0,0.6,0,1,0c2.1,0.2,3.4,1.6,3.4,3.6c0,2-1.4,3.4-3.5,3.5c-3.2,0.1-6.4,0-9.6,0
		C499.5,501.6,497.5,501.6,495.3,501.6z"/>
	<path d="M200.2,501.7c-0.9-0.1-1.6-0.1-2.3-0.1c-3.5,0-7,0-10.6,0.1c-0.5,0-1,0-1.4,0c-1.9-0.2-3.3-1.7-3.3-3.5
		c-0.1-1.6,1.3-3.2,3-3.5c0.5-0.1,1.1-0.1,1.7-0.1c11.7,0,23.4,0,35,0c0.3,0,0.6,0,1,0c2.2,0.2,3.5,1.5,3.6,3.5c0,2-1.4,3.6-3.6,3.6
		c-3.2,0.1-6.4,0-9.6,0c-2,0-4,0-6.2,0c-0.1,1-0.3,1.9-0.3,2.9c-0.5,9.7-1,19.5-1.3,29.2c-0.2,8.9-0.2,17.7-0.2,26.6
		c0,1.4,0.2,2.9,0.1,4.3c-0.1,2.3-1.5,3.8-3.5,3.7c-1.9,0-3.4-1.5-3.5-3.6c-0.1-7.4-0.3-14.9-0.2-22.3c0.1-8.4,0.5-16.8,0.8-25.2
		C199.5,512.2,199.9,507.1,200.2,501.7z"/>
</g>
</svg>
