<?xml version="1.0" encoding="utf-8"?>
<!-- Generator: Adobe Illustrator 23.0.4, SVG Export Plug-In . SVG Version: 6.00 Build 0)  -->
<svg version="1.1" id="Layer_1" xmlns="http://www.w3.org/2000/svg" xmlns:xlink="http://www.w3.org/1999/xlink" x="0px" y="0px"
	 viewBox="0 0 864 864" style="enable-background:new 0 0 864 864;" xml:space="preserve">
<g>
	<path d="M442,190.8c-0.2,2.7-0.4,5.4-0.6,8.1c-0.6,13.3-1.3,26.5-1.6,39.8c-0.2,11,0,22.1,0,33.1c0,1,0.1,2.1,0,3.1
		c-0.1,2.2-1.9,3.9-4.1,4c-2,0-3.9-1.5-4.1-3.6c-0.3-3.5-0.4-7-0.4-10.5c0-8.2-0.2-16.5,0.1-24.7c0.4-13,1.1-26,1.7-39
		c0.1-3.3,0.4-6.7,0.5-10.2c-0.9-0.1-1.6-0.2-2.3-0.2c-5.4,0-10.9,0.1-16.3,0.1c-2.7,0-4.7-1.8-4.8-4.3c0-2.2,1.9-4.1,4.4-4.1
		c4.2-0.1,8.5,0,12.7,0c0.9,0,1.7,0,2.6,0c0.5-1.8,0.6-129.1,0.1-131.9c-0.9-0.1-1.8-0.1-2.8-0.2c-6.7,0-13.4-0.1-20.2-0.1
		c-15.4-0.1-30.7-0.1-46.1-0.2c-18.7-0.1-37.4-0.2-56.1-0.3c-14.7-0.1-29.4-0.3-44.1-0.4c-1,0-1.9,0-3,0c-0.1,0.7-0.3,1.3-0.3,1.9
		c-0.1,1,0,2.1,0,3.1c0,108.8,0,217.6,0,326.4c0,1,0,2.1-0.2,3.1c-0.8,3.5-3.7,5.9-7.6,6.2c-1,0.1-1.9,0-2.9,0
		c-56.2,0-112.3,0-168.5,0c-5.7,0-11.4-0.1-17,0c-6.7,0.1-13.2-0.7-19.9-1.3c-3.6-0.3-7.1-0.5-10.8-0.1c0,1.4,0.8,2,1.6,2.6
		c2.7,2.1,5.4,4.2,8.3,6.2c5.2,3.6,8.4,8.5,9.7,14.6c0.3,1.2,0.5,2.5,0.8,3.7c0.5,2.1,1.7,3.8,3.7,4.8c2.1,1.1,4.3,2.2,6.5,3
		c6.9,2.4,12.1,6.8,15.5,13.2c1,1.8,1.9,3.7,2.8,5.5c1.4,2.9,3.6,4.8,6.7,5.8c3.3,1,6.6,2,9.7,3.3c5.6,2.3,9.4,6.3,10.6,12.4
		c0.3,1.4,0.5,2.8,0.7,4.3c0.3,2.7,1.7,4.4,4.1,5.4c1.7,0.7,3.4,1.5,5,2.2c8.4,3.9,14.8,9.9,19.7,17.7c4.1,6.7,7.6,13.7,11,20.8
		c5.6,11.8,11.2,23.5,16.8,35.3c2.9,6.3,7.4,11,13.8,13.7c0.4,0.2,0.9,0.4,1.3,0.6c6.5,2.7,11.6,7,14.6,13.5c0.3,0.6,0.6,1.1,1,1.7
		c1.6,2.7,3.9,4.1,7.1,4c2.6,0,5.1-0.1,7.7,0.2c5.7,0.6,10.4,3.5,14.5,7.4c2.1,2,4.3,4.1,6.5,6.1c1.7,1.5,3.5,2.8,6.1,3.2
		c0.4-0.9,0.9-1.8,1.1-2.7c2.2-7.8,4.3-15.6,6.7-23.3c2-6.2,4.2-12.3,6.7-18.2c6.2-14.4,17.3-22.8,32.7-25.6
		c17.5-3.1,33.2,1,46.9,12.3c3.5,2.8,7.2,4.5,11.6,5.1c7.7,1,14.1,4.8,19.7,10.1c4.8,4.6,8.7,10,12.5,15.5c3,4.3,6,8.7,9.1,12.9
		c3.8,5.3,8.5,9.6,14,13c7.9,4.9,12.5,11.9,14.3,20.9c1.1,5.6,2.1,11.2,3.4,16.7c2,8.5,5.7,16.3,10.3,23.7c1.9,3,3.9,5.9,5.9,8.8
		c3.5,4.9,8.2,7.5,14.3,7.4c4.6-0.1,8.4,1.8,11.5,5.1c1.7,1.8,3.3,3.8,4.4,6c3,5.9,7.2,10.9,11.7,15.7c2.8,2.9,5.5,5.8,7.9,9
		c4.9,6.3,6.6,13.4,4.7,21.2c-0.7,2.7-1.3,5.4-1.9,8.2c-0.6,2.3-0.5,4.6,0.5,6.8c0.8,1.8,1.6,3.5,2.4,5.2c1.4,2.9,2.2,6,2.3,9.2
		c0.1,2.4,0.5,4.8,0.9,7.1c0.6,3.3,1.8,4.3,5.1,4.8c1.3,0.2,2.6,0.1,3.8,0.4c6,1.3,9.7,5,11.1,10.9c0.5,2,0.8,4.1,1.2,6.2
		c0.6,0.1,1.1,0.2,1.7,0.2c4.4-0.2,8.6,0.4,12.6,2.2c3.4,1.5,6.9,3.1,10.2,4.8c4,2.1,8.1,2.5,12.6,1.8c2.6-0.4,5.3-0.3,7.9,0
		c3,0.3,5.3,2.1,6.9,4.6c0.3,0.5,0.6,0.9,0.8,1.4c0.8,2,2.2,2.4,4.2,2.3c6.8-0.4,13.4,0.1,19.9,2.1c4,1.3,8,2.9,11.9,4.3
		c2.3,0.8,4.5,1.6,6.8,2.3c1.8,0.6,3.4,0.4,5-1.2c-0.4-0.4-0.7-0.9-1.1-1.2c-4.8-3.9-8.3-8.9-10.9-14.4c-5-10.7-9.3-21.7-12.1-33.3
		c-2.5-10.1-3.2-20.4-1-30.6c0.2-1.1,0-1.8-0.9-2.5c-2.3-1.8-3.7-4.1-4.3-7c-0.9-3.9,0.9-9,5.2-11.5c1.2-0.7,2.4-1.3,3.6-1.8
		c2.8-1.2,4.6-3.4,5.6-6.2c1.4-4.1,1.6-8.4,2.1-12.7c0.3-2.9,0.6-5.9,1.3-8.8c1.5-6.3,5-11.5,9.8-15.9c3.8-3.5,8.2-6.4,12.6-9.2
		c3.3-2.1,6.6-4.3,9.8-6.4c2.7-1.8,4.6-4.2,5.9-7.1c0.8-1.9,1.6-3.8,2.4-5.7c2.2-5.1,6.1-8.4,11.5-9.5c2.5-0.5,5-1,7.6-1.3
		c3.5-0.4,6.7-1.4,9.7-3.3c4.1-2.7,8.1-5.5,12.2-8c7.6-4.8,15.8-8,24.5-10.2c3.2-0.8,6.5-1.7,9.7-2.7c6.4-1.9,11.7-5.7,15.6-11
		c2.9-4,5.6-8.2,8-12.5c5.4-9.6,10.6-19.4,16-29c1.9-3.4,4.2-6.6,6.7-9.6c2.7-3.4,6.4-5.3,10.7-5.7c6.1-0.5,13.3,3.7,13.7,12.4
		c0,1.1,0,2.3,0.2,3.3c0.4,2.2,1.6,3,3.8,2.4c1.8-0.5,3.6-1.2,5.4-2c1.2-0.6,2.4-1.4,3.4-2.2c4.6-3.5,9.4-6.3,15.5-6.9
		c0.3-1.9,0.7-3.8,0.9-5.7c1.5-12.1,6.1-22.9,13.5-32.7c1.3-1.7,2.4-3.6,3.6-5.4c1.4-2.2,1.6-4.6,1-7.2c-0.6-2.7-1.3-5.3-1.7-8
		c-1.1-7.2,0.7-14,3.6-20.5c1-2.2,2-4.3,2.9-6.6c0.7-1.8,1.4-3.7,1.9-5.7c0.8-3.1,0.1-5.9-2.4-8c-1.3-1.1-2.6-2.2-3.9-3.2
		c-5.4-4.2-7.6-9.8-7.6-16.6c0-4.2-0.3-8.3-1.8-12.2c-2.5-6.5-4.9-13-7.4-19.5c-1.3-3.3-3.1-6.2-5.8-8.4c-2-1.7-2.7-3.8-2.6-6.4
		c0.1-11.2,0-22.4,0-33.6c0-21.7,0-43.4,0-65c0-1,0-1.9,0-3.2c-4.9-1.8-7.9-5.9-11-10.1c-1.1,0.3-2.1,0.6-3.2,0.9
		c-3.5,1-7.1,1.1-10.7,0.2c-7.3-1.9-14.6-4.1-21.5-7.3c-6.4-3-12-7-16.3-12.7c-1.6-2-3.5-3.1-6.2-3.1c-13.1-0.1-26.2-0.3-39.3-0.4
		c-1.9,0-3.8,0.2-5.7,0.4c0.1,3.5,0.3,6.9,0.2,10.3c-0.2,6.6-2.4,12.4-7.3,16.9c-5.4,5-11.7,6.8-18.8,4c-4.5-1.8-7.5-5.1-9.5-9.4
		c-3.1-6.9-3.6-14-1.8-21.3c0.6-2.6,1.8-5,3.9-6.8c1.9-1.7,4.2-1.8,5.8-0.3c1.6,1.5,1.8,4.1,0.3,5.9c-1.7,1.9-2.2,4-2.4,6.4
		c-0.2,3.4-0.3,6.9,0.9,10.2c0.5,1.5,1.2,3,2,4.3c3,4.8,8.8,4.7,12.2,2.3c4.1-2.9,6-7,6.4-11.8c0.2-2.8-0.1-5.6-0.4-8.4
		c-0.4-3.4-2-6.2-4.7-8.3c-1.6-1.3-3.4-2.5-5-3.8c-3.2-2.6-6.5-5.2-9.5-8.1c-6.3-6.1-8.4-13.8-7.6-22.4c0.4-4.1,1.3-8,3-11.8
		c3.7-8.1,11-12.4,19.7-11.4c6,0.7,10.2,4,12.5,9.5c1.7,3.9,2.1,8,1.8,12.2c-0.1,2-0.3,4-0.8,5.9c-0.5,2.1-2.6,3.3-4.6,3
		c-2.1-0.4-3.6-2.3-3.5-4.5c0-0.3,0.1-0.6,0.1-0.9c0.1-2.7,0.4-5.4,0.2-8.1c-0.1-1.7-0.7-3.5-1.4-5c-1.3-2.7-3.6-4-6.6-3.9
		c-3.8,0.1-6.8,1.7-8.8,4.9c-0.8,1.3-1.4,2.7-1.9,4.1c-1.2,3.7-1.9,7.4-1.5,11.3c0.4,4.4,2.1,8.2,5.3,11.3c2.7,2.5,5.6,4.8,8.4,7.1
		c0.8,0.7,1.8,0.8,2.9,0.8c10.1-0.4,20.1-0.9,30.2-0.9c9.6,0,19.2,0.5,28.8,0.9c5.3,0.2,9.8,2.2,13.1,6.5c5.6,7.1,13,11.5,21.5,14
		c1.9,0.6,3.8,1.2,5.7,1.8c2.7,0.8,5.3,0.9,8.1,0.4c1.3-0.2,2.5-0.6,3.8-0.7c6.1-0.7,11.1,1.3,14.8,6.2c2,2.6,4.1,4,7.5,4
		c4.1,0.1,6.6,3.1,6.8,7.3c0,0.8,0,1.6,0,2.4c0,33.4,0,66.9,0,100.3c0,2.8,0.8,5,2.5,7.3c1.9,2.6,3.4,5.4,4.6,8.4
		c2.9,7,5.5,14.1,8.3,21.2c2.1,5.2,2.9,10.6,2.5,16.2c-0.2,2.5,0.6,4.6,2.6,6.2c0.8,0.7,1.6,1.4,2.4,2c7.2,5.1,9.6,12.2,8.9,20.7
		c-0.4,5.6-2.5,10.5-4.8,15.5c-0.5,1-1,2-1.5,3c-2.7,5.3-3.3,10.7-1.7,16.5c1,3.8,1.7,7.6,1.3,11.6c-0.3,2.8-1,5.5-2.5,8
		c-2.2,3.6-4.3,7.3-6.7,10.8c-4.2,6.2-7.7,12.8-8.9,20.3c-0.6,4.1-0.6,8.3-0.9,12.4c-0.1,1.8,0,3.7-0.4,5.5
		c-0.9,4.1-4.5,6.4-8.7,5.7c-0.9-0.2-1.9-0.4-2.8-0.7c-2.5-1.1-4.8-0.8-7.1,0.7c-2.8,1.8-5.6,3.6-8.5,5.5c-5.1,3.3-10.7,5-16.8,4.5
		c-7.3-0.6-12.4-4.3-15.2-11.1c-0.2-0.5-0.4-1-0.6-1.6c0-0.1-0.1-0.1-0.3-0.4c-0.8,1.2-1.5,2.3-2.2,3.5
		c-6.4,11.4-12.7,22.8-19.1,34.1c-3.2,5.8-7.3,10.9-12.3,15.2c-6.6,5.7-14.2,9.2-22.6,11.1c-8.6,1.9-17.1,4.3-24.5,9.3
		c-3.7,2.4-7.3,4.9-10.9,7.4c-5.7,3.9-11.9,6.1-18.9,6c-0.6,0-1.3,0.1-1.9,0.1c-1.9,0.1-3.1,1.1-3.7,2.9c-0.5,1.5-1.1,3-1.7,4.5
		c-2.7,6.1-6.8,11-12.4,14.6c-5.2,3.4-10.4,6.8-15.8,10.1c-6.5,4-9.7,9.9-10.1,17.5c-0.2,4.1-0.6,8.1-1.3,12.1
		c-1.2,6.6-4.1,12.4-9.4,16.8c-0.2,0.2-0.4,0.5-0.7,0.7c0.1,0.3,0,0.7,0.2,0.9c1.8,3.5,1.8,7.1,1,10.8c-1.3,5.6-2.1,11.2-1.5,16.9
		c0.6,5.8,2,11.5,3.9,17c2.4,6.8,5.1,13.6,7.8,20.4c1.7,4.3,4.5,7.9,8,10.9c1,0.8,1.9,1.7,2.8,2.6c5.9,5.8,5.9,15.2-0.1,21.4
		c-5.8,6-12.8,8.4-20.9,6.1c-3.8-1.1-7.6-2.4-11.3-3.9c-6.1-2.5-12.2-4.2-18.8-4.4c-1.8-0.1-3.5,0.1-5.3,0.1c-2,0-4,0-6-0.3
		c-4.5-0.6-7.8-3.1-10-7c-0.2-0.4-0.5-0.8-0.8-1.4c-0.7,0.1-1.5,0-2.3,0.2c-5.7,1.1-11.1,0.1-16.4-2.2c-3.1-1.4-6.2-2.9-9.4-4.3
		c-3.4-1.6-6.9-2.4-10.7-2.3c-1.8,0-3.7-0.1-5.5-0.3c-4.2-0.4-7.1-2.6-9.2-6.1c-1.4-2.3-2-4.9-2.5-7.5c-0.1-0.4-0.1-0.8-0.1-1.2
		c-0.6-3.7-1.1-3.1-3.6-3.1c-4.7,0.1-8.5-2-11.6-5.3c-3.1-3.3-4.6-7.3-5.3-11.6c-0.5-3.2-0.8-6.5-1.5-9.7c-0.4-2.1-1-4.3-2.1-6.1
		c-4.1-6.9-4.5-14-2.4-21.5c0.5-1.9,1-3.9,1.6-5.8c0.9-3.1,0.2-5.9-1.6-8.4c-1.2-1.7-2.6-3.2-4.1-4.7c-2.6-2.7-5.3-5.3-8-8
		c-3.6-3.6-6.5-7.7-8.7-12.3c-0.4-0.9-0.8-1.7-1.3-2.5c-1-1.6-2.4-2.6-4.4-2.5c-9.7,0.6-16.8-4.4-22.7-11.4
		c-7.1-8.4-12.3-17.9-16.4-28c-3.6-8.9-5.8-18.1-7.2-27.5c-0.8-5.2-3-9.5-7.5-12.3c-9.8-6.1-17.3-14.4-23.4-24
		c-2-3.2-4.2-6.2-6.4-9.3c-1.9-2.7-3.8-5.3-6-7.8c-4.4-5.1-9.9-8.2-16.8-8.8c-4.7-0.4-8.7-2.5-12.4-5.3c-2.5-2-5-4-7.7-5.7
		c-7.8-5.1-16.4-7.5-25.7-6.8c-12.3,0.9-20.7,7.3-25.3,18.7c-4.1,10-7.2,20.3-9.6,30.9c-1,4.4-2.3,8.6-4.3,12.7
		c-2.7,5.7-7.2,8.5-13.5,8.5c-6.6,0-12.4-2.2-17.3-6.6c-1.7-1.5-3.3-3.1-4.8-4.7c-3.7-4-8.2-6-13.6-6c-2.2,0-4.3,0-6.5-0.3
		c-4.8-0.7-8.6-3.4-11.5-7.2c-1.4-1.9-2.7-4-3.9-6c-1.8-3-4.1-5.3-7.2-6.8c-1.7-0.8-3.5-1.6-5.2-2.4c-6.5-2.9-11.5-7.4-14.9-13.7
		c-6.3-11.4-11.7-23.3-17.3-35.1c-2.7-5.7-5.4-11.4-8.2-17.1c-2.5-5-5.5-9.8-9.4-13.9c-2.1-2.2-4.6-4-7.3-5.4
		c-2.4-1.2-4.8-2.2-7.1-3.6c-2.3-1.3-4.4-2.9-6.5-4.5c-2.9-2.2-4.3-5.3-4.7-8.9c-0.2-1.6-0.5-3.2-0.8-4.7c-0.4-2.1-1.6-3.6-3.8-4.2
		c-2.1-0.6-4.1-1.3-6.2-1.9c-7.3-1.8-12.6-6-16-12.6c-0.7-1.4-1.4-2.9-2-4.3c-1.5-3.5-4-6.1-7.5-7.8c-3.1-1.5-6.2-2.9-9.3-4.5
		c-1.8-0.9-3.6-1.9-5.1-3.1c-3.3-2.5-5.5-5.9-6-10.1c-0.8-6.5-4.2-11-9.7-14.3c-4.5-2.6-8.3-6-10.7-10.7c-1.5-3-2.4-6.1-2.2-9.5
		c0.2-4.5,2.1-8,5.8-10.5c3.3-2.3,7-3.6,11-3.4c6.1,0.2,12.1,0.5,18.2,0.7c6.1,0.3,12.3,0.7,18.4,0.8c57.1,0.1,114.2,0,171.4,0
		c1,0,2,0,3.3,0c0.1-1.8,0.2-3.4,0.2-5c0-108.5,0-217,0-325.4c0-1.2,0-2.4,0.1-3.6c0.5-3.7,2.9-6.1,6.5-6.6c1-0.1,2.1-0.1,3.1-0.1
		c18.6,0,37.3,0,55.9,0.1c20.3,0.1,40.6,0.3,60.9,0.4c10.7,0.1,21.4,0.2,32.1,0.2c12.6,0.1,25.3,0.1,37.9,0.3c1.5,0,3.2,0.4,4.6,1
		c2.5,1.1,3.9,3.3,4.1,6c0.1,0.9,0,1.8,0,2.6c0,45,0,90.1,0,135.1c0,1.1,0,2.2,0,3.5c1.5,0,2.6,0,3.8,0c4.3,0,8.6,0,13,0
		c3,0,4.8,1.9,4.6,4.6c-0.2,2.2-1.9,3.7-4.5,3.8c-2.5,0.1-5,0-7.4,0c-4.2,0-8.5-0.1-12.7-0.1C442.8,190.6,442.5,190.7,442,190.8z"/>
	<path d="M634.7,252.3c-10.1,0-19.8,0-29.8,0c-0.3,1.6-0.6,3.2-0.8,4.8c-0.6,6.2-1.1,12.4-1.6,18.6c-0.2,2.3-1.2,3.8-3.1,4.4
		c-1.8,0.5-3.6-0.1-4.5-1.8c-0.5-0.9-0.7-2-0.7-3c0.2-3.9,0.3-7.8,0.8-11.7c1.5-12.6,3.4-25.2,6.2-37.6c2-9,4.3-17.9,7.6-26.4
		c1.3-3.4,2.9-6.6,5.2-9.4c1.8-2.3,3.9-4.2,7.1-4.4c2-0.1,3.8,0.5,5.3,1.7c1.9,1.5,3.3,3.4,4.4,5.6c2.5,4.8,4,9.9,5.2,15.1
		c4.4,18.4,7.2,37,7.3,56c0,3.7,0,7.3,0,11c0,0.4,0,0.8,0,1.2c-0.2,2.3-2,4-4.1,3.9c-2.5-0.1-4.2-2.3-4.1-4.2c0.1-4,0.1-8,0-12
		C635.2,260.4,634.9,256.5,634.7,252.3z M633.7,244c0-1.1,0.1-1.8,0-2.5c-1.2-10.2-2.9-20.2-5.3-30.2c-1.1-4.7-2.4-9.4-4.6-13.8
		c-0.6-1.1-1.1-2.3-2.6-3c-1,1.5-2,2.8-2.7,4.3c-1.3,2.7-2.5,5.4-3.4,8.2c-3.1,9.2-5.4,18.5-7.2,28c-0.5,2.8-1,5.6-1.6,8.6
		C615.6,244.2,624.6,243.9,633.7,244z"/>
	<path d="M553.4,222.4c0.5-0.8,0.9-1.5,1.2-2.1c6.2-11.1,12.4-22.2,18.6-33.3c0.3-0.6,0.6-1.1,1-1.6c1.3-1.6,3.5-1.9,5.2-1
		c1.8,1.1,2.7,3.2,1.9,5.2c-0.3,0.7-0.7,1.3-1,1.9c-7,12.7-14,25.3-21,38c-0.8,1.5-0.7,2.7,0,4.2c6.5,13,12.8,26.1,19.2,39.1
		c0.3,0.6,0.6,1.3,0.8,2c0.6,2-0.4,4.1-2.3,5c-1.9,0.9-4,0.2-5.2-1.6c-0.3-0.5-0.5-1-0.8-1.5c-5.4-11.2-10.8-22.4-16.3-33.7
		c-0.3-0.7-0.8-1.4-1.3-2.3c-0.6,1.2-1.2,2.1-1.7,3.1c-5,10.4-10,20.7-14.9,31.1c-0.3,0.6-0.6,1.3-0.9,1.9c-1.3,2.1-3.5,2.8-5.5,1.8
		c-2.1-1.1-2.9-3.1-1.9-5.5c1.6-3.8,3.4-7.6,5.2-11.3c4.6-9.5,9.3-18.9,14.1-28.3c0.7-1.4,0.8-2.5,0-4
		c-6.9-12.3-13.6-24.6-20.4-36.9c-0.3-0.6-0.7-1.1-0.9-1.7c-0.9-1.9-0.3-3.9,1.3-5.1c1.7-1.2,4-1,5.4,0.6c0.6,0.6,1,1.4,1.4,2.2
		c5.8,10.4,11.6,20.8,17.4,31.2C552.4,220.7,552.9,221.4,553.4,222.4z"/>
	<path d="M483.6,194.4c-0.4,12.5-0.9,24.9-1.3,37.5c0.7,0,1.2,0,1.7,0c4.3-0.1,8.6-0.2,12.9-0.3c1.7,0,3.1,0.6,4,2.2
		c1.3,2.5,0,5.4-2.7,6c-0.7,0.2-1.4,0.2-2.1,0.2c-3.7,0.1-7.3,0.1-11,0.2c-0.9,0-1.7,0.1-2.7,0.2c0,10.2,0,20.2,0,30.5
		c0.9,0,1.7,0.1,2.6,0.1c7,0,14.1-0.1,21.1-0.2c0.6,0,1.3,0,1.9,0c2.2,0.2,3.7,1.8,3.7,4c0,2.3-1.5,4.1-3.7,4.2
		c-1.8,0.1-3.7,0.1-5.5,0.1c-7.9,0.1-15.8,0.1-23.7,0.2c-0.4,0-0.8,0-1.2-0.1c-2-0.3-3.3-1.7-3.4-3.7c-0.1-1.5-0.1-3-0.2-4.5
		c-0.1-6.7-0.2-13.4-0.1-20.1c0.3-19.8,0.6-39.6,1.9-59.4c0-0.4,0.1-0.8,0.1-1.2c0.4-2.9,1.6-4,4.6-4.2c2.2-0.1,4.3-0.2,6.5-0.2
		c7.3,0,14.5,0,21.8,0c0.2,0,0.5,0,0.7,0c2.5,0.1,4.1,1.7,4.2,4c0.1,2.4-1.7,4.1-4.3,4.2c-2,0.1-4,0-6,0.1c-5.9,0-11.8,0-17.7,0
		C484.9,194.2,484.5,194.3,483.6,194.4z"/>
</g>
</svg>
