<?xml version="1.0" encoding="utf-8"?>
<!-- Generator: Adobe Illustrator 23.0.4, SVG Export Plug-In . SVG Version: 6.00 Build 0)  -->
<svg version="1.1" id="Layer_1" xmlns="http://www.w3.org/2000/svg" xmlns:xlink="http://www.w3.org/1999/xlink" x="0px" y="0px"
	 viewBox="0 0 864 864" style="enable-background:new 0 0 864 864;" xml:space="preserve">
<g>
	<path d="M703.7,31.5c-3.8,0-7.3,0-10.8,0c-0.8,0-1.6,0-2.4-0.1c-1.7-0.2-2.7-1.4-2.9-3c-0.1-1.6,0.8-3,2.4-3.5
		c0.6-0.2,1.3-0.2,1.9-0.2c10.8,0,21.6,0,32.4,0c0.5,0,1,0,1.4,0.1c1.9,0.3,3.1,1.7,3,3.5c-0.1,1.8-1.3,3.1-3.2,3.2
		c-2.1,0.1-4.2,0-6.2,0c-2.7,0-5.4,0-8.4,0c-0.8,6.7-0.9,13.4-1.2,20.2c1.2,0.1,2.1,0.2,3.1,0.2c4.1,0,8.2,0.1,12.2,0
		c3.4-0.1,5.6,1.5,6.9,4.5c1.3,2.9,2.1,5.9,2.3,9c0.4,5,1.3,9.8,3.2,14.4c1.3,3.1,1.8,6.4,1.8,9.8c-0.1,3.7-1.3,6.9-3.7,9.7
		c-1,1.2-2.1,2.4-3.2,3.5c-2.8,2.8-4.4,6.3-4.7,10.2c-0.4,6.1-2.9,11.2-7.5,15.3c-1.5,1.3-2.8,2.8-4.2,4.3c-1.6,1.8-2.3,3.8-1.4,6.2
		c0.8,2,0.4,3.7-0.8,5.4c-1,1.4-1.2,2.9-0.8,4.6c0.6,2.5,1.7,4.8,3.3,6.9c3.7,4.6,6.2,9.8,8,15.5c1.3,4.4,2.8,8.7,4.1,13
		c1.7,5.5,2.3,11.1,1.2,16.8c-0.9,4.2-2.9,7.6-6.3,10.2c-0.2,0.1-0.4,0.3-0.6,0.4c-2.7,1.8-3.5,4.1-2.5,7.2c0.7,2.2,0.9,4.5,1.1,6.8
		c0.2,3.4-1.2,6.2-3.7,8.5c-1.4,1.2-2.8,2.4-4.3,3.4c-4.2,3-7.8,6.6-10.8,10.8c-2.8,4-5.8,7.8-8.6,11.8c-3.8,5.4-9,8.5-15.6,9.1
		c-1.1,0.1-2.2,0.3-3.3,0.5c-7.2,1.5-11.7,5.9-13.7,12.9c-1.2,4.4-3.8,7.7-7.9,9.7c-3.7,1.8-7.6,3-11.8,2.9
		c-4.8-0.1-9.6-0.1-14.4-0.4c-4.4-0.2-8.2,0.9-11.6,3.6c-4.7,3.7-8.7,8-12.7,12.3c-1,1.1-1.3,2.4-0.8,3.8c1.9,5.2,1.8,10.5,0.7,15.8
		c-0.9,4.7-0.5,9.2,0.7,13.8c2.3,8.1,3.4,16.3,3.1,24.7c-0.4,12.1-3.6,23.3-11,33.1c-1.4,1.8-2.6,3.7-3.8,5.5
		c-1.3,2-1.8,4.1-1.1,6.4c1.5,4.9,0.6,9.5-2.3,13.7c-5,7.2-9.8,14.6-14.9,21.8c-2.3,3.3-3.4,6.8-2.4,10.8c1.2,5.2,0.6,10.3-1.3,15.3
		c-1.7,4.4-3.3,8.8-5,13.2c-0.7,2-2.3,3.2-3.9,4.4c-5.2,3.6-9.7,7.9-13.4,12.9c-4.6,6.2-7.5,13.1-9.4,20.6
		c-0.9,3.6-1.8,7.3-2.8,10.9c-1.3,4.9-3.8,9.1-7.4,12.7c-2.8,2.7-4.9,5.9-6.2,9.6c-1,2.8-1.9,5.6-2.8,8.4c-0.6,1.6-0.4,3.1,0.7,4.5
		c4.5,5.8,5.4,12.4,3.8,19.3c-2,8.5-4.4,17-6.7,25.5c-0.3,1.2-0.7,2.3-0.9,3.5c-0.6,2.6-0.5,5.1,1,7.4c2.1,3.2,2.5,6.7,1.6,10.4
		c-1.8,7-3.5,14-5.3,20.9c-0.3,1.2-1,2.6-2,3.4c-1.7,1.5-2.6,3.2-2.4,5.2c0.7,6.9-1.3,13.3-2.8,19.8c-0.2,0.9-0.4,1.7-0.6,2.6
		c-0.4,2,0.1,3.8,1.5,5.3c0.5,0.5,1,1,1.5,1.5c3.4,3.4,4.2,7,2.3,11.4c-0.9,2.1-1.2,4-0.7,6.2c0.7,3.2-0.3,6.2-2.4,8.7
		c-0.9,1.1-1.9,2.2-2.8,3.3c-2,2.3-2.3,4.8-0.8,7.5c0.8,1.4,1.5,2.8,2.2,4.2c1.9,3.9,1.6,6.9-1.4,10.1c-2.3,2.5-4.5,5.2-6.1,8.2
		c-1.8,3.1-4.5,5.1-7.9,6.3c-1,0.4-2.1,0.7-3.2,1.1c-0.2,3.1-0.4,6-0.5,9c-0.2,4.5-1.1,8.6-3.9,12.3c-2.7,3.5-3,7.7-2.2,11.9
		c0.9,4.5,2,8.9,2.9,13.3c0.5,2.2,1.7,3.5,3.8,4.1c4.8,1.2,8.6,4.1,11.7,8c2.2,2.8,3.3,6,3.3,9.6c0,4-1.8,7.1-5.4,8.9
		c-2.7,1.4-5.5,2.1-8.6,2c-7.3-0.2-14.6-0.4-21.8-0.7c-10.2-0.4-20.5-0.8-30.7-1.3c-17.5-0.7-35-1.5-52.5-2.2
		c-8.6-0.4-17.3-0.7-25.9-1c-14.8-0.5-29.6-1-44.4-1.4c-5.4-0.1-10.7-0.1-16.1,0c-4.2,0.1-7.2-1.7-9.2-5.3
		c-3.3-5.7-4.4-11.8-2.5-18.2c0.7-2.3,0.7-4.6,0.2-6.9c-0.3-1.4-0.5-2.8-0.7-4.2c-0.4-2.7,0.2-5.3,2-7.4c1-1.2,1.4-2.4,1.3-4
		c-0.6-25.6,0.5-51.2,1.2-76.8c0.6-23.1,1.4-46.2,1.9-69.3c0.5-24.6,0.8-49.3,1.2-73.9c0-2.3,0.1-4.6,0.2-7c0-1.9-0.6-3.4-2.1-4.6
		c-5.2-4.2-8.4-9.6-9.8-16c-0.1-0.6-0.4-1.2-0.6-1.9c-3.1,0.2-5.3,1.5-6.4,4.3c-0.8,1.8-1.3,3.6-1.9,5.4c-0.4,1.2-0.8,2.4-1.3,3.6
		c-1.5,3.3-4.1,5.4-7.7,6.2c-3.4,0.8-6.3-0.1-8.8-2.5c-2.7-2.8-4.1-6.2-4.8-10c-1-6.1-0.2-12.1,1.2-18.1c1.8-7.6,4.7-14.8,8.2-21.7
		c2.7-5.3,5.4-10.5,8-15.8c1.3-2.7,2.3-5.4,3.4-8.2c1-2.8,0.6-5.3-1.2-7.7c-0.4-0.4-0.6-0.9-1-1.3c-4.9-5-5.7-11.2-4.3-17.6
		c1.1-5.2,0.5-10.1-1.2-15.1c-1.4-4-2.8-8-3.8-12.1c-0.6-2.6-0.6-5.4-0.6-8.1c-0.1-3.8,0-7.5,0.1-11.3c0-1.5-0.4-2.5-1.9-3.2
		c-3.9-1.9-5.8-5.3-5.7-9.5c0.1-4.5,0.7-9.1,1.1-13.6c0.7-6.7,3.2-12.7,6.7-18.3c2.5-3.9,4.7-8,5.6-12.6c0.6-3.2,1.1-6.4,0.5-9.5
		c-1.1-5.7,0.8-10.4,4.3-14.6c1.9-2.3,4.1-4.3,6.2-6.3c2.2-2.1,4.5-4.1,6.8-6c2.7-2.3,3.4-5.1,2.4-8.4c-2.6-8.2-2.3-16.4,0-24.6
		c1.2-4.2,2.4-8.3,3.7-12.4c1.6-5,4.5-8.9,8.9-11.8c2.6-1.7,3-2.9,2.4-5.9c-0.5-2.5-1.5-4.7-3-6.8c-3-4.1-5.9-8.2-8.8-12.3
		c-1.8-2.5-3.2-5.1-3.6-8.3c-0.1-0.9-0.7-1.8-1.3-2.5c-1.8-2.3-1.8-4.7-0.6-7.2c1.3-2.6,3.3-3.8,6.2-3.8c4.6,0,9.3,0,13.9,0
		c1.9,0,3.6-0.5,5-2.3c-0.6-0.5-1.2-1-1.9-1.4c-8-4.6-9.9-11.6-8.5-19.9c0.9-5.1,2.3-10.1,3.3-15.2c0.5-2.4,0.7-4.9,0.9-7.4
		c0.6-7.5,3-14.4,6.4-20.9c1.7-3.2,3.4-6.3,5.2-9.5c0.7-1.3,0.8-2.4,0.2-3.8c-1.7-3.7-1.7-7.6-1.6-11.5c0.1-4.3,0.1-8.6,0.3-13
		c0.2-5.8-1.6-11-5.2-15.6c-3.2-4.1-4.3-8.7-3.1-13.8c0.6-2.5,1.5-5.1,2.8-7.4c3.4-6.3,8.7-11.1,14.6-15c3.2-2.1,6.7-2.3,10.3-0.6
		c0.9,0.4,1.8,0.8,2.7,1.2c2-1.1,3.3-2.8,4.1-4.9c1.2-3.2,3.4-4.6,6.7-5c15.3-1.9,30.5-4.6,46-5.3c11.2-0.5,22.4-0.4,33.6-0.5
		c6.2,0,12.5,0.2,18.7,0.2c0.5,0,0.9-0.1,1.6-0.1c0.1-0.8,0.2-1.6,0.3-2.4c0.2-3.4,0.3-6.7,0.4-10.1c0-0.9,0.2-1.8,0.4-2.6
		c0.5-1.7,1.7-2.4,3.2-2.3c1.6,0.1,2.8,1.2,3.1,2.9c0.1,0.9,0.1,1.8,0.1,2.6c0,7.4-0.2,14.9,0,22.3c0.2,7.8,1,15.5,2.9,23
		c0.6,2.6,1.6,5,2.5,7.5c0.2,0.4,0.4,0.9,0.7,1.3c1.2,1.7,2.4,1.7,3.5,0c0.4-0.6,0.7-1.3,1-1.9c4.6-10.3,7.4-21.1,9.5-32.1
		c1.4-7.2,2.3-14.5,3.4-21.8c0.3-2.3,1.3-3.6,3-3.7c2.1-0.2,3.7,1.2,3.7,3.5c0,2.1-0.2,4.2-0.5,6.2c-1.9,13.3-4.3,26.5-8.6,39.3
		c-1.3,3.8-2.8,7.5-4.6,11.1c-1,2.1-2.4,4-4,5.7c-2.5,2.8-5.8,3-8.8,0.8c-1.9-1.4-3.3-3.3-4.3-5.4c-2.2-4.4-3.5-9.1-4.2-14
		c-0.7-4.8-1.2-9.7-1.9-14.5c-0.1-0.5-0.2-0.9-0.3-1.5c-0.8-0.1-1.6-0.2-2.4-0.2c-15.6-0.7-31.2-0.6-46.8,0.1
		c-13.7,0.6-27.3,1.9-40.8,4c-0.6,0.1-1.3,0.2-1.9,0.2c-2.2,0.2-3.9,1.2-5.3,2.9c-1.4,1.7-2.8,3.5-4.5,5c-1.9,1.6-3.9,3-6,4.2
		c-3.1,1.8-6.3,1.6-9.3-0.5c-0.3-0.2-0.7-0.4-1.2-0.7c-3.1,2.7-6,5.5-7.8,9.2c-0.9,1.9-0.9,3.7,0.4,5.4c0.1,0.1,0.2,0.3,0.3,0.4
		c5.7,7.1,7.7,15.3,7.5,24.2c-0.1,4.2-0.3,8.3-0.6,12.5c-0.2,2.7,0.6,4.6,3,6c2.5,1.5,3.2,4.1,2.2,6.9c-0.3,0.8-0.7,1.6-1.2,2.3
		c-2.6,4.5-5.2,9-7.9,13.4c-4.5,7.3-6.6,15.4-6.9,23.9c-0.2,4.5-1.1,8.9-2.7,13.1c-0.6,1.6-1.1,3.3-1.5,5c-0.6,2.5,0,3.7,2.1,5
		c0.9,0.5,1.8,1,2.7,1.5c4.8,3,7.1,8,6.1,13.6c-1.1,6-4.4,10.6-10.3,12.5c-3.4,1.1-6.1,2.9-8.5,5.7c0.2,0.4,0.5,1,0.9,1.5
		c1.7,2.5,3.5,5,5.2,7.5c3.8,5.6,5.6,11.8,5,18.6c-0.4,4.8-2.3,8.8-6.6,11.3c-2.5,1.5-4.5,3.5-5.4,6.2c-1.6,4.9-3.1,9.9-4.3,15
		c-1.1,4.6-0.4,9.2,0.8,13.7c0.7,2.4,1.1,4.8,1.2,7.3c0.2,5.4-2,9.8-5.7,13.5c-2.2,2.2-4.6,4.2-6.9,6.3c-2,1.8-4,3.7-6,5.5
		c-1.5,1.4-2.1,3.1-1.9,5.2c1,10.7-1.6,20.6-7.1,29.8c-2.3,3.8-4.6,7.8-5.3,12.3c-0.5,3.1-0.5,6.2-0.7,9.3c-0.1,1.1,0.4,1.8,1.3,2.4
		c3.9,2.4,5.3,6.1,5.3,10.4c0.1,4.2,0.1,8.5,0,12.7c-0.1,6.5,1.1,12.7,3.9,18.6c3,6.4,3.6,13,1.9,19.9c-0.2,0.8-0.3,1.6-0.5,2.4
		c-0.4,2.4,0.1,4.5,1.9,6.2c6,5.8,6.7,12.8,4.9,20.4c-1,4.5-2.9,8.6-5,12.7c-3,5.9-6,11.8-9,17.7c-2.2,4.3-4,8.7-5.1,13.4
		c-0.2,1-0.3,2-0.5,3.1c1.2,0.1,1.6-0.7,2.1-1.2c4.7-4.4,10.3-6.3,16.7-5.8c5.3,0.4,8.8,3.1,10.3,8.2c0.5,1.6,0.8,3.3,1.3,4.9
		c1.2,4.4,3.6,7.8,7.7,10c3.2,1.7,4.6,4.4,4.6,8.1c-0.2,12-0.3,24-0.5,36c-0.2,14.8-0.4,29.6-0.8,44.4c-0.6,25.3-1.3,50.5-1.9,75.8
		c-0.5,21.9-0.9,43.8-1.3,65.7c-0.1,3.6,0,7.2,0.2,10.8c0.1,3.8-0.3,7.3-2.6,10.5c-0.4,0.6-0.5,1.6-0.4,2.2
		c1.1,4.5,0.4,8.9-0.8,13.3c-0.6,2-1,4.1,0.3,6.3c0.9,0,1.9,0.1,2.9,0.1c22.9-0.2,45.7,0.9,68.6,1.8c13.7,0.6,27.5,1.1,41.2,1.6
		c17.3,0.7,34.7,1.5,52,2.2c4.1,0.2,8.2,0.2,12.2,0.5c1,0.1,5.1-1,4.2-2.6c-0.2-0.3-0.5-0.5-0.8-0.7c-3.7-2.3-6.3-5.6-8.1-9.5
		c-2.1-4.6-3-9.6-3.8-14.6c-0.7-4.3-1.1-8.6-0.5-12.9c0.5-3.5,1.3-6.8,3.6-9.5c3.2-3.8,3.8-8.2,3-12.9c-0.3-1.9-0.8-3.8-1.1-5.7
		c-0.2-1.2-0.4-2.4-0.3-3.6c0.2-3.6,2.7-6,6.3-6.2c1.8-0.1,3.7-0.2,5.5-0.3c1.7-0.1,2.9-0.9,3.7-2.3c1.2-2.1,2.4-4.2,3.4-6.3
		c0.3-0.6,0.2-1.5,0-2.2c-0.9-2.9-1.6-5.8-1.7-8.9c-0.1-5.4,1.6-10.1,5.1-14.1c1-1.2,1.5-2.3,1.2-3.9c-0.4-2.3,0-4.5,0.8-6.6
		c0.4-1,0.4-1.9-0.5-2.8c-4.2-4.6-4.9-10.1-3.9-15.9c0.8-4.8,2-9.6,2.8-14.4c0.5-2.9,0.6-5.9,0.8-8.8c0.2-4,1.4-7.5,3.9-10.6
		c0.8-1,1.3-2.2,1.7-3.4c1.1-4.2,2.1-8.4,3.2-12.5c0.5-1.9,0.3-3.6-0.5-5.4c-2.4-5-2.5-10.1-1.1-15.4c2.6-9.8,5-19.7,7.5-29.5
		c0.6-2.4,0.3-4.8-0.9-6.9c-0.6-1.1-1.3-2.2-2-3.3c-2.2-3.7-2.7-7.6-1.9-11.8c1.8-9.1,5.5-17.3,11.9-24.3c3.6-4,5.7-8.7,6.6-13.9
		c2-11.3,6.1-21.7,13.1-30.8c3.4-4.4,7.2-8.4,11.6-11.8c3.1-2.5,5.4-5.4,6.5-9.2c0.9-2.9,2.4-5.6,2.5-8.7c0-2.4,0.1-4.8-0.4-7.1
		c-1.1-5.1-0.5-9.7,2.4-14c5.1-7.6,10.2-15.3,15.4-22.9c1.8-2.6,2.5-5.1,1.9-8.3c-0.9-4.5-0.1-8.9,2.4-12.9c1.8-2.8,3.5-5.6,5.4-8.2
		c5.8-7.7,8.3-16.4,8.5-26c0.1-5.6-0.6-11-1.9-16.4c-0.7-3-1.4-5.9-2-8.9c-1-4.8-0.6-9.6,0.4-14.3c0.8-3.4,0.6-6.8-0.3-10.2
		c-0.3-1.1-0.5-2.2-0.8-3.3c-0.9-4-0.1-7.7,2.3-10.9c4.1-5.5,8.8-10.6,14.2-14.9c7.8-6.3,16.6-9,26.6-7.9c2.9,0.3,5.9,0.3,8.9,0.4
		c0.9,0,1.9-0.1,2.9-0.3c2.7-0.4,4.4-1.9,5.3-4.5c1.3-3.9,3.4-7.4,6.1-10.5c5.1-5.9,11.5-9.6,19.3-10.7c0.7-0.1,1.4-0.2,2.1-0.3
		c3.5-0.5,6.1-2.2,8.1-5c2.7-3.8,5.3-7.6,8.1-11.3c3.8-5.3,8.3-9.9,14.1-13.2c1.5-0.9,1.6-1.2,1.2-2.9c-0.4-1.5-0.8-2.9-1.1-4.4
		c-1.2-5.4,0.1-10.2,4.1-14.1c1.1-1.1,2.4-2.1,3.6-3.2c2.3-2.1,3.2-4.7,2.4-7.8c-1.5-5.4-2.9-10.8-4.5-16.2
		c-1.7-5.7-4.5-10.9-8-15.8c-4.2-5.9-5.4-12.4-3.8-19.4c0.3-1.2,0.5-2.4,0.4-3.6c-0.4-7.9,2.8-14,8.8-18.8c3.7-3,5.5-6.7,5.5-11.4
		c0-4.7,1.9-8.7,4.9-12.2c1.1-1.3,2.3-2.4,3.5-3.6c2.1-2.2,2.7-4.8,1.9-7.8c-1.3-4.4-2.5-8.8-3.8-13.1c-0.2-0.6-0.4-1.2-0.6-1.8
		c-1.3-3.3-2.6-4.7-6.5-4.2c-1.8,0.2-3.7,0.1-5.5,0.1c-0.1,0-0.1,0.1-0.5,0.3c-0.1,1.5-0.2,3.1-0.2,4.8c0,5.8,0.1,11.5,0.2,17.3
		c0,2.7-1.2,4.4-3.3,4.5c-2.1,0.1-3.4-1.5-3.5-4.2c-0.6-12-0.2-24,0.3-36c0.3-6.6,0.7-13.1,1-19.6C703.8,32.9,703.8,32.3,703.7,31.5
		z"/>
	<path d="M596.8,45.2c-0.4,0.7-0.8,1.4-1.2,2.2c-2.2,4.4-4.3,8.8-6.4,13.1c-0.4,0.8-0.8,1.6-1.4,2.2c-1.5,1.8-3.9,1.7-5.3-0.2
		c-0.5-0.6-0.8-1.4-1.2-2.1c-2-4.2-4-8.4-6-12.5c-0.4-0.8-0.8-1.5-1.2-2.2c-0.2,0-0.3,0.1-0.5,0.1c0,0.5-0.1,1-0.1,1.5
		c-0.1,13.8-0.3,27.7-0.4,41.5c0,0.6,0,1.1,0,1.7c-0.2,1.7-1.3,2.8-2.9,3c-1.7,0.2-3.2-0.8-3.6-2.5c-0.2-0.7-0.2-1.4-0.2-2.1
		c0.1-19.3,0.3-38.7,0.5-58c0-0.8,0.1-1.6,0.3-2.4c0.3-1.3,1.1-2.1,2.4-2.3c1.4-0.2,2.6,0.1,3.4,1.3c0.5,0.7,0.9,1.5,1.3,2.3
		c3.3,6.9,6.6,13.8,10,20.7c0.3,0.6,0.6,1.1,1.1,2.1c0.5-0.9,0.9-1.5,1.2-2.1c3.5-7.1,7-14.2,10.5-21.3c0.3-0.6,0.6-1.3,1-1.9
		c1-1.4,2.3-1.9,3.7-1.5c1.4,0.4,2.4,1.5,2.4,3.2c0.1,3,0.1,5.9,0.1,8.9c-0.1,12.2-0.1,24.3-0.2,36.5c0,5.1-0.1,10.2-0.2,15.3
		c0,2.2-1,3.4-2.7,3.7c-1.8,0.3-3.4-0.6-3.8-2.4c-0.3-1.1-0.3-2.4-0.2-3.6c0.1-13.5,0.2-27,0.4-40.5c0-0.5-0.1-1-0.1-1.6
		C597.1,45.3,597,45.2,596.8,45.2z"/>
	<path d="M657.8,55.4c-0.1,1.6-0.2,3.1-0.3,4.7c-0.2,9.7-0.3,19.3-0.5,29c0,0.6,0,1.1-0.1,1.7c-0.3,1.6-1.3,2.6-2.9,2.8
		c-1.6,0.2-2.9-0.5-3.4-2c-0.3-0.8-0.4-1.7-0.4-2.6c0.4-17.2,0.9-34.4,1.4-51.6c0.1-2.2,0.3-4.5,0.4-6.7c0-0.5,0.1-1,0.3-1.4
		c0.6-1.6,1.7-2.5,3.1-2.5c1.5,0,2.6,0.9,3.1,2.5c1.1,3.8,2,7.6,3,11.3c3.2,11.4,6.4,22.8,9.7,34.1c1,3.5,2.4,6.9,3.8,10.5
		c1.3-0.8,1.3-1.8,1.4-2.6c0.4-2.8,0.8-5.7,0.9-8.6c0.6-12.1,0.3-24.1-0.2-36.2c-0.1-3-0.3-5.9-0.3-8.9c0-2,0.7-3,2.3-3.5
		c1.9-0.6,3.6,0.3,4.1,2.1c0.2,0.8,0.3,1.6,0.4,2.4c0.7,14.3,1.1,28.6,0.5,42.9c-0.2,4.3-0.8,8.6-1.5,12.8c-0.3,1.6-1,3.2-1.9,4.6
		c-2.1,3.4-6.1,3.8-9,1c-2-2-3.4-4.4-4.3-7.1c-2.9-9-5.7-18-8.6-26.9c-0.2-0.7-0.4-1.3-0.7-2C658.1,55.4,657.9,55.4,657.8,55.4z"/>
	<path d="M540.8,64.4c1.2,0.8,1.9,1.3,2.7,1.8c5.6,3.7,8.7,8.9,9.2,15.5c0.2,3.1,0.3,6.2,0.1,9.3c-0.1,2.4-2,3.5-4.2,2.9
		c-1.3-0.4-2.1-1.2-2.3-2.5c-0.2-1.3-0.1-2.7-0.2-4.1c-0.2-2.4-0.1-4.8-0.6-7.1c-0.6-3.4-2.5-6-5.3-8c-2.2-1.5-4.5-3-7.5-3.6
		c-0.1,0.9-0.2,1.7-0.2,2.4c-0.2,6.3-0.3,12.6-0.5,18.9c0,0.9-0.1,1.8-0.4,2.6c-0.5,1.5-2.1,2.4-3.6,2.1c-1.5-0.2-2.6-1.4-2.7-2.9
		c-0.1-1-0.1-2.1,0-3.1c0.2-6.6,0.4-13.3,0.5-19.9c0.3-13,0.6-26,1-39c0.1-2.4,0.8-3.2,3.2-3.8c5.2-1.2,10.5-1.3,15.6,0.2
		c6.5,1.9,11.1,6,12.5,12.9c1,5-0.2,9.7-2.9,14c-2.8,4.4-6.8,7.6-11.5,9.9C543,63.4,542.1,63.8,540.8,64.4z M532.9,59.2
		c6-0.8,11.1-3.4,14.7-7.2c2.1-2.2,3.5-4.8,4-7.8c0.5-3.1-0.3-5.8-2.3-8.2c-3.3-3.8-11.7-5.1-15.6-3.3
		C533.4,41.4,533.1,50.2,532.9,59.2z"/>
	<path d="M273.3,172.4c-0.1-4.8,0.6-9.4,1.9-14c1-3.8,3-7,5.6-9.9c2.2-2.5,4.4-5.1,6.5-7.7c1.8-2.3,3.9-3.7,7-2.9
		c3.2,0.9,4.9,2.8,5.6,6.2c0.4,2.2,1,4.4,1.6,6.5c0.9,3.1,0.4,5.9-2.3,7.7c-4.5,2.9-5.6,7.6-6.7,12.2c-0.2,0.8,0.2,1.9,0.6,2.7
		c1.8,4.4,2.6,8.9,1.5,13.6c-0.3,1.5-0.8,3.1-1.6,4.5c-1.8,3.2-4.8,4.6-8.4,4.5c-3.5-0.1-5.8-1.9-7.4-4.9
		c-2.7-5.2-3.5-10.9-3.8-16.7C273.3,173.6,273.3,173,273.3,172.4z"/>
	<path d="M287.7,53.7c2.5-0.3,4.9-0.5,7.4-0.8c2.4-0.3,4.8-0.5,7.2-0.7c2.1-0.2,3.9,0.5,5.6,1.7c3.3,2.6,3.8,5.6,1.3,9
		c-1.4,1.9-3,3.8-4.6,5.5c-5.6,5.7-7.8,12.5-7.4,20.3c0.2,3.6,0.3,7.2,0.3,10.8c0,1.6-0.2,3.2-0.4,4.8c-0.9,5.6-7.6,6.9-11.1,4.4
		c-1.5-1.1-2-2.6-2.2-4.3c-0.4-3.4-0.9-6.8-1.1-10.3c-0.4-6.4-0.6-12.8-0.9-19.2c0-0.8-0.1-1.6,0.1-2.4c0.5-3-0.3-5.6-2.2-8
		c-1.8-2.2-1.9-4.7-0.6-7.2c1.4-2.6,3.5-4.1,6.6-3.9c0.7,0,1.4,0.1,2.2,0.2C287.7,53.6,287.7,53.7,287.7,53.7z"/>
	<path d="M642.8,55.5c0.1,7.2-0.4,14.4-1.8,21.5c-0.9,4.6-2.8,8.6-6.1,12c-5.3,5.6-12.4,5.2-17.1-0.9c-2.5-3.2-3.8-6.9-4.4-10.8
		c-1.9-12.4-2.2-24.8,0.7-37.2c0.8-3.4,2.2-6.7,4.2-9.6c1.8-2.5,4.1-4.5,7-5.6c4.4-1.6,8.2-0.3,11.3,3c3.2,3.4,4.7,7.6,5.2,12.2
		C642.4,45.2,642.8,50.3,642.8,55.5z M635.8,56.6c0-1.7,0-3.4,0-5c0.1-4.6-0.4-9.1-1.5-13.5c-0.4-1.8-1.4-3.6-2.4-5.1
		c-1.6-2.3-3.6-2.5-5.7-0.6c-1.3,1.2-2.5,2.7-3.4,4.3c-1.6,2.9-2.3,6.1-2.9,9.3c-1.6,9.6-1.5,19.3,0.1,28.9c0.5,2.9,1.5,5.8,2.7,8.4
		c1.7,3.5,5.5,3.7,8,0.6c0.2-0.3,0.5-0.6,0.7-1c1-2.5,2.3-5,2.9-7.6C635.8,69.1,635.9,62.9,635.8,56.6z"/>
	<path d="M495.8,66.1c0,7,0,13.6,0,20.5c0.9,0.1,1.9,0.3,2.9,0.3c4.3,0,8.6-0.1,12.9-0.1c0.9,0,1.8,0.1,2.6,0.4
		c1.5,0.5,2.2,1.9,2,3.4c-0.2,1.4-1.2,2.5-2.6,2.8c-0.5,0.1-1.1,0.1-1.7,0.1c-6,0.1-12,0.1-18,0.2c-0.6,0-1.3,0-1.9-0.1
		c-2-0.3-3-1.3-3.1-3.3c-0.1-1.4-0.1-2.9-0.1-4.3c0.3-16.9,0.7-33.9,1-50.8c0-1.4,0.2-2.9,0.4-4.3c0.3-2.4,1.1-3.2,3.5-3.4
		c3-0.2,5.9-0.2,8.9-0.2c3.2-0.1,6.4-0.1,9.6-0.1c0.9,0,1.8,0,2.6,0.2c1.8,0.4,2.8,1.7,2.8,3.4c-0.2,3.5-4.2,3.1-6.7,3.1
		c-4.8,0-9.5-0.1-14.3,0.3c-0.3,8.4-0.6,16.6-0.9,25.1c1.5,0,2.8,0,4,0c1.7,0,3.4,0,5,0c2.9,0,4.3,1.2,4.2,3.4
		c0,2.1-1.4,3.3-4.1,3.3c-2.2,0-4.3,0-6.5,0C497.7,66.1,497,66.1,495.8,66.1z"/>
	<path d="M280,102.6c-0.1,3.3-0.2,6.6-0.4,9.8c-0.1,2.4-0.7,4.6-2.1,6.5c-3,4.4-9.1,4.4-12.1,0c-2.1-3-2.7-6.2-2.1-9.8
		c0.7-3.9,1.4-7.9,2-11.8c0.3-1.7,0.4-3.5,0.5-5.2c0.1-4.6,2.1-7.1,5.8-7.4c4.4-0.2,8.2,2.9,8.5,7.1c0.1,1.7,0,3.5,0,5.3
		c0,1.8,0,3.7,0,5.5C280.1,102.6,280,102.6,280,102.6z"/>
	<path d="M274.3,132.3c0-3.5,1.1-6.4,3.9-8.6c2.7-2.1,5.5-4.2,8.2-6.3c2.2-1.7,4.4-3.4,6.5-5.2c2.2-1.8,4.6-2.6,7.3-1.5
		c2.8,1.1,4.2,3.4,4.5,6.3c0.2,1.7-0.5,3.1-1.6,4.3c-2.8,3-5.8,5.7-9.3,7.9c-1.2,0.8-2.4,1.6-3.6,2.4c-1.3,0.8-2.2,1.9-2.8,3.4
		c-1.2,3.2-4.3,4.8-8,4C276.2,138.3,274.3,135.9,274.3,132.3z"/>
</g>
</svg>
