<?xml version="1.0" encoding="utf-8"?>
<!-- Generator: Adobe Illustrator 23.0.4, SVG Export Plug-In . SVG Version: 6.00 Build 0)  -->
<svg version="1.1" id="Layer_1" xmlns="http://www.w3.org/2000/svg" xmlns:xlink="http://www.w3.org/1999/xlink" x="0px" y="0px"
	 viewBox="0 0 864 864" style="enable-background:new 0 0 864 864;" xml:space="preserve">
<g>
	<path d="M507.4,543.8c2.7-3.3,5.3-6.2,7.1-9.8c0.9-1.8,1.6-3.6,2.5-5.5c0.5-1.2,1-2.4,1.6-3.5c2.2-3.9,5.9-5.5,10.4-4.6
		c4.4,0.9,8.8,1.7,13.2,2.6c1,0.2,2,0.5,3,0.8c4.3,1.3,8.1,3.4,10.9,7c1.1,1.4,2.5,2,4.2,1.9c0.6,0,1.3,0,1.9,0
		c66.2,0,132.3,0,198.5,0c0.5,0,1,0,1.4,0c1.2,0.1,1.9-0.3,2.4-1.4c0.4-0.9,1-1.7,1.5-2.4c2.8-3.9,6.6-5.9,11.3-6.3
		c0.5,0,1-0.1,1.4-0.1c0.1,0,0.1-0.1,0.6-0.2c0.2-2.8,0.5-5.6-0.5-8.7c-2.9-0.3-5.7-0.7-8.6-0.9c-7.3-0.5-14.1-2.8-20.7-5.7
		c-0.5-0.2-1-0.4-1.5-0.7c-4.8-2.7-10.1-3.8-15.6-4.3c-7.3-0.7-14.6-2-21.8-3.1c-3.2-0.5-6.3-1.1-9.4-1.8
		c-5.9-1.2-10.8-4.2-13.9-9.4c-2.3-3.9-5.2-5.9-9.9-5.7c-5.6,0.2-9.9-2.6-13-7c-5.4-7.7-9.5-16.2-10.9-25.6
		c-0.4-2.6-0.3-5.5,0.2-8.1c1.3-6.6,7-10.1,13.5-8.2c2.4,0.7,4.7,1.9,6.8,3.4c3,2.1,6.2,3.5,9.8,4.2c9.5,1.7,17.1,6.9,23.6,13.8
		c2.3,2.4,4.4,5,6.5,7.7c1.6,2.1,3.5,3.1,6.2,2.9c3.9-0.3,7.4,0.8,10.2,3.9c1.6,1.7,3.6,2.4,5.9,1.8c1.4-0.4,2.9-0.7,4.8-1.3
		c-2.8-1.8-5.3-3.1-7-5.3c-1.8-2.3-2.4-5-3-7.9c-1.9-0.3-3.8-0.6-5.7-0.9c-5.2-0.7-9.6-2.7-12.5-7.5c-1.3-2.2-3.3-3.3-6.1-3.1
		c-1.8,0.1-3.7-0.2-5.5-0.5c-4.2-0.9-7-3.4-8.4-7.4c-0.2-0.7-0.5-1.4-0.6-2.1c-0.7-3.2-2.6-5.3-5.7-6.6c-2.2-0.9-4.4-2-6.4-3.3
		c-5.5-3.8-8.8-8.8-7.8-15.8c0.6-4.3,2.9-7.3,7.3-8.6c1.8-0.5,3.6-1.3,5.3-2.1c4.8-2.1,9.2-1.6,12.9,2.4c1.5,1.6,3.5,2.1,5.6,2.2
		c2.9,0.1,5.9,0,8.8,0.5c5.1,0.8,9.2,3.6,12.2,7.8c1.6,2.3,3.1,4.7,4.4,7.1c1.6,3,3.8,4.8,7.1,5.4c5.1,0.9,10.2,1.9,15.3,2.8
		c0.2,0,0.5,0.1,0.7,0.1c2.7,0.1,3.8-1.1,3.1-3.6c-0.9-3.7-3-6.7-6-9.1c-1-0.8-2.3-1.2-3.5-1.5c-1.1-0.3-2.4-0.4-3.6-0.4
		c-6.6,0.2-11.5-2.9-15.5-7.8c-1.5-1.8-2.9-3.6-4.3-5.5c-1.4-1.8-3.1-2.4-5.3-1.9c-4.2,0.9-7.9-0.3-11.1-3.1
		c-4-3.6-8.1-7.3-12.2-10.8c-4.2-3.7-8.8-6.9-13.8-9.4c-2.9-1.4-5.1-3.6-6.8-6.2c-6.1-9.5,1-19.8,8.5-21.4c3-0.7,6.2-0.9,9.3-0.9
		c6.3,0.2,12.3,1.8,18.3,3.7c5.5,1.8,10.3,4.7,14.3,8.9c2,2,4.2,3.3,7.1,3.6c3.8,0.4,6.5,2.5,8.4,5.7c1.3,2.3,2.7,4.6,4.1,6.8
		c0.9,1.4,2,2.7,3.2,3.9c1.8,1.9,4.1,2.4,6.6,1.8c2.7-0.6,3.9-2.7,2.9-5.2c-0.4-1-1-2-1.7-2.9c-1.1-1.5-2.3-2.8-3.5-4.3
		c-2.5-3-4.8-6.2-6.5-9.7c-0.5-1-1-1.6-2.1-1.6c-0.5,0-0.9-0.2-1.4-0.2c-5.5-0.2-9.6-2.9-12.6-7.2c-2.2-3.1-4.9-4.7-8.6-5.4
		c-7.1-1.4-14.1-3-21.1-4.6c-12.2-3-22.2-9.3-28.9-20.2c-0.3-0.5-0.7-1-1.1-1.5c-0.2-0.2-0.4-0.5-0.8-0.8c-1.5,0.5-3,0.9-4.5,1.5
		c-2.9,1.1-5.8,2.4-8.6,3.6c-6.9,2.8-13.2,0.1-16-6.8c-2.1-5.2-1.9-10.3,0.2-15.4c1-2.6,2.3-5.1,3.7-7.5c3.3-5.6,6.8-11,10.2-16.5
		c2.7-4.3,6.1-7.8,10.8-9.8c1.7-0.7,1.7-0.8,1.4-2.8c-0.6-4.4-1.2-8.9-1.8-13.3c-0.2-1.4-1-2.2-2.2-2.5c-1.9-0.5-3.9-0.9-5.8-1.5
		c-4-1.2-8.1-2.5-12.1-3.8c-3.7-1.2-6.4-3.5-7.8-7.2c-0.5-1.3-1.4-1.8-2.7-2c-2.1-0.2-4.2-0.4-6.1-1c-4.9-1.4-7.6-4.7-8.5-9.7
		c-0.6-3.4-0.1-6.7,1.4-9.8c1.1-2.2,2.1-4.5,3.3-6.9c-5.6-1.6-11.1-2.8-16.9-3.2c-0.4,2-0.8,4-1.1,5.9c-0.8,5.5-3.6,9.3-8.8,11.3
		c-2.3,0.9-4.6,1.8-7,2.5c-2.7,0.8-5,0-7.1-1.9c-9.5-8.6-19-17.2-28.4-25.8c-0.6-0.5-1.2-1-2.1-1.8c-0.2,1.1-0.3,1.8-0.4,2.6
		c-0.2,3.7-2.1,6.6-5.2,8.4c-2,1.2-2.6,2.5-2.8,4.8c-0.3,3.9-1,7.8-1.7,11.6c-0.6,3.4-2.7,5.7-5.8,7.2c-1.1,0.6-2.3,1.2-3.4,1.8
		c-1.8,1-2.7,2.5-2.4,4.6c0,0.2,0,0.3,0,0.5c0.3,4.7-1.1,7.1-5.4,9.1c-1,0.5-2,0.9-3.1,1.3c-3,1-5.7,2.5-7.8,4.9
		c-1.3,1.5-3.1,2.2-5,2.5c-1.5,0.2-2.5,1-3.3,2.2c-2.7,4-5.5,7.8-7.3,12.3c-1.9,4.6-6.1,6-10.5,3.6c-2.3-1.2-4.5-2.7-6.9-4.2
		c-1.5,2.1-2.3,4.4-2.6,6.9c-0.2,2.1-0.2,4.3-0.2,6.5c0,3.8-1.5,6-5.1,6.9c-2.2,0.5-3.5,1.6-4.3,3.7c-0.6,1.6-1.6,3.1-2.5,4.7
		c-1.3,2.3-1.9,4.7-1.5,7.4c0.5,4-0.9,7.2-4.2,9.5c-2.6,1.8-5.2,3.5-7.8,5.2c-2.5,1.6-5.3,1.8-8.1,1.1c-3.2-0.9-6.5-1.8-9.7-2.8
		c-5.7-1.8-9.5-5.6-11.3-11.4c-1.2-3.9-2.8-5.4-7.2-6.6c-0.7,1-1,2.1-0.7,3.3c0.4,2,0.6,4.1,0.9,6.2c0.5,2.9,0.1,5.7-1.6,8
		c-1.9,2.8-4,5.4-6.2,7.9c-1.4,1.5-2.2,2.9-1.7,5.1c0.6,3.1-0.4,5.9-2.3,8.3c-0.9,1-1.9,1.9-2.9,2.8c-1.8,1.6-3.6,3.2-5.5,4.7
		c-1.2,1-1.9,2.1-1.3,3.9c0.6,1.8,0.2,3.8-0.7,5.6c-2.1,4.2-4.2,8.5-6.5,12.5c-2.3,3.9-5.8,6.5-9.9,8.4c-3,1.4-5.8,3.1-8.1,5.5
		c-3.4,3.6-5.2,7.8-5.8,12.6c-0.5,3.4-0.8,6.8-3.1,9.7c0.8,0.6,1.5,1.1,2.2,1.7c2.9,2.4,3.5,5.7,1.2,8.7c-1.6,2.1-3.5,4-5.3,5.9
		c-0.9,0.9-1.3,1.7-0.9,3.1c1,4-0.6,7.3-4.5,8.9c-4.9,2.1-9.2,5.1-13.1,8.7c-1,1-2.2,1.9-3.5,2.4c-3.1,1.2-6.5-0.1-8.3-3
		c-0.6-1-1.2-2.1-1.9-3.4c-2.1,1.7-4.2,3.3-6.3,4.9c-1.9,1.4-3.8,2.9-5.9,4.1c-3.3,2-7,2.8-10.8,2.1c-0.5-0.1-1.1-0.1-1.8-0.2
		c-0.2,0.8-0.5,1.5-0.7,2.2c-0.6,2.6-2.1,4.5-4.6,5.4c-7.3,2.9-14.6,5.7-22.3,7.3c-3.5,0.7-6.7,1.9-9.6,4.2c-3.2,2.6-7.3,1.9-10-1.3
		c-1.5-1.8-3-3.8-4.5-5.6c-0.4-0.5-0.9-0.9-1.2-1.2c-2.8,1.1-5.5,1.8-8,3.1c-2.7,1.3-5.2,3-7.8,4.7c-1.7,1.1-3.2,2.4-4.9,3.4
		c-6.5,3.8-14.3,2.7-19.6-2.6c-1.2-1.2-2.3-2.4-3.5-3.6c-2.2-2.3-4.8-3.2-8-2.4c-4,1-6.5-0.6-8.2-4.3c-0.8-1.9-1.8-3.8-3-5.5
		c-1.9-2.7-3.4-5.6-4-8.9c-0.1-0.5-0.3-0.9-0.5-1.6c-10.1,7-19.3,15.1-29.9,21c-10.6,5.9-21.5,11.4-32.4,17.1
		c-0.6,3.8-0.7,8.2-3.6,11.7c-2.8,3.4-6.4,5.4-10.2,7.3c0,0.5,0,0.9,0,1.3c0.1,4-1.6,7-4.9,9c-5.1,3.1-10.6,5.5-16.5,6.9
		c-1.8,0.4-3.8,0.4-5.7,0.6c0,1.1,0,2.1,0,3.1c-0.1,4-2.6,6.6-6.6,6.8c-1.4,0.1-2.9-0.1-4.3,0.1c-5,0.6-9.3,2.9-13,6.2
		c-0.1,0.1-0.2,0.4-0.5,0.8c1,0,1.8,0,2.5,0c41.8,0,83.7,0,125.5,0c1.6,0,2.9-0.2,3.9-1.7c1.3-2,3.6-2.6,5.9-2.6c3.1,0,6.2,0,9.4,0
		c4.6,0,9.1,0,14,0c0-0.9,0.1-1.7,0.1-2.6c0.1-5,0.3-10.1,0.4-15.1c0-0.2,0-0.5,0.1-0.7c0.2-2.3,1.7-3.8,3.7-3.6
		c1.9,0.2,3.1,1.7,3,3.9c-0.1,4.6-0.5,9.3-0.4,13.9c0.1,10.7,0.6,21.4,2.9,31.9c0.7,3.4,1.8,9.8,5.2,11.6c0.2,0.1,0.4,0.2,0.6,0.1
		c0.3-0.1,0.4-0.3,0.6-0.5c4.9-7.8,7.2-17.5,9.3-26.3c2.3-9.5,4-19.1,5.2-28.8c0.1-0.8,0.1-1.6,0.1-2.4c0.2-2.1,1.6-3.6,3.5-3.5
		c1.8,0.1,3.2,1.5,3.1,3.6c0,2.2-0.2,4.3-0.5,6.4c-1.9,13.3-4.4,26.5-8.6,39.3c-1.4,4.2-3.3,8.3-5.2,12.3c-0.8,1.6-2,3.1-3.2,4.4
		c-2.8,2.8-6.2,2.9-9.3,0.6c-1.9-1.4-3.2-3.4-4.2-5.5c-2-4.1-3.1-8.6-3.9-13c-0.4-2.4-0.7-4.7-1.1-7.1c-0.1-0.5-0.2-0.9-0.4-1.4
		c-1-0.1-2-0.2-2.9-0.3c-1.7-0.2-3.3-0.8-4.5-2.1c-0.8-0.8-1.6-1.2-2.8-1.1c-3,0-5.9,0-8.9,0c-1,0-1.8,0.3-2.4,1.2
		c-1.3,1.9-3.3,2.8-5.5,2.8c-1,0-1.9,0-2.9,0c-54.5,0-109,0-163.4,0c-2.2,0-4.3,0-6.5,0.1c-3.2,0-5.6-1.4-6.7-4.1
		c-1.2-3.1-0.5-6.6,1.8-8.6c0.5-0.4,1-0.8,1.5-1.2c2.6-1.9,5.3-3.8,7.9-5.8c4.1-3.2,8.6-4.9,13.8-4.4c5.9,0.6,11-1.2,15.5-4.9
		c3.6-3,7.8-4.7,12.4-5.4c1.4-0.2,2.3-0.7,2.7-2.2c0.3-1.1,0.8-2.1,1.4-3c2.1-3.6,5.2-5.5,9.4-5.6c2.3-0.1,4.6-0.1,6.9-0.4
		c2.6-0.3,5.1-1.4,7.4-2.7c1.1-0.6,1.5-1.4,1.2-2.6c-0.2-0.7-0.2-1.4-0.2-2.1c-0.2-4.1,1.6-6.4,5.5-7.5c1.9-0.5,3.8-1.3,5.6-2
		c1.9-0.8,2.8-2.3,3-4.3c0.1-1.8,0.3-3.5,0.4-5.3c0.2-4.1,2.3-6.6,6-8.1c5.3-2.1,10.6-4.4,15.9-6.8c13.3-6.1,25.4-14.2,36.8-23.3
		c2.7-2.1,5.4-4.2,8.2-6.2c2.9-2,6.1-3.4,9.7-4c6.5-1.1,11.7,2.5,13.1,9c0.5,2.6,1.2,5.1,2,7.6c0.8,2.7,2.8,4.3,5.7,4.4
		c5.5,0.2,9.7,2.9,13.2,6.9c0.7,0.8,1.4,1.7,2.2,2.6c1.7,2,2.4,2.1,4.7,0.7c1.5-0.9,2.9-2,4.4-3c1.8-1.3,3.6-2.6,5.5-3.8
		c0.9-0.6,1.8-1.1,2.8-1.3c1.8-0.5,3-1.6,3.8-3.3c0.7-1.4,1.6-2.8,2.8-3.8c3.2-2.9,7-2.8,10.1,0.2c3.1,2.9,5.9,6.1,8.9,9.1
		c0.3,0.3,0.5,0.7,0.7,1c7.8-3.1,16-4.1,23.6-7.4c0.1-1.8,0.3-3.5,0.4-5.2c0.7-7,6-10.6,12.7-8.6c1.7,0.5,3.3,1.3,4.8,2.1
		c2.4,1.3,4.5,1.1,6.6-0.7c2.8-2.4,5.6-4.7,8.5-7c2-1.6,4.4-2.6,6.9-3.3c4-1,7.4-0.1,10.3,2.9c0.2,0.2,0.5,0.4,0.9,0.8
		c1.3-0.8,2.6-1.7,4.1-2.6c-0.4-2.1-0.7-4.2,0.4-6.3c1-2,2.8-3,4.8-4.2c-0.3-1-0.7-2.1-1-3.1c-1.6-5-0.8-9.5,3.2-13.1
		c1.5-1.3,1.9-2.9,2.1-4.7c0.7-4.4,2-8.6,4.1-12.5c3.3-6.3,8.2-11.1,14.6-14.1c5-2.4,8.5-6.1,10.9-11c0.8-1.6,1.2-3.3,0.8-5.1
		c-0.8-3.5,0.3-6.4,2.4-9.2c2.4-3.1,5.2-5.9,8.3-8.3c1.1-0.9,1.6-1.8,1.5-3.2c-0.2-4.3,1.5-7.9,4.5-11c1.1-1.1,2.2-2.4,3.3-3.5
		c2-2,2.6-4.3,1.9-7c-0.5-2.1-0.8-4.3-0.8-6.4c-0.1-5.8,2.4-10.5,6.6-14.3c2.3-2.1,5.1-2.7,8.1-2.1c4.8,0.9,9,3.3,12.9,6.1
		c3.5,2.5,6,5.7,6.9,10c0.6,2.9,2.3,4.6,5.2,5.3c0.9,0.2,1.7,0.5,2.5,0.8c3.4,1.1,6.2-0.6,6.5-4.1c0.4-4.1,1.8-7.9,3.6-11.6
		c1.3-2.7,2.6-5.3,4-7.9c1.2-2.2,2.6-4.3,4.9-5.5c1-0.5,1.2-1.3,1.3-2.3c0.8-6,2.9-11.5,6.5-16.3c0.8-1,1.6-2,2.5-2.9
		c3.1-3.1,7.1-3.7,11-1.6c1.4,0.8,2.7,1.6,4.3,2.6c0.4-0.7,0.9-1.3,1.3-2c1.9-3.2,3.9-6.3,6.6-8.8c2.1-2,4.5-3.5,7.4-4.3
		c0.7-0.2,1.5-0.6,2-1.1c2.5-2.7,5.5-4.3,9-5.1c0.3-0.1,0.6-0.2,0.9-0.3c0.1-0.1,0.3-0.2,0.6-0.3c0.1-1,0.2-2.1,0.4-3.2
		c1.1-5.2,4.2-8.9,8.8-11.4c1.7-0.9,2.5-2,2.8-3.8c0.5-3.3,1.2-6.6,1.6-9.9c0.5-3.8,2.4-6.8,5.5-8.9c1.8-1.2,2.2-2.5,1.7-4.4
		c-0.9-3.4-0.9-6.8,0.5-10.1c1.1-2.5,2.6-4.6,4.9-6c2.6-1.7,5.3-1.9,8-0.6c1.9,1,3.8,2.1,5.3,3.6c10.1,10.2,21,19.4,31.8,28.9
		c0.3,0.3,0.6,0.6,0.9,0.8c1.4,0.9,2.9,0.3,3.3-1.3c0.4-1.6,0.7-3.3,1.1-4.9c0.8-3.2,2.2-6,4.4-8.4c2.4-2.6,5.4-3.8,9-3.6
		c7.2,0.4,14.3,1.3,21.2,3.5c1.2,0.4,2.4,0.8,3.6,1.3c4.3,1.9,6.5,5.2,6.9,9.9c0.2,2.9-0.5,5.7-1.7,8.4c-1.1,2.3-2.1,4.6-3.2,7.2
		c1.7,0.2,3.2,0.5,4.8,0.7c4.4,0.6,7.9,2.5,9.7,6.8c1,2.4,3.2,3.5,5.6,4.1c4.2,1.2,8.5,2.4,12.7,3.6c1.3,0.4,2.6,0.8,3.8,1.4
		c4.3,2,6.9,5.4,7.8,10c1.1,5.9,2,11.8,2.9,17.7c0.9,6-1.3,10.7-6.4,13.9c-1.5,0.9-3,1.8-4.5,2.7c-1.7,1-3.1,2.3-3.9,4.1
		c-2.7,5.6-6.1,10.7-9.5,15.8c-1,1.5-1.8,3.2-2.6,4.9c-0.4,0.8-0.4,1.8-0.6,3.1c1.2-0.4,1.9-0.7,2.6-0.9c4.2-1.2,8.4-2.4,12.7-3.4
		c4.1-1,7.8,0.2,10.8,3.2c1.3,1.3,2.7,2.8,3.7,4.4c5.2,8.4,12.8,13.2,22.3,15.1c6.7,1.4,13.4,2.8,20.2,4.3c1.4,0.3,2.8,0.7,4.2,1.1
		c3.7,1.2,6.7,3.4,9.1,6.4c0.7,0.8,1.3,1.6,1.9,2.5c1.4,1.7,3.2,2.6,5.3,3c1.3,0.2,2.5,0.4,3.8,0.6c3.6,0.5,6.3,2.5,7.8,5.7
		c2.4,5.1,5.7,9.6,9,14.1c1.8,2.5,3.5,5,4.7,7.8c3.2,7.5-0.1,16.5-7.3,20.4c-4.8,2.6-10,3.4-15.3,1.9c-7.8-2.1-13.5-6.8-16.7-14.2
		c-1-2.4-2.3-3.7-5-4c-3.5-0.4-6.2-2.6-8.6-5c-7.6-7.8-17.2-10.4-27.7-10.7c-1.1,0-2.2,0.2-3.1,1.5c0.6,0.4,1.2,1,1.9,1.3
		c8,3.8,14.7,9.3,21.1,15.3c1.7,1.7,3.4,3.3,5.2,5c1.4,1.4,3,2,5,1.5c3.3-0.8,6.4,0.1,9.1,1.9c3.1,2.1,5.9,4.7,8,7.8
		c2.4,3.5,5.5,5.1,9.6,5.3c6.3,0.3,11.5,3.1,15.9,7.5c5.6,5.6,8.5,12.2,8.2,20.2c-0.3,7.5-5.4,13.2-12.8,14.1
		c-4.2,0.5-8.3,0-12.4-0.7c-4.6-0.8-9.1-1.8-13.6-2.8c-5.9-1.3-10.2-4.6-12.7-10.3c-0.9-2.1-2.2-4.1-3.5-6c-1.8-2.7-4.4-4.1-7.8-3.8
		c-1.4,0.1-4.3-0.1-5.9-0.7c-5.7-1.8-6.5-2.5-10.2-5.2c-0.7-0.5-1.9,0.7-2.8,2.2c1.4,0.7,2.6,1.3,3.9,1.9c1.4,0.7,2.7,1.4,4,2.1
		c4.8,2.4,7.9,6.2,9,11.4c0.1,0.6,0.4,1.2,0.6,1.9c1.9,0.1,3.7,0.2,5.6,0.3c3.5,0.1,6.5,1.5,8.8,4.2c0.8,0.9,1.7,1.7,2.3,2.7
		c1.8,2.7,4.4,3.8,7.5,4.1c2.1,0.2,4.1,0.5,6.1,1.1c4.9,1.4,8,4.5,8.8,9.7c0.3,2,1.3,3.2,3.2,4c6.2,2.7,9.4,8.5,8.1,14.5
		c-1.2,5.2-4.3,9-9.1,11c-5.4,2.3-11.1,2.9-16.9,2.4c-2.9-0.2-5.4-1.7-7.3-3.8c-1.5-1.6-3.1-2.2-5.3-2c-4.4,0.4-8.2-1.3-11.3-4.3
		c-1.4-1.4-2.6-3-3.9-4.5c-2.6-3-5.1-6.2-8-8.9c-4.3-4.1-9.4-6.5-15.4-7.1c-3.3-0.3-6.4-1.5-9.1-3.4c-0.6-0.4-1.2-0.8-2.2-1.4
		c0.2,1,0.3,1.7,0.5,2.3c1.6,4.8,3.7,9.4,6.3,13.7c1.2,2.1,2.9,3.3,5.4,3.3c1.6,0,3.2,0.2,4.8,0.3c2.9,0.2,5.5,1.2,7.6,3.3
		c1.8,1.8,3.6,3.7,4.9,5.8c2.3,3.7,5.4,5.8,9.8,6.4c7.9,1.1,15.8,2.4,23.7,3.6c2,0.3,4,0.6,6,0.5c4.5-0.1,8.6,1.4,12.7,3.1
		c4.7,2,9.4,4,14.2,5.7c4.2,1.5,8.7,1.9,13.2,2.4c2.6,0.3,5.2,0.7,7.7,1.5c4.2,1.2,6.9,4.1,7.9,8.3c0.6,2.4,0.9,4.9,0.9,7.3
		c0.1,3.5-0.1,7-0.4,10.5c-0.5,6-4.8,9.8-10.9,9.9c-1.3,0-2.6,0-3.8,0c-0.1,0-0.1,0.1-0.3,0.2c0,0.6,0.1,1.3,0.1,2
		c0.1,4.4-2.5,7.3-6.9,7.6c-0.6,0-1.3,0-1.9,0c-71.2,0-142.4,0-213.6,0c-1.3,0-2.6-0.1-3.8-0.2c-2.6-0.2-4.3-1.6-5.3-3.8
		c-0.3-0.7-0.5-1.4-0.8-2c-0.7-1.4-1.7-2.6-3.2-3c-4.5-1.2-9-2.2-13.7-2.4c-0.8,1.2-1.4,2.4-2.2,3.5c-2,3-4.6,5.3-8.1,6.4
		c-3,1-5.6,2.7-8.1,4.7c-0.9,0.7-1.8,1.4-2.8,2.2c0,0.5,0,1.2,0,1.9c0.1,4.5,0.2,8.9,0.2,13.4c0,0.3,0,0.6,0,1
		c-0.2,2-1.6,3.4-3.4,3.4c-1.5,0-3.4-1.3-3.3-3.6c0-4.8-0.2-9.6-0.3-14.4c0-0.5-0.1-0.9-0.2-1.7c-6.6,0-13.2,0-20,0
		c-0.8,4.4-1.3,8.9-1.6,13.5c0,1-0.1,1.9-0.2,2.9c-0.2,2.1-1.5,3.3-3.4,3.2c-1.8-0.1-3.2-1.4-3.2-3.5c0-1.9,0.1-3.8,0.3-5.7
		c1.5-13.3,3.5-26.5,7.2-39.3c1-3.6,2.3-7.1,3.7-10.6c0.7-1.8,1.8-3.4,2.9-4.9c3.3-4.4,7.9-4.4,11.2,0.1c1.4,1.9,2.4,4.2,3.2,6.4
		c2.4,6.7,3.6,13.7,4.8,20.8c0.4,2.4,0.7,4.9,1.1,7.4C507,542.9,507.2,543.2,507.4,543.8z M492.5,512c-3.8,3.9-9.9,24.1-10.2,33.5
		c6,0,12,0.5,18.4,0.1c-0.9-5.6-1.7-11-2.8-16.3c-1-4.6-2.3-9.1-3.6-13.7C494,514.4,493.2,513.3,492.5,512z"/>
	<path d="M788.9,479.8c-5.8,0-11.7-4.3-14-10.4c-1.1-2.8-1.6-5.8-1.3-8.9c0.7-7.1,0.9-14.2,1.6-21.3c2-20.9,8.3-40.3,20.7-57.5
		c4.3-6,8.2-12.2,11.5-18.8c1.8-3.5,4.6-5.8,8.6-6.7c8.6-2,17.2-4.1,25.8-6.3c2.8-0.7,5,0,6.8,2.2c5.1,5.8,6.4,12.9,3.2,19.1
		c-1.1,2.1-2.7,4-4.3,5.7c-1.8,2.1-3.9,4-5.9,6c-1.7,1.7-2.8,3.5-2.8,6.1c0,2.8-1.6,4.9-4.3,5.7c-3.5,0.9-5.4,3.2-6.4,6.5
		c-0.7,2.3-1.4,4.6-2.1,6.9c-0.7,2.2-0.5,4.5,0.6,6.5c1.6,3,1,6.8-2.7,9.4c-0.7,0.5-1.3,0.9-2,1.3c-5.9,3.9-8.8,9.5-9.3,16.5
		c-0.2,3.4-0.4,6.9-0.8,10.3c-1.4,9.6-6,17.6-13.2,24.1C795.7,478.6,792.5,479.8,788.9,479.8z M838.7,366.1
		c-0.1-0.2-0.2-0.3-0.3-0.5c-5.8,1.4-11.6,2.8-17.4,4.1c-1.2,0.3-1.9,1.1-2.4,2.1c-2.9,5.8-6.4,11.3-10.1,16.5
		c-8,11.3-13.9,23.7-16.8,37.3c-2,9-2.9,18.1-3.5,27.3c-0.2,2.9-0.2,5.7-0.2,8.6c0,1.4,0.2,2.9,1.6,3.8c0.3-0.1,0.6-0.2,0.7-0.3
		c4-4.1,7.1-8.7,8-14.4c0.5-3.5,0.6-7,0.9-10.5c0.9-9.4,4.6-17.5,11.8-23.9c1-0.9,1.4-1.8,1.3-3.1c-0.5-7.4,1.8-14.2,4.9-20.7
		c1.3-2.6,3-4.9,5.3-6.8c2.2-1.8,4-3.9,5.2-6.5c1.2-2.7,3.2-4.8,5.2-6.8C834.8,370.3,836.7,368.2,838.7,366.1z"/>
	<path d="M407.6,532.3c-0.2,3.7-0.4,7.4-0.5,11.1c-0.1,7.8-0.1,15.5-0.2,23.3c0,0.6,0,1.1,0,1.7c-0.3,2-1.8,3.2-3.7,3
		c-1.8-0.1-3-1.3-3-3.4c0-4.7-0.1-9.4,0-14.2c0.2-8.4,0.3-16.8,0.6-25.2c0.2-6.7,0.6-13.4,1-20.1c0-0.6,0.1-1.1,0.3-1.6
		c0.5-1.7,1.8-2.8,3.2-2.7c1.5,0.1,2.7,1.1,3.1,2.8c0.8,3.1,1.5,6.2,2.4,9.3c3.4,12.9,6.7,25.8,11,38.5c0.7,2.2,1.6,4.3,2.5,6.5
		c0.3,0.6,0.7,1.2,1.5,1.8c0.3-1.3,0.6-2.5,0.9-3.8c0.9-5.9,1.1-11.8,1-17.7c-0.2-11.6-0.6-23.2-0.9-34.8c-0.1-1.9,0.6-3.1,2-3.8
		c2.1-1,4.4,0.2,4.6,2.5c0.3,3,0.4,6.1,0.5,9.1c0.2,11.7,0.4,23.5,0.3,35.2c0,4.8-0.4,9.6-1.8,14.2c-0.3,1.1-0.7,2.1-1.2,3.1
		c-2.2,4.3-7.1,5-10.2,1.3c-1.4-1.7-2.6-3.7-3.4-5.7c-1.7-4.2-3.1-8.4-4.4-12.7c-1.7-5.4-3.2-10.9-4.8-16.3
		c-0.2-0.6-0.4-1.1-0.6-1.7C407.8,532.3,407.7,532.3,407.6,532.3z"/>
	<path d="M297.5,545.8c-0.1,2.5-0.3,4.6-0.3,6.6c-0.1,5.2-0.2,10.4-0.3,15.6c0,0.6,0,1.3-0.2,1.9c-0.3,1.5-1.5,2.5-3,2.7
		c-1.5,0.1-2.9-0.7-3.4-2.2c-0.2-0.7-0.3-1.6-0.3-2.3c0.2-5.9,0.6-11.6,0.5-17.6c-0.2-14.4,0.6-28.8,1.2-43.2
		c0.1-2.5,0.7-3.2,3.2-3.7c5.1-1.1,10.3-1.2,15.4,0.2c12.4,3.4,16.3,15.8,10.6,25.9c-2.9,5.2-7.3,8.8-12.7,11.3
		c-0.7,0.3-1.5,0.7-2.2,1c-0.1,0-0.1,0.1-0.2,0.4c0.5,0.3,0.9,0.7,1.5,1c6.5,3.9,10,9.8,10.5,17.3c0.2,2.6,0.2,5.3,0.1,7.9
		c-0.1,2-1.1,3.2-2.7,3.5c-2.3,0.4-4.1-1.2-4.1-3.8c0-2.4,0.1-4.8-0.1-7.2c-0.3-4.9-2.5-8.9-6.7-11.6
		C302.3,548.2,300,547.2,297.5,545.8z M298.4,509.8c-0.2,9.2-0.4,18.1-0.7,27.3c7.2-1.5,13.1-4.2,17-10.3c0.6-0.9,1-2,1.4-3
		c1.7-5,0-9.6-4.5-12.2C307.6,509.3,303.2,509.2,298.4,509.8z"/>
	<path d="M352.8,543.7c-2.5-0.8-4.8-0.2-7.1-0.2c-0.8,0-1.6,0-2.3-0.2c-1.4-0.5-2.3-1.9-2.1-3.4c0.1-1.5,1.2-2.7,2.7-2.9
		c4.2-0.5,8.5-0.5,12.7,0.2c2,0.3,3,1.4,3,3.4c0,6.1,0.1,12.2-1.7,18.1c-1.1,3.6-2.7,6.8-5.5,9.4c-4.7,4.3-10.8,4.1-15.1-0.6
		c-2.2-2.4-3.5-5.3-4.2-8.5c-0.6-2.8-1.1-5.7-1.3-8.5c-0.7-10.3-0.4-20.6,2.2-30.7c0.9-3.7,2.3-7.3,4.4-10.6c4.3-6.4,13-8.3,18.9-4
		c3.5,2.5,5.2,7,4.1,11c-0.6,2-2.1,3-3.9,2.6c-1.8-0.4-3.2-2.1-2.7-3.9c0.9-3.2-2.2-5.4-4.9-5.3c-2.3,0.1-4.1,1.1-5.5,2.9
		c-1.9,2.5-2.9,5.3-3.7,8.2c-2,7.5-2.6,15.1-2.4,22.8c0.1,4.1,0.6,8.1,1,12.2c0.3,2.3,1.1,4.5,2.4,6.4c1.9,2.7,4.1,2.9,6.4,0.5
		c0.9-1,1.7-2.1,2.3-3.3C352.8,554.3,352.9,549,352.8,543.7z"/>
	<path d="M273.9,564.4c1.4,0,2.6-0.1,3.9,0c1.5,0.1,2.5,1,2.9,2.4c0.4,1.4,0,2.8-1.2,3.6c-0.6,0.4-1.3,0.6-2,0.6
		c-4.7,0.1-9.4,0.2-14.1,0.2c-2.7,0-4.3-2.2-3.5-4.5c0.5-1.4,1.5-2.2,3.1-2.2c1.3,0,2.5,0,4,0c-0.5-18.5,0.5-36.7,1.5-55
		c-1-0.1-1.7-0.1-2.5-0.2c-2.1-0.3-3.2-1.5-3.2-3.5c0.1-1.9,1.2-3.1,3.2-3.1c4.2-0.1,8.5-0.2,12.7-0.2c2.4,0,3.7,1.5,3.6,3.6
		c-0.1,1.8-1.2,3-3,3.1c-1.2,0.1-2.4,0-3.5,0C274.4,512.4,273,555.8,273.9,564.4z"/>
	<path d="M377.2,564.5c-0.6-18.6,0.4-36.7,1.4-55.1c-1-0.1-1.8-0.1-2.5-0.2c-2-0.2-3.2-1.6-3.2-3.5c0.1-1.8,1.3-3.1,3.3-3.1
		c4.2-0.1,8.5-0.2,12.7-0.2c1.9,0,2.9,0.8,3.4,2.4c0.4,1.3,0,2.8-1.2,3.6c-0.6,0.4-1.3,0.6-2,0.6c-1.1,0.1-2.2,0-3.7,0
		c-1.4,18.4-2,36.6-1.5,55.1c1.4,0,2.6,0,3.9,0.1c2.6,0.3,3.9,2.7,2.8,4.9c-0.5,1.1-1.4,1.8-2.7,1.8c-5,0.1-9.9,0.2-14.9,0.2
		c-2,0-3.3-1.5-3.3-3.4c0-1.9,1.3-3.2,3.4-3.2C374.4,564.5,375.6,564.5,377.2,564.5z"/>
	<path d="M457.9,509.1c-1.3,18.5-2,36.7-1.5,55.2c1.3,0,2.5-0.1,3.7,0c2.1,0.2,3.3,1.4,3.3,3.4c0,1.8-1,3.2-2.8,3.3
		c-5,0.2-10.1,0.2-15.1,0.2c-2.1,0-3.2-1.5-3.2-3.5c0.1-2,1.3-3.1,3.4-3.2c1.2,0,2.4,0,3.8,0c-0.6-18.5,0.5-36.6,1.5-55
		c-0.8-0.1-1.6-0.1-2.4-0.2c-2.1-0.2-3.3-1.4-3.3-3.4c0-1.9,1.2-3.2,3.3-3.3c4.2-0.1,8.3-0.2,12.5-0.2c2.5,0,3.9,1.5,3.7,3.7
		c-0.1,1.7-1.2,2.8-2.9,3C460.7,509.2,459.4,509.1,457.9,509.1z"/>
</g>
</svg>
