<?xml version="1.0" encoding="utf-8"?>
<!-- Generator: Adobe Illustrator 23.0.4, SVG Export Plug-In . SVG Version: 6.00 Build 0)  -->
<svg version="1.1" id="Layer_1" xmlns="http://www.w3.org/2000/svg" xmlns:xlink="http://www.w3.org/1999/xlink" x="0px" y="0px"
	 viewBox="0 0 864 864" style="enable-background:new 0 0 864 864;" xml:space="preserve">
<g>
	<path d="M343.7,838.3c0.7,0,1.6,0,2.5,0c34.3,0,68.6,0,103,0c78,0,156-0.1,234-0.1c1.3,0,2.6-0.1,3.8-0.2c1.7-0.1,2.9-1,3.4-2.5
		c0.8-2.3,1.6-4.7,2-7.1c1.4-7.8,2.5-15.6,3.8-23.4c0.4-2.1,1.2-4.1,1.9-6.2c0-0.1-0.1-0.3-0.2-0.3c-3.8-3.6-6.1-7.9-7.7-12.8
		c-2.1-6.8-4.2-13.6-6.4-20.3c-0.6-1.9-1.3-3.8-2.2-5.6c-3-5.9-2.7-11.7,0.6-17.4c0.6-1,1.2-2.1,1.9-3.1c1.1-1.6,1.2-3.2,0.6-5
		c-1.4-4.4-2.9-8.8-4-13.3c-2.2-9.1-1-17.8,3.5-26c2.6-4.7,5.4-9.2,8.1-13.8c2.1-3.6,4.1-7.2,4.5-11.5c0.2-1.7,0.2-3.5,0-5.3
		c-0.3-2.8,0-5.4,1.1-8c2.3-5.3,4.7-10.7,7.1-16c2.4-5.4,2.8-10.9,1.7-16.6c-1.2-6.1-2.4-12.2-3.1-18.4c-1.2-10.2,0.3-20.1,5.4-29.2
		c1.7-3,2.8-6.2,4-9.5c0.8-2.2,0.6-4.5-0.2-6.6c-1.5-3.9,2.5-8.5,6.3-8.6c1.1,0,2.2,0,3.4,0c4,0,7.3-3.1,7.2-7.1
		c-0.1-2.5-0.5-5.1-1.2-7.5c-2-7.4-1.8-14.6,0.1-22c3.5-13.5,7.9-26.7,13.7-39.3c1.9-4.1,3.2-8.5,4.9-12.8c0.5-1.3,1.1-2.5,1.8-3.7
		c3.9-7.5,7.7-15.1,11.7-22.5c3.6-6.6,8-12.7,13.6-17.9c2-1.8,2.8-4.3,3.1-6.9c0.3-2.7,0.5-5.4,0.9-8.1c0.5-3.9,1.8-7.5,3.7-10.8
		c3.7-6.3,7.5-12.5,11.1-18.8c2.6-4.6,4.6-9.5,5.7-14.7c0.3-1.3,0.4-2.7,0.3-4c-0.1-2-0.5-2.3-2.9-3c-0.8,1.6-1.6,3.2-2.4,4.9
		c-2.5,5.4-6.2,9.7-11.3,12.6c-0.6,0.3-1.1,0.7-1.6,1c-3.7,2.1-5.7,5.2-5.7,9.6c0,3.6-1.7,6.6-3.9,9.3c-5.6,6.9-10.7,14.2-14.6,22.2
		c-2.3,4.7-4.5,9.4-6.1,14.3c-2.5,7.3-7.4,11.3-14.9,12.4c-0.3,0-0.6,0.1-1,0.1c-2.5,0.2-4.3,1.1-5.4,3.7c-1.4,3.2-4.2,5.4-7.1,7.4
		c-3.9,2.7-6.3,6.2-7.6,10.7c-0.5,1.8-1.2,3.6-1.9,5.4c-2.9,8.4-9.1,13.1-17.6,15c-0.7,0.2-1.4,0.4-2.1,0.4c-1.9-0.1-2.4,1-3,2.4
		c-0.7,2-1.5,4.1-2.5,6c-2.3,4.4-5.8,7.3-10.7,8.7c-1.9,0.5-3.6,0.1-5.2-1c-2.5-1.7-4.1-4.1-5-6.9c-0.9-2.7-1.7-5.5-1.9-8.4
		c-0.5-9,0.5-17.9,2.7-26.6c2.4-9.4,7.6-17,15.1-23.1c1.7-1.4,2.9-2.9,2.9-5.2c0.1-1.9,0.4-3.8,0.6-5.7c1-7,5.2-11.4,11.7-13.5
		c3.5-1.1,7.2-1.4,10.8-2c1.3-0.2,2.5-0.3,3.8-0.4c1.8-0.1,2.8-1,3.2-2.7c0.9-4,1.8-7.9,2.7-12.1c-3.8-1.4-6.5-4.1-9.3-6.5
		c-1.4-1.2-2.9-1.9-4.7-2.2c-5.1-0.9-7.7-5.5-5.6-10.2c2.6-6,5.5-11.9,8.2-17.8c0.7-1.5,1.5-3,2.2-4.5c0.1-0.3,0-0.6,0-1.1
		c-1.1,0.5-2,1-2.9,1.4c-6.7,2.7-13,2.3-18.7-2.3c-5.3-4.3-6.8-10.8-3.9-17c1.3-2.9,2.8-5.8,4.2-8.6c2.9-5.8,4.1-11.9,3.9-18.3
		c-0.1-4.3-0.1-8.6-0.4-12.9c-0.2-3.2-0.8-6.3-1.4-9.5c-0.3-1.9-1.3-3.5-3-4.4c-2.9-1.6-5.9-3.1-9-4.7c-1.7,3.4-3.2,6.6-4.9,9.6
		c-2.6,4.6-5.2,9.2-8,13.7c-1.3,2.1-3,4-4.9,5.6c-4.4,3.8-9.3,2-10.7-3.6c-0.8-3.1-0.5-6.2,0-9.3c1.5-9.8,3.2-19.6,4.8-29.3
		c0.1-0.3,0.1-0.6-0.1-1.1c-0.4,0.6-0.7,1.1-1.1,1.7c-5.2,10.1-10.5,20.1-15.7,30.2c-0.4,0.7-0.7,1.5-1.2,2.1
		c-1.1,1.3-2.9,1.6-4.3,0.8c-1.4-0.8-2-2.6-1.4-4.2c0.3-0.7,0.6-1.3,0.9-1.9c8.7-17.6,18-35,27.7-52.1c0.4-0.8,0.9-1.5,1.5-2.2
		c1.2-1.3,2.9-1.6,4.1-0.8c1.4,0.8,2,2.2,1.6,3.9c-1.4,6.8-3,13.6-4.3,20.4c-1.9,10-3.7,20.1-5.3,30.2c-0.5,3-1,6.1-0.5,9.6
		c0.6-0.5,1.1-0.8,1.3-1.2c2.6-4,5.3-7.8,7.6-11.9c6.7-12.2,12.3-24.9,17.9-37.6c0.3-0.7,0.6-1.5,1-2.2c0.9-1.4,2.7-1.9,4.2-1.2
		c1.5,0.6,2.3,2,1.9,3.7c-0.2,0.8-0.5,1.5-0.8,2.2c-1.8,4-3.5,8-5.4,12.3c2.3,1.1,4.5,2.2,6.6,3.3c1.6,0.8,3.3,1.6,4.9,2.6
		c4.1,2.6,6.9,6.3,8.6,10.9c2,5.5,3,11.3,3,17.2c0,5.2,0,10.4-0.1,15.6c-0.1,9.2-2.9,17.6-7.6,25.4c-0.5,0.8-1,1.6-1.4,2.5
		c1.4,1.3,1.8,1.5,3.3,0.7c2.1-1,3.8-2.4,5.1-4.3c0.9-1.3,1.7-2.7,2.5-4.1c3.1-4.9,8.3-5.3,12.2-1c3.1,3.4,4.5,7.5,5,11.9
		c0.7,6.2-0.7,12.1-3.5,17.6c-2.2,4.5-4.6,9-7,13.7c0.9,0.8,1.9,1.6,2.8,2.4c0.9,0.8,1.9,1.4,2.8,2.3c1.3,1.2,2.5,1.5,4.3,0.9
		c4.9-1.4,9.3,2.6,8.7,7.8c-0.5,4.7-1.4,9.3-2,14c-0.6,4.6-1.8,9.1-3.6,13.4c-0.9,2.1-2.2,3.7-4.1,4.8c-3.3,2-6.9,3.2-10.8,3.5
		c-3,0.3-6,0.7-9,1.3c-3,0.6-3.8,1.6-4.2,4.7c-0.2,1.3-0.3,2.7-0.3,4.1c0,4.4-1.8,8.1-4.8,11.2c-1.3,1.3-2.5,2.7-4,3.8
		c-4.9,3.5-7.5,8.5-8.9,14.1c-0.9,3.7-1.4,7.5-2.1,11.3c0.1,0.1,0.3,0.2,0.4,0.3c0.5-0.4,1.1-0.7,1.6-1.1c1.9-1.6,4.1-2.4,6.6-2.6
		c1.8-0.1,3.7-0.4,5.5-0.8c2.8-0.5,4.7-2.3,5.6-5c0.7-2.1,1.4-4.2,2.1-6.4c1.9-6.1,5-11.3,10.5-15c2.8-1.9,4.7-4.6,6.1-7.6
		c2.3-4.9,6-7.5,11.5-7.6c1,0,1.9-0.1,2.9-0.2c2.7-0.1,3.5-0.7,4.3-3.3c5-14.6,12.8-27.5,22.3-39.5c1.3-1.6,2.1-3.3,2.3-5.4
		c0.5-6.4,3.4-11.6,8.6-15.4c1.5-1.1,3-2.2,4.5-3.1c3-1.8,5.1-4.3,6.6-7.4c1.1-2.2,2.2-4.5,3.6-6.5c4.1-6,10.5-7.9,17.3-5.2
		c8.3,3.3,13,12,11.2,21c-1.8,9-5.1,17.3-9.8,25.1c-1.7,2.9-3.5,5.8-5.3,8.6c-3.8,5.9-6.2,12.3-6.5,19.3c-0.3,6.7-2.9,12.2-7.8,16.7
		c-3.9,3.6-7,7.9-9.6,12.5c-4.5,8.2-8.9,16.5-13.3,24.7c-0.5,1-1,2.1-1.1,3.1c-0.3,2.7-1.2,5.1-2.4,7.5c-7.1,13.6-11.7,28.2-15.5,43
		c-1,4.1-0.9,8.1,0.2,12.1c1.1,3.9,1.8,7.8,1.7,11.8c-0.1,7.7-3.3,13.7-9.8,17.9c-1.4,0.9-2.6,1.9-3.4,3.3c-0.3,0.5-0.7,1.1-1.2,1.5
		c-2.1,1.8-3,4.1-3.8,6.7c-1,3-2.3,6-3.9,8.7c-3.9,6.6-5.2,13.7-4.1,21.2c1,6.7,2.2,13.4,3.2,20.1c1.1,7.2,0.5,14.2-2.3,20.9
		c-2,4.7-4.1,9.4-6,14.1c-0.7,1.8-1.4,3.8-1.3,5.8c0.1,8-2,15.3-5.9,22.2c-2.5,4.5-5.3,9-7.9,13.4c-2.3,4-4,8.2-3.6,13
		c0.2,2.4,0.6,4.8,1.3,7c1.2,4,2.5,7.9,4,11.8c1.7,4.4,1.4,8.4-1.5,12.2c-1,1.3-1.7,2.7-2.6,4c-1.3,1.9-1.6,4-0.6,6.2
		c0.2,0.4,0.3,0.9,0.5,1.3c3.1,5.3,4.5,11.3,6,17.1c0.7,2.7,1.4,5.4,2.3,8c0.5,1.6,1.4,3.1,2.3,4.5c1,1.5,2.6,2.3,4.5,2.4
		c4.1,0.2,6.4,2.1,7.5,6.1c0.6,2.2,0.2,4.2-1.5,5.7c-4.2,3.5-5.7,8.1-6.3,13.3c-0.8,6.3-1.5,12.7-2.4,19c-0.9,6.5-3.4,12.3-7.9,17.2
		c-2.4,2.6-5.3,4-8.9,4.1c-0.7,0-1.4,0-2.2,0c-64.2,0-128.5,0-192.7,0c-51.3,0-102.6,0.1-153.8,0.2c-1.7,0-3.4,0.2-5,0.1
		c-6.1-0.2-9.2-4.1-7.9-10.1c1.3-6-1.1-9.9-7.1-11.4c-1.3-0.3-2.7-0.6-3.9-1c-3.5-1.1-6-3.3-7.1-6.9c-0.6-1.9-1.6-2.9-3.6-2.8
		c-1.3,0-2.6-0.2-3.8-0.1c-9.2,0.3-16.3-3.7-21.7-11c-3.1-4.2-5.6-8.8-7.4-13.7c-4.2-11.3-7.8-22.8-10.2-34.7
		c-1.6-7.8-1.6-15.6,0.7-23.3c1.1-3.6,2.8-7,4.9-10.1c1.5-2.3,3-4.5,4.4-6.8c0.7-1.1,1.3-2.4,1.8-3.6c1.3-3.4,0.8-6.6-1.2-9.6
		c-1.3-1.9-3-2.8-5.3-2.6c-1,0.1-1.9,0.3-2.9,0.3c-4.6,0.1-7.8-2.8-7.3-7.2c1.4-12.6-1.3-24.6-4.6-36.6c-1.6-5.7-3-11.4-4.3-17.2
		c-1.1-4.7-0.6-9.2,1.4-13.6c0.8-1.7,1.4-3.4,2.2-5.1c1.4-3.2,1.4-6.3-0.1-9.5c-2.9-6-5.7-12-9.7-17.4c-2.1-2.8-4.3-5.6-6.8-8
		c-5.8-5.7-12.6-8.6-20.9-6.7c-2.3,0.5-4.5,0.1-6.4-1.4c-1.6-1.3-2.8-2.9-2.7-5.1c0-2.3-1.1-3.8-3-4.8c-1.5-0.8-3-1.4-4.6-2.1
		c-1.9-0.8-3.9-1.6-5.8-2.3c-7.5-3.1-13.5-8.2-18.5-14.5c-4.4-5.5-6.2-12-6.5-18.9c-0.1-2.2-0.5-4.4-0.9-6.6
		c-0.6-3.1-2.6-5.3-5.5-6.5c-1.5-0.7-3.1-1.3-4.6-2c-1.9-0.9-3.3-2.2-4.4-3.9c-1-1.6-2-3.3-3.2-5.1c-0.6,0.1-1.3,0.1-2,0.2
		c-6.4,1.1-11.7-0.9-15.7-6c-2.7-3.4-5.4-6.7-8.2-10c-1-1.2-2.1-2.2-3.2-3.2c-3.1-2.8-6.6-3.7-10.6-2.4c-0.8,0.3-1.7,0.5-2.5,0.8
		c-5.5,1.8-10.6,0.8-15.3-2.3c-3.8-2.5-6.7-5.9-9.4-9.5c-1.2-1.7-2.5-3.3-3.8-5c-1.6-2.1-3.6-3.6-6-4.6c-1.8-0.7-3.6-1.4-5.3-2.2
		c-1.4-0.7-2.9-1.5-4.1-2.4c-4.7-3.5-6.4-8.3-4.8-14c0.9-3.3,0.9-6.5,0.2-9.7c-0.4-1.9-0.7-3.8-1.1-5.6c-0.7-3.3,0-6.5,1.2-9.6
		c0.5-1.3,1.1-2.6,1.7-4c-0.5-0.6-1-1.1-1.5-1.6c-2.1-2.4-2.6-5.2-1.1-8c1.1-2.1,1-3.9-0.1-5.9c-1.7-3-3.1-6.2-2.8-9.8
		c0.2-2,0.6-4.1,1.2-6.1c1-3.5,2.6-6.9,3-10.6c0.6-4.5-0.2-8.8-0.9-13.1c-0.3-2.3-0.6-4.6-0.8-6.9c-0.2-3.5,0.7-6.7,2.8-9.4
		c1.4-1.8,2.8-3.7,4.4-5.4c5-5.7,8-12.3,9.7-19.5c0.2-0.8,0.3-1.6,0.4-2.4c0.1-2.6-0.6-3.8-3.1-4.8c-2.4-0.9-4.8-1.9-6.5-3.9
		c-1.3-1.6-2.3-3.4-3.4-5.2c-0.5-0.8-0.9-1.7-1.4-2.7c-4,0.7-7.7-0.2-11-2.3c-9.9-6.2-12-20.5-3.1-28.2c2-1.8,4.3-3.3,6.5-4.9
		c1-0.7,2.1-1.2,3.1-1.8c2.3-1.4,3.5-3.4,3.7-6.1c0.1-1.4,0-2.9-0.1-4.3c-0.2-2.9-0.1-5.7,0.6-8.6c1.1-4.3,3.3-7.8,6.9-10.3
		c1.9-1.3,3.9-2.6,5.8-3.8c3.5-2.1,6.4-4.7,8.5-8.2c1-1.6,2.2-3.1,3.5-4.6c2.2-2.6,5-4,8.4-3.8c1.6,0.1,2.4-0.5,3.2-1.8
		c2-3.3,5.1-5.1,9-4.9c2.1,0.1,4.3,0.5,6.4,0.9c3,0.6,3.8,0.2,5.1-2.6c1.6-3.7,2.3-7.7,2.2-11.7c-0.2-9.6-0.5-19.2-0.6-28.8
		c-0.1-8.6-0.2-17.1-0.2-25.7c0-13.2,0-26.4,0-39.6c0-3.7,0.9-6.7,4.1-9c1.3-0.9,2.2-2.3,3.3-3.5c2.9-3.1,6.2-5.4,10.8-5.2
		c0.5-0.8,0.9-1.6,1.4-2.5c2.2-3.9,5.4-6.5,9.8-7.5c3.3-0.7,6.1,0.1,8.2,2.7c1.5,1.8,2.6,3.8,3.8,5.8c0.6,1,1.2,2.1,1.8,3.1
		c2.5,3.8,6.1,5.3,10.5,4.8c5.2-0.6,10.2-1.9,15-3.9c29.1-12.1,58.3-24.2,87.4-36.3c2.6-1.1,5.2-2.1,7.8-3.1
		c3.9-1.5,7.6-3.4,10.7-6.2c6.2-5.6,14.2-5.2,19.9-2.2c6.7,3.4,10.5,10.5,9.8,18.1c-0.5,5.4-2.9,9.9-6.5,13.9
		c-0.7,0.7-1.3,1.4-2,2.1c-1.2,1.2-1.6,2.7-1.5,4.4c0.5,6.1-0.7,11.9-2.7,17.6c-0.2,0.5-0.4,1.1-0.5,1.6c0,0.1,0,0.3-0.1,0.6
		c1.1-0.2,1.5-1.1,2.1-1.7c1.8-2.2,3.5-4.4,5.3-6.5c4.2-5,7.3-5.8,13.3-3.5c3.9,1.5,7,3.8,8.8,7.7c2.2,4.6,6.3,5.8,10.9,6
		c1.9,0.1,3.8-0.1,5.8-0.1c2.1,0,4.1,0,6.4,0c1.4-2.2,2.8-4.6,4.3-6.9c1.6-2.4,3.3-4.7,5-7c0.7-1,1.6-1.7,3-1.8
		c2.7-0.1,4.5,2.5,3.3,4.9c-0.1,0.3-0.3,0.5-0.5,0.8c-6.8,8.5-11.6,18.2-16.4,27.8c-3,6.1-5.9,12.3-7.5,18.9
		c-0.3,1.2-0.6,2.5-0.7,3.8c-0.1,0.9,0.2,1.8,0.3,2.8c2-0.1,3.5-1,4.8-1.9c4.3-2.9,7.8-6.6,10.9-10.7c2.1-2.9,4.1-5.9,5.9-9
		c1.2-2.1,3.3-3.1,5.1-2.1c1.8,1,2.3,3.1,1.2,5.5c-2,4.4-4.1,8.8-6,13.3c-1.4,3.4-2.3,7-2.2,10.7c0.1,1.6,0.6,3,1.8,4.1
		c0.8,0.7,1.7,1.1,2.6,0.6c1.7-0.9,3.5-1.7,4.9-2.9c2.3-2.1,4.5-4.4,6.4-6.8c8.5-10.9,14.9-22.9,20.1-35.6c0.5-1.2,0.8-2.4,1.2-3.6
		c0.7-2.1,2.5-3.1,4.4-2.5c1.8,0.6,2.8,2.4,2,4.5c-1.8,4.9-3.7,9.7-5.9,14.4c-3.8,8.2-8.5,16-13.6,23.4c-3.2,4.5-6.7,8.8-11,12.3
		c-1.6,1.3-3.4,2.4-5.3,3.2c-6.7,2.6-13.5-1.6-14.2-8.7c-0.2-2.3,0-4.6,0-7.3c-0.9,0.7-1.6,1.2-2.3,1.7c-2.4,1.8-4.8,3.5-7.7,4.2
		c-5.6,1.5-9.7-1.4-10.2-7.2c-0.3-3.7,0.4-7.4,1.7-10.8c2.1-5.4,4.4-10.8,6.7-16.2c0.3-0.6,0.6-1.3,1-2.2c-1.2,0-2.2,0-3.2,0
		c-1.9,0.1-3.8,0.3-5.7,0.3c-8.1-0.1-14-4.4-19-10.2c-0.6-0.6-1-1.4-1.4-1.8c-2.2,2.1-4.4,4-6.4,6c-4.9,4.7-10.5,7.9-17.3,8.6
		c-1.7,0.2-3.4,0.2-5,0.1c-8.6-0.6-11.1-9.8-8.4-14.9c1.1-2.1,2.4-4.1,4-6c3-3.7,4.6-7.8,4.7-12.5c0.1-2.6,0.3-5.3,0.4-7.9
		c0.1-3.5,1.4-6.5,3.6-9.2c1.4-1.8,2.9-3.6,4.3-5.4c1.1-1.5,1.9-3.1,1.9-5.1c-0.1-2.9-2.6-4.7-5.3-3.5c-0.7,0.3-1.4,0.9-1.9,1.4
		c-1.9,1.9-4.1,3.3-6.5,4.4c-34.9,14.9-69.8,29.8-105.1,43.6c-6.7,2.6-13.6,4.2-20.8,3.8c-7.5-0.5-13.5-3.5-17.8-9.7
		c-0.5-0.7-0.9-1.3-1.4-1.9c0-0.1-0.1-0.1-0.4-0.3c-0.4,0.6-0.9,1.2-1.3,1.9c-1.9,3-4.5,4.4-8.1,4.2c-1.1-0.1-2.2-0.3-3.1,0.7
		c-1.3,1.4-2.9,2.5-3.1,4.6c-0.1,0.8-0.1,1.6-0.1,2.4c0,19.4-0.1,38.7,0,58.1c0.1,7.3,0.7,14.5,1,21.8c0.3,7.7,0.2,15.4-1.8,22.9
		c-0.9,3.5-2.5,6.7-4.8,9.6c-3.2,3.8-7.3,5.9-12.3,5.9c-2,0-4,0-6.2,0c-0.2,0.2-0.5,0.5-0.7,0.9c-2.3,3.9-5.9,5.3-10.2,4.8
		c-2.1-0.2-3.3,0.3-4.2,2.1c-0.3,0.6-0.7,1-1.1,1.6c-3.1,5-7.2,8.8-12.6,11.1c-4.4,1.9-6.5,5-6,9.9c0.3,2.8,0,5.8-0.3,8.6
		c-0.5,4.4-2.6,8.1-6.1,10.8c-2.8,2.2-5.8,4.2-8.8,6.3c-0.7,0.5-1.5,1-2.1,1.6c-2.3,2.1-1.6,5.1,1.4,6c0.7,0.2,1.6,0.3,2.4,0.2
		c6.2-0.8,10.4,2,13,7.3c1.5,3,3.4,5,6.4,6.4c6.2,2.8,9,8.1,9.5,14.7c0.3,3.6-0.2,7.2-1.2,10.7c-2.5,9.1-7.1,17.1-13.1,24.3
		c-0.4,0.5-0.8,1-1.2,1.5c-1.5,1.8-2,3.7-1.3,6c1.1,4.3,1.7,8.8,1.7,13.3c0,5.6-1,11-3.2,16.1c-1.3,3-1.2,5.6,0.5,8.4
		c1.9,3,2.4,6.5,2.3,10.1c0,1.1,0,2.3,0.4,3.3c1.9,4.3,1.7,8.4-0.4,12.5c-1.2,2.5-1.9,5.1-1.7,7.9c0.1,1.1,0.1,2.3,0.4,3.3
		c1.4,5.2,2.4,10.3,0.2,15.7c2.3,1,4.3,2.1,6.4,3c5.2,2.2,9.4,5.7,12.7,10.3c2,2.9,4.2,5.6,6.5,8.3c1.8,2.1,3.7,2.5,6.3,1.4
		c7-3,13.8-2,20.3,1.4c4.5,2.4,8.2,5.7,11.3,9.8c1.7,2.3,3.5,4.6,5.2,6.9c1.6,2,3.4,2.8,6.1,2.1c5.3-1.3,9.8,0.2,13,4.9
		c0.7,1.1,1.5,2.1,2,3.3c1.1,2.5,3,4.1,5.5,5c2.5,0.9,4.7,2.3,6.7,4.2c3.5,3.3,5.2,7.6,6.1,12.2c0.6,3.2,0.8,6.5,1.3,9.7
		c1.2,7.5,5.2,13,11.7,16.7c3.1,1.8,6.5,3.2,9.7,4.8c2.9,1.4,5.8,2.8,8.5,4.4c2.4,1.4,4.3,3.4,5.8,5.7c0.9,1.5,2,2.1,3.7,2.1
		c3.1,0.2,6.2,0.6,9.2,1.6c7.3,2.3,13.3,6.5,18.4,12.1c5.5,6,9.6,12.9,13.4,20.1c1.7,3.2,3.2,6.4,4.5,9.8c2,5.3,1.9,10.6-0.2,15.9
		c-0.8,1.9-1.5,3.9-2.4,5.8c-1.3,3-1.6,6-0.8,9.1c1.1,4.2,2.3,8.3,3.4,12.5c2.2,7.8,4.2,15.6,5.2,23.6c0.3,2.8,0.5,5.6,0.7,8.4
		c0.1,0.9,0.1,1.7,0.2,2.6c0.7,0.2,1.3,0.5,1.9,0.7c9.2,3.2,13.8,9.9,14.8,19.3c0.6,5.8-0.8,11.1-3.6,16.1c-1.3,2.4-2.7,4.7-4.4,6.9
		c-5.6,7.5-6.6,15.8-4.7,24.6c1.8,8.5,4.5,16.8,7.3,25.1c1.3,3.7,2.6,7.4,4.1,11c0.8,1.9,1.9,3.7,3,5.4c2.6,3.8,6.2,5.8,10.9,6.1
		c2.9,0.2,5.8,0.3,8.6,0.7c4.9,0.7,8.6,3.2,10.7,7.8c0.8,1.8,2.1,2.6,3.9,3.2c9.1,2.7,14.6,8.8,16.8,17.9c0.2,0.7,0.3,1.4,0.5,2.1
		C343.3,837.8,343.5,837.9,343.7,838.3z"/>
	<path d="M555.2,244.6c0.8-1,1.7-1.8,2.4-2.9c2.9-4.9,6.1-9.8,8.6-14.9c5.3-10.8,10.2-21.7,15.3-32.5c0.4-0.8,0.7-1.6,1.1-2.4
		c1-1.5,2.6-1.9,4.2-1.3c1.6,0.7,2.3,2.1,1.9,3.9c-0.1,0.4-0.2,0.8-0.4,1.1c-6.5,14.8-13,29.6-21.1,43.6c-1.8,3.2-4,6.1-6.2,9.1
		c-0.8,1.1-2,2.1-3.2,2.9c-3.6,2.5-8,1.1-9.3-3.1c-0.7-2.2-0.9-4.6-0.8-6.8c0.5-8.7,2-17.3,3.7-25.9c0.5-2.7,1-5.5,1.3-8.4
		c-0.4,0.6-0.8,1.2-1.1,1.9c-5.1,9.9-10.3,19.7-15.4,29.6c-0.4,0.7-0.7,1.5-1.1,2.1c-1,1.6-3.1,2.1-4.6,1.2
		c-1.5-0.8-2.1-2.7-1.4-4.4c0.8-1.9,1.7-3.8,2.7-5.6c8.6-16.1,17.3-32.3,25.9-48.4c0.4-0.8,0.9-1.5,1.5-2.1c1.2-1.2,2.7-1.4,4-0.8
		c1.3,0.7,2,2.2,1.7,3.9c-0.8,3.6-1.7,7.2-2.3,10.8c-2.5,13.2-4.9,26.4-7.3,39.6c-0.5,3.1-1,6.3-0.7,9.5
		C554.8,244.4,555,244.5,555.2,244.6z"/>
	<path d="M510.9,229.6c-5.2,0-9.8-2.9-11-9.6c-0.6-3.8-0.3-7.5,0.8-11.1c3.5-11.6,8.5-22.6,15.9-32.3c2.1-2.7,4.6-5.1,7.1-7.4
		c2.3-2.1,5.2-3.4,8.3-4c8.7-1.7,14.1,5.5,13.8,13.6c-0.1,4.3-1.6,8.5-3.2,12.4c-3.3,8.3-7.5,16.2-12.2,23.7c-2.5,4-5.3,7.9-9,10.8
		C518.3,228.2,514.4,229.6,510.9,229.6z M506.4,215.7c0,1,0.1,2,0.3,2.9c0.3,1.7,1.1,3.5,2.8,4.1c1,0.4,2.2,0.2,3.2-0.2
		c10.8-3.6,17.2-19.7,21.4-29.1c1.7-3.8,3.2-7.7,4.3-11.6c0.6-1.9,0.5-4.1,0.3-6.2c-0.3-3-2.6-4.5-5.5-3.6c-1.9,0.6-3.8,1.4-5.3,2.6
		c-2.1,1.7-4,3.7-5.6,5.8C515.9,188.9,506.1,203.9,506.4,215.7z"/>
	<path d="M464.4,131.8c6.2,0,11.4,3.8,12.7,9.2c0.7,2.8,0.5,5.6-0.6,8.2c-1,2.3-2.1,4.6-3.5,6.8c-1.4,2.3-3.5,2.8-5.3,1.7
		c-1.7-1.1-1.8-3.2-0.5-5.5c1.2-2.1,2.4-4.2,3-6.5c1.3-4.4-2.4-8-6.9-7c-1.3,0.3-2.6,0.9-3.6,1.7c-3.3,2.6-5.8,5.8-6.6,10
		c-0.4,1.8-0.4,3.9,0.1,5.7c0.9,3,2.3,6,3.6,8.8c1.4,3,3.1,5.8,3.3,9.2c0.1,1.1,0.1,2.3,0,3.3c-1,5.8-3.3,11-7.8,15
		c-3.5,3.1-7.7,4.4-12.4,3.8c-5.3-0.7-9.4-4.6-10.5-9.8c-0.6-2.8-0.4-5.6,0.3-8.3c0.9-3.7,2.5-7.1,5-10c1.3-1.6,2.8-2.8,4.8-3.4
		c2.2-0.7,4,0,4.6,1.7c0.7,1.7,0,3.7-1.9,4.6c-1.4,0.6-2.4,1.6-3.1,2.8c-1.9,2.9-3.1,5.9-3,9.4c0.2,6.7,7.7,7.8,12,3.8
		c1.8-1.7,3-4,4-6.3c1.3-3,2-5.9,0.5-9c-1.2-2.4-2.4-4.7-3.5-7.1c-2.2-4.6-3.8-9.4-2.8-14.6c1.5-7.4,5.5-13.2,12.2-16.9
		C460.3,132.1,462.4,131.6,464.4,131.8z"/>
	<path d="M620.5,214.6c-0.2,5.4-2.2,9.5-5,13.3c-1.2,1.6-3.2,1.8-4.7,0.8c-1.5-1-1.9-2.9-0.9-4.7c0.5-0.8,1.1-1.6,1.5-2.4
		c0.7-1.4,1.5-2.9,1.9-4.4c1.4-4.8-2.2-8.5-7.1-7.4c-0.8,0.2-1.6,0.4-2.2,0.8c-5,3.6-8.4,8.1-8,14.6c0.2,3.3,1.7,6.3,3.2,9.2
		c0.9,1.8,1.9,3.5,2.7,5.3c1.8,3.8,2,7.7,0.7,11.7c-1.4,4.4-3.4,8.5-6.9,11.6c-4.2,3.8-9.1,5.2-14.7,3.7c-5.2-1.4-9.1-6.2-8.9-13.3
		c0.1-5.2,2-9.8,5.2-13.9c1.4-1.9,3.2-3.4,5.5-4c2.9-0.8,5.2,1.2,4.4,4c-0.3,0.9-1,1.9-1.9,2.3c-1.7,0.8-2.8,2.1-3.7,3.6
		c-2.7,4.4-5,14.8,3.1,15c2.6,0.1,5.1-1.4,6.9-3.2c7.2-7.2,3.9-14,0.3-21.7c-2.1-4.5-3.5-9.2-2.8-14.4c0.9-6.6,7.4-16.4,15.2-18.2
		c5.9-1.4,14,1.6,15.7,8.5C620.4,212.7,620.4,213.9,620.5,214.6z"/>
	<path d="M500.8,149.5c4.9,0,9.9,4.1,10.9,9.7c0.6,3.3-0.5,6.2-2.4,8.7c-1.1,1.5-3.4,1.7-4.7,0.7c-1.5-1.1-1.8-3-0.9-4.7
		c0.1-0.2,0.3-0.4,0.4-0.6c1.9-2.5,0.5-5.7-2.5-6.6c-2.1-0.7-4.2-0.3-5.9,1c-1.9,1.4-3.8,3-5.4,4.7c-5.4,5.9-9.4,12.7-12.8,19.9
		c-1.9,3.9-3.5,7.9-4.9,11.9c-0.7,2.1-1.1,4.3-1.2,6.5c-0.1,3.9,2.4,5.6,6,4.1c1.1-0.5,2.1-1.4,3.1-2.1c0.4-0.3,0.7-0.9,1.1-1.2
		c1.2-1,3-1.1,4.2-0.3c1.3,0.9,1.8,2.5,1.2,4c-0.1,0.4-0.3,0.7-0.5,1.1c-2.9,4.6-9.9,7.1-15,5.4c-4.4-1.5-6.5-5-7-9.4
		c-0.4-3.6,0.3-7.2,1.5-10.6c4.1-11.2,9.4-21.9,16.9-31.3c2.5-3.2,5.4-6.1,8.8-8.4C494.1,150.4,496.7,149.5,500.8,149.5z"/>
	<path d="M644,226.2c-4.2,5.9-22.4,39.9-26.8,50.3c1.2,0.7,2.5,1.3,3.7,2c1.4,0.9,1.9,2.2,1.5,3.7c-0.3,1.4-1.2,2.3-2.6,2.5
		c-0.7,0.1-1.6,0-2.3-0.3c-4.5-2.1-9-4.2-13.4-6.5c-1.8-0.9-2.4-2.9-1.6-4.5c0.8-1.8,2.6-2.5,4.6-1.7c1.2,0.5,2.3,1.1,3.7,1.7
		c7.9-17.3,17.2-33.7,26.7-50.4c-0.8-0.4-1.6-0.8-2.3-1.3c-1.7-1-2.2-2.8-1.4-4.5c0.8-1.6,2.5-2.4,4.2-1.6c4.2,1.9,8.4,3.9,12.5,6
		c1.7,0.9,2.2,3,1.3,4.6c-0.8,1.5-2.6,2.2-4.3,1.6c-0.6-0.2-1.2-0.5-1.8-0.8C645.2,226.8,644.7,226.6,644,226.2z"/>
	<path d="M412,174.8c0.8,0.4,1.6,0.9,2.5,1.3c2.4,1.2,3.2,3.1,2.3,5c-0.9,1.9-2.9,2.3-5.4,1.2c-2.5-1.2-4.9-2.4-7.3-3.6
		c-1.7-0.8-3.3-1.6-5-2.4c-2.1-1.1-2.8-2.9-2-4.7c0.9-1.9,2.8-2.5,5.1-1.5c1,0.5,2,1,3.3,1.6c8-17.3,17.2-33.7,26.7-50.4
		c-0.8-0.5-1.5-0.9-2.3-1.3c-1.7-1-2.2-2.9-1.5-4.6c0.7-1.6,2.6-2.4,4.5-1.5c4.1,1.9,8.1,3.8,12.1,5.8c1.9,1,2.4,2.9,1.5,4.7
		c-0.8,1.6-2.6,2.3-4.5,1.6c-1.1-0.4-2.2-1-3.2-1.5C435.8,127.5,413.4,169.5,412,174.8z"/>
	<path d="M345.4,57.4c2.9,0,6.8,2.8,7.9,5.7c1.1,3,0.3,6.2-2.4,8.4c-1.3,1-2.8,1.8-4.4,2.3c-2.3,0.7-3.8,1.8-4.6,4.1
		c-1.1,3.3-3.4,4.9-6.9,4.8c-1.5-0.1-2.6,0.5-3.7,1.4c-4.9,3.8-10.4,0.3-11.6-4.1c-0.6-2-0.2-3.8,1-5.5c1.2-1.8,3-3,4.9-4.1
		c2.2-1.3,4.3-2.8,6.3-4.3c2.4-1.7,4.7-3.5,7-5.3c0.6-0.5,1.2-1,1.8-1.5C342.2,58.1,343.7,57.4,345.4,57.4z"/>
	<path d="M346.1,55.5c-0.4,0-0.9,0-1.2-0.1c-1.9-1-3.4-0.4-5,0.8c-2.9,2.3-7.2,1.4-9.6-1c-2.3-2.4-2.4-6.3-0.3-9.3
		c2.9-3.8,6.8-6,11.5-6.7c1.7-0.2,3.5-0.1,5.2-0.2c0.4,0,0.8,0.1,1.2,0.2c3.7,1.5,4.9,4.7,5.5,8.1c0.5,3-0.9,5.5-3.5,7.1
		c-1.1,0.7-2.5,0.9-3.7,1.4C346.2,55.6,346.1,55.6,346.1,55.5z"/>
	<path d="M357.2,34.9c0.1-4,1.2-7.4,3.6-10.3c2.4-3,6-3.5,9.5-1.5c3.1,1.8,4.4,5.5,2.8,8.9c-0.7,1.7-1,3.3-0.9,5.1
		c0.2,5-4.2,8.5-9.1,7.3c-1.5-0.4-2.8-1.3-3.6-2.6C358,39.6,357.5,37.1,357.2,34.9z"/>
	<path d="M367.3,48.3c3.6,0,6.2,1.9,7.3,4.8c1,2.9,0.3,5.8-2.1,7.8c-2.3,1.9-4.8,3.3-7.8,4c-4.7,1.1-9.2-2.9-8.6-7.7
		c0.2-1.8,0.8-3.5,2.4-4.5c2.3-1.5,4.7-2.7,7-4C366.2,48.3,367,48.3,367.3,48.3z"/>
	<path d="M325.5,24.7c3.6,0,5.8,1,7.2,3.5c1.4,2.6,2.4,5.4,1.8,8.5c-0.6,3-2.4,4.7-5.3,5.4c-2.8,0.7-5.3,0-7.1-2.3
		c-1.3-1.7-2.4-3.7-2.9-5.7C317.9,29.6,321.7,24.8,325.5,24.7z"/>
	<path d="M336.7,28.1c0-4.9,3.1-8.3,7.5-8.2c3.5,0.1,6.1,2.2,6.9,5.6c0.3,1.4,0.6,2.8,0.7,4.2c0.2,3.3-1.5,5.9-4.3,7.1
		c-2.9,1.2-6.2,0.3-8.3-2.1C337.7,33,336.7,30.4,336.7,28.1z"/>
</g>
</svg>
