<?xml version="1.0" encoding="utf-8"?>
<!-- Generator: Adobe Illustrator 23.0.4, SVG Export Plug-In . SVG Version: 6.00 Build 0)  -->
<svg version="1.1" id="Layer_1" xmlns="http://www.w3.org/2000/svg" xmlns:xlink="http://www.w3.org/1999/xlink" x="0px" y="0px"
	 viewBox="0 0 864 864" style="enable-background:new 0 0 864 864;" xml:space="preserve">
<g>
	<path d="M827.1,127.7c-3.3,0-6.4,0-9.6,0c-0.2,3.1-0.4,6-0.5,8.9c-0.2,5.4-1.3,10.6-3.6,15.6c-1.6,3.4-3.7,6.3-6.8,8.6
		c-4.9,3.7-12.3,3.4-16.6-1.2c-3.8-4.1-5.8-9-6.7-14.3c-1.4-8.5-1.6-17.2-1.2-25.8c0.4-7.4,1.2-14.8,3.1-22c1.2-4.6,2.8-9,5.5-13
		c4.5-6.7,12.4-9.6,19.9-7.1c6.7,2.2,10.6,8.7,9.1,15.4c-0.4,1.7-1.3,2.9-3,3.3c-1.7,0.4-3.1-0.2-4-1.6c-0.5-0.8-0.8-1.8-0.7-2.7
		c0.3-2.4,0.2-4.5-1.9-6c-2.4-1.7-5.1-1.8-7.8-0.9c-2.3,0.7-3.9,2.4-5.2,4.4c-2,3-3.2,6.4-4.2,9.9c-1.8,6.5-2.6,13.2-2.9,19.9
		c-0.4,8.2-0.3,16.3,1,24.4c0.4,2.6,1.5,5,2.3,7.5c0.2,0.6,0.6,1.1,1,1.7c2.6,3.8,6,4.1,9.2,0.6c3.1-3.4,4.5-7.6,5.1-12
		c0.5-4,0.6-8.1,0.9-12.2c0-0.3-0.1-0.6-0.2-1.1c-0.7-0.1-1.4-0.2-2.1-0.2c-2.7,0-5.4,0.1-8.2,0.2c-2.6,0.1-4.4-1.3-4.6-3.5
		c-0.2-2.3,1.5-4.1,4.2-4.2c2.8-0.1,5.6-0.2,8.4-0.2c9.6,0,19.2,0.1,28.8,0.1c4.1,0,6.5,1.8,7,5.9c0.4,3.4,0.3,6.8,0.3,10.3
		c0,3.3-0.5,6.5-0.5,9.8c0,26.6,0,53.1,0,79.7c0,33.3,0.1,66.6,0.2,99.8c0,16.1,0.1,32.2,0.1,48.2c0,30.9,0.1,61.8,0.1,92.6
		c0.1,53.2,0.1,106.4,0.2,159.6c0,30.5,0.1,61,0.2,91.4c0,14.2,0.1,28.5,0.1,42.7c0,1.1-0.1,2.3-0.4,3.3c-0.8,2.6-2.6,4.2-5.4,4.5
		c-1.4,0.2-2.9,0.2-4.3,0.2c-190.6,0-381.1,0-571.7,0c-80.1,0-160.2,0-240.2,0c-1.4,0-2.9,0-4.3-0.2c-2.9-0.3-4.8-2-5.5-4.9
		c-0.2-0.9-0.4-1.9-0.4-2.8c-0.1-1.4-0.1-2.9-0.1-4.3c0-169.8,0-339.5,0-509.3c0-39.8,0.1-79.7,0.2-119.5c0-1.4,0.1-2.9,0.4-4.3
		c0.6-3.2,2.8-5.3,6.1-5.5c1.6-0.1,3.2,0.1,4.8,0.3c10.1,1.6,20.1,3.6,30.3,4.9c14.9,1.8,30,2.5,45,0.8c10.5-1.1,21-2.3,31.5-3.3
		c6.4-0.6,12.8-1,19.1-1.2c11.2-0.3,22.4-0.4,33.6-0.3c12.9,0.1,25.9,0.5,38.8,0.7c7.4,0.1,14.9,0,22.3,0.2
		c8.6,0.2,17.3,0.6,25.9,1.1c12.4,0.7,24.8,0.7,37.2,0.7c1,0,1.9-0.1,2.9-0.1c19.6-0.1,39.2-0.1,58.8-0.2
		c24.9-0.1,49.8-0.2,74.6-0.2c0.9,0,1.7,0,2.8,0c0.1-0.8,0.1-1.5,0.2-2.2c0.4-8.4,0.5-16.8,1.1-25.1c0.3-4.3,1.1-8.6,2-12.8
		c0.6-3,3.3-4.3,5.8-3.1c1.7,0.8,2.3,2.3,1.9,4.5c-0.3,1.9-0.8,3.8-1.1,5.7c-1.4,9.3-1.7,18.6-1.9,28c-0.2,8.3-0.1,16.6,1,24.9
		c0.4,3.4,1.2,6.8,1.9,10.1c0.4,1.8,1.1,3.5,2.8,4.7c1.4-0.3,2.2-1.5,3-2.5c2.7-3.5,4.3-7.6,5.7-11.8c2.3-7,3.3-14.3,3.8-21.7
		c0-0.4,0-0.8,0.1-1.2c0.2-2.3,1.5-3.8,3.5-4c1.9-0.2,3.9,1.2,4.4,3.3c0.2,0.8,0.2,1.6,0.2,2.4c0.2,5.8,0.3,11.5,0.6,17.3
		c0.2,4.2,1.2,8.4,2.8,12.3c0.9,2.1,2.2,3.8,4.4,4.9c1.6,0.8,3.1,0.6,4.4-0.6c1.7-1.5,2.8-3.5,3.7-5.5c2.1-5,3.4-10.2,4.3-15.4
		c1.7-10,2.6-20,2.5-30.1c-0.1-6-0.3-12-0.6-18c-0.1-1.3-0.4-2.7-0.6-4c-0.3-2.5,0.9-4.4,3.3-4.7c2-0.3,3.9,1,4.3,3.3
		c0.5,2.8,0.9,5.7,1.1,8.6c0.8,15.6,0.2,31.2-2.3,46.6c-1,6.2-2.5,12.2-5.3,17.9c-1.1,2.2-2.4,4.4-4,6.2c-5.5,6-14.3,5.6-19.2-0.8
		c-1.7-2.2-2.8-5-4.1-7.5c-0.4-0.7-0.5-1.5-0.9-2.6c-0.4,0.8-0.7,1.3-1,1.8c-1.5,2.7-2.9,5.5-4.5,8.2c-1.4,2.2-3.3,3.9-5.7,5.1
		c-3.3,1.6-6.9,1-9.6-1.5c-2.5-2.3-4-5.2-4.7-8.5c-1-4.6-1.6-9.3-2.4-13.9c-0.1-0.7-0.2-1.4-0.3-2.2c-0.8-0.1-1.5-0.1-2.2-0.1
		c-27.4,0-54.7,0-82.1,0c-7.6,0-15.2,0-22.8,0.1c-14.1,0.2-28.1,0.7-42.2,0.7c-10.1,0-20.3-0.6-30.4-1c-9.2-0.4-18.4-1.1-27.5-1.3
		c-13.6-0.2-27.2-0.4-40.7-0.8c-11.3-0.3-22.7-0.2-34.1-0.1c-8.3,0.1-16.6,0.4-24.9,1c-8.8,0.6-17.7,1.8-26.5,2.5
		c-8.3,0.7-16.6,1.6-24.9,1.9c-19,0.7-37.8-1.3-56.6-4.4c-1.6-0.3-3.3-0.5-5.3-0.8c-0.1,1.2-0.2,2.2-0.2,3.2
		c-0.1,6.9-0.1,13.8-0.2,20.6c-0.1,25.1-0.1,50.2-0.2,75.4c0,18-0.1,36-0.1,54c0,120-0.1,240-0.1,360c0,22.8,0,45.6,0.1,68.4
		c0,9.2,0.1,18.4,0.1,27.6c0,3.5,0,7,0,10.2c0.4,0.4,0.5,0.4,0.5,0.5c0.1,0.1,0.1,0.1,0.2,0.1c0.3,0,0.6,0.1,0.9,0.1
		c266.7,0,533.4,0,800.1,0c0.2,0,0.5,0,0.7-0.1c0.1,0,0.3-0.2,0.7-0.4c0-0.7,0-1.6,0-2.4c0-20.1,0-40.2,0-60.2
		c0-29-0.1-57.9-0.2-86.9c0-25.5-0.1-51-0.1-76.6c0-21.3,0-42.6-0.1-63.8c0-27.8-0.1-55.5-0.1-83.3c-0.1-80.1-0.1-160.1-0.2-240.2
		C827.6,136.3,827.3,132.1,827.1,127.7z"/>
	<path d="M653.5,112.7c1.8-3.7,3.5-7,5.1-10.4c3.6-7.3,7.2-14.6,10.8-22c0.2-0.5,0.5-1,0.8-1.5c1-1.5,2.6-2.2,4.1-1.8
		c1.8,0.4,3,1.6,3.1,3.5c0.2,2.5,0.1,5.1,0.1,7.7c0,0.9-0.1,1.8-0.1,2.6c-0.1,17-0.1,34.1-0.2,51.1c0,5.6-0.1,11.2-0.2,16.8
		c0,0.6,0,1.3-0.2,1.9c-0.4,1.9-1.8,3.1-3.7,3.2c-2,0-3.6-1.2-3.9-3.1c-0.1-0.5-0.1-1.1-0.1-1.7c0.1-10.6,0.1-21.3,0.2-31.9
		c0.1-9,0.2-17.9,0.2-26.9c0-0.4,0-0.8-0.1-1.7c-0.6,1-0.9,1.4-1.2,2c-3.5,7.1-7,14.2-10.5,21.3c-0.3,0.6-0.6,1.3-1.1,1.9
		c-2.1,2.9-5.5,2.7-7.2-0.5c-0.6-1.1-1.1-2.3-1.7-3.5c-3-6.2-5.9-12.4-8.9-18.6c-0.3-0.5-0.6-1-1.2-1.9c-0.1,1.1-0.2,1.7-0.2,2.3
		c-0.1,8.9-0.2,17.7-0.2,26.6c-0.1,9.4-0.1,18.7-0.1,28.1c0,1.4-0.1,2.7-0.2,4.1c-0.2,2.3-1.7,3.7-3.9,3.7c-2.1,0-3.8-1.6-3.9-3.8
		c-0.1-3.3,0-6.6,0-9.8c0-0.9,0.1-1.8,0.1-2.6c0.1-16.9,0.2-33.9,0.3-50.8c0-4.7,0.1-9.4,0.2-14.1c0-0.6,0-1.3,0.1-1.9
		c0.3-1.6,1.2-2.8,2.9-3.1c1.7-0.4,3.2,0.1,4.2,1.6c0.3,0.4,0.5,1,0.8,1.5c4.8,9.9,9.5,19.9,14.3,29.8
		C652.6,111.1,653,111.7,653.5,112.7z"/>
	<path d="M760.2,154.6c1.4-3.2,1.8-6.6,2-10c1-12.3,1.1-24.6,0.6-36.9c-0.4-8.8-0.6-17.6-1-26.4c0-0.5,0-1,0-1.4
		c0.3-2,1.9-3.5,4-3.5c2,0,3.5,1.2,3.7,3.3c0.3,2.4,0.3,4.8,0.4,7.2c0.3,12.6,0.8,25.2,0.9,37.9c0.1,8.2-0.1,16.5-1.4,24.6
		c-0.5,3-1.3,5.9-2.3,8.8c-2.2,6-9,6.9-13,2.1c-1.9-2.2-3.2-4.8-4.2-7.5c-4.2-10.9-7.5-22.1-10.6-33.3c-0.8-2.9-1.6-5.8-2.8-8.8
		c-0.1,0.3-0.2,0.6-0.2,1c-0.3,15.6-0.7,31.2-1,46.7c0,0.7,0.1,1.4,0,2.2c-0.3,2.1-1.9,3.4-4,3.4c-2.1-0.1-3.6-1.5-3.6-3.7
		c-0.1-6.4-0.1-12.8,0-19.2c0.1-8.8,0.3-17.6,0.6-26.4c0.4-10.5,0.9-20.9,1.4-31.4c0.1-1,0.3-2.1,0.8-3c0.7-1.4,1.9-2.2,3.5-2
		c1.6,0.2,2.9,1,3.3,2.7c1,3.7,1.8,7.5,2.8,11.2c4.3,15.5,8.6,30.9,13,46.4c1.3,4.4,3,8.6,4.7,12.8c0.4,1.1,1.2,2.2,1.8,3.3
		C759.8,154.7,760,154.6,760.2,154.6z"/>
	<path d="M618.8,112.4c-0.2,11.5-0.5,20.2-2,28.7c-1.1,5.9-3,11.5-7,16c-1.2,1.4-2.7,2.7-4.3,3.7c-5,3.2-11,2.7-15.5-1.2
		c-3-2.6-5-6-6.4-9.7c-1.6-4.2-2.3-8.5-2.7-12.9c-0.9-9-1.3-18-0.5-27c0.6-6.7,1.5-13.3,3.9-19.7c1.7-4.6,4.2-8.6,8-11.7
		c6.5-5.2,14.2-4.5,19.5,1.9c3.7,4.5,5.4,9.9,6,15.7C618.3,102.6,618.6,108.9,618.8,112.4z M610.5,114.8c0-3.9,0-7.8,0-11.7
		c0-1.7-0.3-3.3-0.4-5c-0.4-3.7-1.2-7.2-3-10.5c-3-5.5-7.3-6.1-11.4-1.3c-1.5,1.8-2.8,3.9-3.7,6.1c-2.1,4.7-2.9,9.8-3.4,14.9
		c-1,9.3-1,18.7,0,28c0.4,4.1,0.9,8.3,2.4,12.2c0.9,2.3,2,4.5,4,6.2c2.2,1.9,4.7,2.1,7,0.3c1.3-1.1,2.5-2.5,3.5-3.9
		c2.1-3.2,3.1-6.8,3.8-10.5C610.5,131.3,610.7,123,610.5,114.8z"/>
	<path d="M543.1,111.7c2.7-4.7,5.1-9,7.6-13.3c3.4-5.9,6.7-11.8,10.1-17.7c0.3-0.6,0.6-1.1,1-1.6c1.3-1.6,3.4-1.9,5.2-0.8
		c1.7,1.1,2.2,2.9,1.4,4.8c-0.3,0.7-0.7,1.3-1,1.9c-6.7,11.7-13.3,23.5-20,35.2c-0.8,1.4-1.2,2.7-1.3,4.3
		c-0.2,11.6-0.5,23.2-0.7,34.8c0,1.3-0.1,2.5-1.1,3.5c-1.1,1.1-2.5,1.4-4,1c-1.5-0.4-2.4-1.5-2.6-3.1c-0.1-1.1-0.1-2.2-0.1-3.4
		c0.2-11.5,0.4-23,0.7-34.5c0-1.3-0.2-2.5-0.7-3.7c-4.9-11.4-9.7-22.8-14.6-34.2c-0.3-0.7-0.7-1.5-0.9-2.2c-0.6-2,0.4-4,2.2-4.8
		c1.9-0.8,4.1,0,5,2c1.9,4.2,3.7,8.5,5.5,12.8c2.4,5.6,4.8,11.2,7.2,16.7C542.2,110,542.6,110.6,543.1,111.7z"/>
	<path d="M697.9,155.8c-0.8-24.1,0.5-47.8,1.9-71.8c-1.2,0-2.3,0-3.4-0.1c-2-0.1-3.3-1.1-3.8-2.8c-0.7-2.6,0.8-4.9,3.6-5
		c5.6-0.2,11.2-0.2,16.8-0.2c2.3,0,3.7,1.7,3.8,3.8c0,2.3-1.5,3.9-3.9,4c-1.6,0.1-3.3,0-5.1,0c-1.8,24.1-2.6,47.8-2,71.9
		c1.8,0,3.4-0.1,5,0c2.6,0.1,4,1.5,4.1,3.8c0.1,2-1.1,3.6-3.1,3.9c-1,0.2-2.1,0.2-3.1,0.2c-5.3,0-10.6,0-15.8,0.1
		c-1.7,0-3-0.6-3.8-2c-0.8-1.4-0.7-2.8,0.1-4.1c0.8-1.3,2-1.7,3.5-1.8C694.2,155.8,695.9,155.8,697.9,155.8z"/>
</g>
</svg>
